%TF.GenerationSoftware,Altium Limited,Altium Designer,24.8.2 (39)*%
G04 Layer_Color=16711935*
%FSLAX26Y26*%
%MOIN*%
%TF.SameCoordinates,91EBE02E-BE3E-4F81-88BA-E3D4D69E941C*%
%TF.FilePolarity,Negative*%
%TF.FileFunction,Soldermask,Bot*%
%TF.Part,Single*%
G01*
G75*
%TA.AperFunction,ComponentPad*%
%ADD40C,0.121614*%
%ADD41C,0.046614*%
%ADD42C,0.056929*%
%TA.AperFunction,ViaPad*%
%ADD43C,0.070000*%
%TA.AperFunction,ComponentPad*%
%ADD44R,0.116890X0.116890*%
%ADD45C,0.116890*%
%ADD46C,0.045039*%
%TA.AperFunction,ViaPad*%
%ADD47C,0.041496*%
D40*
X3248938Y1974174D02*
D03*
Y1818268D02*
D03*
X5730906Y4715000D02*
D03*
X5575000D02*
D03*
X3940000D02*
D03*
X3784094D02*
D03*
X3248938Y3380000D02*
D03*
Y3224094D02*
D03*
Y2671010D02*
D03*
Y2515104D02*
D03*
X5840000Y1350000D02*
D03*
X5995906D02*
D03*
X6330906Y4715000D02*
D03*
X6175000D02*
D03*
X5234548Y1350000D02*
D03*
X5390452D02*
D03*
X4629094D02*
D03*
X4785000D02*
D03*
D41*
X3382796Y2016692D02*
D03*
X5773426Y4581142D02*
D03*
X3982520D02*
D03*
X3382796Y3422520D02*
D03*
Y2713530D02*
D03*
X5797480Y1483858D02*
D03*
X6373426Y4581142D02*
D03*
X5192028Y1483858D02*
D03*
X4586574D02*
D03*
D42*
X5004724Y2275000D02*
D03*
X5300000D02*
D03*
Y2425000D02*
D03*
X5004724D02*
D03*
X5300000Y3083838D02*
D03*
X5004724D02*
D03*
Y2933838D02*
D03*
X5300000D02*
D03*
X5930000Y2275000D02*
D03*
X6225276D02*
D03*
Y2425000D02*
D03*
X5930000D02*
D03*
Y3660000D02*
D03*
X6225276D02*
D03*
Y3810000D02*
D03*
X5930000D02*
D03*
X6225276Y3083838D02*
D03*
X5930000D02*
D03*
Y2933838D02*
D03*
X6225276D02*
D03*
D43*
X6680000Y4865000D02*
D03*
Y1210000D02*
D03*
X3110000D02*
D03*
Y4865000D02*
D03*
D44*
X3250512Y4271812D02*
D03*
D45*
Y4115906D02*
D03*
Y3960000D02*
D03*
Y3804094D02*
D03*
D46*
X3384370Y4314330D02*
D03*
D47*
X3129920Y1653543D02*
D03*
X4311022Y4960628D02*
D03*
X4251967Y4606298D02*
D03*
X4311022Y4488188D02*
D03*
X4251967Y4370077D02*
D03*
X4311022Y4251967D02*
D03*
X4251967Y4133857D02*
D03*
X4192912Y4960628D02*
D03*
Y4724408D02*
D03*
X4133857Y4606298D02*
D03*
X4192912Y4488188D02*
D03*
Y4251967D02*
D03*
Y4015747D02*
D03*
X4074802Y4960628D02*
D03*
Y4724408D02*
D03*
X3956692Y4960628D02*
D03*
X3897637Y4606298D02*
D03*
X3956692Y4488188D02*
D03*
Y4251967D02*
D03*
Y4015747D02*
D03*
Y3779526D02*
D03*
X3897637Y3661416D02*
D03*
X3838581Y4960628D02*
D03*
X3779526Y4606298D02*
D03*
X3838581Y4488188D02*
D03*
Y4251967D02*
D03*
Y4015747D02*
D03*
Y3779526D02*
D03*
X3779526Y3661416D02*
D03*
X3720471Y4960628D02*
D03*
X3661416Y4606298D02*
D03*
X3720471Y4488188D02*
D03*
Y4251967D02*
D03*
Y4015747D02*
D03*
Y3779526D02*
D03*
X3661416Y3661416D02*
D03*
X3720471Y3543306D02*
D03*
Y3307086D02*
D03*
X3661416Y3188975D02*
D03*
X3720471Y3070865D02*
D03*
X3661416Y2952755D02*
D03*
Y2716535D02*
D03*
Y2480314D02*
D03*
Y2244094D02*
D03*
Y2007873D02*
D03*
Y1771653D02*
D03*
Y1535433D02*
D03*
Y1299212D02*
D03*
Y1062992D02*
D03*
X3602361Y4960628D02*
D03*
Y4724408D02*
D03*
X3543306Y4606298D02*
D03*
X3602361Y4488188D02*
D03*
Y4251967D02*
D03*
Y4015747D02*
D03*
X3543306Y3661416D02*
D03*
Y3188975D02*
D03*
Y2480314D02*
D03*
Y1535433D02*
D03*
X3602361Y1417322D02*
D03*
X3543306Y1299212D02*
D03*
X3602361Y1181102D02*
D03*
X3543306Y1062992D02*
D03*
X3484251Y4960628D02*
D03*
X3425196Y4842518D02*
D03*
X3484251Y4488188D02*
D03*
Y4251967D02*
D03*
X3425196Y4133857D02*
D03*
Y2952755D02*
D03*
Y2480314D02*
D03*
Y2244094D02*
D03*
Y1771653D02*
D03*
Y1535433D02*
D03*
X3484251Y1417322D02*
D03*
X3425196Y1299212D02*
D03*
X3484251Y1181102D02*
D03*
X3425196Y1062992D02*
D03*
X3366141Y4960628D02*
D03*
X3307086Y4842518D02*
D03*
X3366141Y4724408D02*
D03*
Y4488188D02*
D03*
Y4015747D02*
D03*
Y3779526D02*
D03*
Y3543306D02*
D03*
Y2834645D02*
D03*
X3307086Y2244094D02*
D03*
X3366141Y2125984D02*
D03*
X3307086Y1535433D02*
D03*
X3366141Y1417322D02*
D03*
X3307086Y1299212D02*
D03*
X3366141Y1181102D02*
D03*
X3307086Y1062992D02*
D03*
X3248030Y4960628D02*
D03*
Y4724408D02*
D03*
X3188975Y4606298D02*
D03*
X3248030Y3543306D02*
D03*
Y3070865D02*
D03*
X3188975Y2952755D02*
D03*
X3248030Y2834645D02*
D03*
Y2362204D02*
D03*
X3188975Y2244094D02*
D03*
X3248030Y2125984D02*
D03*
Y1653543D02*
D03*
X3188975Y1535433D02*
D03*
X3248030Y1417322D02*
D03*
X3188975Y1062992D02*
D03*
X3070865Y4606298D02*
D03*
X3129920Y4488188D02*
D03*
Y3779526D02*
D03*
X3070865Y1771653D02*
D03*
Y1535433D02*
D03*
X3129920Y1417322D02*
D03*
X3011810Y4724408D02*
D03*
X2952755Y4606298D02*
D03*
X3011810Y4488188D02*
D03*
X2952755Y4370077D02*
D03*
X3011810Y4251967D02*
D03*
X2952755Y4133857D02*
D03*
X3011810Y4015747D02*
D03*
X2952755Y3897637D02*
D03*
X3011810Y3779526D02*
D03*
X2952755Y3661416D02*
D03*
X3011810Y3543306D02*
D03*
X2952755Y3425196D02*
D03*
X3011810Y3307086D02*
D03*
X2952755Y3188975D02*
D03*
X3011810Y3070865D02*
D03*
X2952755Y2952755D02*
D03*
X3011810Y2834645D02*
D03*
X2952755Y2716535D02*
D03*
X3011810Y2598424D02*
D03*
X2952755Y2480314D02*
D03*
X3011810Y2362204D02*
D03*
X2952755Y2244094D02*
D03*
X3011810Y2125984D02*
D03*
X2952755Y2007873D02*
D03*
X3011810Y1889763D02*
D03*
X2952755Y1771653D02*
D03*
X3011810Y1653543D02*
D03*
X2952755Y1535433D02*
D03*
X3011810Y1417322D02*
D03*
X2952755Y1299212D02*
D03*
X3425000Y4010000D02*
D03*
X3455000Y2295000D02*
D03*
X3350000Y4245000D02*
D03*
X3455000Y3025000D02*
D03*
%TF.MD5,23601fa91929f9b0772f4bf4b270ddc9*%
M02*
