%TF.GenerationSoftware,Altium Limited,Altium Designer,24.8.2 (39)*%
G04 Layer_Color=8421504*
%FSLAX26Y26*%
%MOIN*%
%TF.SameCoordinates,91EBE02E-BE3E-4F81-88BA-E3D4D69E941C*%
%TF.FilePolarity,Positive*%
%TF.FileFunction,Paste,Top*%
%TF.Part,Single*%
G01*
G75*
%TA.AperFunction,SMDPad,CuDef*%
%ADD10R,0.049213X0.059055*%
%ADD11R,0.078740X0.070866*%
%ADD12R,0.129921X0.188976*%
%ADD13R,0.024409X0.022638*%
%ADD14R,0.043307X0.025591*%
%ADD15R,0.059055X0.062992*%
%ADD16R,0.062992X0.090551*%
D10*
X3832224Y3909472D02*
D03*
X3696398D02*
D03*
X3832224Y4392066D02*
D03*
X3696398D02*
D03*
X3832224Y4151870D02*
D03*
X3696398D02*
D03*
D11*
X4935000Y3795000D02*
D03*
Y4895000D02*
D03*
X4335000Y4744606D02*
D03*
Y3945394D02*
D03*
D12*
X5833820Y4290000D02*
D03*
X6436182D02*
D03*
X5996182Y1760000D02*
D03*
X5393818D02*
D03*
D13*
X3550000Y3453228D02*
D03*
X3512598Y3546772D02*
D03*
X3587402D02*
D03*
X3549999Y2743228D02*
D03*
X3512597Y2836772D02*
D03*
X3587401D02*
D03*
X3549999Y2043228D02*
D03*
X3512597Y2136772D02*
D03*
X3587401D02*
D03*
D14*
X3513662Y4428188D02*
D03*
Y4352598D02*
D03*
X3596338Y4390394D02*
D03*
X3513662Y4187992D02*
D03*
Y4112402D02*
D03*
X3596338Y4150196D02*
D03*
X3513662Y3945594D02*
D03*
Y3870004D02*
D03*
X3596338Y3907800D02*
D03*
D15*
X4108898Y4151808D02*
D03*
X3971102D02*
D03*
X4108898Y3909536D02*
D03*
X3971102D02*
D03*
X4108898Y4392004D02*
D03*
X3971102D02*
D03*
D16*
X3544959Y1693386D02*
D03*
Y1866614D02*
D03*
Y3098386D02*
D03*
Y3271614D02*
D03*
Y2388386D02*
D03*
Y2561614D02*
D03*
%TF.MD5,efc943126ea6fcd9753eb1d68219ff1a*%
M02*
