M48
;Layer_Color=9474304
;FILE_FORMAT=2:5
INCH,LZ
;TYPE=PLATED
T01F00S00C0.01024
T02F00S00C0.02559
T03F00S00C0.07126
T04F00S00C0.07441
T05F00S00C0.11811
;TYPE=NON_PLATED
T06F00S00C0.07008
T07F00S00C0.07323
%
T01
X0295275Y0129921
X0301181Y0141732
X0307086Y0153543
X0295275
X0318898
X0330709
X034252
X0354331
X0366142
X0360236Y0141732
X0348425
X0336614
X0324803
X0312992
X0330709Y0129921
X034252
X0354331
X0366142
X0360236Y011811
X0348425
X0336614
X034252Y0106299
X0354331
X0366142
X0330709
X0318898
X0312992Y0165354
X0324803
X034252Y0177165
X0366142
Y0200787
Y0224409
Y0248031
X0354331
X034252
X03455Y02295
X034252Y0224409
X0330709
X0318898
X0324803Y023622
Y0212598
X0336614
Y0283465
X0324803
X0318898Y0295275
X0324803Y0307086
X03455Y03025
X034252Y0295275
X0366142
X0372047Y0307086
X0366142Y0271654
X0295275
X0301181Y0283465
X0295275Y0295275
X0301181Y0307086
Y0259842
X0295275Y0248031
X0301181Y023622
X0295275Y0224409
X0301181Y0212598
X0295275Y0200787
X0301181Y0188976
X0307086Y0177165
X0295275
X0301181Y0165354
X0295275Y0318898
X0301181Y0330709
X0295275Y034252
X0301181Y0354331
X0295275Y0366142
X0301181Y0377953
X0295275Y0389764
X0301181Y0401575
X0295275Y0413386
X0301181Y0425197
X0295275Y0437008
X0301181Y0448819
X0307086Y046063
X0295275
X0318898
X0312992Y0448819
X0336614
X0348425
X0360236
X0372047
X0383858
X0395669
X0389764Y046063
X0377953
X0366142
X0354331
X0360236Y0425197
X0372047
X0383858
X0395669
X0419291
X0431102
X0425197Y0437008
X0431102Y0448819
X0419291
X0425197Y046063
X0413386
X0425197Y0413386
X0419291Y0401575
X0395669
X0383858
X0372047
X0360236
X03425Y0401
X0336614Y0401575
X034252Y0413386
X0348425Y0425197
X0335Y04245
X0336614Y0377953
Y0354331
X0324803
X0312992Y0377953
X0354331Y0366142
X0366142
X0377953
X0389764
X0395669Y0377953
X0383858
X0372047
Y0354331
Y0330709
X0366142Y0318898
X0354331
X0360236Y0472441
Y0496063
X0372047
X0383858
X0395669
X040748
X0419291
X0431102
X0419291Y0472441
X040748
X0336614
X0324803
X0330709Y0484252
X034252
X0348425Y0496063
X0336614
X0324803
X0301181Y0472441
T02
X0500472Y02275
Y02425
X053
Y02275
X0593
Y02425
X0622528
Y02275
Y0293384
Y0308384
X0593
Y0293384
X053
Y0308384
X0500472
Y0293384
X0593Y0366
Y0381
X0622528
Y0366
T03
X0325051Y0380409
Y0396
Y0411591
Y0427181
T04
X0462909Y0135
X04785
X0523455
X0539045
X0584
X0599591
X0324894Y0181827
Y0197417
Y025151
Y0267101
Y0322409
Y0338
X0633091Y04715
X06175
X0573091
X05575
X0394
X0378409
T05
X0311Y0121
X0668
Y04865
X0311
T06
X0338437Y0431433
T07
X0458657Y0148386
X0519203
X0579748
X033828Y0201669
Y0271353
Y0342252
X0398252Y0458114
X0577343
X0637343
M30
