%TF.GenerationSoftware,Altium Limited,Altium Designer,24.8.2 (39)*%
G04 Layer_Color=32896*
%FSLAX26Y26*%
%MOIN*%
%TF.SameCoordinates,91EBE02E-BE3E-4F81-88BA-E3D4D69E941C*%
%TF.FilePolarity,Positive*%
%TF.FileFunction,Legend,Bot*%
%TF.Part,Single*%
G01*
G75*
%TA.AperFunction,NonConductor*%
%ADD31C,0.010000*%
D31*
X4885015Y5335000D02*
G03*
X4384985Y5335000I-250015J0D01*
G01*
X4811787Y3603213D02*
G03*
X4885015Y3780000I-176787J176787D01*
G01*
X3848213Y3346787D02*
G03*
X3774985Y3170000I176787J-176787D01*
G01*
Y655000D02*
G03*
X4275015Y655000I250015J0D01*
G01*
X4384985Y4496339D02*
X4885015Y4996368D01*
X4384985Y4968872D02*
X4885015Y4468841D01*
X4384985Y4607694D02*
X4885015Y5107724D01*
X4384985Y4552016D02*
X4885015Y5052046D01*
X4384985Y4913194D02*
X4885015Y4413164D01*
X4384985Y4384983D02*
X4885015Y4885013D01*
X4384985Y4440661D02*
X4885015Y4940691D01*
X4384985Y5191582D02*
X4885015Y4691552D01*
X4384985Y4663372D02*
X4885015Y5163402D01*
X4384985Y4719049D02*
X4885015Y5219079D01*
X4384985Y5080227D02*
X4885015Y4580197D01*
X4384985Y5024549D02*
X4885015Y4524519D01*
X4384985Y5135905D02*
X4885015Y4635875D01*
X4384985Y4162272D02*
X4885015Y4662302D01*
X4384985Y4106595D02*
X4885015Y4606625D01*
X4384985Y4273628D02*
X4885015Y4773658D01*
X4384985Y4217950D02*
X4885015Y4717980D01*
X4384985Y4050917D02*
X4885015Y4550947D01*
X4384985Y4523450D02*
X4885015Y4023420D01*
X4384985Y4579127D02*
X4885015Y4079097D01*
X4384985Y4857516D02*
X4885015Y4357486D01*
X4384985Y4801838D02*
X4885015Y4301808D01*
X4384985Y4329306D02*
X4885015Y4829335D01*
X4384985Y4690483D02*
X4885015Y4190453D01*
X4384985Y4634805D02*
X4885015Y4134775D01*
X4384985Y4746161D02*
X4885015Y4246131D01*
X4661045Y5583655D02*
X4883655Y5361045D01*
X4605727Y5583295D02*
X4885015Y5304007D01*
X4392124Y5394321D02*
X4575679Y5577876D01*
X4737209Y5563168D02*
X4863168Y5437209D01*
X4520442Y5557225D02*
X4885015Y5192652D01*
X4486129Y5535860D02*
X4885015Y5136974D01*
X4559881Y5573463D02*
X4885015Y5248329D01*
X4384985Y5275826D02*
X4688404Y5579245D01*
X4384985Y5331504D02*
X4638472Y5584991D01*
X4384985Y5164471D02*
X4767519Y5547005D01*
X4384985Y5108793D02*
X4799482Y5523290D01*
X4384985Y5220149D02*
X4730778Y5565942D01*
X4410310Y5444645D02*
X4885015Y4969941D01*
X4394825Y5404453D02*
X4885015Y4914263D01*
X4456378Y5509933D02*
X4885015Y5081296D01*
X4431039Y5479594D02*
X4885015Y5025618D01*
X4384985Y4774727D02*
X4885015Y5274757D01*
X4384985Y5247260D02*
X4885015Y4747230D01*
X4386008Y5357592D02*
X4885015Y4858585D01*
X4384985Y4997438D02*
X4850056Y5462509D01*
X4384985Y4941760D02*
X4868246Y5425021D01*
X4384985Y5053115D02*
X4827002Y5495133D01*
X4384985Y4830405D02*
X4885015Y5330435D01*
X4384985Y5302938D02*
X4885015Y4802908D01*
X4384985Y4886082D02*
X4880613Y5381710D01*
X4885015Y5335000D02*
X4885015Y3780000D01*
X4384985Y4300739D02*
X4885015Y3800709D01*
X4384985Y4245061D02*
X4882853Y3747193D01*
X4384985Y4189384D02*
X4872495Y3701874D01*
X4384985Y4133706D02*
X4855860Y3662831D01*
X4384985Y4078028D02*
X4834156Y3628857D01*
X4384985Y4022351D02*
X4807955Y3599381D01*
X4384985Y4467772D02*
X4885015Y3967742D01*
X4384985Y3939562D02*
X4885015Y4439592D01*
X4384985Y3995239D02*
X4885015Y4495269D01*
X4384985Y3883884D02*
X4885015Y4383914D01*
X4384985Y4356417D02*
X4885015Y3856387D01*
X4384985Y4412094D02*
X4885015Y3912064D01*
X4384985Y3966673D02*
X4780116Y3571542D01*
X4384985Y3910995D02*
X4752277Y3543703D01*
X4370864Y3869439D02*
X4724439Y3515864D01*
X4343025Y3841600D02*
X4696600Y3488025D01*
X4315186Y3813761D02*
X4668761Y3460186D01*
X4287347Y3785922D02*
X4640922Y3432347D01*
X4259508Y3758083D02*
X4613083Y3404508D01*
X4231670Y3730244D02*
X4585244Y3376670D01*
X4203831Y3702405D02*
X4557405Y3348831D01*
X4175992Y3674567D02*
X4529567Y3320992D01*
X4275015Y3066440D02*
X4811761Y3603187D01*
X4148153Y3646728D02*
X4501728Y3293153D01*
X4120314Y3618889D02*
X4473889Y3265314D01*
X4092475Y3591050D02*
X4446050Y3237475D01*
X4384985Y5335000D02*
X4384985Y3883560D01*
X4064637Y3563211D02*
X4418211Y3209637D01*
X4036798Y3535372D02*
X4390372Y3181798D01*
X4008959Y3507534D02*
X4362533Y3153959D01*
X3981120Y3479695D02*
X4334695Y3126120D01*
X3848239Y3346813D02*
X4384985Y3883560D01*
X3953281Y3451856D02*
X4306856Y3098281D01*
X3925442Y3424017D02*
X4279017Y3070442D01*
X3869765Y3368339D02*
X4275015Y2963089D01*
X3842038Y3340389D02*
X4275015Y2907411D01*
X3897604Y3396178D02*
X4275015Y3018767D01*
X3894045Y442025D02*
X4275015Y822996D01*
X3931018Y423322D02*
X4275015Y767318D01*
Y655000D02*
Y3066440D01*
X3973683Y410308D02*
X4275015Y711640D01*
X4024039Y404987D02*
X4275015Y655963D01*
X4087706Y412976D02*
X4267024Y592294D01*
X3810892Y525906D02*
X4275015Y990029D01*
X3834154Y493490D02*
X4275015Y934351D01*
X3817412Y3309336D02*
X4275015Y2851733D01*
X3834154Y493490D02*
X4275015Y934351D01*
X3861875Y465533D02*
X4275015Y878673D01*
X3803155Y539708D02*
X3909708Y433155D01*
X3774985Y2772785D02*
X4885015Y3882815D01*
X3774985Y2717107D02*
X4885015Y3827137D01*
X3780917Y3224138D02*
X4885015Y4328236D01*
X3774985Y2828462D02*
X4885015Y3938492D01*
X3774985Y2661429D02*
X4884864Y3771308D01*
X3774985Y2605751D02*
X4873160Y3703927D01*
X3774985Y2327363D02*
X4275015Y2827393D01*
X3774985Y3106851D02*
X4885015Y4216881D01*
X3774985Y3051173D02*
X4885015Y4161203D01*
X3774985Y3162528D02*
X4885015Y4272559D01*
X3774985Y2939818D02*
X4885015Y4049848D01*
X3774985Y2884140D02*
X4885015Y3994170D01*
X3774985Y2995495D02*
X4885015Y4105525D01*
X3774985Y2572276D02*
X4275015Y2072246D01*
X3774985Y2048974D02*
X4275015Y2549005D01*
X3774985Y2627953D02*
X4275015Y2127923D01*
X3774985Y2104652D02*
X4275015Y2604682D01*
X3774985Y1993297D02*
X4275015Y2493327D01*
X3774985Y1826264D02*
X4275015Y2326294D01*
X3774985Y2516598D02*
X4275015Y2016568D01*
X3774985Y2271685D02*
X4275015Y2771715D01*
X3774985Y2739309D02*
X4275015Y2239279D01*
X3774985Y2794986D02*
X4275015Y2294956D01*
X3774985Y2683631D02*
X4275015Y2183601D01*
X3774985Y2160330D02*
X4275015Y2660360D01*
X3774985Y2216008D02*
X4275015Y2716038D01*
X3775395Y3184320D02*
X4275015Y2684700D01*
X3774985Y2962019D02*
X4275015Y2461990D01*
X3797463Y3273608D02*
X4275015Y2796056D01*
X3782917Y3232476D02*
X4275015Y2740378D01*
X3774985Y2906342D02*
X4275015Y2406312D01*
X3774985Y2383041D02*
X4275015Y2883071D01*
X3774985Y2438718D02*
X4275015Y2938748D01*
X3774985Y3129053D02*
X4275015Y2629023D01*
X3774985Y3073375D02*
X4275015Y2573345D01*
X3774985Y3017697D02*
X4275015Y2517667D01*
X3774985Y2494396D02*
X4275015Y2994426D01*
X3774985Y2550074D02*
X4275015Y3050104D01*
X3774985Y1770586D02*
X4275015Y2270616D01*
X3774985Y2238209D02*
X4275015Y1738179D01*
X3774985Y2293887D02*
X4275015Y1793857D01*
X3774985Y2182532D02*
X4275015Y1682502D01*
X3774985Y1659231D02*
X4275015Y2159261D01*
X3774985Y1714908D02*
X4275015Y2214938D01*
X3774985Y2460920D02*
X4275015Y1960890D01*
X3774985Y1937619D02*
X4275015Y2437649D01*
X3774985Y2850664D02*
X4275015Y2350634D01*
X3774985Y1881941D02*
X4275015Y2381971D01*
X3774985Y2349565D02*
X4275015Y1849535D01*
X3774985Y2405242D02*
X4275015Y1905213D01*
X3774985Y1904143D02*
X4275015Y1404113D01*
X3774985Y1380842D02*
X4275015Y1880872D01*
X3774985Y1959821D02*
X4275015Y1459791D01*
X3774985Y1436520D02*
X4275015Y1936550D01*
X3774985Y1458721D02*
X4275015Y958691D01*
X3774985Y935420D02*
X4275015Y1435450D01*
X3774985Y1848466D02*
X4275015Y1348436D01*
X3774985Y1603553D02*
X4275015Y2103583D01*
X3774985Y2071176D02*
X4275015Y1571146D01*
X3774985Y2126854D02*
X4275015Y1626824D01*
X3774985Y2015499D02*
X4275015Y1515469D01*
X3774985Y1492197D02*
X4275015Y1992227D01*
X3774985Y1547875D02*
X4275015Y2047905D01*
X3774985Y1180332D02*
X4275015Y680303D01*
X3774985Y657032D02*
X4275015Y1157062D01*
X3774985Y1236010D02*
X4275015Y735980D01*
X3774985Y712710D02*
X4275015Y1212740D01*
X3792465Y563157D02*
X4275015Y1045707D01*
X3779800Y606169D02*
X4275015Y1101384D01*
X3774985Y879743D02*
X4275015Y1379773D01*
X3774985Y1347366D02*
X4275015Y847336D01*
X3774985Y1403043D02*
X4275015Y903013D01*
X3774985Y1291688D02*
X4275015Y791658D01*
X3774985Y768387D02*
X4275015Y1268417D01*
X3774985Y824065D02*
X4275015Y1324095D01*
X3774985Y1625755D02*
X4275015Y1125725D01*
X3774985Y1102454D02*
X4275015Y1602484D01*
X3774985Y1681432D02*
X4275015Y1181402D01*
X3774985Y1158131D02*
X4275015Y1658161D01*
X3774985Y1046776D02*
X4275015Y1546806D01*
X3774985Y1514399D02*
X4275015Y1014369D01*
X3774985Y1570077D02*
X4275015Y1070047D01*
X3774985Y1792788D02*
X4275015Y1292758D01*
X3774985Y1269487D02*
X4275015Y1769517D01*
X3774985Y1325164D02*
X4275015Y1825194D01*
X3774985Y1737110D02*
X4275015Y1237080D01*
X3774985Y1213809D02*
X4275015Y1713839D01*
X3774985Y655000D02*
Y3170000D01*
Y901944D02*
X4200245Y476684D01*
X3774985Y846266D02*
X4169956Y451296D01*
X3774985Y790589D02*
X4135060Y430513D01*
X3774985Y734911D02*
X4094932Y414964D01*
X3774985Y679233D02*
X4048158Y406060D01*
X3777271Y621270D02*
X3991270Y407271D01*
X3774985Y1514399D02*
X4275015Y1014369D01*
X3774985Y991098D02*
X4275015Y1491128D01*
X3774985Y1124655D02*
X4273360Y626280D01*
X3774985Y1068977D02*
X4263611Y580351D01*
X3774985Y1013299D02*
X4247435Y540850D01*
X3774985Y957622D02*
X4226123Y506484D01*
%TF.MD5,a523de9e6d4051d86dd3dd5019057318*%
M02*
