G04*
G04 #@! TF.GenerationSoftware,Altium Limited,Altium Designer,25.4.2 (15)*
G04*
G04 Layer_Physical_Order=2*
G04 Layer_Color=16711680*
%FSLAX25Y25*%
%MOIN*%
G70*
G04*
G04 #@! TF.SameCoordinates,F5E4941F-37D6-4625-B3FB-1CEAEB739549*
G04*
G04*
G04 #@! TF.FilePolarity,Positive*
G04*
G01*
G75*
%ADD83C,0.01100*%
%ADD86C,0.10000*%
%ADD87C,0.03661*%
%ADD88C,0.11161*%
%ADD89C,0.06000*%
%ADD90R,0.10689X0.10689*%
%ADD91C,0.10689*%
%ADD92C,0.03504*%
%ADD93C,0.06600*%
%ADD94C,0.04693*%
%ADD95R,0.10689X0.10689*%
%ADD96C,0.02402*%
G36*
X272172Y375500D02*
X272334Y372608D01*
X272819Y369753D01*
X273621Y366969D01*
X274730Y364294D01*
X276131Y361759D01*
X277807Y359397D01*
X279737Y357237D01*
X281896Y355307D01*
X284259Y353631D01*
X286794Y352230D01*
X289470Y351121D01*
X289924Y350991D01*
Y295609D01*
X289470Y295479D01*
X286794Y294370D01*
X284259Y292969D01*
X281896Y291293D01*
X279737Y289363D01*
X277807Y287204D01*
X276131Y284841D01*
X274730Y282306D01*
X273621Y279630D01*
X272819Y276847D01*
X272334Y273992D01*
X272172Y271100D01*
X272334Y268208D01*
X272819Y265353D01*
X273621Y262569D01*
X274730Y259894D01*
X276131Y257359D01*
X277807Y254996D01*
X279737Y252837D01*
X281896Y250907D01*
X284259Y249231D01*
X286794Y247830D01*
X289470Y246721D01*
X292253Y245919D01*
X295108Y245434D01*
X298000Y245272D01*
X409202D01*
X424672Y229802D01*
Y101204D01*
X133340D01*
X130035Y101530D01*
X126778Y102178D01*
X123601Y103141D01*
X120533Y104412D01*
X117604Y105977D01*
X114844Y107822D01*
X112277Y109929D01*
X109929Y112277D01*
X107822Y114844D01*
X105977Y117604D01*
X104412Y120533D01*
X103141Y123601D01*
X102178Y126778D01*
X101530Y130035D01*
X101204Y133340D01*
Y135000D01*
Y465000D01*
Y466660D01*
X101530Y469965D01*
X102178Y473222D01*
X103141Y476399D01*
X104412Y479467D01*
X105977Y482396D01*
X107822Y485156D01*
X109929Y487723D01*
X112277Y490071D01*
X114843Y492178D01*
X117604Y494023D01*
X120533Y495588D01*
X123601Y496859D01*
X126778Y497823D01*
X130035Y498470D01*
X133340Y498796D01*
X272172D01*
Y375500D01*
D02*
G37*
%LPC*%
G36*
X122727Y486382D02*
X121273D01*
X119847Y486098D01*
X118503Y485542D01*
X117294Y484734D01*
X116266Y483706D01*
X115458Y482497D01*
X114902Y481153D01*
X114618Y479727D01*
Y478273D01*
X114902Y476847D01*
X115458Y475503D01*
X116266Y474294D01*
X117294Y473266D01*
X118503Y472458D01*
X119847Y471902D01*
X121273Y471618D01*
X122727D01*
X124153Y471902D01*
X125497Y472458D01*
X126706Y473266D01*
X127734Y474294D01*
X128542Y475503D01*
X129098Y476847D01*
X129382Y478273D01*
Y479727D01*
X129098Y481153D01*
X128542Y482497D01*
X127734Y483706D01*
X126706Y484734D01*
X125497Y485542D01*
X124153Y486098D01*
X122727Y486382D01*
D02*
G37*
G36*
X174500Y474097D02*
Y468587D01*
X180011D01*
X179828Y469506D01*
X179332Y470704D01*
X178612Y471782D01*
X177695Y472698D01*
X176617Y473418D01*
X175419Y473914D01*
X174500Y474097D01*
D02*
G37*
G36*
X172500D02*
X171581Y473914D01*
X170383Y473418D01*
X169305Y472698D01*
X168388Y471782D01*
X167668Y470704D01*
X167172Y469506D01*
X166989Y468587D01*
X172500D01*
Y474097D01*
D02*
G37*
G36*
X180011Y466587D02*
X174500D01*
Y461076D01*
X175419Y461259D01*
X176617Y461755D01*
X177695Y462475D01*
X178612Y463392D01*
X179332Y464469D01*
X179828Y465667D01*
X180011Y466587D01*
D02*
G37*
G36*
X172500D02*
X166989D01*
X167172Y465667D01*
X167668Y464469D01*
X168388Y463392D01*
X169305Y462475D01*
X170383Y461755D01*
X171581Y461259D01*
X172500Y461076D01*
Y466587D01*
D02*
G37*
G36*
X189718Y473955D02*
X188463D01*
X187233Y473710D01*
X186074Y473230D01*
X185031Y472533D01*
X184144Y471646D01*
X183447Y470603D01*
X182967Y469444D01*
X182722Y468214D01*
Y466959D01*
X182819Y466474D01*
X170878Y454533D01*
X135336D01*
X133826Y454334D01*
X132418Y453751D01*
X131209Y452823D01*
X107172Y428787D01*
X106245Y427578D01*
X105662Y426170D01*
X105463Y424659D01*
Y162700D01*
X105662Y161189D01*
X106245Y159781D01*
X107172Y158572D01*
X150172Y115572D01*
X151381Y114645D01*
X152789Y114062D01*
X154300Y113863D01*
X256000D01*
X257511Y114062D01*
X258919Y114645D01*
X260128Y115572D01*
X268454Y123898D01*
X276980Y115372D01*
X278188Y114445D01*
X279596Y113862D01*
X281107Y113663D01*
X320855D01*
X322366Y113862D01*
X323773Y114445D01*
X324982Y115372D01*
X333723Y124113D01*
X342863Y114972D01*
X344072Y114045D01*
X345480Y113462D01*
X346991Y113263D01*
X386198D01*
X387709Y113462D01*
X389116Y114045D01*
X390325Y114972D01*
X399116Y123763D01*
X400043Y124972D01*
X400627Y126380D01*
X400826Y127891D01*
Y130424D01*
X401123Y131142D01*
X401368Y132373D01*
Y133627D01*
X401123Y134857D01*
X400643Y136016D01*
X399946Y137059D01*
X399059Y137946D01*
X398016Y138643D01*
X396858Y139123D01*
X395627Y139368D01*
X394373D01*
X393143Y139123D01*
X391984Y138643D01*
X390941Y137946D01*
X390054Y137059D01*
X389357Y136016D01*
X388877Y134857D01*
X388632Y133627D01*
Y132373D01*
X388877Y131142D01*
X389151Y130480D01*
Y130308D01*
X383780Y124937D01*
X349409D01*
X339020Y135326D01*
X338734Y136016D01*
X338037Y137059D01*
X337150Y137946D01*
X336107Y138643D01*
X334948Y139123D01*
X333718Y139368D01*
X332463D01*
X331233Y139123D01*
X330074Y138643D01*
X329031Y137946D01*
X328144Y137059D01*
X327447Y136016D01*
X326967Y134857D01*
X326723Y133627D01*
Y133623D01*
X324052Y130953D01*
X323645Y131253D01*
X323868Y132373D01*
Y133627D01*
X323623Y134857D01*
X323143Y136016D01*
X322446Y137059D01*
X321559Y137946D01*
X320516Y138643D01*
X319357Y139123D01*
X318127Y139368D01*
X316873D01*
X315642Y139123D01*
X314484Y138643D01*
X313441Y137946D01*
X312554Y137059D01*
X311857Y136016D01*
X311377Y134857D01*
X311132Y133627D01*
Y132373D01*
X311377Y131142D01*
X311857Y129984D01*
X312554Y128941D01*
X313441Y128054D01*
X314484Y127357D01*
X315642Y126877D01*
X316873Y126632D01*
X318127D01*
X319247Y126855D01*
X319548Y126448D01*
X318437Y125337D01*
X283525D01*
X274275Y134587D01*
X273508Y135354D01*
X273234Y136016D01*
X272537Y137059D01*
X271650Y137946D01*
X270607Y138643D01*
X269448Y139123D01*
X268218Y139368D01*
X266963D01*
X265733Y139123D01*
X264574Y138643D01*
X263531Y137946D01*
X262644Y137059D01*
X261947Y136016D01*
X261467Y134857D01*
X261223Y133627D01*
Y133178D01*
X258295Y130250D01*
X257871Y130534D01*
X258123Y131142D01*
X258368Y132373D01*
Y133627D01*
X258123Y134857D01*
X257643Y136016D01*
X256946Y137059D01*
X256059Y137946D01*
X255016Y138643D01*
X253857Y139123D01*
X252627Y139368D01*
X251373D01*
X250143Y139123D01*
X248984Y138643D01*
X247941Y137946D01*
X247054Y137059D01*
X246357Y136016D01*
X245877Y134857D01*
X245632Y133627D01*
Y132373D01*
X245877Y131142D01*
X246357Y129984D01*
X247054Y128941D01*
X247941Y128054D01*
X248984Y127357D01*
X250143Y126877D01*
X251373Y126632D01*
X252627D01*
X253857Y126877D01*
X254467Y127129D01*
X254750Y126705D01*
X253582Y125537D01*
X156718D01*
X117137Y165118D01*
Y422241D01*
X126064Y431168D01*
X126525Y430976D01*
Y420640D01*
X138789D01*
Y432903D01*
X128453D01*
X128262Y433365D01*
X137754Y442858D01*
X173295D01*
X174806Y443057D01*
X176214Y443640D01*
X177423Y444568D01*
X188645Y455790D01*
X189093Y455531D01*
X188894Y454786D01*
Y453615D01*
X189197Y452484D01*
X189783Y451469D01*
X190611Y450641D01*
X191625Y450055D01*
X192757Y449752D01*
X193928D01*
X195060Y450055D01*
X196074Y450641D01*
X196903Y451469D01*
X197488Y452484D01*
X197791Y453615D01*
Y454786D01*
X197488Y455918D01*
X196903Y456932D01*
X196074Y457761D01*
X195060Y458346D01*
X193928Y458650D01*
X192757D01*
X192013Y458450D01*
X191754Y458898D01*
X193207Y460351D01*
X194134Y461560D01*
X194717Y462968D01*
X194916Y464479D01*
Y465010D01*
X195214Y465729D01*
X195459Y466959D01*
Y468214D01*
X195214Y469444D01*
X194734Y470603D01*
X194037Y471646D01*
X193150Y472533D01*
X192107Y473230D01*
X190948Y473710D01*
X189718Y473955D01*
D02*
G37*
G36*
X146608Y435315D02*
X145478D01*
X144387Y435022D01*
X143408Y434457D01*
X142609Y433659D01*
X142044Y432680D01*
X141752Y431589D01*
Y430459D01*
X142044Y429367D01*
X142609Y428389D01*
X143408Y427590D01*
X144387Y427025D01*
X145478Y426732D01*
X146608D01*
X147700Y427025D01*
X148678Y427590D01*
X149477Y428389D01*
X150042Y429367D01*
X150335Y430459D01*
Y431589D01*
X150042Y432680D01*
X149477Y433659D01*
X148678Y434457D01*
X147700Y435022D01*
X146608Y435315D01*
D02*
G37*
G36*
X133657Y417451D02*
Y412181D01*
X138927D01*
X138758Y413032D01*
X138280Y414186D01*
X137585Y415225D01*
X136702Y416109D01*
X135663Y416803D01*
X134508Y417282D01*
X133657Y417451D01*
D02*
G37*
G36*
X131657D02*
X130807Y417282D01*
X129652Y416803D01*
X128613Y416109D01*
X127729Y415225D01*
X127035Y414186D01*
X126557Y413032D01*
X126388Y412181D01*
X131657D01*
Y417451D01*
D02*
G37*
G36*
X138927Y410181D02*
X133657D01*
Y404911D01*
X134508Y405080D01*
X135663Y405559D01*
X136702Y406253D01*
X137585Y407137D01*
X138280Y408176D01*
X138758Y409330D01*
X138927Y410181D01*
D02*
G37*
G36*
X131657D02*
X126388D01*
X126557Y409330D01*
X127035Y408176D01*
X127729Y407137D01*
X128613Y406253D01*
X129652Y405559D01*
X130807Y405080D01*
X131657Y404911D01*
Y410181D01*
D02*
G37*
G36*
X133261Y401722D02*
X132053D01*
X130869Y401487D01*
X129753Y401024D01*
X128749Y400353D01*
X127894Y399499D01*
X127223Y398495D01*
X126761Y397379D01*
X126525Y396194D01*
Y394987D01*
X126761Y393802D01*
X127223Y392686D01*
X127894Y391682D01*
X128749Y390827D01*
X129753Y390156D01*
X130869Y389694D01*
X132053Y389458D01*
X133261D01*
X134446Y389694D01*
X135562Y390156D01*
X136566Y390827D01*
X137420Y391682D01*
X138091Y392686D01*
X138554Y393802D01*
X138789Y394987D01*
Y396194D01*
X138554Y397379D01*
X138091Y398495D01*
X137420Y399499D01*
X136566Y400353D01*
X135562Y401024D01*
X134446Y401487D01*
X133261Y401722D01*
D02*
G37*
G36*
X146472Y343701D02*
X145300D01*
X144169Y343398D01*
X143154Y342812D01*
X142326Y341984D01*
X141740Y340969D01*
X141437Y339838D01*
Y338666D01*
X141740Y337535D01*
X142326Y336520D01*
X143154Y335692D01*
X144169Y335106D01*
X145300Y334803D01*
X146472D01*
X147603Y335106D01*
X148617Y335692D01*
X149446Y336520D01*
X150031Y337535D01*
X150335Y338666D01*
Y339838D01*
X150031Y340969D01*
X149446Y341984D01*
X148617Y342812D01*
X147603Y343398D01*
X146472Y343701D01*
D02*
G37*
G36*
X133127Y341368D02*
X131873D01*
X130642Y341123D01*
X129484Y340643D01*
X128441Y339946D01*
X127554Y339059D01*
X126857Y338016D01*
X126377Y336858D01*
X126132Y335627D01*
Y334373D01*
X126377Y333142D01*
X126857Y331984D01*
X127554Y330941D01*
X128441Y330054D01*
X129484Y329357D01*
X130642Y328877D01*
X131873Y328632D01*
X133127D01*
X134358Y328877D01*
X135516Y329357D01*
X136559Y330054D01*
X137446Y330941D01*
X138143Y331984D01*
X138623Y333142D01*
X138868Y334373D01*
Y335627D01*
X138623Y336858D01*
X138143Y338016D01*
X137446Y339059D01*
X136559Y339946D01*
X135516Y340643D01*
X134358Y341123D01*
X133127Y341368D01*
D02*
G37*
G36*
X221596Y310088D02*
X220805D01*
X220074Y309786D01*
X219741Y309452D01*
X197115D01*
X196804Y309763D01*
X196073Y310066D01*
X195282D01*
X194551Y309763D01*
X193992Y309204D01*
X193690Y308473D01*
Y307682D01*
X193992Y306951D01*
X194551Y306392D01*
X195282Y306089D01*
X196073D01*
X196804Y306392D01*
X197137Y306725D01*
X219763D01*
X220074Y306415D01*
X220805Y306112D01*
X221596D01*
X222326Y306415D01*
X222885Y306974D01*
X223188Y307704D01*
Y308495D01*
X222885Y309226D01*
X222326Y309786D01*
X221596Y310088D01*
D02*
G37*
G36*
X281663Y309269D02*
X280872D01*
X280141Y308967D01*
X279582Y308407D01*
X279279Y307677D01*
Y306886D01*
X279281Y306881D01*
X278836Y306437D01*
X278540Y305994D01*
X278436Y305472D01*
Y299848D01*
X278115Y299526D01*
X277812Y298796D01*
Y298005D01*
X278115Y297274D01*
X278674Y296714D01*
X279404Y296412D01*
X280195D01*
X280926Y296714D01*
X281486Y297274D01*
X281788Y298005D01*
Y298796D01*
X281486Y299526D01*
X281164Y299848D01*
Y304908D01*
X281549Y305293D01*
X281663D01*
X282393Y305596D01*
X282953Y306155D01*
X283255Y306886D01*
Y307677D01*
X282953Y308407D01*
X282393Y308967D01*
X281663Y309269D01*
D02*
G37*
G36*
X146472Y283701D02*
X145300D01*
X144169Y283398D01*
X143154Y282812D01*
X142326Y281984D01*
X141740Y280969D01*
X141437Y279838D01*
Y278666D01*
X141740Y277535D01*
X142326Y276520D01*
X143154Y275692D01*
X144169Y275106D01*
X145300Y274803D01*
X146472D01*
X147603Y275106D01*
X148617Y275692D01*
X149446Y276520D01*
X150031Y277535D01*
X150335Y278666D01*
Y279838D01*
X150031Y280969D01*
X149446Y281984D01*
X148617Y282812D01*
X147603Y283398D01*
X146472Y283701D01*
D02*
G37*
G36*
X209795Y343588D02*
X209004D01*
X208274Y343285D01*
X207715Y342726D01*
X207412Y341996D01*
Y341205D01*
X207715Y340474D01*
X208274Y339914D01*
X209004Y339612D01*
X209795D01*
X210526Y339914D01*
X210848Y340236D01*
X220635D01*
X229936Y330935D01*
Y298300D01*
X230040Y297778D01*
X230336Y297336D01*
X243012Y284660D01*
Y284205D01*
X243315Y283474D01*
X243874Y282914D01*
X244604Y282612D01*
X245395D01*
X246126Y282914D01*
X246686Y283474D01*
X246736Y283597D01*
X247236Y283497D01*
Y274045D01*
X246775Y273854D01*
X217764Y302864D01*
X217322Y303160D01*
X216800Y303264D01*
X171065D01*
X153955Y320374D01*
X153512Y320669D01*
X152991Y320773D01*
X138722D01*
X138623Y321267D01*
X138143Y322426D01*
X137446Y323469D01*
X136559Y324356D01*
X135516Y325053D01*
X134358Y325533D01*
X133127Y325778D01*
X131873D01*
X130642Y325533D01*
X129484Y325053D01*
X128441Y324356D01*
X127554Y323469D01*
X126857Y322426D01*
X126377Y321267D01*
X126132Y320037D01*
Y318782D01*
X126377Y317552D01*
X126857Y316393D01*
X127554Y315350D01*
X128441Y314463D01*
X129484Y313766D01*
X130642Y313286D01*
X131873Y313041D01*
X133127D01*
X134358Y313286D01*
X135516Y313766D01*
X136559Y314463D01*
X137446Y315350D01*
X138143Y316393D01*
X138623Y317552D01*
X138722Y318046D01*
X152426D01*
X169536Y300936D01*
X169978Y300640D01*
X170500Y300536D01*
X216235D01*
X246712Y270060D01*
Y269604D01*
X247014Y268874D01*
X247574Y268315D01*
X248305Y268012D01*
X249096D01*
X249826Y268315D01*
X250385Y268874D01*
X250688Y269604D01*
Y270395D01*
X250385Y271126D01*
X249964Y271548D01*
Y305235D01*
X258565Y313836D01*
X271452D01*
X271774Y313514D01*
X272504Y313212D01*
X273295D01*
X274026Y313514D01*
X274586Y314074D01*
X274888Y314805D01*
Y315596D01*
X274586Y316326D01*
X274026Y316885D01*
X273295Y317188D01*
X272504D01*
X271774Y316885D01*
X271452Y316564D01*
X258000D01*
X257478Y316460D01*
X257036Y316164D01*
X247636Y306764D01*
X247340Y306322D01*
X247236Y305800D01*
Y285703D01*
X246736Y285603D01*
X246686Y285726D01*
X246126Y286285D01*
X245395Y286588D01*
X244940D01*
X232664Y298865D01*
Y331500D01*
X232560Y332022D01*
X232264Y332464D01*
X222164Y342564D01*
X221722Y342860D01*
X221200Y342964D01*
X210848D01*
X210526Y343285D01*
X209795Y343588D01*
D02*
G37*
G36*
X133261Y386132D02*
X132053D01*
X130869Y385896D01*
X129753Y385434D01*
X128749Y384763D01*
X127894Y383909D01*
X127223Y382905D01*
X126761Y381789D01*
X126525Y380604D01*
Y379396D01*
X126761Y378211D01*
X127223Y377096D01*
X127894Y376091D01*
X128749Y375237D01*
X129753Y374566D01*
X130869Y374104D01*
X131294Y374019D01*
Y368507D01*
X120791Y358005D01*
X120496Y357563D01*
X120392Y357041D01*
Y318244D01*
X120496Y317723D01*
X120791Y317280D01*
X164636Y273436D01*
X165078Y273140D01*
X165600Y273036D01*
X218652D01*
X218974Y272714D01*
X219705Y272412D01*
X220496D01*
X221226Y272714D01*
X221785Y273274D01*
X222088Y274005D01*
Y274796D01*
X221785Y275526D01*
X221226Y276085D01*
X220496Y276388D01*
X219705D01*
X218974Y276085D01*
X218652Y275764D01*
X166165D01*
X123119Y318809D01*
Y356476D01*
X133622Y366978D01*
X133917Y367421D01*
X134021Y367943D01*
Y374019D01*
X134446Y374104D01*
X135562Y374566D01*
X136566Y375237D01*
X137420Y376091D01*
X138091Y377096D01*
X138554Y378211D01*
X138789Y379396D01*
Y380604D01*
X138554Y381789D01*
X138091Y382905D01*
X137420Y383909D01*
X136566Y384763D01*
X135562Y385434D01*
X134446Y385896D01*
X133261Y386132D01*
D02*
G37*
G36*
X133127Y281368D02*
X131873D01*
X130642Y281123D01*
X129484Y280643D01*
X128441Y279946D01*
X127554Y279059D01*
X126857Y278016D01*
X126377Y276857D01*
X126132Y275627D01*
Y274373D01*
X126377Y273143D01*
X126857Y271984D01*
X127554Y270941D01*
X128441Y270054D01*
X129484Y269357D01*
X130642Y268877D01*
X131873Y268632D01*
X133127D01*
X134358Y268877D01*
X135516Y269357D01*
X135935Y269636D01*
X150758Y254814D01*
X151200Y254518D01*
X151722Y254414D01*
X231934D01*
X232256Y254092D01*
X232987Y253789D01*
X233778D01*
X234508Y254092D01*
X235068Y254651D01*
X235370Y255382D01*
Y256173D01*
X235068Y256904D01*
X234508Y257463D01*
X233778Y257766D01*
X232987D01*
X232256Y257463D01*
X231934Y257141D01*
X152287D01*
X137864Y271565D01*
X138143Y271984D01*
X138623Y273143D01*
X138868Y274373D01*
Y275627D01*
X138623Y276857D01*
X138143Y278016D01*
X137446Y279059D01*
X136559Y279946D01*
X135516Y280643D01*
X134358Y281123D01*
X133127Y281368D01*
D02*
G37*
G36*
Y265777D02*
X131873D01*
X130642Y265533D01*
X129484Y265053D01*
X128441Y264356D01*
X127554Y263469D01*
X126857Y262426D01*
X126377Y261267D01*
X126132Y260037D01*
Y258782D01*
X126377Y257552D01*
X126857Y256393D01*
X127554Y255350D01*
X128441Y254463D01*
X129484Y253766D01*
X130642Y253286D01*
X131873Y253041D01*
X133127D01*
X134358Y253286D01*
X135516Y253766D01*
X136559Y254463D01*
X137446Y255350D01*
X138143Y256393D01*
X138623Y257552D01*
X138868Y258782D01*
Y260037D01*
X138623Y261267D01*
X138143Y262426D01*
X137446Y263469D01*
X136559Y264356D01*
X135516Y265053D01*
X134358Y265533D01*
X133127Y265777D01*
D02*
G37*
G36*
X146608Y220543D02*
X145478D01*
X144387Y220251D01*
X143408Y219686D01*
X142609Y218887D01*
X142044Y217908D01*
X141752Y216817D01*
Y215687D01*
X142044Y214596D01*
X142609Y213617D01*
X143408Y212818D01*
X144387Y212253D01*
X145478Y211961D01*
X146608D01*
X147700Y212253D01*
X148678Y212818D01*
X149477Y213617D01*
X150042Y214596D01*
X150335Y215687D01*
Y216817D01*
X150042Y217908D01*
X149477Y218887D01*
X148678Y219686D01*
X147700Y220251D01*
X146608Y220543D01*
D02*
G37*
G36*
X243795Y245188D02*
X243004D01*
X242274Y244885D01*
X241715Y244326D01*
X241412Y243596D01*
Y243140D01*
X236635Y238364D01*
X157657D01*
X157136Y238260D01*
X156693Y237964D01*
X137238Y218509D01*
X137176Y218456D01*
X137061Y218370D01*
X136952Y218298D01*
X136849Y218241D01*
X136753Y218197D01*
X136663Y218164D01*
X136579Y218142D01*
X136516Y218132D01*
X126525D01*
Y205868D01*
X138789D01*
Y215858D01*
X138800Y215921D01*
X138822Y216005D01*
X138854Y216095D01*
X138898Y216192D01*
X138955Y216294D01*
X139027Y216404D01*
X139114Y216519D01*
X139166Y216581D01*
X158222Y235636D01*
X237200D01*
X237722Y235740D01*
X238164Y236036D01*
X243340Y241212D01*
X243795D01*
X244526Y241514D01*
X245086Y242074D01*
X245388Y242805D01*
Y243596D01*
X245086Y244326D01*
X244526Y244885D01*
X243795Y245188D01*
D02*
G37*
G36*
X260422Y224415D02*
X259631D01*
X258901Y224112D01*
X258341Y223553D01*
X258039Y222822D01*
Y222367D01*
X232235Y196564D01*
X138789D01*
Y197013D01*
X138554Y198198D01*
X138091Y199314D01*
X137420Y200319D01*
X136566Y201173D01*
X135562Y201844D01*
X134446Y202306D01*
X133261Y202541D01*
X132053D01*
X130869Y202306D01*
X129753Y201844D01*
X128749Y201173D01*
X127894Y200319D01*
X127223Y199314D01*
X126761Y198198D01*
X126525Y197013D01*
Y195806D01*
X126761Y194621D01*
X127223Y193505D01*
X127894Y192501D01*
X128749Y191647D01*
X129753Y190976D01*
X130869Y190513D01*
X132053Y190278D01*
X133261D01*
X134446Y190513D01*
X135562Y190976D01*
X136566Y191647D01*
X137420Y192501D01*
X138091Y193505D01*
X138229Y193836D01*
X232800D01*
X233322Y193940D01*
X233764Y194236D01*
X259967Y220439D01*
X260422D01*
X261153Y220741D01*
X261712Y221301D01*
X262015Y222031D01*
Y222822D01*
X261712Y223553D01*
X261153Y224112D01*
X260422Y224415D01*
D02*
G37*
G36*
X133261Y186951D02*
X132053D01*
X130869Y186715D01*
X129753Y186253D01*
X128749Y185582D01*
X127894Y184728D01*
X127223Y183723D01*
X126761Y182608D01*
X126525Y181423D01*
Y180215D01*
X126761Y179030D01*
X127223Y177915D01*
X127894Y176910D01*
X128749Y176056D01*
X129753Y175385D01*
X130869Y174923D01*
X132053Y174687D01*
X133261D01*
X134446Y174923D01*
X135562Y175385D01*
X136566Y176056D01*
X137420Y176910D01*
X138091Y177915D01*
X138554Y179030D01*
X138789Y180215D01*
Y181423D01*
X138554Y182608D01*
X138091Y183723D01*
X137420Y184728D01*
X136566Y185582D01*
X135562Y186253D01*
X134446Y186715D01*
X133261Y186951D01*
D02*
G37*
G36*
X133657Y171498D02*
Y166228D01*
X138927D01*
X138758Y167079D01*
X138280Y168234D01*
X137585Y169273D01*
X136702Y170157D01*
X135663Y170851D01*
X134508Y171329D01*
X133657Y171498D01*
D02*
G37*
G36*
X131657D02*
X130807Y171329D01*
X129652Y170851D01*
X128613Y170157D01*
X127729Y169273D01*
X127035Y168234D01*
X126557Y167079D01*
X126388Y166228D01*
X131657D01*
Y171498D01*
D02*
G37*
G36*
X138927Y164228D02*
X133657D01*
Y158958D01*
X134508Y159128D01*
X135663Y159606D01*
X136702Y160300D01*
X137585Y161184D01*
X138280Y162223D01*
X138758Y163378D01*
X138927Y164228D01*
D02*
G37*
G36*
X131657D02*
X126388D01*
X126557Y163378D01*
X127035Y162223D01*
X127729Y161184D01*
X128613Y160300D01*
X129652Y159606D01*
X130807Y159128D01*
X131657Y158958D01*
Y164228D01*
D02*
G37*
G36*
X163132Y150835D02*
X162002D01*
X160911Y150542D01*
X159932Y149977D01*
X159133Y149178D01*
X158568Y148200D01*
X158276Y147108D01*
Y145978D01*
X158568Y144887D01*
X159133Y143908D01*
X159932Y143109D01*
X160911Y142544D01*
X162002Y142252D01*
X163132D01*
X164223Y142544D01*
X165202Y143109D01*
X166001Y143908D01*
X166566Y144887D01*
X166858Y145978D01*
Y147108D01*
X166566Y148200D01*
X166001Y149178D01*
X165202Y149977D01*
X164223Y150542D01*
X163132Y150835D01*
D02*
G37*
G36*
X375743Y150835D02*
X374572D01*
X373440Y150531D01*
X372426Y149946D01*
X371598Y149117D01*
X371012Y148103D01*
X370709Y146971D01*
Y145800D01*
X371012Y144669D01*
X371598Y143654D01*
X372426Y142826D01*
X373440Y142240D01*
X374572Y141937D01*
X375743D01*
X376875Y142240D01*
X377889Y142826D01*
X378717Y143654D01*
X379303Y144669D01*
X379606Y145800D01*
Y146971D01*
X379303Y148103D01*
X378717Y149117D01*
X377889Y149946D01*
X376875Y150531D01*
X375743Y150835D01*
D02*
G37*
G36*
X313834D02*
X312662D01*
X311531Y150531D01*
X310516Y149946D01*
X309688Y149117D01*
X309102Y148103D01*
X308799Y146971D01*
Y145800D01*
X309102Y144669D01*
X309688Y143654D01*
X310516Y142826D01*
X311531Y142240D01*
X312662Y141937D01*
X313834D01*
X314965Y142240D01*
X315980Y142826D01*
X316808Y143654D01*
X317394Y144669D01*
X317697Y145800D01*
Y146971D01*
X317394Y148103D01*
X316808Y149117D01*
X315980Y149946D01*
X314965Y150531D01*
X313834Y150835D01*
D02*
G37*
G36*
X248334D02*
X247162D01*
X246031Y150531D01*
X245016Y149946D01*
X244188Y149117D01*
X243602Y148103D01*
X243299Y146971D01*
Y145800D01*
X243602Y144669D01*
X244188Y143654D01*
X245016Y142826D01*
X246031Y142240D01*
X247162Y141937D01*
X248334D01*
X249465Y142240D01*
X250480Y142826D01*
X251308Y143654D01*
X251894Y144669D01*
X252197Y145800D01*
Y146971D01*
X251894Y148103D01*
X251308Y149117D01*
X250480Y149946D01*
X249465Y150531D01*
X248334Y150835D01*
D02*
G37*
G36*
X214194Y139289D02*
X212987D01*
X211802Y139053D01*
X210686Y138591D01*
X209682Y137920D01*
X208828Y137066D01*
X208157Y136062D01*
X207694Y134946D01*
X207459Y133761D01*
Y132553D01*
X207694Y131369D01*
X208157Y130253D01*
X208828Y129248D01*
X209682Y128394D01*
X210686Y127723D01*
X211802Y127261D01*
X212987Y127025D01*
X214194D01*
X215379Y127261D01*
X216495Y127723D01*
X217499Y128394D01*
X218354Y129248D01*
X219025Y130253D01*
X219487Y131369D01*
X219723Y132553D01*
Y133761D01*
X219487Y134946D01*
X219025Y136062D01*
X218354Y137066D01*
X217499Y137920D01*
X216495Y138591D01*
X215379Y139053D01*
X214194Y139289D01*
D02*
G37*
G36*
X198604D02*
X197396D01*
X196211Y139053D01*
X195096Y138591D01*
X194091Y137920D01*
X193237Y137066D01*
X192566Y136062D01*
X192104Y134946D01*
X191868Y133761D01*
Y132553D01*
X192104Y131369D01*
X192566Y130253D01*
X193237Y129248D01*
X194091Y128394D01*
X195096Y127723D01*
X196211Y127261D01*
X197396Y127025D01*
X198604D01*
X199789Y127261D01*
X200904Y127723D01*
X201909Y128394D01*
X202763Y129248D01*
X203434Y130253D01*
X203896Y131369D01*
X204132Y132553D01*
Y133761D01*
X203896Y134946D01*
X203434Y136062D01*
X202763Y137066D01*
X201909Y137920D01*
X200904Y138591D01*
X199789Y139053D01*
X198604Y139289D01*
D02*
G37*
G36*
X183013D02*
X181806D01*
X180621Y139053D01*
X179505Y138591D01*
X178500Y137920D01*
X177647Y137066D01*
X176975Y136062D01*
X176513Y134946D01*
X176277Y133761D01*
Y132553D01*
X176513Y131369D01*
X176975Y130253D01*
X177647Y129248D01*
X178500Y128394D01*
X179505Y127723D01*
X180621Y127261D01*
X181806Y127025D01*
X183013D01*
X184198Y127261D01*
X185314Y127723D01*
X186318Y128394D01*
X187172Y129248D01*
X187843Y130253D01*
X188306Y131369D01*
X188541Y132553D01*
Y133761D01*
X188306Y134946D01*
X187843Y136062D01*
X187172Y137066D01*
X186318Y137920D01*
X185314Y138591D01*
X184198Y139053D01*
X183013Y139289D01*
D02*
G37*
G36*
X172951D02*
X160687D01*
Y127025D01*
X172951D01*
Y139289D01*
D02*
G37*
G36*
X380037Y139368D02*
X378782D01*
X377552Y139123D01*
X376393Y138643D01*
X375350Y137946D01*
X374463Y137059D01*
X373766Y136016D01*
X373286Y134857D01*
X373041Y133627D01*
Y132373D01*
X373286Y131142D01*
X373766Y129984D01*
X374463Y128941D01*
X375350Y128054D01*
X376393Y127357D01*
X377552Y126877D01*
X378782Y126632D01*
X380037D01*
X381267Y126877D01*
X382426Y127357D01*
X383469Y128054D01*
X384356Y128941D01*
X385053Y129984D01*
X385533Y131142D01*
X385777Y132373D01*
Y133627D01*
X385533Y134857D01*
X385053Y136016D01*
X384356Y137059D01*
X383469Y137946D01*
X382426Y138643D01*
X381267Y139123D01*
X380037Y139368D01*
D02*
G37*
G36*
X122727Y128382D02*
X121273D01*
X119847Y128098D01*
X118503Y127542D01*
X117294Y126734D01*
X116266Y125706D01*
X115458Y124497D01*
X114902Y123153D01*
X114618Y121727D01*
Y120273D01*
X114902Y118847D01*
X115458Y117503D01*
X116266Y116294D01*
X117294Y115266D01*
X118503Y114458D01*
X119847Y113902D01*
X121273Y113618D01*
X122727D01*
X124153Y113902D01*
X125497Y114458D01*
X126706Y115266D01*
X127734Y116294D01*
X128542Y117503D01*
X129098Y118847D01*
X129382Y120273D01*
Y121727D01*
X129098Y123153D01*
X128542Y124497D01*
X127734Y125706D01*
X126706Y126734D01*
X125497Y127542D01*
X124153Y128098D01*
X122727Y128382D01*
D02*
G37*
%LPD*%
G36*
X138768Y217333D02*
X138620Y217177D01*
X138487Y217021D01*
X138370Y216866D01*
X138268Y216710D01*
X138181Y216555D01*
X138110Y216399D01*
X138054Y216244D01*
X138013Y216088D01*
X137988Y215932D01*
X137978Y215777D01*
X136434Y217320D01*
X136590Y217331D01*
X136745Y217356D01*
X136901Y217397D01*
X137057Y217453D01*
X137212Y217524D01*
X137368Y217611D01*
X137523Y217712D01*
X137679Y217830D01*
X137834Y217962D01*
X137990Y218110D01*
X138768Y217333D01*
D02*
G37*
D83*
X312200Y314400D02*
Y333000D01*
X316200Y337000D02*
X318900D01*
X312200Y333000D02*
X316200Y337000D01*
X316000Y317900D02*
Y332507D01*
X316000Y317900D02*
X317644Y316256D01*
X318900Y337000D02*
X319000Y337100D01*
X315800Y310800D02*
X317900Y308700D01*
Y302500D02*
Y308700D01*
Y302500D02*
X320500Y299900D01*
X312200Y314400D02*
X315800Y310800D01*
X321731Y306420D02*
X321751Y306400D01*
X321731Y306420D02*
Y312169D01*
X320500Y299900D02*
X347900D01*
X165600Y274400D02*
X220100D01*
X121756Y318244D02*
X165600Y274400D01*
X121756Y318244D02*
Y357041D01*
X317644Y316256D02*
X321731Y312169D01*
X325900Y323100D02*
X331100D01*
X320300Y328700D02*
X325900Y323100D01*
X336500Y306500D02*
X341600D01*
X331100Y311900D02*
X336500Y306500D01*
X331100Y311878D02*
Y323100D01*
X342700Y302669D02*
Y305400D01*
X341600Y306500D02*
X342700Y305400D01*
X237200Y237000D02*
X243400Y243200D01*
X347900Y299900D02*
X380000Y332000D01*
X133867Y195200D02*
X232800D01*
X260027Y222427D01*
X132657Y196410D02*
X133867Y195200D01*
X195689Y308089D02*
X221189D01*
X221200Y308100D01*
X195678Y308078D02*
X195689Y308089D01*
X231300Y298300D02*
Y331500D01*
Y298300D02*
X245000Y284600D01*
X170500Y301900D02*
X216800D01*
X248700Y270000D01*
X248600Y270100D02*
Y305800D01*
Y270100D02*
X248700Y270000D01*
X248600Y305800D02*
X258000Y315200D01*
X152991Y319409D02*
X170500Y301900D01*
X132500Y319409D02*
X152991D01*
X121756Y357041D02*
X132657Y367943D01*
Y380000D01*
X209400Y341600D02*
X221200D01*
X231300Y331500D01*
X279800Y305472D02*
X281267Y306940D01*
X279800Y298400D02*
Y305472D01*
X281267Y306940D02*
Y307281D01*
X258000Y315200D02*
X272900D01*
X157657Y237000D02*
X237200D01*
X151722Y255778D02*
X233382D01*
X132657Y212000D02*
X157657Y237000D01*
X132500Y275000D02*
X151722Y255778D01*
X437500Y304500D02*
X485500Y256500D01*
D86*
X256000Y119700D02*
X267368Y131068D01*
X154300Y119700D02*
X256000D01*
X267368Y132778D02*
X267591Y133000D01*
X267368Y131068D02*
Y132778D01*
X267607Y133000D02*
X270148Y130459D01*
X281107Y119500D01*
X267591Y133000D02*
X267607D01*
X333102Y132988D02*
X346991Y119100D01*
X386198D02*
X394988Y127891D01*
X346991Y119100D02*
X386198D01*
X320855Y119500D02*
X333079Y131724D01*
X281107Y119500D02*
X320855D01*
X333079Y131724D02*
Y132972D01*
X111300Y162700D02*
X154300Y119700D01*
X111300Y162700D02*
Y424659D01*
X189079Y464479D02*
Y467575D01*
X173295Y448696D02*
X189079Y464479D01*
Y467575D02*
X189091Y467587D01*
X135336Y448696D02*
X173295D01*
X394988Y127891D02*
Y132988D01*
X395000Y133000D01*
X333079Y132972D02*
X333091Y132983D01*
X111300Y424659D02*
X135336Y448696D01*
D87*
X366252Y454201D02*
D03*
X145886Y339252D02*
D03*
Y279252D02*
D03*
X458315Y454201D02*
D03*
X511248Y146386D02*
D03*
X193343Y454201D02*
D03*
X375157Y146386D02*
D03*
X247748D02*
D03*
X313248D02*
D03*
D88*
X346409Y467587D02*
D03*
X362000D02*
D03*
X132500Y319409D02*
D03*
Y335000D02*
D03*
Y259409D02*
D03*
Y275000D02*
D03*
X438472Y467587D02*
D03*
X454063D02*
D03*
X515500Y133000D02*
D03*
X531091D02*
D03*
X189091Y467587D02*
D03*
X173500D02*
D03*
X379409Y133000D02*
D03*
X395000D02*
D03*
X267591D02*
D03*
X252000D02*
D03*
X333091D02*
D03*
X317500D02*
D03*
D89*
X122000Y479000D02*
D03*
X578000D02*
D03*
Y121000D02*
D03*
X122000D02*
D03*
D90*
X132657Y212000D02*
D03*
Y426772D02*
D03*
D91*
Y196410D02*
D03*
Y180819D02*
D03*
Y165228D02*
D03*
Y380000D02*
D03*
Y395590D02*
D03*
Y411181D02*
D03*
X213591Y133157D02*
D03*
X198000D02*
D03*
X182409D02*
D03*
D92*
X146043Y216252D02*
D03*
Y431024D02*
D03*
X162567Y146543D02*
D03*
D93*
X380000Y332000D02*
D03*
Y442000D02*
D03*
X485500Y366500D02*
D03*
Y256500D02*
D03*
D94*
X468000Y411000D02*
D03*
X438472D02*
D03*
Y396000D02*
D03*
X468000D02*
D03*
X566027D02*
D03*
X536500D02*
D03*
Y411000D02*
D03*
X566027D02*
D03*
X566028Y255423D02*
D03*
X536500D02*
D03*
Y270423D02*
D03*
X566028D02*
D03*
X536500Y203500D02*
D03*
X566027D02*
D03*
Y188500D02*
D03*
X536500D02*
D03*
X536500Y344077D02*
D03*
X566028D02*
D03*
Y329077D02*
D03*
X536500D02*
D03*
D95*
X166819Y133157D02*
D03*
D96*
X400000Y240000D02*
D03*
X410000Y220000D02*
D03*
X400000Y200000D02*
D03*
X380000Y240000D02*
D03*
X350000Y220000D02*
D03*
Y180000D02*
D03*
X340000Y160000D02*
D03*
X310000Y220000D02*
D03*
X300000Y200000D02*
D03*
X280000Y240000D02*
D03*
Y200000D02*
D03*
Y160000D02*
D03*
X290000Y140000D02*
D03*
X260000Y480000D02*
D03*
X270000Y460000D02*
D03*
X260000Y440000D02*
D03*
X270000Y420000D02*
D03*
X260000Y400000D02*
D03*
X270000Y380000D02*
D03*
X260000Y360000D02*
D03*
X270000Y340000D02*
D03*
X260000Y280000D02*
D03*
X270000Y180000D02*
D03*
X260000Y160000D02*
D03*
X240000Y480000D02*
D03*
X250000Y460000D02*
D03*
X240000Y440000D02*
D03*
X250000Y420000D02*
D03*
Y380000D02*
D03*
X240000Y360000D02*
D03*
X250000Y340000D02*
D03*
X240000Y320000D02*
D03*
X220000Y480000D02*
D03*
X230000Y460000D02*
D03*
X220000Y440000D02*
D03*
X230000Y380000D02*
D03*
X220000Y360000D02*
D03*
X230000Y340000D02*
D03*
Y220000D02*
D03*
X220000Y160000D02*
D03*
X200000Y360000D02*
D03*
Y320000D02*
D03*
Y280000D02*
D03*
X210000Y180000D02*
D03*
X180000Y440000D02*
D03*
X190000Y380000D02*
D03*
X180000Y280000D02*
D03*
X190000Y180000D02*
D03*
X180000Y160000D02*
D03*
X160000Y440000D02*
D03*
Y400000D02*
D03*
X170000Y380000D02*
D03*
X160000Y360000D02*
D03*
Y240000D02*
D03*
Y200000D02*
D03*
X170000Y180000D02*
D03*
X140000Y480000D02*
D03*
X150000Y460000D02*
D03*
X140000Y360000D02*
D03*
X150000Y300000D02*
D03*
X140000Y240000D02*
D03*
Y120000D02*
D03*
X130000Y460000D02*
D03*
X120000Y360000D02*
D03*
X130000Y300000D02*
D03*
X120000Y240000D02*
D03*
X316000Y332507D02*
D03*
X319000Y337100D02*
D03*
X321751Y306400D02*
D03*
X317900Y302500D02*
D03*
X315800Y310800D02*
D03*
X320300Y328700D02*
D03*
X331100Y311900D02*
D03*
Y323100D02*
D03*
X342700Y302669D02*
D03*
X243400Y243200D02*
D03*
X203100Y397200D02*
D03*
X210900Y391800D02*
D03*
X203100D02*
D03*
X210900Y397200D02*
D03*
X207000Y394500D02*
D03*
X221200Y308100D02*
D03*
X245000Y284600D02*
D03*
X248700Y270000D02*
D03*
X195678Y308078D02*
D03*
X209400Y341600D02*
D03*
X279800Y298400D02*
D03*
X281267Y307281D02*
D03*
X272900Y315200D02*
D03*
X220100Y274400D02*
D03*
X233382Y255778D02*
D03*
X260027Y222427D02*
D03*
X437500Y304500D02*
D03*
M02*
