G04*
G04 #@! TF.GenerationSoftware,Altium Limited,Altium Designer,25.4.2 (15)*
G04*
G04 Layer_Color=16711935*
%FSLAX25Y25*%
%MOIN*%
G70*
G04*
G04 #@! TF.SameCoordinates,A2AFCD61-8CFB-4850-B36F-511F7CF8CF32*
G04*
G04*
G04 #@! TF.FilePolarity,Positive*
G04*
G01*
G75*
%ADD11C,0.00394*%
%ADD13C,0.00787*%
D11*
X394402Y159782D02*
X397551Y162932D01*
Y159782D02*
Y170192D01*
X376449D02*
X397551D01*
X376449Y159782D02*
Y170192D01*
Y159782D02*
X397551D01*
X249949D02*
X271051D01*
X249949D02*
Y170192D01*
X271051D01*
Y159782D02*
Y170192D01*
X267902Y159782D02*
X271051Y162932D01*
X313949Y159782D02*
X335051D01*
X313949D02*
Y170192D01*
X335051D01*
Y159782D02*
Y170192D01*
X331902Y159782D02*
X335051Y162932D01*
X372101Y198850D02*
Y205150D01*
X384699D01*
Y198850D02*
Y205150D01*
X372101Y198850D02*
X384699D01*
X360457Y167459D02*
X364197Y171199D01*
X360457Y159782D02*
Y171199D01*
Y159782D02*
X367543D01*
Y171199D01*
X360457D02*
X367543D01*
X249760Y181550D02*
Y187850D01*
Y181550D02*
X262358D01*
Y187850D01*
X249760D02*
X262358D01*
X216646Y386823D02*
Y402177D01*
X197354Y386823D02*
X216646D01*
X197354D02*
Y402177D01*
X216646D01*
X211646D02*
X216646Y397177D01*
X147461Y151035D02*
Y226193D01*
X109744Y151035D02*
X147461D01*
X109744D02*
Y226193D01*
X147461D01*
X109744Y440964D02*
X147461D01*
X109744Y365807D02*
Y440964D01*
Y365807D02*
X147461D01*
Y440964D01*
X290303Y327894D02*
X305697D01*
X290303D02*
Y347106D01*
X305697D01*
Y327894D02*
Y347106D01*
X300697Y327894D02*
X305697Y332894D01*
X290303Y319606D02*
X305697D01*
Y300394D02*
Y319606D01*
X290303Y300394D02*
X305697D01*
X290303D02*
Y319606D01*
Y314606D02*
X295303Y319606D01*
X337898Y330752D02*
Y337248D01*
X325299D02*
X337898D01*
X325299Y330752D02*
Y337248D01*
Y330752D02*
X337898D01*
X337799Y297949D02*
Y304051D01*
X325201D02*
X337799D01*
X325201Y297949D02*
Y304051D01*
Y297949D02*
X337799D01*
X337307Y319785D02*
Y326084D01*
X325102D02*
X337307D01*
X325102Y319785D02*
Y326084D01*
Y319785D02*
X337307D01*
X337799Y308818D02*
Y314920D01*
X325201D02*
X337799D01*
X325201Y308818D02*
Y314920D01*
Y308818D02*
X337799D01*
X262780Y293450D02*
Y299750D01*
Y293450D02*
X275379D01*
Y299750D01*
X262780D02*
X275379D01*
X262780Y318778D02*
Y325078D01*
Y318778D02*
X275379D01*
Y325078D01*
X262780D02*
X275379D01*
X326094Y340094D02*
X337906D01*
X326094D02*
Y351906D01*
X337906D01*
Y340094D02*
Y351906D01*
X335937Y340094D02*
X337906Y342063D01*
X349850Y335201D02*
X356150D01*
Y347799D01*
X349850D02*
X356150D01*
X349850Y335201D02*
Y347799D01*
X200799Y292850D02*
Y299150D01*
Y292850D02*
X213201D01*
Y299150D01*
X200799D02*
X213201D01*
X188799Y292850D02*
Y299150D01*
X176201Y292850D02*
X188799D01*
X176201D02*
Y299150D01*
X188799D01*
X172350Y342299D02*
X178650D01*
X172350Y329701D02*
Y342299D01*
Y329701D02*
X178650D01*
Y342299D01*
X192110Y337295D02*
X205890D01*
Y311705D02*
Y337295D01*
X192110Y311705D02*
X205890D01*
X192110D02*
Y337295D01*
Y332295D02*
X197110Y337295D01*
X172350Y306701D02*
X178650D01*
Y319299D01*
X172350D02*
X178650D01*
X172350Y306701D02*
Y319299D01*
X430421Y105051D02*
X470579D01*
Y223949D01*
X430421D02*
X470579D01*
X430421Y105051D02*
Y223949D01*
X297457Y167459D02*
X301197Y171199D01*
X297457Y159782D02*
Y171199D01*
Y159782D02*
X304543D01*
Y171199D01*
X297457D02*
X304543D01*
X234134Y171199D02*
X241220D01*
Y159782D02*
Y171199D01*
X234134Y159782D02*
X241220D01*
X234134D02*
Y171199D01*
Y167459D02*
X237874Y171199D01*
X189799Y420689D02*
X202201D01*
Y414390D02*
Y420689D01*
X189799Y414390D02*
X202201D01*
X189799D02*
Y420689D01*
X169201D02*
X181799D01*
Y414390D02*
Y420689D01*
X169201Y414390D02*
X181799D01*
X169201D02*
Y420689D01*
X170350Y387811D02*
Y400409D01*
Y387811D02*
X176650D01*
Y400409D01*
X170350D02*
X176650D01*
X191150Y393201D02*
Y405799D01*
X184850Y393201D02*
X191150D01*
X184850D02*
Y405799D01*
X191150D01*
X211201Y420650D02*
X223799D01*
Y414350D02*
Y420650D01*
X211201Y414350D02*
X223799D01*
X211201D02*
Y420650D01*
X231551Y386850D02*
Y399150D01*
X225449Y386850D02*
X231551D01*
X225449D02*
Y399150D01*
X231551D01*
X184701Y364850D02*
X197299D01*
X184701D02*
Y371150D01*
X197299D01*
Y364850D02*
Y371150D01*
X213350Y371051D02*
X225650D01*
Y364949D02*
Y371051D01*
X213350Y364949D02*
X225650D01*
X213350D02*
Y371051D01*
X242949Y386850D02*
Y399150D01*
X249051D01*
Y386850D02*
Y399150D01*
X242949Y386850D02*
X249051D01*
X152626Y110244D02*
Y147960D01*
Y110244D02*
X227783D01*
Y147960D01*
X152626D02*
X227783D01*
X343101Y219350D02*
X355699D01*
X343101D02*
Y225650D01*
X355699D01*
Y219350D02*
Y225650D01*
X324341Y224650D02*
X328120Y228429D01*
X324341Y217012D02*
Y228429D01*
Y217012D02*
X329459D01*
Y228429D01*
X324341D02*
X329459D01*
X372101Y219350D02*
X384699D01*
Y225650D01*
X372101D02*
X384699D01*
X372101Y219350D02*
Y225650D01*
X259850Y243201D02*
Y255799D01*
X266150D01*
Y243201D02*
Y255799D01*
X259850Y243201D02*
X266150D01*
X343101Y178350D02*
X355699D01*
X343101D02*
Y184650D01*
X355699D01*
Y178350D02*
Y184650D01*
X372101Y178350D02*
X384699D01*
Y184650D01*
X372101D02*
X384699D01*
X372101Y178350D02*
Y184650D01*
X343101Y198850D02*
X355699D01*
X343101D02*
Y205150D01*
X355699D01*
Y198850D02*
Y205150D01*
X324341Y183429D02*
X328120Y187209D01*
X324341Y175791D02*
Y187209D01*
Y175791D02*
X329459D01*
Y187209D01*
X324341D02*
X329459D01*
X324341Y204039D02*
X328120Y207819D01*
X324341Y196402D02*
Y207819D01*
Y196402D02*
X329459D01*
Y207819D01*
X324341D02*
X329459D01*
X187201Y223850D02*
X199799D01*
X187201D02*
Y230150D01*
X199799D01*
Y223850D02*
Y230150D01*
X200650Y205201D02*
Y217799D01*
X194350Y205201D02*
X200650D01*
X194350D02*
Y217799D01*
X200650D01*
X191150Y205201D02*
Y217799D01*
X184850Y205201D02*
X191150D01*
X184850D02*
Y217799D01*
X191150D01*
X194350Y240201D02*
Y252799D01*
X200650D01*
Y240201D02*
Y252799D01*
X194350Y240201D02*
X200650D01*
X166350D02*
Y252799D01*
X172650D01*
Y240201D02*
Y252799D01*
X166350Y240201D02*
X172650D01*
X175736D02*
Y252799D01*
X182035D01*
Y240201D02*
Y252799D01*
X175736Y240201D02*
X182035D01*
X185043D02*
Y252799D01*
X191343D01*
Y240201D02*
Y252799D01*
X185043Y240201D02*
X191343D01*
X208850Y265051D02*
X221150D01*
Y258949D02*
Y265051D01*
X208850Y258949D02*
X221150D01*
X208850D02*
Y265051D01*
X235850Y258949D02*
X248150D01*
X235850D02*
Y265051D01*
X248150D01*
Y258949D02*
Y265051D01*
X249701Y196850D02*
X262299D01*
Y190550D02*
Y196850D01*
X249701Y190550D02*
X262299D01*
X249701D02*
Y196850D01*
X207501Y187850D02*
X220099D01*
X207501D02*
Y194150D01*
X220099D01*
Y187850D02*
Y194150D01*
X211815Y245685D02*
X251185D01*
Y206315D02*
Y245685D01*
X211815Y206315D02*
X251185D01*
X211815D02*
Y245685D01*
Y243717D02*
X213783Y245685D01*
X162110Y220791D02*
Y232209D01*
Y220791D02*
X175890D01*
Y232209D01*
X162110D02*
X175890D01*
D13*
X376193Y452783D02*
Y496091D01*
X332217D02*
X376193D01*
X332217Y452783D02*
Y496091D01*
Y452783D02*
X376193D01*
X261501Y330950D02*
Y337250D01*
Y330950D02*
X274099D01*
Y337250D01*
X261501D02*
X274099D01*
X103996Y349193D02*
X147303D01*
X103996Y305216D02*
Y349193D01*
Y305216D02*
X147303D01*
Y349193D01*
X103996Y289193D02*
X147303D01*
X103996Y245216D02*
Y289193D01*
Y245216D02*
X147303D01*
Y289193D01*
X261501Y305622D02*
Y311922D01*
Y305622D02*
X274099D01*
Y311922D01*
X261501D02*
X274099D01*
X373299Y301350D02*
Y307650D01*
X360701D02*
X373299D01*
X360701Y301350D02*
Y307650D01*
Y301350D02*
X373299D01*
X468256Y452783D02*
Y496091D01*
X424279D02*
X468256D01*
X424279Y452783D02*
Y496091D01*
Y452783D02*
X468256D01*
X413866Y429091D02*
X492606D01*
X413866Y377909D02*
Y429091D01*
Y377909D02*
X492606D01*
Y429091D01*
X590634Y377909D02*
Y429091D01*
X511894Y377909D02*
X590634D01*
X511894D02*
Y429091D01*
X590634D01*
Y237332D02*
Y288513D01*
X511894Y237332D02*
X590634D01*
X511894D02*
Y288513D01*
X590634D01*
X511894Y170409D02*
Y221591D01*
X590634D01*
Y170409D02*
Y221591D01*
X511894Y170409D02*
X590634D01*
X501307Y147803D02*
X545283D01*
Y104496D02*
Y147803D01*
X501307Y104496D02*
X545283D01*
X501307D02*
Y147803D01*
X511894Y310987D02*
Y362168D01*
X590634D01*
Y310987D02*
Y362168D01*
X511894Y310987D02*
X590634D01*
X159307Y452783D02*
X203283D01*
X159307D02*
Y496091D01*
X203283D01*
Y452783D02*
Y496091D01*
X365217Y147803D02*
X409193D01*
Y104496D02*
Y147803D01*
X365217Y104496D02*
X409193D01*
X365217D02*
Y147803D01*
X237807Y104496D02*
Y147803D01*
Y104496D02*
X281784D01*
Y147803D01*
X237807D02*
X281784D01*
X303307Y104496D02*
Y147803D01*
Y104496D02*
X347283D01*
Y147803D01*
X303307D02*
X347283D01*
M02*
