G04*
G04 #@! TF.GenerationSoftware,Altium Limited,Altium Designer,25.4.2 (15)*
G04*
G04 Layer_Color=32896*
%FSLAX25Y25*%
%MOIN*%
G70*
G04*
G04 #@! TF.SameCoordinates,F5E4941F-37D6-4625-B3FB-1CEAEB739549*
G04*
G04*
G04 #@! TF.FilePolarity,Positive*
G04*
G01*
G75*
%ADD10C,0.00800*%
%ADD12C,0.01000*%
D10*
X283815Y291039D02*
G03*
X276324Y282047I14880J-20012D01*
G01*
X286285Y292658D02*
G03*
X283837Y291056I12409J-21631D01*
G01*
X288934Y293975D02*
G03*
X286315Y292675I9761J-22949D01*
G01*
X291720Y294970D02*
G03*
X288963Y293988I6974J-23943D01*
G01*
X273409Y375492D02*
G03*
X291734Y351565I25289J388D01*
G01*
X276318Y282035D02*
G03*
X298411Y246091I22377J-11008D01*
G01*
X475912Y240514D02*
G03*
X475793Y242928I-25001J-22D01*
G01*
X475429Y245383D02*
G03*
X474839Y247737I-24518J-4890D01*
G01*
X475790Y242958D02*
G03*
X475434Y245359I-24879J-2466D01*
G01*
X305120Y351565D02*
G03*
X310087Y353585I-6980J24292D01*
G01*
X310096Y353589D02*
G03*
X318212Y360498I-11956J22268D01*
G01*
X318226Y360515D02*
G03*
X319729Y362715I-20086J15342D01*
G01*
X319742Y362736D02*
G03*
X321003Y365083I-21602J13122D01*
G01*
X321012Y365102D02*
G03*
X322017Y367569I-22873J10755D01*
G01*
X322026Y367594D02*
G03*
X322761Y370148I-23886J8264D01*
G01*
X322769Y370180D02*
G03*
X323228Y372794I-24629J5677D01*
G01*
X323233Y372828D02*
G03*
X323412Y375471I-25093J3029D01*
G01*
X425170Y295617D02*
G03*
X422774Y295972I-4859J-24524D01*
G01*
X422749Y295974D02*
G03*
X420333Y296094I-2438J-24882D01*
G01*
X429863Y294197D02*
G03*
X427587Y295011I-9552J-23104D01*
G01*
X427552Y295022D02*
G03*
X425208Y295609I-7241J-23929D01*
G01*
X472951Y252296D02*
G03*
X471706Y254371I-22039J-11803D01*
G01*
X470224Y256368D02*
G03*
X468596Y258165I-19313J-15876D01*
G01*
X471688Y254398D02*
G03*
X470246Y256343I-20777J-13905D01*
G01*
X474831Y247765D02*
G03*
X474015Y250047I-23919J-7273D01*
G01*
X474002Y250076D02*
G03*
X472967Y252264I-23091J-9584D01*
G01*
X436162Y290427D02*
G03*
X434218Y291868I-15851J-19334D01*
G01*
X432080Y293150D02*
G03*
X429897Y294183I-11769J-22058D01*
G01*
X434188Y291889D02*
G03*
X432117Y293130I-13877J-20796D01*
G01*
X437985Y288776D02*
G03*
X436186Y290407I-17674J-17683D01*
G01*
X274186Y266185D02*
X274932Y263318D01*
X273786Y269120D02*
X274186Y266185D01*
X276011Y260560D02*
X277410Y257948D01*
X274932Y263318D02*
X276011Y260560D01*
X275478Y261923D02*
X289591Y247810D01*
X273735Y272081D02*
X273786Y269120D01*
X273735Y272081D02*
X274035Y275028D01*
X274682Y277919D01*
X275667Y280712D01*
X276975Y283370D02*
X278588Y285854D01*
X281080Y253312D02*
X283301Y251351D01*
X279107Y255521D02*
X281080Y253312D01*
X288357Y248284D02*
X291122Y247221D01*
X283301Y251351D02*
X285738Y249668D01*
X288357Y248284D01*
X277410Y257948D02*
X279107Y255521D01*
X278588Y285854D02*
X280485Y288129D01*
X282637Y290164D01*
X293886Y270502D02*
Y271000D01*
X279159Y286527D02*
X293886Y271799D01*
X281890Y289453D02*
X293886Y277456D01*
X276260Y281917D02*
X287805Y293462D01*
X285079Y291920D02*
X293886Y283113D01*
X273926Y273926D02*
X293886Y293886D01*
X288757Y293899D02*
X293886Y288770D01*
X287944Y352948D02*
X290439Y351936D01*
X291734Y294974D02*
Y351565D01*
X273881Y371000D02*
X293886Y350995D01*
X291734Y325675D02*
X293886Y327827D01*
X291734Y331332D02*
X293886Y333484D01*
X291734Y330520D02*
X293886Y328367D01*
X291734Y296579D02*
X293886Y294426D01*
X291734Y297391D02*
X293886Y299543D01*
Y271000D02*
Y377000D01*
X291734Y342645D02*
X293886Y344798D01*
X291734Y348302D02*
X293886Y350455D01*
X291734Y347491D02*
X293886Y345338D01*
X291734Y336177D02*
X293886Y334024D01*
X291734Y341834D02*
X293886Y339681D01*
X291734Y336988D02*
X293886Y339141D01*
X291122Y247221D02*
X293993Y246492D01*
X281372Y253087D02*
X295791Y267507D01*
X293993Y246492D02*
X296930Y246108D01*
X273821Y269237D02*
X296905Y246153D01*
X297502Y266886D02*
X298498D01*
X294739Y268443D02*
X295443Y267739D01*
X294009Y269885D02*
X294390Y268966D01*
Y268966D02*
X294623Y268617D01*
X296885Y267009D02*
X297502Y266886D01*
X295443Y267739D02*
X295757Y267530D01*
X295966Y267390D02*
X296885Y267009D01*
X298749Y266936D02*
X319595Y246091D01*
X298498Y266886D02*
X299114Y267009D01*
X298411Y246091D02*
X409955D01*
X298411D02*
X409955D01*
X301834Y269508D02*
X325252Y246091D01*
X299114Y267009D02*
X300034Y267390D01*
X300034D02*
X300383Y267623D01*
X300557Y267739D02*
X301260Y268443D01*
X301261Y268443D02*
X301436Y268706D01*
X301610Y268966D01*
X301610Y268966D02*
X301991Y269885D01*
X274027Y274688D02*
X302624Y246091D01*
X275144Y279228D02*
X308281Y246091D01*
X276893Y283135D02*
X313938Y246091D01*
X288066Y248468D02*
X335692Y296094D01*
X274894Y263580D02*
X293886Y282573D01*
X273911Y268254D02*
X293886Y288229D01*
X291734Y324863D02*
X293886Y322711D01*
X278722Y256094D02*
X293886Y271259D01*
X276543Y259572D02*
X293886Y276916D01*
X284479Y250538D02*
X330035Y296094D01*
X293886Y270502D02*
X294009Y269885D01*
X291734Y303047D02*
X293886Y305200D01*
X291734Y302236D02*
X293886Y300083D01*
X301991Y269885D02*
X302089Y270380D01*
X292204Y246949D02*
X341349Y296094D01*
X297055Y246143D02*
X347006Y296094D01*
X291734Y314361D02*
X293886Y316514D01*
X291734Y320018D02*
X293886Y322170D01*
X291734Y319206D02*
X293886Y317054D01*
X291734Y307893D02*
X293886Y305740D01*
X291734Y313549D02*
X293886Y311397D01*
X291734Y308704D02*
X293886Y310857D01*
X281292Y357480D02*
X283344Y355736D01*
X279437Y359432D02*
X281292Y357480D01*
X278305Y360919D02*
X283738Y355487D01*
X273409Y377129D02*
X293886Y356652D01*
X279835Y359031D02*
X293886Y373082D01*
X274365Y368849D02*
X275250Y366306D01*
X273430Y374146D02*
X273757Y371473D01*
X274365Y368849D01*
X277800Y361570D02*
X279437Y359432D01*
X275250Y366306D02*
X276399Y363870D01*
X277800Y361570D01*
X285570Y354220D02*
X287944Y352948D01*
X283344Y355736D02*
X285570Y354220D01*
X289931Y352156D02*
X293886Y356112D01*
X282728Y356267D02*
X293886Y367425D01*
X286079Y353961D02*
X293886Y361768D01*
Y377000D02*
Y377498D01*
X294009Y378115D01*
X294009Y378115D02*
X294390Y379034D01*
X301991Y378115D02*
X302114Y377498D01*
X294530Y379243D02*
X294739Y379557D01*
X301610Y379034D02*
X301991Y378115D01*
X273409Y375492D02*
Y498286D01*
Y375492D02*
Y498286D01*
Y388443D02*
X293886Y367965D01*
X273409Y399756D02*
X294314Y378851D01*
X273409Y394100D02*
X293886Y373622D01*
X273409Y482712D02*
X288983Y498286D01*
X273409Y494026D02*
X277669Y498286D01*
X273409Y488369D02*
X283326Y498286D01*
X273409Y405413D02*
X297709Y381114D01*
X273409Y477056D02*
X294640Y498286D01*
X273409Y471399D02*
X300296Y498286D01*
X294739Y379557D02*
X295443Y380260D01*
X273409Y382786D02*
X293886Y362309D01*
X295443Y380261D02*
X295793Y380494D01*
X301261Y379557D02*
X301494Y379207D01*
X300294Y380436D02*
X300557Y380261D01*
X300557Y380260D02*
X301260Y379557D01*
X295966Y380610D02*
X296885Y380991D01*
X297502Y381114D01*
X297502Y381114D02*
X298498D01*
X300034Y380610D02*
X300294Y380436D01*
X298620Y381089D02*
X299114Y380991D01*
X299114Y380991D02*
X300034Y380610D01*
X273409Y433698D02*
X323412Y383695D01*
X273409Y439354D02*
X323412Y389351D01*
X273409Y380889D02*
X323412Y430892D01*
X273409Y392203D02*
X323412Y442206D01*
X273409Y386546D02*
X323412Y436549D01*
X273409Y445011D02*
X323412Y395008D01*
X273409Y409173D02*
X323412Y459176D01*
X273409Y450668D02*
X323412Y400665D01*
X273409Y397860D02*
X323412Y447863D01*
X273409Y456325D02*
X323412Y406322D01*
X273409Y403516D02*
X323412Y453519D01*
X302114Y364339D02*
X323412Y385637D01*
X273409Y416727D02*
X322156Y367980D01*
X273409Y411070D02*
X320467Y364012D01*
X302114Y358682D02*
X323412Y379980D01*
X275438Y365947D02*
X323412Y413921D01*
X277395Y362247D02*
X323412Y408265D01*
X300811Y380007D02*
X323412Y402608D01*
X273409Y428041D02*
X323412Y378038D01*
X273409Y422384D02*
X323203Y372590D01*
X302114Y369996D02*
X323412Y391294D01*
X273414Y375237D02*
X323412Y425235D01*
X274049Y370215D02*
X323412Y419578D01*
X273409Y484609D02*
X323412Y434606D01*
X273409Y490266D02*
X323412Y440263D01*
X273409Y431801D02*
X323412Y481804D01*
X273409Y443114D02*
X323412Y493117D01*
X273409Y437458D02*
X323412Y487461D01*
X273409Y454428D02*
X317267Y498286D01*
X273409Y465742D02*
X305953Y498286D01*
X273409Y460085D02*
X311610Y498286D01*
X273409Y495923D02*
X323412Y445920D01*
X273409Y448771D02*
X322924Y498286D01*
X273409D02*
X323412D01*
X273409Y414830D02*
X323412Y464833D01*
X273409Y473295D02*
X323412Y423292D01*
X273409Y467639D02*
X323412Y417636D01*
X273409Y461982D02*
X323412Y411979D01*
X273409Y426144D02*
X323412Y476147D01*
X273409Y420487D02*
X323412Y470490D01*
X276703Y498286D02*
X323412Y451577D01*
X282360Y498286D02*
X323412Y457234D01*
X288017Y498286D02*
X323412Y462890D01*
X273409Y478952D02*
X323412Y428949D01*
X293673Y498286D02*
X323412Y468547D01*
X299330Y498286D02*
X323412Y474204D01*
X425909Y101714D02*
Y230136D01*
Y101714D02*
Y230136D01*
Y151090D02*
X475285Y101714D01*
X425909Y224629D02*
X475912Y174626D01*
X425909Y171351D02*
X475912Y221354D01*
X409955Y246091D02*
X425909Y230136D01*
Y199635D02*
X474640Y248366D01*
X425909Y199635D02*
X474640Y248366D01*
X425909Y177007D02*
X475912Y227010D01*
X425909Y193978D02*
X475697Y243766D01*
X425909Y182664D02*
X475912Y232667D01*
X425909Y105835D02*
X430030Y101714D01*
X425909Y111492D02*
X435687Y101714D01*
X425909Y117149D02*
X441344Y101714D01*
X425909Y128463D02*
X452658Y101714D01*
X425909Y122806D02*
X447001Y101714D01*
X425909Y134119D02*
X458315Y101714D01*
X425909Y145433D02*
X469628Y101714D01*
X425909Y139776D02*
X463971Y101714D01*
X330944Y246091D02*
X380947Y296094D01*
X326160Y296094D02*
X376163Y246091D01*
X360101Y296094D02*
X475912Y180283D01*
X331817Y296094D02*
X381820Y246091D01*
X336600D02*
X386603Y296094D01*
X302114Y274886D02*
X330908Y246091D01*
X302114Y286199D02*
X342222Y246091D01*
X302114Y280542D02*
X336565Y246091D01*
X302114Y291856D02*
X347879Y246091D01*
X302114Y297513D02*
X353536Y246091D01*
X325287D02*
X375290Y296094D01*
X425909Y222262D02*
X465204Y261557D01*
X424189Y231856D02*
X459547Y267214D01*
X425909Y227919D02*
X462375Y264385D01*
X425909Y205292D02*
X472937Y252320D01*
X425909Y216605D02*
X468032Y258728D01*
X425909Y210949D02*
X470714Y255753D01*
X415704Y240341D02*
X451061Y275699D01*
X410047Y245998D02*
X445404Y281356D01*
X412876Y243170D02*
X448233Y278527D01*
X421361Y234684D02*
X456718Y270042D01*
X418532Y237513D02*
X453890Y272870D01*
X422415Y296005D02*
X475823Y242597D01*
X425909Y168061D02*
X475912Y118058D01*
X425909Y120439D02*
X475912Y170442D01*
X425909Y109125D02*
X475912Y159128D01*
X425909Y114782D02*
X475912Y164785D01*
X425909Y162404D02*
X475912Y112401D01*
X425909Y131753D02*
X475912Y181756D01*
X425909Y137410D02*
X475912Y187413D01*
X425909Y185031D02*
X475912Y135028D01*
X425909Y173717D02*
X475912Y123714D01*
X425909Y179374D02*
X475912Y129371D01*
X425909Y126096D02*
X475912Y176099D01*
X458096Y101714D02*
X475912Y119530D01*
X446782Y101714D02*
X475912Y130844D01*
X452439Y101714D02*
X475912Y125187D01*
X475066Y101714D02*
X475912Y102560D01*
X463753Y101714D02*
X475912Y113874D01*
X469409Y101714D02*
X475912Y108217D01*
X425909Y101714D02*
X475912D01*
X425909Y156747D02*
X475912Y106744D01*
X425909Y103469D02*
X475912Y153472D01*
X441125Y101714D02*
X475912Y136501D01*
X429811Y101714D02*
X475912Y147815D01*
X435468Y101714D02*
X475912Y142158D01*
X377072Y296094D02*
X475912Y197253D01*
X382729Y296094D02*
X475912Y202910D01*
X425909Y188321D02*
X475912Y238324D01*
X365758Y296094D02*
X475912Y185940D01*
X371415Y296094D02*
X475912Y191597D01*
X405356Y296094D02*
X475912Y225538D01*
X411013Y296094D02*
X475912Y231194D01*
X416670Y296094D02*
X475912Y236851D01*
X394042Y296094D02*
X475912Y214224D01*
X388386Y296094D02*
X475912Y208567D01*
X399699Y296094D02*
X475912Y219881D01*
X425909Y196345D02*
X475912Y146342D01*
X425909Y202002D02*
X475912Y151999D01*
X425909Y148723D02*
X475912Y198726D01*
X425909Y190688D02*
X475912Y140685D01*
X425909Y143066D02*
X475912Y193069D01*
Y101714D02*
Y240492D01*
X425909Y213315D02*
X475912Y163312D01*
X425909Y218972D02*
X475912Y168969D01*
X425909Y165694D02*
X475912Y215697D01*
X425909Y154380D02*
X475912Y204383D01*
X425909Y160037D02*
X475912Y210040D01*
X425909Y207659D02*
X475912Y157656D01*
X302114Y324741D02*
X305120Y327747D01*
X302114Y331454D02*
X305120Y328448D01*
X302114Y320140D02*
X305120Y317134D01*
X302114Y325797D02*
X305120Y322791D01*
X302114Y319084D02*
X305120Y322090D01*
X302114Y342768D02*
X305120Y339761D01*
X302114Y348425D02*
X305120Y345418D01*
X302114Y341711D02*
X305120Y344718D01*
X302114Y330398D02*
X305120Y333404D01*
X302114Y336054D02*
X305120Y339061D01*
X302114Y337111D02*
X305120Y334105D01*
X302114Y270502D02*
Y271000D01*
Y296457D02*
X305120Y299463D01*
X302114Y279486D02*
X318721Y296094D01*
X302114Y290800D02*
X307407Y296094D01*
X302114Y285143D02*
X313064Y296094D01*
X302114Y307770D02*
X305120Y310776D01*
X302114Y313427D02*
X305120Y316433D01*
X302114Y314483D02*
X305120Y311477D01*
X302114Y303170D02*
X305120Y300164D01*
X302114Y308827D02*
X305120Y305820D01*
X302114Y302113D02*
X305120Y305120D01*
X302114Y354081D02*
X305120Y351075D01*
X302114Y271000D02*
Y377000D01*
Y347368D02*
X305120Y350374D01*
X302114Y353025D02*
X323365Y374277D01*
X302114Y359738D02*
X308876Y352976D01*
X302114Y365395D02*
X312471Y355038D01*
X302114Y377000D02*
Y377498D01*
Y371052D02*
X315591Y357574D01*
X302114Y376709D02*
X318261Y360561D01*
X302114Y375653D02*
X323412Y396951D01*
X304987Y498286D02*
X323412Y479861D01*
X305120Y296094D02*
Y351565D01*
X306891Y352146D02*
X321851Y367106D01*
X310644Y498286D02*
X323412Y485518D01*
Y375492D02*
Y498286D01*
X387512Y246091D02*
X433656Y292234D01*
X381855Y246091D02*
X429933Y294168D01*
X404483Y246091D02*
X442576Y284184D01*
X393169Y246091D02*
X436887Y289809D01*
X398826Y246091D02*
X439748Y287013D01*
X370542Y246091D02*
X420543Y296093D01*
X376198Y246091D02*
X425629Y295521D01*
X429892Y294185D02*
X474003Y250074D01*
X437992Y288768D02*
X468589Y258171D01*
X437992Y288768D02*
X468589Y258171D01*
X313973Y246091D02*
X363976Y296094D01*
X309190Y296094D02*
X359193Y246091D01*
X319630D02*
X369633Y296094D01*
X314846Y296094D02*
X364849Y246091D01*
X320503Y296094D02*
X370506Y246091D01*
X302659D02*
X352662Y296094D01*
X302114Y273829D02*
X324378Y296094D01*
X316301Y498286D02*
X323412Y491175D01*
X308316Y246091D02*
X358319Y296094D01*
X305120Y296094D02*
X420311Y296094D01*
X305120Y296094D02*
X420311D01*
X353571Y246091D02*
X403574Y296094D01*
X347914Y246091D02*
X397917Y296094D01*
X348788Y296094D02*
X398791Y246091D01*
X364885D02*
X414888Y296094D01*
X354445Y296094D02*
X404448Y246091D01*
X359228D02*
X409231Y296094D01*
X337474Y296094D02*
X387477Y246091D01*
X321958Y498286D02*
X323412Y496832D01*
X323412Y375492D02*
X323412Y498286D01*
X342257Y246091D02*
X392260Y296094D01*
X343131Y296094D02*
X393134Y246091D01*
X420333Y296094D02*
X421539Y296094D01*
D12*
X197500Y387200D02*
X216500D01*
X197500Y402100D02*
X216500D01*
Y387200D02*
Y402100D01*
X197500Y387200D02*
Y402100D01*
X224842Y406249D02*
X222743D01*
X223793D01*
Y403100D01*
X221693Y406249D02*
Y403100D01*
Y404674D01*
X221169Y405199D01*
X220119D01*
X219594Y404674D01*
Y403100D01*
X216970D02*
X218020D01*
X218545Y403625D01*
Y404674D01*
X218020Y405199D01*
X216970D01*
X216446Y404674D01*
Y404149D01*
X218545D01*
X215396Y405199D02*
Y403100D01*
Y404149D01*
X214872Y404674D01*
X214347Y405199D01*
X213822D01*
X212248Y403100D02*
Y405199D01*
X211723D01*
X211198Y404674D01*
Y403100D01*
Y404674D01*
X210673Y405199D01*
X210149Y404674D01*
Y403100D01*
X208574Y405199D02*
X207525D01*
X207000Y404674D01*
Y403100D01*
X208574D01*
X209099Y403625D01*
X208574Y404149D01*
X207000D01*
X205950Y403100D02*
X204901D01*
X205426D01*
Y406249D01*
X205950D01*
X200178D02*
Y404149D01*
X199128Y403100D01*
X198079Y404149D01*
Y406249D01*
X197029Y403100D02*
X195980D01*
X196505D01*
Y405199D01*
X197029D01*
X193881D02*
X192831D01*
X192307Y404674D01*
Y403100D01*
X193881D01*
X194406Y403625D01*
X193881Y404149D01*
X192307D01*
X191257Y403100D02*
X189683D01*
X189158Y403625D01*
X189683Y404149D01*
X190732D01*
X191257Y404674D01*
X190732Y405199D01*
X189158D01*
M02*
