G04*
G04 #@! TF.GenerationSoftware,Altium Limited,Altium Designer,25.4.2 (15)*
G04*
G04 Layer_Physical_Order=1*
G04 Layer_Color=255*
%FSLAX25Y25*%
%MOIN*%
G70*
G04*
G04 #@! TF.SameCoordinates,A2AFCD61-8CFB-4850-B36F-511F7CF8CF32*
G04*
G04*
G04 #@! TF.FilePolarity,Positive*
G04*
G01*
G75*
%ADD15R,0.09055X0.06299*%
%ADD16R,0.05906X0.06299*%
%ADD17R,0.02264X0.02441*%
%ADD18R,0.04213X0.07008*%
%ADD19R,0.02559X0.06004*%
%ADD20R,0.12205X0.09449*%
%ADD21R,0.04921X0.06102*%
%ADD22R,0.05709X0.02756*%
%ADD23R,0.04724X0.07480*%
%ADD24R,0.04528X0.06693*%
%ADD25R,0.04331X0.07087*%
%ADD26R,0.04528X0.07087*%
%ADD27R,0.05512X0.01181*%
%ADD28R,0.07087X0.04528*%
%ADD29R,0.04134X0.07087*%
%ADD30R,0.07008X0.04213*%
%ADD31R,0.07874X0.02559*%
%ADD32R,0.07874X0.12598*%
%ADD33R,0.07874X0.07087*%
%ADD34R,0.06299X0.05906*%
%ADD35R,0.07165X0.04016*%
%ADD36R,0.04016X0.07165*%
%ADD37R,0.05906X0.04921*%
%ADD38R,0.04134X0.06299*%
%ADD39R,0.04921X0.05906*%
%ADD40R,0.04331X0.02559*%
%ADD41R,0.05807X0.01181*%
%ADD42R,0.01181X0.05807*%
%ADD43R,0.04528X0.04134*%
%ADD83C,0.01100*%
%ADD84C,0.03500*%
%ADD85C,0.02400*%
%ADD86C,0.10000*%
%ADD87C,0.03661*%
%ADD88C,0.11161*%
%ADD89C,0.06000*%
%ADD90R,0.10689X0.10689*%
%ADD91C,0.10689*%
%ADD92C,0.03504*%
%ADD93C,0.06600*%
%ADD94C,0.04693*%
%ADD95R,0.10689X0.10689*%
%ADD96C,0.02402*%
G36*
X542000Y414000D02*
X542000Y394000D01*
X538000Y390000D01*
X468000D01*
X464000Y394000D01*
Y414000D01*
X468000Y418000D01*
X538000D01*
X542000Y414000D01*
D02*
G37*
G36*
X462000Y474000D02*
X462000Y462000D01*
X460000Y460000D01*
X452000D01*
X448000Y456000D01*
Y394000D01*
X444000Y390000D01*
X434000D01*
X430000Y394000D01*
Y474000D01*
X432000Y476000D01*
X460000Y476000D01*
X462000Y474000D01*
D02*
G37*
G36*
X326094Y350510D02*
X326127Y350505D01*
X326182Y350501D01*
X326786Y350488D01*
X327183Y350487D01*
Y349387D01*
X326082Y349358D01*
Y350516D01*
X326094Y350510D01*
D02*
G37*
G36*
X341217Y349438D02*
X341223Y349370D01*
X341761D01*
X341657Y349357D01*
X341563Y349322D01*
X341481Y349265D01*
X341409Y349187D01*
X341349Y349086D01*
X341299Y348964D01*
X341297Y348954D01*
X341299Y348943D01*
X341349Y348822D01*
X341409Y348723D01*
X341481Y348646D01*
X341563Y348591D01*
X341657Y348558D01*
X341761Y348547D01*
X341224D01*
X341217Y348468D01*
X341211Y348258D01*
X340111D01*
X340106Y348468D01*
X340099Y348547D01*
X339561D01*
X339666Y348558D01*
X339759Y348591D01*
X339842Y348646D01*
X339913Y348723D01*
X339974Y348822D01*
X340023Y348943D01*
X340026Y348954D01*
X340023Y348964D01*
X339974Y349086D01*
X339913Y349187D01*
X339842Y349265D01*
X339759Y349322D01*
X339666Y349357D01*
X339561Y349370D01*
X340100D01*
X340106Y349438D01*
X340111Y349647D01*
X341211D01*
X341217Y349438D01*
D02*
G37*
G36*
X343416Y348541D02*
X343449Y348537D01*
X343504Y348532D01*
X344109Y348519D01*
X344505Y348518D01*
Y347418D01*
X343405Y347390D01*
Y348547D01*
X343416Y348541D01*
D02*
G37*
G36*
X349481Y346868D02*
X349467Y346973D01*
X349432Y347066D01*
X349376Y347149D01*
X349297Y347220D01*
X349197Y347281D01*
X349075Y347330D01*
X348931Y347369D01*
X348765Y347396D01*
X348578Y347413D01*
X348369Y347418D01*
Y348518D01*
X348578Y348524D01*
X348765Y348540D01*
X348931Y348568D01*
X349075Y348606D01*
X349197Y348656D01*
X349297Y348716D01*
X349376Y348788D01*
X349432Y348870D01*
X349467Y348964D01*
X349481Y349068D01*
Y346868D01*
D02*
G37*
G36*
X356533Y348204D02*
X356568Y348111D01*
X356624Y348028D01*
X356703Y347957D01*
X356803Y347896D01*
X356925Y347847D01*
X357069Y347808D01*
X357235Y347781D01*
X357422Y347764D01*
X357631Y347759D01*
Y346659D01*
X357422Y346653D01*
X357235Y346637D01*
X357069Y346609D01*
X356925Y346571D01*
X356803Y346521D01*
X356703Y346461D01*
X356624Y346389D01*
X356568Y346307D01*
X356533Y346213D01*
X356519Y346109D01*
Y348309D01*
X356533Y348204D01*
D02*
G37*
G36*
X326094Y346573D02*
X326127Y346568D01*
X326182Y346564D01*
X326786Y346551D01*
X327183Y346550D01*
Y345450D01*
X326082Y345422D01*
Y346579D01*
X326094Y346573D01*
D02*
G37*
G36*
X341217Y345501D02*
X341233Y345314D01*
X341261Y345149D01*
X341299Y345006D01*
X341349Y344885D01*
X341409Y344786D01*
X341481Y344709D01*
X341563Y344654D01*
X341657Y344621D01*
X341761Y344610D01*
X339561D01*
X339666Y344621D01*
X339759Y344654D01*
X339842Y344709D01*
X339913Y344786D01*
X339974Y344885D01*
X340023Y345006D01*
X340062Y345149D01*
X340089Y345314D01*
X340106Y345501D01*
X340111Y345710D01*
X341211D01*
X341217Y345501D01*
D02*
G37*
G36*
X341657Y343452D02*
X341563Y343417D01*
X341481Y343360D01*
X341409Y343281D01*
X341349Y343181D01*
X341299Y343059D01*
X341261Y342915D01*
X341233Y342749D01*
X341217Y342562D01*
X341211Y342353D01*
X340111D01*
X340106Y342562D01*
X340089Y342749D01*
X340062Y342915D01*
X340023Y343059D01*
X339974Y343181D01*
X339913Y343281D01*
X339842Y343360D01*
X339759Y343417D01*
X339666Y343452D01*
X339561Y343465D01*
X341761D01*
X341657Y343452D01*
D02*
G37*
G36*
X337917Y341484D02*
X336818Y341513D01*
Y342613D01*
X337917Y342642D01*
Y341484D01*
D02*
G37*
G36*
X326081Y342612D02*
X326107Y342578D01*
X326149Y342529D01*
X326736Y341921D01*
X326889Y341767D01*
X326111Y340989D01*
X325559Y341496D01*
X326070Y342631D01*
X326081Y342612D01*
D02*
G37*
G36*
X336256Y338619D02*
X336272Y338432D01*
X336299Y338266D01*
X336338Y338122D01*
X336387Y338000D01*
X336448Y337900D01*
X336520Y337821D01*
X336602Y337765D01*
X336696Y337729D01*
X336800Y337716D01*
X335154Y337728D01*
X335150Y338828D01*
X336250D01*
X336256Y338619D01*
D02*
G37*
G36*
X327056D02*
X327072Y338432D01*
X327099Y338266D01*
X327138Y338122D01*
X327187Y338000D01*
X327248Y337900D01*
X327320Y337821D01*
X327402Y337765D01*
X327496Y337729D01*
X327600Y337716D01*
X325400D01*
X325504Y337729D01*
X325598Y337765D01*
X325680Y337821D01*
X325752Y337900D01*
X325813Y338000D01*
X325862Y338122D01*
X325901Y338266D01*
X325928Y338432D01*
X325944Y338619D01*
X325950Y338828D01*
X327050D01*
X327056Y338619D01*
D02*
G37*
G36*
X339856Y334996D02*
X339891Y334902D01*
X339947Y334820D01*
X340026Y334748D01*
X340126Y334687D01*
X340248Y334638D01*
X340392Y334599D01*
X340558Y334572D01*
X340745Y334556D01*
X340954Y334550D01*
Y333450D01*
X340745Y333444D01*
X340558Y333428D01*
X340392Y333401D01*
X340248Y333362D01*
X340126Y333313D01*
X340026Y333252D01*
X339947Y333180D01*
X339891Y333098D01*
X339856Y333004D01*
X339842Y332900D01*
Y335100D01*
X339856Y334996D01*
D02*
G37*
G36*
X323343Y332707D02*
X322243Y333257D01*
Y334357D01*
X323343Y334907D01*
Y332707D01*
D02*
G37*
G36*
X353995Y333538D02*
X353902Y333503D01*
X353819Y333447D01*
X353748Y333368D01*
X353688Y333268D01*
X353638Y333145D01*
X353600Y333002D01*
X353572Y332836D01*
X353555Y332649D01*
X353550Y332440D01*
X352450D01*
X352445Y332649D01*
X352428Y332836D01*
X352400Y333002D01*
X352362Y333145D01*
X352312Y333268D01*
X352252Y333368D01*
X352181Y333447D01*
X352098Y333503D01*
X352005Y333538D01*
X351900Y333552D01*
X354100D01*
X353995Y333538D01*
D02*
G37*
G36*
X272172Y375500D02*
X272334Y372608D01*
X272819Y369753D01*
X273621Y366969D01*
X274730Y364294D01*
X276131Y361759D01*
X277807Y359397D01*
X279737Y357237D01*
X281896Y355307D01*
X284259Y353631D01*
X286794Y352230D01*
X289470Y351121D01*
X289924Y350991D01*
Y347165D01*
X283630D01*
Y342835D01*
X289924D01*
Y342165D01*
X283630D01*
Y337835D01*
X289924D01*
Y337378D01*
X288272D01*
Y335000D01*
Y332622D01*
X289924D01*
Y332165D01*
X286575D01*
X286444Y332192D01*
X279438D01*
X278219Y333411D01*
X278165Y333473D01*
X278080Y333588D01*
X278009Y333696D01*
X277953Y333797D01*
X277911Y333892D01*
X277880Y333980D01*
X277859Y334063D01*
X277848Y334141D01*
X277842Y334257D01*
X277839Y334266D01*
Y337939D01*
X271343D01*
Y332535D01*
X271333Y332472D01*
X271311Y332388D01*
X271279Y332298D01*
X271235Y332202D01*
X271177Y332099D01*
X271106Y331990D01*
X271019Y331874D01*
X270966Y331813D01*
X266236Y327082D01*
X265940Y326640D01*
X265864Y326259D01*
X264078D01*
X264078Y326264D01*
X264072Y326326D01*
Y330261D01*
X264257D01*
Y331039D01*
X264260Y331056D01*
X264257Y331073D01*
Y337939D01*
X257761D01*
Y330261D01*
X261339D01*
X261340Y330256D01*
X261345Y330194D01*
Y326326D01*
X261340Y326264D01*
X261339Y326259D01*
X260320D01*
Y317597D01*
X261339D01*
X261340Y317592D01*
X261345Y317530D01*
Y312677D01*
X261340Y312616D01*
X261339Y312611D01*
X257761D01*
Y304933D01*
X261339D01*
X261340Y304928D01*
X261345Y304867D01*
Y300957D01*
X230272D01*
X223188Y308040D01*
Y308495D01*
X222885Y309226D01*
X222326Y309786D01*
X221596Y310088D01*
X220805D01*
X220074Y309786D01*
X219514Y309226D01*
X219212Y308495D01*
Y307704D01*
X219514Y306974D01*
X220074Y306415D01*
X220805Y306112D01*
X221260D01*
X228743Y298629D01*
X229185Y298334D01*
X229707Y298230D01*
X260320D01*
Y292464D01*
X232700D01*
X232178Y292360D01*
X231736Y292064D01*
X209896Y270224D01*
X209572Y270358D01*
Y291255D01*
X209839Y291457D01*
X209922Y291457D01*
X211906D01*
Y296000D01*
Y300543D01*
X209922D01*
X209839Y300543D01*
X209572Y300745D01*
Y307800D01*
X209468Y308322D01*
X209173Y308764D01*
X194973Y322964D01*
X194530Y323260D01*
X194009Y323364D01*
X192126D01*
Y323500D01*
X182252D01*
Y323364D01*
X164800D01*
X164278Y323260D01*
X163836Y322964D01*
X153035Y312164D01*
X129765D01*
X125364Y316565D01*
Y325935D01*
X129065Y329636D01*
X129484Y329357D01*
X130642Y328877D01*
X131873Y328632D01*
X133127D01*
X134358Y328877D01*
X135516Y329357D01*
X136559Y330054D01*
X137446Y330941D01*
X138143Y331984D01*
X138623Y333142D01*
X138868Y334373D01*
Y335627D01*
X138623Y336858D01*
X138143Y338016D01*
X137446Y339059D01*
X136559Y339946D01*
X135516Y340643D01*
X134358Y341123D01*
X133127Y341368D01*
X131873D01*
X130642Y341123D01*
X129484Y340643D01*
X128441Y339946D01*
X127554Y339059D01*
X126857Y338016D01*
X126377Y336858D01*
X126132Y335627D01*
Y334373D01*
X126377Y333142D01*
X126857Y331984D01*
X127136Y331565D01*
X123036Y327464D01*
X122740Y327022D01*
X122636Y326500D01*
Y316000D01*
X122740Y315478D01*
X123036Y315036D01*
X128236Y309836D01*
X128678Y309540D01*
X129200Y309436D01*
X153600D01*
X154122Y309540D01*
X154564Y309836D01*
X165365Y320636D01*
X170996D01*
Y319354D01*
X175500D01*
Y318354D01*
X176500D01*
Y315248D01*
X177562D01*
X177696Y314925D01*
X174536Y311764D01*
X174240Y311322D01*
X174136Y310800D01*
Y310566D01*
X174134Y310539D01*
X171209D01*
Y304752D01*
X174130D01*
X174131Y304747D01*
X174136Y304685D01*
Y300004D01*
X174131Y299942D01*
X174130Y299937D01*
X171870D01*
Y294334D01*
X171860Y294270D01*
X171838Y294186D01*
X171805Y294096D01*
X171761Y294000D01*
X171704Y293897D01*
X171633Y293788D01*
X171546Y293673D01*
X171493Y293611D01*
X161936Y284054D01*
X161640Y283612D01*
X161536Y283090D01*
Y246200D01*
X161640Y245678D01*
X161936Y245236D01*
X164832Y242340D01*
X164884Y242278D01*
X164971Y242163D01*
X165043Y242054D01*
X165100Y241951D01*
X165144Y241855D01*
X165176Y241765D01*
X165198Y241681D01*
X165209Y241618D01*
Y238252D01*
X173791D01*
Y239625D01*
X174516D01*
Y238193D01*
X183256D01*
Y239618D01*
X183261Y239619D01*
X183323Y239625D01*
X183756D01*
X183818Y239619D01*
X183823Y239618D01*
Y238193D01*
X192563D01*
Y239618D01*
X192568Y239619D01*
X192630Y239625D01*
X193063D01*
X193125Y239619D01*
X193130Y239618D01*
Y238193D01*
X201870D01*
Y239394D01*
X201875Y239395D01*
X201937Y239400D01*
X205219D01*
Y235449D01*
Y230316D01*
X204853D01*
X204331Y230213D01*
X203889Y229917D01*
X202335Y228364D01*
X201874D01*
X201812Y228369D01*
X201807Y228370D01*
Y231370D01*
X198621D01*
X198612Y231372D01*
X198496Y231378D01*
X198418Y231390D01*
X198335Y231411D01*
X198247Y231441D01*
X198152Y231484D01*
X198051Y231540D01*
X197943Y231610D01*
X197828Y231696D01*
X197766Y231749D01*
X194551Y234964D01*
X194108Y235260D01*
X193587Y235364D01*
X184500D01*
X183978Y235260D01*
X183536Y234964D01*
X179290Y230718D01*
X178712D01*
X178651Y230723D01*
X178646Y230724D01*
Y232209D01*
X172543D01*
Y230724D01*
X172538Y230723D01*
X172476Y230718D01*
X165524D01*
X165462Y230723D01*
X165457Y230724D01*
Y232209D01*
X162008D01*
X161947Y232222D01*
X161852Y232255D01*
X161734Y232309D01*
X161596Y232386D01*
X161441Y232487D01*
X161277Y232608D01*
X160941Y232897D01*
X137864Y255974D01*
X138143Y256393D01*
X138623Y257552D01*
X138868Y258782D01*
Y260037D01*
X138623Y261267D01*
X138143Y262426D01*
X137446Y263469D01*
X136559Y264356D01*
X135516Y265053D01*
X134358Y265533D01*
X133127Y265777D01*
X131873D01*
X130642Y265533D01*
X129484Y265053D01*
X128441Y264356D01*
X127554Y263469D01*
X126857Y262426D01*
X126377Y261267D01*
X126132Y260037D01*
Y258782D01*
X126377Y257552D01*
X126857Y256393D01*
X127554Y255350D01*
X128441Y254463D01*
X129484Y253766D01*
X130642Y253286D01*
X131873Y253041D01*
X133127D01*
X134358Y253286D01*
X135516Y253766D01*
X135935Y254046D01*
X158977Y231004D01*
X159030Y230942D01*
X159117Y230827D01*
X159188Y230717D01*
X159246Y230615D01*
X159290Y230518D01*
X159322Y230429D01*
X159344Y230345D01*
X159354Y230281D01*
Y226712D01*
X159142D01*
Y224646D01*
X165669D01*
Y226712D01*
X165457D01*
Y227984D01*
X165462Y227985D01*
X165524Y227991D01*
X172476D01*
X172538Y227985D01*
X172543Y227984D01*
Y226712D01*
X172331D01*
Y224646D01*
X178858D01*
Y226712D01*
X178646D01*
Y227984D01*
X178651Y227985D01*
X178712Y227991D01*
X179854D01*
X180376Y228095D01*
X180819Y228390D01*
X185065Y232636D01*
X193022D01*
X195837Y229821D01*
X195891Y229758D01*
X195976Y229644D01*
X196047Y229536D01*
X196102Y229434D01*
X196145Y229339D01*
X196176Y229251D01*
X196190Y229194D01*
Y228458D01*
X196216Y228326D01*
Y222630D01*
X201807D01*
Y225630D01*
X201812Y225631D01*
X201874Y225636D01*
X202900D01*
X203422Y225740D01*
X203864Y226036D01*
X204895Y227067D01*
X205219Y226933D01*
Y225606D01*
Y220701D01*
X205006D01*
Y220110D01*
X205218D01*
Y219701D01*
X208909D01*
Y218520D01*
X205218D01*
Y218110D01*
X205006D01*
Y218027D01*
X201937D01*
X201875Y218033D01*
X201870Y218034D01*
Y219807D01*
X193130D01*
Y218375D01*
X192291D01*
Y219748D01*
X183709D01*
Y218224D01*
X183703Y218223D01*
X183642Y218218D01*
X168693D01*
X168171Y218114D01*
X167729Y217819D01*
X135922Y186012D01*
X135562Y186253D01*
X134446Y186715D01*
X133261Y186951D01*
X132053D01*
X130869Y186715D01*
X129753Y186253D01*
X128749Y185582D01*
X127894Y184728D01*
X127223Y183723D01*
X126761Y182608D01*
X126525Y181423D01*
Y180215D01*
X126761Y179030D01*
X127223Y177915D01*
X127894Y176910D01*
X128749Y176056D01*
X129753Y175385D01*
X130869Y174923D01*
X132053Y174687D01*
X133261D01*
X134446Y174923D01*
X135562Y175385D01*
X136566Y176056D01*
X137420Y176910D01*
X138091Y177915D01*
X138554Y179030D01*
X138789Y180215D01*
Y181423D01*
X138554Y182608D01*
X138091Y183723D01*
X137851Y184084D01*
X169258Y215491D01*
X183642D01*
X183703Y215485D01*
X183709Y215484D01*
Y213961D01*
X192291D01*
Y215648D01*
X193130D01*
Y214216D01*
X201870D01*
Y215294D01*
X201875Y215295D01*
X201937Y215300D01*
X205219D01*
Y209858D01*
X212600D01*
Y211827D01*
Y215778D01*
X212642D01*
X213164Y215882D01*
X213606Y216178D01*
X220037Y222608D01*
X220332Y223051D01*
X220436Y223572D01*
Y238100D01*
X246200D01*
Y207587D01*
X246145Y207532D01*
X245886Y207313D01*
X245295D01*
Y207101D01*
X244886D01*
Y203409D01*
X243705D01*
Y206284D01*
X243708Y206301D01*
X243705Y206318D01*
X243708Y206335D01*
X243705Y206399D01*
Y207101D01*
X243665D01*
X243623Y207313D01*
X243623D01*
X243587Y207495D01*
X243291Y207937D01*
X242191Y209037D01*
X241749Y209333D01*
X241227Y209437D01*
X221546D01*
X221025Y209333D01*
X220582Y209037D01*
X219709Y208164D01*
X219413Y207722D01*
X219332Y207313D01*
X219332D01*
X219309Y207200D01*
Y207101D01*
X219295D01*
Y206318D01*
X219292Y206301D01*
X219295Y206284D01*
Y203409D01*
X218114D01*
Y207101D01*
X217705D01*
Y207313D01*
X217114D01*
Y207100D01*
X215358D01*
Y199718D01*
X217114D01*
Y199506D01*
X219310D01*
Y195437D01*
X219304Y195375D01*
X219303Y195370D01*
X216516D01*
Y186630D01*
X221144D01*
X221278Y186307D01*
X173274Y138303D01*
X172951Y138437D01*
Y139289D01*
X160687D01*
Y127025D01*
X172951D01*
Y134906D01*
X173169D01*
X173691Y135009D01*
X174133Y135305D01*
X225574Y186746D01*
X225870Y187188D01*
X225974Y187710D01*
Y199718D01*
X227184D01*
Y186712D01*
X181445Y140974D01*
X181150Y140531D01*
X181046Y140009D01*
Y139810D01*
X181023Y139655D01*
X180987Y139520D01*
X180942Y139408D01*
X180889Y139314D01*
X180826Y139233D01*
X180749Y139159D01*
X180654Y139090D01*
X180534Y139023D01*
X180347Y138947D01*
X180345Y138946D01*
X180343Y138946D01*
X180315Y138927D01*
X179505Y138591D01*
X178500Y137920D01*
X177647Y137066D01*
X176975Y136062D01*
X176513Y134946D01*
X176277Y133761D01*
Y132553D01*
X176513Y131369D01*
X176975Y130253D01*
X177647Y129248D01*
X178500Y128394D01*
X179505Y127723D01*
X180621Y127261D01*
X181806Y127025D01*
X183013D01*
X184198Y127261D01*
X185314Y127723D01*
X186318Y128394D01*
X187172Y129248D01*
X187843Y130253D01*
X188306Y131369D01*
X188541Y132553D01*
Y133761D01*
X188306Y134946D01*
X187843Y136062D01*
X187172Y137066D01*
X186318Y137920D01*
X185314Y138591D01*
X184504Y138927D01*
X184476Y138946D01*
X184474Y138946D01*
X184472Y138947D01*
X184285Y139023D01*
X184165Y139090D01*
X184070Y139159D01*
X184001Y139226D01*
X183853Y139525D01*
X229511Y185183D01*
X229807Y185625D01*
X229911Y186147D01*
Y199718D01*
X231121D01*
Y185449D01*
X197036Y151364D01*
X196740Y150922D01*
X196636Y150400D01*
Y139138D01*
X196211Y139053D01*
X195096Y138591D01*
X194091Y137920D01*
X193237Y137066D01*
X192566Y136062D01*
X192104Y134946D01*
X191868Y133761D01*
Y132553D01*
X192104Y131369D01*
X192566Y130253D01*
X193237Y129248D01*
X194091Y128394D01*
X195096Y127723D01*
X196211Y127261D01*
X197396Y127025D01*
X198604D01*
X199789Y127261D01*
X200904Y127723D01*
X201909Y128394D01*
X202763Y129248D01*
X203434Y130253D01*
X203896Y131369D01*
X204132Y132553D01*
Y133761D01*
X203896Y134946D01*
X203434Y136062D01*
X202763Y137066D01*
X201909Y137920D01*
X200904Y138591D01*
X199789Y139053D01*
X199364Y139138D01*
Y149835D01*
X233448Y183920D01*
X233744Y184362D01*
X233848Y184884D01*
Y199718D01*
X235058D01*
Y183695D01*
X212626Y161264D01*
X212331Y160822D01*
X212227Y160300D01*
Y139138D01*
X211802Y139053D01*
X210686Y138591D01*
X209682Y137920D01*
X208828Y137066D01*
X208157Y136062D01*
X207694Y134946D01*
X207459Y133761D01*
Y132553D01*
X207694Y131369D01*
X208157Y130253D01*
X208828Y129248D01*
X209682Y128394D01*
X210686Y127723D01*
X211802Y127261D01*
X212987Y127025D01*
X214194D01*
X215379Y127261D01*
X216495Y127723D01*
X217499Y128394D01*
X218354Y129248D01*
X219025Y130253D01*
X219487Y131369D01*
X219723Y132553D01*
Y133761D01*
X219487Y134946D01*
X219025Y136062D01*
X218354Y137066D01*
X217499Y137920D01*
X216495Y138591D01*
X215379Y139053D01*
X214954Y139138D01*
Y159735D01*
X237385Y182166D01*
X237681Y182609D01*
X237785Y183131D01*
Y199718D01*
X240984D01*
X241067Y199302D01*
X241363Y198860D01*
X241787Y198435D01*
X242230Y198139D01*
X242752Y198036D01*
X245699D01*
X247316Y196419D01*
X247368Y196357D01*
X247455Y196242D01*
X247527Y196133D01*
X247584Y196030D01*
X247628Y195933D01*
X247661Y195844D01*
X247683Y195760D01*
X247693Y195696D01*
Y189330D01*
X247783D01*
X247811Y188991D01*
X247811D01*
Y180409D01*
X252432D01*
X252566Y180085D01*
X243075Y170594D01*
X234986D01*
X234925Y170600D01*
X234919Y170601D01*
Y171239D01*
X231081D01*
Y167223D01*
X234919D01*
Y167861D01*
X234925Y167862D01*
X234986Y167867D01*
X243640D01*
X244162Y167971D01*
X244604Y168266D01*
X255664Y179326D01*
X255960Y179769D01*
X256064Y180291D01*
Y201200D01*
X255960Y201722D01*
X255664Y202164D01*
X251464Y206365D01*
Y209858D01*
X256965D01*
X256982Y209855D01*
X256993Y209857D01*
X257003Y209855D01*
X257125Y209858D01*
X257782D01*
Y209873D01*
X258899D01*
X289236Y179535D01*
Y168081D01*
X289340Y167560D01*
X289636Y167117D01*
X292363Y164390D01*
X292805Y164094D01*
X293327Y163991D01*
X293849D01*
X294191Y163971D01*
X294191Y163641D01*
Y162750D01*
X296323D01*
X298455D01*
Y163971D01*
X298796Y163991D01*
X298819D01*
X299341Y164094D01*
X299783Y164390D01*
X319309Y183916D01*
X319747D01*
X319808Y183911D01*
X319813Y183910D01*
Y183213D01*
X324636D01*
Y180000D01*
X323766D01*
Y177720D01*
Y175441D01*
X324636D01*
Y174700D01*
X324740Y174178D01*
X325036Y173736D01*
X329498Y169274D01*
X329353Y168924D01*
X327846D01*
Y161050D01*
X331791D01*
X331792Y161045D01*
X331798Y160983D01*
Y147056D01*
X331727Y146700D01*
Y139222D01*
X331233Y139123D01*
X330074Y138643D01*
X329031Y137946D01*
X328144Y137059D01*
X327447Y136016D01*
X326967Y134857D01*
X326723Y133627D01*
Y132373D01*
X326967Y131142D01*
X327447Y129984D01*
X328144Y128941D01*
X329031Y128054D01*
X330074Y127357D01*
X331233Y126877D01*
X332463Y126632D01*
X333718D01*
X334948Y126877D01*
X336107Y127357D01*
X337150Y128054D01*
X338037Y128941D01*
X338734Y129984D01*
X339214Y131142D01*
X339459Y132373D01*
Y133627D01*
X339214Y134857D01*
X338734Y136016D01*
X338037Y137059D01*
X337150Y137946D01*
X336107Y138643D01*
X334948Y139123D01*
X334454Y139222D01*
Y146415D01*
X334525Y146771D01*
Y160983D01*
X334530Y161045D01*
X334531Y161050D01*
X338476D01*
Y168715D01*
X357337D01*
X357398Y168710D01*
X357403Y168709D01*
Y167223D01*
X361242D01*
Y171239D01*
X358988D01*
X358838Y171338D01*
X358316Y171442D01*
X331186D01*
X327364Y175265D01*
Y185280D01*
X327260Y185801D01*
X326964Y186244D01*
X326522Y186539D01*
X326000Y186643D01*
X325766D01*
X325719Y186647D01*
Y187346D01*
X319813D01*
Y186650D01*
X319808Y186649D01*
X319746Y186643D01*
X318744D01*
X318222Y186539D01*
X317780Y186244D01*
X298254Y166718D01*
X293892D01*
X291964Y168646D01*
Y180100D01*
X291860Y180622D01*
X291564Y181064D01*
X260428Y212200D01*
X259986Y212496D01*
X259464Y212600D01*
X257782D01*
Y213810D01*
X285987D01*
X294959Y204838D01*
Y171305D01*
X294954Y171244D01*
X294953Y171239D01*
X294404D01*
Y167223D01*
X298242D01*
Y171239D01*
X297693D01*
X297692Y171244D01*
X297686Y171306D01*
Y204039D01*
X319813D01*
Y203823D01*
X320591D01*
X320608Y203819D01*
X320625Y203823D01*
X325719D01*
Y207957D01*
X319813D01*
Y206772D01*
X319808Y206771D01*
X319746Y206766D01*
X296888D01*
X287516Y216137D01*
X287074Y216433D01*
X286552Y216537D01*
X257782D01*
Y217747D01*
X286510D01*
X287032Y217850D01*
X287474Y218146D01*
X294465Y225136D01*
X319747D01*
X319808Y225131D01*
X319813Y225130D01*
Y224433D01*
X325719D01*
Y228567D01*
X319813D01*
Y227870D01*
X319808Y227869D01*
X319746Y227864D01*
X293900D01*
X293378Y227760D01*
X292936Y227464D01*
X285945Y220474D01*
X261352D01*
X261235Y220824D01*
X261712Y221301D01*
X262015Y222031D01*
Y222822D01*
X261712Y223553D01*
X261390Y223875D01*
Y234800D01*
X261287Y235322D01*
X260991Y235764D01*
X258964Y237791D01*
X258522Y238087D01*
X258000Y238190D01*
X257994D01*
Y238191D01*
X257782D01*
Y238205D01*
X256999D01*
X256982Y238208D01*
X256965Y238205D01*
X254091D01*
Y239386D01*
X257782D01*
Y239795D01*
X257994D01*
Y240252D01*
X258351Y240783D01*
X258761Y241193D01*
X267370D01*
Y246783D01*
X258630D01*
Y244604D01*
X258420Y244562D01*
X257978Y244266D01*
X256230Y242519D01*
X256169Y242466D01*
X256053Y242379D01*
X255944Y242308D01*
X255841Y242250D01*
X255745Y242206D01*
X255655Y242174D01*
X255632Y242168D01*
X254131D01*
X253999Y242142D01*
X251216D01*
X251199Y242145D01*
X251189Y242143D01*
X251178Y242145D01*
X251057Y242142D01*
X250400D01*
Y242127D01*
X248864D01*
X248342Y242024D01*
X247900Y241728D01*
X246999Y240827D01*
X219874D01*
X218100Y242601D01*
Y244687D01*
X220295D01*
Y244900D01*
X223020D01*
Y244687D01*
X223610D01*
Y244900D01*
X224020D01*
Y248591D01*
X225201D01*
Y244900D01*
X225610D01*
Y244687D01*
X226201D01*
Y244900D01*
X241793D01*
X241938Y244550D01*
X241715Y244326D01*
X241412Y243596D01*
Y242805D01*
X241715Y242074D01*
X242274Y241514D01*
X243004Y241212D01*
X243795D01*
X244526Y241514D01*
X245086Y242074D01*
X245368Y242756D01*
X247187Y244575D01*
X247404Y244900D01*
X247642D01*
Y252281D01*
X241722D01*
Y263749D01*
X241618Y264270D01*
X241322Y264713D01*
X230671Y275364D01*
X230229Y275660D01*
X229707Y275764D01*
X221548D01*
X221226Y276085D01*
X220496Y276388D01*
X220374D01*
X220240Y276712D01*
X233265Y289736D01*
X265163D01*
X265685Y289840D01*
X266127Y290136D01*
X268964Y292973D01*
X269260Y293415D01*
X269364Y293937D01*
Y298635D01*
X271387Y300659D01*
X271737Y300514D01*
Y292269D01*
X277839D01*
Y295294D01*
X278058D01*
X278579Y295398D01*
X279022Y295693D01*
X279740Y296412D01*
X280195D01*
X280926Y296714D01*
X281486Y297274D01*
X281788Y298005D01*
Y298796D01*
X281486Y299526D01*
X280926Y300085D01*
X280195Y300388D01*
X279404D01*
X278674Y300085D01*
X278189Y299601D01*
X277839Y299707D01*
X277839Y300931D01*
X278104Y301136D01*
X283563D01*
X283625Y301131D01*
X283630Y301130D01*
Y300335D01*
X289924D01*
Y295609D01*
X289470Y295479D01*
X286794Y294370D01*
X284259Y292969D01*
X281896Y291293D01*
X279737Y289363D01*
X277807Y287204D01*
X276131Y284841D01*
X274730Y282306D01*
X273621Y279630D01*
X272819Y276847D01*
X272334Y273992D01*
X272172Y271100D01*
X272334Y268208D01*
X272819Y265353D01*
X273621Y262569D01*
X274730Y259894D01*
X276131Y257359D01*
X277807Y254996D01*
X279737Y252837D01*
X281896Y250907D01*
X284259Y249231D01*
X286794Y247830D01*
X289470Y246721D01*
X292253Y245919D01*
X295108Y245434D01*
X298000Y245272D01*
X409202D01*
X424672Y229802D01*
Y208791D01*
X415776D01*
Y200130D01*
X417032D01*
X417149Y200117D01*
X417264Y200075D01*
X417366Y200007D01*
X417476Y199888D01*
X417593Y199695D01*
X417708Y199414D01*
X417807Y199045D01*
X417883Y198589D01*
X417913Y198249D01*
Y190897D01*
X398594Y171578D01*
X397421Y170572D01*
X396808Y170122D01*
X396221Y169742D01*
X395669Y169438D01*
X395154Y169208D01*
X394679Y169049D01*
X394245Y168958D01*
X393791Y168925D01*
X393786Y168924D01*
X390346D01*
Y161050D01*
X391862D01*
X391980Y161037D01*
X392095Y160995D01*
X392197Y160926D01*
X392306Y160808D01*
X392424Y160615D01*
X392538Y160334D01*
X392638Y159965D01*
X392714Y159508D01*
X392744Y159169D01*
Y138958D01*
X391984Y138643D01*
X390941Y137946D01*
X390054Y137059D01*
X389357Y136016D01*
X388877Y134857D01*
X388632Y133627D01*
Y132373D01*
X388877Y131142D01*
X389357Y129984D01*
X390054Y128941D01*
X390941Y128054D01*
X391984Y127357D01*
X393143Y126877D01*
X394373Y126632D01*
X395627D01*
X396858Y126877D01*
X398016Y127357D01*
X399059Y128054D01*
X399946Y128941D01*
X400643Y129984D01*
X401123Y131142D01*
X401368Y132373D01*
Y133627D01*
X401123Y134857D01*
X400643Y136016D01*
X399946Y137059D01*
X399059Y137946D01*
X398016Y138643D01*
X397918Y138684D01*
Y159169D01*
X397948Y159508D01*
X398024Y159965D01*
X398123Y160334D01*
X398237Y160615D01*
X398355Y160808D01*
X398465Y160926D01*
X398566Y160995D01*
X398681Y161037D01*
X398799Y161050D01*
X400976D01*
Y164503D01*
X400979Y164512D01*
X401002Y164968D01*
X401064Y165385D01*
X401170Y165807D01*
X401319Y166235D01*
X401515Y166669D01*
X401757Y167110D01*
X402048Y167557D01*
X402388Y168011D01*
X402638Y168304D01*
X422329Y187996D01*
X422890Y188835D01*
X423087Y189825D01*
Y198249D01*
X423117Y198589D01*
X423193Y199045D01*
X423292Y199414D01*
X423407Y199695D01*
X423524Y199888D01*
X423634Y200007D01*
X423736Y200075D01*
X423851Y200117D01*
X423968Y200130D01*
X424672D01*
Y128870D01*
X415776D01*
Y126372D01*
X415774Y126357D01*
X415766Y126336D01*
X415752Y126315D01*
X415710Y126277D01*
X415616Y126219D01*
X415456Y126154D01*
X415230Y126093D01*
X414938Y126045D01*
X414726Y126026D01*
X389249D01*
X385123Y130152D01*
X385533Y131142D01*
X385777Y132373D01*
Y133627D01*
X385533Y134857D01*
X385053Y136016D01*
X384356Y137059D01*
X383469Y137946D01*
X382426Y138643D01*
X381267Y139123D01*
X380037Y139368D01*
X378782D01*
X377552Y139123D01*
X376562Y138713D01*
X373381Y141893D01*
X373563Y142207D01*
X374572Y141937D01*
X375743D01*
X376875Y142240D01*
X377889Y142826D01*
X378717Y143654D01*
X379303Y144669D01*
X379606Y145800D01*
Y146971D01*
X379303Y148103D01*
X378717Y149117D01*
X377889Y149946D01*
X376875Y150531D01*
X375743Y150835D01*
X374572D01*
X373440Y150531D01*
X372426Y149946D01*
X371598Y149117D01*
X371054Y148175D01*
X370704Y148239D01*
Y163444D01*
X371974D01*
X372186Y163425D01*
X372478Y163376D01*
X372704Y163316D01*
X372864Y163251D01*
X372958Y163193D01*
X373001Y163155D01*
X373014Y163135D01*
X373022Y163113D01*
X373024Y163098D01*
Y161050D01*
X383654D01*
Y168924D01*
X373024D01*
Y167842D01*
X373022Y167827D01*
X373014Y167806D01*
X373001Y167786D01*
X372958Y167747D01*
X372864Y167689D01*
X372704Y167624D01*
X372478Y167563D01*
X372186Y167515D01*
X371974Y167496D01*
X370597D01*
Y167498D01*
X369814D01*
X369797Y167502D01*
X369780Y167498D01*
X368770D01*
X368677Y167517D01*
X368584Y167498D01*
X366758D01*
Y166029D01*
X366651Y165490D01*
Y143732D01*
X366805Y142957D01*
X367244Y142299D01*
X373696Y135848D01*
X373286Y134857D01*
X373041Y133627D01*
Y132373D01*
X373286Y131142D01*
X373766Y129984D01*
X374463Y128941D01*
X375350Y128054D01*
X376393Y127357D01*
X377552Y126877D01*
X378782Y126632D01*
X380037D01*
X381267Y126877D01*
X382257Y127287D01*
X386977Y122567D01*
X387634Y122128D01*
X388409Y121974D01*
X414726D01*
X414938Y121955D01*
X415230Y121906D01*
X415456Y121846D01*
X415616Y121781D01*
X415710Y121723D01*
X415752Y121685D01*
X415766Y121665D01*
X415774Y121643D01*
X415776Y121628D01*
Y120209D01*
X424672D01*
Y101204D01*
X133340D01*
X130035Y101530D01*
X126778Y102178D01*
X123601Y103141D01*
X120533Y104412D01*
X117604Y105977D01*
X114844Y107822D01*
X112277Y109929D01*
X109929Y112277D01*
X107822Y114844D01*
X105977Y117604D01*
X104412Y120533D01*
X103141Y123601D01*
X102178Y126778D01*
X101530Y130035D01*
X101204Y133340D01*
Y135000D01*
Y465000D01*
Y466660D01*
X101530Y469965D01*
X102178Y473222D01*
X103141Y476399D01*
X104412Y479467D01*
X105977Y482396D01*
X107822Y485156D01*
X109929Y487723D01*
X112277Y490071D01*
X114843Y492178D01*
X117604Y494023D01*
X120533Y495588D01*
X123601Y496859D01*
X126778Y497823D01*
X130035Y498470D01*
X133340Y498796D01*
X272172D01*
Y375500D01*
D02*
G37*
G36*
X277048Y334061D02*
X277071Y333905D01*
X277110Y333750D01*
X277165Y333594D01*
X277235Y333439D01*
X277320Y333283D01*
X277421Y333127D01*
X277538Y332972D01*
X277670Y332816D01*
X277818Y332661D01*
Y331105D01*
X277670Y331245D01*
X277538Y331354D01*
X277421Y331432D01*
X277320Y331479D01*
X277235Y331494D01*
X277165Y331479D01*
X277110Y331432D01*
X277071Y331354D01*
X277048Y331245D01*
X277040Y331105D01*
Y334216D01*
X277048Y334061D01*
D02*
G37*
G36*
X273698Y331073D02*
X273543Y331063D01*
X273387Y331037D01*
X273232Y330997D01*
X273076Y330941D01*
X272921Y330869D01*
X272765Y330783D01*
X272609Y330681D01*
X272454Y330563D01*
X272298Y330431D01*
X272143Y330283D01*
X271365Y331061D01*
X271513Y331216D01*
X271645Y331372D01*
X271763Y331527D01*
X271865Y331683D01*
X271951Y331839D01*
X272023Y331994D01*
X272079Y332150D01*
X272119Y332305D01*
X272145Y332461D01*
X272155Y332616D01*
X273698Y331073D01*
D02*
G37*
G36*
X263457Y331061D02*
X263420Y331050D01*
X263386Y331017D01*
X263356Y330962D01*
X263330Y330885D01*
X263308Y330786D01*
X263290Y330665D01*
X263267Y330357D01*
X263259Y329961D01*
X262159D01*
X262153Y330170D01*
X262137Y330357D01*
X262109Y330523D01*
X262071Y330667D01*
X262021Y330789D01*
X261961Y330889D01*
X261889Y330968D01*
X261807Y331025D01*
X261713Y331060D01*
X261609Y331073D01*
X263457Y331061D01*
D02*
G37*
G36*
X284429Y331366D02*
X284441Y329728D01*
X284428Y329833D01*
X284393Y329926D01*
X284336Y330009D01*
X284258Y330080D01*
X284157Y330140D01*
X284035Y330190D01*
X283891Y330228D01*
X283726Y330256D01*
X283538Y330273D01*
X283329Y330278D01*
Y331378D01*
X284429Y331366D01*
D02*
G37*
G36*
X311572Y330995D02*
X311607Y330902D01*
X311664Y330820D01*
X311742Y330748D01*
X311843Y330687D01*
X311965Y330638D01*
X312109Y330599D01*
X312274Y330572D01*
X312462Y330556D01*
X312671Y330550D01*
Y329450D01*
X312462Y329445D01*
X312274Y329428D01*
X312109Y329400D01*
X311965Y329362D01*
X311843Y329312D01*
X311742Y329252D01*
X311664Y329181D01*
X311607Y329098D01*
X311572Y329005D01*
X311559Y328900D01*
Y331100D01*
X311572Y330995D01*
D02*
G37*
G36*
X263264Y326350D02*
X263281Y326163D01*
X263308Y325997D01*
X263347Y325853D01*
X263396Y325731D01*
X263457Y325631D01*
X263528Y325552D01*
X263611Y325496D01*
X263704Y325461D01*
X263809Y325447D01*
X261609D01*
X261713Y325461D01*
X261807Y325496D01*
X261889Y325552D01*
X261961Y325631D01*
X262021Y325731D01*
X262071Y325853D01*
X262109Y325997D01*
X262137Y326163D01*
X262153Y326350D01*
X262159Y326559D01*
X263259D01*
X263264Y326350D01*
D02*
G37*
G36*
X328427Y326466D02*
X328279Y326310D01*
X328147Y326155D01*
X328029Y325999D01*
X327927Y325843D01*
X327841Y325688D01*
X327769Y325532D01*
X327713Y325377D01*
X327673Y325221D01*
X327647Y325066D01*
X327637Y324910D01*
X326094Y326454D01*
X326249Y326464D01*
X326405Y326489D01*
X326560Y326530D01*
X326716Y326586D01*
X326871Y326657D01*
X327027Y326744D01*
X327183Y326846D01*
X327338Y326963D01*
X327494Y327096D01*
X327649Y327243D01*
X328427Y326466D01*
D02*
G37*
G36*
X323343D02*
Y324828D01*
X322243Y325378D01*
Y326478D01*
X323343Y326466D01*
D02*
G37*
G36*
X277048Y321969D02*
X277071Y321813D01*
X277110Y321658D01*
X277164Y321502D01*
X277234Y321346D01*
X277320Y321191D01*
X277421Y321035D01*
X277538Y320880D01*
X277670Y320724D01*
X277818Y320569D01*
Y319013D01*
X277670Y319153D01*
X277538Y319262D01*
X277421Y319340D01*
X277320Y319386D01*
X277234Y319402D01*
X277164Y319386D01*
X277110Y319340D01*
X277071Y319262D01*
X277048Y319153D01*
X277040Y319013D01*
Y322124D01*
X277048Y321969D01*
D02*
G37*
G36*
X277909Y329864D02*
X278351Y329568D01*
X278873Y329464D01*
X283563D01*
X283625Y329459D01*
X283630Y329458D01*
Y327835D01*
X289924D01*
Y319665D01*
X283630D01*
Y318870D01*
X283625Y318869D01*
X283563Y318864D01*
X280673D01*
X278218Y321319D01*
X278165Y321381D01*
X278080Y321495D01*
X278009Y321604D01*
X277953Y321705D01*
X277911Y321800D01*
X277880Y321888D01*
X277859Y321970D01*
X277848Y322048D01*
X277842Y322164D01*
X277839Y322174D01*
Y326259D01*
X271737D01*
Y317597D01*
X277839D01*
X277839Y317597D01*
Y317597D01*
X278167Y317513D01*
X279144Y316536D01*
X279587Y316240D01*
X280109Y316136D01*
X283563D01*
X283625Y316131D01*
X283630Y316130D01*
Y315335D01*
X289924D01*
Y314665D01*
X283630D01*
Y313870D01*
X283625Y313869D01*
X283563Y313864D01*
X279379D01*
X277079Y316164D01*
X276636Y316460D01*
X276115Y316564D01*
X274348D01*
X274026Y316885D01*
X273295Y317188D01*
X272504D01*
X271774Y316885D01*
X271215Y316326D01*
X270912Y315596D01*
Y314805D01*
X271215Y314074D01*
X271774Y313514D01*
X272504Y313212D01*
X273295D01*
X274026Y313514D01*
X274348Y313836D01*
X275550D01*
X276452Y312934D01*
X276318Y312611D01*
X271343D01*
Y304933D01*
X277839D01*
Y309120D01*
X277842Y309130D01*
X277848Y309246D01*
X277859Y309324D01*
X277880Y309406D01*
X277911Y309494D01*
X277953Y309589D01*
X278009Y309690D01*
X278080Y309799D01*
X278165Y309913D01*
X278219Y309976D01*
X279379Y311136D01*
X283563D01*
X283625Y311131D01*
X283630Y311130D01*
Y310335D01*
X289924D01*
Y309665D01*
X283630D01*
Y308754D01*
X282606D01*
X282393Y308967D01*
X281663Y309269D01*
X280872D01*
X280141Y308967D01*
X279582Y308407D01*
X279279Y307677D01*
Y306886D01*
X279582Y306155D01*
X280141Y305596D01*
X280872Y305293D01*
X281663D01*
X282393Y305596D01*
X282825Y306027D01*
X283630D01*
Y305335D01*
X289924D01*
Y304665D01*
X283630D01*
Y303870D01*
X283625Y303869D01*
X283563Y303864D01*
X271865D01*
X268564Y307165D01*
Y325553D01*
X272895Y329884D01*
X272956Y329937D01*
X273072Y330024D01*
X273181Y330095D01*
X273284Y330153D01*
X273380Y330197D01*
X273470Y330229D01*
X273554Y330251D01*
X273617Y330261D01*
X277511D01*
X277909Y329864D01*
D02*
G37*
G36*
X263704Y318395D02*
X263611Y318360D01*
X263528Y318304D01*
X263457Y318225D01*
X263396Y318125D01*
X263347Y318003D01*
X263308Y317859D01*
X263281Y317693D01*
X263264Y317506D01*
X263259Y317297D01*
X262159D01*
X262153Y317506D01*
X262137Y317693D01*
X262109Y317859D01*
X262071Y318003D01*
X262021Y318125D01*
X261961Y318225D01*
X261889Y318304D01*
X261807Y318360D01*
X261713Y318395D01*
X261609Y318409D01*
X263809D01*
X263704Y318395D01*
D02*
G37*
G36*
X311572Y318495D02*
X311607Y318402D01*
X311664Y318320D01*
X311742Y318248D01*
X311843Y318187D01*
X311965Y318138D01*
X312109Y318099D01*
X312274Y318072D01*
X312462Y318056D01*
X312671Y318050D01*
Y316950D01*
X312462Y316945D01*
X312274Y316928D01*
X312109Y316900D01*
X311965Y316862D01*
X311843Y316812D01*
X311742Y316752D01*
X311664Y316681D01*
X311607Y316598D01*
X311572Y316505D01*
X311559Y316400D01*
Y318600D01*
X311572Y318495D01*
D02*
G37*
G36*
X284441Y316400D02*
X284428Y316505D01*
X284393Y316598D01*
X284336Y316681D01*
X284258Y316752D01*
X284157Y316812D01*
X284035Y316862D01*
X283891Y316900D01*
X283726Y316928D01*
X283538Y316945D01*
X283329Y316950D01*
Y318050D01*
X283538Y318056D01*
X283726Y318072D01*
X283891Y318099D01*
X284035Y318138D01*
X284157Y318187D01*
X284258Y318248D01*
X284336Y318320D01*
X284393Y318402D01*
X284428Y318495D01*
X284441Y318600D01*
Y316400D01*
D02*
G37*
G36*
X183276Y313400D02*
X183263Y313505D01*
X183228Y313598D01*
X183171Y313681D01*
X183092Y313752D01*
X182992Y313812D01*
X182870Y313862D01*
X182726Y313900D01*
X182561Y313928D01*
X182373Y313945D01*
X182164Y313950D01*
Y315050D01*
X182373Y315055D01*
X182561Y315072D01*
X182726Y315100D01*
X182870Y315138D01*
X182992Y315188D01*
X183092Y315248D01*
X183171Y315319D01*
X183228Y315402D01*
X183263Y315495D01*
X183276Y315600D01*
Y313400D01*
D02*
G37*
G36*
X191126Y312133D02*
X190026D01*
X189476Y313232D01*
X191114D01*
X191126Y312133D01*
D02*
G37*
G36*
X263261Y312702D02*
X263308Y312086D01*
X263330Y311987D01*
X263356Y311910D01*
X263386Y311855D01*
X263420Y311822D01*
X263457Y311811D01*
X261609Y311799D01*
X261713Y311812D01*
X261807Y311847D01*
X261889Y311904D01*
X261961Y311983D01*
X262021Y312083D01*
X262071Y312205D01*
X262109Y312349D01*
X262137Y312515D01*
X262153Y312702D01*
X262159Y312911D01*
X263259D01*
X263261Y312702D01*
D02*
G37*
G36*
X277818Y310725D02*
X277670Y310570D01*
X277538Y310414D01*
X277421Y310259D01*
X277320Y310103D01*
X277235Y309948D01*
X277165Y309792D01*
X277110Y309636D01*
X277071Y309481D01*
X277048Y309325D01*
X277040Y309170D01*
Y311811D01*
X277048Y311760D01*
X277071Y311731D01*
X277110Y311724D01*
X277165Y311738D01*
X277235Y311775D01*
X277320Y311832D01*
X277421Y311912D01*
X277670Y312136D01*
X277818Y312281D01*
Y310725D01*
D02*
G37*
G36*
X311572Y313495D02*
X311607Y313402D01*
X311664Y313319D01*
X311742Y313248D01*
X311843Y313188D01*
X311965Y313138D01*
X312109Y313100D01*
X312274Y313072D01*
X312462Y313055D01*
X312671Y313050D01*
Y311950D01*
X312462Y311945D01*
X312274Y311928D01*
X312109Y311900D01*
X311965Y311862D01*
X311843Y311812D01*
X311742Y311752D01*
X311664Y311681D01*
X311607Y311598D01*
X311572Y311505D01*
X311559Y311400D01*
Y313600D01*
X311572Y313495D01*
D02*
G37*
G36*
X284441Y311400D02*
X284428Y311505D01*
X284393Y311598D01*
X284336Y311681D01*
X284258Y311752D01*
X284157Y311812D01*
X284035Y311862D01*
X283891Y311900D01*
X283726Y311928D01*
X283538Y311945D01*
X283329Y311950D01*
Y313050D01*
X283538Y313055D01*
X283726Y313072D01*
X283891Y313100D01*
X284035Y313138D01*
X284157Y313188D01*
X284258Y313248D01*
X284336Y313319D01*
X284393Y313402D01*
X284428Y313495D01*
X284441Y313600D01*
Y311400D01*
D02*
G37*
G36*
X335154Y310800D02*
X334054Y311350D01*
Y312450D01*
X335154Y313000D01*
Y310800D01*
D02*
G37*
G36*
X176055Y310599D02*
X176070Y310418D01*
X176096Y310259D01*
X176132Y310121D01*
X176178Y310005D01*
X176234Y309910D01*
X176300Y309835D01*
X176376Y309782D01*
X176463Y309751D01*
X176560Y309740D01*
X174440D01*
X174537Y309751D01*
X174624Y309782D01*
X174700Y309835D01*
X174766Y309910D01*
X174822Y310005D01*
X174868Y310121D01*
X174904Y310259D01*
X174930Y310418D01*
X174945Y310599D01*
X174950Y310800D01*
X176050D01*
X176055Y310599D01*
D02*
G37*
G36*
X360764Y308430D02*
X360781Y308243D01*
X360808Y308077D01*
X360847Y307933D01*
X360896Y307811D01*
X360957Y307711D01*
X361028Y307632D01*
X361111Y307575D01*
X361204Y307540D01*
X361309Y307527D01*
X359109D01*
X359213Y307540D01*
X359307Y307575D01*
X359389Y307632D01*
X359461Y307711D01*
X359521Y307811D01*
X359571Y307933D01*
X359609Y308077D01*
X359637Y308243D01*
X359653Y308430D01*
X359659Y308639D01*
X360759D01*
X360764Y308430D01*
D02*
G37*
G36*
X311572Y308495D02*
X311607Y308402D01*
X311664Y308319D01*
X311742Y308248D01*
X311843Y308188D01*
X311965Y308138D01*
X312109Y308100D01*
X312274Y308072D01*
X312462Y308055D01*
X312671Y308050D01*
Y306950D01*
X312462Y306944D01*
X312274Y306928D01*
X312109Y306901D01*
X311965Y306862D01*
X311843Y306813D01*
X311742Y306752D01*
X311664Y306680D01*
X311607Y306598D01*
X311572Y306505D01*
X311559Y306400D01*
Y308600D01*
X311572Y308495D01*
D02*
G37*
G36*
X206845Y307235D02*
Y266609D01*
Y265807D01*
X206840Y265745D01*
X206839Y265740D01*
X204961D01*
Y258260D01*
X211457D01*
Y265740D01*
X209684D01*
X209619Y266090D01*
X217789Y274260D01*
X218112Y274126D01*
Y274005D01*
X218414Y273274D01*
X218974Y272714D01*
X219705Y272412D01*
X220496D01*
X221226Y272714D01*
X221548Y273036D01*
X229142D01*
X236115Y266063D01*
X235981Y265740D01*
X231961D01*
Y263598D01*
X231492Y263364D01*
X230400D01*
X229878Y263260D01*
X229436Y262964D01*
X228143Y261671D01*
X227711Y261734D01*
X227543Y261985D01*
X226564Y262964D01*
X226122Y263260D01*
X225600Y263364D01*
X225039D01*
Y265740D01*
X218543D01*
Y258260D01*
X225039D01*
X225215Y257983D01*
Y252494D01*
X223020D01*
Y252281D01*
X220295D01*
Y252494D01*
X219705D01*
Y252282D01*
X219295D01*
Y248591D01*
X218114D01*
Y252282D01*
X217705D01*
Y252494D01*
X217114D01*
Y252281D01*
X215358D01*
Y245716D01*
X215355Y245699D01*
X215357Y245689D01*
X215355Y245678D01*
X215358Y245556D01*
Y244900D01*
X215373D01*
Y242601D01*
X214898Y242127D01*
X212600D01*
Y242142D01*
X211860D01*
X211853Y242144D01*
X211840Y242142D01*
X211818D01*
X211801Y242145D01*
X211784Y242142D01*
X206035D01*
X206018Y242145D01*
X206008Y242143D01*
X205997Y242145D01*
X205875Y242142D01*
X205219D01*
Y242127D01*
X201937D01*
X201875Y242133D01*
X201870Y242134D01*
Y243783D01*
X193130D01*
Y242358D01*
X193125Y242357D01*
X193063Y242352D01*
X192630D01*
X192568Y242357D01*
X192563Y242358D01*
Y243783D01*
X183823D01*
Y242358D01*
X183818Y242357D01*
X183756Y242352D01*
X183323D01*
X183261Y242357D01*
X183256Y242358D01*
Y243783D01*
X174516D01*
Y242352D01*
X173791D01*
Y244039D01*
X168075D01*
X167944Y244065D01*
X167210D01*
X167187Y244072D01*
X167097Y244104D01*
X167001Y244148D01*
X166898Y244205D01*
X166789Y244277D01*
X166674Y244364D01*
X166612Y244416D01*
X164264Y246765D01*
Y282525D01*
X173424Y291686D01*
X173486Y291739D01*
X173601Y291825D01*
X173711Y291897D01*
X173813Y291954D01*
X173910Y291998D01*
X174000Y292031D01*
X174084Y292053D01*
X174147Y292063D01*
X179350D01*
Y299937D01*
X176870D01*
X176869Y299942D01*
X176864Y300004D01*
Y304685D01*
X176869Y304747D01*
X176870Y304752D01*
X179791D01*
Y310539D01*
X177625D01*
X177491Y310863D01*
X179765Y313136D01*
X182398D01*
X182459Y313131D01*
X182465Y313130D01*
Y312433D01*
X188978D01*
X189212Y311965D01*
Y310624D01*
X189316Y310102D01*
X189612Y309660D01*
X191917Y307355D01*
X192359Y307059D01*
X192881Y306956D01*
X193990D01*
X193992Y306951D01*
X194551Y306392D01*
X195282Y306089D01*
X196073D01*
X196804Y306392D01*
X197363Y306951D01*
X197666Y307682D01*
Y308473D01*
X197363Y309204D01*
X196804Y309763D01*
X196073Y310066D01*
X195282D01*
X194551Y309763D01*
X194471Y309683D01*
X193446D01*
X191940Y311189D01*
Y313771D01*
X191913Y313902D01*
Y316567D01*
X188553D01*
Y317433D01*
X191913D01*
Y320636D01*
X193444D01*
X206845Y307235D01*
D02*
G37*
G36*
X263457Y305733D02*
X263420Y305722D01*
X263386Y305689D01*
X263356Y305634D01*
X263330Y305557D01*
X263308Y305458D01*
X263290Y305337D01*
X263267Y305029D01*
X263259Y304633D01*
X262159D01*
X262153Y304842D01*
X262137Y305029D01*
X262109Y305195D01*
X262071Y305339D01*
X262021Y305461D01*
X261961Y305561D01*
X261889Y305640D01*
X261807Y305697D01*
X261713Y305732D01*
X261609Y305745D01*
X263457Y305733D01*
D02*
G37*
G36*
X176496Y305550D02*
X176402Y305515D01*
X176320Y305458D01*
X176248Y305380D01*
X176188Y305279D01*
X176138Y305157D01*
X176100Y305013D01*
X176072Y304848D01*
X176056Y304660D01*
X176050Y304451D01*
X174950D01*
X174944Y304660D01*
X174928Y304848D01*
X174900Y305013D01*
X174862Y305157D01*
X174812Y305279D01*
X174752Y305380D01*
X174680Y305458D01*
X174598Y305515D01*
X174504Y305550D01*
X174400Y305563D01*
X176600D01*
X176496Y305550D01*
D02*
G37*
G36*
X376241Y305496D02*
X376276Y305402D01*
X376333Y305319D01*
X376412Y305248D01*
X376512Y305188D01*
X376634Y305138D01*
X376778Y305100D01*
X376944Y305072D01*
X377131Y305055D01*
X377340Y305050D01*
Y303950D01*
X377131Y303944D01*
X376944Y303928D01*
X376778Y303901D01*
X376634Y303862D01*
X376512Y303813D01*
X376412Y303752D01*
X376333Y303680D01*
X376276Y303598D01*
X376241Y303504D01*
X376228Y303400D01*
Y305600D01*
X376241Y305496D01*
D02*
G37*
G36*
X311572Y303496D02*
X311607Y303402D01*
X311664Y303320D01*
X311742Y303248D01*
X311843Y303187D01*
X311965Y303138D01*
X312109Y303099D01*
X312274Y303072D01*
X312462Y303056D01*
X312671Y303050D01*
Y301950D01*
X312462Y301944D01*
X312274Y301928D01*
X312109Y301901D01*
X311965Y301862D01*
X311843Y301813D01*
X311742Y301752D01*
X311664Y301680D01*
X311607Y301598D01*
X311572Y301504D01*
X311559Y301400D01*
Y303600D01*
X311572Y303496D01*
D02*
G37*
G36*
X284441Y301400D02*
X284428Y301504D01*
X284393Y301598D01*
X284336Y301680D01*
X284258Y301752D01*
X284157Y301813D01*
X284035Y301862D01*
X283891Y301901D01*
X283726Y301928D01*
X283538Y301944D01*
X283329Y301950D01*
Y303050D01*
X283538Y303056D01*
X283726Y303072D01*
X283891Y303099D01*
X284035Y303138D01*
X284157Y303187D01*
X284258Y303248D01*
X284336Y303320D01*
X284393Y303402D01*
X284428Y303496D01*
X284441Y303600D01*
Y301400D01*
D02*
G37*
G36*
X265836Y306600D02*
X265940Y306078D01*
X266236Y305636D01*
X269372Y302500D01*
X267036Y300164D01*
X266772Y299770D01*
X266579Y299776D01*
X266422Y299828D01*
Y300931D01*
X264072D01*
Y304933D01*
X264257D01*
Y305711D01*
X264260Y305728D01*
X264257Y305745D01*
Y311799D01*
X264260Y311816D01*
X264257Y311833D01*
Y312611D01*
X264073D01*
X264072Y312620D01*
Y317530D01*
X264078Y317592D01*
X264078Y317597D01*
X265836D01*
Y306600D01*
D02*
G37*
G36*
X176056Y300028D02*
X176072Y299841D01*
X176100Y299675D01*
X176138Y299532D01*
X176188Y299410D01*
X176248Y299309D01*
X176320Y299231D01*
X176402Y299174D01*
X176496Y299139D01*
X176600Y299126D01*
X174400D01*
X174504Y299139D01*
X174598Y299174D01*
X174680Y299231D01*
X174752Y299309D01*
X174812Y299410D01*
X174862Y299532D01*
X174900Y299675D01*
X174928Y299841D01*
X174944Y300028D01*
X174950Y300238D01*
X176050D01*
X176056Y300028D01*
D02*
G37*
G36*
X174228Y292874D02*
X174073Y292864D01*
X173917Y292839D01*
X173761Y292798D01*
X173606Y292742D01*
X173450Y292671D01*
X173295Y292584D01*
X173139Y292482D01*
X172984Y292365D01*
X172828Y292232D01*
X172673Y292085D01*
X171892Y292859D01*
X172039Y293015D01*
X172172Y293170D01*
X172289Y293326D01*
X172391Y293481D01*
X172478Y293637D01*
X172549Y293793D01*
X172605Y293948D01*
X172646Y294104D01*
X172671Y294259D01*
X172681Y294415D01*
X174228Y292874D01*
D02*
G37*
G36*
X208764Y265832D02*
X208781Y265644D01*
X208808Y265479D01*
X208847Y265335D01*
X208896Y265213D01*
X208957Y265112D01*
X209028Y265034D01*
X209111Y264977D01*
X209204Y264942D01*
X209309Y264929D01*
X207109D01*
X207213Y264942D01*
X207307Y264977D01*
X207389Y265034D01*
X207461Y265112D01*
X207521Y265213D01*
X207571Y265335D01*
X207609Y265479D01*
X207637Y265644D01*
X207653Y265832D01*
X207659Y266041D01*
X208759D01*
X208764Y265832D01*
D02*
G37*
G36*
X232760Y260900D02*
X231660Y261450D01*
Y262550D01*
X232760Y263100D01*
Y260900D01*
D02*
G37*
G36*
X238995Y263156D02*
Y252281D01*
X235816D01*
Y254366D01*
X235713Y254887D01*
X235417Y255330D01*
X235369Y255378D01*
X235370Y255382D01*
Y256173D01*
X235068Y256904D01*
X234508Y257463D01*
X233778Y257766D01*
X232987D01*
X232256Y257463D01*
X231697Y256904D01*
X231394Y256173D01*
Y255382D01*
X231697Y254651D01*
X232256Y254092D01*
X232987Y253789D01*
X233089D01*
Y252281D01*
X229911D01*
Y259582D01*
X230965Y260636D01*
X231492D01*
X231961Y260402D01*
Y258260D01*
X238457D01*
Y263190D01*
X238779Y263330D01*
X238995Y263156D01*
D02*
G37*
G36*
X240937Y251482D02*
X239780D01*
X239785Y251493D01*
X239790Y251526D01*
X239794Y251581D01*
X239807Y252186D01*
X239808Y252582D01*
X240908D01*
X240937Y251482D01*
D02*
G37*
G36*
X235031D02*
X233874D01*
X233880Y251493D01*
X233885Y251526D01*
X233889Y251581D01*
X233902Y252186D01*
X233903Y252582D01*
X235003D01*
X235031Y251482D01*
D02*
G37*
G36*
X229126D02*
X227969D01*
X227974Y251493D01*
X227979Y251526D01*
X227983Y251581D01*
X227996Y252186D01*
X227997Y252582D01*
X229097D01*
X229126Y251482D01*
D02*
G37*
G36*
X227157D02*
X226000D01*
X226006Y251493D01*
X226010Y251526D01*
X226015Y251581D01*
X226028Y252186D01*
X226029Y252582D01*
X227129D01*
X227157Y251482D01*
D02*
G37*
G36*
X217286Y244599D02*
X216186D01*
X216158Y245699D01*
X217315D01*
X217286Y244599D01*
D02*
G37*
G36*
X193941Y239888D02*
X193928Y239993D01*
X193893Y240086D01*
X193836Y240169D01*
X193758Y240240D01*
X193657Y240301D01*
X193535Y240350D01*
X193391Y240389D01*
X193226Y240416D01*
X193038Y240433D01*
X192847Y240438D01*
X192655Y240433D01*
X192467Y240416D01*
X192302Y240389D01*
X192158Y240350D01*
X192036Y240301D01*
X191935Y240240D01*
X191857Y240169D01*
X191800Y240086D01*
X191765Y239993D01*
X191752Y239888D01*
Y242088D01*
X191765Y241984D01*
X191800Y241890D01*
X191857Y241808D01*
X191935Y241736D01*
X192036Y241676D01*
X192158Y241626D01*
X192302Y241588D01*
X192467Y241560D01*
X192655Y241544D01*
X192847Y241539D01*
X193038Y241544D01*
X193226Y241560D01*
X193391Y241588D01*
X193535Y241626D01*
X193657Y241676D01*
X193758Y241736D01*
X193836Y241808D01*
X193893Y241890D01*
X193928Y241984D01*
X193941Y242088D01*
Y239888D01*
D02*
G37*
G36*
X184634D02*
X184621Y239993D01*
X184586Y240086D01*
X184529Y240169D01*
X184451Y240240D01*
X184350Y240301D01*
X184228Y240350D01*
X184084Y240389D01*
X183919Y240416D01*
X183731Y240433D01*
X183539Y240438D01*
X183347Y240433D01*
X183160Y240416D01*
X182994Y240389D01*
X182851Y240350D01*
X182729Y240301D01*
X182628Y240240D01*
X182550Y240169D01*
X182493Y240086D01*
X182458Y239993D01*
X182445Y239888D01*
Y242088D01*
X182458Y241984D01*
X182493Y241890D01*
X182550Y241808D01*
X182628Y241736D01*
X182729Y241676D01*
X182851Y241626D01*
X182994Y241588D01*
X183160Y241560D01*
X183347Y241544D01*
X183539Y241539D01*
X183731Y241544D01*
X183919Y241560D01*
X184084Y241588D01*
X184228Y241626D01*
X184350Y241676D01*
X184451Y241736D01*
X184529Y241808D01*
X184586Y241890D01*
X184621Y241984D01*
X184634Y242088D01*
Y239888D01*
D02*
G37*
G36*
X166016Y243870D02*
X166171Y243737D01*
X166327Y243620D01*
X166482Y243518D01*
X166638Y243431D01*
X166794Y243360D01*
X166949Y243304D01*
X167105Y243263D01*
X167260Y243238D01*
X167416Y243228D01*
X166020Y241536D01*
X166010Y241692D01*
X165985Y241847D01*
X165944Y242003D01*
X165888Y242159D01*
X165817Y242314D01*
X165730Y242470D01*
X165628Y242625D01*
X165511Y242781D01*
X165378Y242936D01*
X165230Y243092D01*
X165860Y244018D01*
X166016Y243870D01*
D02*
G37*
G36*
X257760Y241342D02*
X256982Y240185D01*
X255427Y241330D01*
X255582Y241340D01*
X255738Y241366D01*
X255893Y241406D01*
X256049Y241462D01*
X256204Y241534D01*
X256360Y241620D01*
X256516Y241722D01*
X256671Y241840D01*
X256827Y241972D01*
X256982Y242120D01*
X257760Y241342D01*
D02*
G37*
G36*
X251199Y240185D02*
X250099Y240214D01*
Y241314D01*
X251199Y241342D01*
Y240185D01*
D02*
G37*
G36*
X211812Y241337D02*
X211845Y241332D01*
X211900Y241328D01*
X212505Y241315D01*
X212901Y241314D01*
Y240214D01*
X211801Y240185D01*
Y241342D01*
X211812Y241337D01*
D02*
G37*
G36*
X206018Y240185D02*
X204918Y240214D01*
Y241314D01*
X206018Y241342D01*
Y240185D01*
D02*
G37*
G36*
X201072Y241759D02*
X201107Y241666D01*
X201164Y241583D01*
X201242Y241512D01*
X201343Y241451D01*
X201465Y241402D01*
X201609Y241363D01*
X201774Y241336D01*
X201962Y241319D01*
X202171Y241314D01*
Y240214D01*
X201962Y240208D01*
X201774Y240192D01*
X201609Y240164D01*
X201465Y240126D01*
X201343Y240076D01*
X201242Y240016D01*
X201164Y239944D01*
X201107Y239862D01*
X201072Y239768D01*
X201059Y239664D01*
Y241864D01*
X201072Y241759D01*
D02*
G37*
G36*
X256992Y237400D02*
X257023Y237395D01*
X257074Y237391D01*
X257481Y237379D01*
X258000Y237377D01*
Y236277D01*
X256982Y236248D01*
Y237405D01*
X256992Y237400D01*
D02*
G37*
G36*
X160341Y232354D02*
X160776Y231980D01*
X160982Y231827D01*
X161181Y231698D01*
X161371Y231592D01*
X161554Y231508D01*
X161729Y231448D01*
X161896Y231411D01*
X162056Y231397D01*
X160166Y230200D01*
X160156Y230356D01*
X160130Y230511D01*
X160090Y230667D01*
X160034Y230822D01*
X159962Y230978D01*
X159876Y231133D01*
X159774Y231289D01*
X159657Y231445D01*
X159524Y231600D01*
X159376Y231756D01*
X160111Y232576D01*
X160341Y232354D01*
D02*
G37*
G36*
X197171Y231201D02*
X197327Y231068D01*
X197483Y230952D01*
X197638Y230851D01*
X197794Y230765D01*
X197949Y230695D01*
X198105Y230641D01*
X198260Y230602D01*
X198416Y230578D01*
X198572Y230571D01*
X197016Y229015D01*
X197008Y229171D01*
X196985Y229326D01*
X196946Y229482D01*
X196891Y229637D01*
X196821Y229793D01*
X196736Y229948D01*
X196635Y230104D01*
X196518Y230259D01*
X196386Y230415D01*
X196238Y230571D01*
X197016Y231348D01*
X197171Y231201D01*
D02*
G37*
G36*
X206018Y228374D02*
X204918Y228403D01*
Y229503D01*
X206018Y229531D01*
Y228374D01*
D02*
G37*
G36*
X177848Y230350D02*
X177883Y230256D01*
X177939Y230174D01*
X178018Y230102D01*
X178118Y230042D01*
X178240Y229992D01*
X178384Y229954D01*
X178550Y229926D01*
X178737Y229910D01*
X178946Y229904D01*
Y228804D01*
X178737Y228799D01*
X178550Y228782D01*
X178384Y228755D01*
X178240Y228716D01*
X178118Y228667D01*
X178018Y228606D01*
X177939Y228535D01*
X177883Y228452D01*
X177848Y228359D01*
X177834Y228254D01*
Y230454D01*
X177848Y230350D01*
D02*
G37*
G36*
X173355Y228254D02*
X173341Y228359D01*
X173306Y228452D01*
X173249Y228535D01*
X173171Y228606D01*
X173071Y228667D01*
X172949Y228716D01*
X172805Y228755D01*
X172639Y228782D01*
X172452Y228799D01*
X172243Y228804D01*
Y229904D01*
X172452Y229910D01*
X172639Y229926D01*
X172805Y229954D01*
X172949Y229992D01*
X173071Y230042D01*
X173171Y230102D01*
X173249Y230174D01*
X173306Y230256D01*
X173341Y230350D01*
X173355Y230454D01*
Y228254D01*
D02*
G37*
G36*
X164659Y230350D02*
X164694Y230256D01*
X164751Y230174D01*
X164829Y230102D01*
X164929Y230042D01*
X165051Y229992D01*
X165195Y229954D01*
X165361Y229926D01*
X165548Y229910D01*
X165757Y229904D01*
Y228804D01*
X165548Y228799D01*
X165361Y228782D01*
X165195Y228755D01*
X165051Y228716D01*
X164929Y228667D01*
X164829Y228606D01*
X164751Y228535D01*
X164694Y228452D01*
X164659Y228359D01*
X164645Y228254D01*
Y230454D01*
X164659Y230350D01*
D02*
G37*
G36*
X201009Y227995D02*
X201044Y227902D01*
X201101Y227819D01*
X201179Y227748D01*
X201280Y227688D01*
X201402Y227638D01*
X201546Y227600D01*
X201711Y227572D01*
X201899Y227555D01*
X202108Y227550D01*
Y226450D01*
X201899Y226445D01*
X201711Y226428D01*
X201546Y226400D01*
X201402Y226362D01*
X201280Y226312D01*
X201179Y226252D01*
X201101Y226181D01*
X201044Y226098D01*
X201009Y226005D01*
X200996Y225900D01*
Y228100D01*
X201009Y227995D01*
D02*
G37*
G36*
X320625Y225400D02*
X320612Y225504D01*
X320577Y225598D01*
X320520Y225680D01*
X320441Y225752D01*
X320341Y225813D01*
X320219Y225862D01*
X320075Y225901D01*
X319909Y225928D01*
X319722Y225944D01*
X319513Y225950D01*
Y227050D01*
X319722Y227056D01*
X319909Y227072D01*
X320075Y227099D01*
X320219Y227138D01*
X320341Y227187D01*
X320441Y227248D01*
X320520Y227320D01*
X320577Y227402D01*
X320612Y227496D01*
X320625Y227600D01*
Y225400D01*
D02*
G37*
G36*
X250187Y237205D02*
X250400D01*
Y233480D01*
Y229543D01*
Y225606D01*
Y220474D01*
X250100D01*
X249578Y220370D01*
X249278Y220169D01*
X248928Y220345D01*
Y238899D01*
X249429Y239400D01*
X250187D01*
Y237205D01*
D02*
G37*
G36*
X217709Y239136D02*
Y224137D01*
X213136Y219565D01*
X212813Y219699D01*
Y220701D01*
X212600D01*
Y223638D01*
Y227575D01*
Y231512D01*
Y235449D01*
Y239400D01*
X215463D01*
X215985Y239504D01*
X216427Y239800D01*
X216736Y240108D01*
X217709Y239136D01*
D02*
G37*
G36*
X256993Y219683D02*
X257026Y219678D01*
X257081Y219674D01*
X257686Y219661D01*
X258082Y219660D01*
Y218560D01*
X256982Y218532D01*
Y219689D01*
X256993Y219683D01*
D02*
G37*
G36*
X251199Y218532D02*
X250100Y218560D01*
Y219660D01*
X251199Y219689D01*
Y218532D01*
D02*
G37*
G36*
X211809Y217715D02*
X211835Y217710D01*
X211877Y217706D01*
X212104Y217696D01*
X212642Y217692D01*
Y216592D01*
X211801Y216563D01*
Y217720D01*
X211809Y217715D01*
D02*
G37*
G36*
X184520Y215754D02*
X184507Y215859D01*
X184472Y215952D01*
X184415Y216035D01*
X184336Y216106D01*
X184236Y216167D01*
X184114Y216216D01*
X183970Y216255D01*
X183805Y216282D01*
X183617Y216299D01*
X183408Y216304D01*
Y217404D01*
X183617Y217410D01*
X183805Y217426D01*
X183970Y217454D01*
X184114Y217492D01*
X184236Y217542D01*
X184336Y217602D01*
X184415Y217674D01*
X184472Y217756D01*
X184507Y217850D01*
X184520Y217954D01*
Y215754D01*
D02*
G37*
G36*
X201072Y217659D02*
X201107Y217566D01*
X201164Y217483D01*
X201242Y217412D01*
X201343Y217351D01*
X201465Y217302D01*
X201609Y217263D01*
X201774Y217236D01*
X201962Y217219D01*
X202171Y217214D01*
Y216114D01*
X201962Y216108D01*
X201774Y216092D01*
X201609Y216064D01*
X201465Y216026D01*
X201343Y215976D01*
X201242Y215916D01*
X201164Y215844D01*
X201107Y215762D01*
X201072Y215668D01*
X201059Y215564D01*
Y217764D01*
X201072Y217659D01*
D02*
G37*
G36*
X256993Y215746D02*
X257026Y215741D01*
X257081Y215737D01*
X257686Y215724D01*
X258082Y215723D01*
Y214623D01*
X256982Y214595D01*
Y215752D01*
X256993Y215746D01*
D02*
G37*
G36*
Y211809D02*
X257026Y211805D01*
X257081Y211800D01*
X257686Y211787D01*
X258082Y211786D01*
Y210686D01*
X256982Y210658D01*
Y211815D01*
X256993Y211809D01*
D02*
G37*
G36*
X242905Y206301D02*
X241748D01*
X241754Y206308D01*
X241758Y206328D01*
X241763Y206361D01*
X241770Y206469D01*
X241777Y206973D01*
X242877D01*
X242905Y206301D01*
D02*
G37*
G36*
X221252D02*
X220095D01*
X220100Y206310D01*
X220105Y206337D01*
X220109Y206382D01*
X220119Y206625D01*
X220123Y207200D01*
X221223D01*
X221252Y206301D01*
D02*
G37*
G36*
X247620D02*
X247472Y206147D01*
X247223Y205844D01*
X247122Y205697D01*
X247037Y205551D01*
X246967Y205408D01*
X246912Y205267D01*
X246873Y205128D01*
X246850Y204992D01*
X246842Y204858D01*
X245685Y206301D01*
X245765Y206309D01*
X245853Y206332D01*
X245949Y206371D01*
X246052Y206425D01*
X246164Y206495D01*
X246284Y206581D01*
X246547Y206799D01*
X246691Y206931D01*
X246842Y207079D01*
X247620Y206301D01*
D02*
G37*
G36*
X320613Y204622D02*
X320602Y204666D01*
X320569Y204705D01*
X320514Y204740D01*
X320437Y204769D01*
X320338Y204795D01*
X320217Y204816D01*
X320074Y204832D01*
X319722Y204850D01*
X319513Y204852D01*
Y205952D01*
X319722Y205958D01*
X319909Y205974D01*
X320075Y206002D01*
X320219Y206040D01*
X320341Y206090D01*
X320441Y206150D01*
X320520Y206222D01*
X320577Y206304D01*
X320612Y206398D01*
X320625Y206502D01*
X320613Y204622D01*
D02*
G37*
G36*
X242877Y199824D02*
X241777D01*
X241748Y200518D01*
X242905D01*
X242877Y199824D01*
D02*
G37*
G36*
X246814Y199418D02*
X245714D01*
X245685Y200518D01*
X246842D01*
X246814Y199418D01*
D02*
G37*
G36*
X236971D02*
X235871D01*
X235843Y200518D01*
X237000D01*
X236971Y199418D01*
D02*
G37*
G36*
X233034D02*
X231934D01*
X231906Y200518D01*
X233063D01*
X233034Y199418D01*
D02*
G37*
G36*
X229097D02*
X227997D01*
X227969Y200518D01*
X229126D01*
X229097Y199418D01*
D02*
G37*
G36*
X225160D02*
X224060D01*
X224032Y200518D01*
X225189D01*
X225160Y199418D01*
D02*
G37*
G36*
X221223D02*
X220123D01*
X220095Y200518D01*
X221252D01*
X221223Y199418D01*
D02*
G37*
G36*
X248671Y205822D02*
X248741Y205776D01*
X248840Y205278D01*
X249136Y204836D01*
X253336Y200635D01*
Y198398D01*
X253284Y198070D01*
X249867D01*
X249803Y198080D01*
X249719Y198102D01*
X249630Y198135D01*
X249533Y198179D01*
X249430Y198236D01*
X249321Y198308D01*
X249206Y198395D01*
X249144Y198447D01*
X247642Y199950D01*
Y200375D01*
X247645Y200497D01*
X247643Y200507D01*
X247645Y200518D01*
X247642Y200535D01*
Y204803D01*
X247644Y204811D01*
X247649Y204901D01*
X247658Y204952D01*
X247675Y205013D01*
X247703Y205086D01*
X247744Y205171D01*
X247800Y205266D01*
X247866Y205361D01*
X248027Y205557D01*
X248386Y205917D01*
X248671Y205822D01*
D02*
G37*
G36*
X423667Y200904D02*
X423370Y200797D01*
X423107Y200620D01*
X422880Y200374D01*
X422687Y200057D01*
X422530Y199671D01*
X422407Y199215D01*
X422320Y198690D01*
X422267Y198094D01*
X422250Y197429D01*
X418750D01*
X418733Y198094D01*
X418680Y198690D01*
X418593Y199215D01*
X418470Y199671D01*
X418313Y200057D01*
X418120Y200374D01*
X417893Y200620D01*
X417630Y200797D01*
X417333Y200904D01*
X417000Y200941D01*
X424000D01*
X423667Y200904D01*
D02*
G37*
G36*
X248548Y197901D02*
X248704Y197768D01*
X248859Y197651D01*
X249015Y197549D01*
X249170Y197462D01*
X249326Y197391D01*
X249481Y197335D01*
X249637Y197294D01*
X249792Y197269D01*
X249948Y197259D01*
X248504Y195615D01*
X248494Y195771D01*
X248469Y195926D01*
X248428Y196082D01*
X248372Y196237D01*
X248301Y196393D01*
X248214Y196548D01*
X248112Y196704D01*
X247995Y196860D01*
X247862Y197015D01*
X247714Y197171D01*
X248392Y198048D01*
X248548Y197901D01*
D02*
G37*
G36*
X221224Y195462D02*
X221277Y194615D01*
X221292Y194582D01*
X221308Y194571D01*
X219573Y194559D01*
X219678Y194572D01*
X219771Y194607D01*
X219854Y194664D01*
X219925Y194742D01*
X219986Y194843D01*
X220035Y194965D01*
X220074Y195109D01*
X220101Y195274D01*
X220118Y195462D01*
X220123Y195671D01*
X221223D01*
X221224Y195462D01*
D02*
G37*
G36*
X251484Y190128D02*
X251390Y190093D01*
X251308Y190036D01*
X251236Y189958D01*
X251176Y189857D01*
X251126Y189735D01*
X251088Y189591D01*
X251060Y189426D01*
X251044Y189238D01*
X251042Y189161D01*
X251044Y189083D01*
X251060Y188895D01*
X251088Y188730D01*
X251126Y188586D01*
X251176Y188464D01*
X251236Y188364D01*
X251308Y188285D01*
X251390Y188228D01*
X251484Y188193D01*
X251588Y188180D01*
X249388D01*
X249493Y188193D01*
X249586Y188228D01*
X249669Y188285D01*
X249740Y188364D01*
X249801Y188464D01*
X249850Y188586D01*
X249889Y188730D01*
X249916Y188895D01*
X249933Y189083D01*
X249935Y189161D01*
X249933Y189238D01*
X249916Y189426D01*
X249889Y189591D01*
X249850Y189735D01*
X249801Y189857D01*
X249740Y189958D01*
X249669Y190036D01*
X249586Y190093D01*
X249493Y190128D01*
X249388Y190141D01*
X251588D01*
X251484Y190128D01*
D02*
G37*
G36*
X324921Y186259D02*
X324955Y186169D01*
X325011Y186090D01*
X325088Y186021D01*
X325187Y185962D01*
X325307Y185915D01*
X325448Y185877D01*
X325611Y185851D01*
X325795Y185835D01*
X326000Y185830D01*
Y184730D01*
X325795Y184724D01*
X325611Y184708D01*
X325448Y184682D01*
X325307Y184645D01*
X325187Y184597D01*
X325088Y184539D01*
X325011Y184470D01*
X324955Y184390D01*
X324921Y184300D01*
X324907Y184199D01*
Y186360D01*
X324921Y186259D01*
D02*
G37*
G36*
X320625Y184180D02*
X320612Y184284D01*
X320577Y184378D01*
X320520Y184460D01*
X320441Y184532D01*
X320341Y184592D01*
X320219Y184642D01*
X320075Y184680D01*
X319909Y184708D01*
X319722Y184724D01*
X319513Y184730D01*
Y185830D01*
X319722Y185835D01*
X319909Y185852D01*
X320075Y185879D01*
X320219Y185918D01*
X320341Y185967D01*
X320441Y186028D01*
X320520Y186099D01*
X320577Y186182D01*
X320612Y186275D01*
X320625Y186380D01*
Y184180D01*
D02*
G37*
G36*
X546000Y223000D02*
Y188000D01*
X540000Y182000D01*
X508000D01*
X476328Y213672D01*
Y223328D01*
X481000Y228000D01*
X541000D01*
X546000Y223000D01*
D02*
G37*
G36*
X296878Y171330D02*
X296895Y171143D01*
X296922Y170977D01*
X296961Y170833D01*
X297010Y170711D01*
X297071Y170611D01*
X297142Y170532D01*
X297225Y170475D01*
X297318Y170440D01*
X297423Y170427D01*
X295223D01*
X295327Y170440D01*
X295421Y170475D01*
X295503Y170532D01*
X295575Y170611D01*
X295635Y170711D01*
X295685Y170833D01*
X295723Y170977D01*
X295751Y171143D01*
X295767Y171330D01*
X295773Y171539D01*
X296873D01*
X296878Y171330D01*
D02*
G37*
G36*
X358203Y170439D02*
X358215Y168979D01*
X358202Y169083D01*
X358167Y169177D01*
X358110Y169259D01*
X358031Y169331D01*
X357931Y169391D01*
X357809Y169441D01*
X357665Y169479D01*
X357499Y169507D01*
X357312Y169523D01*
X357103Y169529D01*
Y170629D01*
X358203Y170439D01*
D02*
G37*
G36*
X234131Y170226D02*
X234164Y170133D01*
X234219Y170050D01*
X234296Y169979D01*
X234395Y169918D01*
X234516Y169869D01*
X234659Y169830D01*
X234824Y169803D01*
X235011Y169786D01*
X235220Y169781D01*
Y168681D01*
X235011Y168675D01*
X234824Y168659D01*
X234659Y168631D01*
X234516Y168593D01*
X234395Y168543D01*
X234296Y168483D01*
X234219Y168411D01*
X234164Y168329D01*
X234131Y168235D01*
X234120Y168131D01*
Y170331D01*
X234131Y170226D01*
D02*
G37*
G36*
X373835Y163070D02*
X373809Y163298D01*
X373735Y163502D01*
X373613Y163682D01*
X373443Y163838D01*
X373226Y163970D01*
X372961Y164078D01*
X372648Y164162D01*
X372288Y164222D01*
X371879Y164258D01*
X371423Y164270D01*
Y164274D01*
X369797Y164282D01*
Y166699D01*
X369821Y166693D01*
X369893Y166689D01*
X370973Y166673D01*
X371481Y166672D01*
X371879Y166682D01*
X372288Y166718D01*
X372648Y166778D01*
X372961Y166862D01*
X373226Y166970D01*
X373443Y167102D01*
X373613Y167258D01*
X373735Y167438D01*
X373809Y167642D01*
X373835Y167870D01*
Y163070D01*
D02*
G37*
G36*
X402652Y169502D02*
X402182Y169007D01*
X401761Y168512D01*
X401390Y168017D01*
X401068Y167522D01*
X400796Y167027D01*
X400573Y166532D01*
X400400Y166037D01*
X400276Y165542D01*
X400202Y165048D01*
X400177Y164552D01*
X393849Y168124D01*
X394357Y168161D01*
X394889Y168273D01*
X395446Y168458D01*
X396027Y168718D01*
X396634Y169052D01*
X397265Y169461D01*
X397920Y169943D01*
X399306Y171131D01*
X400036Y171837D01*
X402652Y169502D01*
D02*
G37*
G36*
X334157Y161848D02*
X334063Y161813D01*
X333981Y161756D01*
X333909Y161677D01*
X333849Y161577D01*
X333799Y161455D01*
X333761Y161311D01*
X333733Y161146D01*
X333717Y160958D01*
X333711Y160749D01*
X332611D01*
X332606Y160958D01*
X332589Y161146D01*
X332562Y161311D01*
X332523Y161455D01*
X332474Y161577D01*
X332413Y161677D01*
X332342Y161756D01*
X332259Y161813D01*
X332166Y161848D01*
X332061Y161861D01*
X334261D01*
X334157Y161848D01*
D02*
G37*
G36*
X398498Y161824D02*
X398201Y161717D01*
X397938Y161540D01*
X397711Y161293D01*
X397518Y160977D01*
X397361Y160591D01*
X397238Y160135D01*
X397151Y159610D01*
X397098Y159014D01*
X397081Y158349D01*
X393581D01*
X393563Y159014D01*
X393511Y159610D01*
X393423Y160135D01*
X393301Y160591D01*
X393143Y160977D01*
X392951Y161293D01*
X392723Y161540D01*
X392461Y161717D01*
X392163Y161824D01*
X391831Y161861D01*
X398831D01*
X398498Y161824D01*
D02*
G37*
G36*
X182972Y139742D02*
X183008Y139494D01*
X183068Y139266D01*
X183153Y139056D01*
X183262Y138866D01*
X183395Y138695D01*
X183552Y138543D01*
X183733Y138411D01*
X183939Y138298D01*
X184168Y138204D01*
X180650D01*
X180880Y138298D01*
X181086Y138411D01*
X181267Y138543D01*
X181424Y138695D01*
X181557Y138866D01*
X181666Y139056D01*
X181751Y139266D01*
X181811Y139494D01*
X181847Y139742D01*
X181859Y140009D01*
X182959D01*
X182972Y139742D01*
D02*
G37*
G36*
X172152Y137198D02*
X172185Y137118D01*
X172237Y137048D01*
X172310Y136987D01*
X172403Y136936D01*
X172516Y136894D01*
X172649Y136861D01*
X172802Y136838D01*
X172976Y136824D01*
X173169Y136819D01*
Y135719D01*
X172976Y135714D01*
X172802Y135700D01*
X172649Y135677D01*
X172516Y135644D01*
X172403Y135602D01*
X172310Y135551D01*
X172237Y135490D01*
X172185Y135420D01*
X172152Y135340D01*
X172140Y135251D01*
Y137287D01*
X172152Y137198D01*
D02*
G37*
G36*
X416587Y121600D02*
X416561Y121828D01*
X416487Y122032D01*
X416365Y122212D01*
X416195Y122368D01*
X415978Y122500D01*
X415713Y122608D01*
X415400Y122692D01*
X415039Y122752D01*
X414631Y122788D01*
X414175Y122800D01*
Y125200D01*
X414631Y125212D01*
X415039Y125248D01*
X415400Y125308D01*
X415713Y125392D01*
X415978Y125500D01*
X416195Y125632D01*
X416365Y125788D01*
X416487Y125968D01*
X416561Y126172D01*
X416587Y126400D01*
Y121600D01*
D02*
G37*
G36*
X548000Y134000D02*
X548000Y108000D01*
X542000Y102000D01*
X480000D01*
X476328Y105672D01*
Y115328D01*
X501000Y140000D01*
X542000D01*
X548000Y134000D01*
D02*
G37*
%LPC*%
G36*
X122727Y486382D02*
X121273D01*
X119847Y486098D01*
X118503Y485542D01*
X117294Y484734D01*
X116266Y483706D01*
X115458Y482497D01*
X114902Y481153D01*
X114618Y479727D01*
Y478273D01*
X114902Y476847D01*
X115458Y475503D01*
X116266Y474294D01*
X117294Y473266D01*
X118503Y472458D01*
X119847Y471902D01*
X121273Y471618D01*
X122727D01*
X124153Y471902D01*
X125497Y472458D01*
X126706Y473266D01*
X127734Y474294D01*
X128542Y475503D01*
X129098Y476847D01*
X129382Y478273D01*
Y479727D01*
X129098Y481153D01*
X128542Y482497D01*
X127734Y483706D01*
X126706Y484734D01*
X125497Y485542D01*
X124153Y486098D01*
X122727Y486382D01*
D02*
G37*
G36*
X174500Y474097D02*
Y468587D01*
X180011D01*
X179828Y469506D01*
X179332Y470704D01*
X178612Y471782D01*
X177695Y472698D01*
X176617Y473418D01*
X175419Y473914D01*
X174500Y474097D01*
D02*
G37*
G36*
X172500D02*
X171581Y473914D01*
X170383Y473418D01*
X169305Y472698D01*
X168388Y471782D01*
X167668Y470704D01*
X167172Y469506D01*
X166989Y468587D01*
X172500D01*
Y474097D01*
D02*
G37*
G36*
X180011Y466587D02*
X174500D01*
Y461076D01*
X175419Y461259D01*
X176617Y461755D01*
X177695Y462475D01*
X178612Y463392D01*
X179332Y464469D01*
X179828Y465667D01*
X180011Y466587D01*
D02*
G37*
G36*
X172500D02*
X166989D01*
X167172Y465667D01*
X167668Y464469D01*
X168388Y463392D01*
X169305Y462475D01*
X170383Y461755D01*
X171581Y461259D01*
X172500Y461076D01*
Y466587D01*
D02*
G37*
G36*
X193928Y458650D02*
X192757D01*
X191625Y458346D01*
X190611Y457761D01*
X189783Y456932D01*
X189197Y455918D01*
X188894Y454786D01*
Y453615D01*
X189197Y452484D01*
X189783Y451469D01*
X190611Y450641D01*
X191625Y450055D01*
X192757Y449752D01*
X193928D01*
X195060Y450055D01*
X196074Y450641D01*
X196903Y451469D01*
X197488Y452484D01*
X197791Y453615D01*
Y454786D01*
X197488Y455918D01*
X196903Y456932D01*
X196074Y457761D01*
X195060Y458346D01*
X193928Y458650D01*
D02*
G37*
G36*
X146608Y435315D02*
X145478D01*
X144387Y435022D01*
X143408Y434457D01*
X142609Y433659D01*
X142044Y432680D01*
X141752Y431589D01*
Y430459D01*
X142044Y429367D01*
X142609Y428389D01*
X143408Y427590D01*
X144387Y427025D01*
X145478Y426732D01*
X146608D01*
X147700Y427025D01*
X148678Y427590D01*
X149477Y428389D01*
X150042Y429367D01*
X150335Y430459D01*
Y431589D01*
X150042Y432680D01*
X149477Y433659D01*
X148678Y434457D01*
X147700Y435022D01*
X146608Y435315D01*
D02*
G37*
G36*
X138789Y432903D02*
X126525D01*
Y420640D01*
X138789D01*
Y432903D01*
D02*
G37*
G36*
X184472Y422083D02*
X182209D01*
Y418539D01*
X184472D01*
Y422083D01*
D02*
G37*
G36*
X180209D02*
X177945D01*
Y418539D01*
X180209D01*
Y422083D01*
D02*
G37*
G36*
X226020Y422083D02*
X224012D01*
Y418500D01*
X226020D01*
Y422083D01*
D02*
G37*
G36*
X222012D02*
X220004D01*
Y418500D01*
X222012D01*
Y422083D01*
D02*
G37*
G36*
X184472Y416539D02*
X182209D01*
Y412996D01*
X184472D01*
Y416539D01*
D02*
G37*
G36*
X180209D02*
X177945D01*
Y412996D01*
X180209D01*
Y416539D01*
D02*
G37*
G36*
X226020Y416500D02*
X224012D01*
Y412917D01*
X226020D01*
Y416500D01*
D02*
G37*
G36*
X222012D02*
X220004D01*
Y412917D01*
X222012D01*
Y416500D01*
D02*
G37*
G36*
X133657Y417451D02*
Y412181D01*
X138927D01*
X138758Y413032D01*
X138280Y414186D01*
X137585Y415225D01*
X136702Y416109D01*
X135663Y416803D01*
X134508Y417282D01*
X133657Y417451D01*
D02*
G37*
G36*
X131657D02*
X130807Y417282D01*
X129652Y416803D01*
X128613Y416109D01*
X127729Y415225D01*
X127035Y414186D01*
X126557Y413032D01*
X126388Y412181D01*
X131657D01*
Y417451D01*
D02*
G37*
G36*
X216779Y409179D02*
X215500D01*
Y406177D01*
X216779D01*
Y409179D01*
D02*
G37*
G36*
X213500D02*
X212221D01*
Y406177D01*
X213500D01*
Y409179D01*
D02*
G37*
G36*
X138927Y410181D02*
X133657D01*
Y404911D01*
X134508Y405080D01*
X135663Y405559D01*
X136702Y406253D01*
X137585Y407137D01*
X138280Y408176D01*
X138758Y409330D01*
X138927Y410181D01*
D02*
G37*
G36*
X131657D02*
X126388D01*
X126557Y409330D01*
X127035Y408176D01*
X127729Y407137D01*
X128613Y406253D01*
X129652Y405559D01*
X130807Y405080D01*
X131657Y404911D01*
Y410181D01*
D02*
G37*
G36*
X214784Y421870D02*
X209193D01*
Y413130D01*
X210207D01*
X210351Y412780D01*
X208536Y410964D01*
X208240Y410522D01*
X208136Y410000D01*
Y409033D01*
X208131Y408972D01*
X208130Y408967D01*
X207433D01*
Y401388D01*
X211567D01*
Y408967D01*
X210870D01*
X210869Y408972D01*
X210864Y409033D01*
Y409435D01*
X212952Y411524D01*
X213248Y411966D01*
X213352Y412488D01*
Y413063D01*
X213357Y413125D01*
X213358Y413130D01*
X214784D01*
Y421870D01*
D02*
G37*
G36*
X216779Y404177D02*
X215500D01*
Y401175D01*
X216779D01*
Y404177D01*
D02*
G37*
G36*
X213500D02*
X212221D01*
Y401175D01*
X213500D01*
Y404177D01*
D02*
G37*
G36*
X249953Y403252D02*
X247000D01*
Y400791D01*
X249953D01*
Y403252D01*
D02*
G37*
G36*
X245000D02*
X242047D01*
Y400791D01*
X245000D01*
Y403252D01*
D02*
G37*
G36*
X189718Y473955D02*
X188463D01*
X187233Y473710D01*
X186074Y473230D01*
X185031Y472533D01*
X184144Y471646D01*
X183447Y470603D01*
X182967Y469444D01*
X182722Y468214D01*
Y466959D01*
X182967Y465729D01*
X183447Y464570D01*
X184144Y463527D01*
X185031Y462640D01*
X186074Y461943D01*
X187233Y461463D01*
X188463Y461219D01*
X189718D01*
X190948Y461463D01*
X192107Y461943D01*
X193150Y462640D01*
X194037Y463527D01*
X194734Y464570D01*
X194912Y464999D01*
X200942D01*
X207413Y458528D01*
Y446172D01*
X188265Y427024D01*
X187704Y426185D01*
X187507Y425194D01*
Y422859D01*
X187467Y422007D01*
X187453Y421870D01*
X187240D01*
Y421088D01*
X187237Y421071D01*
X187240Y421054D01*
Y413209D01*
X187507D01*
Y407807D01*
X183630D01*
Y403033D01*
X183626Y403016D01*
X183630Y402999D01*
Y402570D01*
X178014Y396954D01*
X177544D01*
X177437Y397260D01*
X177437Y397304D01*
Y404740D01*
X174870D01*
X174869Y404745D01*
X174864Y404807D01*
Y417539D01*
X174760Y418061D01*
X174464Y418504D01*
X174022Y418799D01*
X173500Y418903D01*
X172910D01*
X172849Y418908D01*
X172843Y418909D01*
Y421870D01*
X166740D01*
Y413209D01*
X172136D01*
Y404807D01*
X172131Y404745D01*
X172130Y404740D01*
X169563D01*
Y397304D01*
X169563Y397260D01*
X169456Y396954D01*
X138638D01*
X138554Y397379D01*
X138091Y398495D01*
X137420Y399499D01*
X136566Y400353D01*
X135562Y401024D01*
X134446Y401487D01*
X133261Y401722D01*
X132053D01*
X130869Y401487D01*
X129753Y401024D01*
X128749Y400353D01*
X127894Y399499D01*
X127223Y398495D01*
X126761Y397379D01*
X126525Y396194D01*
Y394987D01*
X126761Y393802D01*
X127223Y392686D01*
X127894Y391682D01*
X128749Y390827D01*
X129753Y390156D01*
X130869Y389694D01*
X132053Y389458D01*
X133261D01*
X134446Y389694D01*
X135562Y390156D01*
X136566Y390827D01*
X137420Y391682D01*
X138091Y392686D01*
X138554Y393802D01*
X138638Y394227D01*
X178579D01*
X179100Y394331D01*
X179543Y394626D01*
X186102Y401186D01*
X186398Y401628D01*
X186452Y401903D01*
X186567Y402216D01*
X191553D01*
X191571Y402213D01*
X191588Y402216D01*
X192370D01*
Y402409D01*
X193936Y402507D01*
X194707D01*
X197433Y401606D01*
Y401388D01*
X198215D01*
X198232Y401384D01*
X198250Y401388D01*
X198281D01*
X198291Y401387D01*
X198296Y401388D01*
X201567D01*
Y403745D01*
X201807Y404105D01*
X202004Y405094D01*
X201807Y406084D01*
X201567Y406445D01*
Y407447D01*
X201890Y407581D01*
X202054Y407417D01*
X202107Y407355D01*
X202193Y407240D01*
X202263Y407132D01*
X202319Y407031D01*
X202362Y406936D01*
X202393Y406848D01*
X202413Y406765D01*
X202425Y406687D01*
X202431Y406571D01*
X202433Y406562D01*
Y401388D01*
X206567D01*
Y408967D01*
X204838D01*
X204828Y408969D01*
X204712Y408975D01*
X204634Y408987D01*
X204552Y409007D01*
X204464Y409038D01*
X204369Y409081D01*
X204267Y409136D01*
X204159Y409207D01*
X204045Y409293D01*
X203982Y409346D01*
X203269Y410059D01*
Y413142D01*
X203275Y413203D01*
X203275Y413209D01*
X204760D01*
Y419465D01*
X204762Y419475D01*
X204768Y419591D01*
X204780Y419669D01*
X204801Y419751D01*
X204831Y419839D01*
X204874Y419934D01*
X204930Y420036D01*
X205000Y420144D01*
X205086Y420258D01*
X205139Y420321D01*
X209755Y424936D01*
X231889D01*
X234736Y422088D01*
Y407464D01*
X230689Y403417D01*
X230627Y403364D01*
X230512Y403277D01*
X230403Y403205D01*
X230300Y403148D01*
X230204Y403104D01*
X230114Y403072D01*
X230030Y403050D01*
X229966Y403039D01*
X224760D01*
Y396543D01*
X232240D01*
Y400766D01*
X232250Y400829D01*
X232272Y400913D01*
X232305Y401003D01*
X232349Y401099D01*
X232406Y401202D01*
X232478Y401311D01*
X232565Y401427D01*
X232617Y401488D01*
X237064Y405935D01*
X237360Y406377D01*
X237464Y406899D01*
Y422653D01*
X237360Y423175D01*
X237064Y423618D01*
X233418Y427264D01*
X232975Y427560D01*
X232453Y427664D01*
X209190D01*
X208668Y427560D01*
X208226Y427264D01*
X203210Y422249D01*
X203148Y422196D01*
X203034Y422110D01*
X202925Y422040D01*
X202824Y421984D01*
X202729Y421942D01*
X202641Y421911D01*
X202559Y421890D01*
X202481Y421878D01*
X202365Y421873D01*
X202355Y421870D01*
X199051D01*
Y413209D01*
X200536D01*
X200537Y413203D01*
X200542Y413142D01*
Y409494D01*
X200577Y409317D01*
X200290Y408967D01*
X198271D01*
X198258Y408970D01*
X198245Y408967D01*
X198232Y408970D01*
X198215Y408967D01*
X197433D01*
Y408723D01*
X194677Y407682D01*
X192930D01*
X192682Y407689D01*
Y413209D01*
X192949D01*
Y421054D01*
X192952Y421071D01*
X192949Y421088D01*
Y421870D01*
X192770D01*
X192682Y423391D01*
Y424123D01*
X211829Y443271D01*
X212390Y444110D01*
X212587Y445100D01*
Y459600D01*
X212390Y460590D01*
X211829Y461429D01*
X203843Y469416D01*
X203003Y469977D01*
X202013Y470174D01*
X194912D01*
X194734Y470603D01*
X194037Y471646D01*
X193150Y472533D01*
X192107Y473230D01*
X190948Y473710D01*
X189718Y473955D01*
D02*
G37*
G36*
X249953Y398791D02*
X247000D01*
Y396331D01*
X249953D01*
Y398791D01*
D02*
G37*
G36*
X245000D02*
X242047D01*
Y396331D01*
X245000D01*
Y398791D01*
D02*
G37*
G36*
X214102Y400224D02*
X208000D01*
Y395500D01*
X214102D01*
Y400224D01*
D02*
G37*
G36*
X206000D02*
X199898D01*
Y395500D01*
X206000D01*
Y400224D01*
D02*
G37*
G36*
X192583Y396996D02*
X189000D01*
Y394988D01*
X192583D01*
Y396996D01*
D02*
G37*
G36*
X187000D02*
X183417D01*
Y394988D01*
X187000D01*
Y396996D01*
D02*
G37*
G36*
X192583Y392988D02*
X189000D01*
Y390980D01*
X192583D01*
Y392988D01*
D02*
G37*
G36*
X187000D02*
X183417D01*
Y390980D01*
X187000D01*
Y392988D01*
D02*
G37*
G36*
X214102Y393500D02*
X208000D01*
Y388776D01*
X214102D01*
Y393500D01*
D02*
G37*
G36*
X206000D02*
X199898D01*
Y388776D01*
X206000D01*
Y393500D01*
D02*
G37*
G36*
X249740Y389457D02*
X242260D01*
Y387579D01*
X242255Y387578D01*
X242193Y387572D01*
X232307D01*
X232245Y387578D01*
X232240Y387579D01*
Y389457D01*
X224760D01*
Y385193D01*
X224755Y385192D01*
X224693Y385186D01*
X216634D01*
X216572Y385192D01*
X216567Y385193D01*
Y387612D01*
X212433D01*
Y380033D01*
X216567D01*
Y382453D01*
X216572Y382454D01*
X216634Y382459D01*
X225622D01*
X226144Y382563D01*
X226586Y382859D01*
X226688Y382961D01*
X232240D01*
Y384839D01*
X232245Y384840D01*
X232307Y384845D01*
X242193D01*
X242255Y384840D01*
X242260Y384839D01*
Y382961D01*
X249740D01*
Y389457D01*
D02*
G37*
G36*
X133261Y386132D02*
X132053D01*
X130869Y385896D01*
X129753Y385434D01*
X128749Y384763D01*
X127894Y383909D01*
X127223Y382905D01*
X126761Y381789D01*
X126525Y380604D01*
Y379396D01*
X126761Y378211D01*
X127223Y377096D01*
X127894Y376091D01*
X128749Y375237D01*
X129753Y374566D01*
X130869Y374104D01*
X132053Y373868D01*
X133261D01*
X134446Y374104D01*
X135562Y374566D01*
X136566Y375237D01*
X137420Y376091D01*
X138091Y377096D01*
X138554Y378211D01*
X138789Y379396D01*
Y380604D01*
X138554Y381789D01*
X138091Y382905D01*
X137420Y383909D01*
X136566Y384763D01*
X135562Y385434D01*
X134446Y385896D01*
X133261Y386132D01*
D02*
G37*
G36*
X229752Y371953D02*
X227291D01*
Y369000D01*
X229752D01*
Y371953D01*
D02*
G37*
G36*
X188260Y372150D02*
X186193D01*
Y369000D01*
X188260D01*
Y372150D01*
D02*
G37*
G36*
X184193D02*
X182126D01*
Y369000D01*
X184193D01*
Y372150D01*
D02*
G37*
G36*
X225291Y371953D02*
X222831D01*
Y369000D01*
X225291D01*
Y371953D01*
D02*
G37*
G36*
X211567Y387612D02*
X207433D01*
Y380033D01*
X208130D01*
X208131Y380028D01*
X208136Y379966D01*
Y377509D01*
X208240Y376987D01*
X208536Y376544D01*
X211345Y373735D01*
Y371807D01*
X211340Y371745D01*
X211339Y371740D01*
X209461D01*
Y364260D01*
X215957D01*
Y371740D01*
X214078D01*
X214078Y371745D01*
X214072Y371807D01*
Y374300D01*
X213968Y374822D01*
X213673Y375264D01*
X210864Y378073D01*
Y379967D01*
X210869Y380028D01*
X210870Y380033D01*
X211567D01*
Y387612D01*
D02*
G37*
G36*
X229752Y367000D02*
X227291D01*
Y364047D01*
X229752D01*
Y367000D01*
D02*
G37*
G36*
X225291D02*
X222831D01*
Y364047D01*
X225291D01*
Y367000D01*
D02*
G37*
G36*
X188260D02*
X186193D01*
Y363850D01*
X188260D01*
Y367000D01*
D02*
G37*
G36*
X184193D02*
X182126D01*
Y363850D01*
X184193D01*
Y367000D01*
D02*
G37*
G36*
X286272Y337378D02*
X283417D01*
Y336000D01*
X286272D01*
Y337378D01*
D02*
G37*
G36*
X177437Y390961D02*
X169563D01*
Y383480D01*
X177437D01*
Y385851D01*
X177442Y385851D01*
X177504Y385857D01*
X195538D01*
X196810Y384584D01*
X196992Y384221D01*
X196913Y383823D01*
Y372847D01*
X196003Y371937D01*
X193953D01*
Y369886D01*
X193953Y369886D01*
X193953Y369886D01*
Y369862D01*
X193950Y369852D01*
X193928Y369397D01*
X193865Y368980D01*
X193759Y368558D01*
X193610Y368130D01*
X193414Y367696D01*
X193172Y367255D01*
X192881Y366807D01*
X192541Y366354D01*
X192291Y366060D01*
X185171Y358940D01*
X184610Y358100D01*
X184413Y357110D01*
Y336567D01*
X182465D01*
Y335864D01*
X179765D01*
X177518Y338111D01*
X177663Y338461D01*
X179791D01*
Y344248D01*
X171209D01*
Y338461D01*
X174202D01*
X174436Y337992D01*
Y337900D01*
X174540Y337378D01*
X174836Y336936D01*
X177696Y334075D01*
X177562Y333752D01*
X176500D01*
Y331646D01*
X180004D01*
Y333136D01*
X182465D01*
Y332433D01*
X184091D01*
X184315Y332083D01*
X184282Y332002D01*
X184165Y331809D01*
X184055Y331690D01*
X183953Y331622D01*
X183838Y331580D01*
X183721Y331567D01*
X182465D01*
Y327433D01*
X185715D01*
X185897Y327312D01*
X185986Y326836D01*
X185946Y326780D01*
X182252D01*
Y325500D01*
X192126D01*
Y326780D01*
X188432D01*
X188392Y326836D01*
X188481Y327312D01*
X188663Y327433D01*
X191913D01*
Y331567D01*
X190657D01*
X190540Y331580D01*
X190425Y331622D01*
X190323Y331690D01*
X190213Y331809D01*
X190096Y332002D01*
X190063Y332083D01*
X190287Y332433D01*
X191913D01*
Y334639D01*
X197511Y340236D01*
X207952D01*
X208274Y339914D01*
X209004Y339612D01*
X209795D01*
X210526Y339914D01*
X211086Y340474D01*
X211388Y341205D01*
Y341996D01*
X211086Y342726D01*
X210526Y343285D01*
X209795Y343588D01*
X209004D01*
X208274Y343285D01*
X207952Y342964D01*
X196947D01*
X196425Y342860D01*
X195982Y342564D01*
X189985Y336567D01*
X189587D01*
Y356039D01*
X196011Y362463D01*
X196662Y363021D01*
X197055Y363311D01*
X197430Y363555D01*
X197779Y363748D01*
X198098Y363891D01*
X198385Y363987D01*
X198639Y364041D01*
X198921Y364062D01*
X198925Y364063D01*
X199661D01*
Y364788D01*
X199661Y364788D01*
X199661Y364788D01*
Y364911D01*
X199663Y364921D01*
X199661Y364926D01*
Y368278D01*
X201329Y369946D01*
X201890Y370786D01*
X202087Y371776D01*
Y380024D01*
X202433Y380033D01*
X202437Y380033D01*
X206567D01*
Y387612D01*
X202433D01*
Y383833D01*
X202087Y383823D01*
X201890Y384813D01*
X201567Y385297D01*
Y387612D01*
X197639D01*
X197067Y388185D01*
X196624Y388480D01*
X196102Y388584D01*
X177504D01*
X177442Y388589D01*
X177437Y388590D01*
Y390961D01*
D02*
G37*
G36*
X146472Y343701D02*
X145300D01*
X144169Y343398D01*
X143154Y342812D01*
X142326Y341984D01*
X141740Y340969D01*
X141437Y339838D01*
Y338666D01*
X141740Y337535D01*
X142326Y336520D01*
X143154Y335692D01*
X144169Y335106D01*
X145300Y334803D01*
X146472D01*
X147603Y335106D01*
X148617Y335692D01*
X149446Y336520D01*
X150031Y337535D01*
X150335Y338666D01*
Y339838D01*
X150031Y340969D01*
X149446Y341984D01*
X148617Y342812D01*
X147603Y343398D01*
X146472Y343701D01*
D02*
G37*
G36*
X286272Y334000D02*
X283417D01*
Y332622D01*
X286272D01*
Y334000D01*
D02*
G37*
G36*
X174500Y333752D02*
X170996D01*
Y331646D01*
X174500D01*
Y333752D01*
D02*
G37*
G36*
X180004Y329646D02*
X176500D01*
Y327539D01*
X180004D01*
Y329646D01*
D02*
G37*
G36*
X174500D02*
X170996D01*
Y327539D01*
X174500D01*
Y329646D01*
D02*
G37*
G36*
X215748Y331799D02*
X211811D01*
Y325500D01*
X215748D01*
Y331799D01*
D02*
G37*
G36*
X209811D02*
X205874D01*
Y325500D01*
X209811D01*
Y331799D01*
D02*
G37*
G36*
X215748Y323500D02*
X211811D01*
Y317201D01*
X215748D01*
Y323500D01*
D02*
G37*
G36*
X209811D02*
X205874D01*
Y317201D01*
X209811D01*
Y323500D01*
D02*
G37*
G36*
X174500Y317354D02*
X170996D01*
Y315248D01*
X174500D01*
Y317354D01*
D02*
G37*
G36*
X133127Y325778D02*
X131873D01*
X130642Y325533D01*
X129484Y325053D01*
X128441Y324356D01*
X127554Y323469D01*
X126857Y322426D01*
X126377Y321267D01*
X126132Y320037D01*
Y318782D01*
X126377Y317552D01*
X126857Y316393D01*
X127554Y315350D01*
X128441Y314463D01*
X129484Y313766D01*
X130642Y313286D01*
X131873Y313041D01*
X133127D01*
X134358Y313286D01*
X135516Y313766D01*
X136559Y314463D01*
X137446Y315350D01*
X138143Y316393D01*
X138623Y317552D01*
X138868Y318782D01*
Y320037D01*
X138623Y321267D01*
X138143Y322426D01*
X137446Y323469D01*
X136559Y324356D01*
X135516Y325053D01*
X134358Y325533D01*
X133127Y325778D01*
D02*
G37*
G36*
X213906Y300543D02*
Y297000D01*
X215972D01*
Y300543D01*
X213906D01*
D02*
G37*
G36*
X215972Y295000D02*
X213906D01*
Y291457D01*
X215972D01*
Y295000D01*
D02*
G37*
G36*
X146472Y283701D02*
X145300D01*
X144169Y283398D01*
X143154Y282812D01*
X142326Y281984D01*
X141740Y280969D01*
X141437Y279838D01*
Y278666D01*
X141740Y277535D01*
X142326Y276520D01*
X143154Y275692D01*
X144169Y275106D01*
X145300Y274803D01*
X146472D01*
X147603Y275106D01*
X148617Y275692D01*
X149446Y276520D01*
X150031Y277535D01*
X150335Y278666D01*
Y279838D01*
X150031Y280969D01*
X149446Y281984D01*
X148617Y282812D01*
X147603Y283398D01*
X146472Y283701D01*
D02*
G37*
G36*
X133127Y281368D02*
X131873D01*
X130642Y281123D01*
X129484Y280643D01*
X128441Y279946D01*
X127554Y279059D01*
X126857Y278016D01*
X126377Y276857D01*
X126132Y275627D01*
Y274373D01*
X126377Y273143D01*
X126857Y271984D01*
X127554Y270941D01*
X128441Y270054D01*
X129484Y269357D01*
X130642Y268877D01*
X131873Y268632D01*
X133127D01*
X134358Y268877D01*
X135516Y269357D01*
X136559Y270054D01*
X137446Y270941D01*
X138143Y271984D01*
X138623Y273143D01*
X138868Y274373D01*
Y275627D01*
X138623Y276857D01*
X138143Y278016D01*
X137446Y279059D01*
X136559Y279946D01*
X135516Y280643D01*
X134358Y281123D01*
X133127Y281368D01*
D02*
G37*
G36*
X249096Y271988D02*
X248305D01*
X247574Y271686D01*
X247014Y271126D01*
X246712Y270395D01*
Y269604D01*
X247014Y268874D01*
X247336Y268552D01*
Y265807D01*
X247331Y265745D01*
X247330Y265740D01*
X245543D01*
Y258260D01*
X252039D01*
Y265740D01*
X250070D01*
X250069Y265745D01*
X250064Y265807D01*
Y268552D01*
X250385Y268874D01*
X250688Y269604D01*
Y270395D01*
X250385Y271126D01*
X249826Y271686D01*
X249096Y271988D01*
D02*
G37*
G36*
X267583Y258020D02*
X264000D01*
Y256012D01*
X267583D01*
Y258020D01*
D02*
G37*
G36*
X262000D02*
X258417D01*
Y256012D01*
X262000D01*
Y258020D01*
D02*
G37*
G36*
X267583Y254012D02*
X264000D01*
Y252004D01*
X267583D01*
Y254012D01*
D02*
G37*
G36*
X262000D02*
X258417D01*
Y252004D01*
X262000D01*
Y254012D01*
D02*
G37*
G36*
X190996Y231583D02*
X188988D01*
Y228000D01*
X190996D01*
Y231583D01*
D02*
G37*
G36*
X186988D02*
X184980D01*
Y228000D01*
X186988D01*
Y231583D01*
D02*
G37*
G36*
X345857Y226240D02*
X339361D01*
Y224318D01*
X338892Y224084D01*
X334053D01*
X333992Y224089D01*
X333986Y224090D01*
Y224787D01*
X328081D01*
Y220654D01*
X333986D01*
Y221351D01*
X333992Y221351D01*
X334053Y221357D01*
X338892D01*
X339361Y221123D01*
Y218760D01*
X345857D01*
Y226240D01*
D02*
G37*
G36*
X375250Y226437D02*
X367770D01*
Y223870D01*
X367765Y223869D01*
X367703Y223864D01*
X359506D01*
X359445Y223869D01*
X359439Y223870D01*
Y226240D01*
X352943D01*
Y218760D01*
X359439D01*
Y221130D01*
X359445Y221131D01*
X359506Y221136D01*
X367703D01*
X367765Y221131D01*
X367770Y221130D01*
Y218563D01*
X375250D01*
Y226437D01*
D02*
G37*
G36*
X190996Y226000D02*
X188988D01*
Y222417D01*
X190996D01*
Y226000D01*
D02*
G37*
G36*
X186988D02*
X184980D01*
Y222417D01*
X186988D01*
Y226000D01*
D02*
G37*
G36*
X178858Y222646D02*
X176594D01*
Y220579D01*
X178858D01*
Y222646D01*
D02*
G37*
G36*
X174594D02*
X172331D01*
Y220579D01*
X174594D01*
Y222646D01*
D02*
G37*
G36*
X165669D02*
X163406D01*
Y220579D01*
X165669D01*
Y222646D01*
D02*
G37*
G36*
X161406D02*
X159142D01*
Y220579D01*
X161406D01*
Y222646D01*
D02*
G37*
G36*
X325932Y221220D02*
X323766D01*
Y219941D01*
X325932D01*
Y221220D01*
D02*
G37*
G36*
X321766D02*
X319601D01*
Y219941D01*
X321766D01*
Y221220D01*
D02*
G37*
G36*
X325932Y217941D02*
X323766D01*
Y216662D01*
X325932D01*
Y217941D01*
D02*
G37*
G36*
X321766D02*
X319601D01*
Y216662D01*
X321766D01*
Y217941D01*
D02*
G37*
G36*
X146608Y220543D02*
X145478D01*
X144387Y220251D01*
X143408Y219686D01*
X142609Y218887D01*
X142044Y217908D01*
X141752Y216817D01*
Y215687D01*
X142044Y214596D01*
X142609Y213617D01*
X143408Y212818D01*
X144387Y212253D01*
X145478Y211961D01*
X146608D01*
X147700Y212253D01*
X148678Y212818D01*
X149477Y213617D01*
X150042Y214596D01*
X150335Y215687D01*
Y216817D01*
X150042Y217908D01*
X149477Y218887D01*
X148678Y219686D01*
X147700Y220251D01*
X146608Y220543D01*
D02*
G37*
G36*
X192504Y209252D02*
X189000D01*
Y207146D01*
X192504D01*
Y209252D01*
D02*
G37*
G36*
X187000D02*
X183496D01*
Y207146D01*
X187000D01*
Y209252D01*
D02*
G37*
G36*
X202083Y208996D02*
X198500D01*
Y206988D01*
X202083D01*
Y208996D01*
D02*
G37*
G36*
X196500D02*
X192917D01*
Y206988D01*
X196500D01*
Y208996D01*
D02*
G37*
G36*
X138789Y218132D02*
X126525D01*
Y205868D01*
X138789D01*
Y218132D01*
D02*
G37*
G36*
X345857Y205740D02*
X339361D01*
Y203708D01*
X338892Y203474D01*
X334053D01*
X333992Y203479D01*
X333986Y203480D01*
Y204177D01*
X328081D01*
Y200043D01*
X333986D01*
Y200740D01*
X333992Y200741D01*
X334053Y200747D01*
X338892D01*
X339361Y200512D01*
Y198260D01*
X345857D01*
Y205740D01*
D02*
G37*
G36*
X375250Y205937D02*
X367770D01*
Y203370D01*
X367765Y203369D01*
X367703Y203364D01*
X359506D01*
X359445Y203369D01*
X359439Y203370D01*
Y205740D01*
X352943D01*
Y198260D01*
X359439D01*
Y200630D01*
X359445Y200631D01*
X359506Y200636D01*
X367703D01*
X367765Y200631D01*
X367770Y200630D01*
Y198063D01*
X375250D01*
Y205937D01*
D02*
G37*
G36*
X192504Y205146D02*
X189000D01*
Y203039D01*
X192504D01*
Y205146D01*
D02*
G37*
G36*
X187000D02*
X183496D01*
Y203039D01*
X187000D01*
Y205146D01*
D02*
G37*
G36*
X202083Y204988D02*
X198500D01*
Y202980D01*
X202083D01*
Y204988D01*
D02*
G37*
G36*
X196500D02*
X192917D01*
Y202980D01*
X196500D01*
Y204988D01*
D02*
G37*
G36*
X325932Y200610D02*
X323766D01*
Y199331D01*
X325932D01*
Y200610D01*
D02*
G37*
G36*
X321766D02*
X319601D01*
Y199331D01*
X321766D01*
Y200610D01*
D02*
G37*
G36*
X325932Y197331D02*
X323766D01*
Y196051D01*
X325932D01*
Y197331D01*
D02*
G37*
G36*
X321766D02*
X319601D01*
Y196051D01*
X321766D01*
Y197331D01*
D02*
G37*
G36*
X264520Y198283D02*
X262512D01*
Y194700D01*
X264520D01*
Y198283D01*
D02*
G37*
G36*
X260512D02*
X258504D01*
Y194700D01*
X260512D01*
Y198283D01*
D02*
G37*
G36*
X211296Y195583D02*
X209288D01*
Y192000D01*
X211296D01*
Y195583D01*
D02*
G37*
G36*
X207288D02*
X205280D01*
Y192000D01*
X207288D01*
Y195583D01*
D02*
G37*
G36*
X133261Y202541D02*
X132053D01*
X130869Y202306D01*
X129753Y201844D01*
X128749Y201173D01*
X127894Y200319D01*
X127223Y199314D01*
X126761Y198198D01*
X126525Y197013D01*
Y195806D01*
X126761Y194621D01*
X127223Y193505D01*
X127894Y192501D01*
X128749Y191647D01*
X129753Y190976D01*
X130869Y190513D01*
X132053Y190278D01*
X133261D01*
X134446Y190513D01*
X135562Y190976D01*
X136566Y191647D01*
X137420Y192501D01*
X138091Y193505D01*
X138554Y194621D01*
X138789Y195806D01*
Y197013D01*
X138554Y198198D01*
X138091Y199314D01*
X137420Y200319D01*
X136566Y201173D01*
X135562Y201844D01*
X134446Y202306D01*
X133261Y202541D01*
D02*
G37*
G36*
X211296Y190000D02*
X209288D01*
Y186417D01*
X211296D01*
Y190000D01*
D02*
G37*
G36*
X207288D02*
X205280D01*
Y186417D01*
X207288D01*
Y190000D01*
D02*
G37*
G36*
X264520Y192700D02*
X261512D01*
X258504D01*
Y189204D01*
X258307D01*
Y185700D01*
X261413D01*
X264520D01*
Y189117D01*
Y192700D01*
D02*
G37*
G36*
X375250Y185437D02*
X367770D01*
Y182870D01*
X367765Y182869D01*
X367703Y182864D01*
X359506D01*
X359445Y182869D01*
X359439Y182870D01*
Y185240D01*
X352943D01*
Y177760D01*
X359439D01*
Y180130D01*
X359445Y180131D01*
X359506Y180136D01*
X367703D01*
X367765Y180131D01*
X367770Y180130D01*
Y177563D01*
X375250D01*
Y185437D01*
D02*
G37*
G36*
X345857Y185240D02*
X339361D01*
Y183098D01*
X338892Y182864D01*
X334053D01*
X333992Y182869D01*
X333986Y182870D01*
Y183567D01*
X328081D01*
Y179433D01*
X333986D01*
Y180130D01*
X333992Y180131D01*
X334053Y180136D01*
X338892D01*
X339361Y179902D01*
Y177760D01*
X345857D01*
Y185240D01*
D02*
G37*
G36*
X264520Y183700D02*
X262413D01*
Y180196D01*
X264520D01*
Y183700D01*
D02*
G37*
G36*
X260413D02*
X258307D01*
Y180196D01*
X260413D01*
Y183700D01*
D02*
G37*
G36*
X321766Y180000D02*
X319601D01*
Y178720D01*
X321766D01*
Y180000D01*
D02*
G37*
G36*
X245395Y286588D02*
X244604D01*
X243874Y286285D01*
X243315Y285726D01*
X243012Y284996D01*
Y284205D01*
X243315Y283474D01*
X243874Y282914D01*
X244604Y282612D01*
X245360D01*
X269836Y258135D01*
Y253700D01*
X269940Y253178D01*
X270236Y252736D01*
X285536Y237436D01*
X285978Y237140D01*
X286500Y237036D01*
X368825D01*
X380861Y225000D01*
X381150Y224664D01*
X381272Y224500D01*
X381373Y224345D01*
X381450Y224207D01*
X381503Y224089D01*
X381536Y223994D01*
X381550Y223933D01*
Y218563D01*
X383920D01*
X383921Y218558D01*
X383926Y218496D01*
Y206004D01*
X383921Y205942D01*
X383920Y205937D01*
X381550D01*
Y198063D01*
X383920D01*
X383921Y198058D01*
X383926Y197996D01*
Y185504D01*
X383921Y185442D01*
X383920Y185437D01*
X381550D01*
Y177563D01*
X389030D01*
Y185437D01*
X386660D01*
X386659Y185442D01*
X386653Y185504D01*
Y197996D01*
X386659Y198058D01*
X386660Y198063D01*
X389030D01*
Y205937D01*
X386660D01*
X386659Y205942D01*
X386653Y206004D01*
Y218496D01*
X386659Y218558D01*
X386660Y218563D01*
X389030D01*
Y226437D01*
X383626D01*
X383563Y226447D01*
X383479Y226469D01*
X383389Y226502D01*
X383293Y226546D01*
X383190Y226603D01*
X383081Y226675D01*
X382966Y226762D01*
X382904Y226814D01*
X370354Y239364D01*
X369912Y239660D01*
X369390Y239764D01*
X287065D01*
X272564Y254265D01*
Y258700D01*
X272460Y259222D01*
X272164Y259664D01*
X246988Y284840D01*
Y284996D01*
X246686Y285726D01*
X246126Y286285D01*
X245395Y286588D01*
D02*
G37*
G36*
X321766Y176720D02*
X319601D01*
Y175441D01*
X321766D01*
Y176720D01*
D02*
G37*
G36*
X321154Y168924D02*
X310524D01*
Y167842D01*
X310522Y167827D01*
X310514Y167806D01*
X310501Y167786D01*
X310458Y167747D01*
X310364Y167689D01*
X310204Y167624D01*
X309978Y167563D01*
X309686Y167515D01*
X309474Y167496D01*
X307596D01*
Y167498D01*
X306814D01*
X306797Y167502D01*
X306780Y167498D01*
X305770D01*
X305677Y167517D01*
X305584Y167498D01*
X303758D01*
Y166029D01*
X303651Y165490D01*
X303758Y164952D01*
Y163483D01*
X305502D01*
X305698Y163444D01*
X309474D01*
X309686Y163425D01*
X309978Y163376D01*
X310204Y163316D01*
X310364Y163251D01*
X310458Y163193D01*
X310501Y163155D01*
X310514Y163135D01*
X310522Y163113D01*
X310524Y163098D01*
Y161050D01*
X317818D01*
Y147871D01*
X317468Y147825D01*
X317394Y148103D01*
X316808Y149117D01*
X315980Y149946D01*
X314965Y150531D01*
X313834Y150835D01*
X312662D01*
X311531Y150531D01*
X310516Y149946D01*
X309688Y149117D01*
X309102Y148103D01*
X308799Y146971D01*
Y145800D01*
X309102Y144669D01*
X309688Y143654D01*
X310516Y142826D01*
X311531Y142240D01*
X312662Y141937D01*
X313834D01*
X314965Y142240D01*
X315980Y142826D01*
X316808Y143654D01*
X317394Y144669D01*
X317468Y144947D01*
X317818Y144900D01*
Y139368D01*
X316873D01*
X315642Y139123D01*
X314484Y138643D01*
X313441Y137946D01*
X312554Y137059D01*
X311857Y136016D01*
X311377Y134857D01*
X311132Y133627D01*
Y132373D01*
X311377Y131142D01*
X311857Y129984D01*
X312554Y128941D01*
X313441Y128054D01*
X314484Y127357D01*
X315642Y126877D01*
X316873Y126632D01*
X318127D01*
X319357Y126877D01*
X320516Y127357D01*
X321559Y128054D01*
X322446Y128941D01*
X323143Y129984D01*
X323623Y131142D01*
X323868Y132373D01*
Y133627D01*
X323623Y134857D01*
X323143Y136016D01*
X322446Y137059D01*
X321559Y137946D01*
X320545Y138624D01*
Y161050D01*
X321154D01*
Y168924D01*
D02*
G37*
G36*
X257154D02*
X246524D01*
Y166860D01*
X246518Y166859D01*
X246457Y166854D01*
X244274D01*
Y167498D01*
X240435D01*
Y163483D01*
X240991D01*
Y142646D01*
X241095Y142124D01*
X241390Y141681D01*
X246636Y136435D01*
X246357Y136016D01*
X245877Y134857D01*
X245632Y133627D01*
Y132373D01*
X245877Y131142D01*
X246357Y129984D01*
X247054Y128941D01*
X247941Y128054D01*
X248984Y127357D01*
X250143Y126877D01*
X251373Y126632D01*
X252627D01*
X253857Y126877D01*
X255016Y127357D01*
X256059Y128054D01*
X256946Y128941D01*
X257643Y129984D01*
X258123Y131142D01*
X258368Y132373D01*
Y133627D01*
X258123Y134857D01*
X257643Y136016D01*
X256946Y137059D01*
X256059Y137946D01*
X255016Y138643D01*
X253857Y139123D01*
X252627Y139368D01*
X251373D01*
X250143Y139123D01*
X248984Y138643D01*
X248565Y138364D01*
X243718Y143210D01*
Y143792D01*
X244056Y143883D01*
X244188Y143654D01*
X245016Y142826D01*
X246031Y142240D01*
X247162Y141937D01*
X248334D01*
X249465Y142240D01*
X250480Y142826D01*
X251308Y143654D01*
X251894Y144669D01*
X252197Y145800D01*
Y146971D01*
X251894Y148103D01*
X251308Y149117D01*
X250480Y149946D01*
X249465Y150531D01*
X248334Y150835D01*
X247162D01*
X246031Y150531D01*
X245016Y149946D01*
X244188Y149117D01*
X244056Y148889D01*
X243718Y148979D01*
Y163483D01*
X244274D01*
Y164127D01*
X246457D01*
X246518Y164121D01*
X246524Y164121D01*
Y161050D01*
X257154D01*
Y168924D01*
D02*
G37*
G36*
X133657Y171498D02*
Y166228D01*
X138927D01*
X138758Y167079D01*
X138280Y168234D01*
X137585Y169273D01*
X136702Y170157D01*
X135663Y170851D01*
X134508Y171329D01*
X133657Y171498D01*
D02*
G37*
G36*
X131657D02*
X130807Y171329D01*
X129652Y170851D01*
X128613Y170157D01*
X127729Y169273D01*
X127035Y168234D01*
X126557Y167079D01*
X126388Y166228D01*
X131657D01*
Y171498D01*
D02*
G37*
G36*
X361455Y163971D02*
X360323D01*
Y162750D01*
X361455D01*
Y163971D01*
D02*
G37*
G36*
X235132D02*
X234000D01*
Y162750D01*
X235132D01*
Y163971D01*
D02*
G37*
G36*
X232000D02*
X230868D01*
Y162750D01*
X232000D01*
Y163971D01*
D02*
G37*
G36*
X358323D02*
X357191D01*
Y162750D01*
X358323D01*
Y163971D01*
D02*
G37*
G36*
X361455Y160750D02*
X360323D01*
Y159530D01*
X361455D01*
Y160750D01*
D02*
G37*
G36*
X358323D02*
X357191D01*
Y159530D01*
X358323D01*
Y160750D01*
D02*
G37*
G36*
X298455D02*
X297323D01*
Y159530D01*
X298455D01*
Y160750D01*
D02*
G37*
G36*
X295323D02*
X294191D01*
Y159530D01*
X295323D01*
Y160750D01*
D02*
G37*
G36*
X235132D02*
X234000D01*
Y159530D01*
X235132D01*
Y160750D01*
D02*
G37*
G36*
X232000D02*
X230868D01*
Y159530D01*
X232000D01*
Y160750D01*
D02*
G37*
G36*
X138927Y164228D02*
X133657D01*
Y158958D01*
X134508Y159128D01*
X135663Y159606D01*
X136702Y160300D01*
X137585Y161184D01*
X138280Y162223D01*
X138758Y163378D01*
X138927Y164228D01*
D02*
G37*
G36*
X131657D02*
X126388D01*
X126557Y163378D01*
X127035Y162223D01*
X127729Y161184D01*
X128613Y160300D01*
X129652Y159606D01*
X130807Y159128D01*
X131657Y158958D01*
Y164228D01*
D02*
G37*
G36*
X163132Y150835D02*
X162002D01*
X160911Y150542D01*
X159932Y149977D01*
X159133Y149178D01*
X158568Y148200D01*
X158276Y147108D01*
Y145978D01*
X158568Y144887D01*
X159133Y143908D01*
X159932Y143109D01*
X160911Y142544D01*
X162002Y142252D01*
X163132D01*
X164223Y142544D01*
X165202Y143109D01*
X166001Y143908D01*
X166566Y144887D01*
X166858Y145978D01*
Y147108D01*
X166566Y148200D01*
X166001Y149178D01*
X165202Y149977D01*
X164223Y150542D01*
X163132Y150835D01*
D02*
G37*
G36*
X274476Y168924D02*
X263846D01*
Y161050D01*
X267792D01*
X267792Y161045D01*
X267798Y160983D01*
Y139368D01*
X266963D01*
X265733Y139123D01*
X264574Y138643D01*
X263531Y137946D01*
X262644Y137059D01*
X261947Y136016D01*
X261467Y134857D01*
X261223Y133627D01*
Y132373D01*
X261467Y131142D01*
X261947Y129984D01*
X262644Y128941D01*
X263531Y128054D01*
X264574Y127357D01*
X265733Y126877D01*
X266963Y126632D01*
X268218D01*
X269448Y126877D01*
X270607Y127357D01*
X271650Y128054D01*
X272537Y128941D01*
X273234Y129984D01*
X273714Y131142D01*
X273959Y132373D01*
Y133627D01*
X273714Y134857D01*
X273234Y136016D01*
X272537Y137059D01*
X271650Y137946D01*
X270607Y138643D01*
X270525Y138677D01*
Y160983D01*
X270530Y161045D01*
X270531Y161050D01*
X274476D01*
Y168924D01*
D02*
G37*
G36*
X122727Y128382D02*
X121273D01*
X119847Y128098D01*
X118503Y127542D01*
X117294Y126734D01*
X116266Y125706D01*
X115458Y124497D01*
X114902Y123153D01*
X114618Y121727D01*
Y120273D01*
X114902Y118847D01*
X115458Y117503D01*
X116266Y116294D01*
X117294Y115266D01*
X118503Y114458D01*
X119847Y113902D01*
X121273Y113618D01*
X122727D01*
X124153Y113902D01*
X125497Y114458D01*
X126706Y115266D01*
X127734Y116294D01*
X128542Y117503D01*
X129098Y118847D01*
X129382Y120273D01*
Y121727D01*
X129098Y123153D01*
X128542Y124497D01*
X127734Y125706D01*
X126706Y126734D01*
X125497Y127542D01*
X124153Y128098D01*
X122727Y128382D01*
D02*
G37*
%LPD*%
G36*
X212984Y413928D02*
X212890Y413893D01*
X212808Y413836D01*
X212736Y413758D01*
X212676Y413657D01*
X212626Y413535D01*
X212588Y413391D01*
X212560Y413226D01*
X212544Y413038D01*
X212538Y412829D01*
X211438D01*
X211433Y413038D01*
X211416Y413226D01*
X211389Y413391D01*
X211350Y413535D01*
X211301Y413657D01*
X211240Y413758D01*
X211169Y413836D01*
X211086Y413893D01*
X210993Y413928D01*
X210888Y413941D01*
X213088D01*
X212984Y413928D01*
D02*
G37*
G36*
X210055Y409058D02*
X210072Y408871D01*
X210100Y408705D01*
X210138Y408561D01*
X210188Y408439D01*
X210248Y408339D01*
X210319Y408260D01*
X210402Y408204D01*
X210495Y408168D01*
X210600Y408155D01*
X208400D01*
X208505Y408168D01*
X208598Y408204D01*
X208681Y408260D01*
X208752Y408339D01*
X208812Y408439D01*
X208862Y408561D01*
X208900Y408705D01*
X208928Y408871D01*
X208945Y409058D01*
X208950Y409267D01*
X210050D01*
X210055Y409058D01*
D02*
G37*
G36*
X191848Y423906D02*
X191994Y421386D01*
X192040Y421211D01*
X192091Y421106D01*
X192149Y421071D01*
X188040D01*
X188097Y421106D01*
X188149Y421211D01*
X188195Y421386D01*
X188235Y421631D01*
X188268Y421946D01*
X188332Y423311D01*
X188344Y424571D01*
X191844D01*
X191848Y423906D01*
D02*
G37*
G36*
X204738Y421071D02*
X204591Y420915D01*
X204458Y420760D01*
X204342Y420604D01*
X204240Y420448D01*
X204155Y420293D01*
X204085Y420137D01*
X204030Y419982D01*
X203992Y419826D01*
X203968Y419671D01*
X203960Y419515D01*
X202405Y421071D01*
X202560Y421078D01*
X202716Y421102D01*
X202872Y421141D01*
X203027Y421195D01*
X203183Y421265D01*
X203338Y421351D01*
X203494Y421452D01*
X203649Y421568D01*
X203805Y421701D01*
X203960Y421848D01*
X204738Y421071D01*
D02*
G37*
G36*
X172054Y418535D02*
X172087Y418441D01*
X172142Y418359D01*
X172219Y418287D01*
X172318Y418227D01*
X172439Y418177D01*
X172582Y418139D01*
X172747Y418111D01*
X172934Y418095D01*
X173143Y418089D01*
Y416989D01*
X172934Y416984D01*
X172747Y416967D01*
X172582Y416940D01*
X172439Y416901D01*
X172318Y416852D01*
X172219Y416791D01*
X172142Y416720D01*
X172087Y416637D01*
X172054Y416544D01*
X172043Y416439D01*
Y418639D01*
X172054Y418535D01*
D02*
G37*
G36*
X202901Y414007D02*
X202808Y413972D01*
X202725Y413915D01*
X202654Y413836D01*
X202593Y413736D01*
X202544Y413614D01*
X202505Y413470D01*
X202478Y413305D01*
X202461Y413117D01*
X202456Y412908D01*
X201356D01*
X201350Y413117D01*
X201334Y413305D01*
X201306Y413470D01*
X201268Y413614D01*
X201218Y413736D01*
X201158Y413836D01*
X201086Y413915D01*
X201004Y413972D01*
X200910Y414007D01*
X200806Y414020D01*
X203006D01*
X202901Y414007D01*
D02*
G37*
G36*
X198232Y402187D02*
X194738Y403343D01*
X194406Y403341D01*
X191886Y403184D01*
X191711Y403134D01*
X191606Y403078D01*
X191571Y403016D01*
Y407008D01*
X191606Y406977D01*
X191711Y406949D01*
X191886Y406924D01*
X192131Y406903D01*
X193811Y406851D01*
X194737Y406846D01*
X198232Y408167D01*
Y402187D01*
D02*
G37*
G36*
X203388Y408797D02*
X203544Y408665D01*
X203699Y408548D01*
X203855Y408447D01*
X204010Y408362D01*
X204166Y408292D01*
X204321Y408237D01*
X204477Y408198D01*
X204632Y408175D01*
X204788Y408167D01*
X203233Y406611D01*
X203225Y406767D01*
X203201Y406923D01*
X203163Y407078D01*
X203108Y407234D01*
X203038Y407389D01*
X202953Y407545D01*
X202851Y407700D01*
X202735Y407856D01*
X202602Y408012D01*
X202455Y408167D01*
X203233Y408945D01*
X203388Y408797D01*
D02*
G37*
G36*
X174056Y404832D02*
X174072Y404644D01*
X174100Y404479D01*
X174138Y404335D01*
X174188Y404213D01*
X174248Y404112D01*
X174320Y404034D01*
X174402Y403977D01*
X174495Y403942D01*
X174600Y403929D01*
X172400D01*
X172504Y403942D01*
X172598Y403977D01*
X172680Y404034D01*
X172752Y404112D01*
X172812Y404213D01*
X172862Y404335D01*
X172900Y404479D01*
X172928Y404644D01*
X172944Y404832D01*
X172950Y405041D01*
X174050D01*
X174056Y404832D01*
D02*
G37*
G36*
X185688Y402150D02*
X184588D01*
X184429Y403016D01*
X186004D01*
X185688Y402150D01*
D02*
G37*
G36*
X232219Y402240D02*
X232071Y402084D01*
X231938Y401929D01*
X231821Y401773D01*
X231719Y401618D01*
X231632Y401462D01*
X231561Y401307D01*
X231505Y401151D01*
X231464Y400995D01*
X231439Y400840D01*
X231429Y400684D01*
X229885Y402228D01*
X230041Y402238D01*
X230196Y402263D01*
X230352Y402304D01*
X230507Y402360D01*
X230663Y402431D01*
X230819Y402518D01*
X230974Y402620D01*
X231130Y402737D01*
X231285Y402870D01*
X231441Y403018D01*
X232219Y402240D01*
D02*
G37*
G36*
X243071Y385109D02*
X243058Y385213D01*
X243023Y385307D01*
X242966Y385389D01*
X242888Y385461D01*
X242787Y385521D01*
X242665Y385571D01*
X242521Y385609D01*
X242356Y385637D01*
X242168Y385653D01*
X241959Y385659D01*
Y386759D01*
X242168Y386764D01*
X242356Y386781D01*
X242521Y386808D01*
X242665Y386847D01*
X242787Y386896D01*
X242888Y386957D01*
X242966Y387028D01*
X243023Y387111D01*
X243058Y387204D01*
X243071Y387309D01*
Y385109D01*
D02*
G37*
G36*
X231442Y387204D02*
X231477Y387111D01*
X231534Y387028D01*
X231612Y386957D01*
X231713Y386896D01*
X231835Y386847D01*
X231979Y386808D01*
X232144Y386781D01*
X232332Y386764D01*
X232541Y386759D01*
Y385659D01*
X232332Y385653D01*
X232144Y385637D01*
X231979Y385609D01*
X231835Y385571D01*
X231713Y385521D01*
X231612Y385461D01*
X231534Y385389D01*
X231477Y385307D01*
X231442Y385213D01*
X231429Y385109D01*
Y387309D01*
X231442Y387204D01*
D02*
G37*
G36*
X225559Y383760D02*
X224459Y383273D01*
Y384373D01*
X224668Y384378D01*
X224856Y384395D01*
X225021Y384422D01*
X225165Y384461D01*
X225287Y384510D01*
X225388Y384571D01*
X225466Y384642D01*
X225523Y384725D01*
X225558Y384818D01*
X225571Y384923D01*
X225559Y383760D01*
D02*
G37*
G36*
X215769Y384818D02*
X215804Y384725D01*
X215861Y384642D01*
X215939Y384571D01*
X216039Y384510D01*
X216162Y384461D01*
X216305Y384422D01*
X216471Y384395D01*
X216658Y384378D01*
X216867Y384373D01*
Y383273D01*
X216658Y383267D01*
X216471Y383251D01*
X216305Y383223D01*
X216162Y383185D01*
X216039Y383135D01*
X215939Y383075D01*
X215861Y383003D01*
X215804Y382921D01*
X215769Y382827D01*
X215756Y382723D01*
Y384923D01*
X215769Y384818D01*
D02*
G37*
G36*
X210495Y380832D02*
X210402Y380797D01*
X210319Y380740D01*
X210248Y380661D01*
X210188Y380561D01*
X210138Y380439D01*
X210100Y380295D01*
X210072Y380129D01*
X210055Y379942D01*
X210050Y379733D01*
X208950D01*
X208945Y379942D01*
X208928Y380129D01*
X208900Y380295D01*
X208862Y380439D01*
X208812Y380561D01*
X208752Y380661D01*
X208681Y380740D01*
X208598Y380797D01*
X208505Y380832D01*
X208400Y380845D01*
X210600D01*
X210495Y380832D01*
D02*
G37*
G36*
X213264Y371832D02*
X213281Y371644D01*
X213308Y371479D01*
X213347Y371335D01*
X213396Y371213D01*
X213457Y371112D01*
X213528Y371034D01*
X213611Y370977D01*
X213704Y370942D01*
X213809Y370929D01*
X211609D01*
X211713Y370942D01*
X211807Y370977D01*
X211889Y371034D01*
X211961Y371112D01*
X212021Y371213D01*
X212071Y371335D01*
X212109Y371479D01*
X212137Y371644D01*
X212153Y371832D01*
X212159Y372041D01*
X213259D01*
X213264Y371832D01*
D02*
G37*
G36*
X176639Y388216D02*
X176674Y388122D01*
X176731Y388040D01*
X176809Y387968D01*
X176910Y387908D01*
X177032Y387858D01*
X177175Y387820D01*
X177341Y387792D01*
X177529Y387776D01*
X177738Y387770D01*
Y386670D01*
X177529Y386665D01*
X177341Y386648D01*
X177175Y386621D01*
X177032Y386582D01*
X176910Y386533D01*
X176809Y386472D01*
X176731Y386401D01*
X176674Y386318D01*
X176639Y386225D01*
X176626Y386120D01*
Y388320D01*
X176639Y388216D01*
D02*
G37*
G36*
X198232Y383535D02*
X197455Y385090D01*
Y386646D01*
X198232D01*
Y383535D01*
D02*
G37*
G36*
X198862Y364862D02*
X198527Y364838D01*
X198174Y364763D01*
X197805Y364640D01*
X197420Y364466D01*
X197017Y364244D01*
X196598Y363971D01*
X196161Y363650D01*
X195239Y362858D01*
X194752Y362387D01*
X192277Y364862D01*
X192747Y365357D01*
X193168Y365852D01*
X193539Y366347D01*
X193861Y366842D01*
X194133Y367337D01*
X194356Y367832D01*
X194529Y368327D01*
X194653Y368822D01*
X194727Y369317D01*
X194752Y369812D01*
X198862Y364862D01*
D02*
G37*
G36*
X176350Y338160D02*
X175250D01*
X174700Y339260D01*
X176900D01*
X176350Y338160D01*
D02*
G37*
G36*
X188956Y333602D02*
X189009Y333007D01*
X189096Y332481D01*
X189219Y332026D01*
X189376Y331640D01*
X189569Y331323D01*
X189796Y331077D01*
X190059Y330900D01*
X190357Y330793D01*
X190689Y330755D01*
X183689D01*
X184021Y330793D01*
X184319Y330900D01*
X184581Y331077D01*
X184809Y331323D01*
X185002Y331640D01*
X185159Y332026D01*
X185282Y332481D01*
X185369Y333007D01*
X185422Y333602D01*
X185439Y334267D01*
X188939D01*
X188956Y333602D01*
D02*
G37*
G36*
X249255Y265832D02*
X249272Y265644D01*
X249300Y265479D01*
X249338Y265335D01*
X249388Y265213D01*
X249448Y265112D01*
X249519Y265034D01*
X249602Y264977D01*
X249695Y264942D01*
X249800Y264929D01*
X247600D01*
X247705Y264942D01*
X247798Y264977D01*
X247881Y265034D01*
X247952Y265112D01*
X248012Y265213D01*
X248062Y265335D01*
X248100Y265479D01*
X248128Y265644D01*
X248145Y265832D01*
X248150Y266041D01*
X249250D01*
X249255Y265832D01*
D02*
G37*
G36*
X340160Y221620D02*
X339060Y222170D01*
Y223270D01*
X340160Y223820D01*
Y221620D01*
D02*
G37*
G36*
X333188Y223716D02*
X333224Y223622D01*
X333280Y223540D01*
X333359Y223468D01*
X333459Y223408D01*
X333581Y223358D01*
X333725Y223320D01*
X333891Y223292D01*
X334078Y223276D01*
X334287Y223270D01*
Y222170D01*
X334078Y222165D01*
X333891Y222148D01*
X333725Y222121D01*
X333581Y222082D01*
X333459Y222033D01*
X333359Y221972D01*
X333280Y221901D01*
X333224Y221818D01*
X333188Y221725D01*
X333175Y221620D01*
Y223820D01*
X333188Y223716D01*
D02*
G37*
G36*
X368581Y221400D02*
X368568Y221504D01*
X368533Y221598D01*
X368476Y221680D01*
X368398Y221752D01*
X368297Y221813D01*
X368175Y221862D01*
X368032Y221901D01*
X367866Y221928D01*
X367679Y221944D01*
X367470Y221950D01*
Y223050D01*
X367679Y223056D01*
X367866Y223072D01*
X368032Y223099D01*
X368175Y223138D01*
X368297Y223187D01*
X368398Y223248D01*
X368476Y223320D01*
X368533Y223402D01*
X368568Y223496D01*
X368581Y223600D01*
Y221400D01*
D02*
G37*
G36*
X358641Y223496D02*
X358676Y223402D01*
X358733Y223320D01*
X358812Y223248D01*
X358912Y223187D01*
X359034Y223138D01*
X359178Y223099D01*
X359344Y223072D01*
X359531Y223056D01*
X359740Y223050D01*
Y221950D01*
X359531Y221944D01*
X359344Y221928D01*
X359178Y221901D01*
X359034Y221862D01*
X358912Y221813D01*
X358812Y221752D01*
X358733Y221680D01*
X358676Y221598D01*
X358641Y221504D01*
X358628Y221400D01*
Y223600D01*
X358641Y223496D01*
D02*
G37*
G36*
X340160Y201010D02*
X339060Y201560D01*
Y202660D01*
X340160Y203210D01*
Y201010D01*
D02*
G37*
G36*
X333188Y203106D02*
X333224Y203012D01*
X333280Y202930D01*
X333359Y202858D01*
X333459Y202798D01*
X333581Y202748D01*
X333725Y202710D01*
X333891Y202682D01*
X334078Y202666D01*
X334287Y202660D01*
Y201560D01*
X334078Y201555D01*
X333891Y201538D01*
X333725Y201511D01*
X333581Y201472D01*
X333459Y201423D01*
X333359Y201362D01*
X333280Y201291D01*
X333224Y201208D01*
X333188Y201115D01*
X333175Y201010D01*
Y203210D01*
X333188Y203106D01*
D02*
G37*
G36*
X368581Y200900D02*
X368568Y201005D01*
X368533Y201098D01*
X368476Y201181D01*
X368398Y201252D01*
X368297Y201312D01*
X368175Y201362D01*
X368032Y201400D01*
X367866Y201428D01*
X367679Y201445D01*
X367470Y201450D01*
Y202550D01*
X367679Y202555D01*
X367866Y202572D01*
X368032Y202600D01*
X368175Y202638D01*
X368297Y202688D01*
X368398Y202748D01*
X368476Y202819D01*
X368533Y202902D01*
X368568Y202995D01*
X368581Y203100D01*
Y200900D01*
D02*
G37*
G36*
X358641Y202995D02*
X358676Y202902D01*
X358733Y202819D01*
X358812Y202748D01*
X358912Y202688D01*
X359034Y202638D01*
X359178Y202600D01*
X359344Y202572D01*
X359531Y202555D01*
X359740Y202550D01*
Y201450D01*
X359531Y201445D01*
X359344Y201428D01*
X359178Y201400D01*
X359034Y201362D01*
X358912Y201312D01*
X358812Y201252D01*
X358733Y201181D01*
X358676Y201098D01*
X358641Y201005D01*
X358628Y200900D01*
Y203100D01*
X358641Y202995D01*
D02*
G37*
G36*
X368581Y180400D02*
X368568Y180505D01*
X368533Y180598D01*
X368476Y180681D01*
X368398Y180752D01*
X368297Y180813D01*
X368175Y180862D01*
X368032Y180901D01*
X367866Y180928D01*
X367679Y180945D01*
X367470Y180950D01*
Y182050D01*
X367679Y182055D01*
X367866Y182072D01*
X368032Y182099D01*
X368175Y182138D01*
X368297Y182187D01*
X368398Y182248D01*
X368476Y182319D01*
X368533Y182402D01*
X368568Y182495D01*
X368581Y182600D01*
Y180400D01*
D02*
G37*
G36*
X358641Y182495D02*
X358676Y182402D01*
X358733Y182319D01*
X358812Y182248D01*
X358912Y182187D01*
X359034Y182138D01*
X359178Y182099D01*
X359344Y182072D01*
X359531Y182055D01*
X359740Y182050D01*
Y180950D01*
X359531Y180945D01*
X359344Y180928D01*
X359178Y180901D01*
X359034Y180862D01*
X358912Y180813D01*
X358812Y180752D01*
X358733Y180681D01*
X358676Y180598D01*
X358641Y180505D01*
X358628Y180400D01*
Y182600D01*
X358641Y182495D01*
D02*
G37*
G36*
X340160Y180400D02*
X339060Y180950D01*
Y182050D01*
X340160Y182600D01*
Y180400D01*
D02*
G37*
G36*
X333188Y182495D02*
X333224Y182402D01*
X333280Y182319D01*
X333359Y182248D01*
X333459Y182187D01*
X333581Y182138D01*
X333725Y182099D01*
X333891Y182072D01*
X334078Y182055D01*
X334287Y182050D01*
Y180950D01*
X334078Y180945D01*
X333891Y180928D01*
X333725Y180901D01*
X333581Y180862D01*
X333459Y180813D01*
X333359Y180752D01*
X333280Y180681D01*
X333224Y180598D01*
X333188Y180505D01*
X333175Y180400D01*
Y182600D01*
X333188Y182495D01*
D02*
G37*
G36*
X382308Y226268D02*
X382463Y226135D01*
X382619Y226018D01*
X382774Y225916D01*
X382930Y225829D01*
X383086Y225758D01*
X383241Y225702D01*
X383397Y225661D01*
X383552Y225636D01*
X383708Y225626D01*
X382361Y223885D01*
X382347Y224045D01*
X382310Y224212D01*
X382250Y224387D01*
X382167Y224570D01*
X382060Y224760D01*
X381931Y224958D01*
X381778Y225165D01*
X381404Y225600D01*
X381182Y225830D01*
X382152Y226415D01*
X382308Y226268D01*
D02*
G37*
G36*
X386285Y219361D02*
X386192Y219326D01*
X386109Y219269D01*
X386038Y219191D01*
X385977Y219090D01*
X385928Y218968D01*
X385889Y218825D01*
X385862Y218659D01*
X385845Y218472D01*
X385840Y218262D01*
X384740D01*
X384734Y218472D01*
X384718Y218659D01*
X384690Y218825D01*
X384652Y218968D01*
X384602Y219090D01*
X384542Y219191D01*
X384470Y219269D01*
X384388Y219326D01*
X384294Y219361D01*
X384190Y219374D01*
X386390D01*
X386285Y219361D01*
D02*
G37*
G36*
X385845Y206029D02*
X385862Y205841D01*
X385889Y205676D01*
X385928Y205532D01*
X385977Y205410D01*
X386038Y205309D01*
X386109Y205231D01*
X386192Y205174D01*
X386285Y205139D01*
X386390Y205126D01*
X384190D01*
X384294Y205139D01*
X384388Y205174D01*
X384470Y205231D01*
X384542Y205309D01*
X384602Y205410D01*
X384652Y205532D01*
X384690Y205676D01*
X384718Y205841D01*
X384734Y206029D01*
X384740Y206238D01*
X385840D01*
X385845Y206029D01*
D02*
G37*
G36*
X386285Y198861D02*
X386192Y198826D01*
X386109Y198769D01*
X386038Y198691D01*
X385977Y198590D01*
X385928Y198468D01*
X385889Y198325D01*
X385862Y198159D01*
X385845Y197971D01*
X385840Y197762D01*
X384740D01*
X384734Y197971D01*
X384718Y198159D01*
X384690Y198325D01*
X384652Y198468D01*
X384602Y198590D01*
X384542Y198691D01*
X384470Y198769D01*
X384388Y198826D01*
X384294Y198861D01*
X384190Y198874D01*
X386390D01*
X386285Y198861D01*
D02*
G37*
G36*
X385845Y185529D02*
X385862Y185341D01*
X385889Y185176D01*
X385928Y185032D01*
X385977Y184910D01*
X386038Y184809D01*
X386109Y184731D01*
X386192Y184674D01*
X386285Y184639D01*
X386390Y184626D01*
X384190D01*
X384294Y184639D01*
X384388Y184674D01*
X384470Y184731D01*
X384542Y184809D01*
X384602Y184910D01*
X384652Y185032D01*
X384690Y185176D01*
X384718Y185341D01*
X384734Y185529D01*
X384740Y185738D01*
X385840D01*
X385845Y185529D01*
D02*
G37*
G36*
X311335Y163070D02*
X311309Y163298D01*
X311235Y163502D01*
X311113Y163682D01*
X310943Y163838D01*
X310726Y163970D01*
X310461Y164078D01*
X310148Y164162D01*
X309788Y164222D01*
X309379Y164258D01*
X308923Y164270D01*
Y164271D01*
X306797Y164282D01*
Y166699D01*
X306821Y166693D01*
X306893Y166689D01*
X307973Y166673D01*
X308944Y166671D01*
X309379Y166682D01*
X309788Y166718D01*
X310148Y166778D01*
X310461Y166862D01*
X310726Y166970D01*
X310943Y167102D01*
X311113Y167258D01*
X311235Y167438D01*
X311309Y167642D01*
X311335Y167870D01*
Y163070D01*
D02*
G37*
G36*
X247335Y164391D02*
X247322Y164495D01*
X247287Y164588D01*
X247230Y164671D01*
X247151Y164743D01*
X247051Y164803D01*
X246929Y164852D01*
X246785Y164891D01*
X246620Y164918D01*
X246432Y164935D01*
X246223Y164941D01*
Y166041D01*
X246432Y166046D01*
X246620Y166062D01*
X246785Y166090D01*
X246929Y166129D01*
X247051Y166178D01*
X247151Y166238D01*
X247230Y166310D01*
X247287Y166393D01*
X247322Y166486D01*
X247335Y166590D01*
Y164391D01*
D02*
G37*
G36*
X270157Y161848D02*
X270063Y161813D01*
X269981Y161756D01*
X269909Y161677D01*
X269849Y161577D01*
X269799Y161455D01*
X269761Y161311D01*
X269733Y161146D01*
X269717Y160958D01*
X269711Y160749D01*
X268611D01*
X268606Y160958D01*
X268589Y161146D01*
X268562Y161311D01*
X268523Y161455D01*
X268474Y161577D01*
X268413Y161677D01*
X268342Y161756D01*
X268259Y161813D01*
X268166Y161848D01*
X268061Y161861D01*
X270261D01*
X270157Y161848D01*
D02*
G37*
%LPC*%
G36*
X203949Y300331D02*
X198240D01*
Y297370D01*
X198235Y297369D01*
X198173Y297364D01*
X193197D01*
X193135Y297369D01*
X193130Y297370D01*
Y299937D01*
X185650D01*
Y292063D01*
X193130D01*
Y294630D01*
X193135Y294631D01*
X193197Y294636D01*
X198173D01*
X198235Y294631D01*
X198240Y294630D01*
Y291669D01*
X203949D01*
Y300331D01*
D02*
G37*
G36*
X192917Y255020D02*
X192567Y255020D01*
X189193D01*
Y252012D01*
Y249004D01*
X192567D01*
X192776Y249004D01*
X193126Y249004D01*
X196500D01*
Y252012D01*
Y255020D01*
X193126D01*
X192917Y255020D01*
D02*
G37*
G36*
X183610D02*
X183260Y255020D01*
X179886D01*
Y252012D01*
Y249004D01*
X183260D01*
X183468Y249004D01*
X183818Y249004D01*
X187193D01*
Y252012D01*
Y255020D01*
X183818D01*
X183610Y255020D01*
D02*
G37*
G36*
X198500Y255020D02*
Y253012D01*
X202083D01*
Y255020D01*
X198500D01*
D02*
G37*
G36*
X168500Y254961D02*
X164996D01*
Y252854D01*
X168500D01*
Y254961D01*
D02*
G37*
G36*
X202083Y251012D02*
X198500D01*
Y249004D01*
X202083D01*
Y251012D01*
D02*
G37*
G36*
X174303Y255020D02*
X173978Y254961D01*
X173953Y254961D01*
X170500D01*
Y251854D01*
Y248748D01*
X174004D01*
Y248881D01*
X174303Y249004D01*
X174354Y249004D01*
X177886D01*
Y252012D01*
Y255020D01*
X174329D01*
X174303Y255020D01*
D02*
G37*
G36*
X168500Y250854D02*
X164996D01*
Y248748D01*
X168500D01*
Y250854D01*
D02*
G37*
%LPD*%
G36*
X199051Y294900D02*
X199038Y295005D01*
X199003Y295098D01*
X198946Y295181D01*
X198868Y295252D01*
X198767Y295312D01*
X198645Y295362D01*
X198502Y295401D01*
X198336Y295428D01*
X198149Y295444D01*
X197940Y295450D01*
Y296550D01*
X198149Y296555D01*
X198336Y296572D01*
X198502Y296600D01*
X198645Y296638D01*
X198767Y296688D01*
X198868Y296748D01*
X198946Y296819D01*
X199003Y296902D01*
X199038Y296995D01*
X199051Y297100D01*
Y294900D01*
D02*
G37*
G36*
X192332Y296995D02*
X192367Y296902D01*
X192424Y296819D01*
X192502Y296748D01*
X192603Y296688D01*
X192725Y296638D01*
X192868Y296600D01*
X193034Y296572D01*
X193221Y296555D01*
X193430Y296550D01*
Y295450D01*
X193221Y295444D01*
X193034Y295428D01*
X192868Y295401D01*
X192725Y295362D01*
X192603Y295312D01*
X192502Y295252D01*
X192424Y295181D01*
X192367Y295098D01*
X192332Y295005D01*
X192319Y294900D01*
Y297100D01*
X192332Y296995D01*
D02*
G37*
D15*
X378339Y164987D02*
D03*
X395661D02*
D03*
X269161D02*
D03*
X251839D02*
D03*
X333161D02*
D03*
X315839D02*
D03*
D16*
X385290Y202000D02*
D03*
X371510D02*
D03*
X175610Y296000D02*
D03*
X189390D02*
D03*
X371510Y222500D02*
D03*
X385290D02*
D03*
X371510Y181500D02*
D03*
X385290D02*
D03*
D17*
X368677Y165490D02*
D03*
X359323Y161750D02*
D03*
Y169231D02*
D03*
X305677Y165490D02*
D03*
X296323Y161750D02*
D03*
Y169231D02*
D03*
X233000D02*
D03*
Y161750D02*
D03*
X242354Y165490D02*
D03*
D18*
X261413Y184700D02*
D03*
X250705D02*
D03*
D19*
X214500Y405177D02*
D03*
X209500D02*
D03*
X204500D02*
D03*
X199500D02*
D03*
Y383823D02*
D03*
X204500D02*
D03*
X209500D02*
D03*
X214500D02*
D03*
D20*
X207000Y394500D02*
D03*
D21*
X274591Y334100D02*
D03*
X261009D02*
D03*
X274591Y308772D02*
D03*
X261009D02*
D03*
X360209Y304500D02*
D03*
X373791D02*
D03*
D22*
X308728Y330000D02*
D03*
Y335000D02*
D03*
Y340000D02*
D03*
Y345000D02*
D03*
X287272D02*
D03*
Y340000D02*
D03*
Y335000D02*
D03*
Y330000D02*
D03*
Y317500D02*
D03*
Y312500D02*
D03*
Y307500D02*
D03*
Y302500D02*
D03*
X308728D02*
D03*
Y307500D02*
D03*
Y312500D02*
D03*
Y317500D02*
D03*
D23*
X325693Y334000D02*
D03*
X337504D02*
D03*
D24*
X325594Y301000D02*
D03*
X337406D02*
D03*
X325594Y311869D02*
D03*
X337406D02*
D03*
D25*
X325496Y322934D02*
D03*
X336913D02*
D03*
D26*
X274788Y296600D02*
D03*
X263371D02*
D03*
X274788Y321928D02*
D03*
X263371D02*
D03*
X169791Y417539D02*
D03*
X181209D02*
D03*
D27*
X340661Y342063D02*
D03*
Y344031D02*
D03*
Y346000D02*
D03*
Y347968D02*
D03*
Y349937D02*
D03*
X323339D02*
D03*
Y347968D02*
D03*
Y346000D02*
D03*
Y344031D02*
D03*
Y342063D02*
D03*
D28*
X353000Y347209D02*
D03*
Y335791D02*
D03*
D29*
X212906Y296000D02*
D03*
X201094D02*
D03*
X190094Y417539D02*
D03*
X201906D02*
D03*
D30*
X175500Y330646D02*
D03*
Y341354D02*
D03*
Y318354D02*
D03*
Y307646D02*
D03*
X188000Y216854D02*
D03*
Y206146D02*
D03*
X169500Y241146D02*
D03*
Y251854D02*
D03*
D31*
X187189Y334500D02*
D03*
Y329500D02*
D03*
Y324500D02*
D03*
Y319500D02*
D03*
Y314500D02*
D03*
D32*
X210811Y324500D02*
D03*
D33*
X420500Y124539D02*
D03*
Y204461D02*
D03*
X480500Y219500D02*
D03*
Y109500D02*
D03*
D34*
X173500Y401000D02*
D03*
Y387220D02*
D03*
D35*
X188000Y405012D02*
D03*
Y393988D02*
D03*
X263000Y243988D02*
D03*
Y255012D02*
D03*
X197500Y217012D02*
D03*
Y205988D02*
D03*
Y240988D02*
D03*
Y252012D02*
D03*
X178886Y240988D02*
D03*
Y252012D02*
D03*
X188193Y240988D02*
D03*
Y252012D02*
D03*
D36*
X211988Y417500D02*
D03*
X223012D02*
D03*
X199012Y227000D02*
D03*
X187988D02*
D03*
X250488Y193700D02*
D03*
X261512D02*
D03*
X219312Y191000D02*
D03*
X208288D02*
D03*
D37*
X228500Y399791D02*
D03*
Y386209D02*
D03*
X246000D02*
D03*
Y399791D02*
D03*
D38*
X196807Y368000D02*
D03*
X185193D02*
D03*
D39*
X212709D02*
D03*
X226291D02*
D03*
X356191Y222500D02*
D03*
X342609D02*
D03*
X356191Y181500D02*
D03*
X342609D02*
D03*
X356191Y202000D02*
D03*
X342609D02*
D03*
X208209Y262000D02*
D03*
X221791D02*
D03*
X248791D02*
D03*
X235209D02*
D03*
D40*
X331034Y222720D02*
D03*
X322766Y218941D02*
D03*
Y226500D02*
D03*
X331034Y181500D02*
D03*
X322766Y177720D02*
D03*
Y185280D02*
D03*
X331034Y202110D02*
D03*
X322766Y198331D02*
D03*
Y205890D02*
D03*
D41*
X208909Y240764D02*
D03*
Y238795D02*
D03*
Y236827D02*
D03*
Y234858D02*
D03*
Y232890D02*
D03*
Y230921D02*
D03*
Y228953D02*
D03*
Y226984D02*
D03*
Y225016D02*
D03*
Y223047D02*
D03*
Y221079D02*
D03*
Y219110D02*
D03*
Y217142D02*
D03*
Y215173D02*
D03*
Y213205D02*
D03*
Y211236D02*
D03*
X254091D02*
D03*
Y213205D02*
D03*
Y215173D02*
D03*
Y217142D02*
D03*
Y219110D02*
D03*
Y221079D02*
D03*
Y223047D02*
D03*
Y225016D02*
D03*
Y226984D02*
D03*
Y228953D02*
D03*
Y230921D02*
D03*
Y232890D02*
D03*
Y234858D02*
D03*
Y236827D02*
D03*
Y238795D02*
D03*
Y240764D02*
D03*
D42*
X216736Y203409D02*
D03*
X218705D02*
D03*
X220673D02*
D03*
X222642D02*
D03*
X224610D02*
D03*
X226579D02*
D03*
X228547D02*
D03*
X230516D02*
D03*
X232484D02*
D03*
X234453D02*
D03*
X236421D02*
D03*
X238390D02*
D03*
X240358D02*
D03*
X242327D02*
D03*
X244295D02*
D03*
X246264D02*
D03*
Y248591D02*
D03*
X244295D02*
D03*
X242327D02*
D03*
X240358D02*
D03*
X238390D02*
D03*
X236421D02*
D03*
X234453D02*
D03*
X232484D02*
D03*
X230516D02*
D03*
X228547D02*
D03*
X226579D02*
D03*
X224610D02*
D03*
X222642D02*
D03*
X220673D02*
D03*
X218705D02*
D03*
X216736D02*
D03*
D43*
X175594Y223646D02*
D03*
Y229354D02*
D03*
X162406Y223646D02*
D03*
Y229354D02*
D03*
D83*
X167944Y242702D02*
X169657Y240988D01*
X188157Y217012D02*
X197500D01*
X197848Y216664D01*
X206118D02*
X206556Y217101D01*
X197848Y216664D02*
X206118D01*
X175594Y229354D02*
X179854D01*
X184500Y234000D02*
X193587D01*
X179854Y229354D02*
X184500Y234000D01*
X254700Y180291D02*
Y201200D01*
X233000Y169231D02*
X243640D01*
X254700Y180291D01*
X251335Y165490D02*
X251839Y164987D01*
X242354Y165490D02*
X251335D01*
X242354Y142646D02*
Y165490D01*
X319182Y134682D02*
Y162387D01*
X315839Y164987D02*
X319182Y162387D01*
X317500Y133000D02*
X319182Y134682D01*
X293327Y165354D02*
X298819D01*
X318744Y185280D02*
X322766D01*
X298819Y165354D02*
X318744Y185280D01*
X322766D02*
X326000D01*
X290600Y168081D02*
X293327Y165354D01*
X290600Y168081D02*
Y180100D01*
X296323Y169231D02*
Y205402D01*
X359323Y169231D02*
Y169319D01*
X358741Y169901D02*
X359323Y169319D01*
X358494Y169901D02*
X358741D01*
X330621Y170079D02*
X358316D01*
X326000Y174700D02*
X330621Y170079D01*
X358316D02*
X358494Y169901D01*
X199417Y405094D02*
X199500Y405177D01*
X199335Y405012D02*
X199417Y405094D01*
X316000Y332507D02*
Y343493D01*
X318717Y325928D02*
X323881D01*
X314644Y330000D02*
X318717Y325928D01*
X308728Y330000D02*
X314644D01*
X319000Y337100D02*
Y342800D01*
X320191Y343991D02*
X323298D01*
X319000Y342800D02*
X320191Y343991D01*
X323298D02*
X323339Y344031D01*
X316000Y343493D02*
X320435Y347928D01*
X314400Y306400D02*
X321751D01*
X321700D02*
X321973Y306127D01*
Y305704D02*
X325594Y302083D01*
X321973Y305704D02*
Y306127D01*
X308728Y302500D02*
X317900D01*
X337005Y348393D02*
X337430Y347968D01*
X332300Y353200D02*
X337005Y348495D01*
X313600Y347700D02*
X319100Y353200D01*
X332300D01*
X337430Y347968D02*
X340661D01*
X337005Y348393D02*
Y348495D01*
X313300Y307500D02*
X314400Y306400D01*
X308728Y312500D02*
X314100D01*
X315800Y310800D01*
X308728Y307500D02*
X313300D01*
X325594Y301000D02*
Y302083D01*
X320300Y332427D02*
X321681Y333807D01*
X320300Y328700D02*
Y332427D01*
X331100Y311900D02*
X337374D01*
X337406Y311869D01*
X331200Y323000D02*
X336848D01*
X331100Y323100D02*
X331200Y323000D01*
X336848D02*
X336913Y322934D01*
X325693Y334000D02*
X326500Y334807D01*
X325500Y333807D02*
X325693Y334000D01*
X339119Y303100D02*
X341927D01*
X342358Y302669D02*
X342700D01*
X341927Y303100D02*
X342358Y302669D01*
X337406Y301386D02*
X339119Y303100D01*
X337406Y301000D02*
Y301386D01*
X247564Y239464D02*
X248864Y240764D01*
X247564Y239464D02*
X247564Y239464D01*
X219072Y239464D02*
X247564D01*
X247564Y207023D02*
Y239464D01*
X248864Y240764D02*
X254091D01*
X246304Y205763D02*
X247564Y207023D01*
X246264Y199399D02*
Y205722D01*
X336125Y342063D02*
X340661D01*
X335700Y335804D02*
Y341638D01*
X336125Y342063D01*
X335700Y335804D02*
X337504Y334000D01*
X254091Y240764D02*
X254131Y240804D01*
X256444D01*
X258942Y243302D01*
X262314D01*
X263000Y243988D01*
X219072Y239464D02*
Y239701D01*
X216736Y242037D02*
X219072Y239701D01*
Y223572D02*
Y239464D01*
X216736Y242037D02*
Y248591D01*
X208909Y240764D02*
X215463D01*
X216736Y242037D01*
X197724Y240764D02*
X208909D01*
X244125Y243442D02*
X246223Y245540D01*
Y248550D02*
X246264Y248591D01*
X243641Y243442D02*
X244125D01*
X243400Y243200D02*
X243641Y243442D01*
X246223Y245540D02*
Y248550D01*
X249919Y184827D02*
X250488Y185396D01*
X250388Y193700D02*
Y195275D01*
X262709Y298542D02*
Y321266D01*
X263779Y297792D02*
X265071Y296500D01*
X263779Y320536D02*
X265071Y321828D01*
X262709Y324190D02*
X265071Y321828D01*
X212642Y217142D02*
X219072Y223572D01*
X208909Y217142D02*
X212642D01*
X208869Y217101D02*
X208909Y217142D01*
X206556Y217101D02*
X208869D01*
X323881Y325928D02*
X325496Y324312D01*
Y322934D02*
Y324300D01*
X250100Y205800D02*
X254700Y201200D01*
X242327Y199824D02*
Y201096D01*
Y199824D02*
X242752Y199399D01*
X246264D01*
X250488Y185396D02*
Y193700D01*
X262709Y298542D02*
X263371Y297880D01*
X221546Y208073D02*
X241227D01*
X242327Y203409D02*
Y206973D01*
X241227Y208073D02*
X242327Y206973D01*
X220673Y207200D02*
X221546Y208073D01*
X220673Y192161D02*
Y203409D01*
Y207200D01*
X196102Y387220D02*
X199500Y383823D01*
X173500Y387220D02*
X196102D01*
X209190Y426300D02*
X232453D01*
X236100Y406899D02*
Y422653D01*
X232453Y426300D02*
X236100Y422653D01*
X228992Y399791D02*
X236100Y406899D01*
X228500Y399791D02*
X228992D01*
X201906Y419016D02*
X209190Y426300D01*
X201906Y417539D02*
Y419016D01*
X204500Y405177D02*
Y406900D01*
X201906Y409494D02*
X204500Y406900D01*
X201906Y409494D02*
Y417539D01*
X209500Y405177D02*
Y410000D01*
X211988Y412488D02*
Y417500D01*
X209500Y410000D02*
X211988Y412488D01*
X182409Y140009D02*
X228547Y186147D01*
Y203409D01*
X182409Y133157D02*
Y140009D01*
X232484Y184884D02*
Y203409D01*
X198000Y150400D02*
X232484Y184884D01*
X198000Y133157D02*
Y150400D01*
X213591Y133157D02*
Y160300D01*
X236421Y183131D01*
Y203409D01*
X124000Y316000D02*
X129200Y310800D01*
X124000Y326500D02*
X132500Y335000D01*
X124000Y316000D02*
Y326500D01*
X261657Y299593D02*
X262709Y298542D01*
X229707Y299593D02*
X261657D01*
X221200Y308100D02*
X229707Y299593D01*
X380000Y442000D02*
Y448793D01*
X353000Y347209D02*
X364791D01*
X380000Y332000D01*
X346409Y467587D02*
X362000D01*
Y466793D02*
Y467587D01*
Y466793D02*
X380000Y448793D01*
X438472Y396000D02*
X467972Y366500D01*
X485500D01*
X263371Y296600D02*
Y297880D01*
X245000Y284600D02*
X245300D01*
X271200Y258700D01*
X265163Y291100D02*
X268000Y293937D01*
X232700Y291100D02*
X265163D01*
X208209Y262000D02*
Y266609D01*
X232700Y291100D01*
X268000Y293937D02*
Y299200D01*
X271300Y302500D01*
X248700Y262091D02*
X248791Y262000D01*
X248700Y262091D02*
Y270000D01*
X276291Y308672D02*
Y309977D01*
X271200Y253700D02*
Y258700D01*
X190576Y310624D02*
X192881Y308319D01*
X195436D02*
X195678Y308078D01*
X192881Y308319D02*
X195436D01*
X196947Y341600D02*
X209400D01*
X190576Y310624D02*
Y313771D01*
X276502Y296658D02*
X278058D01*
X276488Y296300D02*
Y296644D01*
X276502Y296658D01*
X278058D02*
X279800Y298400D01*
X281377Y307390D02*
X287162D01*
X287272Y307500D01*
X281267Y307281D02*
X281377Y307390D01*
X272900Y315200D02*
X276115D01*
X278815Y312500D01*
X267200Y306600D02*
Y326118D01*
Y306600D02*
X271300Y302500D01*
X267200Y326118D02*
X274591Y333509D01*
X271300Y302500D02*
X287272D01*
X274591Y333509D02*
Y334100D01*
X189847Y314500D02*
X190576Y313771D01*
X187189Y314500D02*
X189847D01*
X220100Y274400D02*
X229707D01*
X240358Y263749D01*
Y248591D02*
Y263749D01*
X321681Y333807D02*
X325500D01*
X320435Y347928D02*
X323298D01*
X330500Y329316D02*
Y344600D01*
X329100Y346000D02*
X330500Y344600D01*
X333200Y330144D02*
Y347400D01*
X325496Y324312D02*
X330500Y329316D01*
X333200Y330144D02*
X334944Y328400D01*
X339200D01*
X340200Y318400D02*
Y327400D01*
X339200Y328400D02*
X340200Y327400D01*
X327400Y317500D02*
X339300D01*
X325594Y315694D02*
X327400Y317500D01*
X339300D02*
X340200Y318400D01*
X313600Y335644D02*
Y347700D01*
X308728Y335000D02*
X312956D01*
X313600Y335644D01*
X324994Y317500D02*
X325594Y316900D01*
Y315694D02*
Y316900D01*
X308728Y317500D02*
X324994D01*
X325594Y311869D02*
Y315694D01*
X330663Y349937D02*
X333200Y347400D01*
X323339Y346000D02*
X329100D01*
X323339Y349937D02*
X330663D01*
X323298Y347928D02*
X323339Y347968D01*
X286500Y238400D02*
X369390D01*
X271200Y253700D02*
X286500Y238400D01*
X187189Y334500D02*
X189847D01*
X196947Y341600D01*
X175800Y337900D02*
Y341354D01*
X179200Y334500D02*
X187000D01*
X385290Y222500D02*
Y222697D01*
X382690Y225100D02*
X382887D01*
X369390Y238400D02*
X382690Y225100D01*
X382887D02*
X385290Y222697D01*
X342498Y202110D02*
X342609Y202000D01*
X331034Y202110D02*
X342498D01*
X331034Y222720D02*
X342388D01*
X342609Y222500D01*
X322279Y205402D02*
X322766Y205890D01*
X296323Y205402D02*
X322279D01*
X254091Y215173D02*
X286552D01*
X296323Y205402D01*
X186596Y405012D02*
X188000D01*
X185138Y403554D02*
X186596Y405012D01*
X178579Y395590D02*
X185138Y402150D01*
Y403554D01*
X132657Y395590D02*
X178579D01*
X208209Y262000D02*
Y307800D01*
X233382Y255436D02*
Y255778D01*
X234453Y248591D02*
Y254366D01*
X233382Y255436D02*
X234453Y254366D01*
X260027Y222427D02*
Y234800D01*
X263371Y320536D02*
Y321928D01*
X262709Y321266D02*
X263371Y321928D01*
X262709Y324190D02*
Y334000D01*
X280109Y317500D02*
X287272D01*
X276488Y321120D02*
Y321828D01*
Y321120D02*
X280109Y317500D01*
X278873Y330828D02*
X286444D01*
X276587Y333114D02*
X278873Y330828D01*
X286444D02*
X287272Y330000D01*
X269161Y134571D02*
Y164987D01*
X267591Y133000D02*
X269161Y134571D01*
X259464Y211236D02*
X290600Y180100D01*
X175500Y296110D02*
Y307646D01*
Y296110D02*
X175610Y296000D01*
X173207Y293397D02*
Y293597D01*
X162900Y246200D02*
Y283090D01*
X173207Y293397D01*
Y293597D02*
X175610Y296000D01*
X162900Y246200D02*
X166398Y242702D01*
X167944D01*
X169657Y240988D02*
X178886D01*
X249919Y184827D02*
X249946Y184800D01*
X351286Y334078D02*
X353000Y335791D01*
X349362Y334000D02*
X349440Y334078D01*
X351286D01*
X337504Y334000D02*
X349362D01*
X340661Y347968D02*
X352240D01*
X353000Y347209D01*
X323339Y342063D02*
X323379Y342022D01*
X325856D01*
X326500Y341378D01*
Y334807D02*
Y341378D01*
X214500Y383823D02*
X225622D01*
X228008Y386209D02*
X228500D01*
X225622Y383823D02*
X228008Y386209D01*
X246264Y199399D02*
X250388Y195275D01*
X254091Y211236D02*
X259464D01*
X224610Y187710D02*
Y203409D01*
X173169Y136269D02*
X224610Y187710D01*
X166819Y133157D02*
X169931Y136269D01*
X173169D01*
X220512Y192000D02*
X220673Y192161D01*
X188000Y216854D02*
X188157Y217012D01*
X168693Y216854D02*
X188000D01*
X197500Y240988D02*
X197724Y240764D01*
X197554Y228458D02*
Y230033D01*
X193587Y234000D02*
X197554Y230033D01*
Y228458D02*
X199012Y227000D01*
X160692Y230871D02*
X162209Y229354D01*
X162406D01*
X160692Y230871D02*
Y231218D01*
X132500Y259409D02*
X160692Y231218D01*
X278815Y312500D02*
X287272D01*
X373791Y304500D02*
X437500D01*
X276291Y309977D02*
X278815Y312500D01*
X169791Y417539D02*
X173500D01*
Y401000D02*
Y417539D01*
X242354Y142646D02*
X252000Y133000D01*
X254091Y236827D02*
X258000D01*
X260027Y234800D01*
X194009Y322000D02*
X208209Y307800D01*
X164800Y322000D02*
X194009D01*
X153600Y310800D02*
X164800Y322000D01*
X129200Y310800D02*
X153600D01*
X226579Y248591D02*
Y261021D01*
X225600Y262000D02*
X226579Y261021D01*
X221791Y262000D02*
X225600D01*
X228547Y248591D02*
Y260147D01*
X230400Y262000D01*
X235209D01*
X250100Y219110D02*
X254091D01*
X250100Y205800D02*
Y219110D01*
X132657Y180819D02*
X168693Y216854D01*
X293900Y226500D02*
X322766D01*
X286510Y219110D02*
X293900Y226500D01*
X254091Y219110D02*
X286510D01*
X175500Y341354D02*
X175800D01*
Y337900D02*
X179200Y334500D01*
X175500Y307646D02*
Y310800D01*
X179200Y314500D01*
X187189D01*
X326000Y174700D02*
Y185280D01*
X187189Y314500D02*
Y319500D01*
X178886Y240988D02*
X188193D01*
X197500D01*
X385290Y181500D02*
Y202000D01*
Y222500D01*
X333161Y146771D02*
Y164987D01*
X333091Y146700D02*
X333161Y146771D01*
X333091Y133000D02*
Y146700D01*
X353000Y323709D02*
Y335791D01*
Y323709D02*
X360209Y316500D01*
Y304500D02*
Y316500D01*
X340661Y344031D02*
Y346000D01*
Y342063D02*
Y344031D01*
Y347968D02*
Y349937D01*
X331034Y181500D02*
X342609D01*
X209500Y377509D02*
Y383823D01*
Y377509D02*
X212709Y374300D01*
Y368000D02*
Y374300D01*
X356191Y181500D02*
X371510D01*
X356191Y202000D02*
X371510D01*
X356191Y222500D02*
X371510D01*
X189390Y296000D02*
X201094D01*
X204853Y228953D02*
X208909D01*
X202900Y227000D02*
X204853Y228953D01*
X199012Y227000D02*
X202900D01*
X162406Y229354D02*
X175594D01*
X228500Y386209D02*
X246000D01*
D84*
X395331Y133331D02*
Y164987D01*
X395661D02*
X397039D01*
X398439Y166386D02*
Y167764D01*
X420500Y189825D02*
Y204461D01*
X397039Y164987D02*
X398439Y166386D01*
Y167764D02*
X420500Y189825D01*
X189657Y405094D02*
X199417D01*
X188083D02*
X189657D01*
X190094Y405531D01*
X189575Y405012D02*
X189657Y405094D01*
X187189Y329500D02*
Y334500D01*
X187000D02*
Y357110D01*
X196807Y368000D02*
Y369083D01*
Y366917D02*
Y368000D01*
X395000Y133000D02*
X395331Y133331D01*
X188000Y405012D02*
X188083Y405094D01*
X196807Y369083D02*
X199500Y371776D01*
Y383823D01*
X187000Y357110D02*
X196807Y366917D01*
X190094Y405531D02*
Y417539D01*
X189091Y467587D02*
X202013D01*
X210000Y459600D01*
Y445100D02*
Y459600D01*
X190094Y425194D02*
X210000Y445100D01*
X190094Y417539D02*
Y425194D01*
D85*
X315355Y165470D02*
X315839Y164987D01*
X305698Y165470D02*
X315355D01*
X305677Y165490D02*
X305698Y165470D01*
X377855D02*
X378339Y164987D01*
X368698Y165470D02*
X377855D01*
X368677Y165490D02*
X368698Y165470D01*
X368677Y143732D02*
Y165490D01*
X379409Y133000D02*
X388409Y124000D01*
X419601D01*
X368677Y143732D02*
X379409Y133000D01*
D86*
X566027Y188500D02*
X566028Y188500D01*
Y270423D01*
X536500Y255423D02*
Y344077D01*
X566027Y329078D02*
X566028Y329077D01*
X566027Y329078D02*
Y411000D01*
D87*
X366252Y454201D02*
D03*
X145886Y339252D02*
D03*
Y279252D02*
D03*
X458315Y454201D02*
D03*
X511248Y146386D02*
D03*
X193343Y454201D02*
D03*
X375157Y146386D02*
D03*
X247748D02*
D03*
X313248D02*
D03*
D88*
X346409Y467587D02*
D03*
X362000D02*
D03*
X132500Y319409D02*
D03*
Y335000D02*
D03*
Y259409D02*
D03*
Y275000D02*
D03*
X438472Y467587D02*
D03*
X454063D02*
D03*
X515500Y133000D02*
D03*
X531091D02*
D03*
X189091Y467587D02*
D03*
X173500D02*
D03*
X379409Y133000D02*
D03*
X395000D02*
D03*
X267591D02*
D03*
X252000D02*
D03*
X333091D02*
D03*
X317500D02*
D03*
D89*
X122000Y479000D02*
D03*
X578000D02*
D03*
Y121000D02*
D03*
X122000D02*
D03*
D90*
X132657Y212000D02*
D03*
Y426772D02*
D03*
D91*
Y196410D02*
D03*
Y180819D02*
D03*
Y165228D02*
D03*
Y380000D02*
D03*
Y395590D02*
D03*
Y411181D02*
D03*
X213591Y133157D02*
D03*
X198000D02*
D03*
X182409D02*
D03*
D92*
X146043Y216252D02*
D03*
Y431024D02*
D03*
X162567Y146543D02*
D03*
D93*
X380000Y332000D02*
D03*
Y442000D02*
D03*
X485500Y366500D02*
D03*
Y256500D02*
D03*
D94*
X468000Y411000D02*
D03*
X438472D02*
D03*
Y396000D02*
D03*
X468000D02*
D03*
X566027D02*
D03*
X536500D02*
D03*
Y411000D02*
D03*
X566027D02*
D03*
X566028Y255423D02*
D03*
X536500D02*
D03*
Y270423D02*
D03*
X566028D02*
D03*
X536500Y203500D02*
D03*
X566027D02*
D03*
Y188500D02*
D03*
X536500D02*
D03*
X536500Y344077D02*
D03*
X566028D02*
D03*
Y329077D02*
D03*
X536500D02*
D03*
D95*
X166819Y133157D02*
D03*
D96*
X400000Y240000D02*
D03*
X410000Y220000D02*
D03*
X400000Y200000D02*
D03*
X380000Y240000D02*
D03*
X350000Y220000D02*
D03*
Y180000D02*
D03*
X340000Y160000D02*
D03*
X310000Y220000D02*
D03*
X300000Y200000D02*
D03*
X280000Y240000D02*
D03*
Y200000D02*
D03*
Y160000D02*
D03*
X290000Y140000D02*
D03*
X260000Y480000D02*
D03*
X270000Y460000D02*
D03*
X260000Y440000D02*
D03*
X270000Y420000D02*
D03*
X260000Y400000D02*
D03*
X270000Y380000D02*
D03*
X260000Y360000D02*
D03*
X270000Y340000D02*
D03*
X260000Y280000D02*
D03*
X270000Y180000D02*
D03*
X260000Y160000D02*
D03*
X240000Y480000D02*
D03*
X250000Y460000D02*
D03*
X240000Y440000D02*
D03*
X250000Y420000D02*
D03*
Y380000D02*
D03*
X240000Y360000D02*
D03*
X250000Y340000D02*
D03*
X240000Y320000D02*
D03*
X220000Y480000D02*
D03*
X230000Y460000D02*
D03*
X220000Y440000D02*
D03*
X230000Y380000D02*
D03*
X220000Y360000D02*
D03*
X230000Y340000D02*
D03*
Y220000D02*
D03*
X220000Y160000D02*
D03*
X200000Y360000D02*
D03*
Y320000D02*
D03*
Y280000D02*
D03*
X210000Y180000D02*
D03*
X180000Y440000D02*
D03*
X190000Y380000D02*
D03*
X180000Y280000D02*
D03*
X190000Y180000D02*
D03*
X180000Y160000D02*
D03*
X160000Y440000D02*
D03*
Y400000D02*
D03*
X170000Y380000D02*
D03*
X160000Y360000D02*
D03*
Y240000D02*
D03*
Y200000D02*
D03*
X170000Y180000D02*
D03*
X140000Y480000D02*
D03*
X150000Y460000D02*
D03*
X140000Y360000D02*
D03*
X150000Y300000D02*
D03*
X140000Y240000D02*
D03*
Y120000D02*
D03*
X130000Y460000D02*
D03*
X120000Y360000D02*
D03*
X130000Y300000D02*
D03*
X120000Y240000D02*
D03*
X316000Y332507D02*
D03*
X319000Y337100D02*
D03*
X321751Y306400D02*
D03*
X317900Y302500D02*
D03*
X315800Y310800D02*
D03*
X320300Y328700D02*
D03*
X331100Y311900D02*
D03*
Y323100D02*
D03*
X342700Y302669D02*
D03*
X243400Y243200D02*
D03*
X203100Y397200D02*
D03*
X210900Y391800D02*
D03*
X203100D02*
D03*
X210900Y397200D02*
D03*
X207000Y394500D02*
D03*
X221200Y308100D02*
D03*
X245000Y284600D02*
D03*
X248700Y270000D02*
D03*
X195678Y308078D02*
D03*
X209400Y341600D02*
D03*
X279800Y298400D02*
D03*
X281267Y307281D02*
D03*
X272900Y315200D02*
D03*
X220100Y274400D02*
D03*
X233382Y255778D02*
D03*
X260027Y222427D02*
D03*
X437500Y304500D02*
D03*
M02*
