M48
;Layer_Color=9474304
;FILE_FORMAT=2:4
INCH,TZ
;TYPE=PLATED
T01F00S00C0.0118
T02F00S00C0.0256
T03F00S00C0.0330
T04F00S00C0.0713
T05F00S00C0.0744
;TYPE=NON_PLATED
T06F00S00C0.0701
T07F00S00C0.0732
T08F00S00C0.1319
%
T01
X14000Y12000
X29000Y14000
X34000Y16000
X35000Y18000
Y22000
X38000Y24000
X40000
X41000Y22000
X40000Y20000
X43750Y30450
X34270Y30267
X33110Y31190
X32175Y30640
X31790Y30250
X31580Y31080
X28127Y30728
X27980Y29840
X26000Y28000
X24500Y28460
X24870Y27000
X23338Y25578
X24340Y24320
X23000Y22000
X26003Y22243
X28000Y24000
Y20000
X30000
X31000Y22000
X27000Y18000
X28000Y16000
X26000
X22000
X21000Y18000
X19000
X17000
X18000Y16000
X16000Y20000
Y24000
X18000Y28000
X20000
X22010Y27440
X22120Y30810
X19568Y30808
X15000Y30000
X13000
X14000Y24000
X12000
Y36000
X14000
X15000Y46000
X13000
X16000Y44000
X18000
X22000
X24000
X26000
X27000Y46000
X25000
X23000
X25000Y42000
X27000
X26000Y40000
X27000Y38000
X25000
X23000
X24000Y36000
X26000
X27000Y34000
X25000
X23000
X20940Y34160
X20000Y36000
X22000
X21090Y39180
Y39720
X20700Y39450
X20310Y39720
Y39180
X19000Y38000
X17000
X16000Y40000
Y36000
X20000Y32000
X24000
X27290Y31520
X31600Y33251
X31900Y33710
X32030Y32870
X33110Y32310
X26000Y48000
X24000
X22000
X14000
T02
X53650Y18850
Y20350
X56603
Y18850
X56603Y25542
Y27042
X53650
Y25542
X46800Y39600
Y41100
X43847
Y39600
X53650
Y41100
X56603
Y39600
X56603Y34408
Y32908
X53650
Y34408
T03
X48550Y25650
X38000Y33200
Y44200
X48550Y36650
T04
X16682Y13316
X18241
X19800
X21359
X13266Y16523
Y18082
Y19641
Y21200
Y38000
Y39559
Y41118
Y42677
T05
X25200Y13300
X26759
X31750
X33309
X37941
X39500
X51550
X53109
X13250Y25941
Y27500
Y31941
Y33500
X17350Y46759
X18909
X34641
X36200
X43847
X45406
T06
X16257Y14654
X14604Y21625
Y43102
T07
X24775Y14639
X31325
X37516
X51125
X14589Y27925
Y33925
X19334Y45420
X36625
X45831
T08
X12200Y12100
X57800
Y47900
X12200
M30
