G04*
G04 #@! TF.GenerationSoftware,Altium Limited,Altium Designer,25.4.2 (15)*
G04*
G04 Layer_Color=255*
%FSLAX25Y25*%
%MOIN*%
G70*
G04*
G04 #@! TF.SameCoordinates,F5E4941F-37D6-4625-B3FB-1CEAEB739549*
G04*
G04*
G04 #@! TF.FilePolarity,Positive*
G04*
G01*
G75*
%ADD15R,0.09055X0.06299*%
%ADD16R,0.05906X0.06299*%
%ADD17R,0.02264X0.02441*%
%ADD18R,0.04213X0.07008*%
%ADD19R,0.02559X0.06004*%
%ADD20R,0.12205X0.09449*%
%ADD21R,0.04921X0.06102*%
%ADD22R,0.05709X0.02756*%
%ADD23R,0.04724X0.07480*%
%ADD24R,0.04528X0.06693*%
%ADD25R,0.04331X0.07087*%
%ADD26R,0.04528X0.07087*%
%ADD27R,0.05512X0.01181*%
%ADD28R,0.07087X0.04528*%
%ADD29R,0.04134X0.07087*%
%ADD30R,0.07008X0.04213*%
%ADD31R,0.07874X0.02559*%
%ADD32R,0.07874X0.12598*%
%ADD33R,0.07874X0.07087*%
%ADD34R,0.06299X0.05906*%
%ADD35R,0.07165X0.04016*%
%ADD36R,0.04016X0.07165*%
%ADD37R,0.05906X0.04921*%
%ADD38R,0.04134X0.06299*%
%ADD39R,0.04921X0.05906*%
%ADD40R,0.04331X0.02559*%
%ADD41R,0.05807X0.01181*%
%ADD42R,0.01181X0.05807*%
%ADD43R,0.04528X0.04134*%
%ADD87C,0.03661*%
%ADD88C,0.11161*%
%ADD89C,0.06000*%
%ADD90R,0.10689X0.10689*%
%ADD91C,0.10689*%
%ADD92C,0.03504*%
%ADD93C,0.06600*%
%ADD94C,0.04693*%
%ADD95R,0.10689X0.10689*%
D15*
X378339Y164987D02*
D03*
X395661D02*
D03*
X269161D02*
D03*
X251839D02*
D03*
X333161D02*
D03*
X315839D02*
D03*
D16*
X385290Y202000D02*
D03*
X371510D02*
D03*
X175610Y296000D02*
D03*
X189390D02*
D03*
X371510Y222500D02*
D03*
X385290D02*
D03*
X371510Y181500D02*
D03*
X385290D02*
D03*
D17*
X368677Y165490D02*
D03*
X359323Y161750D02*
D03*
Y169231D02*
D03*
X305677Y165490D02*
D03*
X296323Y161750D02*
D03*
Y169231D02*
D03*
X233000D02*
D03*
Y161750D02*
D03*
X242354Y165490D02*
D03*
D18*
X261413Y184700D02*
D03*
X250705D02*
D03*
D19*
X214500Y405177D02*
D03*
X209500D02*
D03*
X204500D02*
D03*
X199500D02*
D03*
Y383823D02*
D03*
X204500D02*
D03*
X209500D02*
D03*
X214500D02*
D03*
D20*
X207000Y394500D02*
D03*
D21*
X274591Y334100D02*
D03*
X261009D02*
D03*
X274591Y308772D02*
D03*
X261009D02*
D03*
X360209Y304500D02*
D03*
X373791D02*
D03*
D22*
X308728Y330000D02*
D03*
Y335000D02*
D03*
Y340000D02*
D03*
Y345000D02*
D03*
X287272D02*
D03*
Y340000D02*
D03*
Y335000D02*
D03*
Y330000D02*
D03*
Y317500D02*
D03*
Y312500D02*
D03*
Y307500D02*
D03*
Y302500D02*
D03*
X308728D02*
D03*
Y307500D02*
D03*
Y312500D02*
D03*
Y317500D02*
D03*
D23*
X325693Y334000D02*
D03*
X337504D02*
D03*
D24*
X325594Y301000D02*
D03*
X337406D02*
D03*
X325594Y311869D02*
D03*
X337406D02*
D03*
D25*
X325496Y322934D02*
D03*
X336913D02*
D03*
D26*
X274788Y296600D02*
D03*
X263371D02*
D03*
X274788Y321928D02*
D03*
X263371D02*
D03*
X169791Y417539D02*
D03*
X181209D02*
D03*
D27*
X340661Y342063D02*
D03*
Y344031D02*
D03*
Y346000D02*
D03*
Y347968D02*
D03*
Y349937D02*
D03*
X323339D02*
D03*
Y347968D02*
D03*
Y346000D02*
D03*
Y344031D02*
D03*
Y342063D02*
D03*
D28*
X353000Y347209D02*
D03*
Y335791D02*
D03*
D29*
X212906Y296000D02*
D03*
X201094D02*
D03*
X190094Y417539D02*
D03*
X201906D02*
D03*
D30*
X175500Y330646D02*
D03*
Y341354D02*
D03*
Y318354D02*
D03*
Y307646D02*
D03*
X188000Y216854D02*
D03*
Y206146D02*
D03*
X169500Y241146D02*
D03*
Y251854D02*
D03*
D31*
X187189Y334500D02*
D03*
Y329500D02*
D03*
Y324500D02*
D03*
Y319500D02*
D03*
Y314500D02*
D03*
D32*
X210811Y324500D02*
D03*
D33*
X420500Y124539D02*
D03*
Y204461D02*
D03*
X480500Y219500D02*
D03*
Y109500D02*
D03*
D34*
X173500Y401000D02*
D03*
Y387220D02*
D03*
D35*
X188000Y405012D02*
D03*
Y393988D02*
D03*
X263000Y243988D02*
D03*
Y255012D02*
D03*
X197500Y217012D02*
D03*
Y205988D02*
D03*
Y240988D02*
D03*
Y252012D02*
D03*
X178886Y240988D02*
D03*
Y252012D02*
D03*
X188193Y240988D02*
D03*
Y252012D02*
D03*
D36*
X211988Y417500D02*
D03*
X223012D02*
D03*
X199012Y227000D02*
D03*
X187988D02*
D03*
X250488Y193700D02*
D03*
X261512D02*
D03*
X219312Y191000D02*
D03*
X208288D02*
D03*
D37*
X228500Y399791D02*
D03*
Y386209D02*
D03*
X246000D02*
D03*
Y399791D02*
D03*
D38*
X196807Y368000D02*
D03*
X185193D02*
D03*
D39*
X212709D02*
D03*
X226291D02*
D03*
X356191Y222500D02*
D03*
X342609D02*
D03*
X356191Y181500D02*
D03*
X342609D02*
D03*
X356191Y202000D02*
D03*
X342609D02*
D03*
X208209Y262000D02*
D03*
X221791D02*
D03*
X248791D02*
D03*
X235209D02*
D03*
D40*
X331034Y222720D02*
D03*
X322766Y218941D02*
D03*
Y226500D02*
D03*
X331034Y181500D02*
D03*
X322766Y177720D02*
D03*
Y185280D02*
D03*
X331034Y202110D02*
D03*
X322766Y198331D02*
D03*
Y205890D02*
D03*
D41*
X208909Y240764D02*
D03*
Y238795D02*
D03*
Y236827D02*
D03*
Y234858D02*
D03*
Y232890D02*
D03*
Y230921D02*
D03*
Y228953D02*
D03*
Y226984D02*
D03*
Y225016D02*
D03*
Y223047D02*
D03*
Y221079D02*
D03*
Y219110D02*
D03*
Y217142D02*
D03*
Y215173D02*
D03*
Y213205D02*
D03*
Y211236D02*
D03*
X254091D02*
D03*
Y213205D02*
D03*
Y215173D02*
D03*
Y217142D02*
D03*
Y219110D02*
D03*
Y221079D02*
D03*
Y223047D02*
D03*
Y225016D02*
D03*
Y226984D02*
D03*
Y228953D02*
D03*
Y230921D02*
D03*
Y232890D02*
D03*
Y234858D02*
D03*
Y236827D02*
D03*
Y238795D02*
D03*
Y240764D02*
D03*
D42*
X216736Y203409D02*
D03*
X218705D02*
D03*
X220673D02*
D03*
X222642D02*
D03*
X224610D02*
D03*
X226579D02*
D03*
X228547D02*
D03*
X230516D02*
D03*
X232484D02*
D03*
X234453D02*
D03*
X236421D02*
D03*
X238390D02*
D03*
X240358D02*
D03*
X242327D02*
D03*
X244295D02*
D03*
X246264D02*
D03*
Y248591D02*
D03*
X244295D02*
D03*
X242327D02*
D03*
X240358D02*
D03*
X238390D02*
D03*
X236421D02*
D03*
X234453D02*
D03*
X232484D02*
D03*
X230516D02*
D03*
X228547D02*
D03*
X226579D02*
D03*
X224610D02*
D03*
X222642D02*
D03*
X220673D02*
D03*
X218705D02*
D03*
X216736D02*
D03*
D43*
X175594Y223646D02*
D03*
Y229354D02*
D03*
X162406Y223646D02*
D03*
Y229354D02*
D03*
D87*
X366252Y454201D02*
D03*
X145886Y339252D02*
D03*
Y279252D02*
D03*
X458315Y454201D02*
D03*
X511248Y146386D02*
D03*
X193343Y454201D02*
D03*
X375157Y146386D02*
D03*
X247748D02*
D03*
X313248D02*
D03*
D88*
X346409Y467587D02*
D03*
X362000D02*
D03*
X132500Y319409D02*
D03*
Y335000D02*
D03*
Y259409D02*
D03*
Y275000D02*
D03*
X438472Y467587D02*
D03*
X454063D02*
D03*
X515500Y133000D02*
D03*
X531091D02*
D03*
X189091Y467587D02*
D03*
X173500D02*
D03*
X379409Y133000D02*
D03*
X395000D02*
D03*
X267591D02*
D03*
X252000D02*
D03*
X333091D02*
D03*
X317500D02*
D03*
D89*
X122000Y479000D02*
D03*
X578000D02*
D03*
Y121000D02*
D03*
X122000D02*
D03*
D90*
X132657Y212000D02*
D03*
Y426772D02*
D03*
D91*
Y196410D02*
D03*
Y180819D02*
D03*
Y165228D02*
D03*
Y380000D02*
D03*
Y395590D02*
D03*
Y411181D02*
D03*
X213591Y133157D02*
D03*
X198000D02*
D03*
X182409D02*
D03*
D92*
X146043Y216252D02*
D03*
Y431024D02*
D03*
X162567Y146543D02*
D03*
D93*
X380000Y332000D02*
D03*
Y442000D02*
D03*
X485500Y366500D02*
D03*
Y256500D02*
D03*
D94*
X468000Y411000D02*
D03*
X438472D02*
D03*
Y396000D02*
D03*
X468000D02*
D03*
X566027D02*
D03*
X536500D02*
D03*
Y411000D02*
D03*
X566027D02*
D03*
X566028Y255423D02*
D03*
X536500D02*
D03*
Y270423D02*
D03*
X566028D02*
D03*
X536500Y203500D02*
D03*
X566027D02*
D03*
Y188500D02*
D03*
X536500D02*
D03*
X536500Y344077D02*
D03*
X566028D02*
D03*
Y329077D02*
D03*
X536500D02*
D03*
D95*
X166819Y133157D02*
D03*
M02*
