G04*
G04 #@! TF.GenerationSoftware,Altium Limited,Altium Designer,25.4.2 (15)*
G04*
G04 Layer_Color=128*
%FSLAX25Y25*%
%MOIN*%
G70*
G04*
G04 #@! TF.SameCoordinates,A2AFCD61-8CFB-4850-B36F-511F7CF8CF32*
G04*
G04*
G04 #@! TF.FilePolarity,Positive*
G04*
G01*
G75*
%ADD102C,0.00500*%
D102*
X362591Y454201D02*
X369913D01*
X366252Y450539D02*
Y457862D01*
X342689Y467587D02*
X350130D01*
X346409Y463866D02*
Y471307D01*
X358279Y467587D02*
X365721D01*
X362000Y463866D02*
Y471307D01*
X115405Y479000D02*
X128595D01*
X122000Y472405D02*
Y485595D01*
X571406Y479000D02*
X584594D01*
X578000Y472405D02*
Y485595D01*
X571406Y121000D02*
X584594D01*
X578000Y114406D02*
Y127594D01*
X115405Y121000D02*
X128595D01*
X122000Y114406D02*
Y127594D01*
X129094Y212000D02*
X136220D01*
X132657Y208437D02*
Y215563D01*
X129094Y196410D02*
X136220D01*
X132657Y192847D02*
Y199973D01*
X129094Y180819D02*
X136220D01*
X132657Y177256D02*
Y184382D01*
X129094Y165228D02*
X136220D01*
X132657Y161665D02*
Y168791D01*
X142539Y216252D02*
X149547D01*
X146043Y212748D02*
Y219756D01*
X142539Y431024D02*
X149547D01*
X146043Y427520D02*
Y434527D01*
X129094Y380000D02*
X136220D01*
X132657Y376437D02*
Y383563D01*
X129094Y395590D02*
X136220D01*
X132657Y392027D02*
Y399153D01*
X129094Y411181D02*
X136220D01*
X132657Y407618D02*
Y414744D01*
X129094Y426772D02*
X136220D01*
X132657Y423209D02*
Y430335D01*
X142224Y339252D02*
X149547D01*
X145886Y335591D02*
Y342913D01*
X128779Y319409D02*
X136221D01*
X132500Y315689D02*
Y323130D01*
X128779Y335000D02*
X136221D01*
X132500Y331279D02*
Y338720D01*
X142224Y279252D02*
X149547D01*
X145886Y275591D02*
Y282913D01*
X128779Y259409D02*
X136221D01*
X132500Y255689D02*
Y263130D01*
X128779Y275000D02*
X136221D01*
X132500Y271280D02*
Y278720D01*
X378350Y332000D02*
X381650D01*
X380000Y330350D02*
Y333650D01*
X378350Y442000D02*
X381650D01*
X380000Y440350D02*
Y443650D01*
X483850Y366500D02*
X487150D01*
X485500Y364850D02*
Y368150D01*
X483850Y256500D02*
X487150D01*
X485500Y254850D02*
Y258150D01*
X454654Y454201D02*
X461976D01*
X458315Y450539D02*
Y457862D01*
X434752Y467587D02*
X442193D01*
X438472Y463866D02*
Y471307D01*
X450343Y467587D02*
X457784D01*
X454063Y463866D02*
Y471307D01*
X466720Y411000D02*
X469279D01*
X468000Y409721D02*
Y412280D01*
X437193Y411000D02*
X439752D01*
X438472Y409721D02*
Y412280D01*
X437193Y396000D02*
X439752D01*
X438472Y394721D02*
Y397280D01*
X466720Y396000D02*
X469279D01*
X468000Y394721D02*
Y397280D01*
X564748Y396000D02*
X567307D01*
X566027Y394721D02*
Y397280D01*
X535220Y396000D02*
X537779D01*
X536500Y394721D02*
Y397280D01*
X535220Y411000D02*
X537779D01*
X536500Y409721D02*
Y412280D01*
X564748Y411000D02*
X567307D01*
X566027Y409721D02*
Y412280D01*
X564748Y255423D02*
X567307D01*
X566028Y254143D02*
Y256702D01*
X535220Y255423D02*
X537780D01*
X536500Y254143D02*
Y256702D01*
X535220Y270423D02*
X537780D01*
X536500Y269143D02*
Y271702D01*
X564748Y270423D02*
X567307D01*
X566028Y269143D02*
Y271702D01*
X535220Y203500D02*
X537779D01*
X536500Y202221D02*
Y204780D01*
X564748Y203500D02*
X567307D01*
X566027Y202221D02*
Y204780D01*
X564748Y188500D02*
X567307D01*
X566027Y187221D02*
Y189779D01*
X535220Y188500D02*
X537779D01*
X536500Y187221D02*
Y189779D01*
X511779Y133000D02*
X519220D01*
X515500Y129279D02*
Y136721D01*
X527370Y133000D02*
X534811D01*
X531091Y129279D02*
Y136721D01*
X507587Y146386D02*
X514909D01*
X511248Y142724D02*
Y150047D01*
X535220Y344077D02*
X537780D01*
X536500Y342798D02*
Y345357D01*
X564748Y344077D02*
X567307D01*
X566028Y342798D02*
Y345357D01*
X564748Y329077D02*
X567307D01*
X566028Y327798D02*
Y330357D01*
X535220Y329077D02*
X537780D01*
X536500Y327798D02*
Y330357D01*
X185370Y467587D02*
X192811D01*
X189091Y463866D02*
Y471307D01*
X169780Y467587D02*
X177220D01*
X173500Y463866D02*
Y471307D01*
X189681Y454201D02*
X197004D01*
X193343Y450539D02*
Y457862D01*
X375689Y133000D02*
X383130D01*
X379409Y129279D02*
Y136721D01*
X391280Y133000D02*
X398721D01*
X395000Y129279D02*
Y136721D01*
X371496Y146386D02*
X378819D01*
X375157Y142724D02*
Y150047D01*
X244087Y146386D02*
X251409D01*
X247748Y142724D02*
Y150047D01*
X263870Y133000D02*
X271311D01*
X267591Y129279D02*
Y136721D01*
X248280Y133000D02*
X255720D01*
X252000Y129279D02*
Y136721D01*
X309587Y146386D02*
X316909D01*
X313248Y142724D02*
Y150047D01*
X329370Y133000D02*
X336811D01*
X333091Y129279D02*
Y136721D01*
X313779Y133000D02*
X321220D01*
X317500Y129279D02*
Y136721D01*
X159063Y146543D02*
X166071D01*
X162567Y143039D02*
Y150047D01*
X210028Y133157D02*
X217154D01*
X213591Y129594D02*
Y136720D01*
X194437Y133157D02*
X201563D01*
X198000Y129594D02*
Y136720D01*
X178846Y133157D02*
X185972D01*
X182409Y129594D02*
Y136720D01*
X163256Y133157D02*
X170382D01*
X166819Y129594D02*
Y136720D01*
X399410Y240000D02*
X400591D01*
X400000Y239409D02*
Y240591D01*
X409410Y220000D02*
X410591D01*
X410000Y219409D02*
Y220590D01*
X399410Y200000D02*
X400591D01*
X400000Y199409D02*
Y200591D01*
X379410Y240000D02*
X380591D01*
X380000Y239409D02*
Y240591D01*
X349410Y220000D02*
X350590D01*
X350000Y219409D02*
Y220590D01*
X349410Y180000D02*
X350590D01*
X350000Y179409D02*
Y180591D01*
X339409Y160000D02*
X340591D01*
X340000Y159409D02*
Y160591D01*
X309409Y220000D02*
X310591D01*
X310000Y219409D02*
Y220590D01*
X299410Y200000D02*
X300590D01*
X300000Y199409D02*
Y200591D01*
X279410Y240000D02*
X280591D01*
X280000Y239409D02*
Y240591D01*
X279410Y200000D02*
X280591D01*
X280000Y199409D02*
Y200591D01*
X279410Y160000D02*
X280591D01*
X280000Y159409D02*
Y160591D01*
X289409Y140000D02*
X290591D01*
X290000Y139409D02*
Y140591D01*
X259409Y480000D02*
X260591D01*
X260000Y479410D02*
Y480590D01*
X269409Y460000D02*
X270590D01*
X270000Y459410D02*
Y460591D01*
X259409Y440000D02*
X260591D01*
X260000Y439409D02*
Y440590D01*
X269409Y420000D02*
X270590D01*
X270000Y419410D02*
Y420590D01*
X259409Y400000D02*
X260591D01*
X260000Y399410D02*
Y400591D01*
X269409Y380000D02*
X270590D01*
X270000Y379410D02*
Y380591D01*
X259409Y360000D02*
X260591D01*
X260000Y359409D02*
Y360591D01*
X269409Y340000D02*
X270590D01*
X270000Y339409D02*
Y340591D01*
X259409Y280000D02*
X260591D01*
X260000Y279410D02*
Y280591D01*
X269409Y180000D02*
X270590D01*
X270000Y179409D02*
Y180591D01*
X259409Y160000D02*
X260591D01*
X260000Y159409D02*
Y160591D01*
X239409Y480000D02*
X240591D01*
X240000Y479410D02*
Y480590D01*
X249410Y460000D02*
X250590D01*
X250000Y459410D02*
Y460591D01*
X239409Y440000D02*
X240591D01*
X240000Y439409D02*
Y440590D01*
X249410Y420000D02*
X250590D01*
X250000Y419410D02*
Y420590D01*
X249410Y380000D02*
X250590D01*
X250000Y379410D02*
Y380591D01*
X239409Y360000D02*
X240591D01*
X240000Y359409D02*
Y360591D01*
X249410Y340000D02*
X250590D01*
X250000Y339409D02*
Y340591D01*
X239409Y320000D02*
X240591D01*
X240000Y319409D02*
Y320590D01*
X219409Y480000D02*
X220590D01*
X220000Y479410D02*
Y480590D01*
X229410Y460000D02*
X230591D01*
X230000Y459410D02*
Y460591D01*
X219409Y440000D02*
X220590D01*
X220000Y439409D02*
Y440590D01*
X229410Y380000D02*
X230591D01*
X230000Y379410D02*
Y380591D01*
X219409Y360000D02*
X220590D01*
X220000Y359409D02*
Y360591D01*
X229410Y340000D02*
X230591D01*
X230000Y339409D02*
Y340591D01*
X229410Y220000D02*
X230591D01*
X230000Y219409D02*
Y220590D01*
X219409Y160000D02*
X220590D01*
X220000Y159409D02*
Y160591D01*
X199409Y360000D02*
X200591D01*
X200000Y359409D02*
Y360591D01*
X199409Y320000D02*
X200591D01*
X200000Y319409D02*
Y320590D01*
X199409Y280000D02*
X200591D01*
X200000Y279410D02*
Y280591D01*
X209409Y180000D02*
X210591D01*
X210000Y179409D02*
Y180591D01*
X179409Y440000D02*
X180591D01*
X180000Y439409D02*
Y440590D01*
X189409Y380000D02*
X190591D01*
X190000Y379410D02*
Y380591D01*
X179409Y280000D02*
X180591D01*
X180000Y279410D02*
Y280591D01*
X189409Y180000D02*
X190591D01*
X190000Y179409D02*
Y180591D01*
X179409Y160000D02*
X180591D01*
X180000Y159409D02*
Y160591D01*
X159409Y440000D02*
X160591D01*
X160000Y439409D02*
Y440590D01*
X159409Y400000D02*
X160591D01*
X160000Y399410D02*
Y400591D01*
X169409Y380000D02*
X170591D01*
X170000Y379410D02*
Y380591D01*
X159409Y360000D02*
X160591D01*
X160000Y359409D02*
Y360591D01*
X159409Y240000D02*
X160591D01*
X160000Y239409D02*
Y240591D01*
X159409Y200000D02*
X160591D01*
X160000Y199409D02*
Y200591D01*
X169409Y180000D02*
X170591D01*
X170000Y179409D02*
Y180591D01*
X139409Y480000D02*
X140591D01*
X140000Y479410D02*
Y480590D01*
X149409Y460000D02*
X150591D01*
X150000Y459410D02*
Y460591D01*
X139409Y360000D02*
X140591D01*
X140000Y359409D02*
Y360591D01*
X149409Y300000D02*
X150591D01*
X150000Y299410D02*
Y300590D01*
X139409Y240000D02*
X140591D01*
X140000Y239409D02*
Y240591D01*
X139409Y120000D02*
X140591D01*
X140000Y119409D02*
Y120591D01*
X129409Y460000D02*
X130591D01*
X130000Y459410D02*
Y460591D01*
X119409Y360000D02*
X120591D01*
X120000Y359409D02*
Y360591D01*
X129409Y300000D02*
X130591D01*
X130000Y299410D02*
Y300590D01*
X119409Y240000D02*
X120591D01*
X120000Y239409D02*
Y240591D01*
X315409Y332507D02*
X316590D01*
X316000Y331916D02*
Y333097D01*
X318409Y337100D02*
X319590D01*
X319000Y336509D02*
Y337690D01*
X321160Y306400D02*
X322341D01*
X321751Y305809D02*
Y306991D01*
X317309Y302500D02*
X318491D01*
X317900Y301909D02*
Y303091D01*
X315210Y310800D02*
X316390D01*
X315800Y310209D02*
Y311390D01*
X319709Y328700D02*
X320890D01*
X320300Y328110D02*
Y329291D01*
X330509Y311900D02*
X331691D01*
X331100Y311310D02*
Y312491D01*
X330509Y323100D02*
X331691D01*
X331100Y322510D02*
Y323691D01*
X342109Y302669D02*
X343290D01*
X342700Y302078D02*
Y303259D01*
X242810Y243200D02*
X243990D01*
X243400Y242610D02*
Y243791D01*
X202509Y397200D02*
X203691D01*
X203100Y396609D02*
Y397791D01*
X210310Y391800D02*
X211491D01*
X210900Y391210D02*
Y392390D01*
X202509Y391800D02*
X203691D01*
X203100Y391210D02*
Y392390D01*
X210310Y397200D02*
X211491D01*
X210900Y396609D02*
Y397791D01*
X206410Y394500D02*
X207591D01*
X207000Y393910D02*
Y395091D01*
X220609Y308100D02*
X221791D01*
X221200Y307509D02*
Y308691D01*
X244409Y284600D02*
X245590D01*
X245000Y284010D02*
Y285191D01*
X248110Y270000D02*
X249290D01*
X248700Y269409D02*
Y270590D01*
X195087Y308078D02*
X196268D01*
X195678Y307487D02*
Y308668D01*
X208809Y341600D02*
X209991D01*
X209400Y341009D02*
Y342191D01*
X279209Y298400D02*
X280391D01*
X279800Y297810D02*
Y298991D01*
X280677Y307281D02*
X281858D01*
X281267Y306691D02*
Y307872D01*
X272309Y315200D02*
X273491D01*
X272900Y314610D02*
Y315791D01*
X219510Y274400D02*
X220690D01*
X220100Y273810D02*
Y274991D01*
X232792Y255778D02*
X233973D01*
X233382Y255187D02*
Y256368D01*
X259436Y222427D02*
X260617D01*
X260027Y221836D02*
Y223017D01*
X436909Y304500D02*
X438091D01*
X437500Y303909D02*
Y305090D01*
M02*
