G04*
G04 #@! TF.GenerationSoftware,Altium Limited,Altium Designer,26.1.1 (7)*
G04*
G04 Layer_Color=16711935*
%FSLAX25Y25*%
%MOIN*%
G70*
G04*
G04 #@! TF.SameCoordinates,F0A5D353-9683-4E38-81B3-980201B43B56*
G04*
G04*
G04 #@! TF.FilePolarity,Negative*
G04*
G01*
G75*
G04:AMPARAMS|DCode=41|XSize=277.56mil|YSize=124.02mil|CornerRadius=32.48mil|HoleSize=0mil|Usage=FLASHONLY|Rotation=180.000|XOffset=0mil|YOffset=0mil|HoleType=Round|Shape=RoundedRectangle|*
%AMROUNDEDRECTD41*
21,1,0.27756,0.05906,0,0,180.0*
21,1,0.21260,0.12402,0,0,180.0*
1,1,0.06496,-0.10630,0.02953*
1,1,0.06496,0.10630,0.02953*
1,1,0.06496,0.10630,-0.02953*
1,1,0.06496,-0.10630,-0.02953*
%
%ADD41ROUNDEDRECTD41*%
%ADD42C,0.07480*%
%ADD43R,0.07480X0.07480*%
%ADD44C,0.07191*%
G04:AMPARAMS|DCode=45|XSize=277.56mil|YSize=124.02mil|CornerRadius=32.48mil|HoleSize=0mil|Usage=FLASHONLY|Rotation=90.000|XOffset=0mil|YOffset=0mil|HoleType=Round|Shape=RoundedRectangle|*
%AMROUNDEDRECTD45*
21,1,0.27756,0.05906,0,0,90.0*
21,1,0.21260,0.12402,0,0,90.0*
1,1,0.06496,0.02953,0.10630*
1,1,0.06496,0.02953,-0.10630*
1,1,0.06496,-0.02953,-0.10630*
1,1,0.06496,-0.02953,0.10630*
%
%ADD45ROUNDEDRECTD45*%
%ADD46C,0.06591*%
%ADD47C,0.07087*%
%ADD48R,0.07087X0.07087*%
%ADD49R,0.07480X0.07480*%
%ADD50C,0.06200*%
%ADD51R,0.06200X0.06200*%
%ADD52R,0.22973X0.22973*%
%ADD53C,0.22973*%
D41*
X209000Y549000D02*
D03*
X55000Y548500D02*
D03*
D42*
X497000Y563500D02*
D03*
X497000Y391000D02*
D03*
Y350000D02*
D03*
X118000Y625846D02*
D03*
X497000Y260500D02*
D03*
Y161000D02*
D03*
X338000Y12346D02*
D03*
X419500D02*
D03*
D43*
X475346Y563500D02*
D03*
X475346Y391000D02*
D03*
Y350000D02*
D03*
X475346Y260500D02*
D03*
Y161000D02*
D03*
D44*
X160500Y327500D02*
D03*
X270500D02*
D03*
X148218Y532282D02*
D03*
X226000Y454500D02*
D03*
X134891Y441391D02*
D03*
X57109Y363609D02*
D03*
D45*
X112500Y203000D02*
D03*
Y57000D02*
D03*
D46*
X22000Y638500D02*
D03*
Y22000D02*
D03*
X487000D02*
D03*
Y638500D02*
D03*
D47*
X326815Y513630D02*
D03*
Y612055D02*
D03*
X346500Y553000D02*
D03*
D48*
Y572685D02*
D03*
D49*
X118000Y647500D02*
D03*
X338000Y34000D02*
D03*
X419500D02*
D03*
D50*
X121000Y471000D02*
D03*
X66000D02*
D03*
D51*
X141000D02*
D03*
X86000D02*
D03*
D52*
X132000Y279000D02*
D03*
Y126000D02*
D03*
D53*
X294205Y279000D02*
D03*
Y126000D02*
D03*
M02*
