G04*
G04 #@! TF.GenerationSoftware,Altium Limited,Altium Designer,26.1.1 (7)*
G04*
G04 Layer_Color=32896*
%FSLAX25Y25*%
%MOIN*%
G70*
G04*
G04 #@! TF.SameCoordinates,F0A5D353-9683-4E38-81B3-980201B43B56*
G04*
G04*
G04 #@! TF.FilePolarity,Positive*
G04*
G01*
G75*
%ADD10C,0.01000*%
D10*
X364725Y611970D02*
G03*
X364876Y613500I-7725J1530D01*
G01*
X364279Y610494D02*
G03*
X364723Y611958I-7279J3007D01*
G01*
X363552Y609130D02*
G03*
X364273Y610479I-6552J4370D01*
G01*
X362573Y607935D02*
G03*
X363545Y609119I-5573J5565D01*
G01*
X353376Y523000D02*
G03*
X353226Y524528I-7875J0D01*
G01*
X353223Y524545D02*
G03*
X352780Y526004I-7723J-1545D01*
G01*
X352772Y526024D02*
G03*
X352055Y527366I-7272J-3024D01*
G01*
X352042Y527385D02*
G03*
X351077Y528560I-6542J-4385D01*
G01*
X353225Y471470D02*
G03*
X353376Y473000I-7725J1530D01*
G01*
X352779Y469993D02*
G03*
X353223Y471457I-7279J3007D01*
G01*
X352052Y468630D02*
G03*
X352773Y469979I-6552J4370D01*
G01*
X351073Y467435D02*
G03*
X352045Y468619I-5573J5565D01*
G01*
X319875Y540750D02*
G03*
X322181Y535181I7875J0D01*
G01*
X322177Y589815D02*
G03*
X319875Y584250I5573J-5565D01*
G01*
X283427Y422065D02*
G03*
X283093Y411291I5573J-5565D01*
G01*
X309431Y301431D02*
G03*
X315000Y299125I5569J5569D01*
G01*
X283093Y338209D02*
G03*
X283431Y327431I5907J-5209D01*
G01*
X349125Y642379D02*
X364876Y626628D01*
X349125Y627513D02*
X364876Y643264D01*
X349125Y621945D02*
X364876Y637696D01*
X359757Y659585D02*
X364876Y654467D01*
X354189Y659585D02*
X364876Y648899D01*
X349125Y647947D02*
X364876Y632196D01*
Y613500D02*
Y659585D01*
X349125Y636811D02*
X364876Y621060D01*
X349125Y631243D02*
X364876Y615492D01*
X349125Y625675D02*
X364287Y610513D01*
X349125Y620108D02*
X361935Y607297D01*
X349125Y659082D02*
X364876Y643331D01*
X349125Y659585D02*
X364876D01*
X349125Y638649D02*
X364876Y654400D01*
X349125Y649784D02*
X358926Y659585D01*
X349125Y644216D02*
X364494Y659585D01*
X349125Y633081D02*
X364876Y648832D01*
X320923Y588175D02*
X364876Y632128D01*
X319875Y575992D02*
X364876Y620993D01*
X349125Y653514D02*
X364876Y637763D01*
X348013Y615651D02*
X359151Y604513D01*
X345230Y612867D02*
X356367Y601729D01*
X342446Y610083D02*
X353583Y598946D01*
X337625Y482386D02*
X353376Y498138D01*
X337625Y503549D02*
X353376Y487798D01*
X337625Y497981D02*
X353376Y482230D01*
X337625Y487954D02*
X353376Y503705D01*
X335626Y580988D02*
X362569Y607931D01*
X335626Y580988D02*
X362569Y607931D01*
X320765Y537111D02*
X353376Y504501D01*
X319875Y554706D02*
X353376Y521205D01*
X337625Y504658D02*
X353376Y520409D01*
X337625Y509117D02*
X353376Y493366D01*
X337625Y493522D02*
X353376Y509273D01*
X337625Y509117D02*
X353376Y493366D01*
X337625Y499090D02*
X353376Y514841D01*
X337625Y514685D02*
X353376Y498934D01*
X349125Y655352D02*
X353358Y659585D01*
X349125Y616762D02*
Y659585D01*
X339662Y607299D02*
X350799Y596162D01*
X349125Y616762D02*
Y659585D01*
X336878Y604516D02*
X348015Y593378D01*
X334094Y601732D02*
X345232Y590594D01*
X331310Y598948D02*
X342448Y587810D01*
X328526Y596164D02*
X339664Y585026D01*
X325742Y593380D02*
X336880Y582242D01*
X322958Y590596D02*
X335626Y577929D01*
Y544012D02*
Y580988D01*
X322181Y589819D02*
X349125Y616762D01*
X320771Y587981D02*
X321633Y589270D01*
X320549Y587438D02*
X335626Y572361D01*
X320177Y586547D02*
X320771Y587981D01*
X319875Y585026D02*
X320177Y586547D01*
X320509Y537652D02*
X335626Y552769D01*
X319875Y560273D02*
X335626Y544522D01*
X322894Y534469D02*
X335626Y547201D01*
X319875Y540750D02*
Y584250D01*
Y565841D02*
X335626Y550090D01*
X337625Y510225D02*
X352951Y525552D01*
X337625Y515793D02*
X350734Y528903D01*
X353376Y473000D02*
Y523000D01*
X337625Y476819D02*
X353376Y492570D01*
X337625Y492413D02*
X353376Y476662D01*
X337625Y476262D02*
Y519738D01*
Y476262D02*
Y519738D01*
X335626Y544012D02*
X351069Y528569D01*
X325677Y531685D02*
X336815Y542823D01*
X328461Y528901D02*
X339599Y540039D01*
X320177Y538453D02*
X320771Y537019D01*
X321633Y535730D01*
X335626Y544012D02*
X351069Y528569D01*
X334029Y523333D02*
X345167Y534471D01*
X336813Y520549D02*
X347951Y531687D01*
X331245Y526117D02*
X342383Y537255D01*
X322181Y535181D02*
X337625Y519738D01*
X437214Y314876D02*
X452965Y299125D01*
X432751D02*
X448502Y314876D01*
X438319Y299125D02*
X454070Y314876D01*
X427183Y299125D02*
X442934Y314876D01*
X426078D02*
X441829Y299125D01*
X431646Y314876D02*
X447397Y299125D01*
X449454D02*
X465205Y314876D01*
X448349D02*
X464100Y299125D01*
X453917Y314876D02*
X469668Y299125D01*
X442781Y314876D02*
X458532Y299125D01*
X443887D02*
X459637Y314876D01*
X404912Y299125D02*
X420663Y314876D01*
X403807D02*
X419558Y299125D01*
X409375Y314876D02*
X425126Y299125D01*
X398239Y314876D02*
X413990Y299125D01*
X399344D02*
X415095Y314876D01*
X420510D02*
X436261Y299125D01*
X416048D02*
X431799Y314876D01*
X421615Y299125D02*
X437366Y314876D01*
X410480Y299125D02*
X426231Y314876D01*
X414943D02*
X430693Y299125D01*
X504027Y314876D02*
X507585Y311317D01*
X498459Y314876D02*
X507585Y305749D01*
X492891Y314876D02*
X507585Y300181D01*
X482861Y299125D02*
X498612Y314876D01*
X487324D02*
X503075Y299125D01*
X507585D02*
Y314876D01*
X499564Y299125D02*
X507585Y307146D01*
X505132Y299125D02*
X507585Y301578D01*
X488429Y299125D02*
X504180Y314876D01*
X493996Y299125D02*
X507585Y312714D01*
X465052Y314876D02*
X480803Y299125D01*
X460590D02*
X476341Y314876D01*
X466158Y299125D02*
X481909Y314876D01*
X455022Y299125D02*
X470773Y314876D01*
X459485D02*
X475236Y299125D01*
X477293D02*
X493044Y314876D01*
X476188D02*
X491939Y299125D01*
X481756Y314876D02*
X497507Y299125D01*
X470620Y314876D02*
X486371Y299125D01*
X471725D02*
X487476Y314876D01*
X337625Y486846D02*
X353186Y471284D01*
X337625Y481278D02*
X351266Y467636D01*
X337348Y475986D02*
X348486Y464849D01*
X336994Y314876D02*
X352745Y299125D01*
X338099D02*
X353850Y314876D01*
X334565Y473202D02*
X345702Y462065D01*
X332531Y299125D02*
X348282Y314876D01*
X331781Y470418D02*
X342918Y459281D01*
X328997Y467634D02*
X340134Y456497D01*
X326213Y464851D02*
X337351Y453713D01*
X323429Y462067D02*
X334567Y450929D01*
X320645Y459283D02*
X331783Y448145D01*
X326963Y299125D02*
X342714Y314876D01*
X325858D02*
X341609Y299125D01*
X331426Y314876D02*
X347177Y299125D01*
X320290Y314876D02*
X336041Y299125D01*
X321396D02*
X337147Y314876D01*
X377073Y299125D02*
X392824Y314876D01*
X375968D02*
X391719Y299125D01*
X381536Y314876D02*
X397287Y299125D01*
X370400Y314876D02*
X386151Y299125D01*
X371505D02*
X387257Y314876D01*
X392671D02*
X408422Y299125D01*
X388209D02*
X403960Y314876D01*
X393777Y299125D02*
X409528Y314876D01*
X382641Y299125D02*
X398392Y314876D01*
X387104D02*
X402855Y299125D01*
X349234D02*
X364985Y314876D01*
X348129D02*
X363880Y299125D01*
X353697Y314876D02*
X369448Y299125D01*
X342562Y314876D02*
X358313Y299125D01*
X343667D02*
X359418Y314876D01*
X364833D02*
X380584Y299125D01*
X360370D02*
X376121Y314876D01*
X365938Y299125D02*
X381689Y314876D01*
X354802Y299125D02*
X370553Y314876D01*
X359265D02*
X375016Y299125D01*
X319875Y553721D02*
X335626Y569472D01*
X319875Y571409D02*
X335626Y555658D01*
X319875Y548153D02*
X335626Y563904D01*
X319875Y576977D02*
X335626Y561226D01*
X319875Y564856D02*
X335626Y580607D01*
X319875Y559289D02*
X335626Y575040D01*
X319875Y549138D02*
X353376Y515637D01*
X319875Y542585D02*
X335626Y558336D01*
X319875Y543570D02*
X353376Y510069D01*
X319875Y539974D02*
X320177Y538453D01*
X319875Y570424D02*
X364876Y615425D01*
X319875Y581560D02*
X364876Y626561D01*
X319875Y582545D02*
X335626Y566793D01*
X319875Y540750D02*
Y584250D01*
X283093Y411152D02*
X353376Y481434D01*
X281286Y414913D02*
X353376Y487002D01*
X288973Y411464D02*
X353376Y475867D01*
X283431Y422069D02*
X337625Y476262D01*
X292902Y409825D02*
X352533Y469456D01*
X317861Y456499D02*
X328999Y445361D01*
X315077Y453715D02*
X326215Y442577D01*
X312294Y450931D02*
X323431Y439793D01*
X309510Y448147D02*
X320647Y437010D01*
X306726Y445363D02*
X317863Y434226D01*
X303942Y442580D02*
X315079Y431442D01*
X294907Y411269D02*
X351069Y467431D01*
X294907Y411269D02*
X351069Y467431D01*
X301158Y439796D02*
X312296Y428658D01*
X298374Y437012D02*
X309512Y425874D01*
X295590Y434228D02*
X306728Y423090D01*
X292806Y431444D02*
X303944Y420306D01*
X290022Y428660D02*
X301160Y417522D01*
X287239Y425876D02*
X298376Y414739D01*
X284455Y423092D02*
X295592Y411955D01*
X294173Y407806D02*
X294907Y407072D01*
X294464Y396380D02*
X294907Y395937D01*
X294464Y400252D02*
X294907Y400695D01*
X294464Y390812D02*
X294907Y390369D01*
X294464Y405819D02*
X294907Y406262D01*
X294464Y401947D02*
X294907Y401504D01*
X289788Y411446D02*
X291040Y411110D01*
X288352Y411464D02*
X289648D01*
X291171Y411056D02*
X292293Y410408D01*
X286960Y411110D02*
X288212Y411446D01*
X285707Y410408D02*
X286829Y411056D01*
X284678Y409405D02*
X285595Y410322D01*
X293408Y409293D02*
X294056Y408171D01*
X292405Y410322D02*
X293322Y409405D01*
X294110Y408040D02*
X294445Y406788D01*
X283944Y408171D02*
X284592Y409293D01*
X283555Y406788D02*
X283890Y408040D01*
X282068Y420311D02*
X282905Y421542D01*
X281476Y418944D02*
X282068Y420311D01*
X281152Y417491D02*
X281476Y418944D01*
X281105Y416003D02*
X281152Y417491D01*
X281105Y416003D02*
X281338Y414532D01*
X281956Y420023D02*
X290807Y411173D01*
X281237Y415175D02*
X285895Y410517D01*
X281338Y414532D02*
X281842Y413131D01*
X282601Y411850D01*
X294464Y389116D02*
X294907Y389559D01*
X294464Y394684D02*
X294907Y395127D01*
X294464Y385244D02*
X294907Y384801D01*
X283536Y406000D02*
Y406648D01*
X294464Y406000D02*
Y406648D01*
Y379676D02*
X294907Y379233D01*
X294464Y383548D02*
X294907Y383991D01*
X294464Y377980D02*
X294907Y378424D01*
X283093Y379912D02*
X283536Y379469D01*
X283093Y377745D02*
X283536Y378188D01*
X283093Y400016D02*
X283536Y400459D01*
X283093Y407751D02*
X283660Y407183D01*
X283093Y396615D02*
X283536Y396172D01*
X283093Y405584D02*
X283536Y406027D01*
X283093Y402183D02*
X283536Y401740D01*
X283093Y385479D02*
X283536Y385036D01*
X283093Y388881D02*
X283536Y389324D01*
X283093Y383313D02*
X283536Y383756D01*
X283093Y394448D02*
X283536Y394891D01*
X283093Y391047D02*
X283536Y390604D01*
X294464Y346270D02*
X294907Y345827D01*
X294464Y350142D02*
X294907Y350585D01*
X294464Y344574D02*
X294907Y345017D01*
X294464Y355709D02*
X294907Y356153D01*
X294464Y357405D02*
X294907Y356962D01*
X294464Y351837D02*
X294907Y351394D01*
Y338231D02*
X318262Y314876D01*
X294907Y411269D02*
X294907Y338231D01*
X318262Y314876D01*
X294464Y340702D02*
X294907Y340259D01*
X294464Y339006D02*
X294907Y339449D01*
X294464Y366845D02*
X294907Y367288D01*
X294464Y368541D02*
X294907Y368098D01*
X294464Y362973D02*
X294907Y362530D01*
X294464Y374109D02*
X294907Y373665D01*
X294464Y372413D02*
X294907Y372856D01*
X293398Y336200D02*
X330474Y299125D01*
X281951Y336512D02*
X319338Y299125D01*
X289936Y334094D02*
X324906Y299125D01*
X294464Y361277D02*
X294907Y361720D01*
X285944Y324918D02*
X297082Y336056D01*
X318262Y314876D02*
X507585D01*
X311224Y300089D02*
X326011Y314876D01*
X318262D02*
X507585D01*
X308215Y302647D02*
X320443Y314876D01*
X309980Y300883D02*
X311269Y300021D01*
X315828Y299125D02*
X331579Y314876D01*
X315000Y299125D02*
X507585D01*
X311269Y300021D02*
X312703Y299427D01*
X314224Y299125D01*
X297079Y313783D02*
X308217Y324921D01*
X294296Y316567D02*
X305433Y327704D01*
X297079Y313783D02*
X308217Y324921D01*
X288728Y322134D02*
X299866Y333272D01*
X291512Y319351D02*
X302649Y330488D01*
X302647Y308215D02*
X313785Y319353D01*
X281240Y331655D02*
X313655Y299240D01*
X305431Y305431D02*
X316569Y316569D01*
X283431Y327431D02*
X309431Y301431D01*
X299863Y310999D02*
X311001Y322137D01*
X283536Y339500D02*
Y406000D01*
X283093Y344338D02*
X283536Y344781D01*
X283093Y340937D02*
X283536Y340494D01*
X283093Y349906D02*
X283536Y350349D01*
X283093Y352073D02*
X283536Y351630D01*
X283093Y346505D02*
X283536Y346062D01*
X294464Y338852D02*
Y339500D01*
Y406000D01*
X283555Y338712D02*
X283890Y337460D01*
X283536Y338852D02*
Y339500D01*
X283093Y338771D02*
X283536Y339214D01*
X283093Y366610D02*
X283536Y367053D01*
X283093Y368776D02*
X283536Y368333D01*
X283093Y363208D02*
X283536Y362765D01*
X283093Y374344D02*
X283536Y373901D01*
X283093Y372177D02*
X283536Y372620D01*
X283093Y357641D02*
X283536Y357198D01*
X283093Y361042D02*
X283536Y361485D01*
X283093Y355474D02*
X283536Y355917D01*
X283093Y411291D02*
X283093Y338209D01*
X283093Y411291D02*
X283093Y338209D01*
X294110Y337460D02*
X294445Y338712D01*
X293408Y336207D02*
X294056Y337329D01*
X292405Y335178D02*
X293322Y336095D01*
X283944Y337329D02*
X284592Y336207D01*
X284678Y336095D02*
X285595Y335178D01*
X291171Y334444D02*
X292293Y335092D01*
X289788Y334054D02*
X291040Y334390D01*
X288352Y334036D02*
X289648D01*
X285707Y335092D02*
X286829Y334444D01*
X286960Y334390D02*
X288212Y334054D01*
X281842Y336369D02*
X282601Y337650D01*
X281338Y334968D02*
X281842Y336369D01*
X281289Y331399D02*
X285331Y335441D01*
X281105Y333497D02*
X281338Y334968D01*
X281105Y333497D02*
X281152Y332009D01*
X283167Y327709D02*
X289494Y334036D01*
X282068Y329189D02*
X282905Y327958D01*
X281152Y332009D02*
X281476Y330556D01*
X282068Y329189D01*
M02*
