M48
;Layer_Color=9474304
;FILE_FORMAT=2:5
INCH
;TYPE=PLATED
T01F00S00C0.01181
T02F00S00C0.03300
T03F00S00C0.04200
T04F00S00C0.04331
T05F00S00C0.05512
T07F00S00C0.14921
%
T01
X0420000Y0420000
X0440000
X0460000
X0450000Y0440000
X0430000
X0410000
X0420000Y0460000
X0440000
X0460000
X0480000
X0500000
X0520000
X0540000
X0560000
X0580000
X0590000Y0440000
X0570000
X0550000
X0530000
X0510000
X0490000
X0470000
X0480000Y0420000
X0500000
X0520000
X0540000
X0560000
X0580000
X0590000Y0480000
X0570000
X0550000
X0530000
X0510000
X0490000
X0470000
X0480000Y0500000
X0500000
X0520000
X0540000
X0560000
X0580000
X0590000Y0520000
X0570000
X0550000
X0530000
X0510000
X0490000
X0470000
X0480000Y0540000
X0500000
X0520000
X0540000
X0560000
X0580000
X0590000Y0560000
X0570000
X0550000
X0530000
X0510000
X0490000
X0470000
X0480000Y0580000
X0500000
X0520000
X0540000
X0560000
X0580000
X0590000Y0600000
X0570000
X0550000
X0530000
X0510000
X0490000
X0470000
X0480000Y0620000
X0500000
X0520000
X0540000
X0560000
X0580000
X0460000
Y0580000
X0450000Y0560000
X0460000Y0540000
X0440000
X0450000Y0520000
X0430000
X0410000
Y0480000
X0430000
X0450000
X0460000Y0500000
X0440000
X0450000Y0640000
X0460000Y0660000
X0440000
X0450000Y0680000
X0460000Y0700000
X0480000
X0500000
X0520000
X0540000
X0560000
X0580000
X0590000Y0720000
X0570000
X0550000
X0530000
X0510000
X0490000
X0470000
X0480000Y0740000
X0500000
X0520000
X0540000
X0560000
X0570000Y0680000
X0590000
Y0640000
X0570000
X0550000
X0530000
X0510000
X0490000
X0470000
X0480000Y0660000
X0500000
X0520000
X0540000
X0560000
X0550000Y0680000
X0530000
X0510000
X0490000
X0470000
T02
X0157109Y0463609
X0260500Y0427500
X0370500
X0326000Y0554500
X0234891Y0541391
X0248218Y0632282
T03
X0166000Y0571000
X0186000
X0221000
X0241000
T04
X0426815Y0613630
X0446500Y0653000
Y0672685
X0426815Y0712055
T05
X0438000Y0112346
Y0134000
X0519500
Y0112346
X0575346Y0261000
X0597000
Y0360500
X0575346
X0575346Y0450000
X0597000
Y0491000
X0575346
X0218000Y0725846
Y0747500
X0575346Y0663500
X0597000
T07
X0394205Y0226000
X0232000
Y0379000
X0394205
M30
