G04*
G04 #@! TF.GenerationSoftware,Altium Limited,Altium Designer,26.1.1 (7)*
G04*
G04 Layer_Color=65535*
%FSLAX25Y25*%
%MOIN*%
G70*
G04*
G04 #@! TF.SameCoordinates,F0A5D353-9683-4E38-81B3-980201B43B56*
G04*
G04*
G04 #@! TF.FilePolarity,Positive*
G04*
G01*
G75*
%ADD10C,0.01000*%
%ADD11C,0.00394*%
%ADD12C,0.00787*%
%ADD13C,0.00500*%
%ADD14C,0.00600*%
G36*
X438092Y518508D02*
X438458D01*
Y518463D01*
X438779D01*
Y518417D01*
X439100D01*
Y518371D01*
X439329D01*
Y518325D01*
X439512D01*
Y518279D01*
X439696D01*
Y518233D01*
X439879D01*
Y518188D01*
X440063D01*
Y518142D01*
X440246D01*
Y518096D01*
X440383D01*
Y518050D01*
X440521D01*
Y518004D01*
X440658D01*
Y517958D01*
X440796D01*
Y517912D01*
X440887D01*
Y517867D01*
X441025D01*
Y517821D01*
X441117D01*
Y517775D01*
X441254D01*
Y517729D01*
X441346D01*
Y517683D01*
X441437D01*
Y517637D01*
X441529D01*
Y517592D01*
X441667D01*
Y517546D01*
X441758D01*
Y517500D01*
X441850D01*
Y517454D01*
X441942D01*
Y517408D01*
X442033D01*
Y517362D01*
X442125D01*
Y517317D01*
X442171D01*
Y517271D01*
X442263D01*
Y517225D01*
X442354D01*
Y517179D01*
X442446D01*
Y517133D01*
X442492D01*
Y517088D01*
X442583D01*
Y517042D01*
X442675D01*
Y516996D01*
X442721D01*
Y516950D01*
X442812D01*
Y516904D01*
X442904D01*
Y516858D01*
X442950D01*
Y516813D01*
X443042D01*
Y516767D01*
X443087D01*
Y516721D01*
X443133D01*
Y516675D01*
X443225D01*
Y516629D01*
X443317D01*
Y516583D01*
X443363D01*
Y516538D01*
X443408D01*
Y516492D01*
X443454D01*
Y516446D01*
X443546D01*
Y516400D01*
X443592D01*
Y516354D01*
X443638D01*
Y516308D01*
X443729D01*
Y516262D01*
X443775D01*
Y516217D01*
X443821D01*
Y516171D01*
X443867D01*
Y516125D01*
X443913D01*
Y516079D01*
X444004D01*
Y516033D01*
X444050D01*
Y515987D01*
X444096D01*
Y515942D01*
X444142D01*
Y515896D01*
X444187D01*
Y515850D01*
X444233D01*
Y515804D01*
X444279D01*
Y515758D01*
X444325D01*
Y515712D01*
X444371D01*
Y515667D01*
X444417D01*
Y515621D01*
X444462D01*
Y515575D01*
X444508D01*
Y515529D01*
X444554D01*
Y515483D01*
X444646D01*
Y515438D01*
X444692D01*
Y515392D01*
X444737D01*
Y515346D01*
X444783D01*
Y515300D01*
X444829D01*
Y515254D01*
X444875D01*
Y515163D01*
X444921D01*
Y515117D01*
X444967D01*
Y515071D01*
X445013D01*
Y515025D01*
X445058D01*
Y514979D01*
X445104D01*
Y514933D01*
X445150D01*
Y514888D01*
X445196D01*
Y514842D01*
X445242D01*
Y514750D01*
X445288D01*
Y514704D01*
X445333D01*
Y514658D01*
X445379D01*
Y514612D01*
X445425D01*
Y514521D01*
X445471D01*
Y514475D01*
X445517D01*
Y514429D01*
X445563D01*
Y514337D01*
X445608D01*
Y514292D01*
X445654D01*
Y514246D01*
X445700D01*
Y514154D01*
X445746D01*
Y514108D01*
X445792D01*
Y514062D01*
X445837D01*
Y513971D01*
X445883D01*
Y513925D01*
X445929D01*
Y513833D01*
X445975D01*
Y513788D01*
X446021D01*
Y513696D01*
X446067D01*
Y513604D01*
X446112D01*
Y513558D01*
X446158D01*
Y513467D01*
X446204D01*
Y513375D01*
X446250D01*
Y513329D01*
X446296D01*
Y513237D01*
X446342D01*
Y513146D01*
X446387D01*
Y513054D01*
X446433D01*
Y512962D01*
X446479D01*
Y512917D01*
X446525D01*
Y512825D01*
X446571D01*
Y512733D01*
X446617D01*
Y512596D01*
X446663D01*
Y512550D01*
X446708D01*
Y512413D01*
X446754D01*
Y512321D01*
X446800D01*
Y512229D01*
X446846D01*
Y512092D01*
X446892D01*
Y512000D01*
X446938D01*
Y511908D01*
X446983D01*
Y511771D01*
X447029D01*
Y511633D01*
X447075D01*
Y511542D01*
X447121D01*
Y511404D01*
X447167D01*
Y511221D01*
X447213D01*
Y511083D01*
X447258D01*
Y510946D01*
X447304D01*
Y510763D01*
X447350D01*
Y510533D01*
X447396D01*
Y510396D01*
X447442D01*
Y510167D01*
X447487D01*
Y509937D01*
X447533D01*
Y509617D01*
X447579D01*
Y509250D01*
X447625D01*
Y508700D01*
X447671D01*
Y508563D01*
X442675D01*
Y508929D01*
X442629D01*
Y509204D01*
X442583D01*
Y509387D01*
X442537D01*
Y509571D01*
X442492D01*
Y509708D01*
X442446D01*
Y509892D01*
X442400D01*
Y509983D01*
X442354D01*
Y510121D01*
X442308D01*
Y510213D01*
X442263D01*
Y510350D01*
X442217D01*
Y510442D01*
X442171D01*
Y510533D01*
X442125D01*
Y510625D01*
X442079D01*
Y510717D01*
X442033D01*
Y510808D01*
X441988D01*
Y510854D01*
X441942D01*
Y510946D01*
X441896D01*
Y511037D01*
X441850D01*
Y511083D01*
X441804D01*
Y511175D01*
X441758D01*
Y511221D01*
X441713D01*
Y511267D01*
X441667D01*
Y511358D01*
X441621D01*
Y511404D01*
X441575D01*
Y511450D01*
X441529D01*
Y511542D01*
X441483D01*
Y511587D01*
X441437D01*
Y511633D01*
X441392D01*
Y511725D01*
X441346D01*
Y511771D01*
X441300D01*
Y511817D01*
X441254D01*
Y511863D01*
X441208D01*
Y511908D01*
X441162D01*
Y511954D01*
X441117D01*
Y512000D01*
X441071D01*
Y512046D01*
X441025D01*
Y512092D01*
X440979D01*
Y512138D01*
X440933D01*
Y512183D01*
X440887D01*
Y512229D01*
X440796D01*
Y512275D01*
X440750D01*
Y512321D01*
X440704D01*
Y512367D01*
X440658D01*
Y512413D01*
X440613D01*
Y512458D01*
X440521D01*
Y512504D01*
X440475D01*
Y512550D01*
X440429D01*
Y512596D01*
X440338D01*
Y512642D01*
X440292D01*
Y512687D01*
X440200D01*
Y512733D01*
X440154D01*
Y512779D01*
X440063D01*
Y512825D01*
X439971D01*
Y512871D01*
X439879D01*
Y512917D01*
X439833D01*
Y512962D01*
X439742D01*
Y513008D01*
X439650D01*
Y513054D01*
X439558D01*
Y513100D01*
X439467D01*
Y513146D01*
X439329D01*
Y513192D01*
X439237D01*
Y513237D01*
X439100D01*
Y513283D01*
X439008D01*
Y513329D01*
X438871D01*
Y513375D01*
X438733D01*
Y513421D01*
X438504D01*
Y513467D01*
X438321D01*
Y513513D01*
X438092D01*
Y513558D01*
X437771D01*
Y513604D01*
X437679D01*
Y518508D01*
X437725D01*
Y518554D01*
X438092D01*
Y518508D01*
D02*
G37*
G36*
X436763Y513558D02*
X436533D01*
Y513513D01*
X436212D01*
Y513467D01*
X436029D01*
Y513421D01*
X435800D01*
Y513375D01*
X435617D01*
Y513329D01*
X435479D01*
Y513283D01*
X435342D01*
Y513237D01*
X435204D01*
Y513192D01*
X435067D01*
Y513146D01*
X434975D01*
Y513100D01*
X434883D01*
Y513054D01*
X434792D01*
Y513008D01*
X434700D01*
Y512962D01*
X434608D01*
Y512917D01*
X434517D01*
Y512871D01*
X434425D01*
Y512825D01*
X434333D01*
Y512779D01*
X434288D01*
Y512733D01*
X434196D01*
Y512687D01*
X434150D01*
Y512642D01*
X434058D01*
Y512596D01*
X434013D01*
Y512550D01*
X433921D01*
Y512504D01*
X433875D01*
Y512458D01*
X433783D01*
Y512413D01*
X433738D01*
Y512367D01*
X433692D01*
Y512321D01*
X433646D01*
Y512275D01*
X433554D01*
Y512229D01*
X433508D01*
Y512183D01*
X433462D01*
Y512138D01*
X433417D01*
Y512092D01*
X433371D01*
Y512046D01*
X433325D01*
Y512000D01*
X433279D01*
Y511954D01*
X433233D01*
Y511908D01*
X433187D01*
Y511863D01*
X433142D01*
Y511817D01*
X433096D01*
Y511771D01*
X433050D01*
Y511725D01*
X433004D01*
Y511679D01*
X432958D01*
Y511587D01*
X432912D01*
Y511542D01*
X432867D01*
Y511496D01*
X432821D01*
Y511450D01*
X432775D01*
Y511358D01*
X432729D01*
Y511312D01*
X432683D01*
Y511267D01*
X432638D01*
Y511175D01*
X432592D01*
Y511129D01*
X432546D01*
Y511037D01*
X432500D01*
Y510992D01*
X432454D01*
Y510900D01*
X432408D01*
Y510808D01*
X432363D01*
Y510763D01*
X432317D01*
Y510671D01*
X432271D01*
Y510579D01*
X432225D01*
Y510488D01*
X432179D01*
Y510396D01*
X432133D01*
Y510304D01*
X432088D01*
Y510167D01*
X432042D01*
Y510075D01*
X431996D01*
Y509937D01*
X431950D01*
Y509846D01*
X431904D01*
Y509708D01*
X431858D01*
Y509525D01*
X431812D01*
Y509342D01*
X431767D01*
Y509158D01*
X431721D01*
Y508929D01*
X431675D01*
Y508563D01*
X426725D01*
Y508608D01*
X426679D01*
Y508792D01*
X426725D01*
Y509296D01*
X426771D01*
Y509617D01*
X426817D01*
Y509892D01*
X426862D01*
Y510167D01*
X426908D01*
Y510396D01*
X426954D01*
Y510579D01*
X427000D01*
Y510763D01*
X427046D01*
Y510900D01*
X427092D01*
Y511083D01*
X427138D01*
Y511221D01*
X427183D01*
Y511358D01*
X427229D01*
Y511496D01*
X427275D01*
Y511633D01*
X427321D01*
Y511771D01*
X427367D01*
Y511863D01*
X427413D01*
Y512000D01*
X427458D01*
Y512092D01*
X427504D01*
Y512229D01*
X427550D01*
Y512321D01*
X427596D01*
Y512413D01*
X427642D01*
Y512504D01*
X427688D01*
Y512596D01*
X427733D01*
Y512687D01*
X427779D01*
Y512779D01*
X427825D01*
Y512871D01*
X427871D01*
Y512962D01*
X427917D01*
Y513054D01*
X427962D01*
Y513146D01*
X428008D01*
Y513192D01*
X428054D01*
Y513283D01*
X428100D01*
Y513375D01*
X428146D01*
Y513467D01*
X428192D01*
Y513513D01*
X428237D01*
Y513604D01*
X428283D01*
Y513696D01*
X428329D01*
Y513742D01*
X428375D01*
Y513788D01*
X428421D01*
Y513879D01*
X428467D01*
Y513925D01*
X428512D01*
Y514017D01*
X428558D01*
Y514062D01*
X428604D01*
Y514154D01*
X428650D01*
Y514200D01*
X428696D01*
Y514292D01*
X428742D01*
Y514337D01*
X428788D01*
Y514383D01*
X428833D01*
Y514475D01*
X428879D01*
Y514521D01*
X428925D01*
Y514567D01*
X428971D01*
Y514612D01*
X429017D01*
Y514704D01*
X429063D01*
Y514750D01*
X429108D01*
Y514796D01*
X429154D01*
Y514842D01*
X429200D01*
Y514888D01*
X429246D01*
Y514933D01*
X429292D01*
Y514979D01*
X429338D01*
Y515071D01*
X429383D01*
Y515117D01*
X429429D01*
Y515163D01*
X429475D01*
Y515208D01*
X429521D01*
Y515254D01*
X429567D01*
Y515300D01*
X429612D01*
Y515346D01*
X429658D01*
Y515392D01*
X429704D01*
Y515438D01*
X429750D01*
Y515483D01*
X429796D01*
Y515529D01*
X429842D01*
Y515575D01*
X429887D01*
Y515621D01*
X429933D01*
Y515667D01*
X429979D01*
Y515712D01*
X430025D01*
Y515758D01*
X430071D01*
Y515804D01*
X430117D01*
Y515850D01*
X430162D01*
Y515896D01*
X430254D01*
Y515942D01*
X430300D01*
Y515987D01*
X430346D01*
Y516033D01*
X430392D01*
Y516079D01*
X430438D01*
Y516125D01*
X430483D01*
Y516171D01*
X430575D01*
Y516217D01*
X430621D01*
Y516262D01*
X430667D01*
Y516308D01*
X430758D01*
Y516354D01*
X430804D01*
Y516400D01*
X430850D01*
Y516446D01*
X430896D01*
Y516492D01*
X430988D01*
Y516538D01*
X431033D01*
Y516583D01*
X431079D01*
Y516629D01*
X431171D01*
Y516675D01*
X431217D01*
Y516721D01*
X431308D01*
Y516767D01*
X431354D01*
Y516813D01*
X431446D01*
Y516858D01*
X431537D01*
Y516904D01*
X431583D01*
Y516950D01*
X431675D01*
Y516996D01*
X431721D01*
Y517042D01*
X431812D01*
Y517088D01*
X431904D01*
Y517133D01*
X431950D01*
Y517179D01*
X432042D01*
Y517225D01*
X432133D01*
Y517271D01*
X432225D01*
Y517317D01*
X432317D01*
Y517362D01*
X432408D01*
Y517408D01*
X432500D01*
Y517454D01*
X432592D01*
Y517500D01*
X432683D01*
Y517546D01*
X432775D01*
Y517592D01*
X432867D01*
Y517637D01*
X432958D01*
Y517683D01*
X433096D01*
Y517729D01*
X433187D01*
Y517775D01*
X433325D01*
Y517821D01*
X433417D01*
Y517867D01*
X433554D01*
Y517912D01*
X433646D01*
Y517958D01*
X433783D01*
Y518004D01*
X433967D01*
Y518050D01*
X434104D01*
Y518096D01*
X434242D01*
Y518142D01*
X434379D01*
Y518188D01*
X434608D01*
Y518233D01*
X434792D01*
Y518279D01*
X434975D01*
Y518325D01*
X435204D01*
Y518371D01*
X435479D01*
Y518417D01*
X435800D01*
Y518463D01*
X436212D01*
Y518508D01*
X436763D01*
Y513558D01*
D02*
G37*
G36*
X478975Y517408D02*
X478929D01*
Y517362D01*
X478883D01*
Y517271D01*
X478837D01*
Y517225D01*
X478792D01*
Y517133D01*
X478746D01*
Y517042D01*
X478700D01*
Y516996D01*
X478654D01*
Y516904D01*
X478608D01*
Y516858D01*
X478562D01*
Y516767D01*
X478517D01*
Y516675D01*
X478471D01*
Y516629D01*
X478425D01*
Y516538D01*
X478379D01*
Y516446D01*
X478333D01*
Y516400D01*
X478288D01*
Y516308D01*
X478242D01*
Y516262D01*
X478196D01*
Y516171D01*
X478150D01*
Y516079D01*
X478104D01*
Y516033D01*
X478058D01*
Y515942D01*
X478013D01*
Y515896D01*
X477967D01*
Y515804D01*
X477921D01*
Y515712D01*
X477875D01*
Y515667D01*
X477829D01*
Y515575D01*
X477783D01*
Y515529D01*
X477738D01*
Y515438D01*
X477692D01*
Y515346D01*
X477646D01*
Y515300D01*
X477600D01*
Y515208D01*
X477554D01*
Y515117D01*
X477508D01*
Y515071D01*
X477462D01*
Y514979D01*
X477417D01*
Y514933D01*
X477371D01*
Y514842D01*
X477325D01*
Y514750D01*
X477279D01*
Y514704D01*
X477233D01*
Y514612D01*
X477187D01*
Y514567D01*
X477142D01*
Y514475D01*
X477096D01*
Y514383D01*
X477050D01*
Y514337D01*
X477004D01*
Y514246D01*
X476958D01*
Y514200D01*
X476912D01*
Y514108D01*
X476867D01*
Y514017D01*
X476821D01*
Y513971D01*
X476775D01*
Y513879D01*
X476729D01*
Y513788D01*
X476683D01*
Y513742D01*
X476638D01*
Y513650D01*
X476592D01*
Y513604D01*
X476546D01*
Y513513D01*
X476500D01*
Y513421D01*
X476454D01*
Y513375D01*
X476408D01*
Y513283D01*
X476363D01*
Y513237D01*
X476317D01*
Y513146D01*
X476271D01*
Y513054D01*
X476225D01*
Y513008D01*
X476179D01*
Y512917D01*
X476133D01*
Y512825D01*
X476088D01*
Y512779D01*
X476042D01*
Y512687D01*
X475996D01*
Y512642D01*
X475950D01*
Y512550D01*
X475904D01*
Y512458D01*
X475858D01*
Y512413D01*
X475812D01*
Y512321D01*
X475767D01*
Y512275D01*
X475721D01*
Y512183D01*
X475675D01*
Y512092D01*
X475629D01*
Y512046D01*
X475583D01*
Y511954D01*
X475537D01*
Y511908D01*
X475492D01*
Y511817D01*
X475446D01*
Y511725D01*
X475400D01*
Y511679D01*
X475354D01*
Y511587D01*
X475308D01*
Y511496D01*
X475262D01*
Y511450D01*
X475217D01*
Y511358D01*
X475171D01*
Y511312D01*
X475125D01*
Y511221D01*
X475079D01*
Y511129D01*
X475033D01*
Y511083D01*
X474988D01*
Y510992D01*
X474942D01*
Y510946D01*
X474896D01*
Y510854D01*
X474850D01*
Y510763D01*
X474804D01*
Y510717D01*
X474758D01*
Y510625D01*
X474713D01*
Y510579D01*
X474667D01*
Y510488D01*
X474621D01*
Y510396D01*
X474575D01*
Y510350D01*
X474529D01*
Y510258D01*
X474483D01*
Y510167D01*
X474438D01*
Y510121D01*
X474392D01*
Y510029D01*
X474346D01*
Y509983D01*
X474300D01*
Y509892D01*
X474254D01*
Y509800D01*
X474208D01*
Y509754D01*
X474162D01*
Y509662D01*
X474117D01*
Y509617D01*
X474071D01*
Y509525D01*
X474025D01*
Y509433D01*
X473979D01*
Y509387D01*
X473933D01*
Y509296D01*
X473887D01*
Y509204D01*
X473842D01*
Y509158D01*
X473796D01*
Y509067D01*
X473750D01*
Y509021D01*
X473704D01*
Y508929D01*
X473658D01*
Y508838D01*
X473612D01*
Y508792D01*
X473567D01*
Y508700D01*
X473521D01*
Y508654D01*
X473475D01*
Y508563D01*
X473429D01*
Y508471D01*
X473383D01*
Y508425D01*
X473338D01*
Y508333D01*
X473292D01*
Y508287D01*
X473246D01*
Y508196D01*
X473200D01*
Y508104D01*
X473154D01*
Y508058D01*
X473108D01*
Y507967D01*
X473063D01*
Y507875D01*
X473017D01*
Y507829D01*
X472971D01*
Y507737D01*
X472925D01*
Y507692D01*
X472879D01*
Y507600D01*
X472833D01*
Y507508D01*
X472788D01*
Y507463D01*
X472742D01*
Y507417D01*
Y507371D01*
X472696D01*
Y507325D01*
X472650D01*
Y507233D01*
X472604D01*
Y507142D01*
X472558D01*
Y507096D01*
X472512D01*
Y507004D01*
X472467D01*
Y506958D01*
X472421D01*
Y506867D01*
X472375D01*
Y506775D01*
X472329D01*
Y506729D01*
X472283D01*
Y506637D01*
X472237D01*
Y506546D01*
X472192D01*
Y506500D01*
X472146D01*
Y506408D01*
X472100D01*
Y506362D01*
X472054D01*
Y506271D01*
X472008D01*
Y506179D01*
X471962D01*
Y506133D01*
X471917D01*
Y506042D01*
X471871D01*
Y505996D01*
X471825D01*
Y505904D01*
X471779D01*
Y505813D01*
X471733D01*
Y505767D01*
X471688D01*
Y505675D01*
X471642D01*
Y505583D01*
X471596D01*
Y505538D01*
X471550D01*
Y505446D01*
X471504D01*
Y505400D01*
X471458D01*
Y505308D01*
X471413D01*
Y505217D01*
X471367D01*
Y505171D01*
X471321D01*
Y505079D01*
X471275D01*
Y505033D01*
X471229D01*
Y504942D01*
X471183D01*
Y504850D01*
X471138D01*
Y504804D01*
X471092D01*
Y504712D01*
X471046D01*
Y504667D01*
X471000D01*
Y504575D01*
X470954D01*
Y504483D01*
X470908D01*
Y504437D01*
X470862D01*
Y504346D01*
X470817D01*
Y504254D01*
X470771D01*
Y504208D01*
X470725D01*
Y504117D01*
X470679D01*
Y504071D01*
X470633D01*
Y503979D01*
X470587D01*
Y503888D01*
X470542D01*
Y503842D01*
X470496D01*
Y503750D01*
X470450D01*
Y503704D01*
X470404D01*
Y503613D01*
X470358D01*
Y503521D01*
X470312D01*
Y503475D01*
X470267D01*
Y503383D01*
X470221D01*
Y503337D01*
X470175D01*
Y503246D01*
X470129D01*
Y503154D01*
X470083D01*
Y503108D01*
X470038D01*
Y503017D01*
X469992D01*
Y502925D01*
X469946D01*
Y502879D01*
X469900D01*
Y502787D01*
X469854D01*
Y502742D01*
X469808D01*
Y502650D01*
X469763D01*
Y502558D01*
X469717D01*
Y502513D01*
X469671D01*
Y502421D01*
X469625D01*
Y502375D01*
X469579D01*
Y502283D01*
X469533D01*
Y502192D01*
X469487D01*
Y502146D01*
X469442D01*
Y502054D01*
X469396D01*
Y501963D01*
X469350D01*
Y501917D01*
X469304D01*
Y501825D01*
X469258D01*
Y501779D01*
X469212D01*
Y501687D01*
X469167D01*
Y501596D01*
X469121D01*
Y501550D01*
X469075D01*
Y501458D01*
X469029D01*
Y501412D01*
X468983D01*
Y501321D01*
X468937D01*
Y501229D01*
X468892D01*
Y501183D01*
X468846D01*
Y501092D01*
X468800D01*
Y501046D01*
X468754D01*
Y500954D01*
X468708D01*
Y500863D01*
X468663D01*
Y500817D01*
X468617D01*
Y500725D01*
X468571D01*
Y500633D01*
X468525D01*
Y500588D01*
X468479D01*
Y500496D01*
X468433D01*
Y500450D01*
X468388D01*
Y500358D01*
X468342D01*
Y500267D01*
X468296D01*
Y500221D01*
X468250D01*
Y500129D01*
X468204D01*
Y500083D01*
X468158D01*
Y499992D01*
X468113D01*
Y499900D01*
X468067D01*
Y499854D01*
X468021D01*
Y499762D01*
X467975D01*
Y499717D01*
X467929D01*
Y499625D01*
X467883D01*
Y499533D01*
X467837D01*
Y499487D01*
X467792D01*
Y499396D01*
X467746D01*
Y499304D01*
X467700D01*
Y499258D01*
X467654D01*
Y499167D01*
X467608D01*
Y499121D01*
X467562D01*
Y499029D01*
X467517D01*
Y498938D01*
X467471D01*
Y498892D01*
X467425D01*
Y498800D01*
X467379D01*
Y498754D01*
X467333D01*
Y498663D01*
X461146D01*
Y498754D01*
X461100D01*
Y498800D01*
X461054D01*
Y498892D01*
X461008D01*
Y498938D01*
X460962D01*
Y499029D01*
X460917D01*
Y499121D01*
X460871D01*
Y499167D01*
X460825D01*
Y499258D01*
X460779D01*
Y499304D01*
X460733D01*
Y499396D01*
X460687D01*
Y499442D01*
X460642D01*
Y499533D01*
X460596D01*
Y499579D01*
X460550D01*
Y499671D01*
X460504D01*
Y499717D01*
X460458D01*
Y499808D01*
X460413D01*
Y499900D01*
X460367D01*
Y499946D01*
X460321D01*
Y500037D01*
X460275D01*
Y500083D01*
X460229D01*
Y500175D01*
X460183D01*
Y500221D01*
X460138D01*
Y500313D01*
X460092D01*
Y500358D01*
X460046D01*
Y500450D01*
X460000D01*
Y500542D01*
X459954D01*
Y500588D01*
X459908D01*
Y500679D01*
X459863D01*
Y500725D01*
X459817D01*
Y500817D01*
X459771D01*
Y500863D01*
X459725D01*
Y500954D01*
X459679D01*
Y501000D01*
X459633D01*
Y501092D01*
X459587D01*
Y501137D01*
X459542D01*
Y501229D01*
X459496D01*
Y501321D01*
X459450D01*
Y501367D01*
X459404D01*
Y501458D01*
X459358D01*
Y501504D01*
X459312D01*
Y501596D01*
X459267D01*
Y501642D01*
X459221D01*
Y501733D01*
X459175D01*
Y501779D01*
X459129D01*
Y501871D01*
X459083D01*
Y501917D01*
X459037D01*
Y502008D01*
X458992D01*
Y502100D01*
X458946D01*
Y502146D01*
X458900D01*
Y502238D01*
X458854D01*
Y502283D01*
X458808D01*
Y502375D01*
X458763D01*
Y502421D01*
X458717D01*
Y502513D01*
X458671D01*
Y502558D01*
X458625D01*
Y502650D01*
X458579D01*
Y502696D01*
X458533D01*
Y502787D01*
X458488D01*
Y502879D01*
X458442D01*
Y502925D01*
X458396D01*
Y503017D01*
X458350D01*
Y503062D01*
X458304D01*
Y503154D01*
X458258D01*
Y503200D01*
X458213D01*
Y503292D01*
X458167D01*
Y503337D01*
X458121D01*
Y503429D01*
X458075D01*
Y503475D01*
X458029D01*
Y503567D01*
X457983D01*
Y503658D01*
X457937D01*
Y503704D01*
X457892D01*
Y503796D01*
X457846D01*
Y503842D01*
X457800D01*
Y503933D01*
X457754D01*
Y503979D01*
X457708D01*
Y504071D01*
X457662D01*
Y504117D01*
X457617D01*
Y504208D01*
X457571D01*
Y504254D01*
X457525D01*
Y504346D01*
X457479D01*
Y504437D01*
X457433D01*
Y504483D01*
X457387D01*
Y504575D01*
X457342D01*
Y504621D01*
X457296D01*
Y504712D01*
X457250D01*
Y504758D01*
X457204D01*
Y504850D01*
X457158D01*
Y504896D01*
X457113D01*
Y504987D01*
X457067D01*
Y505079D01*
X457021D01*
Y505125D01*
X456975D01*
Y505217D01*
X456929D01*
Y505263D01*
X456883D01*
Y505354D01*
X456838D01*
Y505400D01*
X456792D01*
Y505492D01*
X456746D01*
Y505538D01*
X456700D01*
Y505629D01*
X456654D01*
Y505675D01*
X456608D01*
Y505767D01*
X456563D01*
Y505858D01*
X456517D01*
Y505904D01*
X456471D01*
Y505996D01*
X456425D01*
Y506042D01*
X456379D01*
Y506133D01*
X456333D01*
Y506179D01*
X456287D01*
Y506271D01*
X456242D01*
Y506317D01*
X456196D01*
Y506408D01*
X456150D01*
Y506454D01*
X456104D01*
Y506546D01*
X456058D01*
Y506637D01*
X456012D01*
Y506683D01*
X455967D01*
Y506775D01*
X455921D01*
Y506821D01*
X455875D01*
Y506913D01*
X455829D01*
Y506958D01*
X455783D01*
Y507050D01*
X455737D01*
Y507096D01*
X455692D01*
Y507188D01*
X455646D01*
Y507233D01*
X455600D01*
Y507325D01*
X455554D01*
Y507417D01*
X455508D01*
Y507463D01*
X455463D01*
Y507554D01*
X455417D01*
Y507600D01*
X455371D01*
Y507692D01*
X455325D01*
Y507737D01*
X455279D01*
Y507829D01*
X455233D01*
Y507875D01*
X455188D01*
Y507967D01*
X455142D01*
Y508012D01*
X455096D01*
Y508104D01*
X455050D01*
Y508196D01*
X455004D01*
Y508242D01*
X454958D01*
Y508333D01*
X454913D01*
Y508379D01*
X454867D01*
Y508471D01*
X454821D01*
Y508517D01*
X454775D01*
Y508608D01*
X454729D01*
Y508654D01*
X454683D01*
Y508746D01*
X454637D01*
Y508792D01*
X454592D01*
Y508883D01*
X454546D01*
Y508975D01*
X454500D01*
Y509021D01*
X454454D01*
Y509113D01*
X454408D01*
Y509158D01*
X454362D01*
Y509250D01*
X454317D01*
Y509296D01*
X454271D01*
Y509387D01*
X454225D01*
Y509433D01*
X454179D01*
Y509525D01*
X454133D01*
Y509571D01*
X454087D01*
Y509662D01*
X454042D01*
Y509754D01*
X453996D01*
Y509800D01*
X453950D01*
Y509892D01*
X453904D01*
Y509937D01*
X453858D01*
Y510029D01*
X453813D01*
Y510075D01*
X453767D01*
Y510167D01*
X453721D01*
Y510213D01*
X453675D01*
Y510304D01*
X453629D01*
Y510396D01*
X453583D01*
Y510442D01*
X453538D01*
Y510533D01*
X453492D01*
Y510579D01*
X453446D01*
Y510671D01*
X453400D01*
Y510717D01*
X453354D01*
Y510808D01*
X453308D01*
Y510854D01*
X453263D01*
Y510946D01*
X453217D01*
Y510992D01*
X453171D01*
Y511083D01*
X453125D01*
Y511175D01*
X453079D01*
Y511221D01*
X453033D01*
Y511312D01*
X452987D01*
Y511358D01*
X452942D01*
Y511450D01*
X452896D01*
Y511496D01*
X452850D01*
Y511587D01*
X452804D01*
Y511633D01*
X452758D01*
Y511725D01*
X452712D01*
Y511771D01*
X452667D01*
Y511863D01*
X452621D01*
Y511954D01*
X452575D01*
Y512000D01*
X452529D01*
Y512092D01*
X452483D01*
Y512138D01*
X452437D01*
Y512229D01*
X452392D01*
Y512275D01*
X452346D01*
Y512367D01*
X452300D01*
Y512413D01*
X452254D01*
Y512504D01*
X452208D01*
Y512550D01*
X452163D01*
Y512642D01*
X452117D01*
Y512733D01*
X452071D01*
Y512779D01*
X452025D01*
Y512871D01*
X451979D01*
Y512917D01*
X451933D01*
Y513008D01*
X451888D01*
Y513054D01*
X451842D01*
Y513146D01*
X451796D01*
Y513192D01*
X451750D01*
Y513283D01*
X451704D01*
Y513329D01*
X451658D01*
Y513421D01*
X451613D01*
Y513513D01*
X451567D01*
Y513558D01*
X451521D01*
Y513650D01*
X451475D01*
Y513696D01*
X451429D01*
Y513788D01*
X451383D01*
Y513833D01*
X451337D01*
Y513925D01*
X451292D01*
Y513971D01*
X451246D01*
Y514062D01*
X451200D01*
Y514108D01*
X451154D01*
Y514200D01*
X451108D01*
Y514292D01*
X451062D01*
Y514337D01*
X451017D01*
Y514429D01*
X450971D01*
Y514475D01*
X450925D01*
Y514567D01*
X450879D01*
Y514612D01*
X450833D01*
Y514704D01*
X450787D01*
Y514750D01*
X450742D01*
Y514842D01*
X450696D01*
Y514888D01*
X450650D01*
Y514979D01*
X450604D01*
Y515071D01*
X450558D01*
Y515117D01*
X450513D01*
Y515208D01*
X450467D01*
Y515254D01*
X450421D01*
Y515346D01*
X450375D01*
Y515392D01*
X450329D01*
Y515483D01*
X450283D01*
Y515529D01*
X450238D01*
Y515621D01*
X450192D01*
Y515712D01*
X450146D01*
Y515758D01*
X450100D01*
Y515850D01*
X450054D01*
Y515896D01*
X450008D01*
Y515987D01*
X449963D01*
Y516033D01*
X449917D01*
Y516125D01*
X449871D01*
Y516171D01*
X449825D01*
Y516262D01*
X449779D01*
Y516308D01*
X449733D01*
Y516400D01*
X449687D01*
Y516492D01*
X449642D01*
Y516538D01*
X449596D01*
Y516629D01*
X449550D01*
Y516675D01*
X449504D01*
Y516767D01*
X449458D01*
Y516813D01*
X449412D01*
Y516904D01*
X449367D01*
Y516950D01*
X449321D01*
Y517042D01*
X449275D01*
Y517088D01*
X449229D01*
Y517179D01*
X449183D01*
Y517271D01*
X449137D01*
Y517317D01*
X449092D01*
Y517408D01*
X449046D01*
Y517454D01*
X449000D01*
Y517500D01*
X455737D01*
Y517454D01*
X455783D01*
Y517362D01*
X455829D01*
Y517317D01*
X455875D01*
Y517225D01*
X455921D01*
Y517133D01*
X455967D01*
Y517088D01*
X456012D01*
Y516996D01*
X456058D01*
Y516904D01*
X456104D01*
Y516858D01*
X456150D01*
Y516767D01*
X456196D01*
Y516675D01*
X456242D01*
Y516583D01*
X456287D01*
Y516538D01*
X456333D01*
Y516446D01*
X456379D01*
Y516354D01*
X456425D01*
Y516308D01*
X456471D01*
Y516217D01*
X456517D01*
Y516125D01*
X456563D01*
Y516079D01*
X456608D01*
Y515987D01*
X456654D01*
Y515896D01*
X456700D01*
Y515850D01*
X456746D01*
Y515758D01*
X456792D01*
Y515667D01*
X456838D01*
Y515621D01*
X456883D01*
Y515529D01*
X456929D01*
Y515438D01*
X456975D01*
Y515392D01*
X457021D01*
Y515300D01*
X457067D01*
Y515208D01*
X457113D01*
Y515163D01*
X457158D01*
Y515071D01*
X457204D01*
Y514979D01*
X457250D01*
Y514933D01*
X457296D01*
Y514842D01*
X457342D01*
Y514750D01*
X457387D01*
Y514704D01*
X457433D01*
Y514612D01*
X457479D01*
Y514521D01*
X457525D01*
Y514429D01*
X457571D01*
Y514383D01*
X457617D01*
Y514292D01*
X457662D01*
Y514200D01*
X457708D01*
Y514154D01*
X457754D01*
Y514062D01*
X457800D01*
Y513971D01*
X457846D01*
Y513925D01*
X457892D01*
Y513833D01*
X457937D01*
Y513742D01*
X457983D01*
Y513696D01*
X458029D01*
Y513604D01*
X458075D01*
Y513513D01*
X458121D01*
Y513467D01*
X458167D01*
Y513375D01*
X458213D01*
Y513283D01*
X458258D01*
Y513237D01*
X458304D01*
Y513146D01*
X458350D01*
Y513054D01*
X458396D01*
Y513008D01*
X458442D01*
Y512917D01*
X458488D01*
Y512825D01*
X458533D01*
Y512779D01*
X458579D01*
Y512687D01*
X458625D01*
Y512596D01*
X458671D01*
Y512550D01*
X458717D01*
Y512458D01*
X458763D01*
Y512367D01*
X458808D01*
Y512275D01*
X458854D01*
Y512229D01*
X458900D01*
Y512138D01*
X458946D01*
Y512046D01*
X458992D01*
Y512000D01*
X459037D01*
Y511908D01*
X459083D01*
Y511817D01*
X459129D01*
Y511771D01*
X459175D01*
Y511679D01*
X459221D01*
Y511587D01*
X459267D01*
Y511542D01*
X459312D01*
Y511450D01*
X459358D01*
Y511358D01*
X459404D01*
Y511312D01*
X459450D01*
Y511221D01*
X459496D01*
Y511129D01*
X459542D01*
Y511083D01*
X459587D01*
Y510992D01*
X459633D01*
Y510900D01*
X459679D01*
Y510854D01*
X459725D01*
Y510763D01*
X459771D01*
Y510671D01*
X459817D01*
Y510625D01*
X459863D01*
Y510533D01*
X459908D01*
Y510442D01*
X459954D01*
Y510396D01*
X460000D01*
Y510304D01*
X460046D01*
Y510213D01*
X460092D01*
Y510121D01*
X460138D01*
Y510075D01*
X460183D01*
Y509983D01*
X460229D01*
Y509892D01*
X460275D01*
Y509846D01*
X460321D01*
Y509754D01*
X460367D01*
Y509662D01*
X460413D01*
Y509617D01*
X460458D01*
Y509525D01*
X460504D01*
Y509433D01*
X460550D01*
Y509387D01*
X460596D01*
Y509296D01*
X460642D01*
Y509204D01*
X460687D01*
Y509158D01*
X460733D01*
Y509067D01*
X460779D01*
Y508975D01*
X460825D01*
Y508929D01*
X460871D01*
Y508838D01*
X460917D01*
Y508746D01*
X460962D01*
Y508700D01*
X461008D01*
Y508608D01*
X461054D01*
Y508517D01*
X461100D01*
Y508471D01*
X461146D01*
Y508379D01*
X461192D01*
Y508287D01*
X461237D01*
Y508242D01*
X461283D01*
Y508150D01*
X461329D01*
Y508058D01*
X461375D01*
Y507967D01*
X461421D01*
Y507921D01*
X461467D01*
Y507829D01*
X461513D01*
Y507737D01*
X461558D01*
Y507692D01*
X461604D01*
Y507600D01*
X461650D01*
Y507508D01*
X461696D01*
Y507463D01*
X461742D01*
Y507371D01*
X461788D01*
Y507279D01*
X461833D01*
Y507233D01*
X461879D01*
Y507142D01*
X461925D01*
Y507050D01*
X461971D01*
Y507004D01*
X462017D01*
Y506913D01*
X462063D01*
Y506821D01*
X462108D01*
Y506775D01*
X462154D01*
Y506683D01*
X462200D01*
Y506592D01*
X462246D01*
Y506546D01*
X462292D01*
Y506454D01*
X462337D01*
Y506362D01*
X462383D01*
Y506317D01*
X462429D01*
Y506225D01*
X462475D01*
Y506133D01*
X462521D01*
Y506087D01*
X462567D01*
Y505996D01*
X462612D01*
Y505904D01*
X462658D01*
Y505813D01*
X462704D01*
Y505767D01*
X462750D01*
Y505675D01*
X462796D01*
Y505583D01*
X462842D01*
Y505538D01*
X462887D01*
Y505446D01*
X462933D01*
Y505354D01*
X462979D01*
Y505308D01*
X463025D01*
Y505217D01*
X463071D01*
Y505125D01*
X463117D01*
Y505079D01*
X463163D01*
Y504987D01*
X463208D01*
Y504896D01*
X463254D01*
Y504850D01*
X463300D01*
Y504758D01*
X463346D01*
Y504667D01*
X463392D01*
Y504621D01*
X463438D01*
Y504529D01*
X463483D01*
Y504437D01*
X463529D01*
Y504392D01*
X463575D01*
Y504300D01*
X463621D01*
Y504208D01*
X463667D01*
Y504163D01*
X463713D01*
Y504071D01*
X463758D01*
Y503979D01*
X463804D01*
Y503933D01*
X463850D01*
Y503842D01*
X463896D01*
Y503750D01*
X463942D01*
Y503658D01*
X463987D01*
Y503613D01*
X464033D01*
Y503521D01*
X464125D01*
Y503613D01*
X464171D01*
Y503658D01*
X464217D01*
Y503750D01*
X464262D01*
Y503796D01*
X464308D01*
Y503888D01*
X464354D01*
Y503979D01*
X464400D01*
Y504025D01*
X464446D01*
Y504117D01*
X464492D01*
Y504208D01*
X464537D01*
Y504254D01*
X464583D01*
Y504346D01*
X464629D01*
Y504392D01*
X464675D01*
Y504483D01*
X464721D01*
Y504575D01*
X464767D01*
Y504621D01*
X464813D01*
Y504712D01*
X464858D01*
Y504804D01*
X464904D01*
Y504850D01*
X464950D01*
Y504942D01*
X464996D01*
Y504987D01*
X465042D01*
Y505079D01*
X465088D01*
Y505171D01*
X465133D01*
Y505217D01*
X465179D01*
Y505308D01*
X465225D01*
Y505400D01*
X465271D01*
Y505446D01*
X465317D01*
Y505538D01*
X465363D01*
Y505583D01*
X465408D01*
Y505675D01*
X465454D01*
Y505767D01*
X465500D01*
Y505813D01*
X465546D01*
Y505904D01*
X465592D01*
Y505996D01*
X465637D01*
Y506042D01*
X465683D01*
Y506133D01*
X465729D01*
Y506179D01*
X465775D01*
Y506271D01*
X465821D01*
Y506362D01*
X465867D01*
Y506408D01*
X465912D01*
Y506500D01*
X465958D01*
Y506592D01*
X466004D01*
Y506637D01*
X466050D01*
Y506729D01*
X466096D01*
Y506775D01*
X466142D01*
Y506867D01*
X466187D01*
Y506958D01*
X466233D01*
Y507004D01*
X466279D01*
Y507096D01*
X466325D01*
Y507188D01*
X466371D01*
Y507233D01*
X466417D01*
Y507325D01*
X466463D01*
Y507371D01*
X466508D01*
Y507463D01*
X466554D01*
Y507554D01*
X466600D01*
Y507600D01*
X466646D01*
Y507692D01*
X466692D01*
Y507783D01*
X466738D01*
Y507829D01*
X466783D01*
Y507921D01*
X466829D01*
Y507967D01*
X466875D01*
Y508058D01*
X466921D01*
Y508150D01*
X466967D01*
Y508196D01*
X467013D01*
Y508287D01*
X467058D01*
Y508379D01*
X467104D01*
Y508425D01*
X467150D01*
Y508517D01*
X467196D01*
Y508563D01*
X467242D01*
Y508654D01*
X467287D01*
Y508746D01*
X467333D01*
Y508792D01*
X467379D01*
Y508883D01*
X467425D01*
Y508975D01*
X467471D01*
Y509021D01*
X467517D01*
Y509113D01*
X467562D01*
Y509158D01*
X467608D01*
Y509250D01*
X467654D01*
Y509342D01*
X467700D01*
Y509387D01*
X467746D01*
Y509479D01*
X467792D01*
Y509571D01*
X467837D01*
Y509617D01*
X467883D01*
Y509708D01*
X467929D01*
Y509754D01*
X467975D01*
Y509846D01*
X468021D01*
Y509937D01*
X468067D01*
Y509983D01*
X468113D01*
Y510075D01*
X468158D01*
Y510167D01*
X468204D01*
Y510213D01*
X468250D01*
Y510304D01*
X468296D01*
Y510350D01*
X468342D01*
Y510442D01*
X468388D01*
Y510533D01*
X468433D01*
Y510579D01*
X468479D01*
Y510671D01*
X468525D01*
Y510763D01*
X468571D01*
Y510808D01*
X468617D01*
Y510900D01*
X468663D01*
Y510946D01*
X468708D01*
Y511037D01*
X468754D01*
Y511129D01*
X468800D01*
Y511175D01*
X468846D01*
Y511267D01*
X468892D01*
Y511358D01*
X468937D01*
Y511404D01*
X468983D01*
Y511496D01*
X469029D01*
Y511542D01*
X469075D01*
Y511633D01*
X469121D01*
Y511725D01*
X469167D01*
Y511771D01*
X469212D01*
Y511863D01*
X469258D01*
Y511954D01*
X469304D01*
Y512000D01*
X469350D01*
Y512092D01*
X469396D01*
Y512138D01*
X469442D01*
Y512229D01*
X469487D01*
Y512321D01*
X469533D01*
Y512367D01*
X469579D01*
Y512458D01*
X469625D01*
Y512550D01*
X469671D01*
Y512596D01*
X469717D01*
Y512687D01*
X469763D01*
Y512733D01*
X469808D01*
Y512825D01*
X469854D01*
Y512917D01*
X469900D01*
Y512962D01*
X469946D01*
Y513054D01*
X469992D01*
Y513146D01*
X470038D01*
Y513192D01*
X470083D01*
Y513283D01*
X470129D01*
Y513329D01*
X470175D01*
Y513421D01*
X470221D01*
Y513513D01*
X470267D01*
Y513558D01*
X470312D01*
Y513650D01*
X470358D01*
Y513742D01*
X470404D01*
Y513788D01*
X470450D01*
Y513879D01*
X470496D01*
Y513925D01*
X470542D01*
Y514017D01*
X470587D01*
Y514108D01*
X470633D01*
Y514154D01*
X470679D01*
Y514246D01*
X470725D01*
Y514337D01*
X470771D01*
Y514383D01*
X470817D01*
Y514475D01*
X470862D01*
Y514521D01*
X470908D01*
Y514612D01*
X470954D01*
Y514704D01*
X471000D01*
Y514750D01*
X471046D01*
Y514842D01*
X471092D01*
Y514933D01*
X471138D01*
Y514979D01*
X471183D01*
Y515071D01*
X471229D01*
Y515117D01*
X471275D01*
Y515208D01*
X471321D01*
Y515300D01*
X471367D01*
Y515346D01*
X471413D01*
Y515438D01*
X471458D01*
Y515529D01*
X471504D01*
Y515575D01*
X471550D01*
Y515667D01*
X471596D01*
Y515712D01*
X471642D01*
Y515804D01*
X471688D01*
Y515896D01*
X471733D01*
Y515942D01*
X471779D01*
Y516033D01*
X471825D01*
Y516125D01*
X471871D01*
Y516171D01*
X471917D01*
Y516262D01*
X471962D01*
Y516308D01*
X472008D01*
Y516400D01*
X472054D01*
Y516492D01*
X472100D01*
Y516538D01*
X472146D01*
Y516629D01*
X472192D01*
Y516721D01*
X472237D01*
Y516767D01*
X472283D01*
Y516858D01*
X472329D01*
Y516904D01*
X472375D01*
Y516996D01*
X472421D01*
Y517088D01*
X472467D01*
Y517133D01*
X472512D01*
Y517225D01*
X472558D01*
Y517317D01*
X472604D01*
Y517362D01*
X472650D01*
Y517454D01*
X472696D01*
Y517500D01*
X478975D01*
Y517408D01*
D02*
G37*
G36*
X414304Y517546D02*
X415037D01*
Y517500D01*
X415542D01*
Y517454D01*
X415954D01*
Y517408D01*
X416321D01*
Y517362D01*
X416642D01*
Y517317D01*
X416917D01*
Y517271D01*
X417192D01*
Y517225D01*
X417421D01*
Y517179D01*
X417604D01*
Y517133D01*
X417788D01*
Y517088D01*
X417971D01*
Y517042D01*
X418154D01*
Y516996D01*
X418337D01*
Y516950D01*
X418475D01*
Y516904D01*
X418612D01*
Y516858D01*
X418750D01*
Y516813D01*
X418888D01*
Y516767D01*
X419025D01*
Y516721D01*
X419117D01*
Y516675D01*
X419254D01*
Y516629D01*
X419346D01*
Y516583D01*
X419483D01*
Y516538D01*
X419575D01*
Y516492D01*
X419667D01*
Y516446D01*
X419758D01*
Y516400D01*
X419850D01*
Y516354D01*
X419942D01*
Y516308D01*
X420033D01*
Y516262D01*
X420079D01*
Y516217D01*
X420171D01*
Y516171D01*
X420262D01*
Y516125D01*
X420308D01*
Y516079D01*
X420400D01*
Y516033D01*
X420446D01*
Y515987D01*
X420538D01*
Y515942D01*
X420583D01*
Y515896D01*
X420675D01*
Y515850D01*
X420721D01*
Y515804D01*
X420767D01*
Y515758D01*
X420813D01*
Y515712D01*
X420904D01*
Y515667D01*
X420950D01*
Y515621D01*
X420996D01*
Y515575D01*
X421042D01*
Y515529D01*
X421088D01*
Y515483D01*
X421133D01*
Y515438D01*
X421179D01*
Y515392D01*
X421225D01*
Y515346D01*
X421271D01*
Y515300D01*
X421317D01*
Y515254D01*
X421362D01*
Y515208D01*
X421408D01*
Y515163D01*
X421454D01*
Y515071D01*
X421500D01*
Y515025D01*
X421546D01*
Y514979D01*
X421592D01*
Y514933D01*
X421637D01*
Y514842D01*
X421683D01*
Y514796D01*
X421729D01*
Y514704D01*
X421775D01*
Y514658D01*
X421821D01*
Y514567D01*
X421867D01*
Y514475D01*
X421912D01*
Y514383D01*
X421958D01*
Y514292D01*
X422004D01*
Y514200D01*
X422050D01*
Y514108D01*
X422096D01*
Y514017D01*
X422142D01*
Y513925D01*
X422188D01*
Y513788D01*
X422233D01*
Y513650D01*
X422279D01*
Y513513D01*
X422325D01*
Y513329D01*
X422371D01*
Y513100D01*
X422417D01*
Y512825D01*
X422463D01*
Y512413D01*
X422508D01*
Y511496D01*
X422463D01*
Y511083D01*
X422417D01*
Y510808D01*
X422371D01*
Y510579D01*
X422325D01*
Y510442D01*
X422279D01*
Y510304D01*
X422233D01*
Y510167D01*
X422188D01*
Y510029D01*
X422142D01*
Y509937D01*
X422096D01*
Y509846D01*
X422050D01*
Y509708D01*
X422004D01*
Y509617D01*
X421958D01*
Y509571D01*
X421912D01*
Y509479D01*
X421867D01*
Y509387D01*
X421821D01*
Y509296D01*
X421775D01*
Y509250D01*
X421729D01*
Y509158D01*
X421683D01*
Y509113D01*
X421637D01*
Y509067D01*
X421592D01*
Y508975D01*
X421546D01*
Y508929D01*
X421500D01*
Y508883D01*
X421454D01*
Y508792D01*
X421408D01*
Y508746D01*
X421362D01*
Y508700D01*
X421317D01*
Y508654D01*
X421271D01*
Y508608D01*
X421225D01*
Y508563D01*
X421179D01*
Y508517D01*
X421133D01*
Y508471D01*
X421088D01*
Y508425D01*
X421042D01*
Y508379D01*
X420996D01*
Y508333D01*
X420950D01*
Y508287D01*
X420904D01*
Y508242D01*
X420858D01*
Y508196D01*
X420813D01*
Y508150D01*
X420721D01*
Y508104D01*
X420675D01*
Y508058D01*
X420629D01*
Y508012D01*
X420583D01*
Y507967D01*
X420492D01*
Y507921D01*
X420446D01*
Y507875D01*
X420354D01*
Y507829D01*
X420308D01*
Y507783D01*
X420217D01*
Y507737D01*
X420171D01*
Y507692D01*
X420079D01*
Y507646D01*
X419987D01*
Y507600D01*
X419942D01*
Y507554D01*
X419850D01*
Y507508D01*
X419758D01*
Y507463D01*
X419667D01*
Y507417D01*
X419575D01*
Y507371D01*
X419483D01*
Y507325D01*
X419392D01*
Y507279D01*
X419300D01*
Y507233D01*
X419163D01*
Y507188D01*
X419071D01*
Y507142D01*
X418933D01*
Y507096D01*
X418842D01*
Y507050D01*
X418704D01*
Y507004D01*
X418567D01*
Y506958D01*
X418383D01*
Y506913D01*
X418246D01*
Y506867D01*
X418062D01*
Y506821D01*
X417879D01*
Y506775D01*
X417696D01*
Y506729D01*
X417467D01*
Y506683D01*
X417238D01*
Y506637D01*
X416917D01*
Y506546D01*
X416962D01*
Y506500D01*
X417008D01*
Y506454D01*
X417054D01*
Y506362D01*
X417100D01*
Y506317D01*
X417146D01*
Y506271D01*
X417192D01*
Y506225D01*
X417238D01*
Y506179D01*
X417283D01*
Y506133D01*
X417329D01*
Y506087D01*
X417375D01*
Y506042D01*
X417421D01*
Y505950D01*
X417467D01*
Y505904D01*
X417513D01*
Y505858D01*
X417558D01*
Y505813D01*
X417604D01*
Y505767D01*
X417650D01*
Y505721D01*
X417696D01*
Y505675D01*
X417742D01*
Y505629D01*
X417788D01*
Y505538D01*
X417833D01*
Y505492D01*
X417879D01*
Y505446D01*
X417925D01*
Y505400D01*
X417971D01*
Y505354D01*
X418017D01*
Y505308D01*
X418062D01*
Y505263D01*
X418108D01*
Y505217D01*
X418154D01*
Y505125D01*
X418200D01*
Y505079D01*
X418246D01*
Y505033D01*
X418292D01*
Y504987D01*
X418337D01*
Y504942D01*
X418383D01*
Y504896D01*
X418429D01*
Y504850D01*
X418475D01*
Y504804D01*
X418521D01*
Y504712D01*
X418567D01*
Y504667D01*
X418612D01*
Y504621D01*
X418658D01*
Y504575D01*
X418704D01*
Y504529D01*
X418750D01*
Y504483D01*
X418796D01*
Y504437D01*
X418842D01*
Y504346D01*
X418888D01*
Y504300D01*
X418933D01*
Y504254D01*
X418979D01*
Y504208D01*
X419025D01*
Y504163D01*
X419071D01*
Y504117D01*
X419117D01*
Y504071D01*
X419163D01*
Y504025D01*
X419208D01*
Y503933D01*
X419254D01*
Y503888D01*
X419300D01*
Y503842D01*
X419346D01*
Y503796D01*
X419392D01*
Y503750D01*
X419438D01*
Y503704D01*
X419483D01*
Y503658D01*
X419529D01*
Y503613D01*
X419575D01*
Y503521D01*
X419621D01*
Y503475D01*
X419667D01*
Y503429D01*
X419712D01*
Y503383D01*
X419758D01*
Y503337D01*
X419804D01*
Y503292D01*
X419850D01*
Y503246D01*
X419896D01*
Y503200D01*
X419942D01*
Y503108D01*
X419987D01*
Y503062D01*
X420033D01*
Y503017D01*
X420079D01*
Y502971D01*
X420125D01*
Y502925D01*
X420171D01*
Y502879D01*
X420217D01*
Y502833D01*
X420262D01*
Y502787D01*
X420308D01*
Y502696D01*
X420354D01*
Y502650D01*
X420400D01*
Y502604D01*
X420446D01*
Y502558D01*
X420492D01*
Y502513D01*
X420538D01*
Y502467D01*
X420583D01*
Y502421D01*
X420629D01*
Y502375D01*
X420675D01*
Y502283D01*
X420721D01*
Y502238D01*
X420767D01*
Y502192D01*
X420813D01*
Y502146D01*
X420858D01*
Y502100D01*
X420904D01*
Y502054D01*
X420950D01*
Y502008D01*
X420996D01*
Y501917D01*
X421042D01*
Y501871D01*
X421088D01*
Y501825D01*
X421133D01*
Y501779D01*
X421179D01*
Y501733D01*
X421225D01*
Y501687D01*
X421271D01*
Y501642D01*
X421317D01*
Y501596D01*
X421362D01*
Y501504D01*
X421408D01*
Y501458D01*
X421454D01*
Y501412D01*
X421500D01*
Y501367D01*
X421546D01*
Y501321D01*
X421592D01*
Y501275D01*
X421637D01*
Y501229D01*
X421683D01*
Y501183D01*
X421729D01*
Y501092D01*
X421775D01*
Y501046D01*
X421821D01*
Y501000D01*
X421867D01*
Y500954D01*
X421912D01*
Y500908D01*
X421958D01*
Y500863D01*
X422004D01*
Y500817D01*
X422050D01*
Y500771D01*
X422096D01*
Y500679D01*
X422142D01*
Y500633D01*
X422188D01*
Y500588D01*
X422233D01*
Y500542D01*
X422279D01*
Y500496D01*
X422325D01*
Y500450D01*
X422371D01*
Y500404D01*
X422417D01*
Y500358D01*
X422463D01*
Y500267D01*
X422508D01*
Y500221D01*
X422554D01*
Y500175D01*
X422600D01*
Y500129D01*
X422646D01*
Y500083D01*
X422692D01*
Y500037D01*
X422738D01*
Y499992D01*
X422783D01*
Y499900D01*
X422829D01*
Y499854D01*
X422875D01*
Y499808D01*
X422921D01*
Y499762D01*
X422967D01*
Y499717D01*
X423012D01*
Y499671D01*
X423058D01*
Y499625D01*
X423104D01*
Y499579D01*
X423150D01*
Y499487D01*
X423196D01*
Y499442D01*
X423242D01*
Y499396D01*
X423287D01*
Y499350D01*
X423333D01*
Y499304D01*
X423379D01*
Y499258D01*
X423425D01*
Y499213D01*
X423471D01*
Y499167D01*
X423517D01*
Y499075D01*
X423562D01*
Y499029D01*
X423608D01*
Y498983D01*
X423654D01*
Y498938D01*
X423700D01*
Y498892D01*
X423746D01*
Y498846D01*
X423792D01*
Y498800D01*
X423838D01*
Y498754D01*
X417146D01*
Y498800D01*
X417100D01*
Y498846D01*
X417054D01*
Y498938D01*
X417008D01*
Y498983D01*
X416962D01*
Y499029D01*
X416917D01*
Y499075D01*
X416871D01*
Y499121D01*
X416825D01*
Y499213D01*
X416779D01*
Y499258D01*
X416733D01*
Y499304D01*
X416687D01*
Y499350D01*
X416642D01*
Y499396D01*
X416596D01*
Y499487D01*
X416550D01*
Y499533D01*
X416504D01*
Y499579D01*
X416458D01*
Y499625D01*
X416412D01*
Y499671D01*
X416367D01*
Y499762D01*
X416321D01*
Y499808D01*
X416275D01*
Y499854D01*
X416229D01*
Y499900D01*
X416183D01*
Y499992D01*
X416138D01*
Y500037D01*
X416092D01*
Y500083D01*
X416046D01*
Y500129D01*
X416000D01*
Y500175D01*
X415954D01*
Y500267D01*
X415908D01*
Y500313D01*
X415863D01*
Y500358D01*
X415817D01*
Y500404D01*
X415771D01*
Y500450D01*
X415725D01*
Y500542D01*
X415679D01*
Y500588D01*
X415633D01*
Y500633D01*
X415588D01*
Y500679D01*
X415542D01*
Y500725D01*
X415496D01*
Y500817D01*
X415450D01*
Y500863D01*
X415404D01*
Y500908D01*
X415358D01*
Y500954D01*
X415312D01*
Y501000D01*
X415267D01*
Y501092D01*
X415221D01*
Y501137D01*
X415175D01*
Y501183D01*
X415129D01*
Y501229D01*
X415083D01*
Y501275D01*
X415037D01*
Y501367D01*
X414992D01*
Y501412D01*
X414946D01*
Y501458D01*
X414900D01*
Y501504D01*
X414854D01*
Y501550D01*
X414808D01*
Y501642D01*
X414762D01*
Y501687D01*
X414717D01*
Y501733D01*
X414671D01*
Y501779D01*
X414625D01*
Y501825D01*
X414579D01*
Y501917D01*
X414533D01*
Y501963D01*
X414488D01*
Y502008D01*
X414442D01*
Y502054D01*
X414396D01*
Y502146D01*
X414350D01*
Y502192D01*
X414304D01*
Y502238D01*
X414258D01*
Y502283D01*
X414213D01*
Y502329D01*
X414167D01*
Y502421D01*
X414121D01*
Y502467D01*
X414075D01*
Y502513D01*
X414029D01*
Y502558D01*
X413983D01*
Y502604D01*
X413938D01*
Y502696D01*
X413892D01*
Y502742D01*
X413846D01*
Y502787D01*
X413800D01*
Y502833D01*
X413754D01*
Y502879D01*
X413708D01*
Y502971D01*
X413662D01*
Y503017D01*
X413617D01*
Y503062D01*
X413571D01*
Y503108D01*
X413525D01*
Y503154D01*
X413479D01*
Y503246D01*
X413433D01*
Y503292D01*
X413387D01*
Y503337D01*
X413342D01*
Y503383D01*
X413296D01*
Y503429D01*
X413250D01*
Y503521D01*
X413204D01*
Y503567D01*
X413158D01*
Y503613D01*
X413112D01*
Y503658D01*
X413067D01*
Y503704D01*
X413021D01*
Y503796D01*
X412975D01*
Y503842D01*
X412929D01*
Y503888D01*
X412883D01*
Y503933D01*
X412838D01*
Y503979D01*
X412792D01*
Y504071D01*
X412746D01*
Y504117D01*
X412700D01*
Y504163D01*
X412654D01*
Y504208D01*
X412608D01*
Y504300D01*
X412563D01*
Y504346D01*
X412517D01*
Y504392D01*
X412471D01*
Y504437D01*
X412425D01*
Y504483D01*
X412379D01*
Y504575D01*
X412333D01*
Y504621D01*
X412288D01*
Y504667D01*
X412242D01*
Y504712D01*
X412196D01*
Y504758D01*
X412150D01*
Y504850D01*
X412104D01*
Y504896D01*
X412058D01*
Y504942D01*
X412012D01*
Y504987D01*
X411967D01*
Y505033D01*
X411921D01*
Y505125D01*
X411875D01*
Y505171D01*
X411829D01*
Y505217D01*
X411783D01*
Y505263D01*
X411737D01*
Y505308D01*
X411692D01*
Y505400D01*
X411646D01*
Y505446D01*
X411600D01*
Y505492D01*
X411554D01*
Y505538D01*
X411508D01*
Y505583D01*
X411462D01*
Y505675D01*
X411417D01*
Y505721D01*
X411371D01*
Y505767D01*
X411325D01*
Y505813D01*
X411279D01*
Y505858D01*
X411233D01*
Y505950D01*
X411188D01*
Y505996D01*
X411142D01*
Y506042D01*
X411096D01*
Y506087D01*
X411050D01*
Y506133D01*
X411004D01*
Y506179D01*
X410958D01*
Y506271D01*
X410913D01*
Y506317D01*
X410867D01*
Y506362D01*
X410821D01*
Y506408D01*
X410775D01*
Y506454D01*
X410729D01*
Y506500D01*
X410683D01*
Y506592D01*
X410638D01*
Y506637D01*
X410592D01*
Y506683D01*
X410546D01*
Y506729D01*
X410500D01*
Y506775D01*
X410454D01*
Y506821D01*
X410408D01*
Y506913D01*
X410362D01*
Y506958D01*
X410317D01*
Y507004D01*
X410271D01*
Y507050D01*
X410225D01*
Y507096D01*
X410179D01*
Y507188D01*
X410133D01*
Y507233D01*
X410087D01*
Y507279D01*
X410042D01*
Y507325D01*
X409996D01*
Y507371D01*
X409950D01*
Y507417D01*
X409904D01*
Y507508D01*
X409858D01*
Y507554D01*
X409812D01*
Y507600D01*
X409767D01*
Y507646D01*
X409721D01*
Y507692D01*
X409675D01*
Y507783D01*
X409629D01*
Y507829D01*
X409583D01*
Y507875D01*
X409538D01*
Y507921D01*
X409492D01*
Y507967D01*
X409446D01*
Y508012D01*
X409400D01*
Y508104D01*
X409354D01*
Y508150D01*
X409308D01*
Y508196D01*
X409263D01*
Y508242D01*
X409217D01*
Y508287D01*
X409171D01*
Y508379D01*
X409125D01*
Y508425D01*
X409079D01*
Y508471D01*
X409033D01*
Y508517D01*
X408988D01*
Y508563D01*
X408942D01*
Y508608D01*
X408896D01*
Y508700D01*
X408850D01*
Y508746D01*
X408804D01*
Y508792D01*
X408758D01*
Y508838D01*
X408712D01*
Y508883D01*
X408667D01*
Y508975D01*
X408621D01*
Y509021D01*
X408575D01*
Y509067D01*
X408529D01*
Y509113D01*
X408483D01*
Y509158D01*
X408437D01*
Y509204D01*
X408392D01*
Y509296D01*
X408346D01*
Y509342D01*
X408300D01*
Y509387D01*
X408254D01*
Y509433D01*
X408208D01*
Y509479D01*
X412563D01*
Y509525D01*
X413021D01*
Y509571D01*
X413525D01*
Y509617D01*
X413892D01*
Y509662D01*
X414167D01*
Y509708D01*
X414442D01*
Y509754D01*
X414625D01*
Y509800D01*
X414808D01*
Y509846D01*
X414946D01*
Y509892D01*
X415129D01*
Y509937D01*
X415221D01*
Y509983D01*
X415358D01*
Y510029D01*
X415450D01*
Y510075D01*
X415542D01*
Y510121D01*
X415588D01*
Y510167D01*
X415679D01*
Y510213D01*
X415725D01*
Y510258D01*
X415817D01*
Y510304D01*
X415863D01*
Y510350D01*
X415908D01*
Y510396D01*
X415954D01*
Y510442D01*
X416000D01*
Y510488D01*
X416046D01*
Y510533D01*
X416092D01*
Y510579D01*
X416138D01*
Y510671D01*
X416183D01*
Y510717D01*
X416229D01*
Y510763D01*
X416275D01*
Y510854D01*
X416321D01*
Y510946D01*
X416367D01*
Y511083D01*
X416412D01*
Y511175D01*
X416458D01*
Y511358D01*
X416504D01*
Y511633D01*
X416550D01*
Y512092D01*
X416504D01*
Y512367D01*
X416458D01*
Y512550D01*
X416412D01*
Y512687D01*
X416367D01*
Y512779D01*
X416321D01*
Y512871D01*
X416275D01*
Y512962D01*
X416229D01*
Y513008D01*
X416183D01*
Y513100D01*
X416138D01*
Y513146D01*
X416092D01*
Y513192D01*
X416046D01*
Y513237D01*
X416000D01*
Y513283D01*
X415954D01*
Y513329D01*
X415908D01*
Y513375D01*
X415863D01*
Y513421D01*
X415771D01*
Y513467D01*
X415725D01*
Y513513D01*
X415679D01*
Y513558D01*
X415588D01*
Y513604D01*
X415496D01*
Y513650D01*
X415404D01*
Y513696D01*
X415267D01*
Y513742D01*
X415175D01*
Y513788D01*
X415037D01*
Y513833D01*
X414854D01*
Y513879D01*
X414671D01*
Y513925D01*
X414488D01*
Y513971D01*
X414258D01*
Y514017D01*
X413938D01*
Y514062D01*
X413571D01*
Y514108D01*
X413067D01*
Y514154D01*
X412150D01*
Y514200D01*
X406008D01*
Y514154D01*
X405733D01*
Y514108D01*
X405596D01*
Y514062D01*
X405458D01*
Y514017D01*
X405367D01*
Y513971D01*
X405275D01*
Y513925D01*
X405183D01*
Y513879D01*
X405092D01*
Y513833D01*
X405046D01*
Y513788D01*
X404954D01*
Y513742D01*
X404908D01*
Y513696D01*
X404862D01*
Y513650D01*
X404817D01*
Y513604D01*
X404771D01*
Y513558D01*
X404725D01*
Y513513D01*
X404679D01*
Y513467D01*
X404633D01*
Y513421D01*
X404588D01*
Y513375D01*
X404542D01*
Y513283D01*
X404496D01*
Y513237D01*
X404450D01*
Y513146D01*
X404404D01*
Y513054D01*
X404358D01*
Y512962D01*
X404313D01*
Y512871D01*
X404267D01*
Y512733D01*
X404221D01*
Y512596D01*
X404175D01*
Y512367D01*
X404129D01*
Y498754D01*
X398263D01*
Y517592D01*
X414304D01*
Y517546D01*
D02*
G37*
G36*
X384421D02*
X385475D01*
Y517500D01*
X386208D01*
Y517454D01*
X386758D01*
Y517408D01*
X387217D01*
Y517362D01*
X387538D01*
Y517317D01*
X387858D01*
Y517271D01*
X388133D01*
Y517225D01*
X388363D01*
Y517179D01*
X388592D01*
Y517133D01*
X388821D01*
Y517088D01*
X389004D01*
Y517042D01*
X389188D01*
Y516996D01*
X389371D01*
Y516950D01*
X389554D01*
Y516904D01*
X389692D01*
Y516858D01*
X389829D01*
Y516813D01*
X389967D01*
Y516767D01*
X390058D01*
Y516721D01*
X390196D01*
Y516675D01*
X390287D01*
Y516629D01*
X390425D01*
Y516583D01*
X390517D01*
Y516538D01*
X390608D01*
Y516492D01*
X390700D01*
Y516446D01*
X390792D01*
Y516400D01*
X390883D01*
Y516354D01*
X390975D01*
Y516308D01*
X391067D01*
Y516262D01*
X391158D01*
Y516217D01*
X391250D01*
Y516171D01*
X391342D01*
Y516125D01*
X391433D01*
Y516079D01*
X391479D01*
Y516033D01*
X391571D01*
Y515987D01*
X391663D01*
Y515942D01*
X391708D01*
Y515896D01*
X391800D01*
Y515850D01*
X391846D01*
Y515804D01*
X391937D01*
Y515758D01*
X391983D01*
Y515712D01*
X392029D01*
Y515667D01*
X392121D01*
Y515621D01*
X392167D01*
Y515575D01*
X392213D01*
Y515529D01*
X392304D01*
Y515483D01*
X392350D01*
Y515438D01*
X392396D01*
Y515392D01*
X392442D01*
Y515346D01*
X392488D01*
Y515300D01*
X392533D01*
Y515254D01*
X392625D01*
Y515208D01*
X392671D01*
Y515163D01*
X392717D01*
Y515117D01*
X392762D01*
Y515071D01*
X392808D01*
Y515025D01*
X392854D01*
Y514979D01*
X392900D01*
Y514888D01*
X392946D01*
Y514842D01*
X392992D01*
Y514796D01*
X393038D01*
Y514750D01*
X393083D01*
Y514704D01*
X393129D01*
Y514658D01*
X393175D01*
Y514567D01*
X393221D01*
Y514521D01*
X393267D01*
Y514475D01*
X393313D01*
Y514383D01*
X393358D01*
Y514337D01*
X393404D01*
Y514246D01*
X393450D01*
Y514154D01*
X393496D01*
Y514108D01*
X393542D01*
Y514017D01*
X393587D01*
Y513925D01*
X393633D01*
Y513833D01*
X393679D01*
Y513742D01*
X393725D01*
Y513650D01*
X393771D01*
Y513558D01*
X393817D01*
Y513421D01*
X393863D01*
Y513329D01*
X393908D01*
Y513192D01*
X393954D01*
Y513008D01*
X394000D01*
Y512871D01*
X394046D01*
Y512642D01*
X394092D01*
Y512413D01*
X394138D01*
Y512046D01*
X394183D01*
Y510808D01*
X394138D01*
Y510396D01*
X394092D01*
Y510167D01*
X394046D01*
Y509937D01*
X394000D01*
Y509754D01*
X393954D01*
Y509617D01*
X393908D01*
Y509479D01*
X393863D01*
Y509342D01*
X393817D01*
Y509250D01*
X393771D01*
Y509158D01*
Y509113D01*
X393725D01*
Y509021D01*
X393679D01*
Y508929D01*
X393633D01*
Y508838D01*
X393587D01*
Y508746D01*
X393542D01*
Y508700D01*
X393496D01*
Y508608D01*
X393450D01*
Y508517D01*
X393404D01*
Y508471D01*
X393358D01*
Y508425D01*
X393313D01*
Y508333D01*
X393267D01*
Y508287D01*
X393221D01*
Y508242D01*
X393175D01*
Y508196D01*
X393129D01*
Y508150D01*
X393083D01*
Y508104D01*
X393038D01*
Y508012D01*
X392992D01*
Y507967D01*
X392946D01*
Y507921D01*
X392900D01*
Y507875D01*
X392854D01*
Y507829D01*
X392808D01*
Y507783D01*
X392762D01*
Y507737D01*
X392717D01*
Y507692D01*
X392671D01*
Y507646D01*
X392625D01*
Y507600D01*
X392579D01*
Y507554D01*
X392488D01*
Y507508D01*
X392442D01*
Y507463D01*
X392396D01*
Y507417D01*
X392350D01*
Y507371D01*
X392304D01*
Y507325D01*
X392213D01*
Y507279D01*
X392167D01*
Y507233D01*
X392121D01*
Y507188D01*
X392029D01*
Y507142D01*
X391983D01*
Y507096D01*
X391892D01*
Y507050D01*
X391846D01*
Y507004D01*
X391754D01*
Y506958D01*
X391708D01*
Y506913D01*
X391617D01*
Y506867D01*
X391525D01*
Y506821D01*
X391479D01*
Y506775D01*
X391388D01*
Y506729D01*
X391296D01*
Y506683D01*
X391204D01*
Y506637D01*
X391112D01*
Y506592D01*
X391021D01*
Y506546D01*
X390929D01*
Y506500D01*
X390838D01*
Y506454D01*
X390746D01*
Y506408D01*
X390654D01*
Y506362D01*
X390517D01*
Y506317D01*
X390425D01*
Y506271D01*
X390287D01*
Y506225D01*
X390150D01*
Y506179D01*
X390058D01*
Y506133D01*
X389921D01*
Y506087D01*
X389783D01*
Y506042D01*
X389646D01*
Y505996D01*
X389462D01*
Y505950D01*
X389325D01*
Y505904D01*
X389142D01*
Y505858D01*
X388958D01*
Y505813D01*
X388775D01*
Y505767D01*
X388546D01*
Y505721D01*
X388317D01*
Y505675D01*
X388042D01*
Y505629D01*
X387767D01*
Y505583D01*
X387400D01*
Y505538D01*
X386942D01*
Y505492D01*
X386346D01*
Y505446D01*
X385613D01*
Y505400D01*
X384604D01*
Y505354D01*
X375254D01*
Y498754D01*
X369388D01*
Y517592D01*
X384421D01*
Y517546D01*
D02*
G37*
G36*
X501617Y514200D02*
X491350D01*
Y514154D01*
X490617D01*
Y514108D01*
X490158D01*
Y514062D01*
X489838D01*
Y514017D01*
X489563D01*
Y513971D01*
X489333D01*
Y513925D01*
X489150D01*
Y513879D01*
X488921D01*
Y513833D01*
X488783D01*
Y513788D01*
X488600D01*
Y513742D01*
X488462D01*
Y513696D01*
X488325D01*
Y513650D01*
X488233D01*
Y513604D01*
X488096D01*
Y513558D01*
X487958D01*
Y513513D01*
X487867D01*
Y513467D01*
X487775D01*
Y513421D01*
X487683D01*
Y513375D01*
X487592D01*
Y513329D01*
X487500D01*
Y513283D01*
X487408D01*
Y513237D01*
X487362D01*
Y513192D01*
X487271D01*
Y513146D01*
X487179D01*
Y513100D01*
X487133D01*
Y513054D01*
X487042D01*
Y513008D01*
X486996D01*
Y512962D01*
X486950D01*
Y512917D01*
X486858D01*
Y512871D01*
X486812D01*
Y512825D01*
X486767D01*
Y512779D01*
X486721D01*
Y512733D01*
X486675D01*
Y512687D01*
X486629D01*
Y512642D01*
X486583D01*
Y512596D01*
X486538D01*
Y512550D01*
X486492D01*
Y512504D01*
X486446D01*
Y512458D01*
X486400D01*
Y512413D01*
X486354D01*
Y512367D01*
X486308D01*
Y512321D01*
X486263D01*
Y512229D01*
X486217D01*
Y512183D01*
X486171D01*
Y512138D01*
X486125D01*
Y512046D01*
X486079D01*
Y512000D01*
X486033D01*
Y511908D01*
X485988D01*
Y511863D01*
X485942D01*
Y511771D01*
X485896D01*
Y511679D01*
X485850D01*
Y511587D01*
X485804D01*
Y511496D01*
X485758D01*
Y511404D01*
X485712D01*
Y511267D01*
X485667D01*
Y511175D01*
X485621D01*
Y511037D01*
X485575D01*
Y510900D01*
X485529D01*
Y510717D01*
X485483D01*
Y510533D01*
X485437D01*
Y510304D01*
X485392D01*
Y510029D01*
X485346D01*
Y509846D01*
X501617D01*
Y506546D01*
X485300D01*
Y506362D01*
X485346D01*
Y505721D01*
X485392D01*
Y505446D01*
X485437D01*
Y505217D01*
X485483D01*
Y505033D01*
X485529D01*
Y504850D01*
X485575D01*
Y504712D01*
X485621D01*
Y504621D01*
X485667D01*
Y504483D01*
X485712D01*
Y504392D01*
X485758D01*
Y504300D01*
X485804D01*
Y504208D01*
X485850D01*
Y504117D01*
X485896D01*
Y504025D01*
X485942D01*
Y503979D01*
X485988D01*
Y503888D01*
X486033D01*
Y503842D01*
X486079D01*
Y503750D01*
X486125D01*
Y503704D01*
X486171D01*
Y503658D01*
X486217D01*
Y503613D01*
X486263D01*
Y503567D01*
X486308D01*
Y503475D01*
X486354D01*
Y503429D01*
X486400D01*
Y503383D01*
X486492D01*
Y503337D01*
X486538D01*
Y503292D01*
X486583D01*
Y503246D01*
X486629D01*
Y503200D01*
X486675D01*
Y503154D01*
X486767D01*
Y503108D01*
X486812D01*
Y503062D01*
X486858D01*
Y503017D01*
X486950D01*
Y502971D01*
X486996D01*
Y502925D01*
X487087D01*
Y502879D01*
X487179D01*
Y502833D01*
X487271D01*
Y502787D01*
X487317D01*
Y502742D01*
X487454D01*
Y502696D01*
X487546D01*
Y502650D01*
X487638D01*
Y502604D01*
X487775D01*
Y502558D01*
X487867D01*
Y502513D01*
X488004D01*
Y502467D01*
X488142D01*
Y502421D01*
X488279D01*
Y502375D01*
X488462D01*
Y502329D01*
X488646D01*
Y502283D01*
X488829D01*
Y502238D01*
X489058D01*
Y502192D01*
X489288D01*
Y502146D01*
X489608D01*
Y502100D01*
X489975D01*
Y502054D01*
X490433D01*
Y502008D01*
X491258D01*
Y501963D01*
X501617D01*
Y498663D01*
X489563D01*
Y498708D01*
X488692D01*
Y498754D01*
X488188D01*
Y498800D01*
X487775D01*
Y498846D01*
X487408D01*
Y498892D01*
X487133D01*
Y498938D01*
X486858D01*
Y498983D01*
X486629D01*
Y499029D01*
X486400D01*
Y499075D01*
X486171D01*
Y499121D01*
X485988D01*
Y499167D01*
X485804D01*
Y499213D01*
X485621D01*
Y499258D01*
X485437D01*
Y499304D01*
X485300D01*
Y499350D01*
X485162D01*
Y499396D01*
X485025D01*
Y499442D01*
X484888D01*
Y499487D01*
X484750D01*
Y499533D01*
X484613D01*
Y499579D01*
X484521D01*
Y499625D01*
X484383D01*
Y499671D01*
X484292D01*
Y499717D01*
X484154D01*
Y499762D01*
X484062D01*
Y499808D01*
X483925D01*
Y499854D01*
X483833D01*
Y499900D01*
X483742D01*
Y499946D01*
X483650D01*
Y499992D01*
X483558D01*
Y500037D01*
X483467D01*
Y500083D01*
X483375D01*
Y500129D01*
X483283D01*
Y500175D01*
X483192D01*
Y500221D01*
X483100D01*
Y500267D01*
X483008D01*
Y500313D01*
X482917D01*
Y500358D01*
X482825D01*
Y500404D01*
X482779D01*
Y500450D01*
X482688D01*
Y500496D01*
X482596D01*
Y500542D01*
X482504D01*
Y500588D01*
X482458D01*
Y500633D01*
X482367D01*
Y500679D01*
X482321D01*
Y500725D01*
X482229D01*
Y500771D01*
X482183D01*
Y500817D01*
X482092D01*
Y500863D01*
X482046D01*
Y500908D01*
X481954D01*
Y500954D01*
X481908D01*
Y501000D01*
X481817D01*
Y501046D01*
X481771D01*
Y501092D01*
X481725D01*
Y501137D01*
X481633D01*
Y501183D01*
X481588D01*
Y501229D01*
X481542D01*
Y501275D01*
X481496D01*
Y501321D01*
X481404D01*
Y501367D01*
X481358D01*
Y501412D01*
X481313D01*
Y501458D01*
X481267D01*
Y501504D01*
X481221D01*
Y501550D01*
X481175D01*
Y501596D01*
X481129D01*
Y501642D01*
X481083D01*
Y501687D01*
X481038D01*
Y501733D01*
X480992D01*
Y501779D01*
X480946D01*
Y501825D01*
X480900D01*
Y501871D01*
X480854D01*
Y501917D01*
X480808D01*
Y501963D01*
X480762D01*
Y502008D01*
X480717D01*
Y502054D01*
X480671D01*
Y502100D01*
X480625D01*
Y502146D01*
X480579D01*
Y502192D01*
X480533D01*
Y502238D01*
X480487D01*
Y502283D01*
X480442D01*
Y502375D01*
X480396D01*
Y502421D01*
X480350D01*
Y502467D01*
X480304D01*
Y502513D01*
X480258D01*
Y502604D01*
X480212D01*
Y502650D01*
X480167D01*
Y502696D01*
X480121D01*
Y502787D01*
X480075D01*
Y502833D01*
X480029D01*
Y502925D01*
X479983D01*
Y502971D01*
X479938D01*
Y503062D01*
X479892D01*
Y503108D01*
X479846D01*
Y503200D01*
X479800D01*
Y503292D01*
X479754D01*
Y503337D01*
X479708D01*
Y503429D01*
X479663D01*
Y503521D01*
X479617D01*
Y503613D01*
X479571D01*
Y503704D01*
X479525D01*
Y503796D01*
X479479D01*
Y503888D01*
X479433D01*
Y503979D01*
X479388D01*
Y504071D01*
X479342D01*
Y504163D01*
X479296D01*
Y504300D01*
X479250D01*
Y504392D01*
X479204D01*
Y504529D01*
X479158D01*
Y504621D01*
X479112D01*
Y504758D01*
X479067D01*
Y504942D01*
X479021D01*
Y505079D01*
X478975D01*
Y505263D01*
X478929D01*
Y505446D01*
X478883D01*
Y505629D01*
X478837D01*
Y505858D01*
X478792D01*
Y506133D01*
X478746D01*
Y506454D01*
X478700D01*
Y506958D01*
X478654D01*
Y508608D01*
X478700D01*
Y509158D01*
X478746D01*
Y509571D01*
X478792D01*
Y509846D01*
X478837D01*
Y510121D01*
X478883D01*
Y510350D01*
X478929D01*
Y510533D01*
X478975D01*
Y510717D01*
X479021D01*
Y510900D01*
X479067D01*
Y511083D01*
X479112D01*
Y511221D01*
X479158D01*
Y511358D01*
X479204D01*
Y511496D01*
X479250D01*
Y511633D01*
X479296D01*
Y511725D01*
X479342D01*
Y511863D01*
X479388D01*
Y511954D01*
X479433D01*
Y512046D01*
X479479D01*
Y512183D01*
X479525D01*
Y512275D01*
X479571D01*
Y512367D01*
X479617D01*
Y512458D01*
X479663D01*
Y512550D01*
X479708D01*
Y512642D01*
X479754D01*
Y512687D01*
X479800D01*
Y512779D01*
X479846D01*
Y512871D01*
X479892D01*
Y512962D01*
X479938D01*
Y513008D01*
X479983D01*
Y513100D01*
X480029D01*
Y513146D01*
X480075D01*
Y513237D01*
X480121D01*
Y513283D01*
X480167D01*
Y513375D01*
X480212D01*
Y513421D01*
X480258D01*
Y513513D01*
X480304D01*
Y513558D01*
X480350D01*
Y513604D01*
X480396D01*
Y513696D01*
X480442D01*
Y513742D01*
X480487D01*
Y513788D01*
X480533D01*
Y513833D01*
X480579D01*
Y513925D01*
X480625D01*
Y513971D01*
X480671D01*
Y514017D01*
X480717D01*
Y514062D01*
X480762D01*
Y514108D01*
X480808D01*
Y514154D01*
X480854D01*
Y514200D01*
X480900D01*
Y514246D01*
X480946D01*
Y514292D01*
X480992D01*
Y514337D01*
X481038D01*
Y514383D01*
X481083D01*
Y514429D01*
X481129D01*
Y514475D01*
X481175D01*
Y514521D01*
X481221D01*
Y514567D01*
X481267D01*
Y514612D01*
X481313D01*
Y514658D01*
X481358D01*
Y514704D01*
X481404D01*
Y514750D01*
X481450D01*
Y514796D01*
X481496D01*
Y514842D01*
X481588D01*
Y514888D01*
X481633D01*
Y514933D01*
X481679D01*
Y514979D01*
X481725D01*
Y515025D01*
X481817D01*
Y515071D01*
X481862D01*
Y515117D01*
X481908D01*
Y515163D01*
X482000D01*
Y515208D01*
X482046D01*
Y515254D01*
X482092D01*
Y515300D01*
X482183D01*
Y515346D01*
X482229D01*
Y515392D01*
X482321D01*
Y515438D01*
X482412D01*
Y515483D01*
X482458D01*
Y515529D01*
X482550D01*
Y515575D01*
X482596D01*
Y515621D01*
X482688D01*
Y515667D01*
X482779D01*
Y515712D01*
X482871D01*
Y515758D01*
X482917D01*
Y515804D01*
X483008D01*
Y515850D01*
X483100D01*
Y515896D01*
X483192D01*
Y515942D01*
X483283D01*
Y515987D01*
X483375D01*
Y516033D01*
X483467D01*
Y516079D01*
X483558D01*
Y516125D01*
X483696D01*
Y516171D01*
X483787D01*
Y516217D01*
X483879D01*
Y516262D01*
X484017D01*
Y516308D01*
X484108D01*
Y516354D01*
X484246D01*
Y516400D01*
X484338D01*
Y516446D01*
X484475D01*
Y516492D01*
X484613D01*
Y516538D01*
X484750D01*
Y516583D01*
X484888D01*
Y516629D01*
X485025D01*
Y516675D01*
X485162D01*
Y516721D01*
X485346D01*
Y516767D01*
X485483D01*
Y516813D01*
X485667D01*
Y516858D01*
X485850D01*
Y516904D01*
X486033D01*
Y516950D01*
X486217D01*
Y516996D01*
X486446D01*
Y517042D01*
X486675D01*
Y517088D01*
X486904D01*
Y517133D01*
X487179D01*
Y517179D01*
X487454D01*
Y517225D01*
X487729D01*
Y517271D01*
X488096D01*
Y517317D01*
X488462D01*
Y517362D01*
X488921D01*
Y517408D01*
X489471D01*
Y517454D01*
X490250D01*
Y517500D01*
X501617D01*
Y514200D01*
D02*
G37*
G36*
X447625Y507096D02*
X447579D01*
Y506729D01*
X447533D01*
Y506454D01*
X447487D01*
Y506179D01*
X447442D01*
Y505950D01*
X447396D01*
Y505767D01*
X447350D01*
Y505538D01*
X447304D01*
Y505400D01*
X447258D01*
Y505217D01*
X447213D01*
Y505079D01*
X447167D01*
Y504942D01*
X447121D01*
Y504804D01*
X447075D01*
Y504667D01*
X447029D01*
Y504529D01*
X446983D01*
Y504392D01*
X446938D01*
Y504300D01*
X446892D01*
Y504163D01*
X446846D01*
Y504071D01*
X446800D01*
Y503979D01*
X446754D01*
Y503888D01*
X446708D01*
Y503750D01*
X446663D01*
Y503658D01*
X446617D01*
Y503567D01*
X446571D01*
Y503475D01*
X446525D01*
Y503383D01*
X446479D01*
Y503292D01*
X446433D01*
Y503200D01*
X446387D01*
Y503108D01*
X446342D01*
Y503062D01*
X446296D01*
Y502971D01*
X446250D01*
Y502879D01*
X446204D01*
Y502833D01*
X446158D01*
Y502742D01*
X446112D01*
Y502650D01*
X446067D01*
Y502604D01*
X446021D01*
Y502513D01*
X445975D01*
Y502467D01*
X445929D01*
Y502375D01*
X445883D01*
Y502283D01*
X445837D01*
Y502238D01*
X445792D01*
Y502192D01*
X445746D01*
Y502100D01*
X445700D01*
Y502054D01*
X445654D01*
Y501963D01*
X445608D01*
Y501917D01*
X445563D01*
Y501871D01*
X445517D01*
Y501779D01*
X445471D01*
Y501733D01*
X445425D01*
Y501687D01*
X445379D01*
Y501642D01*
X445333D01*
Y501550D01*
X445288D01*
Y501504D01*
X445242D01*
Y501458D01*
X445196D01*
Y501412D01*
X445150D01*
Y501367D01*
X445104D01*
Y501275D01*
X445058D01*
Y501229D01*
X445013D01*
Y501183D01*
X444967D01*
Y501137D01*
X444921D01*
Y501092D01*
X444875D01*
Y501046D01*
X444829D01*
Y501000D01*
X444783D01*
Y500954D01*
X444737D01*
Y500908D01*
X444692D01*
Y500863D01*
X444646D01*
Y500817D01*
X444600D01*
Y500771D01*
X444554D01*
Y500725D01*
X444508D01*
Y500679D01*
X444462D01*
Y500633D01*
X444417D01*
Y500588D01*
X444371D01*
Y500542D01*
X444325D01*
Y500496D01*
X444279D01*
Y500450D01*
X444233D01*
Y500404D01*
X444187D01*
Y500358D01*
X444142D01*
Y500313D01*
X444096D01*
Y500267D01*
X444004D01*
Y500221D01*
X443958D01*
Y500175D01*
X443913D01*
Y500129D01*
X443867D01*
Y500083D01*
X443821D01*
Y500037D01*
X443729D01*
Y499992D01*
X443683D01*
Y499946D01*
X443638D01*
Y499900D01*
X443592D01*
Y499854D01*
X443500D01*
Y499808D01*
X443454D01*
Y499762D01*
X443408D01*
Y499717D01*
X443317D01*
Y499671D01*
X443271D01*
Y499625D01*
X443225D01*
Y499579D01*
X443133D01*
Y499533D01*
X443087D01*
Y499487D01*
X442996D01*
Y499442D01*
X442950D01*
Y499396D01*
X442858D01*
Y499350D01*
X442812D01*
Y499304D01*
X442721D01*
Y499258D01*
X442629D01*
Y499213D01*
X442583D01*
Y499167D01*
X442492D01*
Y499121D01*
X442400D01*
Y499075D01*
X442308D01*
Y499029D01*
X442263D01*
Y498983D01*
X442171D01*
Y498938D01*
X442079D01*
Y498892D01*
X441988D01*
Y498846D01*
X441896D01*
Y498800D01*
X441804D01*
Y498754D01*
X441713D01*
Y498708D01*
X441621D01*
Y498663D01*
X441529D01*
Y498617D01*
X441437D01*
Y498571D01*
X441300D01*
Y498525D01*
X441208D01*
Y498479D01*
X441117D01*
Y498433D01*
X440979D01*
Y498387D01*
X440842D01*
Y498342D01*
X440750D01*
Y498296D01*
X440613D01*
Y498250D01*
X440475D01*
Y498204D01*
X440338D01*
Y498158D01*
X440154D01*
Y498112D01*
X440017D01*
Y498067D01*
X439879D01*
Y498021D01*
X439650D01*
Y497975D01*
X439467D01*
Y497929D01*
X439283D01*
Y497883D01*
X439054D01*
Y497837D01*
X438733D01*
Y497792D01*
X438413D01*
Y497746D01*
X438000D01*
Y497700D01*
X437725D01*
Y502650D01*
X437908D01*
Y502696D01*
X438183D01*
Y502742D01*
X438413D01*
Y502787D01*
X438642D01*
Y502833D01*
X438779D01*
Y502879D01*
X438917D01*
Y502925D01*
X439054D01*
Y502971D01*
X439192D01*
Y503017D01*
X439329D01*
Y503062D01*
X439421D01*
Y503108D01*
X439512D01*
Y503154D01*
X439604D01*
Y503200D01*
X439696D01*
Y503246D01*
X439787D01*
Y503292D01*
X439879D01*
Y503337D01*
X439971D01*
Y503383D01*
X440017D01*
Y503429D01*
X440108D01*
Y503475D01*
X440200D01*
Y503521D01*
X440246D01*
Y503567D01*
X440338D01*
Y503613D01*
X440383D01*
Y503658D01*
X440429D01*
Y503704D01*
X440521D01*
Y503750D01*
X440567D01*
Y503796D01*
X440613D01*
Y503842D01*
X440704D01*
Y503888D01*
X440750D01*
Y503933D01*
X440796D01*
Y503979D01*
X440842D01*
Y504025D01*
X440887D01*
Y504071D01*
X440933D01*
Y504117D01*
X440979D01*
Y504163D01*
X441025D01*
Y504208D01*
X441071D01*
Y504254D01*
X441117D01*
Y504300D01*
X441208D01*
Y504346D01*
X441254D01*
Y504437D01*
X441300D01*
Y504483D01*
X441346D01*
Y504529D01*
X441392D01*
Y504575D01*
X441437D01*
Y504621D01*
X441483D01*
Y504667D01*
X441529D01*
Y504758D01*
X441575D01*
Y504804D01*
X441621D01*
Y504850D01*
X441667D01*
Y504942D01*
X441713D01*
Y504987D01*
X441758D01*
Y505079D01*
X441804D01*
Y505125D01*
X441850D01*
Y505171D01*
X441896D01*
Y505263D01*
X441942D01*
Y505354D01*
X441988D01*
Y505400D01*
X442033D01*
Y505492D01*
X442079D01*
Y505583D01*
X442125D01*
Y505675D01*
X442171D01*
Y505767D01*
X442217D01*
Y505858D01*
X442263D01*
Y505950D01*
X442308D01*
Y506087D01*
X442354D01*
Y506179D01*
X442400D01*
Y506317D01*
X442446D01*
Y506454D01*
X442492D01*
Y506592D01*
X442537D01*
Y506775D01*
X442583D01*
Y506958D01*
X442629D01*
Y507188D01*
X442675D01*
Y507508D01*
X442721D01*
Y507600D01*
X447625D01*
Y507096D01*
D02*
G37*
G36*
X431675Y507279D02*
X431721D01*
Y507050D01*
X431767D01*
Y506867D01*
X431812D01*
Y506683D01*
X431858D01*
Y506500D01*
X431904D01*
Y506362D01*
X431950D01*
Y506271D01*
X431996D01*
Y506133D01*
X432042D01*
Y505996D01*
X432088D01*
Y505904D01*
X432133D01*
Y505813D01*
X432179D01*
Y505721D01*
X432225D01*
Y505629D01*
X432271D01*
Y505538D01*
X432317D01*
Y505446D01*
X432363D01*
Y505400D01*
X432408D01*
Y505308D01*
X432454D01*
Y505217D01*
X432500D01*
Y505171D01*
X432546D01*
Y505079D01*
X432592D01*
Y505033D01*
X432638D01*
Y504942D01*
X432683D01*
Y504896D01*
X432729D01*
Y504850D01*
X432775D01*
Y504758D01*
X432821D01*
Y504712D01*
X432867D01*
Y504667D01*
X432912D01*
Y504621D01*
X432958D01*
Y504529D01*
X433004D01*
Y504483D01*
X433050D01*
Y504437D01*
X433096D01*
Y504392D01*
X433142D01*
Y504346D01*
X433187D01*
Y504300D01*
X433233D01*
Y504254D01*
X433279D01*
Y504208D01*
X433325D01*
Y504163D01*
X433371D01*
Y504117D01*
X433417D01*
Y504071D01*
X433462D01*
Y504025D01*
X433508D01*
Y503979D01*
X433600D01*
Y503933D01*
X433646D01*
Y503888D01*
X433692D01*
Y503842D01*
X433738D01*
Y503796D01*
X433829D01*
Y503750D01*
X433875D01*
Y503704D01*
X433921D01*
Y503658D01*
X434013D01*
Y503613D01*
X434058D01*
Y503567D01*
X434150D01*
Y503521D01*
X434196D01*
Y503475D01*
X434288D01*
Y503429D01*
X434379D01*
Y503383D01*
X434425D01*
Y503337D01*
X434517D01*
Y503292D01*
X434608D01*
Y503246D01*
X434700D01*
Y503200D01*
X434792D01*
Y503154D01*
X434883D01*
Y503108D01*
X434975D01*
Y503062D01*
X435112D01*
Y503017D01*
X435204D01*
Y502971D01*
X435342D01*
Y502925D01*
X435479D01*
Y502879D01*
X435663D01*
Y502833D01*
X435800D01*
Y502787D01*
X435983D01*
Y502742D01*
X436212D01*
Y502696D01*
X436533D01*
Y502650D01*
X436763D01*
Y497700D01*
X436258D01*
Y497746D01*
X435800D01*
Y497792D01*
X435479D01*
Y497837D01*
X435250D01*
Y497883D01*
X435021D01*
Y497929D01*
X434792D01*
Y497975D01*
X434562D01*
Y498021D01*
X434425D01*
Y498067D01*
X434288D01*
Y498112D01*
X434058D01*
Y498158D01*
X433967D01*
Y498204D01*
X433829D01*
Y498250D01*
X433692D01*
Y498296D01*
X433554D01*
Y498342D01*
X433417D01*
Y498387D01*
X433325D01*
Y498433D01*
X433233D01*
Y498479D01*
X433096D01*
Y498525D01*
X432958D01*
Y498571D01*
X432867D01*
Y498617D01*
X432775D01*
Y498663D01*
X432683D01*
Y498708D01*
X432592D01*
Y498754D01*
X432500D01*
Y498800D01*
X432408D01*
Y498846D01*
X432317D01*
Y498892D01*
X432225D01*
Y498938D01*
X432133D01*
Y498983D01*
X432088D01*
Y499029D01*
X431996D01*
Y499075D01*
X431904D01*
Y499121D01*
X431812D01*
Y499167D01*
X431721D01*
Y499213D01*
X431675D01*
Y499258D01*
X431583D01*
Y499304D01*
X431537D01*
Y499350D01*
X431446D01*
Y499396D01*
X431400D01*
Y499442D01*
X431308D01*
Y499487D01*
X431262D01*
Y499533D01*
X431171D01*
Y499579D01*
X431125D01*
Y499625D01*
X431033D01*
Y499671D01*
X430988D01*
Y499717D01*
X430942D01*
Y499762D01*
X430850D01*
Y499808D01*
X430804D01*
Y499854D01*
X430758D01*
Y499900D01*
X430667D01*
Y499946D01*
X430621D01*
Y499992D01*
X430575D01*
Y500037D01*
X430529D01*
Y500083D01*
X430438D01*
Y500129D01*
X430392D01*
Y500175D01*
X430346D01*
Y500221D01*
X430300D01*
Y500267D01*
X430254D01*
Y500313D01*
X430208D01*
Y500358D01*
X430117D01*
Y500404D01*
X430071D01*
Y500450D01*
X430025D01*
Y500496D01*
X429979D01*
Y500542D01*
X429933D01*
Y500588D01*
X429887D01*
Y500633D01*
X429842D01*
Y500679D01*
X429796D01*
Y500725D01*
X429750D01*
Y500771D01*
X429704D01*
Y500817D01*
X429658D01*
Y500863D01*
X429612D01*
Y500908D01*
X429567D01*
Y500954D01*
X429521D01*
Y501000D01*
X429475D01*
Y501046D01*
X429429D01*
Y501092D01*
X429383D01*
Y501137D01*
X429338D01*
Y501183D01*
X429292D01*
Y501275D01*
X429246D01*
Y501321D01*
X429200D01*
Y501367D01*
X429154D01*
Y501412D01*
X429108D01*
Y501458D01*
X429063D01*
Y501504D01*
X429017D01*
Y501596D01*
X428971D01*
Y501642D01*
X428925D01*
Y501687D01*
X428879D01*
Y501779D01*
X428833D01*
Y501825D01*
X428788D01*
Y501871D01*
X428742D01*
Y501963D01*
X428696D01*
Y502008D01*
X428650D01*
Y502054D01*
X428604D01*
Y502146D01*
X428558D01*
Y502192D01*
X428512D01*
Y502238D01*
X428467D01*
Y502329D01*
X428421D01*
Y502421D01*
X428375D01*
Y502467D01*
X428329D01*
Y502558D01*
X428283D01*
Y502604D01*
X428237D01*
Y502696D01*
X428192D01*
Y502742D01*
X428146D01*
Y502833D01*
X428100D01*
Y502925D01*
X428054D01*
Y503017D01*
X428008D01*
Y503062D01*
X427962D01*
Y503154D01*
X427917D01*
Y503246D01*
X427871D01*
Y503337D01*
X427825D01*
Y503429D01*
X427779D01*
Y503521D01*
X427733D01*
Y503613D01*
X427688D01*
Y503704D01*
X427642D01*
Y503796D01*
X427596D01*
Y503888D01*
X427550D01*
Y504025D01*
X427504D01*
Y504117D01*
X427458D01*
Y504254D01*
X427413D01*
Y504346D01*
X427367D01*
Y504437D01*
X427321D01*
Y504575D01*
X427275D01*
Y504712D01*
X427229D01*
Y504850D01*
X427183D01*
Y504987D01*
X427138D01*
Y505125D01*
X427092D01*
Y505308D01*
X427046D01*
Y505492D01*
X427000D01*
Y505629D01*
X426954D01*
Y505858D01*
X426908D01*
Y506087D01*
X426862D01*
Y506317D01*
X426817D01*
Y506592D01*
X426771D01*
Y506958D01*
X426725D01*
Y507554D01*
X426679D01*
Y507600D01*
X431675D01*
Y507279D01*
D02*
G37*
G36*
X433233Y493758D02*
Y492933D01*
X431858D01*
Y493804D01*
X433233D01*
Y493758D01*
D02*
G37*
G36*
X495567Y492475D02*
X495750D01*
Y492429D01*
X495888D01*
Y492383D01*
X495979D01*
Y492338D01*
X496025D01*
Y492292D01*
X496117D01*
Y492246D01*
X496163D01*
Y492154D01*
X496208D01*
Y492108D01*
X496254D01*
Y492017D01*
X496300D01*
Y491833D01*
X496346D01*
Y491054D01*
X495108D01*
Y491650D01*
X495062D01*
Y491696D01*
X495017D01*
Y491742D01*
X494925D01*
Y491787D01*
X494146D01*
Y488992D01*
X492863D01*
Y489358D01*
Y489404D01*
Y492521D01*
X495567D01*
Y492475D01*
D02*
G37*
G36*
X476500D02*
X476683D01*
Y492429D01*
X476821D01*
Y492383D01*
X476912D01*
Y492338D01*
X476958D01*
Y492292D01*
X477050D01*
Y492246D01*
X477096D01*
Y492154D01*
X477142D01*
Y492108D01*
X477187D01*
Y492017D01*
X477233D01*
Y491833D01*
X477279D01*
Y491054D01*
X476042D01*
Y491650D01*
X475996D01*
Y491696D01*
X475950D01*
Y491742D01*
X475858D01*
Y491787D01*
X475079D01*
Y491467D01*
Y491421D01*
Y488992D01*
X473796D01*
Y492521D01*
X476500D01*
Y492475D01*
D02*
G37*
G36*
X377362D02*
X377546D01*
Y492429D01*
X377683D01*
Y492383D01*
X377775D01*
Y492338D01*
X377821D01*
Y492292D01*
X377912D01*
Y492246D01*
X377958D01*
Y492154D01*
X378004D01*
Y492108D01*
X378050D01*
Y492017D01*
X378096D01*
Y491833D01*
X378142D01*
Y491054D01*
X376904D01*
Y491650D01*
X376858D01*
Y491696D01*
X376813D01*
Y491742D01*
X376721D01*
Y491787D01*
X375942D01*
Y488992D01*
X374658D01*
Y489038D01*
Y492521D01*
X377362D01*
Y492475D01*
D02*
G37*
G36*
X421225D02*
X421179D01*
Y492383D01*
X421133D01*
Y492292D01*
X421088D01*
Y492246D01*
X421042D01*
Y492154D01*
X420996D01*
Y492063D01*
X420950D01*
Y492017D01*
X420904D01*
Y491925D01*
X420858D01*
Y491833D01*
X420813D01*
Y491787D01*
X420767D01*
Y491696D01*
X420721D01*
Y491604D01*
X420675D01*
Y491512D01*
X420629D01*
Y491467D01*
X420583D01*
Y491375D01*
X420538D01*
Y491283D01*
X420492D01*
Y491237D01*
X420446D01*
Y491146D01*
X420400D01*
Y491054D01*
X420354D01*
Y491008D01*
X420308D01*
Y490917D01*
X420262D01*
Y490825D01*
X420217D01*
Y490779D01*
X420171D01*
Y490688D01*
X420125D01*
Y490596D01*
X420079D01*
Y490550D01*
X420033D01*
Y490458D01*
X419987D01*
Y490367D01*
X419942D01*
Y490321D01*
X419896D01*
Y490229D01*
X419850D01*
Y490137D01*
X419804D01*
Y490046D01*
X419758D01*
Y490000D01*
X419712D01*
Y489908D01*
X419667D01*
Y489817D01*
X419621D01*
Y489771D01*
X419575D01*
Y489679D01*
X419529D01*
Y489587D01*
X419483D01*
Y489542D01*
X419438D01*
Y489450D01*
X419392D01*
Y489358D01*
X419346D01*
Y489313D01*
X419300D01*
Y489221D01*
X419254D01*
Y489129D01*
X419208D01*
Y489083D01*
X419163D01*
Y488992D01*
X417742D01*
Y489083D01*
X417696D01*
Y489129D01*
X417650D01*
Y489221D01*
X417604D01*
Y489313D01*
X417558D01*
Y489404D01*
X417513D01*
Y489450D01*
X417467D01*
Y489542D01*
X417421D01*
Y489633D01*
X417375D01*
Y489725D01*
X417329D01*
Y489817D01*
X417283D01*
Y489862D01*
X417238D01*
Y489954D01*
X417192D01*
Y490046D01*
X417146D01*
Y490137D01*
X417100D01*
Y490183D01*
X417054D01*
Y490275D01*
X417008D01*
Y490367D01*
X416962D01*
Y490458D01*
X416917D01*
Y490504D01*
X416871D01*
Y490596D01*
X416825D01*
Y490688D01*
X416779D01*
Y490779D01*
X416733D01*
Y490871D01*
X416687D01*
Y490917D01*
X416642D01*
Y491008D01*
X416596D01*
Y491100D01*
X416550D01*
Y491192D01*
X416504D01*
Y491237D01*
X416458D01*
Y491329D01*
X416412D01*
Y491421D01*
X416367D01*
Y491512D01*
X416321D01*
Y491558D01*
X416275D01*
Y491650D01*
X416229D01*
Y491742D01*
X416183D01*
Y491833D01*
X416138D01*
Y491879D01*
X416092D01*
Y491971D01*
X416046D01*
Y492063D01*
X416000D01*
Y492154D01*
X415954D01*
Y492246D01*
X415908D01*
Y492292D01*
X415863D01*
Y492383D01*
X415817D01*
Y492475D01*
X415771D01*
Y492521D01*
X417192D01*
Y492475D01*
X417238D01*
Y492383D01*
X417283D01*
Y492292D01*
X417329D01*
Y492200D01*
X417375D01*
Y492108D01*
X417421D01*
Y492017D01*
X417467D01*
Y491971D01*
X417513D01*
Y491879D01*
X417558D01*
Y491787D01*
X417604D01*
Y491696D01*
X417650D01*
Y491604D01*
X417696D01*
Y491512D01*
X417742D01*
Y491421D01*
X417788D01*
Y491329D01*
X417833D01*
Y491237D01*
X417879D01*
Y491146D01*
X417925D01*
Y491100D01*
X417971D01*
Y491008D01*
X418017D01*
Y490917D01*
X418062D01*
Y490825D01*
X418108D01*
Y490733D01*
X418154D01*
Y490642D01*
X418200D01*
Y490550D01*
X418246D01*
Y490458D01*
X418292D01*
Y490367D01*
X418337D01*
Y490275D01*
X418383D01*
Y490183D01*
X418429D01*
Y490137D01*
X418475D01*
Y490092D01*
X418521D01*
Y490183D01*
X418567D01*
Y490229D01*
X418612D01*
Y490321D01*
X418658D01*
Y490413D01*
X418704D01*
Y490504D01*
X418750D01*
Y490596D01*
X418796D01*
Y490642D01*
X418842D01*
Y490733D01*
X418888D01*
Y490825D01*
X418933D01*
Y490917D01*
X418979D01*
Y490963D01*
Y491008D01*
X419025D01*
Y491054D01*
X419071D01*
Y491146D01*
X419117D01*
Y491237D01*
X419163D01*
Y491329D01*
X419208D01*
Y491421D01*
X419254D01*
Y491467D01*
X419300D01*
Y491558D01*
X419346D01*
Y491650D01*
X419392D01*
Y491742D01*
X419438D01*
Y491833D01*
X419483D01*
Y491879D01*
X419529D01*
Y491971D01*
X419575D01*
Y492063D01*
X419621D01*
Y492154D01*
X419667D01*
Y492246D01*
X419712D01*
Y492292D01*
X419758D01*
Y492383D01*
X419804D01*
Y492475D01*
X419850D01*
Y492521D01*
X421225D01*
Y492475D01*
D02*
G37*
G36*
X501388Y488717D02*
X501342D01*
Y488533D01*
X501296D01*
Y488442D01*
X501250D01*
Y488350D01*
X501204D01*
Y488258D01*
X501158D01*
Y488212D01*
X501113D01*
Y488167D01*
X501067D01*
Y488121D01*
X501021D01*
Y488075D01*
X500975D01*
Y488029D01*
X500929D01*
Y487983D01*
X500838D01*
Y487937D01*
X500746D01*
Y487892D01*
X500654D01*
Y487846D01*
X500562D01*
Y487800D01*
X500379D01*
Y487754D01*
X500150D01*
Y487708D01*
X497171D01*
Y488487D01*
X499646D01*
Y488533D01*
X499829D01*
Y488579D01*
X499921D01*
Y488625D01*
X500012D01*
Y488671D01*
X500058D01*
Y488763D01*
X500104D01*
Y488946D01*
X500150D01*
Y488992D01*
X498408D01*
Y489038D01*
X498088D01*
Y489083D01*
X497904D01*
Y489129D01*
X497813D01*
Y489175D01*
X497675D01*
Y489221D01*
X497583D01*
Y489267D01*
X497538D01*
Y489313D01*
X497492D01*
Y489358D01*
X497400D01*
Y489404D01*
X497354D01*
Y489496D01*
X497308D01*
Y489542D01*
X497262D01*
Y489587D01*
X497217D01*
Y489679D01*
X497171D01*
Y489817D01*
X497125D01*
Y490000D01*
X497079D01*
Y492521D01*
X498317D01*
Y490229D01*
X498362D01*
Y490092D01*
X498408D01*
Y490000D01*
X498454D01*
Y489954D01*
X498500D01*
Y489908D01*
X498637D01*
Y489862D01*
X498821D01*
Y489817D01*
X500150D01*
Y492521D01*
X501388D01*
Y488717D01*
D02*
G37*
G36*
X401517D02*
X401471D01*
Y488533D01*
X401425D01*
Y488442D01*
X401379D01*
Y488350D01*
X401333D01*
Y488258D01*
X401288D01*
Y488212D01*
X401242D01*
Y488167D01*
X401196D01*
Y488121D01*
X401150D01*
Y488075D01*
X401104D01*
Y488029D01*
X401058D01*
Y487983D01*
X400967D01*
Y487937D01*
X400875D01*
Y487892D01*
X400783D01*
Y487846D01*
X400692D01*
Y487800D01*
X400508D01*
Y487754D01*
X400279D01*
Y487708D01*
X397300D01*
Y488487D01*
X399775D01*
Y488533D01*
X399958D01*
Y488579D01*
X400050D01*
Y488625D01*
X400142D01*
Y488671D01*
X400187D01*
Y488763D01*
X400233D01*
Y488946D01*
X400279D01*
Y488992D01*
X398537D01*
Y489038D01*
X398217D01*
Y489083D01*
X398033D01*
Y489129D01*
X397942D01*
Y489175D01*
X397804D01*
Y489221D01*
X397712D01*
Y489267D01*
X397667D01*
Y489313D01*
X397621D01*
Y489358D01*
X397529D01*
Y489404D01*
X397483D01*
Y489496D01*
X397438D01*
Y489542D01*
X397392D01*
Y489587D01*
X397346D01*
Y489679D01*
X397300D01*
Y489817D01*
X397254D01*
Y490000D01*
X397208D01*
Y492521D01*
X398446D01*
Y490229D01*
X398492D01*
Y490092D01*
X398537D01*
Y490000D01*
X398583D01*
Y489954D01*
X398629D01*
Y489908D01*
X398767D01*
Y489862D01*
X398950D01*
Y489817D01*
X400279D01*
Y492521D01*
X401517D01*
Y488717D01*
D02*
G37*
G36*
X485392Y492521D02*
X486721D01*
Y491787D01*
X485392D01*
Y490229D01*
X485437D01*
Y490046D01*
X485483D01*
Y489954D01*
X485529D01*
Y489908D01*
X485575D01*
Y489862D01*
X485621D01*
Y489817D01*
X485712D01*
Y489771D01*
X485896D01*
Y489725D01*
X486721D01*
Y488992D01*
X485117D01*
Y489038D01*
X484888D01*
Y489083D01*
X484750D01*
Y489129D01*
X484658D01*
Y489175D01*
X484613D01*
Y489221D01*
X484521D01*
Y489267D01*
X484475D01*
Y489313D01*
X484429D01*
Y489358D01*
X484383D01*
Y489404D01*
X484338D01*
Y489450D01*
X484292D01*
Y489542D01*
X484246D01*
Y489587D01*
X484200D01*
Y489725D01*
X484154D01*
Y491787D01*
X483238D01*
Y492521D01*
X484154D01*
Y493804D01*
X485392D01*
Y492521D01*
D02*
G37*
G36*
X481267Y492475D02*
X481496D01*
Y492429D01*
X481679D01*
Y492383D01*
X481817D01*
Y492338D01*
X481908D01*
Y492292D01*
X482000D01*
Y492246D01*
X482092D01*
Y492200D01*
X482137D01*
Y492154D01*
X482229D01*
Y492108D01*
X482275D01*
Y492063D01*
X482321D01*
Y492017D01*
X482367D01*
Y491971D01*
X482412D01*
Y491879D01*
X482458D01*
Y491787D01*
X482504D01*
Y491696D01*
X482550D01*
Y491558D01*
X482596D01*
Y488992D01*
X478746D01*
Y489038D01*
X478562D01*
Y489083D01*
X478425D01*
Y489129D01*
X478333D01*
Y489175D01*
X478242D01*
Y489221D01*
X478150D01*
Y489267D01*
X478104D01*
Y489313D01*
X478058D01*
Y489358D01*
X478013D01*
Y489404D01*
X477967D01*
Y489450D01*
X477921D01*
Y489542D01*
X477875D01*
Y489633D01*
X477829D01*
Y489725D01*
X477783D01*
Y490321D01*
X477829D01*
Y490458D01*
X477875D01*
Y490550D01*
X477921D01*
Y490642D01*
X477967D01*
Y490688D01*
X478013D01*
Y490733D01*
X478058D01*
Y490779D01*
X478104D01*
Y490825D01*
X478150D01*
Y490871D01*
X478196D01*
Y490917D01*
X478288D01*
Y490963D01*
X478379D01*
Y491008D01*
X478517D01*
Y491054D01*
X478700D01*
Y491100D01*
X478975D01*
Y491146D01*
X481313D01*
Y491329D01*
X481267D01*
Y491467D01*
X481221D01*
Y491512D01*
X481175D01*
Y491558D01*
X481129D01*
Y491604D01*
X481038D01*
Y491650D01*
X480900D01*
Y491696D01*
X480625D01*
Y491742D01*
X478104D01*
Y492521D01*
X481267D01*
Y492475D01*
D02*
G37*
G36*
X464125Y492521D02*
X465867D01*
Y492475D01*
X466187D01*
Y492429D01*
X466371D01*
Y492383D01*
X466508D01*
Y492338D01*
X466600D01*
Y492292D01*
X466692D01*
Y492246D01*
X466783D01*
Y492200D01*
X466875D01*
Y492154D01*
X466921D01*
Y492108D01*
X466967D01*
Y492063D01*
X467013D01*
Y492017D01*
X467104D01*
Y491971D01*
X467150D01*
Y491925D01*
X467196D01*
Y491833D01*
X467242D01*
Y491787D01*
X467287D01*
Y491742D01*
X467333D01*
Y491650D01*
X467379D01*
Y491604D01*
X467425D01*
Y491512D01*
X467471D01*
Y491421D01*
X467517D01*
Y491283D01*
X467562D01*
Y491008D01*
X467608D01*
Y490596D01*
X467562D01*
Y490321D01*
X467517D01*
Y490137D01*
X467471D01*
Y490046D01*
X467425D01*
Y489954D01*
X467379D01*
Y489862D01*
X467333D01*
Y489817D01*
X467287D01*
Y489725D01*
X467242D01*
Y489679D01*
X467196D01*
Y489633D01*
X467150D01*
Y489587D01*
X467104D01*
Y489542D01*
X467058D01*
Y489496D01*
X467013D01*
Y489450D01*
X466967D01*
Y489404D01*
X466875D01*
Y489358D01*
X466829D01*
Y489313D01*
X466738D01*
Y489267D01*
X466646D01*
Y489221D01*
X466554D01*
Y489175D01*
X466417D01*
Y489129D01*
X466279D01*
Y489083D01*
X466142D01*
Y489038D01*
X465867D01*
Y488992D01*
X462887D01*
Y493804D01*
X464125D01*
Y492521D01*
D02*
G37*
G36*
X460458Y492475D02*
X460687D01*
Y492429D01*
X460871D01*
Y492383D01*
X461008D01*
Y492338D01*
X461100D01*
Y492292D01*
X461192D01*
Y492246D01*
X461283D01*
Y492200D01*
X461329D01*
Y492154D01*
X461421D01*
Y492108D01*
X461467D01*
Y492063D01*
X461513D01*
Y492017D01*
X461558D01*
Y491971D01*
X461604D01*
Y491879D01*
X461650D01*
Y491787D01*
X461696D01*
Y491696D01*
X461742D01*
Y491558D01*
X461788D01*
Y488992D01*
X457937D01*
Y489038D01*
X457754D01*
Y489083D01*
X457617D01*
Y489129D01*
X457525D01*
Y489175D01*
X457433D01*
Y489221D01*
X457342D01*
Y489267D01*
X457296D01*
Y489313D01*
X457250D01*
Y489358D01*
X457204D01*
Y489404D01*
X457158D01*
Y489450D01*
X457113D01*
Y489542D01*
X457067D01*
Y489633D01*
X457021D01*
Y489725D01*
X456975D01*
Y490321D01*
X457021D01*
Y490458D01*
X457067D01*
Y490550D01*
X457113D01*
Y490642D01*
X457158D01*
Y490688D01*
X457204D01*
Y490733D01*
X457250D01*
Y490779D01*
X457296D01*
Y490825D01*
X457342D01*
Y490871D01*
X457387D01*
Y490917D01*
X457479D01*
Y490963D01*
X457571D01*
Y491008D01*
X457708D01*
Y491054D01*
X457892D01*
Y491100D01*
X458167D01*
Y491146D01*
X460504D01*
Y491329D01*
X460458D01*
Y491467D01*
X460413D01*
Y491512D01*
X460367D01*
Y491558D01*
X460321D01*
Y491604D01*
X460229D01*
Y491650D01*
X460092D01*
Y491696D01*
X459817D01*
Y491742D01*
X457296D01*
Y492521D01*
X460458D01*
Y492475D01*
D02*
G37*
G36*
X456150Y489725D02*
Y489679D01*
Y488992D01*
X454821D01*
Y493804D01*
X456150D01*
Y489725D01*
D02*
G37*
G36*
X450238Y491742D02*
X447579D01*
Y491696D01*
X447350D01*
Y491650D01*
X447258D01*
Y491604D01*
X447213D01*
Y491329D01*
X447258D01*
Y491283D01*
X447350D01*
Y491237D01*
X447487D01*
Y491192D01*
X449367D01*
Y491146D01*
X449596D01*
Y491100D01*
X449779D01*
Y491054D01*
X449871D01*
Y491008D01*
X450008D01*
Y490963D01*
X450054D01*
Y490917D01*
X450146D01*
Y490871D01*
X450192D01*
Y490825D01*
X450238D01*
Y490779D01*
X450283D01*
Y490733D01*
X450329D01*
Y490688D01*
X450375D01*
Y490596D01*
X450421D01*
Y490504D01*
X450467D01*
Y490367D01*
X450513D01*
Y489862D01*
X450467D01*
Y489725D01*
X450421D01*
Y489633D01*
X450375D01*
Y489542D01*
X450329D01*
Y489450D01*
X450283D01*
Y489404D01*
X450238D01*
Y489358D01*
X450192D01*
Y489313D01*
X450146D01*
Y489267D01*
X450100D01*
Y489221D01*
X450008D01*
Y489175D01*
X449963D01*
Y489129D01*
X449871D01*
Y489083D01*
X449733D01*
Y489038D01*
X449596D01*
Y488992D01*
X445975D01*
Y489771D01*
X448908D01*
Y489817D01*
X449046D01*
Y489862D01*
X449137D01*
Y489908D01*
X449229D01*
Y490046D01*
X449275D01*
Y490137D01*
X449229D01*
Y490229D01*
X449183D01*
Y490275D01*
X449137D01*
Y490321D01*
X449046D01*
Y490367D01*
X448817D01*
Y490413D01*
X446892D01*
Y490458D01*
X446617D01*
Y490504D01*
X446479D01*
Y490550D01*
X446342D01*
Y490596D01*
X446250D01*
Y490642D01*
X446204D01*
Y490688D01*
X446158D01*
Y490733D01*
X446112D01*
Y490779D01*
X446067D01*
Y490825D01*
X446021D01*
Y490917D01*
X445975D01*
Y491008D01*
X445929D01*
Y491192D01*
X445883D01*
Y491650D01*
X445929D01*
Y491833D01*
X445975D01*
Y491925D01*
X446021D01*
Y492017D01*
X446067D01*
Y492063D01*
X446112D01*
Y492154D01*
X446158D01*
Y492200D01*
X446250D01*
Y492246D01*
X446296D01*
Y492292D01*
X446387D01*
Y492338D01*
X446479D01*
Y492383D01*
X446571D01*
Y492429D01*
X446754D01*
Y492475D01*
X446983D01*
Y492521D01*
X450238D01*
Y491742D01*
D02*
G37*
G36*
X445288D02*
X443133D01*
Y491696D01*
X442904D01*
Y491650D01*
X442767D01*
Y491604D01*
X442675D01*
Y491558D01*
X442629D01*
Y491512D01*
X442583D01*
Y491467D01*
X442537D01*
Y491375D01*
X442492D01*
Y491237D01*
X442446D01*
Y491146D01*
X445288D01*
Y490367D01*
X442446D01*
Y490275D01*
X442492D01*
Y490092D01*
X442537D01*
Y490046D01*
X442583D01*
Y489954D01*
X442675D01*
Y489908D01*
X442721D01*
Y489862D01*
X442858D01*
Y489817D01*
X443133D01*
Y489771D01*
X445288D01*
Y488992D01*
X442812D01*
Y489038D01*
X442537D01*
Y489083D01*
X442308D01*
Y489129D01*
X442171D01*
Y489175D01*
X442079D01*
Y489221D01*
X441942D01*
Y489267D01*
X441850D01*
Y489313D01*
X441804D01*
Y489358D01*
X441713D01*
Y489404D01*
X441667D01*
Y489450D01*
X441575D01*
Y489496D01*
X441529D01*
Y489542D01*
X441483D01*
Y489587D01*
X441437D01*
Y489633D01*
X441392D01*
Y489725D01*
X441346D01*
Y489771D01*
X441300D01*
Y489817D01*
X441254D01*
Y489908D01*
X441208D01*
Y490000D01*
X441162D01*
Y490137D01*
X441117D01*
Y490321D01*
X441071D01*
Y491192D01*
X441117D01*
Y491375D01*
X441162D01*
Y491467D01*
X441208D01*
Y491604D01*
X441254D01*
Y491650D01*
X441300D01*
Y491742D01*
X441346D01*
Y491787D01*
X441392D01*
Y491833D01*
X441437D01*
Y491925D01*
X441483D01*
Y491971D01*
X441575D01*
Y492017D01*
X441621D01*
Y492063D01*
X441667D01*
Y492108D01*
X441713D01*
Y492154D01*
X441804D01*
Y492200D01*
X441896D01*
Y492246D01*
X441988D01*
Y492292D01*
X442079D01*
Y492338D01*
X442217D01*
Y492383D01*
X442354D01*
Y492429D01*
X442537D01*
Y492475D01*
X442812D01*
Y492521D01*
X445288D01*
Y491742D01*
D02*
G37*
G36*
X440292Y488992D02*
X438963D01*
Y491925D01*
Y491971D01*
Y493804D01*
X440292D01*
Y488992D01*
D02*
G37*
G36*
X438183Y491742D02*
X436350D01*
Y491696D01*
X436075D01*
Y491650D01*
X435892D01*
Y491604D01*
X435754D01*
Y491558D01*
X435663D01*
Y491512D01*
X435617D01*
Y491467D01*
X435571D01*
Y491421D01*
X435525D01*
Y491375D01*
X435479D01*
Y491329D01*
X435433D01*
Y491237D01*
X435388D01*
Y491100D01*
X435342D01*
Y490871D01*
X435296D01*
Y490642D01*
X435342D01*
Y490413D01*
X435388D01*
Y490275D01*
X435433D01*
Y490229D01*
X435479D01*
Y490137D01*
X435525D01*
Y490092D01*
X435571D01*
Y490046D01*
X435663D01*
Y490000D01*
X435708D01*
Y489954D01*
X435800D01*
Y489908D01*
X435892D01*
Y489862D01*
X436029D01*
Y489817D01*
X436258D01*
Y489771D01*
X438183D01*
Y488992D01*
X435800D01*
Y489038D01*
X435479D01*
Y489083D01*
X435296D01*
Y489129D01*
X435158D01*
Y489175D01*
X435067D01*
Y489221D01*
X434975D01*
Y489267D01*
X434883D01*
Y489313D01*
X434792D01*
Y489358D01*
X434746D01*
Y489404D01*
X434654D01*
Y489450D01*
X434608D01*
Y489496D01*
X434562D01*
Y489542D01*
X434517D01*
Y489587D01*
X434471D01*
Y489633D01*
X434425D01*
Y489679D01*
X434379D01*
Y489725D01*
X434333D01*
Y489817D01*
X434288D01*
Y489862D01*
X434242D01*
Y489954D01*
X434196D01*
Y490000D01*
X434150D01*
Y490137D01*
X434104D01*
Y490229D01*
X434058D01*
Y490367D01*
X434013D01*
Y491146D01*
X434058D01*
Y491283D01*
X434104D01*
Y491421D01*
X434150D01*
Y491512D01*
X434196D01*
Y491604D01*
X434242D01*
Y491650D01*
X434288D01*
Y491742D01*
X434333D01*
Y491787D01*
X434379D01*
Y491833D01*
X434425D01*
Y491879D01*
X434471D01*
Y491925D01*
X434517D01*
Y491971D01*
X434562D01*
Y492017D01*
X434608D01*
Y492063D01*
X434654D01*
Y492108D01*
X434700D01*
Y492154D01*
X434792D01*
Y492200D01*
X434883D01*
Y492246D01*
X434975D01*
Y492292D01*
X435067D01*
Y492338D01*
X435204D01*
Y492383D01*
X435342D01*
Y492429D01*
X435525D01*
Y492475D01*
X435800D01*
Y492521D01*
X438183D01*
Y491742D01*
D02*
G37*
G36*
X433233Y488992D02*
X431858D01*
Y490688D01*
Y490733D01*
Y492521D01*
X433233D01*
Y488992D01*
D02*
G37*
G36*
X427733Y492521D02*
X429475D01*
Y492475D01*
X429750D01*
Y492429D01*
X429933D01*
Y492383D01*
X430071D01*
Y492338D01*
X430208D01*
Y492292D01*
X430300D01*
Y492246D01*
X430346D01*
Y492200D01*
X430438D01*
Y492154D01*
X430483D01*
Y492108D01*
X430529D01*
Y492063D01*
X430575D01*
Y492017D01*
X430621D01*
Y491925D01*
X430667D01*
Y491833D01*
X430713D01*
Y491742D01*
X430758D01*
Y491604D01*
X430804D01*
Y488992D01*
X429521D01*
Y491329D01*
X429475D01*
Y491467D01*
X429429D01*
Y491512D01*
X429383D01*
Y491558D01*
X429338D01*
Y491604D01*
X429200D01*
Y491650D01*
X429017D01*
Y491696D01*
X427733D01*
Y488992D01*
X426450D01*
Y493804D01*
X427733D01*
Y492521D01*
D02*
G37*
G36*
X425717Y491742D02*
X423562D01*
Y491696D01*
X423333D01*
Y491650D01*
X423196D01*
Y491604D01*
X423104D01*
Y491558D01*
X423058D01*
Y491512D01*
X423012D01*
Y491467D01*
X422967D01*
Y491375D01*
X422921D01*
Y491237D01*
X422875D01*
Y491146D01*
X425717D01*
Y490367D01*
X422875D01*
Y490275D01*
X422921D01*
Y490092D01*
X422967D01*
Y490046D01*
X423012D01*
Y489954D01*
X423104D01*
Y489908D01*
X423150D01*
Y489862D01*
X423287D01*
Y489817D01*
X423562D01*
Y489771D01*
X425717D01*
Y488992D01*
X423242D01*
Y489038D01*
X422967D01*
Y489083D01*
X422738D01*
Y489129D01*
X422600D01*
Y489175D01*
X422508D01*
Y489221D01*
X422371D01*
Y489267D01*
X422279D01*
Y489313D01*
X422233D01*
Y489358D01*
X422142D01*
Y489404D01*
X422096D01*
Y489450D01*
X422004D01*
Y489496D01*
X421958D01*
Y489542D01*
X421912D01*
Y489587D01*
X421867D01*
Y489633D01*
X421821D01*
Y489725D01*
X421775D01*
Y489771D01*
X421729D01*
Y489817D01*
X421683D01*
Y489908D01*
X421637D01*
Y490000D01*
X421592D01*
Y490137D01*
X421546D01*
Y490321D01*
X421500D01*
Y491192D01*
X421546D01*
Y491375D01*
X421592D01*
Y491467D01*
X421637D01*
Y491604D01*
X421683D01*
Y491650D01*
X421729D01*
Y491742D01*
X421775D01*
Y491787D01*
X421821D01*
Y491833D01*
X421867D01*
Y491925D01*
X421912D01*
Y491971D01*
X422004D01*
Y492017D01*
X422050D01*
Y492063D01*
X422096D01*
Y492108D01*
X422142D01*
Y492154D01*
X422233D01*
Y492200D01*
X422325D01*
Y492246D01*
X422417D01*
Y492292D01*
X422508D01*
Y492338D01*
X422646D01*
Y492383D01*
X422783D01*
Y492429D01*
X422967D01*
Y492475D01*
X423242D01*
Y492521D01*
X425717D01*
Y491742D01*
D02*
G37*
G36*
X412058D02*
X409904D01*
Y491696D01*
X409675D01*
Y491650D01*
X409538D01*
Y491604D01*
X409446D01*
Y491558D01*
X409400D01*
Y491512D01*
X409354D01*
Y491467D01*
X409308D01*
Y491375D01*
X409263D01*
Y491237D01*
X409217D01*
Y491146D01*
X412058D01*
Y490367D01*
X409217D01*
Y490275D01*
X409263D01*
Y490092D01*
X409308D01*
Y490046D01*
X409354D01*
Y489954D01*
X409446D01*
Y489908D01*
X409492D01*
Y489862D01*
X409629D01*
Y489817D01*
X409904D01*
Y489771D01*
X412058D01*
Y488992D01*
X409583D01*
Y489038D01*
X409308D01*
Y489083D01*
X409079D01*
Y489129D01*
X408942D01*
Y489175D01*
X408850D01*
Y489221D01*
X408712D01*
Y489267D01*
X408621D01*
Y489313D01*
X408575D01*
Y489358D01*
X408483D01*
Y489404D01*
X408437D01*
Y489450D01*
X408346D01*
Y489496D01*
X408300D01*
Y489542D01*
X408254D01*
Y489587D01*
X408208D01*
Y489633D01*
X408162D01*
Y489725D01*
X408117D01*
Y489771D01*
X408071D01*
Y489817D01*
X408025D01*
Y489908D01*
X407979D01*
Y490000D01*
X407933D01*
Y490137D01*
X407888D01*
Y490321D01*
X407842D01*
Y491192D01*
X407888D01*
Y491375D01*
X407933D01*
Y491467D01*
X407979D01*
Y491604D01*
X408025D01*
Y491650D01*
X408071D01*
Y491742D01*
X408117D01*
Y491787D01*
X408162D01*
Y491833D01*
X408208D01*
Y491925D01*
X408254D01*
Y491971D01*
X408346D01*
Y492017D01*
X408392D01*
Y492063D01*
X408437D01*
Y492108D01*
X408483D01*
Y492154D01*
X408575D01*
Y492200D01*
X408667D01*
Y492246D01*
X408758D01*
Y492292D01*
X408850D01*
Y492338D01*
X408988D01*
Y492383D01*
X409125D01*
Y492429D01*
X409308D01*
Y492475D01*
X409583D01*
Y492521D01*
X412058D01*
Y491742D01*
D02*
G37*
G36*
X395192Y492521D02*
X396521D01*
Y491787D01*
X395192D01*
Y490229D01*
X395237D01*
Y490046D01*
X395283D01*
Y489954D01*
X395329D01*
Y489908D01*
X395375D01*
Y489862D01*
X395421D01*
Y489817D01*
X395513D01*
Y489771D01*
X395696D01*
Y489725D01*
X396521D01*
Y488992D01*
X394917D01*
Y489038D01*
X394688D01*
Y489083D01*
X394550D01*
Y489129D01*
X394458D01*
Y489175D01*
X394412D01*
Y489221D01*
X394321D01*
Y489267D01*
X394275D01*
Y489313D01*
X394229D01*
Y489358D01*
X394183D01*
Y489404D01*
X394138D01*
Y489450D01*
X394092D01*
Y489542D01*
X394046D01*
Y489587D01*
X394000D01*
Y489725D01*
X393954D01*
Y491787D01*
X393038D01*
Y492521D01*
X393954D01*
Y493804D01*
X395192D01*
Y492521D01*
D02*
G37*
G36*
X386025D02*
X387354D01*
Y491787D01*
X386025D01*
Y490229D01*
X386071D01*
Y490046D01*
X386117D01*
Y489954D01*
X386162D01*
Y489908D01*
X386208D01*
Y489862D01*
X386254D01*
Y489817D01*
X386346D01*
Y489771D01*
X386529D01*
Y489725D01*
X387354D01*
Y488992D01*
X385750D01*
Y489038D01*
X385521D01*
Y489083D01*
X385383D01*
Y489129D01*
X385292D01*
Y489175D01*
X385246D01*
Y489221D01*
X385154D01*
Y489267D01*
X385108D01*
Y489313D01*
X385063D01*
Y489358D01*
X385017D01*
Y489404D01*
X384971D01*
Y489450D01*
X384925D01*
Y489542D01*
X384879D01*
Y489587D01*
X384833D01*
Y489725D01*
X384788D01*
Y491787D01*
X383871D01*
Y492521D01*
X384788D01*
Y493804D01*
X386025D01*
Y492521D01*
D02*
G37*
G36*
X490204Y492567D02*
X490479D01*
Y492521D01*
X490708D01*
Y492475D01*
X490846D01*
Y492429D01*
X490983D01*
Y492383D01*
X491075D01*
Y492338D01*
X491167D01*
Y492292D01*
X491258D01*
Y492246D01*
X491304D01*
Y492200D01*
X491396D01*
Y492154D01*
X491488D01*
Y492108D01*
X491533D01*
Y492063D01*
X491579D01*
Y492017D01*
X491625D01*
Y491971D01*
X491671D01*
Y491925D01*
X491717D01*
Y491879D01*
X491762D01*
Y491833D01*
X491808D01*
Y491787D01*
X491854D01*
Y491696D01*
X491900D01*
Y491650D01*
X491946D01*
Y491558D01*
X491992D01*
Y491467D01*
X492037D01*
Y491329D01*
X492083D01*
Y491192D01*
X492129D01*
Y490367D01*
X492083D01*
Y490229D01*
X492037D01*
Y490092D01*
X491992D01*
Y490000D01*
X491946D01*
Y489908D01*
X491900D01*
Y489862D01*
X491854D01*
Y489771D01*
X491808D01*
Y489725D01*
X491762D01*
Y489679D01*
X491717D01*
Y489633D01*
X491671D01*
Y489587D01*
X491625D01*
Y489542D01*
X491579D01*
Y489496D01*
X491533D01*
Y489450D01*
X491442D01*
Y489404D01*
X491396D01*
Y489358D01*
X491304D01*
Y489313D01*
X491258D01*
Y489267D01*
X491167D01*
Y489221D01*
X491075D01*
Y489175D01*
X490983D01*
Y489129D01*
X490846D01*
Y489083D01*
X490708D01*
Y489038D01*
X490525D01*
Y488992D01*
X490250D01*
Y488946D01*
X489058D01*
Y488992D01*
X488783D01*
Y489038D01*
X488600D01*
Y489083D01*
X488417D01*
Y489129D01*
X488325D01*
Y489175D01*
X488188D01*
Y489221D01*
X488096D01*
Y489267D01*
X488050D01*
Y489313D01*
X487958D01*
Y489358D01*
X487867D01*
Y489404D01*
X487821D01*
Y489450D01*
X487729D01*
Y489496D01*
X487683D01*
Y489542D01*
X487638D01*
Y489587D01*
X487592D01*
Y489633D01*
X487546D01*
Y489679D01*
X487500D01*
Y489725D01*
X487454D01*
Y489771D01*
X487408D01*
Y489862D01*
X487362D01*
Y489908D01*
X487317D01*
Y490000D01*
X487271D01*
Y490092D01*
X487225D01*
Y490183D01*
X487179D01*
Y490367D01*
X487133D01*
Y491192D01*
X487179D01*
Y491375D01*
X487225D01*
Y491467D01*
X487271D01*
Y491558D01*
X487317D01*
Y491650D01*
X487362D01*
Y491696D01*
X487408D01*
Y491742D01*
X487454D01*
Y491833D01*
X487500D01*
Y491879D01*
X487546D01*
Y491925D01*
X487592D01*
Y491971D01*
X487638D01*
Y492017D01*
X487683D01*
Y492063D01*
X487775D01*
Y492108D01*
X487821D01*
Y492154D01*
X487867D01*
Y492200D01*
X487958D01*
Y492246D01*
X488050D01*
Y492292D01*
X488096D01*
Y492338D01*
X488188D01*
Y492383D01*
X488325D01*
Y492429D01*
X488417D01*
Y492475D01*
X488600D01*
Y492521D01*
X488783D01*
Y492567D01*
X489058D01*
Y492613D01*
X490204D01*
Y492567D01*
D02*
G37*
G36*
X471092D02*
X471367D01*
Y492521D01*
X471596D01*
Y492475D01*
X471733D01*
Y492429D01*
X471871D01*
Y492383D01*
X471962D01*
Y492338D01*
X472054D01*
Y492292D01*
X472146D01*
Y492246D01*
X472192D01*
Y492200D01*
X472283D01*
Y492154D01*
X472375D01*
Y492108D01*
X472421D01*
Y492063D01*
X472467D01*
Y492017D01*
X472512D01*
Y491971D01*
X472558D01*
Y491925D01*
X472604D01*
Y491879D01*
X472650D01*
Y491833D01*
X472696D01*
Y491787D01*
X472742D01*
Y491696D01*
X472788D01*
Y491650D01*
X472833D01*
Y491558D01*
X472879D01*
Y491467D01*
X472925D01*
Y491329D01*
X472971D01*
Y491192D01*
X473017D01*
Y490367D01*
X472971D01*
Y490229D01*
X472925D01*
Y490092D01*
X472879D01*
Y490000D01*
X472833D01*
Y489908D01*
X472788D01*
Y489862D01*
X472742D01*
Y489771D01*
X472696D01*
Y489725D01*
X472650D01*
Y489679D01*
X472604D01*
Y489633D01*
X472558D01*
Y489587D01*
X472512D01*
Y489542D01*
X472467D01*
Y489496D01*
X472421D01*
Y489450D01*
X472329D01*
Y489404D01*
X472283D01*
Y489358D01*
X472192D01*
Y489313D01*
X472146D01*
Y489267D01*
X472054D01*
Y489221D01*
X471962D01*
Y489175D01*
X471871D01*
Y489129D01*
X471733D01*
Y489083D01*
X471596D01*
Y489038D01*
X471413D01*
Y488992D01*
X471138D01*
Y488946D01*
X469946D01*
Y488992D01*
X469671D01*
Y489038D01*
X469487D01*
Y489083D01*
X469304D01*
Y489129D01*
X469212D01*
Y489175D01*
X469075D01*
Y489221D01*
X468983D01*
Y489267D01*
X468937D01*
Y489313D01*
X468846D01*
Y489358D01*
X468754D01*
Y489404D01*
X468708D01*
Y489450D01*
X468617D01*
Y489496D01*
X468571D01*
Y489542D01*
X468525D01*
Y489587D01*
X468479D01*
Y489633D01*
X468433D01*
Y489679D01*
X468388D01*
Y489725D01*
X468342D01*
Y489771D01*
X468296D01*
Y489862D01*
X468250D01*
Y489908D01*
X468204D01*
Y489954D01*
Y490000D01*
X468158D01*
Y490092D01*
X468113D01*
Y490183D01*
X468067D01*
Y490367D01*
X468021D01*
Y491192D01*
X468067D01*
Y491375D01*
X468113D01*
Y491467D01*
X468158D01*
Y491558D01*
X468204D01*
Y491650D01*
X468250D01*
Y491696D01*
X468296D01*
Y491742D01*
X468342D01*
Y491833D01*
X468388D01*
Y491879D01*
X468433D01*
Y491925D01*
X468479D01*
Y491971D01*
X468525D01*
Y492017D01*
X468571D01*
Y492063D01*
X468663D01*
Y492108D01*
X468708D01*
Y492154D01*
X468754D01*
Y492200D01*
X468846D01*
Y492246D01*
X468937D01*
Y492292D01*
X468983D01*
Y492338D01*
X469075D01*
Y492383D01*
X469212D01*
Y492429D01*
X469304D01*
Y492475D01*
X469487D01*
Y492521D01*
X469671D01*
Y492567D01*
X469946D01*
Y492613D01*
X471092D01*
Y492567D01*
D02*
G37*
G36*
X390838D02*
X391112D01*
Y492521D01*
X391342D01*
Y492475D01*
X391479D01*
Y492429D01*
X391617D01*
Y492383D01*
X391708D01*
Y492338D01*
X391800D01*
Y492292D01*
X391892D01*
Y492246D01*
X391937D01*
Y492200D01*
X392029D01*
Y492154D01*
X392121D01*
Y492108D01*
X392167D01*
Y492063D01*
X392213D01*
Y492017D01*
X392258D01*
Y491971D01*
X392304D01*
Y491925D01*
X392350D01*
Y491879D01*
X392396D01*
Y491833D01*
X392442D01*
Y491787D01*
X392488D01*
Y491696D01*
X392533D01*
Y491650D01*
X392579D01*
Y491558D01*
X392625D01*
Y491467D01*
X392671D01*
Y491329D01*
X392717D01*
Y491192D01*
X392762D01*
Y490367D01*
X392717D01*
Y490229D01*
X392671D01*
Y490092D01*
X392625D01*
Y490000D01*
X392579D01*
Y489908D01*
X392533D01*
Y489862D01*
X392488D01*
Y489771D01*
X392442D01*
Y489725D01*
X392396D01*
Y489679D01*
X392350D01*
Y489633D01*
X392304D01*
Y489587D01*
X392258D01*
Y489542D01*
X392213D01*
Y489496D01*
X392167D01*
Y489450D01*
X392075D01*
Y489404D01*
X392029D01*
Y489358D01*
X391937D01*
Y489313D01*
X391892D01*
Y489267D01*
X391800D01*
Y489221D01*
X391708D01*
Y489175D01*
X391617D01*
Y489129D01*
X391479D01*
Y489083D01*
X391342D01*
Y489038D01*
X391158D01*
Y488992D01*
X390883D01*
Y488946D01*
X389692D01*
Y488992D01*
X389417D01*
Y489038D01*
X389233D01*
Y489083D01*
X389050D01*
Y489129D01*
X388958D01*
Y489175D01*
X388821D01*
Y489221D01*
X388729D01*
Y489267D01*
X388683D01*
Y489313D01*
X388592D01*
Y489358D01*
X388500D01*
Y489404D01*
X388454D01*
Y489450D01*
X388363D01*
Y489496D01*
X388317D01*
Y489542D01*
X388271D01*
Y489587D01*
X388225D01*
Y489633D01*
X388179D01*
Y489679D01*
X388133D01*
Y489725D01*
X388088D01*
Y489771D01*
X388042D01*
Y489862D01*
X387996D01*
Y489908D01*
X387950D01*
Y490000D01*
X387904D01*
Y490092D01*
X387858D01*
Y490183D01*
X387812D01*
Y490367D01*
X387767D01*
Y491192D01*
X387812D01*
Y491375D01*
X387858D01*
Y491467D01*
X387904D01*
Y491558D01*
X387950D01*
Y491650D01*
X387996D01*
Y491696D01*
X388042D01*
Y491742D01*
X388088D01*
Y491833D01*
X388133D01*
Y491879D01*
X388179D01*
Y491925D01*
X388225D01*
Y491971D01*
X388271D01*
Y492017D01*
X388317D01*
Y492063D01*
X388408D01*
Y492108D01*
X388454D01*
Y492154D01*
X388500D01*
Y492200D01*
X388592D01*
Y492246D01*
X388683D01*
Y492292D01*
X388729D01*
Y492338D01*
X388821D01*
Y492383D01*
X388958D01*
Y492429D01*
X389050D01*
Y492475D01*
X389233D01*
Y492521D01*
X389417D01*
Y492567D01*
X389692D01*
Y492613D01*
X390838D01*
Y492567D01*
D02*
G37*
G36*
X381671D02*
X381946D01*
Y492521D01*
X382175D01*
Y492475D01*
X382312D01*
Y492429D01*
X382450D01*
Y492383D01*
X382542D01*
Y492338D01*
X382633D01*
Y492292D01*
X382725D01*
Y492246D01*
X382771D01*
Y492200D01*
X382862D01*
Y492154D01*
X382954D01*
Y492108D01*
X383000D01*
Y492063D01*
X383046D01*
Y492017D01*
X383092D01*
Y491971D01*
X383137D01*
Y491925D01*
X383183D01*
Y491879D01*
X383229D01*
Y491833D01*
X383275D01*
Y491787D01*
X383321D01*
Y491696D01*
X383367D01*
Y491650D01*
X383413D01*
Y491558D01*
X383458D01*
Y491467D01*
X383504D01*
Y491329D01*
X383550D01*
Y491192D01*
X383596D01*
Y490367D01*
X383550D01*
Y490229D01*
X383504D01*
Y490092D01*
X383458D01*
Y490000D01*
X383413D01*
Y489908D01*
X383367D01*
Y489862D01*
X383321D01*
Y489771D01*
X383275D01*
Y489725D01*
X383229D01*
Y489679D01*
X383183D01*
Y489633D01*
X383137D01*
Y489587D01*
X383092D01*
Y489542D01*
X383046D01*
Y489496D01*
X383000D01*
Y489450D01*
X382908D01*
Y489404D01*
X382862D01*
Y489358D01*
X382771D01*
Y489313D01*
X382725D01*
Y489267D01*
X382633D01*
Y489221D01*
X382542D01*
Y489175D01*
X382450D01*
Y489129D01*
X382312D01*
Y489083D01*
X382175D01*
Y489038D01*
X381992D01*
Y488992D01*
X381717D01*
Y488946D01*
X380525D01*
Y488992D01*
X380250D01*
Y489038D01*
X380067D01*
Y489083D01*
X379883D01*
Y489129D01*
X379792D01*
Y489175D01*
X379654D01*
Y489221D01*
X379562D01*
Y489267D01*
X379517D01*
Y489313D01*
X379425D01*
Y489358D01*
X379333D01*
Y489404D01*
X379288D01*
Y489450D01*
X379196D01*
Y489496D01*
X379150D01*
Y489542D01*
X379104D01*
Y489587D01*
X379058D01*
Y489633D01*
X379012D01*
Y489679D01*
X378967D01*
Y489725D01*
X378921D01*
Y489771D01*
X378875D01*
Y489862D01*
X378829D01*
Y489908D01*
X378783D01*
Y490000D01*
X378737D01*
Y490092D01*
X378692D01*
Y490183D01*
X378646D01*
Y490367D01*
X378600D01*
Y491192D01*
X378646D01*
Y491375D01*
X378692D01*
Y491467D01*
X378737D01*
Y491558D01*
X378783D01*
Y491650D01*
X378829D01*
Y491696D01*
X378875D01*
Y491742D01*
X378921D01*
Y491833D01*
X378967D01*
Y491879D01*
X379012D01*
Y491925D01*
X379058D01*
Y491971D01*
X379104D01*
Y492017D01*
X379150D01*
Y492063D01*
X379242D01*
Y492108D01*
X379288D01*
Y492154D01*
X379333D01*
Y492200D01*
X379425D01*
Y492246D01*
X379517D01*
Y492292D01*
X379562D01*
Y492338D01*
X379654D01*
Y492383D01*
X379792D01*
Y492429D01*
X379883D01*
Y492475D01*
X380067D01*
Y492521D01*
X380250D01*
Y492567D01*
X380525D01*
Y492613D01*
X381671D01*
Y492567D01*
D02*
G37*
G36*
X405642Y492475D02*
X405917D01*
Y492429D01*
X406100D01*
Y492383D01*
X406238D01*
Y492338D01*
X406329D01*
Y492292D01*
X406421D01*
Y492246D01*
X406512D01*
Y492200D01*
X406604D01*
Y492154D01*
X406650D01*
Y492108D01*
X406742D01*
Y492063D01*
X406787D01*
Y492017D01*
X406833D01*
Y491971D01*
X406879D01*
Y491925D01*
X406925D01*
Y491879D01*
X406971D01*
Y491833D01*
X407017D01*
Y491787D01*
X407062D01*
Y491742D01*
X407108D01*
Y491650D01*
X407154D01*
Y491558D01*
X407200D01*
Y491467D01*
X407246D01*
Y491375D01*
X407292D01*
Y491192D01*
X407338D01*
Y490917D01*
X407383D01*
Y490504D01*
X407338D01*
Y490229D01*
X407292D01*
Y490092D01*
X407246D01*
Y490000D01*
X407200D01*
Y489908D01*
X407154D01*
Y489817D01*
X407108D01*
Y489771D01*
X407062D01*
Y489725D01*
X407017D01*
Y489679D01*
X406971D01*
Y489633D01*
X406925D01*
Y489587D01*
X406879D01*
Y489542D01*
X406833D01*
Y489496D01*
X406787D01*
Y489450D01*
X406742D01*
Y489404D01*
X406696D01*
Y489358D01*
X406604D01*
Y489313D01*
X406558D01*
Y489267D01*
X406467D01*
Y489221D01*
X406375D01*
Y489175D01*
X406283D01*
Y489129D01*
X406146D01*
Y489083D01*
X405963D01*
Y489038D01*
X405642D01*
Y488992D01*
X403900D01*
Y487708D01*
X402663D01*
Y489175D01*
Y489221D01*
Y492521D01*
X405642D01*
Y492475D01*
D02*
G37*
G36*
X372229D02*
X372504D01*
Y492429D01*
X372688D01*
Y492383D01*
X372825D01*
Y492338D01*
X372917D01*
Y492292D01*
X373008D01*
Y492246D01*
X373100D01*
Y492200D01*
X373192D01*
Y492154D01*
X373237D01*
Y492108D01*
X373329D01*
Y492063D01*
X373375D01*
Y492017D01*
X373421D01*
Y491971D01*
X373467D01*
Y491925D01*
X373513D01*
Y491879D01*
X373558D01*
Y491833D01*
X373604D01*
Y491787D01*
X373650D01*
Y491742D01*
X373696D01*
Y491650D01*
X373742D01*
Y491558D01*
X373787D01*
Y491467D01*
X373833D01*
Y491375D01*
X373879D01*
Y491192D01*
X373925D01*
Y490917D01*
X373971D01*
Y490504D01*
X373925D01*
Y490229D01*
X373879D01*
Y490092D01*
X373833D01*
Y490000D01*
X373787D01*
Y489908D01*
X373742D01*
Y489817D01*
X373696D01*
Y489771D01*
X373650D01*
Y489725D01*
X373604D01*
Y489679D01*
X373558D01*
Y489633D01*
X373513D01*
Y489587D01*
X373467D01*
Y489542D01*
X373421D01*
Y489496D01*
X373375D01*
Y489450D01*
X373329D01*
Y489404D01*
X373283D01*
Y489358D01*
X373192D01*
Y489313D01*
X373146D01*
Y489267D01*
X373054D01*
Y489221D01*
X372962D01*
Y489175D01*
X372871D01*
Y489129D01*
X372733D01*
Y489083D01*
X372550D01*
Y489038D01*
X372229D01*
Y488992D01*
X370487D01*
Y487708D01*
X369250D01*
Y492521D01*
X372229D01*
Y492475D01*
D02*
G37*
%LPC*%
G36*
X382862Y514200D02*
X375254D01*
Y509158D01*
Y509113D01*
Y508700D01*
X383092D01*
Y508746D01*
X383871D01*
Y508792D01*
X384329D01*
Y508838D01*
X384650D01*
Y508883D01*
X384925D01*
Y508929D01*
X385154D01*
Y508975D01*
X385337D01*
Y509021D01*
X385521D01*
Y509067D01*
X385658D01*
Y509113D01*
X385796D01*
Y509158D01*
X385933D01*
Y509204D01*
X386071D01*
Y509250D01*
X386162D01*
Y509296D01*
X386254D01*
Y509342D01*
X386346D01*
Y509387D01*
X386438D01*
Y509433D01*
X386529D01*
Y509479D01*
X386575D01*
Y509525D01*
X386667D01*
Y509571D01*
X386713D01*
Y509617D01*
X386804D01*
Y509662D01*
X386850D01*
Y509708D01*
X386896D01*
Y509754D01*
X386942D01*
Y509800D01*
X386987D01*
Y509846D01*
X387033D01*
Y509892D01*
X387079D01*
Y509937D01*
X387125D01*
Y509983D01*
X387171D01*
Y510029D01*
X387217D01*
Y510075D01*
X387263D01*
Y510167D01*
X387308D01*
Y510213D01*
X387354D01*
Y510304D01*
X387400D01*
Y510396D01*
X387446D01*
Y510488D01*
X387492D01*
Y510579D01*
X387538D01*
Y510717D01*
X387583D01*
Y510900D01*
X387629D01*
Y511221D01*
X387675D01*
Y511679D01*
X387629D01*
Y512000D01*
X387583D01*
Y512229D01*
X387538D01*
Y512367D01*
X387492D01*
Y512458D01*
X387446D01*
Y512596D01*
X387400D01*
Y512687D01*
X387354D01*
Y512733D01*
X387308D01*
Y512825D01*
X387263D01*
Y512871D01*
X387217D01*
Y512962D01*
X387171D01*
Y513008D01*
X387125D01*
Y513054D01*
X387079D01*
Y513100D01*
X387033D01*
Y513146D01*
X386987D01*
Y513192D01*
X386942D01*
Y513237D01*
X386896D01*
Y513283D01*
X386804D01*
Y513329D01*
X386758D01*
Y513375D01*
X386713D01*
Y513421D01*
X386621D01*
Y513467D01*
X386529D01*
Y513513D01*
X386483D01*
Y513558D01*
X386392D01*
Y513604D01*
X386254D01*
Y513650D01*
X386162D01*
Y513696D01*
X386025D01*
Y513742D01*
X385888D01*
Y513788D01*
X385750D01*
Y513833D01*
X385567D01*
Y513879D01*
X385383D01*
Y513925D01*
X385154D01*
Y513971D01*
X384925D01*
Y514017D01*
X384604D01*
Y514062D01*
X384238D01*
Y514108D01*
X383733D01*
Y514154D01*
X382862D01*
Y514200D01*
D02*
G37*
G36*
X481313Y490413D02*
X479433D01*
Y490367D01*
X479250D01*
Y490321D01*
X479204D01*
Y490275D01*
X479158D01*
Y490229D01*
X479112D01*
Y489908D01*
X479158D01*
Y489862D01*
X479204D01*
Y489817D01*
X479388D01*
Y489771D01*
X481313D01*
Y490000D01*
Y490046D01*
Y490413D01*
D02*
G37*
G36*
X465271Y491742D02*
X464125D01*
Y489771D01*
X465363D01*
Y489817D01*
X465637D01*
Y489862D01*
X465775D01*
Y489908D01*
X465867D01*
Y489954D01*
X465958D01*
Y490000D01*
X466004D01*
Y490046D01*
X466050D01*
Y490092D01*
X466096D01*
Y490137D01*
X466142D01*
Y490229D01*
X466187D01*
Y490321D01*
X466233D01*
Y490504D01*
X466279D01*
Y490917D01*
X466233D01*
Y491146D01*
X466187D01*
Y491192D01*
Y491237D01*
X466142D01*
Y491329D01*
X466096D01*
Y491375D01*
X466050D01*
Y491421D01*
X466004D01*
Y491467D01*
X465958D01*
Y491512D01*
X465912D01*
Y491558D01*
X465821D01*
Y491604D01*
X465683D01*
Y491650D01*
X465546D01*
Y491696D01*
X465271D01*
Y491742D01*
D02*
G37*
G36*
X460504Y490413D02*
X458625D01*
Y490367D01*
X458442D01*
Y490321D01*
X458396D01*
Y490275D01*
X458350D01*
Y490229D01*
X458304D01*
Y489908D01*
X458350D01*
Y489862D01*
X458396D01*
Y489817D01*
X458579D01*
Y489771D01*
X460504D01*
Y490413D01*
D02*
G37*
G36*
X489883Y491833D02*
X489379D01*
Y491787D01*
X489150D01*
Y491742D01*
X489012D01*
Y491696D01*
X488921D01*
Y491650D01*
X488875D01*
Y491604D01*
X488783D01*
Y491558D01*
X488737D01*
Y491512D01*
X488692D01*
Y491467D01*
X488646D01*
Y491375D01*
X488600D01*
Y491329D01*
X488554D01*
Y491192D01*
X488508D01*
Y491054D01*
X488462D01*
Y490504D01*
X488508D01*
Y490367D01*
X488554D01*
Y490229D01*
X488600D01*
Y490183D01*
X488646D01*
Y490137D01*
X488692D01*
Y490046D01*
X488737D01*
Y490000D01*
X488829D01*
Y489954D01*
X488875D01*
Y489908D01*
X488967D01*
Y489862D01*
X489058D01*
Y489817D01*
X489150D01*
Y489771D01*
X489379D01*
Y489725D01*
X489929D01*
Y489771D01*
X490112D01*
Y489817D01*
X490250D01*
Y489862D01*
X490342D01*
Y489908D01*
X490387D01*
Y489954D01*
X490479D01*
Y490000D01*
X490525D01*
Y490046D01*
X490571D01*
Y490092D01*
X490617D01*
Y490137D01*
X490662D01*
Y490229D01*
X490708D01*
Y490321D01*
X490754D01*
Y490458D01*
X490800D01*
Y491100D01*
X490754D01*
Y491237D01*
X490708D01*
Y491329D01*
X490662D01*
Y491375D01*
X490617D01*
Y491467D01*
X490571D01*
Y491512D01*
X490525D01*
Y491558D01*
X490433D01*
Y491604D01*
X490387D01*
Y491650D01*
X490342D01*
Y491696D01*
X490204D01*
Y491742D01*
X490112D01*
Y491787D01*
X489883D01*
Y491833D01*
D02*
G37*
G36*
X470771D02*
X470267D01*
Y491787D01*
X470038D01*
Y491742D01*
X469900D01*
Y491696D01*
X469808D01*
Y491650D01*
X469763D01*
Y491604D01*
X469671D01*
Y491558D01*
X469625D01*
Y491512D01*
X469579D01*
Y491467D01*
X469533D01*
Y491375D01*
X469487D01*
Y491329D01*
X469442D01*
Y491192D01*
X469396D01*
Y491054D01*
X469350D01*
Y490504D01*
X469396D01*
Y490367D01*
X469442D01*
Y490229D01*
X469487D01*
Y490183D01*
X469533D01*
Y490137D01*
X469579D01*
Y490046D01*
X469625D01*
Y490000D01*
X469717D01*
Y489954D01*
X469763D01*
Y489908D01*
X469854D01*
Y489862D01*
X469946D01*
Y489817D01*
X470038D01*
Y489771D01*
X470267D01*
Y489725D01*
X470817D01*
Y489771D01*
X471000D01*
Y489817D01*
X471138D01*
Y489862D01*
X471229D01*
Y489908D01*
X471275D01*
Y489954D01*
X471367D01*
Y490000D01*
X471413D01*
Y490046D01*
X471458D01*
Y490092D01*
X471504D01*
Y490137D01*
X471550D01*
Y490229D01*
X471596D01*
Y490321D01*
X471642D01*
Y490458D01*
X471688D01*
Y491100D01*
X471642D01*
Y491237D01*
X471596D01*
Y491329D01*
X471550D01*
Y491375D01*
X471504D01*
Y491467D01*
X471458D01*
Y491512D01*
X471413D01*
Y491558D01*
X471321D01*
Y491604D01*
X471275D01*
Y491650D01*
X471229D01*
Y491696D01*
X471092D01*
Y491742D01*
X471000D01*
Y491787D01*
X470771D01*
Y491833D01*
D02*
G37*
G36*
X390517D02*
X390013D01*
Y491787D01*
X389783D01*
Y491742D01*
X389646D01*
Y491696D01*
X389554D01*
Y491650D01*
X389508D01*
Y491604D01*
X389417D01*
Y491558D01*
X389371D01*
Y491512D01*
X389325D01*
Y491467D01*
X389279D01*
Y491375D01*
X389233D01*
Y491329D01*
X389188D01*
Y491192D01*
X389142D01*
Y491054D01*
X389096D01*
Y490504D01*
X389142D01*
Y490367D01*
X389188D01*
Y490229D01*
X389233D01*
Y490183D01*
X389279D01*
Y490137D01*
X389325D01*
Y490046D01*
X389371D01*
Y490000D01*
X389462D01*
Y489954D01*
X389508D01*
Y489908D01*
X389600D01*
Y489862D01*
X389692D01*
Y489817D01*
X389783D01*
Y489771D01*
X390013D01*
Y489725D01*
X390563D01*
Y489771D01*
X390746D01*
Y489817D01*
X390883D01*
Y489862D01*
X390975D01*
Y489908D01*
X391021D01*
Y489954D01*
X391112D01*
Y490000D01*
X391158D01*
Y490046D01*
X391204D01*
Y490092D01*
X391250D01*
Y490137D01*
X391296D01*
Y490229D01*
X391342D01*
Y490321D01*
X391388D01*
Y490458D01*
X391433D01*
Y491100D01*
X391388D01*
Y491237D01*
X391342D01*
Y491329D01*
X391296D01*
Y491375D01*
X391250D01*
Y491467D01*
X391204D01*
Y491512D01*
X391158D01*
Y491558D01*
X391067D01*
Y491604D01*
X391021D01*
Y491650D01*
X390975D01*
Y491696D01*
X390838D01*
Y491742D01*
X390746D01*
Y491787D01*
X390517D01*
Y491833D01*
D02*
G37*
G36*
X381350D02*
X380846D01*
Y491787D01*
X380617D01*
Y491742D01*
X380479D01*
Y491696D01*
X380387D01*
Y491650D01*
X380342D01*
Y491604D01*
X380250D01*
Y491558D01*
X380204D01*
Y491512D01*
X380158D01*
Y491467D01*
X380113D01*
Y491375D01*
X380067D01*
Y491329D01*
X380021D01*
Y491192D01*
X379975D01*
Y491054D01*
X379929D01*
Y490504D01*
X379975D01*
Y490367D01*
X380021D01*
Y490229D01*
X380067D01*
Y490183D01*
X380113D01*
Y490137D01*
X380158D01*
Y490046D01*
X380204D01*
Y490000D01*
X380296D01*
Y489954D01*
X380342D01*
Y489908D01*
X380433D01*
Y489862D01*
X380525D01*
Y489817D01*
X380617D01*
Y489771D01*
X380846D01*
Y489725D01*
X381396D01*
Y489771D01*
X381579D01*
Y489817D01*
X381717D01*
Y489862D01*
X381808D01*
Y489908D01*
X381854D01*
Y489954D01*
X381946D01*
Y490000D01*
X381992D01*
Y490046D01*
X382037D01*
Y490092D01*
X382083D01*
Y490137D01*
X382129D01*
Y490229D01*
X382175D01*
Y490321D01*
X382221D01*
Y490458D01*
X382267D01*
Y491100D01*
X382221D01*
Y491237D01*
X382175D01*
Y491329D01*
X382129D01*
Y491375D01*
X382083D01*
Y491467D01*
X382037D01*
Y491512D01*
X381992D01*
Y491558D01*
X381900D01*
Y491604D01*
X381854D01*
Y491650D01*
X381808D01*
Y491696D01*
X381671D01*
Y491742D01*
X381579D01*
Y491787D01*
X381350D01*
Y491833D01*
D02*
G37*
G36*
X405183Y491742D02*
X403900D01*
Y489771D01*
X405046D01*
Y489817D01*
X405321D01*
Y489862D01*
X405504D01*
Y489908D01*
X405596D01*
Y489954D01*
X405688D01*
Y490000D01*
X405733D01*
Y490046D01*
X405779D01*
Y490092D01*
X405825D01*
Y490137D01*
X405871D01*
Y490183D01*
X405917D01*
Y490275D01*
X405963D01*
Y490367D01*
X406008D01*
Y490596D01*
X406054D01*
Y491008D01*
X406008D01*
Y491192D01*
X405963D01*
Y491329D01*
X405917D01*
Y491375D01*
X405871D01*
Y491421D01*
X405825D01*
Y491467D01*
X405779D01*
Y491512D01*
X405733D01*
Y491558D01*
X405688D01*
Y491604D01*
X405550D01*
Y491650D01*
X405412D01*
Y491696D01*
X405183D01*
Y491742D01*
D02*
G37*
G36*
X371771D02*
X370487D01*
Y489771D01*
X371633D01*
Y489817D01*
X371908D01*
Y489862D01*
X372092D01*
Y489908D01*
X372183D01*
Y489954D01*
X372275D01*
Y490000D01*
X372321D01*
Y490046D01*
X372367D01*
Y490092D01*
X372412D01*
Y490137D01*
X372458D01*
Y490183D01*
X372504D01*
Y490275D01*
X372550D01*
Y490367D01*
X372596D01*
Y490596D01*
X372642D01*
Y491008D01*
X372596D01*
Y491192D01*
X372550D01*
Y491329D01*
X372504D01*
Y491375D01*
X372458D01*
Y491421D01*
X372412D01*
Y491467D01*
X372367D01*
Y491512D01*
X372321D01*
Y491558D01*
X372275D01*
Y491604D01*
X372137D01*
Y491650D01*
X372000D01*
Y491696D01*
X371771D01*
Y491742D01*
D02*
G37*
%LPD*%
D10*
X283093Y338209D02*
G03*
X283431Y327431I5907J-5209D01*
G01*
X309431Y301431D02*
G03*
X315000Y299125I5569J5569D01*
G01*
X283427Y422065D02*
G03*
X283093Y411291I5573J-5565D01*
G01*
X351073Y467435D02*
G03*
X352045Y468619I-5573J5565D01*
G01*
X352052Y468630D02*
G03*
X352773Y469979I-6552J4370D01*
G01*
X352779Y469993D02*
G03*
X353223Y471457I-7279J3007D01*
G01*
X353225Y471470D02*
G03*
X353376Y473000I-7725J1530D01*
G01*
X319875Y540750D02*
G03*
X322181Y535181I7875J0D01*
G01*
X352042Y527385D02*
G03*
X351077Y528560I-6542J-4385D01*
G01*
X352772Y526024D02*
G03*
X352055Y527366I-7272J-3024D01*
G01*
X353223Y524545D02*
G03*
X352780Y526004I-7723J-1545D01*
G01*
X322177Y589815D02*
G03*
X319875Y584250I5573J-5565D01*
G01*
X353376Y523000D02*
G03*
X353226Y524528I-7875J0D01*
G01*
X362573Y607935D02*
G03*
X363545Y609119I-5573J5565D01*
G01*
X363552Y609130D02*
G03*
X364273Y610479I-6552J4370D01*
G01*
X364279Y610494D02*
G03*
X364723Y611958I-7279J3007D01*
G01*
X364725Y611970D02*
G03*
X364876Y613500I-7725J1530D01*
G01*
X31842Y638500D02*
G03*
X31842Y638500I-9843J0D01*
G01*
Y22000D02*
G03*
X31842Y22000I-9843J0D01*
G01*
X496842D02*
G03*
X496842Y22000I-9843J0D01*
G01*
Y638500D02*
G03*
X496842Y638500I-9843J0D01*
G01*
X39500Y548500D02*
X70500D01*
X39500Y661000D02*
X70500D01*
Y548500D02*
Y661000D01*
X39500Y548500D02*
Y661000D01*
X112500Y42000D02*
Y73000D01*
X0Y42000D02*
Y73000D01*
X112500D01*
X0Y42000D02*
X112500D01*
Y188000D02*
Y219000D01*
X0Y188000D02*
Y219000D01*
X112500D01*
X0Y188000D02*
X112500D01*
X193500Y548500D02*
X224500D01*
X193500Y661000D02*
X224500D01*
Y548500D02*
Y661000D01*
X193500Y548500D02*
Y661000D01*
X281476Y330556D02*
X282068Y329189D01*
X281152Y332009D02*
X281476Y330556D01*
X282068Y329189D02*
X282905Y327958D01*
X283167Y327709D02*
X289494Y334036D01*
X281105Y333497D02*
X281152Y332009D01*
X281105Y333497D02*
X281338Y334968D01*
X281289Y331399D02*
X285331Y335441D01*
X281338Y334968D02*
X281842Y336369D01*
X282601Y337650D01*
X286960Y334390D02*
X288212Y334054D01*
X285707Y335092D02*
X286829Y334444D01*
X288352Y334036D02*
X289648D01*
X289788Y334054D02*
X291040Y334390D01*
X291171Y334444D02*
X292293Y335092D01*
X284678Y336095D02*
X285595Y335178D01*
X283944Y337329D02*
X284592Y336207D01*
X292405Y335178D02*
X293322Y336095D01*
X293408Y336207D02*
X294056Y337329D01*
X294110Y337460D02*
X294445Y338712D01*
X283093Y411291D02*
X283093Y338209D01*
X283093Y411291D02*
X283093Y338209D01*
Y355474D02*
X283536Y355917D01*
X283093Y361042D02*
X283536Y361485D01*
X283093Y357641D02*
X283536Y357198D01*
X283093Y372177D02*
X283536Y372620D01*
X283093Y374344D02*
X283536Y373901D01*
X283093Y363208D02*
X283536Y362765D01*
X283093Y368776D02*
X283536Y368333D01*
X283093Y366610D02*
X283536Y367053D01*
X283093Y338771D02*
X283536Y339214D01*
Y338852D02*
Y339500D01*
X283555Y338712D02*
X283890Y337460D01*
X294464Y339500D02*
Y406000D01*
Y338852D02*
Y339500D01*
X283093Y346505D02*
X283536Y346062D01*
X283093Y352073D02*
X283536Y351630D01*
X283093Y349906D02*
X283536Y350349D01*
X283093Y340937D02*
X283536Y340494D01*
X283093Y344338D02*
X283536Y344781D01*
Y339500D02*
Y406000D01*
X299863Y310999D02*
X311001Y322137D01*
X283431Y327431D02*
X309431Y301431D01*
X305431Y305431D02*
X316569Y316569D01*
X281240Y331655D02*
X313655Y299240D01*
X302647Y308215D02*
X313785Y319353D01*
X291512Y319351D02*
X302649Y330488D01*
X288728Y322134D02*
X299866Y333272D01*
X297079Y313783D02*
X308217Y324921D01*
X294296Y316567D02*
X305433Y327704D01*
X297079Y313783D02*
X308217Y324921D01*
X312703Y299427D02*
X314224Y299125D01*
X311269Y300021D02*
X312703Y299427D01*
X315000Y299125D02*
X507585D01*
X315828D02*
X331579Y314876D01*
X309980Y300883D02*
X311269Y300021D01*
X308215Y302647D02*
X320443Y314876D01*
X318262D02*
X507585D01*
X311224Y300089D02*
X326011Y314876D01*
X318262D02*
X507585D01*
X285944Y324918D02*
X297082Y336056D01*
X294464Y361277D02*
X294907Y361720D01*
X289936Y334094D02*
X324906Y299125D01*
X281951Y336512D02*
X319338Y299125D01*
X293398Y336200D02*
X330474Y299125D01*
X294464Y372413D02*
X294907Y372856D01*
X294464Y374109D02*
X294907Y373665D01*
X294464Y362973D02*
X294907Y362530D01*
X294464Y368541D02*
X294907Y368098D01*
X294464Y366845D02*
X294907Y367288D01*
X294464Y339006D02*
X294907Y339449D01*
X294464Y340702D02*
X294907Y340259D01*
Y338231D02*
X318262Y314876D01*
X294907Y411269D02*
X294907Y338231D01*
X318262Y314876D01*
X294464Y351837D02*
X294907Y351394D01*
X294464Y357405D02*
X294907Y356962D01*
X294464Y355709D02*
X294907Y356153D01*
X294464Y344574D02*
X294907Y345017D01*
X294464Y350142D02*
X294907Y350585D01*
X294464Y346270D02*
X294907Y345827D01*
X283093Y391047D02*
X283536Y390604D01*
X283093Y394448D02*
X283536Y394891D01*
X283093Y383313D02*
X283536Y383756D01*
X283093Y388881D02*
X283536Y389324D01*
X283093Y385479D02*
X283536Y385036D01*
X283093Y402183D02*
X283536Y401740D01*
X283093Y405584D02*
X283536Y406027D01*
X283093Y396615D02*
X283536Y396172D01*
X283093Y407751D02*
X283660Y407183D01*
X283093Y400016D02*
X283536Y400459D01*
X283093Y377745D02*
X283536Y378188D01*
X283093Y379912D02*
X283536Y379469D01*
X294464Y377980D02*
X294907Y378424D01*
X294464Y383548D02*
X294907Y383991D01*
X294464Y379676D02*
X294907Y379233D01*
X294464Y406000D02*
Y406648D01*
X283536Y406000D02*
Y406648D01*
X294464Y385244D02*
X294907Y384801D01*
X294464Y394684D02*
X294907Y395127D01*
X294464Y389116D02*
X294907Y389559D01*
X281842Y413131D02*
X282601Y411850D01*
X281338Y414532D02*
X281842Y413131D01*
X281237Y415175D02*
X285895Y410517D01*
X281956Y420023D02*
X290807Y411173D01*
X281105Y416003D02*
X281338Y414532D01*
X281105Y416003D02*
X281152Y417491D01*
X281476Y418944D01*
X282068Y420311D01*
X282905Y421542D01*
X283555Y406788D02*
X283890Y408040D01*
X283944Y408171D02*
X284592Y409293D01*
X294110Y408040D02*
X294445Y406788D01*
X292405Y410322D02*
X293322Y409405D01*
X293408Y409293D02*
X294056Y408171D01*
X284678Y409405D02*
X285595Y410322D01*
X285707Y410408D02*
X286829Y411056D01*
X286960Y411110D02*
X288212Y411446D01*
X291171Y411056D02*
X292293Y410408D01*
X288352Y411464D02*
X289648D01*
X289788Y411446D02*
X291040Y411110D01*
X294464Y401947D02*
X294907Y401504D01*
X294464Y405819D02*
X294907Y406262D01*
X294464Y390812D02*
X294907Y390369D01*
X294464Y400252D02*
X294907Y400695D01*
X294464Y396380D02*
X294907Y395937D01*
X294173Y407806D02*
X294907Y407072D01*
X284455Y423092D02*
X295592Y411955D01*
X287239Y425876D02*
X298376Y414739D01*
X290022Y428660D02*
X301160Y417522D01*
X292806Y431444D02*
X303944Y420306D01*
X295590Y434228D02*
X306728Y423090D01*
X298374Y437012D02*
X309512Y425874D01*
X301158Y439796D02*
X312296Y428658D01*
X294907Y411269D02*
X351069Y467431D01*
X294907Y411269D02*
X351069Y467431D01*
X303942Y442580D02*
X315079Y431442D01*
X306726Y445363D02*
X317863Y434226D01*
X309510Y448147D02*
X320647Y437010D01*
X312294Y450931D02*
X323431Y439793D01*
X315077Y453715D02*
X326215Y442577D01*
X317861Y456499D02*
X328999Y445361D01*
X292902Y409825D02*
X352533Y469456D01*
X283431Y422069D02*
X337625Y476262D01*
X288973Y411464D02*
X353376Y475867D01*
X281286Y414913D02*
X353376Y487002D01*
X283093Y411152D02*
X353376Y481434D01*
X319875Y540750D02*
Y584250D01*
Y585026D02*
X320177Y586547D01*
X319875Y576977D02*
X335626Y561226D01*
X319875Y570424D02*
X364876Y615425D01*
X319875Y564856D02*
X335626Y580607D01*
X319875Y539974D02*
X320177Y538453D01*
X319875Y542585D02*
X335626Y558336D01*
X319875Y543570D02*
X353376Y510069D01*
X319875Y554706D02*
X353376Y521205D01*
X319875Y549138D02*
X353376Y515637D01*
X319875Y553721D02*
X335626Y569472D01*
X319875Y559289D02*
X335626Y575040D01*
X319875Y571409D02*
X335626Y555658D01*
X319875Y560273D02*
X335626Y544522D01*
X319875Y565841D02*
X335626Y550090D01*
X319875Y548153D02*
X335626Y563904D01*
X359265Y314876D02*
X375016Y299125D01*
X354802D02*
X370553Y314876D01*
X365938Y299125D02*
X381689Y314876D01*
X360370Y299125D02*
X376121Y314876D01*
X364833D02*
X380584Y299125D01*
X343667D02*
X359418Y314876D01*
X342562D02*
X358313Y299125D01*
X353697Y314876D02*
X369448Y299125D01*
X348129Y314876D02*
X363880Y299125D01*
X349234D02*
X364985Y314876D01*
X387104D02*
X402855Y299125D01*
X382641D02*
X398392Y314876D01*
X393777Y299125D02*
X409528Y314876D01*
X388209Y299125D02*
X403960Y314876D01*
X392671D02*
X408422Y299125D01*
X371505D02*
X387257Y314876D01*
X370400D02*
X386151Y299125D01*
X381536Y314876D02*
X397287Y299125D01*
X375968Y314876D02*
X391719Y299125D01*
X377073D02*
X392824Y314876D01*
X321396Y299125D02*
X337147Y314876D01*
X320290D02*
X336041Y299125D01*
X331426Y314876D02*
X347177Y299125D01*
X325858Y314876D02*
X341609Y299125D01*
X326963D02*
X342714Y314876D01*
X320645Y459283D02*
X331783Y448145D01*
X323429Y462067D02*
X334567Y450929D01*
X326213Y464851D02*
X337351Y453713D01*
X328997Y467634D02*
X340134Y456497D01*
X331781Y470418D02*
X342918Y459281D01*
X332531Y299125D02*
X348282Y314876D01*
X334565Y473202D02*
X345702Y462065D01*
X338099Y299125D02*
X353850Y314876D01*
X336994D02*
X352745Y299125D01*
X337348Y475986D02*
X348486Y464849D01*
X337625Y481278D02*
X351266Y467636D01*
X337625Y486846D02*
X353186Y471284D01*
X471725Y299125D02*
X487476Y314876D01*
X470620D02*
X486371Y299125D01*
X481756Y314876D02*
X497507Y299125D01*
X476188Y314876D02*
X491939Y299125D01*
X477293D02*
X493044Y314876D01*
X459485D02*
X475236Y299125D01*
X455022D02*
X470773Y314876D01*
X466158Y299125D02*
X481909Y314876D01*
X460590Y299125D02*
X476341Y314876D01*
X465052D02*
X480803Y299125D01*
X493996D02*
X507585Y312714D01*
X488429Y299125D02*
X504180Y314876D01*
X505132Y299125D02*
X507585Y301578D01*
X499564Y299125D02*
X507585Y307146D01*
Y299125D02*
Y314876D01*
X487324D02*
X503075Y299125D01*
X482861D02*
X498612Y314876D01*
X492891D02*
X507585Y300181D01*
X498459Y314876D02*
X507585Y305749D01*
X504027Y314876D02*
X507585Y311317D01*
X414943Y314876D02*
X430693Y299125D01*
X410480D02*
X426231Y314876D01*
X421615Y299125D02*
X437366Y314876D01*
X416048Y299125D02*
X431799Y314876D01*
X420510D02*
X436261Y299125D01*
X399344D02*
X415095Y314876D01*
X398239D02*
X413990Y299125D01*
X409375Y314876D02*
X425126Y299125D01*
X403807Y314876D02*
X419558Y299125D01*
X404912D02*
X420663Y314876D01*
X443887Y299125D02*
X459637Y314876D01*
X442781D02*
X458532Y299125D01*
X453917Y314876D02*
X469668Y299125D01*
X448349Y314876D02*
X464100Y299125D01*
X449454D02*
X465205Y314876D01*
X431646D02*
X447397Y299125D01*
X426078Y314876D02*
X441829Y299125D01*
X427183D02*
X442934Y314876D01*
X438319Y299125D02*
X454070Y314876D01*
X432751Y299125D02*
X448502Y314876D01*
X437214D02*
X452965Y299125D01*
X322181Y535181D02*
X337625Y519738D01*
X331245Y526117D02*
X342383Y537255D01*
X336813Y520549D02*
X347951Y531687D01*
X334029Y523333D02*
X345167Y534471D01*
X335626Y544012D02*
X351069Y528569D01*
X320771Y537019D02*
X321633Y535730D01*
X320177Y538453D02*
X320771Y537019D01*
X328461Y528901D02*
X339599Y540039D01*
X325677Y531685D02*
X336815Y542823D01*
X337625Y476262D02*
Y519738D01*
Y476262D02*
Y519738D01*
Y492413D02*
X353376Y476662D01*
X337625Y476819D02*
X353376Y492570D01*
Y473000D02*
Y523000D01*
X337625Y515793D02*
X350734Y528903D01*
X337625Y510225D02*
X352951Y525552D01*
X319875Y540750D02*
Y584250D01*
X320549Y587438D02*
X335626Y572361D01*
X322894Y534469D02*
X335626Y547201D01*
X319875Y582545D02*
X335626Y566793D01*
X320509Y537652D02*
X335626Y552769D01*
X320177Y586547D02*
X320771Y587981D01*
X321633Y589270D01*
X322181Y589819D02*
X349125Y616762D01*
X322958Y590596D02*
X335626Y577929D01*
Y544012D02*
Y580988D01*
X325742Y593380D02*
X336880Y582242D01*
X335626Y544012D02*
X351069Y528569D01*
X328526Y596164D02*
X339664Y585026D01*
X331310Y598948D02*
X342448Y587810D01*
X334094Y601732D02*
X345232Y590594D01*
X336878Y604516D02*
X348015Y593378D01*
X349125Y616762D02*
Y659585D01*
X339662Y607299D02*
X350799Y596162D01*
X349125Y616762D02*
Y659585D01*
Y655352D02*
X353358Y659585D01*
X337625Y493522D02*
X353376Y509273D01*
X337625Y514685D02*
X353376Y498934D01*
X337625Y487954D02*
X353376Y503705D01*
X337625Y509117D02*
X353376Y493366D01*
X337625Y509117D02*
X353376Y493366D01*
X337625Y504658D02*
X353376Y520409D01*
X320765Y537111D02*
X353376Y504501D01*
X337625Y499090D02*
X353376Y514841D01*
X335626Y580988D02*
X362569Y607931D01*
X335626Y580988D02*
X362569Y607931D01*
X337625Y503549D02*
X353376Y487798D01*
X337625Y497981D02*
X353376Y482230D01*
X337625Y482386D02*
X353376Y498138D01*
X342446Y610083D02*
X353583Y598946D01*
X345230Y612867D02*
X356367Y601729D01*
X348013Y615651D02*
X359151Y604513D01*
X349125Y633081D02*
X364876Y648832D01*
X349125Y653514D02*
X364876Y637763D01*
X319875Y575992D02*
X364876Y620993D01*
X319875Y581560D02*
X364876Y626561D01*
X320923Y588175D02*
X364876Y632128D01*
X349125Y644216D02*
X364494Y659585D01*
X349125Y649784D02*
X358926Y659585D01*
X349125Y638649D02*
X364876Y654400D01*
X349125Y659585D02*
X364876D01*
X349125Y659082D02*
X364876Y643331D01*
X349125Y620108D02*
X361935Y607297D01*
X349125Y625675D02*
X364287Y610513D01*
X349125Y631243D02*
X364876Y615492D01*
X349125Y636811D02*
X364876Y621060D01*
Y613500D02*
Y659585D01*
X349125Y647947D02*
X364876Y632196D01*
X354189Y659585D02*
X364876Y648899D01*
X359757Y659585D02*
X364876Y654467D01*
X349125Y621945D02*
X364876Y637696D01*
X349125Y627513D02*
X364876Y643264D01*
X349125Y642379D02*
X364876Y626628D01*
X259800Y315700D02*
Y339300D01*
X171200Y315700D02*
Y339300D01*
Y315700D02*
X259800D01*
X171200Y339300D02*
X259800D01*
X210090Y453722D02*
X226778Y470410D01*
X147440Y516372D02*
X164128Y533060D01*
X147440Y516372D02*
X210090Y453722D01*
X164128Y533060D02*
X226778Y470410D01*
X118981Y442169D02*
X135669Y425481D01*
X56331Y379519D02*
X73019Y362831D01*
X135669Y425481D01*
X56331Y379519D02*
X118981Y442169D01*
X464502Y591098D02*
Y597096D01*
X467501D01*
X468500Y596096D01*
Y594097D01*
X467501Y593097D01*
X464502D01*
X474498Y596096D02*
X473499Y597096D01*
X471499D01*
X470500Y596096D01*
Y592097D01*
X471499Y591098D01*
X473499D01*
X474498Y592097D01*
X465501Y586498D02*
X464502Y587498D01*
X462502D01*
X461503Y586498D01*
Y582500D01*
X462502Y581500D01*
X464502D01*
X465501Y582500D01*
Y584499D01*
X463502D01*
X467501Y581500D02*
Y587498D01*
X471499Y581500D01*
Y587498D01*
X473499D02*
Y581500D01*
X476498D01*
X477497Y582500D01*
Y586498D01*
X476498Y587498D01*
X473499D01*
X411503Y73596D02*
Y67598D01*
Y70597D01*
X415501D01*
Y73596D01*
Y67598D01*
X417501Y73596D02*
Y69597D01*
X419500Y67598D01*
X421499Y69597D01*
Y73596D01*
X423499Y70597D02*
X427497D01*
X395508Y63998D02*
X397507D01*
X396508D01*
Y58000D01*
X395508D01*
X397507D01*
X400506D02*
Y61999D01*
X403505D01*
X404505Y60999D01*
Y58000D01*
X410503Y63998D02*
Y58000D01*
X407504D01*
X406504Y59000D01*
Y60999D01*
X407504Y61999D01*
X410503D01*
X412502Y58000D02*
X414502D01*
X413502D01*
Y61999D01*
X412502D01*
X421499D02*
X418500D01*
X417501Y60999D01*
Y59000D01*
X418500Y58000D01*
X421499D01*
X424498Y61999D02*
X426498D01*
X427497Y60999D01*
Y58000D01*
X424498D01*
X423499Y59000D01*
X424498Y59999D01*
X427497D01*
X430497Y62998D02*
Y61999D01*
X429497D01*
X431496D01*
X430497D01*
Y59000D01*
X431496Y58000D01*
X435495D02*
X437494D01*
X438494Y59000D01*
Y60999D01*
X437494Y61999D01*
X435495D01*
X434495Y60999D01*
Y59000D01*
X435495Y58000D01*
X440493Y61999D02*
Y58000D01*
Y59999D01*
X441493Y60999D01*
X442493Y61999D01*
X443492D01*
X370000Y479304D02*
Y483240D01*
X371968D01*
X372624Y482584D01*
Y481272D01*
X371968Y480616D01*
X370000D01*
X371312D02*
X372624Y479304D01*
X375904D02*
X374592D01*
X373936Y479960D01*
Y481272D01*
X374592Y481928D01*
X375904D01*
X376560Y481272D01*
Y480616D01*
X373936D01*
X377871Y479304D02*
X379183D01*
X378527D01*
Y483240D01*
X377871D01*
X381807Y481928D02*
X383119D01*
X383775Y481272D01*
Y479304D01*
X381807D01*
X381151Y479960D01*
X381807Y480616D01*
X383775D01*
X385087Y481928D02*
Y479960D01*
X385743Y479304D01*
X387711D01*
Y478648D01*
X387055Y477992D01*
X386399D01*
X387711Y479304D02*
Y481928D01*
X395582Y482584D02*
X394926Y483240D01*
X393614D01*
X392958Y482584D01*
Y479960D01*
X393614Y479304D01*
X394926D01*
X395582Y479960D01*
X397550Y479304D02*
X398862D01*
X399518Y479960D01*
Y481272D01*
X398862Y481928D01*
X397550D01*
X396894Y481272D01*
Y479960D01*
X397550Y479304D01*
X400830D02*
Y481928D01*
X402798D01*
X403454Y481272D01*
Y479304D01*
X405422Y482584D02*
Y481928D01*
X404766D01*
X406078D01*
X405422D01*
Y479960D01*
X406078Y479304D01*
X408045Y481928D02*
Y479304D01*
Y480616D01*
X408701Y481272D01*
X409357Y481928D01*
X410013D01*
X412637Y479304D02*
X413949D01*
X414605Y479960D01*
Y481272D01*
X413949Y481928D01*
X412637D01*
X411981Y481272D01*
Y479960D01*
X412637Y479304D01*
X415917D02*
X417229D01*
X416573D01*
Y483240D01*
X415917D01*
X419197Y479304D02*
X420509D01*
X419853D01*
Y483240D01*
X419197D01*
X424444Y479304D02*
X423133D01*
X422476Y479960D01*
Y481272D01*
X423133Y481928D01*
X424444D01*
X425100Y481272D01*
Y480616D01*
X422476D01*
X426412Y481928D02*
Y479304D01*
Y480616D01*
X427068Y481272D01*
X427724Y481928D01*
X428380D01*
X370000Y470870D02*
Y474805D01*
X371968D01*
X372624Y474149D01*
Y472837D01*
X371968Y472182D01*
X370000D01*
X371312D02*
X372624Y470870D01*
X376560Y474805D02*
X373936D01*
Y470870D01*
X376560D01*
X373936Y472837D02*
X375248D01*
X377871Y474805D02*
Y472182D01*
X379183Y470870D01*
X380495Y472182D01*
Y474805D01*
X384431D02*
X381807D01*
Y472837D01*
X383119Y473493D01*
X383775D01*
X384431Y472837D01*
Y471526D01*
X383775Y470870D01*
X382463D01*
X381807Y471526D01*
X390991Y470870D02*
X389679Y472182D01*
Y473493D01*
X390991Y474805D01*
X392958Y474149D02*
X393614Y474805D01*
X394926D01*
X395582Y474149D01*
Y471526D01*
X394926Y470870D01*
X393614D01*
X392958Y471526D01*
Y474149D01*
X396894D02*
X397550Y474805D01*
X398862D01*
X399518Y474149D01*
Y473493D01*
X398862Y472837D01*
X398206D01*
X398862D01*
X399518Y472182D01*
Y471526D01*
X398862Y470870D01*
X397550D01*
X396894Y471526D01*
X400830Y470870D02*
X403454Y473493D01*
X407389Y470870D02*
X404766D01*
X407389Y473493D01*
Y474149D01*
X406734Y474805D01*
X405422D01*
X404766Y474149D01*
X408701D02*
X409357Y474805D01*
X410669D01*
X411325Y474149D01*
Y471526D01*
X410669Y470870D01*
X409357D01*
X408701Y471526D01*
Y474149D01*
X415261Y470870D02*
X412637D01*
X415261Y473493D01*
Y474149D01*
X414605Y474805D01*
X413293D01*
X412637Y474149D01*
X419197Y474805D02*
X417885Y474149D01*
X416573Y472837D01*
Y471526D01*
X417229Y470870D01*
X418541D01*
X419197Y471526D01*
Y472182D01*
X418541Y472837D01*
X416573D01*
X420509Y470870D02*
X421821Y472182D01*
Y473493D01*
X420509Y474805D01*
X370000Y467682D02*
Y463747D01*
X371968D01*
X372624Y464403D01*
Y467027D01*
X371968Y467682D01*
X370000D01*
X375904Y463747D02*
X374592D01*
X373936Y464403D01*
Y465715D01*
X374592Y466370D01*
X375904D01*
X376560Y465715D01*
Y465059D01*
X373936D01*
X377871Y463747D02*
X379839D01*
X380495Y464403D01*
X379839Y465059D01*
X378527D01*
X377871Y465715D01*
X378527Y466370D01*
X380495D01*
X381807Y463747D02*
X383119D01*
X382463D01*
Y466370D01*
X381807D01*
X386399Y462435D02*
X387055D01*
X387711Y463091D01*
Y466370D01*
X385743D01*
X385087Y465715D01*
Y464403D01*
X385743Y463747D01*
X387711D01*
X389023D02*
Y466370D01*
X390991D01*
X391647Y465715D01*
Y463747D01*
X394926D02*
X393614D01*
X392958Y464403D01*
Y465715D01*
X393614Y466370D01*
X394926D01*
X395582Y465715D01*
Y465059D01*
X392958D01*
X399518Y467682D02*
Y463747D01*
X397550D01*
X396894Y464403D01*
Y465715D01*
X397550Y466370D01*
X399518D01*
X404766Y467682D02*
Y463747D01*
X406734D01*
X407389Y464403D01*
Y465059D01*
Y465715D01*
X406734Y466370D01*
X404766D01*
X408701D02*
Y464403D01*
X409357Y463747D01*
X411325D01*
Y463091D01*
X410669Y462435D01*
X410013D01*
X411325Y463747D02*
Y466370D01*
X370000Y459248D02*
Y455312D01*
X371968D01*
X372624Y455968D01*
Y456624D01*
X371968Y457280D01*
X370000D01*
X371968D01*
X372624Y457936D01*
Y458592D01*
X371968Y459248D01*
X370000D01*
X373936Y457936D02*
Y455312D01*
Y456624D01*
X374592Y457280D01*
X375248Y457936D01*
X375904D01*
X377871D02*
Y455968D01*
X378527Y455312D01*
X380495D01*
Y454656D01*
X379839Y454000D01*
X379183D01*
X380495Y455312D02*
Y457936D01*
X382463D02*
X383775D01*
X384431Y457280D01*
Y455312D01*
X382463D01*
X381807Y455968D01*
X382463Y456624D01*
X384431D01*
X385743Y455312D02*
Y457936D01*
X387711D01*
X388367Y457280D01*
Y455312D01*
X393614Y459248D02*
Y455312D01*
X396238D01*
X399518D02*
X398206D01*
X397550Y455968D01*
Y457280D01*
X398206Y457936D01*
X399518D01*
X400174Y457280D01*
Y456624D01*
X397550D01*
X401486Y457936D02*
Y455968D01*
X402142Y455312D01*
X402798Y455968D01*
X403454Y455312D01*
X404110Y455968D01*
Y457936D01*
X459003Y330498D02*
X460003Y331498D01*
X462002D01*
X463002Y330498D01*
Y329499D01*
X462002Y328499D01*
X461003D01*
X462002D01*
X463002Y327499D01*
Y326500D01*
X462002Y325500D01*
X460003D01*
X459003Y326500D01*
X465001Y325500D02*
Y326500D01*
X466001D01*
Y325500D01*
X465001D01*
X470000Y330498D02*
X470999Y331498D01*
X472999D01*
X473998Y330498D01*
Y329499D01*
X472999Y328499D01*
X471999D01*
X472999D01*
X473998Y327499D01*
Y326500D01*
X472999Y325500D01*
X470999D01*
X470000Y326500D01*
X475998Y331498D02*
Y327499D01*
X477997Y325500D01*
X479997Y327499D01*
Y331498D01*
X39505Y539596D02*
Y533598D01*
Y536597D01*
X43504D01*
Y539596D01*
Y533598D01*
X45504Y539596D02*
Y535597D01*
X47503Y533598D01*
X49502Y535597D01*
Y539596D01*
X51502Y536597D02*
X55500D01*
X53501Y538596D02*
Y534597D01*
X63498Y533598D02*
Y539596D01*
X65497Y537596D01*
X67497Y539596D01*
Y533598D01*
X73494Y538596D02*
X72495Y539596D01*
X70495D01*
X69496Y538596D01*
Y534597D01*
X70495Y533598D01*
X72495D01*
X73494Y534597D01*
X37006Y529998D02*
Y525000D01*
X38006Y524000D01*
X40005D01*
X41005Y525000D01*
Y529998D01*
X43004Y524000D02*
Y527999D01*
X46003D01*
X47003Y526999D01*
Y524000D01*
X50002D02*
Y528998D01*
Y526999D01*
X49002D01*
X51002D01*
X50002D01*
Y528998D01*
X51002Y529998D01*
X54001Y527999D02*
Y525000D01*
X55001Y524000D01*
X57999D01*
Y527999D01*
X59999Y524000D02*
X62998D01*
X63998Y525000D01*
X62998Y525999D01*
X60999D01*
X59999Y526999D01*
X60999Y527999D01*
X63998D01*
X68996Y524000D02*
X66997D01*
X65997Y525000D01*
Y526999D01*
X66997Y527999D01*
X68996D01*
X69996Y526999D01*
Y525999D01*
X65997D01*
X75994Y529998D02*
Y524000D01*
X72995D01*
X71995Y525000D01*
Y526999D01*
X72995Y527999D01*
X75994D01*
X122506Y59498D02*
Y53500D01*
Y56499D01*
X126505D01*
Y59498D01*
Y53500D01*
X128505Y59498D02*
Y55499D01*
X130504Y53500D01*
X132503Y55499D01*
Y59498D01*
X134503Y56499D02*
X138501D01*
X136502Y58498D02*
Y54500D01*
X150497Y58498D02*
X149498Y59498D01*
X147498D01*
X146499Y58498D01*
Y54500D01*
X147498Y53500D01*
X149498D01*
X150497Y54500D01*
X152497Y59498D02*
Y53500D01*
Y56499D01*
X156495D01*
Y59498D01*
Y53500D01*
X162494Y58498D02*
X161494Y59498D01*
X159494D01*
X158495Y58498D01*
Y54500D01*
X159494Y53500D01*
X161494D01*
X162494Y54500D01*
Y56499D01*
X160494D01*
X330003Y73596D02*
Y67598D01*
Y70597D01*
X334001D01*
Y73596D01*
Y67598D01*
X336001Y73596D02*
Y69597D01*
X338000Y67598D01*
X339999Y69597D01*
Y73596D01*
X341999Y70597D02*
X345997D01*
X343998Y72596D02*
Y68597D01*
X314008Y63998D02*
X316007D01*
X315007D01*
Y58000D01*
X314008D01*
X316007D01*
X319006D02*
Y61999D01*
X322005D01*
X323005Y60999D01*
Y58000D01*
X329003Y63998D02*
Y58000D01*
X326004D01*
X325004Y59000D01*
Y60999D01*
X326004Y61999D01*
X329003D01*
X331002Y58000D02*
X333002D01*
X332002D01*
Y61999D01*
X331002D01*
X339999D02*
X337000D01*
X336001Y60999D01*
Y59000D01*
X337000Y58000D01*
X339999D01*
X342998Y61999D02*
X344998D01*
X345997Y60999D01*
Y58000D01*
X342998D01*
X341999Y59000D01*
X342998Y59999D01*
X345997D01*
X348996Y62998D02*
Y61999D01*
X347997D01*
X349996D01*
X348996D01*
Y59000D01*
X349996Y58000D01*
X353995D02*
X355994D01*
X356994Y59000D01*
Y60999D01*
X355994Y61999D01*
X353995D01*
X352995Y60999D01*
Y59000D01*
X353995Y58000D01*
X358993Y61999D02*
Y58000D01*
Y59999D01*
X359993Y60999D01*
X360993Y61999D01*
X361992D01*
X97506Y610096D02*
Y604098D01*
Y607097D01*
X101505D01*
Y610096D01*
Y604098D01*
X103505Y610096D02*
Y606097D01*
X105504Y604098D01*
X107503Y606097D01*
Y610096D01*
X109503Y607097D02*
X113501D01*
X111502Y609096D02*
Y605097D01*
X121499Y610096D02*
Y604098D01*
X124498D01*
X125497Y605097D01*
Y606097D01*
X124498Y607097D01*
X121499D01*
X124498D01*
X125497Y608096D01*
Y609096D01*
X124498Y610096D01*
X121499D01*
X127497Y604098D02*
Y608096D01*
X129496Y610096D01*
X131495Y608096D01*
Y604098D01*
Y607097D01*
X127497D01*
X133495Y610096D02*
X137494D01*
X135494D01*
Y604098D01*
X98006Y600498D02*
Y595500D01*
X99006Y594500D01*
X101005D01*
X102005Y595500D01*
Y600498D01*
X104004Y594500D02*
Y598499D01*
X107003D01*
X108003Y597499D01*
Y594500D01*
X111002D02*
Y599498D01*
Y597499D01*
X110002D01*
X112002D01*
X111002D01*
Y599498D01*
X112002Y600498D01*
X115001Y598499D02*
Y595500D01*
X116000Y594500D01*
X119000D01*
Y598499D01*
X120999Y594500D02*
X123998D01*
X124998Y595500D01*
X123998Y596499D01*
X121999D01*
X120999Y597499D01*
X121999Y598499D01*
X124998D01*
X129996Y594500D02*
X127997D01*
X126997Y595500D01*
Y597499D01*
X127997Y598499D01*
X129996D01*
X130996Y597499D01*
Y596499D01*
X126997D01*
X136994Y600498D02*
Y594500D01*
X133995D01*
X132995Y595500D01*
Y597499D01*
X133995Y598499D01*
X136994D01*
X489502Y592097D02*
Y598095D01*
X492501D01*
X493501Y597095D01*
Y595096D01*
X492501Y594096D01*
X489502D01*
X491502D02*
X493501Y592097D01*
X495500Y598095D02*
X499499D01*
X497500D01*
Y592097D01*
X501499Y598095D02*
Y592097D01*
X504497D01*
X505497Y593097D01*
Y597095D01*
X504497Y598095D01*
X501499D01*
X494001Y587498D02*
X493001Y588497D01*
X491002D01*
X490002Y587498D01*
Y586498D01*
X491002Y585498D01*
X493001D01*
X494001Y584499D01*
Y583499D01*
X493001Y582499D01*
X491002D01*
X490002Y583499D01*
X496000Y582499D02*
X498000D01*
X497000D01*
Y586498D01*
X496000D01*
X502998Y580500D02*
X503998D01*
X504997Y581500D01*
Y586498D01*
X501998D01*
X500999Y585498D01*
Y583499D01*
X501998Y582499D01*
X504997D01*
X492501Y414998D02*
X491502Y415998D01*
X489502D01*
X488503Y414998D01*
Y413999D01*
X489502Y412999D01*
X491502D01*
X492501Y411999D01*
Y411000D01*
X491502Y410000D01*
X489502D01*
X488503Y411000D01*
X494501Y415998D02*
Y410000D01*
X497500D01*
X498499Y411000D01*
Y414998D01*
X497500Y415998D01*
X494501D01*
X500499Y410000D02*
Y413999D01*
X502498Y415998D01*
X504497Y413999D01*
Y410000D01*
Y412999D01*
X500499D01*
X464506Y141498D02*
Y135500D01*
Y138499D01*
X468505D01*
Y141498D01*
Y135500D01*
X470504Y141498D02*
Y137499D01*
X472504Y135500D01*
X474503Y137499D01*
Y141498D01*
X476502Y138499D02*
X480501D01*
X488498Y141498D02*
X490498D01*
X489498D01*
Y135500D01*
X488498D01*
X490498D01*
X493497D02*
Y141498D01*
X495496Y139499D01*
X497496Y141498D01*
Y135500D01*
X499495Y141498D02*
Y135500D01*
X502494D01*
X503494Y136500D01*
Y140498D01*
X502494Y141498D01*
X499495D01*
X185005Y538596D02*
Y532598D01*
Y535597D01*
X189004D01*
Y538596D01*
Y532598D01*
X191004Y538596D02*
Y534597D01*
X193003Y532598D01*
X195002Y534597D01*
Y538596D01*
X197002Y535597D02*
X201000D01*
X208998Y532598D02*
Y538596D01*
X210997Y536596D01*
X212997Y538596D01*
Y532598D01*
X218994Y537596D02*
X217995Y538596D01*
X215996D01*
X214996Y537596D01*
Y533597D01*
X215996Y532598D01*
X217995D01*
X218994Y533597D01*
X182506Y528998D02*
Y524000D01*
X183506Y523000D01*
X185505D01*
X186505Y524000D01*
Y528998D01*
X188504Y523000D02*
Y526999D01*
X191503D01*
X192503Y525999D01*
Y523000D01*
X195502D02*
Y527998D01*
Y525999D01*
X194502D01*
X196502D01*
X195502D01*
Y527998D01*
X196502Y528998D01*
X199501Y526999D02*
Y524000D01*
X200500Y523000D01*
X203500D01*
Y526999D01*
X205499Y523000D02*
X208498D01*
X209498Y524000D01*
X208498Y524999D01*
X206499D01*
X205499Y525999D01*
X206499Y526999D01*
X209498D01*
X214496Y523000D02*
X212497D01*
X211497Y524000D01*
Y525999D01*
X212497Y526999D01*
X214496D01*
X215496Y525999D01*
Y524999D01*
X211497D01*
X221494Y528998D02*
Y523000D01*
X218495D01*
X217495Y524000D01*
Y525999D01*
X218495Y526999D01*
X221494D01*
X122506Y205998D02*
Y200000D01*
Y202999D01*
X126505D01*
Y205998D01*
Y200000D01*
X128505Y205998D02*
Y201999D01*
X130504Y200000D01*
X132503Y201999D01*
Y205998D01*
X134503Y202999D02*
X138501D01*
X150497Y204998D02*
X149498Y205998D01*
X147498D01*
X146499Y204998D01*
Y201000D01*
X147498Y200000D01*
X149498D01*
X150497Y201000D01*
X152497Y205998D02*
Y200000D01*
Y202999D01*
X156495D01*
Y205998D01*
Y200000D01*
X162494Y204998D02*
X161494Y205998D01*
X159494D01*
X158495Y204998D01*
Y201000D01*
X159494Y200000D01*
X161494D01*
X162494Y201000D01*
Y202999D01*
X160494D01*
X465501Y414998D02*
X464502Y415998D01*
X462502D01*
X461503Y414998D01*
Y413999D01*
X462502Y412999D01*
X464502D01*
X465501Y411999D01*
Y411000D01*
X464502Y410000D01*
X462502D01*
X461503Y411000D01*
X471499Y414998D02*
X470500Y415998D01*
X468500D01*
X467501Y414998D01*
Y411000D01*
X468500Y410000D01*
X470500D01*
X471499Y411000D01*
X473499Y415998D02*
Y410000D01*
X477497D01*
X464506Y240998D02*
Y235000D01*
Y237999D01*
X468505D01*
Y240998D01*
Y235000D01*
X470504Y240998D02*
Y236999D01*
X472504Y235000D01*
X474503Y236999D01*
Y240998D01*
X476502Y237999D02*
X480501D01*
X478502Y239998D02*
Y236000D01*
X488498Y240998D02*
X490498D01*
X489498D01*
Y235000D01*
X488498D01*
X490498D01*
X493497D02*
Y240998D01*
X495496Y238999D01*
X497496Y240998D01*
Y235000D01*
X499495Y240998D02*
Y235000D01*
X502494D01*
X503494Y236000D01*
Y239998D01*
X502494Y240998D01*
X499495D01*
X492501Y330498D02*
X491502Y331498D01*
X489502D01*
X488503Y330498D01*
Y326500D01*
X489502Y325500D01*
X491502D01*
X492501Y326500D01*
Y328499D01*
X490502D01*
X494501Y325500D02*
Y331498D01*
X498499Y325500D01*
Y331498D01*
X500499D02*
Y325500D01*
X503498D01*
X504497Y326500D01*
Y330498D01*
X503498Y331498D01*
X500499D01*
X169431Y535817D02*
X168017Y537231D01*
X166957Y536170D01*
X167664Y535463D01*
X166957Y536170D01*
X165897Y535110D01*
X168017Y532989D02*
X168724Y532282D01*
X168371Y532636D01*
X170491Y534757D01*
X169785D01*
X83588Y413709D02*
X82171Y412298D01*
X83230Y411236D01*
X83938Y411942D01*
X83230Y411236D01*
X84288Y410174D01*
X87829Y413702D02*
X86412Y412290D01*
X86418Y415118D01*
X86065Y415472D01*
X85358Y415473D01*
X84650Y414768D01*
X84649Y414061D01*
X174000Y344499D02*
X172001D01*
Y343000D01*
X173001D01*
X172001D01*
Y341500D01*
X175000Y344000D02*
X175500Y344499D01*
X176499D01*
X176999Y344000D01*
Y343500D01*
X176499Y343000D01*
X175999D01*
X176499D01*
X176999Y342500D01*
Y342000D01*
X176499Y341500D01*
X175500D01*
X175000Y342000D01*
X458000Y365000D02*
X457000D01*
X457500D01*
Y362500D01*
X457000Y362000D01*
X456500D01*
X456001Y362500D01*
X459000Y362000D02*
X459999D01*
X459500D01*
Y365000D01*
X459000Y364500D01*
X51200Y492800D02*
Y495799D01*
X52700D01*
X53199Y495299D01*
Y494300D01*
X52700Y493800D01*
X51200D01*
X52200D02*
X53199Y492800D01*
X54199D02*
X55199D01*
X54699D01*
Y495799D01*
X54199Y495299D01*
X58698Y495799D02*
X57698Y495299D01*
X56698Y494300D01*
Y493300D01*
X57198Y492800D01*
X58198D01*
X58698Y493300D01*
Y493800D01*
X58198Y494300D01*
X56698D01*
X106200Y492800D02*
Y495799D01*
X107700D01*
X108199Y495299D01*
Y494300D01*
X107700Y493800D01*
X106200D01*
X107200D02*
X108199Y492800D01*
X109199D02*
X110199D01*
X109699D01*
Y495799D01*
X109199Y495299D01*
X113698Y495799D02*
X111698D01*
Y494300D01*
X112698Y494799D01*
X113198D01*
X113698Y494300D01*
Y493300D01*
X113198Y492800D01*
X112198D01*
X111698Y493300D01*
X325251Y379000D02*
Y381999D01*
X326751D01*
X327251Y381500D01*
Y380500D01*
X326751Y380000D01*
X325251D01*
X326251D02*
X327251Y379000D01*
X328250D02*
X329250D01*
X328750D01*
Y381999D01*
X328250Y381500D01*
X332249Y379000D02*
Y381999D01*
X330749Y380500D01*
X332749D01*
X317251Y374500D02*
Y377500D01*
X318751D01*
X319251Y377000D01*
Y376000D01*
X318751Y375500D01*
X317251D01*
X318251D02*
X319251Y374500D01*
X320250D02*
X321250D01*
X320750D01*
Y377500D01*
X320250Y377000D01*
X322749D02*
X323249Y377500D01*
X324249D01*
X324749Y377000D01*
Y376500D01*
X324249Y376000D01*
X323749D01*
X324249D01*
X324749Y375500D01*
Y375000D01*
X324249Y374500D01*
X323249D01*
X322749Y375000D01*
X245751Y379000D02*
Y381999D01*
X247251D01*
X247751Y381500D01*
Y380500D01*
X247251Y380000D01*
X245751D01*
X246751D02*
X247751Y379000D01*
X248750D02*
X249750D01*
X249250D01*
Y381999D01*
X248750Y381500D01*
X253249Y379000D02*
X251249D01*
X253249Y381000D01*
Y381500D01*
X252749Y381999D01*
X251749D01*
X251249Y381500D01*
X254751Y374500D02*
Y377500D01*
X256251D01*
X256750Y377000D01*
Y376000D01*
X256251Y375500D01*
X254751D01*
X255751D02*
X256750Y374500D01*
X257750D02*
X258750D01*
X258250D01*
Y377500D01*
X257750Y377000D01*
X260249Y374500D02*
X261249D01*
X260749D01*
Y377500D01*
X260249Y377000D01*
X210500Y432700D02*
Y435699D01*
X212000D01*
X212499Y435199D01*
Y434199D01*
X212000Y433700D01*
X210500D01*
X211500D02*
X212499Y432700D01*
X213499D02*
X214499D01*
X213999D01*
Y435699D01*
X213499Y435199D01*
X215998D02*
X216498Y435699D01*
X217498D01*
X217998Y435199D01*
Y433200D01*
X217498Y432700D01*
X216498D01*
X215998Y433200D01*
Y435199D01*
X204800Y389800D02*
Y392799D01*
X206299D01*
X206799Y392299D01*
Y391300D01*
X206299Y390800D01*
X204800D01*
X205800D02*
X206799Y389800D01*
X207799Y390300D02*
X208299Y389800D01*
X209298D01*
X209798Y390300D01*
Y392299D01*
X209298Y392799D01*
X208299D01*
X207799Y392299D01*
Y391799D01*
X208299Y391300D01*
X209798D01*
X279288Y438174D02*
X277171Y440298D01*
X278233Y441356D01*
X278940Y441355D01*
X279646Y440647D01*
X279645Y439940D01*
X278583Y438882D01*
X279291Y439587D02*
X280704Y439585D01*
X279648Y442061D02*
X279649Y442768D01*
X280358Y443473D01*
X281065Y443472D01*
X281417Y443118D01*
X281416Y442411D01*
X282123Y442410D01*
X282476Y442056D01*
X282475Y441349D01*
X281767Y440644D01*
X281060Y440645D01*
X280707Y440999D01*
X280708Y441706D01*
X280001Y441707D01*
X279648Y442061D01*
X280708Y441706D02*
X281416Y442411D01*
X174293Y391173D02*
X172172Y393293D01*
X173233Y394354D01*
X173940Y394353D01*
X174647Y393647D01*
X174647Y392940D01*
X173586Y391879D01*
X174293Y392586D02*
X175707Y392586D01*
X174293Y395414D02*
X175707Y396828D01*
X176060Y396474D01*
Y393647D01*
X176414Y393293D01*
X305796Y463172D02*
X303673Y465290D01*
X304732Y466352D01*
X305439Y466352D01*
X306147Y465646D01*
X306148Y464939D01*
X305088Y463878D01*
X305795Y464586D02*
X307208Y464587D01*
X307204Y468828D02*
X306852Y467768D01*
X306853Y466354D01*
X307561Y465648D01*
X308267Y465648D01*
X308974Y466356D01*
X308973Y467063D01*
X308619Y467416D01*
X307912Y467415D01*
X306853Y466354D01*
X150540Y367005D02*
X148419Y369126D01*
X149480Y370186D01*
X150187Y370186D01*
X150893Y369479D01*
X150893Y368772D01*
X149833Y367712D01*
X150540Y368419D02*
X151954Y368419D01*
Y372660D02*
X150540Y371247D01*
X151600Y370186D01*
X151954Y371247D01*
X152307Y371600D01*
X153014D01*
X153721Y370893D01*
X153721Y370186D01*
X153014Y369479D01*
X152307D01*
X282794Y487172D02*
X280673Y489293D01*
X281733Y490353D01*
X282440Y490353D01*
X283147Y489646D01*
X283147Y488940D01*
X282087Y487879D01*
X282793Y488586D02*
X284207Y488586D01*
X285974Y490354D02*
X283853Y492474D01*
X283853Y490353D01*
X285267Y491768D01*
X125293Y391173D02*
X123172Y393294D01*
X124233Y394354D01*
X124940Y394354D01*
X125646Y393647D01*
X125646Y392940D01*
X124586Y391880D01*
X125293Y392586D02*
X126707Y392586D01*
X125647Y395060D02*
X125647Y395767D01*
X126354Y396474D01*
X127061Y396474D01*
X127414Y396120D01*
X127414Y395413D01*
X127060Y395060D01*
X127414Y395413D01*
X128121Y395413D01*
X128474Y395060D01*
X128474Y394353D01*
X127767Y393646D01*
X127060Y393646D01*
X257285Y462175D02*
X255170Y464302D01*
X256234Y465359D01*
X256941Y465357D01*
X257646Y464648D01*
X257643Y463941D01*
X256580Y462884D01*
X257289Y463588D02*
X258703Y463584D01*
X260830Y465698D02*
X259412Y464289D01*
X259420Y467116D01*
X259068Y467471D01*
X258361Y467473D01*
X257652Y466768D01*
X257650Y466061D01*
X149833Y413700D02*
X147703Y415812D01*
X148759Y416877D01*
X149466Y416880D01*
X150176Y416176D01*
X150179Y415469D01*
X149123Y414404D01*
X149827Y415114D02*
X151241Y415120D01*
X151944Y415830D02*
X152648Y416540D01*
X152296Y416185D01*
X150167Y418296D01*
X150170Y417590D01*
X313800Y631999D02*
Y629000D01*
Y630000D01*
X315799Y631999D01*
X314300Y630500D01*
X315799Y629000D01*
X316799D02*
X317799D01*
X317299D01*
Y631999D01*
X316799Y631499D01*
X464399Y182699D02*
X463400D01*
X463900D01*
Y180200D01*
X463400Y179700D01*
X462900D01*
X462400Y180200D01*
X465399Y179700D02*
X466399D01*
X465899D01*
Y182699D01*
X465399Y182199D01*
X467898D02*
X468398Y182699D01*
X469398D01*
X469898Y182199D01*
Y180200D01*
X469398Y179700D01*
X468398D01*
X467898Y180200D01*
Y182199D01*
X464346Y282199D02*
X463346D01*
X463846D01*
Y279700D01*
X463346Y279200D01*
X462846D01*
X462346Y279700D01*
X465345D02*
X465845Y279200D01*
X466845D01*
X467345Y279700D01*
Y281699D01*
X466845Y282199D01*
X465845D01*
X465345Y281699D01*
Y281199D01*
X465845Y280699D01*
X467345D01*
X457000Y406499D02*
X456001D01*
X456500D01*
Y404000D01*
X456001Y403501D01*
X455501D01*
X455001Y404000D01*
X458000Y406000D02*
X458500Y406499D01*
X459500D01*
X459999Y406000D01*
Y405500D01*
X459500Y405000D01*
X459000D01*
X459500D01*
X459999Y404500D01*
Y404000D01*
X459500Y403501D01*
X458500D01*
X458000Y404000D01*
X457000Y579000D02*
X456001D01*
X456500D01*
Y576500D01*
X456001Y576000D01*
X455501D01*
X455001Y576500D01*
X459999Y576000D02*
X458000D01*
X459999Y578000D01*
Y578500D01*
X459500Y579000D01*
X458500D01*
X458000Y578500D01*
X406099Y53999D02*
X405100D01*
X405599D01*
Y51500D01*
X405100Y51000D01*
X404600D01*
X404100Y51500D01*
X407099Y53499D02*
X407599Y53999D01*
X408599D01*
X409098Y53499D01*
Y52999D01*
X408599Y52500D01*
X409098Y52000D01*
Y51500D01*
X408599Y51000D01*
X407599D01*
X407099Y51500D01*
Y52000D01*
X407599Y52500D01*
X407099Y52999D01*
Y53499D01*
X407599Y52500D02*
X408599D01*
X324599Y53999D02*
X323600D01*
X324099D01*
Y51500D01*
X323600Y51000D01*
X323100D01*
X322600Y51500D01*
X325599Y53999D02*
X327598D01*
Y53499D01*
X325599Y51500D01*
Y51000D01*
X137000Y616999D02*
X136001D01*
X136500D01*
Y614500D01*
X136001Y614001D01*
X135501D01*
X135001Y614500D01*
X139499Y614001D02*
Y616999D01*
X138000Y615500D01*
X139999D01*
X273751Y405500D02*
X274751D01*
X274251D01*
Y402500D01*
X273751D01*
X274751D01*
X278250Y405000D02*
X277750Y405500D01*
X276750D01*
X276250Y405000D01*
Y403000D01*
X276750Y402500D01*
X277750D01*
X278250Y403000D01*
X279249Y405000D02*
X279749Y405500D01*
X280749D01*
X281249Y405000D01*
Y404500D01*
X280749Y404000D01*
X280249D01*
X280749D01*
X281249Y403500D01*
Y403000D01*
X280749Y402500D01*
X279749D01*
X279249Y403000D01*
X221200Y410299D02*
X222200D01*
X221700D01*
Y407300D01*
X221200D01*
X222200D01*
X225698Y409799D02*
X225199Y410299D01*
X224199D01*
X223699Y409799D01*
Y407800D01*
X224199Y407300D01*
X225199D01*
X225698Y407800D01*
X228698Y407300D02*
X226698D01*
X228698Y409299D01*
Y409799D01*
X228198Y410299D01*
X227198D01*
X226698Y409799D01*
X266251Y342000D02*
X267251D01*
X266751D01*
Y339001D01*
X266251D01*
X267251D01*
X270750Y341500D02*
X270250Y342000D01*
X269250D01*
X268750Y341500D01*
Y339500D01*
X269250Y339001D01*
X270250D01*
X270750Y339500D01*
X271749Y339001D02*
X272749D01*
X272249D01*
Y342000D01*
X271749Y341500D01*
X389599Y178999D02*
X387600D01*
Y177499D01*
X388600D01*
X387600D01*
Y176000D01*
X390599Y178999D02*
X392598D01*
Y178499D01*
X390599Y176500D01*
Y176000D01*
X389599Y278499D02*
X387600D01*
Y276999D01*
X388600D01*
X387600D01*
Y275500D01*
X392598Y278499D02*
X391599Y277999D01*
X390599Y276999D01*
Y276000D01*
X391099Y275500D01*
X392098D01*
X392598Y276000D01*
Y276500D01*
X392098Y276999D01*
X390599D01*
X119699Y310999D02*
X117700D01*
Y309500D01*
X118700D01*
X117700D01*
Y308000D01*
X122698Y310999D02*
X120699D01*
Y309500D01*
X121699Y309999D01*
X122199D01*
X122698Y309500D01*
Y308500D01*
X122199Y308000D01*
X121199D01*
X120699Y308500D01*
X119699Y157999D02*
X117700D01*
Y156500D01*
X118700D01*
X117700D01*
Y155000D01*
X122199D02*
Y157999D01*
X120699Y156500D01*
X122698D01*
X368200Y582799D02*
Y579800D01*
X369700D01*
X370199Y580300D01*
Y582299D01*
X369700Y582799D01*
X368200D01*
X371199Y579800D02*
X372199D01*
X371699D01*
Y582799D01*
X371199Y582299D01*
X310500Y402500D02*
X310000Y402999D01*
X309001D01*
X308501Y402500D01*
Y400500D01*
X309001Y400000D01*
X310000D01*
X310500Y400500D01*
X311500Y402500D02*
X312000Y402999D01*
X312999D01*
X313499Y402500D01*
Y402000D01*
X312999Y401500D01*
X313499Y401000D01*
Y400500D01*
X312999Y400000D01*
X312000D01*
X311500Y400500D01*
Y401000D01*
X312000Y401500D01*
X311500Y402000D01*
Y402500D01*
X312000Y401500D02*
X312999D01*
X267000Y402500D02*
X266500Y402999D01*
X265501D01*
X265001Y402500D01*
Y400500D01*
X265501Y400000D01*
X266500D01*
X267000Y400500D01*
X268000Y402999D02*
X269999D01*
Y402500D01*
X268000Y400500D01*
Y400000D01*
X239450Y371163D02*
X238950Y371662D01*
X237950D01*
X237451Y371163D01*
Y369163D01*
X237950Y368663D01*
X238950D01*
X239450Y369163D01*
X242449Y371662D02*
X241449Y371163D01*
X240450Y370163D01*
Y369163D01*
X240950Y368663D01*
X241949D01*
X242449Y369163D01*
Y369663D01*
X241949Y370163D01*
X240450D01*
X230206Y359663D02*
X229706Y360162D01*
X228706D01*
X228206Y359663D01*
Y357663D01*
X228706Y357163D01*
X229706D01*
X230206Y357663D01*
X233205Y360162D02*
X231206D01*
Y358663D01*
X232205Y359163D01*
X232705D01*
X233205Y358663D01*
Y357663D01*
X232705Y357163D01*
X231705D01*
X231206Y357663D01*
X250000Y345500D02*
X249500Y346000D01*
X248501D01*
X248001Y345500D01*
Y343500D01*
X248501Y343001D01*
X249500D01*
X250000Y343500D01*
X252499Y343001D02*
Y346000D01*
X251000Y344500D01*
X252999D01*
X258500Y345500D02*
X258000Y346000D01*
X257001D01*
X256501Y345500D01*
Y343500D01*
X257001Y343001D01*
X258000D01*
X258500Y343500D01*
X259500Y345500D02*
X260000Y346000D01*
X260999D01*
X261499Y345500D01*
Y345000D01*
X260999Y344500D01*
X260500D01*
X260999D01*
X261499Y344000D01*
Y343500D01*
X260999Y343001D01*
X260000D01*
X259500Y343500D01*
X321000Y345000D02*
X320500Y345499D01*
X319501D01*
X319001Y345000D01*
Y343000D01*
X319501Y342500D01*
X320500D01*
X321000Y343000D01*
X323999Y342500D02*
X322000D01*
X323999Y344500D01*
Y345000D01*
X323499Y345499D01*
X322500D01*
X322000Y345000D01*
X328799D02*
X328299Y345499D01*
X327300D01*
X326800Y345000D01*
Y343000D01*
X327300Y342500D01*
X328299D01*
X328799Y343000D01*
X329799Y342500D02*
X330799D01*
X330299D01*
Y345499D01*
X329799Y345000D01*
D11*
X118614Y279000D02*
G03*
X119008Y279000I197J0D01*
G01*
D02*
G03*
X118614Y279000I-197J0D01*
G01*
Y126000D02*
G03*
X119008Y126000I197J0D01*
G01*
D02*
G03*
X118614Y126000I-197J0D01*
G01*
D12*
X233319Y422500D02*
G03*
X233319Y422500I-197J0D01*
G01*
X211197Y383122D02*
G03*
X211197Y383122I-197J0D01*
G01*
X287551Y485949D02*
X291449Y482051D01*
X262051Y460949D02*
X265949Y457051D01*
X368795Y550689D02*
Y573051D01*
X379205Y551949D02*
Y573051D01*
X310051Y462449D02*
X313949Y458551D01*
X284051Y436949D02*
X287949Y433051D01*
X316972Y621898D02*
X356343D01*
Y503787D02*
Y621898D01*
X316972Y503787D02*
X356343D01*
X316972D02*
Y621898D01*
X134362Y257150D02*
Y263252D01*
Y257150D02*
X291843D01*
Y263252D01*
X134362Y294748D02*
Y300850D01*
X291843D01*
Y294748D02*
Y300850D01*
X134362Y104150D02*
Y110252D01*
Y104150D02*
X291843D01*
Y110252D01*
X134362Y141748D02*
Y147850D01*
X291843D01*
Y141748D02*
Y147850D01*
X416000Y151453D02*
Y170547D01*
X296677Y380343D02*
X302681D01*
X295299Y380854D02*
Y400146D01*
X282701D02*
X295299D01*
X282701Y380854D02*
Y400146D01*
Y380854D02*
X295299D01*
X142727Y425125D02*
X146625Y421227D01*
X221463Y383242D02*
Y395841D01*
X240755D01*
Y383242D02*
Y395841D01*
X221463Y383242D02*
X240755D01*
X220952Y375860D02*
Y381864D01*
X308244Y390500D02*
X313756D01*
X264744D02*
X270256D01*
X416000Y250953D02*
Y270047D01*
X303921Y346824D02*
X311499D01*
X302543Y345466D02*
Y368497D01*
X275771D02*
X302543D01*
X275771Y345466D02*
Y368497D01*
Y345466D02*
X302543D01*
X119551Y401449D02*
X123449Y397551D01*
X167551Y400949D02*
X171449Y397051D01*
X144051Y376949D02*
X147949Y373051D01*
X248319Y389500D02*
X250681D01*
X256819Y385000D02*
X259181D01*
X319319D02*
X321681D01*
X327819Y389500D02*
X330181D01*
D13*
X475346Y551295D02*
X477315Y547358D01*
X473378D02*
X475346Y551295D01*
X473378Y547358D02*
X477315D01*
X466488Y552870D02*
X504283D01*
Y574130D01*
X466488D02*
X504283D01*
X466488Y552870D02*
Y574130D01*
X475346Y378795D02*
X477315Y374858D01*
X473378D02*
X475346Y378795D01*
X473378Y374858D02*
X477315D01*
X466488Y380370D02*
X504283D01*
Y401630D01*
X466488D02*
X504283D01*
X466488Y380370D02*
Y401630D01*
X475346Y337795D02*
X477315Y333858D01*
X473378D02*
X475346Y337795D01*
X473378Y333858D02*
X477315D01*
X466488Y339370D02*
X504283D01*
Y360630D01*
X466488D02*
X504283D01*
X466488Y339370D02*
Y360630D01*
X101858Y645532D02*
X105795Y647500D01*
X101858Y649469D02*
X105795Y647500D01*
X101858Y645532D02*
Y649469D01*
X107370Y618563D02*
Y656358D01*
Y618563D02*
X128630D01*
Y656358D01*
X107370D02*
X128630D01*
X475346Y248295D02*
X477315Y244358D01*
X473378D02*
X475346Y248295D01*
X473378Y244358D02*
X477315D01*
X466488Y249870D02*
X504283D01*
Y271130D01*
X466488D02*
X504283D01*
X466488Y249870D02*
Y271130D01*
X475346Y148795D02*
X477315Y144858D01*
X473378D02*
X475346Y148795D01*
X473378Y144858D02*
X477315D01*
X466488Y150370D02*
X504283D01*
Y171630D01*
X466488D02*
X504283D01*
X466488Y150370D02*
Y171630D01*
X327370Y42858D02*
X348630D01*
Y5063D02*
Y42858D01*
X327370Y5063D02*
X348630D01*
X327370D02*
Y42858D01*
X321858Y32032D02*
Y35969D01*
X325795Y34000D01*
X321858Y32032D02*
X325795Y34000D01*
X403358Y32032D02*
X407295Y34000D01*
X403358Y35969D02*
X407295Y34000D01*
X403358Y32032D02*
Y35969D01*
X408870Y5063D02*
Y42858D01*
Y5063D02*
X430130D01*
Y42858D01*
X408870D02*
X430130D01*
D14*
X156000Y453000D02*
Y489000D01*
X106000Y453000D02*
Y489000D01*
X156000D01*
X106000Y453000D02*
X156000D01*
X101000D02*
Y489000D01*
X51000Y453000D02*
Y489000D01*
X101000D01*
X51000Y453000D02*
X101000D01*
M02*
