G04*
G04 #@! TF.GenerationSoftware,Altium Limited,Altium Designer,25.6.2 (33)*
G04*
G04 Layer_Color=16711935*
%FSLAX25Y25*%
%MOIN*%
G70*
G04*
G04 #@! TF.SameCoordinates,7502CC92-0913-4849-9877-68709095791D*
G04*
G04*
G04 #@! TF.FilePolarity,Negative*
G04*
G01*
G75*
%ADD73C,0.07400*%
%ADD74C,0.05493*%
%ADD75C,0.04304*%
%ADD76C,0.11489*%
%ADD77R,0.11489X0.11489*%
%ADD78C,0.04461*%
%ADD79C,0.11961*%
%ADD80R,0.11489X0.11489*%
%ADD81C,0.06800*%
%ADD82C,0.03202*%
D73*
X382000Y332100D02*
D03*
X485500Y256500D02*
D03*
Y366500D02*
D03*
X382000Y442100D02*
D03*
D74*
X468000Y411000D02*
D03*
X438472D02*
D03*
Y396000D02*
D03*
X468000D02*
D03*
X566027Y411000D02*
D03*
X536500D02*
D03*
Y396000D02*
D03*
X566027D02*
D03*
X536500Y329077D02*
D03*
X566028D02*
D03*
Y344077D02*
D03*
X536500D02*
D03*
X566028Y270423D02*
D03*
X536500D02*
D03*
Y255423D02*
D03*
X566028D02*
D03*
X536500Y188500D02*
D03*
X566027D02*
D03*
Y203500D02*
D03*
X536500D02*
D03*
D75*
X162567Y146543D02*
D03*
X146043Y216252D02*
D03*
Y431024D02*
D03*
D76*
X213591Y133157D02*
D03*
X198000D02*
D03*
X182409D02*
D03*
X132658Y165228D02*
D03*
Y180819D02*
D03*
Y196409D02*
D03*
Y380000D02*
D03*
Y395590D02*
D03*
Y411181D02*
D03*
D77*
X166819Y133157D02*
D03*
D78*
X145886Y339252D02*
D03*
Y279252D02*
D03*
X366252Y454201D02*
D03*
X375157Y146386D02*
D03*
X313248D02*
D03*
X458315Y454201D02*
D03*
X247748Y146386D02*
D03*
X511248Y146386D02*
D03*
X193342Y454201D02*
D03*
D79*
X132500Y319409D02*
D03*
Y335000D02*
D03*
Y259409D02*
D03*
Y275000D02*
D03*
X346409Y467587D02*
D03*
X362000D02*
D03*
X395000Y133000D02*
D03*
X379409D02*
D03*
X333091D02*
D03*
X317500D02*
D03*
X438472Y467587D02*
D03*
X454063D02*
D03*
X267591Y133000D02*
D03*
X252000D02*
D03*
X531090Y133000D02*
D03*
X515500D02*
D03*
X173500Y467587D02*
D03*
X189091D02*
D03*
D80*
X132658Y212000D02*
D03*
Y426772D02*
D03*
D81*
X122000Y479000D02*
D03*
X578000D02*
D03*
Y121000D02*
D03*
X122000D02*
D03*
D82*
X339336Y307537D02*
D03*
X340913Y319160D02*
D03*
X278469Y353384D02*
D03*
X286469Y321584D02*
D03*
X243400Y243200D02*
D03*
X211035Y397256D02*
D03*
X202866D02*
D03*
Y391843D02*
D03*
X211035D02*
D03*
X207000Y394500D02*
D03*
X263000Y260400D02*
D03*
X437500Y304000D02*
D03*
X253300Y276400D02*
D03*
X234500Y285300D02*
D03*
X328400Y307600D02*
D03*
X271900Y192200D02*
D03*
X193700Y200700D02*
D03*
X199700Y191100D02*
D03*
X189600D02*
D03*
X178800Y259800D02*
D03*
X188100D02*
D03*
X197400D02*
D03*
X169500D02*
D03*
X280904Y301000D02*
D03*
X253900Y343900D02*
D03*
Y334100D02*
D03*
X264504Y317300D02*
D03*
X400000Y240000D02*
D03*
X410000Y220000D02*
D03*
X400000Y200000D02*
D03*
X380000Y240000D02*
D03*
X350000Y220000D02*
D03*
Y180000D02*
D03*
X340000Y160000D02*
D03*
X310000Y220000D02*
D03*
X300000Y200000D02*
D03*
X280000Y240000D02*
D03*
Y200000D02*
D03*
Y160000D02*
D03*
X290000Y140000D02*
D03*
X260000Y480000D02*
D03*
X270000Y460000D02*
D03*
X260000Y440000D02*
D03*
X270000Y420000D02*
D03*
X260000Y400000D02*
D03*
X270000Y380000D02*
D03*
X260000Y360000D02*
D03*
Y280000D02*
D03*
X270000Y180000D02*
D03*
X260000Y160000D02*
D03*
X240000Y480000D02*
D03*
X250000Y460000D02*
D03*
X240000Y440000D02*
D03*
X250000Y420000D02*
D03*
Y380000D02*
D03*
X240000Y360000D02*
D03*
Y320000D02*
D03*
X220000Y480000D02*
D03*
X230000Y460000D02*
D03*
X220000Y440000D02*
D03*
X230000Y380000D02*
D03*
X220000Y360000D02*
D03*
X230000Y340000D02*
D03*
Y220000D02*
D03*
X220000Y160000D02*
D03*
X200000Y360000D02*
D03*
Y320000D02*
D03*
Y280000D02*
D03*
X210000Y180000D02*
D03*
X180000Y440000D02*
D03*
X190000Y380000D02*
D03*
X180000Y280000D02*
D03*
X190000Y180000D02*
D03*
X180000Y160000D02*
D03*
X160000Y440000D02*
D03*
Y400000D02*
D03*
X170000Y380000D02*
D03*
X160000Y360000D02*
D03*
Y240000D02*
D03*
Y200000D02*
D03*
X170000Y180000D02*
D03*
X140000Y480000D02*
D03*
X150000Y460000D02*
D03*
X140000Y360000D02*
D03*
X150000Y300000D02*
D03*
X140000Y240000D02*
D03*
Y120000D02*
D03*
X130000Y460000D02*
D03*
X120000Y360000D02*
D03*
X130000Y300000D02*
D03*
X120000Y240000D02*
D03*
X338200Y323300D02*
D03*
X221200Y308100D02*
D03*
X195678Y308078D02*
D03*
X209400Y341600D02*
D03*
X220100Y274400D02*
D03*
X233382Y255778D02*
D03*
X260027Y222427D02*
D03*
M02*
