G04*
G04 #@! TF.GenerationSoftware,Altium Limited,Altium Designer,25.6.2 (33)*
G04*
G04 Layer_Color=128*
%FSLAX25Y25*%
%MOIN*%
G70*
G04*
G04 #@! TF.SameCoordinates,7502CC92-0913-4849-9877-68709095791D*
G04*
G04*
G04 #@! TF.FilePolarity,Positive*
G04*
G01*
G75*
%ADD103C,0.00500*%
D103*
X380350Y332100D02*
X383650D01*
X382000Y330450D02*
Y333750D01*
X466720Y411000D02*
X469279D01*
X468000Y409720D02*
Y412280D01*
X437193Y411000D02*
X439752D01*
X438472Y409720D02*
Y412280D01*
X437193Y396000D02*
X439752D01*
X438472Y394720D02*
Y397280D01*
X466720Y396000D02*
X469279D01*
X468000Y394720D02*
Y397280D01*
X564748Y411000D02*
X567307D01*
X566027Y409720D02*
Y412280D01*
X535220Y411000D02*
X537779D01*
X536500Y409720D02*
Y412280D01*
X535220Y396000D02*
X537779D01*
X536500Y394720D02*
Y397280D01*
X564748Y396000D02*
X567307D01*
X566027Y394720D02*
Y397280D01*
X535220Y329077D02*
X537780D01*
X536500Y327798D02*
Y330357D01*
X564748Y329077D02*
X567307D01*
X566028Y327798D02*
Y330357D01*
X564748Y344077D02*
X567307D01*
X566028Y342798D02*
Y345357D01*
X535220Y344077D02*
X537780D01*
X536500Y342798D02*
Y345357D01*
X564748Y270423D02*
X567307D01*
X566028Y269143D02*
Y271702D01*
X535220Y270423D02*
X537780D01*
X536500Y269143D02*
Y271702D01*
X535220Y255423D02*
X537780D01*
X536500Y254143D02*
Y256702D01*
X564748Y255423D02*
X567307D01*
X566028Y254143D02*
Y256702D01*
X535220Y188500D02*
X537779D01*
X536500Y187221D02*
Y189779D01*
X564748Y188500D02*
X567307D01*
X566027Y187221D02*
Y189779D01*
X564748Y203500D02*
X567307D01*
X566027Y202221D02*
Y204780D01*
X535220Y203500D02*
X537779D01*
X536500Y202221D02*
Y204780D01*
X159063Y146543D02*
X166071D01*
X162567Y143039D02*
Y150047D01*
X210028Y133157D02*
X217154D01*
X213591Y129594D02*
Y136720D01*
X194437Y133157D02*
X201563D01*
X198000Y129594D02*
Y136720D01*
X178847Y133157D02*
X185972D01*
X182409Y129594D02*
Y136720D01*
X163256Y133157D02*
X170382D01*
X166819Y129594D02*
Y136720D01*
X142224Y339252D02*
X149547D01*
X145886Y335591D02*
Y342913D01*
X128779Y319409D02*
X136221D01*
X132500Y315689D02*
Y323130D01*
X128779Y335000D02*
X136221D01*
X132500Y331279D02*
Y338720D01*
X142224Y279252D02*
X149547D01*
X145886Y275590D02*
Y282913D01*
X128779Y259409D02*
X136221D01*
X132500Y255689D02*
Y263130D01*
X128779Y275000D02*
X136221D01*
X132500Y271280D02*
Y278720D01*
X142539Y216252D02*
X149547D01*
X146043Y212748D02*
Y219756D01*
X129095Y165228D02*
X136221D01*
X132658Y161665D02*
Y168791D01*
X129095Y180819D02*
X136221D01*
X132658Y177256D02*
Y184382D01*
X129095Y196409D02*
X136221D01*
X132658Y192847D02*
Y199972D01*
X129095Y212000D02*
X136221D01*
X132658Y208437D02*
Y215563D01*
X362591Y454201D02*
X369913D01*
X366252Y450539D02*
Y457862D01*
X342689Y467587D02*
X350130D01*
X346409Y463866D02*
Y471307D01*
X358279Y467587D02*
X365721D01*
X362000Y463866D02*
Y471307D01*
X371496Y146386D02*
X378819D01*
X375157Y142724D02*
Y150047D01*
X391280Y133000D02*
X398721D01*
X395000Y129279D02*
Y136721D01*
X375689Y133000D02*
X383130D01*
X379409Y129279D02*
Y136721D01*
X309587Y146386D02*
X316910D01*
X313248Y142724D02*
Y150047D01*
X329370Y133000D02*
X336811D01*
X333091Y129279D02*
Y136721D01*
X313779Y133000D02*
X321220D01*
X317500Y129279D02*
Y136721D01*
X454654Y454201D02*
X461976D01*
X458315Y450539D02*
Y457862D01*
X434752Y467587D02*
X442193D01*
X438472Y463866D02*
Y471307D01*
X450343Y467587D02*
X457783D01*
X454063Y463866D02*
Y471307D01*
X244087Y146386D02*
X251410D01*
X247748Y142724D02*
Y150047D01*
X263870Y133000D02*
X271311D01*
X267591Y129279D02*
Y136721D01*
X248280Y133000D02*
X255720D01*
X252000Y129279D02*
Y136721D01*
X507586Y146386D02*
X514909D01*
X511248Y142724D02*
Y150047D01*
X527370Y133000D02*
X534811D01*
X531090Y129279D02*
Y136720D01*
X511779Y133000D02*
X519220D01*
X515500Y129279D02*
Y136720D01*
X142539Y431024D02*
X149547D01*
X146043Y427520D02*
Y434527D01*
X129095Y380000D02*
X136221D01*
X132658Y376437D02*
Y383563D01*
X129095Y395590D02*
X136221D01*
X132658Y392027D02*
Y399153D01*
X129095Y411181D02*
X136221D01*
X132658Y407618D02*
Y414744D01*
X129095Y426772D02*
X136221D01*
X132658Y423209D02*
Y430335D01*
X189681Y454201D02*
X197004D01*
X193342Y450539D02*
Y457862D01*
X169780Y467587D02*
X177220D01*
X173500Y463866D02*
Y471307D01*
X185370Y467587D02*
X192811D01*
X189091Y463866D02*
Y471307D01*
X483850Y256500D02*
X487150D01*
X485500Y254850D02*
Y258150D01*
X483850Y366500D02*
X487150D01*
X485500Y364850D02*
Y368150D01*
X380350Y442100D02*
X383650D01*
X382000Y440450D02*
Y443750D01*
X115405Y479000D02*
X128595D01*
X122000Y472405D02*
Y485595D01*
X571406Y479000D02*
X584594D01*
X578000Y472405D02*
Y485595D01*
X571406Y121000D02*
X584594D01*
X578000Y114406D02*
Y127594D01*
X115405Y121000D02*
X128595D01*
X122000Y114406D02*
Y127594D01*
X338746Y307537D02*
X339927D01*
X339336Y306946D02*
Y308127D01*
X340323Y319160D02*
X341504D01*
X340913Y318569D02*
Y319750D01*
X277878Y353384D02*
X279059D01*
X278469Y352794D02*
Y353975D01*
X285878Y321584D02*
X287059D01*
X286469Y320994D02*
Y322175D01*
X242810Y243200D02*
X243990D01*
X243400Y242610D02*
Y243791D01*
X210445Y397256D02*
X211626D01*
X211035Y396665D02*
Y397847D01*
X202276Y397256D02*
X203457D01*
X202866Y396665D02*
Y397847D01*
X202276Y391843D02*
X203457D01*
X202866Y391252D02*
Y392433D01*
X210445Y391843D02*
X211626D01*
X211035Y391252D02*
Y392433D01*
X206410Y394500D02*
X207591D01*
X207000Y393910D02*
Y395091D01*
X262409Y260400D02*
X263591D01*
X263000Y259809D02*
Y260991D01*
X436909Y304000D02*
X438091D01*
X437500Y303410D02*
Y304591D01*
X252710Y276400D02*
X253890D01*
X253300Y275810D02*
Y276991D01*
X233910Y285300D02*
X235090D01*
X234500Y284710D02*
Y285891D01*
X327810Y307600D02*
X328991D01*
X328400Y307010D02*
Y308190D01*
X271309Y192200D02*
X272491D01*
X271900Y191609D02*
Y192791D01*
X193109Y200700D02*
X194291D01*
X193700Y200109D02*
Y201291D01*
X199109Y191100D02*
X200291D01*
X199700Y190509D02*
Y191691D01*
X189009Y191100D02*
X190191D01*
X189600Y190509D02*
Y191691D01*
X178209Y259800D02*
X179391D01*
X178800Y259209D02*
Y260390D01*
X187509Y259800D02*
X188691D01*
X188100Y259209D02*
Y260390D01*
X196809Y259800D02*
X197991D01*
X197400Y259209D02*
Y260390D01*
X168909Y259800D02*
X170091D01*
X169500Y259209D02*
Y260390D01*
X280313Y301000D02*
X281494D01*
X280904Y300410D02*
Y301590D01*
X253309Y343900D02*
X254490D01*
X253900Y343309D02*
Y344491D01*
X253309Y334100D02*
X254490D01*
X253900Y333509D02*
Y334690D01*
X263913Y317300D02*
X265094D01*
X264504Y316709D02*
Y317891D01*
X399410Y240000D02*
X400591D01*
X400000Y239409D02*
Y240591D01*
X409410Y220000D02*
X410591D01*
X410000Y219409D02*
Y220590D01*
X399410Y200000D02*
X400591D01*
X400000Y199409D02*
Y200591D01*
X379410Y240000D02*
X380591D01*
X380000Y239409D02*
Y240591D01*
X349410Y220000D02*
X350590D01*
X350000Y219409D02*
Y220590D01*
X349410Y180000D02*
X350590D01*
X350000Y179409D02*
Y180591D01*
X339409Y160000D02*
X340591D01*
X340000Y159409D02*
Y160591D01*
X309409Y220000D02*
X310591D01*
X310000Y219409D02*
Y220590D01*
X299410Y200000D02*
X300590D01*
X300000Y199409D02*
Y200591D01*
X279410Y240000D02*
X280591D01*
X280000Y239409D02*
Y240591D01*
X279410Y200000D02*
X280591D01*
X280000Y199409D02*
Y200591D01*
X279410Y160000D02*
X280591D01*
X280000Y159409D02*
Y160591D01*
X289409Y140000D02*
X290591D01*
X290000Y139409D02*
Y140591D01*
X259409Y480000D02*
X260591D01*
X260000Y479410D02*
Y480590D01*
X269409Y460000D02*
X270590D01*
X270000Y459410D02*
Y460591D01*
X259409Y440000D02*
X260591D01*
X260000Y439409D02*
Y440590D01*
X269409Y420000D02*
X270590D01*
X270000Y419410D02*
Y420590D01*
X259409Y400000D02*
X260591D01*
X260000Y399410D02*
Y400591D01*
X269409Y380000D02*
X270590D01*
X270000Y379410D02*
Y380591D01*
X259409Y360000D02*
X260591D01*
X260000Y359409D02*
Y360591D01*
X259409Y280000D02*
X260591D01*
X260000Y279410D02*
Y280591D01*
X269409Y180000D02*
X270590D01*
X270000Y179409D02*
Y180591D01*
X259409Y160000D02*
X260591D01*
X260000Y159409D02*
Y160591D01*
X239409Y480000D02*
X240591D01*
X240000Y479410D02*
Y480590D01*
X249410Y460000D02*
X250590D01*
X250000Y459410D02*
Y460591D01*
X239409Y440000D02*
X240591D01*
X240000Y439409D02*
Y440590D01*
X249410Y420000D02*
X250590D01*
X250000Y419410D02*
Y420590D01*
X249410Y380000D02*
X250590D01*
X250000Y379410D02*
Y380591D01*
X239409Y360000D02*
X240591D01*
X240000Y359409D02*
Y360591D01*
X239409Y320000D02*
X240591D01*
X240000Y319409D02*
Y320590D01*
X219409Y480000D02*
X220590D01*
X220000Y479410D02*
Y480590D01*
X229410Y460000D02*
X230591D01*
X230000Y459410D02*
Y460591D01*
X219409Y440000D02*
X220590D01*
X220000Y439409D02*
Y440590D01*
X229410Y380000D02*
X230591D01*
X230000Y379410D02*
Y380591D01*
X219409Y360000D02*
X220590D01*
X220000Y359409D02*
Y360591D01*
X229410Y340000D02*
X230591D01*
X230000Y339409D02*
Y340591D01*
X229410Y220000D02*
X230591D01*
X230000Y219409D02*
Y220590D01*
X219409Y160000D02*
X220590D01*
X220000Y159409D02*
Y160591D01*
X199409Y360000D02*
X200591D01*
X200000Y359409D02*
Y360591D01*
X199409Y320000D02*
X200591D01*
X200000Y319409D02*
Y320590D01*
X199409Y280000D02*
X200591D01*
X200000Y279410D02*
Y280591D01*
X209409Y180000D02*
X210591D01*
X210000Y179409D02*
Y180591D01*
X179409Y440000D02*
X180591D01*
X180000Y439409D02*
Y440590D01*
X189409Y380000D02*
X190591D01*
X190000Y379410D02*
Y380591D01*
X179409Y280000D02*
X180591D01*
X180000Y279410D02*
Y280591D01*
X189409Y180000D02*
X190591D01*
X190000Y179409D02*
Y180591D01*
X179409Y160000D02*
X180591D01*
X180000Y159409D02*
Y160591D01*
X159409Y440000D02*
X160591D01*
X160000Y439409D02*
Y440590D01*
X159409Y400000D02*
X160591D01*
X160000Y399410D02*
Y400591D01*
X169409Y380000D02*
X170591D01*
X170000Y379410D02*
Y380591D01*
X159409Y360000D02*
X160591D01*
X160000Y359409D02*
Y360591D01*
X159409Y240000D02*
X160591D01*
X160000Y239409D02*
Y240591D01*
X159409Y200000D02*
X160591D01*
X160000Y199409D02*
Y200591D01*
X169409Y180000D02*
X170591D01*
X170000Y179409D02*
Y180591D01*
X139409Y480000D02*
X140591D01*
X140000Y479410D02*
Y480590D01*
X149409Y460000D02*
X150591D01*
X150000Y459410D02*
Y460591D01*
X139409Y360000D02*
X140591D01*
X140000Y359409D02*
Y360591D01*
X149409Y300000D02*
X150591D01*
X150000Y299410D02*
Y300590D01*
X139409Y240000D02*
X140591D01*
X140000Y239409D02*
Y240591D01*
X139409Y120000D02*
X140591D01*
X140000Y119409D02*
Y120591D01*
X129409Y460000D02*
X130591D01*
X130000Y459410D02*
Y460591D01*
X119409Y360000D02*
X120591D01*
X120000Y359409D02*
Y360591D01*
X129409Y300000D02*
X130591D01*
X130000Y299410D02*
Y300590D01*
X119409Y240000D02*
X120591D01*
X120000Y239409D02*
Y240591D01*
X337610Y323300D02*
X338790D01*
X338200Y322709D02*
Y323890D01*
X220609Y308100D02*
X221791D01*
X221200Y307509D02*
Y308691D01*
X195087Y308078D02*
X196268D01*
X195678Y307487D02*
Y308668D01*
X208809Y341600D02*
X209991D01*
X209400Y341009D02*
Y342191D01*
X219510Y274400D02*
X220690D01*
X220100Y273810D02*
Y274991D01*
X232792Y255778D02*
X233973D01*
X233382Y255187D02*
Y256368D01*
X259436Y222427D02*
X260617D01*
X260027Y221836D02*
Y223017D01*
M02*
