G04*
G04 #@! TF.GenerationSoftware,Altium Limited,Altium Designer,25.6.2 (33)*
G04*
G04 Layer_Color=32768*
%FSLAX25Y25*%
%MOIN*%
G70*
G04*
G04 #@! TF.SameCoordinates,7502CC92-0913-4849-9877-68709095791D*
G04*
G04*
G04 #@! TF.FilePolarity,Positive*
G04*
G01*
G75*
%ADD11C,0.00394*%
%ADD100C,0.00197*%
D11*
X156205Y216854D02*
Y236146D01*
Y216854D02*
X181795D01*
Y236146D01*
X156205D02*
X181795D01*
X228811Y255012D02*
X255189D01*
X228811D02*
Y268988D01*
X255189D01*
Y255012D02*
Y268988D01*
X201811D02*
X228189D01*
Y255012D02*
Y268988D01*
X201811Y255012D02*
X228189D01*
X201811D02*
Y268988D01*
X239012Y379811D02*
Y406189D01*
X252988D01*
Y379811D02*
Y406189D01*
X239012Y379811D02*
X252988D01*
X235488D02*
Y406189D01*
X221512Y379811D02*
X235488D01*
X221512D02*
Y406189D01*
X235488D01*
X206311Y374988D02*
X232689D01*
Y361012D02*
Y374988D01*
X206311Y361012D02*
X232689D01*
X206311D02*
Y374988D01*
X336211Y215413D02*
X362589D01*
X336211D02*
Y229587D01*
X362589D01*
Y215413D02*
Y229587D01*
X336211Y194913D02*
X362589D01*
X336211D02*
Y209087D01*
X362589D01*
Y194913D02*
Y209087D01*
X336211Y174413D02*
X362589D01*
X336211D02*
Y188587D01*
X362589D01*
Y174413D02*
Y188587D01*
X409929Y373972D02*
X496543D01*
X409929D02*
Y436197D01*
X496543D01*
Y373972D02*
Y436197D01*
X507957Y373972D02*
X594571D01*
X507957D02*
Y436197D01*
X594571D01*
Y373972D02*
Y436197D01*
X507957Y366105D02*
X594571D01*
Y303881D02*
Y366105D01*
X507957Y303881D02*
X594571D01*
X507957D02*
Y366105D01*
Y233395D02*
X594571D01*
X507957D02*
Y295619D01*
X594571D01*
Y233395D02*
Y295619D01*
X507957Y225528D02*
X594571D01*
Y163303D02*
Y225528D01*
X507957Y163303D02*
X594571D01*
X507957D02*
Y225528D01*
X364620Y174413D02*
Y188587D01*
Y174413D02*
X392179D01*
Y188587D01*
X364620D02*
X392179D01*
X196280Y288913D02*
Y303087D01*
X168720D02*
X196280D01*
X168720Y288913D02*
Y303087D01*
Y288913D02*
X196280D01*
X166413Y407890D02*
X180587D01*
X166413Y380331D02*
Y407890D01*
Y380331D02*
X180587D01*
Y407890D01*
X412626Y101114D02*
Y227886D01*
X488374D01*
Y101114D02*
Y227886D01*
X412626Y101114D02*
X488374D01*
X148689Y106307D02*
Y153984D01*
Y106307D02*
X231720D01*
Y153984D01*
X148689D02*
X231720D01*
X100059Y353130D02*
X153484D01*
X100059Y301279D02*
Y353130D01*
Y301279D02*
X153484D01*
Y353130D01*
X100059Y293130D02*
X153484D01*
X100059Y241280D02*
Y293130D01*
Y241280D02*
X153484D01*
Y293130D01*
X105807Y230130D02*
X153484D01*
X105807Y147098D02*
Y230130D01*
Y147098D02*
X153484D01*
Y230130D01*
X380130Y446602D02*
Y500028D01*
X328279D02*
X380130D01*
X328279Y446602D02*
Y500028D01*
Y446602D02*
X380130D01*
X361280Y100559D02*
Y153984D01*
Y100559D02*
X413130D01*
Y153984D01*
X361280D02*
X413130D01*
X299370Y100559D02*
Y153984D01*
Y100559D02*
X351220D01*
Y153984D01*
X299370D02*
X351220D01*
X472193Y446602D02*
Y500028D01*
X420342D02*
X472193D01*
X420342Y446602D02*
Y500028D01*
Y446602D02*
X472193D01*
X233870Y100559D02*
Y153984D01*
Y100559D02*
X285720D01*
Y153984D01*
X233870D02*
X285720D01*
X497370Y100559D02*
Y153984D01*
Y100559D02*
X549220D01*
Y153984D01*
X497370D02*
X549220D01*
X105807Y444902D02*
X153484D01*
X105807Y361870D02*
Y444902D01*
Y361870D02*
X153484D01*
Y444902D01*
X207221Y446602D02*
Y500028D01*
X155370D02*
X207221D01*
X155370Y446602D02*
Y500028D01*
Y446602D02*
X207221D01*
X179764Y360512D02*
X202236D01*
X179764D02*
Y375488D01*
X202236D01*
Y360512D02*
Y375488D01*
X364620Y194913D02*
Y209087D01*
Y194913D02*
X392179D01*
Y209087D01*
X364620D02*
X392179D01*
X364620Y215413D02*
Y229587D01*
Y215413D02*
X392179D01*
Y229587D01*
X364620D02*
X392179D01*
X298000Y334732D02*
Y338668D01*
X296031Y336700D02*
X299969D01*
D100*
X319617Y174610D02*
Y188390D01*
Y174610D02*
X334184D01*
Y188390D01*
X319617D02*
X334184D01*
X257349Y339705D02*
X273451D01*
X257349D02*
Y347895D01*
X273451D01*
Y339705D02*
Y347895D01*
X376572Y298443D02*
Y316357D01*
X385628D01*
Y298443D02*
Y316357D01*
X376572Y298443D02*
X385628D01*
X252128Y302742D02*
Y320458D01*
X243072Y302742D02*
X252128D01*
X243072D02*
Y320458D01*
X252128D01*
X262328Y308142D02*
Y325858D01*
X253272Y308142D02*
X262328D01*
X253272D02*
Y325858D01*
X262328D01*
X333228Y299442D02*
Y317158D01*
X324172Y299442D02*
X333228D01*
X324172D02*
Y317158D01*
X333228D01*
X343528Y299442D02*
Y317158D01*
X334472Y299442D02*
X343528D01*
X334472D02*
Y317158D01*
X343528D01*
X350046Y299476D02*
X368550D01*
X350046D02*
Y308924D01*
X368550D01*
Y299476D02*
Y308924D01*
X386098Y297013D02*
X413165D01*
X386098D02*
Y311187D01*
X413165D01*
Y297013D02*
Y311187D01*
X198043Y300528D02*
X215957D01*
Y291472D02*
Y300528D01*
X198043Y291472D02*
X215957D01*
X198043D02*
Y300528D01*
X166543Y422067D02*
X184457D01*
Y413012D02*
Y422067D01*
X166543Y413012D02*
X184457D01*
X166543D02*
Y422067D01*
X187043D02*
X204957D01*
Y413012D02*
Y422067D01*
X187043Y413012D02*
X204957D01*
X187043D02*
Y422067D01*
X357602Y172183D02*
X370398D01*
Y158798D02*
Y172183D01*
X357602Y158798D02*
X370398D01*
X357602D02*
Y172183D01*
X294602D02*
X307398D01*
Y158798D02*
Y172183D01*
X294602Y158798D02*
X307398D01*
X294602D02*
Y172183D01*
X231279Y172183D02*
X244075D01*
Y158798D02*
Y172183D01*
X231279Y158798D02*
X244075D01*
X231279D02*
Y172183D01*
X319617Y215831D02*
Y229610D01*
Y215831D02*
X334184D01*
Y229610D01*
X319617D02*
X334184D01*
X319617Y195220D02*
Y209000D01*
Y195220D02*
X334184D01*
Y209000D01*
X319617D02*
X334184D01*
X283358Y319227D02*
X312688D01*
Y297573D02*
Y319227D01*
X283358Y297573D02*
X312688D01*
X283358D02*
Y319227D01*
X370902Y310013D02*
Y324187D01*
X346098D02*
X370902D01*
X346098Y310013D02*
Y324187D01*
Y310013D02*
X370902D01*
X182268Y310622D02*
Y338378D01*
Y310622D02*
X215732D01*
Y338378D01*
X182268D02*
X215732D01*
X205024Y252476D02*
X257976D01*
Y199524D02*
Y252476D01*
X205024Y199524D02*
X257976D01*
X205024D02*
Y252476D01*
X217827Y379835D02*
Y409165D01*
X196173Y379835D02*
X217827D01*
X196173D02*
Y409165D01*
X217827D01*
X401173Y158294D02*
Y171679D01*
X372827D02*
X401173D01*
X372827Y158294D02*
Y171679D01*
Y158294D02*
X401173D01*
X338673D02*
Y171679D01*
X310327D02*
X338673D01*
X310327Y158294D02*
Y171679D01*
Y158294D02*
X338673D01*
X274673D02*
Y171679D01*
X246327D02*
X274673D01*
X246327Y158294D02*
Y171679D01*
Y158294D02*
X274673D01*
X266694Y313127D02*
X282914D01*
X266694D02*
Y321473D01*
X282914D01*
Y313127D02*
Y321473D01*
X322973Y300190D02*
Y316410D01*
X314627Y300190D02*
X322973D01*
X314627D02*
Y316410D01*
X322973D01*
X257290Y330027D02*
X273510D01*
X257290D02*
Y338373D01*
X273510D01*
Y330027D02*
Y338373D01*
X340895Y326590D02*
Y342692D01*
X332705Y326590D02*
X340895D01*
X332705D02*
Y342692D01*
X340895D01*
X331273Y326590D02*
Y342810D01*
X322927Y326590D02*
X331273D01*
X322927D02*
Y342810D01*
X331273D01*
X171405Y304949D02*
Y321051D01*
X179595D01*
Y304949D02*
Y321051D01*
X171405Y304949D02*
X179595D01*
Y327949D02*
Y344051D01*
X171405Y327949D02*
X179595D01*
X171405D02*
Y344051D01*
X179595D01*
X248008Y188795D02*
X264110D01*
Y180605D02*
Y188795D01*
X248008Y180605D02*
X264110D01*
X248008D02*
Y188795D01*
X203273Y203290D02*
Y219510D01*
X194927Y203290D02*
X203273D01*
X194927D02*
Y219510D01*
X203273D01*
X193694Y203349D02*
Y219451D01*
X185505Y203349D02*
X193694D01*
X185505D02*
Y219451D01*
X193694D01*
X185390Y222827D02*
X201610D01*
X185390D02*
Y231173D01*
X201610D01*
Y222827D02*
Y231173D01*
X205790Y190227D02*
X222010D01*
X205790D02*
Y198573D01*
X222010D01*
Y190227D02*
Y198573D01*
X247890Y197873D02*
X264110D01*
Y189527D02*
Y197873D01*
X247890Y189527D02*
X264110D01*
X247890D02*
Y197873D01*
X258827Y241390D02*
Y257610D01*
X267173D01*
Y241390D02*
Y257610D01*
X258827Y241390D02*
X267173D01*
X193327Y238390D02*
Y254610D01*
X201673D01*
Y238390D02*
Y254610D01*
X193327Y238390D02*
X201673D01*
X184020D02*
Y254610D01*
X192366D01*
Y238390D02*
Y254610D01*
X184020Y238390D02*
X192366D01*
X174713D02*
Y254610D01*
X183059D01*
Y238390D02*
Y254610D01*
X174713Y238390D02*
X183059D01*
X165405Y238449D02*
Y254551D01*
X173594D01*
Y238449D02*
Y254551D01*
X165405Y238449D02*
X173594D01*
X192173Y391390D02*
Y407610D01*
X183827Y391390D02*
X192173D01*
X183827D02*
Y407610D01*
X192173D01*
X209390Y421673D02*
X225610D01*
Y413327D02*
Y421673D01*
X209390Y413327D02*
X225610D01*
X209390D02*
Y421673D01*
X274772Y323905D02*
Y349495D01*
Y323905D02*
X321228D01*
X274772Y349495D02*
X321228D01*
Y323905D02*
Y349495D01*
M02*
