G04*
G04 #@! TF.GenerationSoftware,Altium Limited,Altium Designer,25.6.2 (33)*
G04*
G04 Layer_Color=8388736*
%FSLAX25Y25*%
%MOIN*%
G70*
G04*
G04 #@! TF.SameCoordinates,7502CC92-0913-4849-9877-68709095791D*
G04*
G04*
G04 #@! TF.FilePolarity,Negative*
G04*
G01*
G75*
%ADD44R,0.05131X0.03359*%
%ADD45R,0.07887X0.05131*%
%ADD46R,0.06804X0.03359*%
%ADD47R,0.06312X0.01981*%
%ADD48R,0.07965X0.04816*%
%ADD49R,0.07808X0.05013*%
%ADD50O,0.08083X0.03162*%
%ADD51R,0.05013X0.07808*%
%ADD52R,0.07887X0.05328*%
%ADD53R,0.05721X0.06902*%
%ADD54R,0.05524X0.08280*%
%ADD55R,0.05328X0.04934*%
%ADD56R,0.04934X0.07887*%
%ADD57R,0.05721X0.06706*%
%ADD58R,0.06706X0.05721*%
%ADD59R,0.05328X0.07887*%
%ADD60R,0.03064X0.03241*%
%ADD61R,0.06706X0.07099*%
%ADD62R,0.07099X0.06706*%
%ADD63R,0.08674X0.07887*%
%ADD64R,0.08674X0.13398*%
%ADD65R,0.08674X0.03359*%
%ADD66R,0.06607X0.01981*%
%ADD67R,0.01981X0.06607*%
%ADD68R,0.03359X0.06804*%
%ADD69R,0.13005X0.10249*%
%ADD70R,0.09855X0.07099*%
%ADD71R,0.04816X0.07965*%
%ADD72R,0.04934X0.07099*%
%ADD73C,0.07400*%
%ADD74C,0.05493*%
%ADD75C,0.04304*%
%ADD76C,0.11489*%
%ADD77R,0.11489X0.11489*%
%ADD78C,0.04461*%
%ADD79C,0.11961*%
%ADD80R,0.11489X0.11489*%
%ADD81C,0.06800*%
%ADD82C,0.03202*%
D44*
X331034Y181500D02*
D03*
X322766Y177720D02*
D03*
Y185280D02*
D03*
X331034Y222721D02*
D03*
X322766Y218941D02*
D03*
Y226500D02*
D03*
X331034Y202110D02*
D03*
X322766Y198331D02*
D03*
Y205890D02*
D03*
D45*
X339000Y302591D02*
D03*
X328700Y314009D02*
D03*
X339000D02*
D03*
X247600Y317309D02*
D03*
Y305891D02*
D03*
X257800Y322709D02*
D03*
Y311291D02*
D03*
X328700Y302591D02*
D03*
D46*
X308700Y310900D02*
D03*
Y315900D02*
D03*
Y300900D02*
D03*
X287346Y315900D02*
D03*
Y310900D02*
D03*
Y305900D02*
D03*
Y300900D02*
D03*
X308700Y305900D02*
D03*
D47*
X349839Y319069D02*
D03*
Y317100D02*
D03*
X367161Y313163D02*
D03*
Y315131D02*
D03*
Y317100D02*
D03*
Y319069D02*
D03*
Y321037D02*
D03*
X349839Y315131D02*
D03*
Y313163D02*
D03*
Y321037D02*
D03*
D48*
X318800Y313812D02*
D03*
X327100Y340212D02*
D03*
X318800Y302788D02*
D03*
X327100Y329188D02*
D03*
X199100Y216912D02*
D03*
Y205888D02*
D03*
X263000Y243988D02*
D03*
Y255012D02*
D03*
X197500Y240988D02*
D03*
Y252012D02*
D03*
X188193Y240988D02*
D03*
Y252012D02*
D03*
X178886Y240988D02*
D03*
Y252012D02*
D03*
X188000Y405012D02*
D03*
Y393988D02*
D03*
D49*
X336800Y339995D02*
D03*
Y329287D02*
D03*
X175500Y307646D02*
D03*
Y318354D02*
D03*
Y341354D02*
D03*
Y330646D02*
D03*
X189600Y216754D02*
D03*
Y206046D02*
D03*
X169500Y241146D02*
D03*
Y251854D02*
D03*
D50*
X316602Y339200D02*
D03*
Y344200D02*
D03*
Y334200D02*
D03*
Y329200D02*
D03*
X279398Y339200D02*
D03*
Y344200D02*
D03*
Y334200D02*
D03*
Y329200D02*
D03*
D51*
X270754Y343800D02*
D03*
X260046D02*
D03*
X250705Y184700D02*
D03*
X261413D02*
D03*
D52*
X381100Y301691D02*
D03*
Y313109D02*
D03*
D53*
X391709Y304100D02*
D03*
X405291D02*
D03*
D54*
X365204Y304200D02*
D03*
X353393D02*
D03*
D55*
X175594Y223646D02*
D03*
Y229354D02*
D03*
X162406Y223646D02*
D03*
Y229354D02*
D03*
D56*
X201095Y296000D02*
D03*
X212906D02*
D03*
X190094Y417539D02*
D03*
X201905D02*
D03*
D57*
X248791Y262000D02*
D03*
X235209D02*
D03*
X208209D02*
D03*
X221791D02*
D03*
X212709Y368000D02*
D03*
X226291D02*
D03*
X356191Y222500D02*
D03*
X342609D02*
D03*
X356191Y202000D02*
D03*
X342609D02*
D03*
X356191Y181500D02*
D03*
X342609D02*
D03*
D58*
X246000Y386209D02*
D03*
Y399791D02*
D03*
X228500D02*
D03*
Y386209D02*
D03*
D59*
X169791Y417539D02*
D03*
X181209D02*
D03*
D60*
X359323Y169231D02*
D03*
Y161750D02*
D03*
X368677Y165490D02*
D03*
X296323Y169231D02*
D03*
Y161750D02*
D03*
X305677Y165490D02*
D03*
X233000Y169231D02*
D03*
Y161750D02*
D03*
X242354Y165490D02*
D03*
D61*
X385290Y181500D02*
D03*
X371510D02*
D03*
X175610Y296000D02*
D03*
X189390D02*
D03*
X385290Y202000D02*
D03*
X371510D02*
D03*
X385290Y222500D02*
D03*
X371510D02*
D03*
D62*
X173500Y387221D02*
D03*
Y401000D02*
D03*
D63*
X480500Y109500D02*
D03*
Y219500D02*
D03*
X420500Y204461D02*
D03*
Y124539D02*
D03*
D64*
X210811Y324500D02*
D03*
D65*
X187189Y314500D02*
D03*
Y319500D02*
D03*
Y324500D02*
D03*
Y329500D02*
D03*
Y334500D02*
D03*
D66*
X208910Y240764D02*
D03*
Y238795D02*
D03*
Y236827D02*
D03*
Y234858D02*
D03*
Y232890D02*
D03*
Y230921D02*
D03*
Y228953D02*
D03*
Y226984D02*
D03*
Y225016D02*
D03*
Y223047D02*
D03*
Y221079D02*
D03*
Y219110D02*
D03*
Y217142D02*
D03*
Y215173D02*
D03*
Y213205D02*
D03*
Y211236D02*
D03*
X254090D02*
D03*
Y213205D02*
D03*
Y215173D02*
D03*
Y217142D02*
D03*
Y219110D02*
D03*
Y221079D02*
D03*
Y223047D02*
D03*
Y225016D02*
D03*
Y226984D02*
D03*
Y228953D02*
D03*
Y230921D02*
D03*
Y232890D02*
D03*
Y234858D02*
D03*
Y236827D02*
D03*
Y238795D02*
D03*
Y240764D02*
D03*
D67*
X216736Y203409D02*
D03*
X218705D02*
D03*
X220673D02*
D03*
X222642D02*
D03*
X224610D02*
D03*
X226579D02*
D03*
X228547D02*
D03*
X230516D02*
D03*
X232484D02*
D03*
X234453D02*
D03*
X236421D02*
D03*
X238390D02*
D03*
X240358D02*
D03*
X242327D02*
D03*
X244295D02*
D03*
X246264D02*
D03*
Y248590D02*
D03*
X244295D02*
D03*
X242327D02*
D03*
X240358D02*
D03*
X238390D02*
D03*
X236421D02*
D03*
X234453D02*
D03*
X232484D02*
D03*
X230516D02*
D03*
X228547D02*
D03*
X226579D02*
D03*
X224610D02*
D03*
X222642D02*
D03*
X220673D02*
D03*
X218705D02*
D03*
X216736D02*
D03*
D68*
X214500Y405177D02*
D03*
X209500D02*
D03*
X204500D02*
D03*
X199500D02*
D03*
Y383823D02*
D03*
X204500D02*
D03*
X209500D02*
D03*
X214500D02*
D03*
D69*
X207000Y394500D02*
D03*
D70*
X378339Y164987D02*
D03*
X395661D02*
D03*
X315839D02*
D03*
X333161D02*
D03*
X251839D02*
D03*
X269161D02*
D03*
D71*
X280316Y317300D02*
D03*
X269292D02*
D03*
X270912Y334200D02*
D03*
X259888D02*
D03*
X199012Y227000D02*
D03*
X187988D02*
D03*
X219412Y194400D02*
D03*
X208388D02*
D03*
X250488Y193700D02*
D03*
X261512D02*
D03*
X211988Y417500D02*
D03*
X223012D02*
D03*
D72*
X196807Y368000D02*
D03*
X185193D02*
D03*
D73*
X382000Y332100D02*
D03*
X485500Y256500D02*
D03*
Y366500D02*
D03*
X382000Y442100D02*
D03*
D74*
X468000Y411000D02*
D03*
X438472D02*
D03*
Y396000D02*
D03*
X468000D02*
D03*
X566027Y411000D02*
D03*
X536500D02*
D03*
Y396000D02*
D03*
X566027D02*
D03*
X536500Y329077D02*
D03*
X566028D02*
D03*
Y344077D02*
D03*
X536500D02*
D03*
X566028Y270423D02*
D03*
X536500D02*
D03*
Y255423D02*
D03*
X566028D02*
D03*
X536500Y188500D02*
D03*
X566027D02*
D03*
Y203500D02*
D03*
X536500D02*
D03*
D75*
X162567Y146543D02*
D03*
X146043Y216252D02*
D03*
Y431024D02*
D03*
D76*
X213591Y133157D02*
D03*
X198000D02*
D03*
X182409D02*
D03*
X132658Y165228D02*
D03*
Y180819D02*
D03*
Y196409D02*
D03*
Y380000D02*
D03*
Y395590D02*
D03*
Y411181D02*
D03*
D77*
X166819Y133157D02*
D03*
D78*
X145886Y339252D02*
D03*
Y279252D02*
D03*
X366252Y454201D02*
D03*
X375157Y146386D02*
D03*
X313248D02*
D03*
X458315Y454201D02*
D03*
X247748Y146386D02*
D03*
X511248Y146386D02*
D03*
X193342Y454201D02*
D03*
D79*
X132500Y319409D02*
D03*
Y335000D02*
D03*
Y259409D02*
D03*
Y275000D02*
D03*
X346409Y467587D02*
D03*
X362000D02*
D03*
X395000Y133000D02*
D03*
X379409D02*
D03*
X333091D02*
D03*
X317500D02*
D03*
X438472Y467587D02*
D03*
X454063D02*
D03*
X267591Y133000D02*
D03*
X252000D02*
D03*
X531090Y133000D02*
D03*
X515500D02*
D03*
X173500Y467587D02*
D03*
X189091D02*
D03*
D80*
X132658Y212000D02*
D03*
Y426772D02*
D03*
D81*
X122000Y479000D02*
D03*
X578000D02*
D03*
Y121000D02*
D03*
X122000D02*
D03*
D82*
X339336Y307537D02*
D03*
X340913Y319160D02*
D03*
X278469Y353384D02*
D03*
X286469Y321584D02*
D03*
X243400Y243200D02*
D03*
X211035Y397256D02*
D03*
X202866D02*
D03*
Y391843D02*
D03*
X211035D02*
D03*
X207000Y394500D02*
D03*
X263000Y260400D02*
D03*
X437500Y304000D02*
D03*
X253300Y276400D02*
D03*
X234500Y285300D02*
D03*
X328400Y307600D02*
D03*
X271900Y192200D02*
D03*
X193700Y200700D02*
D03*
X199700Y191100D02*
D03*
X189600D02*
D03*
X178800Y259800D02*
D03*
X188100D02*
D03*
X197400D02*
D03*
X169500D02*
D03*
X280904Y301000D02*
D03*
X253900Y343900D02*
D03*
Y334100D02*
D03*
X264504Y317300D02*
D03*
X400000Y240000D02*
D03*
X410000Y220000D02*
D03*
X400000Y200000D02*
D03*
X380000Y240000D02*
D03*
X350000Y220000D02*
D03*
Y180000D02*
D03*
X340000Y160000D02*
D03*
X310000Y220000D02*
D03*
X300000Y200000D02*
D03*
X280000Y240000D02*
D03*
Y200000D02*
D03*
Y160000D02*
D03*
X290000Y140000D02*
D03*
X260000Y480000D02*
D03*
X270000Y460000D02*
D03*
X260000Y440000D02*
D03*
X270000Y420000D02*
D03*
X260000Y400000D02*
D03*
X270000Y380000D02*
D03*
X260000Y360000D02*
D03*
Y280000D02*
D03*
X270000Y180000D02*
D03*
X260000Y160000D02*
D03*
X240000Y480000D02*
D03*
X250000Y460000D02*
D03*
X240000Y440000D02*
D03*
X250000Y420000D02*
D03*
Y380000D02*
D03*
X240000Y360000D02*
D03*
Y320000D02*
D03*
X220000Y480000D02*
D03*
X230000Y460000D02*
D03*
X220000Y440000D02*
D03*
X230000Y380000D02*
D03*
X220000Y360000D02*
D03*
X230000Y340000D02*
D03*
Y220000D02*
D03*
X220000Y160000D02*
D03*
X200000Y360000D02*
D03*
Y320000D02*
D03*
Y280000D02*
D03*
X210000Y180000D02*
D03*
X180000Y440000D02*
D03*
X190000Y380000D02*
D03*
X180000Y280000D02*
D03*
X190000Y180000D02*
D03*
X180000Y160000D02*
D03*
X160000Y440000D02*
D03*
Y400000D02*
D03*
X170000Y380000D02*
D03*
X160000Y360000D02*
D03*
Y240000D02*
D03*
Y200000D02*
D03*
X170000Y180000D02*
D03*
X140000Y480000D02*
D03*
X150000Y460000D02*
D03*
X140000Y360000D02*
D03*
X150000Y300000D02*
D03*
X140000Y240000D02*
D03*
Y120000D02*
D03*
X130000Y460000D02*
D03*
X120000Y360000D02*
D03*
X130000Y300000D02*
D03*
X120000Y240000D02*
D03*
X338200Y323300D02*
D03*
X221200Y308100D02*
D03*
X195678Y308078D02*
D03*
X209400Y341600D02*
D03*
X220100Y274400D02*
D03*
X233382Y255778D02*
D03*
X260027Y222427D02*
D03*
M02*
