G04*
G04 #@! TF.GenerationSoftware,Altium Limited,Altium Designer,25.6.2 (33)*
G04*
G04 Layer_Color=8421504*
%FSLAX25Y25*%
%MOIN*%
G70*
G04*
G04 #@! TF.SameCoordinates,7502CC92-0913-4849-9877-68709095791D*
G04*
G04*
G04 #@! TF.FilePolarity,Positive*
G04*
G01*
G75*
%ADD15R,0.04331X0.02559*%
%ADD16R,0.07087X0.04331*%
%ADD17R,0.06004X0.02559*%
%ADD18R,0.05512X0.01181*%
%ADD19R,0.07165X0.04016*%
%ADD20R,0.07008X0.04213*%
%ADD21O,0.07284X0.02362*%
%ADD22R,0.04213X0.07008*%
%ADD23R,0.07087X0.04528*%
%ADD24R,0.04921X0.06102*%
%ADD25R,0.04724X0.07480*%
%ADD26R,0.04528X0.04134*%
%ADD27R,0.04134X0.07087*%
%ADD28R,0.04921X0.05906*%
%ADD29R,0.05906X0.04921*%
%ADD30R,0.04528X0.07087*%
%ADD31R,0.02264X0.02441*%
%ADD32R,0.05906X0.06299*%
%ADD33R,0.06299X0.05906*%
%ADD34R,0.07874X0.07087*%
%ADD35R,0.07874X0.12598*%
%ADD36R,0.07874X0.02559*%
%ADD37R,0.05807X0.01181*%
%ADD38R,0.01181X0.05807*%
%ADD39R,0.02559X0.06004*%
%ADD40R,0.12205X0.09449*%
%ADD41R,0.09055X0.06299*%
%ADD42R,0.04016X0.07165*%
%ADD43R,0.04134X0.06299*%
D15*
X331034Y181500D02*
D03*
X322766Y177720D02*
D03*
Y185280D02*
D03*
X331034Y222721D02*
D03*
X322766Y218941D02*
D03*
Y226500D02*
D03*
X331034Y202110D02*
D03*
X322766Y198331D02*
D03*
Y205890D02*
D03*
D16*
X339000Y302591D02*
D03*
X328700Y314009D02*
D03*
X339000D02*
D03*
X247600Y317309D02*
D03*
Y305891D02*
D03*
X257800Y322709D02*
D03*
Y311291D02*
D03*
X328700Y302591D02*
D03*
D17*
X308700Y310900D02*
D03*
Y315900D02*
D03*
Y300900D02*
D03*
X287346Y315900D02*
D03*
Y310900D02*
D03*
Y305900D02*
D03*
Y300900D02*
D03*
X308700Y305900D02*
D03*
D18*
X349839Y319069D02*
D03*
Y317100D02*
D03*
X367161Y313163D02*
D03*
Y315131D02*
D03*
Y317100D02*
D03*
Y319069D02*
D03*
Y321037D02*
D03*
X349839Y315131D02*
D03*
Y313163D02*
D03*
Y321037D02*
D03*
D19*
X318800Y313812D02*
D03*
X327100Y340212D02*
D03*
X318800Y302788D02*
D03*
X327100Y329188D02*
D03*
X199100Y216912D02*
D03*
Y205888D02*
D03*
X263000Y243988D02*
D03*
Y255012D02*
D03*
X197500Y240988D02*
D03*
Y252012D02*
D03*
X188193Y240988D02*
D03*
Y252012D02*
D03*
X178886Y240988D02*
D03*
Y252012D02*
D03*
X188000Y405012D02*
D03*
Y393988D02*
D03*
D20*
X336800Y339995D02*
D03*
Y329287D02*
D03*
X175500Y307646D02*
D03*
Y318354D02*
D03*
Y341354D02*
D03*
Y330646D02*
D03*
X189600Y216754D02*
D03*
Y206046D02*
D03*
X169500Y241146D02*
D03*
Y251854D02*
D03*
D21*
X316602Y339200D02*
D03*
Y344200D02*
D03*
Y334200D02*
D03*
Y329200D02*
D03*
X279398Y339200D02*
D03*
Y344200D02*
D03*
Y334200D02*
D03*
Y329200D02*
D03*
D22*
X270754Y343800D02*
D03*
X260046D02*
D03*
X250705Y184700D02*
D03*
X261413D02*
D03*
D23*
X381100Y301691D02*
D03*
Y313109D02*
D03*
D24*
X391709Y304100D02*
D03*
X405291D02*
D03*
D25*
X365204Y304200D02*
D03*
X353393D02*
D03*
D26*
X175594Y223646D02*
D03*
Y229354D02*
D03*
X162406Y223646D02*
D03*
Y229354D02*
D03*
D27*
X201095Y296000D02*
D03*
X212906D02*
D03*
X190094Y417539D02*
D03*
X201905D02*
D03*
D28*
X248791Y262000D02*
D03*
X235209D02*
D03*
X208209D02*
D03*
X221791D02*
D03*
X212709Y368000D02*
D03*
X226291D02*
D03*
X356191Y222500D02*
D03*
X342609D02*
D03*
X356191Y202000D02*
D03*
X342609D02*
D03*
X356191Y181500D02*
D03*
X342609D02*
D03*
D29*
X246000Y386209D02*
D03*
Y399791D02*
D03*
X228500D02*
D03*
Y386209D02*
D03*
D30*
X169791Y417539D02*
D03*
X181209D02*
D03*
D31*
X359323Y169231D02*
D03*
Y161750D02*
D03*
X368677Y165490D02*
D03*
X296323Y169231D02*
D03*
Y161750D02*
D03*
X305677Y165490D02*
D03*
X233000Y169231D02*
D03*
Y161750D02*
D03*
X242354Y165490D02*
D03*
D32*
X385290Y181500D02*
D03*
X371510D02*
D03*
X175610Y296000D02*
D03*
X189390D02*
D03*
X385290Y202000D02*
D03*
X371510D02*
D03*
X385290Y222500D02*
D03*
X371510D02*
D03*
D33*
X173500Y387221D02*
D03*
Y401000D02*
D03*
D34*
X480500Y109500D02*
D03*
Y219500D02*
D03*
X420500Y204461D02*
D03*
Y124539D02*
D03*
D35*
X210811Y324500D02*
D03*
D36*
X187189Y314500D02*
D03*
Y319500D02*
D03*
Y324500D02*
D03*
Y329500D02*
D03*
Y334500D02*
D03*
D37*
X208910Y240764D02*
D03*
Y238795D02*
D03*
Y236827D02*
D03*
Y234858D02*
D03*
Y232890D02*
D03*
Y230921D02*
D03*
Y228953D02*
D03*
Y226984D02*
D03*
Y225016D02*
D03*
Y223047D02*
D03*
Y221079D02*
D03*
Y219110D02*
D03*
Y217142D02*
D03*
Y215173D02*
D03*
Y213205D02*
D03*
Y211236D02*
D03*
X254090D02*
D03*
Y213205D02*
D03*
Y215173D02*
D03*
Y217142D02*
D03*
Y219110D02*
D03*
Y221079D02*
D03*
Y223047D02*
D03*
Y225016D02*
D03*
Y226984D02*
D03*
Y228953D02*
D03*
Y230921D02*
D03*
Y232890D02*
D03*
Y234858D02*
D03*
Y236827D02*
D03*
Y238795D02*
D03*
Y240764D02*
D03*
D38*
X216736Y203409D02*
D03*
X218705D02*
D03*
X220673D02*
D03*
X222642D02*
D03*
X224610D02*
D03*
X226579D02*
D03*
X228547D02*
D03*
X230516D02*
D03*
X232484D02*
D03*
X234453D02*
D03*
X236421D02*
D03*
X238390D02*
D03*
X240358D02*
D03*
X242327D02*
D03*
X244295D02*
D03*
X246264D02*
D03*
Y248590D02*
D03*
X244295D02*
D03*
X242327D02*
D03*
X240358D02*
D03*
X238390D02*
D03*
X236421D02*
D03*
X234453D02*
D03*
X232484D02*
D03*
X230516D02*
D03*
X228547D02*
D03*
X226579D02*
D03*
X224610D02*
D03*
X222642D02*
D03*
X220673D02*
D03*
X218705D02*
D03*
X216736D02*
D03*
D39*
X214500Y405177D02*
D03*
X209500D02*
D03*
X204500D02*
D03*
X199500D02*
D03*
Y383823D02*
D03*
X204500D02*
D03*
X209500D02*
D03*
X214500D02*
D03*
D40*
X207000Y394500D02*
D03*
D41*
X378339Y164987D02*
D03*
X395661D02*
D03*
X315839D02*
D03*
X333161D02*
D03*
X251839D02*
D03*
X269161D02*
D03*
D42*
X280316Y317300D02*
D03*
X269292D02*
D03*
X270912Y334200D02*
D03*
X259888D02*
D03*
X199012Y227000D02*
D03*
X187988D02*
D03*
X219412Y194400D02*
D03*
X208388D02*
D03*
X250488Y193700D02*
D03*
X261512D02*
D03*
X211988Y417500D02*
D03*
X223012D02*
D03*
D43*
X196807Y368000D02*
D03*
X185193D02*
D03*
M02*
