G04*
G04 #@! TF.GenerationSoftware,Altium Limited,Altium Designer,25.6.2 (33)*
G04*
G04 Layer_Color=255*
%FSLAX25Y25*%
%MOIN*%
G70*
G04*
G04 #@! TF.SameCoordinates,7502CC92-0913-4849-9877-68709095791D*
G04*
G04*
G04 #@! TF.FilePolarity,Positive*
G04*
G01*
G75*
%ADD89C,0.06600*%
%ADD90C,0.04693*%
%ADD91C,0.03504*%
%ADD92C,0.10689*%
%ADD93R,0.10689X0.10689*%
%ADD94C,0.03661*%
%ADD95C,0.11161*%
%ADD96R,0.10689X0.10689*%
%ADD97C,0.06000*%
D89*
X382000Y332100D02*
D03*
X485500Y256500D02*
D03*
Y366500D02*
D03*
X382000Y442100D02*
D03*
D90*
X468000Y411000D02*
D03*
X438472D02*
D03*
Y396000D02*
D03*
X468000D02*
D03*
X566027Y411000D02*
D03*
X536500D02*
D03*
Y396000D02*
D03*
X566027D02*
D03*
X536500Y329077D02*
D03*
X566028D02*
D03*
Y344077D02*
D03*
X536500D02*
D03*
X566028Y270423D02*
D03*
X536500D02*
D03*
Y255423D02*
D03*
X566028D02*
D03*
X536500Y188500D02*
D03*
X566027D02*
D03*
Y203500D02*
D03*
X536500D02*
D03*
D91*
X162567Y146543D02*
D03*
X146043Y216252D02*
D03*
Y431024D02*
D03*
D92*
X213591Y133157D02*
D03*
X198000D02*
D03*
X182409D02*
D03*
X132658Y165228D02*
D03*
Y180819D02*
D03*
Y196409D02*
D03*
Y380000D02*
D03*
Y395590D02*
D03*
Y411181D02*
D03*
D93*
X166819Y133157D02*
D03*
D94*
X145886Y339252D02*
D03*
Y279252D02*
D03*
X366252Y454201D02*
D03*
X375157Y146386D02*
D03*
X313248D02*
D03*
X458315Y454201D02*
D03*
X247748Y146386D02*
D03*
X511248Y146386D02*
D03*
X193342Y454201D02*
D03*
D95*
X132500Y319409D02*
D03*
Y335000D02*
D03*
Y259409D02*
D03*
Y275000D02*
D03*
X346409Y467587D02*
D03*
X362000D02*
D03*
X395000Y133000D02*
D03*
X379409D02*
D03*
X333091D02*
D03*
X317500D02*
D03*
X438472Y467587D02*
D03*
X454063D02*
D03*
X267591Y133000D02*
D03*
X252000D02*
D03*
X531090Y133000D02*
D03*
X515500D02*
D03*
X173500Y467587D02*
D03*
X189091D02*
D03*
D96*
X132658Y212000D02*
D03*
Y426772D02*
D03*
D97*
X122000Y479000D02*
D03*
X578000D02*
D03*
Y121000D02*
D03*
X122000D02*
D03*
M02*
