G04*
G04 #@! TF.GenerationSoftware,Altium Limited,Altium Designer,25.6.2 (33)*
G04*
G04 Layer_Physical_Order=1*
G04 Layer_Color=255*
%FSLAX25Y25*%
%MOIN*%
G70*
G04*
G04 #@! TF.SameCoordinates,7502CC92-0913-4849-9877-68709095791D*
G04*
G04*
G04 #@! TF.FilePolarity,Positive*
G04*
G01*
G75*
%ADD15R,0.04331X0.02559*%
%ADD16R,0.07087X0.04331*%
%ADD17R,0.06004X0.02559*%
%ADD18R,0.05512X0.01181*%
%ADD19R,0.07165X0.04016*%
%ADD20R,0.07008X0.04213*%
%ADD21O,0.07284X0.02362*%
%ADD22R,0.04213X0.07008*%
%ADD23R,0.07087X0.04528*%
%ADD24R,0.04921X0.06102*%
%ADD25R,0.04724X0.07480*%
%ADD26R,0.04528X0.04134*%
%ADD27R,0.04134X0.07087*%
%ADD28R,0.04921X0.05906*%
%ADD29R,0.05906X0.04921*%
%ADD30R,0.04528X0.07087*%
%ADD31R,0.02264X0.02441*%
%ADD32R,0.05906X0.06299*%
%ADD33R,0.06299X0.05906*%
%ADD34R,0.07874X0.07087*%
%ADD35R,0.07874X0.12598*%
%ADD36R,0.07874X0.02559*%
%ADD37R,0.05807X0.01181*%
%ADD38R,0.01181X0.05807*%
%ADD39R,0.02559X0.06004*%
%ADD40R,0.12205X0.09449*%
%ADD41R,0.09055X0.06299*%
%ADD42R,0.04016X0.07165*%
%ADD43R,0.04134X0.06299*%
%ADD83C,0.01181*%
%ADD84C,0.01500*%
%ADD85C,0.01100*%
%ADD86C,0.03500*%
%ADD87C,0.02400*%
%ADD88C,0.10000*%
%ADD89C,0.06600*%
%ADD90C,0.04693*%
%ADD91C,0.03504*%
%ADD92C,0.10689*%
%ADD93R,0.10689X0.10689*%
%ADD94C,0.03661*%
%ADD95C,0.11161*%
%ADD96R,0.10689X0.10689*%
%ADD97C,0.06000*%
%ADD98C,0.02402*%
G36*
X382561Y446557D02*
X382593Y446332D01*
X382647Y446120D01*
X382722Y445920D01*
X382819Y445732D01*
X382937Y445555D01*
X383077Y445392D01*
X383238Y445239D01*
X383421Y445100D01*
X383626Y444972D01*
X380375D01*
X380579Y445100D01*
X380762Y445239D01*
X380923Y445392D01*
X381063Y445555D01*
X381181Y445732D01*
X381278Y445920D01*
X381353Y446120D01*
X381407Y446332D01*
X381439Y446557D01*
X381450Y446793D01*
X382550D01*
X382561Y446557D01*
D02*
G37*
G36*
X542000Y414000D02*
X542000Y394000D01*
X538000Y390000D01*
X468000D01*
X464000Y394000D01*
Y414000D01*
X468000Y418000D01*
X538000D01*
X542000Y414000D01*
D02*
G37*
G36*
X462000Y474000D02*
X462000Y462000D01*
X460000Y460000D01*
X452000D01*
X448000Y456000D01*
Y394000D01*
X444000Y390000D01*
X434000D01*
X430000Y394000D01*
Y474000D01*
X432000Y476000D01*
X460000Y476000D01*
X462000Y474000D01*
D02*
G37*
G36*
X319645Y345222D02*
X319791Y345165D01*
X319951Y345114D01*
X320125Y345071D01*
X320515Y345004D01*
X320730Y344980D01*
X321460Y344950D01*
Y343450D01*
X321203Y343447D01*
X320515Y343396D01*
X320313Y343366D01*
X319951Y343286D01*
X319791Y343235D01*
X319645Y343178D01*
X319513Y343115D01*
Y345285D01*
X319645Y345222D01*
D02*
G37*
G36*
X333308Y338603D02*
X333293Y338746D01*
X333248Y338874D01*
X333173Y338986D01*
X333068Y339084D01*
X332933Y339166D01*
X332768Y339233D01*
X332573Y339286D01*
X332348Y339323D01*
X332093Y339346D01*
X331989Y339349D01*
X331886Y339346D01*
X331631Y339323D01*
X331406Y339286D01*
X331211Y339233D01*
X331046Y339166D01*
X330911Y339084D01*
X330806Y338986D01*
X330731Y338874D01*
X330686Y338746D01*
X330671Y338603D01*
Y341603D01*
X330686Y341461D01*
X330731Y341334D01*
X330806Y341221D01*
X330911Y341124D01*
X331046Y341041D01*
X331211Y340973D01*
X331406Y340921D01*
X331631Y340883D01*
X331886Y340861D01*
X331989Y340858D01*
X332093Y340861D01*
X332348Y340883D01*
X332573Y340921D01*
X332768Y340973D01*
X332933Y341041D01*
X333068Y341124D01*
X333173Y341221D01*
X333248Y341334D01*
X333293Y341461D01*
X333308Y341603D01*
Y338603D01*
D02*
G37*
G36*
X271669Y338986D02*
X271692Y338731D01*
X271729Y338506D01*
X271782Y338311D01*
X271849Y338146D01*
X271932Y338011D01*
X272029Y337906D01*
X272142Y337831D01*
X272269Y337786D01*
X272412Y337771D01*
X269412D01*
X269554Y337786D01*
X269682Y337831D01*
X269794Y337906D01*
X269892Y338011D01*
X269974Y338146D01*
X270042Y338311D01*
X270094Y338506D01*
X270132Y338731D01*
X270154Y338986D01*
X270162Y339271D01*
X271662D01*
X271669Y338986D01*
D02*
G37*
G36*
X272172Y375500D02*
X272334Y372608D01*
X272819Y369753D01*
X273621Y366969D01*
X274730Y364294D01*
X276131Y361759D01*
X277807Y359397D01*
X279737Y357237D01*
X281896Y355307D01*
X284259Y353631D01*
X284260Y353630D01*
X284288Y353610D01*
X286823Y352209D01*
X289499Y351101D01*
X289924Y350978D01*
Y317967D01*
X283556D01*
Y317467D01*
X283111D01*
Y321670D01*
X280987D01*
X280977Y321673D01*
X280805Y321681D01*
X280670Y321701D01*
X280531Y321736D01*
X280387Y321787D01*
X280235Y321855D01*
X280077Y321942D01*
X279912Y322049D01*
X279742Y322177D01*
X279641Y322263D01*
X272479Y329424D01*
Y329461D01*
X272489Y329568D01*
X272515Y329724D01*
X272543Y329830D01*
X273707D01*
Y332632D01*
X275740D01*
X276169Y332346D01*
X276937Y332193D01*
X281858D01*
X282626Y332346D01*
X283278Y332781D01*
X283713Y333432D01*
X283865Y334200D01*
X283713Y334968D01*
X283278Y335619D01*
X282626Y336054D01*
X281858Y336207D01*
X276937D01*
X276169Y336054D01*
X275740Y335768D01*
X273707D01*
Y338293D01*
X274057Y338438D01*
X274238Y338257D01*
X274747Y337917D01*
X275347Y337797D01*
X275507D01*
X275518Y337781D01*
X276169Y337346D01*
X276937Y337193D01*
X281858D01*
X282626Y337346D01*
X283278Y337781D01*
X283713Y338432D01*
X283865Y339200D01*
X283713Y339968D01*
X283278Y340619D01*
X282626Y341054D01*
X281858Y341207D01*
X276937D01*
X276169Y341054D01*
X275992Y340936D01*
X274853Y342076D01*
X274344Y342415D01*
X273745Y342535D01*
X273648D01*
Y348091D01*
X267861D01*
Y339509D01*
X269344D01*
Y338939D01*
X269335Y338832D01*
X269309Y338676D01*
X269280Y338570D01*
X268116D01*
Y329830D01*
X269280D01*
X269309Y329724D01*
X269335Y329568D01*
X269344Y329461D01*
Y329424D01*
X265588Y325668D01*
X259191D01*
X259161Y325661D01*
X253469D01*
Y323551D01*
X253099Y323478D01*
X252590Y323138D01*
X250307Y320854D01*
X250206Y320768D01*
X250035Y320640D01*
X249870Y320533D01*
X249712Y320446D01*
X249560Y320378D01*
X249416Y320327D01*
X249277Y320293D01*
X249142Y320272D01*
X248970Y320264D01*
X248960Y320261D01*
X243269D01*
Y318681D01*
X243163Y318652D01*
X243007Y318626D01*
X242900Y318617D01*
X230149D01*
X229549Y318497D01*
X229041Y318158D01*
X220971Y310088D01*
X220805D01*
X220074Y309786D01*
X219514Y309226D01*
X219212Y308495D01*
Y307704D01*
X219514Y306974D01*
X220074Y306415D01*
X220805Y306112D01*
X221596D01*
X222326Y306415D01*
X222885Y306974D01*
X223188Y307704D01*
Y307871D01*
X230799Y315482D01*
X242900D01*
X243007Y315472D01*
X243163Y315446D01*
X243269Y315418D01*
Y314356D01*
X251931D01*
Y317291D01*
X251933Y317301D01*
X251942Y317473D01*
X251962Y317608D01*
X251997Y317747D01*
X252047Y317891D01*
X252115Y318043D01*
X252202Y318201D01*
X252309Y318365D01*
X252438Y318536D01*
X252523Y318637D01*
X253642Y319756D01*
X262131D01*
Y322468D01*
X262237Y322497D01*
X262393Y322523D01*
X262500Y322533D01*
X266237D01*
X266837Y322652D01*
X267345Y322992D01*
X270912Y326558D01*
X276928Y320542D01*
X277013Y320441D01*
X277142Y320270D01*
X277249Y320106D01*
X277336Y319947D01*
X277404Y319796D01*
X277454Y319651D01*
X277489Y319513D01*
X277509Y319378D01*
X277518Y319205D01*
X277520Y319196D01*
Y312930D01*
X283111D01*
Y314333D01*
X283556D01*
Y313833D01*
X289924D01*
Y312967D01*
X283556D01*
Y312270D01*
X283550Y312269D01*
X283489Y312264D01*
X262198D01*
X262137Y312269D01*
X262131Y312270D01*
Y314244D01*
X253469D01*
Y312270D01*
X253463Y312269D01*
X253402Y312264D01*
X241200D01*
X240678Y312160D01*
X240236Y311864D01*
X209896Y281524D01*
X209572Y281658D01*
Y291255D01*
X209839Y291457D01*
X209922Y291457D01*
X211906D01*
Y296000D01*
Y300543D01*
X209922D01*
X209839Y300543D01*
X209572Y300745D01*
Y307800D01*
X209468Y308322D01*
X209173Y308764D01*
X194973Y322964D01*
X194530Y323260D01*
X194009Y323364D01*
X192126D01*
Y323500D01*
X182252D01*
Y323364D01*
X164800D01*
X164278Y323260D01*
X163836Y322964D01*
X153035Y312164D01*
X129765D01*
X125364Y316565D01*
Y325935D01*
X129065Y329636D01*
X129484Y329357D01*
X130642Y328877D01*
X131873Y328632D01*
X133127D01*
X134358Y328877D01*
X135516Y329357D01*
X136559Y330053D01*
X137446Y330941D01*
X138143Y331983D01*
X138623Y333142D01*
X138868Y334373D01*
Y335627D01*
X138623Y336858D01*
X138143Y338016D01*
X137446Y339059D01*
X136559Y339946D01*
X135516Y340643D01*
X134358Y341123D01*
X133127Y341368D01*
X131873D01*
X130642Y341123D01*
X129484Y340643D01*
X128441Y339946D01*
X127554Y339059D01*
X126857Y338016D01*
X126377Y336858D01*
X126132Y335627D01*
Y334373D01*
X126377Y333142D01*
X126857Y331983D01*
X127136Y331565D01*
X123036Y327464D01*
X122740Y327022D01*
X122636Y326500D01*
Y316000D01*
X122740Y315478D01*
X123036Y315036D01*
X128236Y309836D01*
X128678Y309540D01*
X129200Y309436D01*
X153600D01*
X154122Y309540D01*
X154564Y309836D01*
X165365Y320636D01*
X170996D01*
Y319354D01*
X175500D01*
Y318354D01*
X176500D01*
Y315248D01*
X177562D01*
X177696Y314925D01*
X174536Y311764D01*
X174240Y311322D01*
X174136Y310800D01*
Y310566D01*
X174134Y310539D01*
X171209D01*
Y304752D01*
X174130D01*
X174131Y304746D01*
X174136Y304685D01*
Y300004D01*
X174131Y299943D01*
X174130Y299937D01*
X171870D01*
Y294465D01*
X171868Y294455D01*
X171862Y294339D01*
X171850Y294261D01*
X171830Y294179D01*
X171799Y294091D01*
X171756Y293996D01*
X171700Y293894D01*
X171630Y293786D01*
X171544Y293672D01*
X171491Y293609D01*
X161936Y284054D01*
X161640Y283612D01*
X161536Y283090D01*
Y246200D01*
X161640Y245678D01*
X161936Y245236D01*
X164830Y242342D01*
X164883Y242280D01*
X164969Y242165D01*
X165039Y242057D01*
X165095Y241955D01*
X165137Y241861D01*
X165168Y241773D01*
X165189Y241690D01*
X165200Y241612D01*
X165206Y241496D01*
X165209Y241487D01*
Y238252D01*
X173791D01*
Y239625D01*
X174516D01*
Y238193D01*
X183256D01*
Y239618D01*
X183262Y239619D01*
X183323Y239625D01*
X183756D01*
X183817Y239619D01*
X183823Y239618D01*
Y238193D01*
X192563D01*
Y239618D01*
X192569Y239619D01*
X192630Y239625D01*
X193063D01*
X193124Y239619D01*
X193130Y239618D01*
Y238193D01*
X201870D01*
Y239394D01*
X201876Y239395D01*
X201937Y239400D01*
X205219D01*
Y235449D01*
Y230316D01*
X204853D01*
X204331Y230213D01*
X203889Y229917D01*
X202335Y228364D01*
X201874D01*
X201813Y228369D01*
X201807Y228370D01*
Y231370D01*
X198621D01*
X198612Y231372D01*
X198496Y231378D01*
X198418Y231390D01*
X198335Y231411D01*
X198247Y231441D01*
X198152Y231484D01*
X198051Y231540D01*
X197943Y231610D01*
X197828Y231696D01*
X197766Y231749D01*
X194551Y234964D01*
X194108Y235260D01*
X193587Y235364D01*
X184500D01*
X183978Y235260D01*
X183536Y234964D01*
X179290Y230718D01*
X178713D01*
X178652Y230723D01*
X178646Y230724D01*
Y232209D01*
X172543D01*
Y230724D01*
X172537Y230723D01*
X172476Y230718D01*
X165524D01*
X165463Y230723D01*
X165457Y230724D01*
Y232209D01*
X162119D01*
X162114Y232210D01*
X162008Y232218D01*
X161939Y232232D01*
X161846Y232263D01*
X161729Y232315D01*
X161593Y232390D01*
X161439Y232490D01*
X161276Y232610D01*
X160939Y232899D01*
X137864Y255974D01*
X138143Y256393D01*
X138623Y257552D01*
X138868Y258782D01*
Y260037D01*
X138623Y261267D01*
X138143Y262426D01*
X137446Y263469D01*
X136559Y264356D01*
X135516Y265053D01*
X134358Y265533D01*
X133127Y265777D01*
X131873D01*
X130642Y265533D01*
X129484Y265053D01*
X128441Y264356D01*
X127554Y263469D01*
X126857Y262426D01*
X126377Y261267D01*
X126132Y260037D01*
Y258782D01*
X126377Y257552D01*
X126857Y256393D01*
X127554Y255350D01*
X128441Y254463D01*
X129484Y253766D01*
X130642Y253286D01*
X131873Y253041D01*
X133127D01*
X134358Y253286D01*
X135516Y253766D01*
X135935Y254046D01*
X158975Y231006D01*
X159028Y230943D01*
X159114Y230829D01*
X159185Y230721D01*
X159240Y230619D01*
X159283Y230524D01*
X159314Y230436D01*
X159334Y230354D01*
X159346Y230276D01*
X159352Y230160D01*
X159354Y230150D01*
Y226713D01*
X159142D01*
Y224646D01*
X165669D01*
Y226713D01*
X165457D01*
Y227984D01*
X165463Y227985D01*
X165524Y227991D01*
X172476D01*
X172537Y227985D01*
X172543Y227984D01*
Y226713D01*
X172331D01*
Y224646D01*
X178858D01*
Y226713D01*
X178646D01*
Y227984D01*
X178652Y227985D01*
X178713Y227991D01*
X179854D01*
X180376Y228095D01*
X180819Y228390D01*
X185065Y232636D01*
X193022D01*
X195837Y229821D01*
X195891Y229758D01*
X195976Y229644D01*
X196047Y229536D01*
X196102Y229434D01*
X196145Y229339D01*
X196176Y229251D01*
X196190Y229194D01*
Y228458D01*
X196216Y228326D01*
Y222630D01*
X201807D01*
Y225630D01*
X201813Y225631D01*
X201874Y225636D01*
X202900D01*
X203422Y225740D01*
X203864Y226036D01*
X204895Y227067D01*
X205219Y226933D01*
Y225606D01*
Y220701D01*
X205006D01*
Y220110D01*
X205218D01*
Y219701D01*
X208910D01*
Y218520D01*
X205218D01*
Y218389D01*
X205079Y218361D01*
X205006Y218312D01*
Y218312D01*
X204637Y218066D01*
X203935Y217364D01*
X203537D01*
X203476Y217369D01*
X203470Y217370D01*
Y219707D01*
X194730D01*
Y218375D01*
X193891D01*
Y219648D01*
X185309D01*
Y218224D01*
X185303Y218223D01*
X185241Y218218D01*
X168693D01*
X168171Y218114D01*
X167729Y217819D01*
X135922Y186012D01*
X135562Y186253D01*
X134446Y186715D01*
X133261Y186951D01*
X132053D01*
X130869Y186715D01*
X129753Y186253D01*
X128749Y185582D01*
X127894Y184728D01*
X127224Y183723D01*
X126761Y182607D01*
X126526Y181423D01*
Y180215D01*
X126761Y179030D01*
X127224Y177914D01*
X127894Y176910D01*
X128749Y176056D01*
X129753Y175385D01*
X130869Y174923D01*
X132053Y174687D01*
X133261D01*
X134446Y174923D01*
X135562Y175385D01*
X136566Y176056D01*
X137420Y176910D01*
X138092Y177914D01*
X138554Y179030D01*
X138789Y180215D01*
Y181423D01*
X138554Y182607D01*
X138092Y183723D01*
X137851Y184084D01*
X169258Y215491D01*
X185241D01*
X185302Y215485D01*
X185309Y215484D01*
Y213861D01*
X193891D01*
Y215648D01*
X194730D01*
Y214117D01*
X202653D01*
X202671Y214113D01*
X202688Y214117D01*
X203470D01*
Y214631D01*
X203473Y214631D01*
X203533Y214636D01*
X204500D01*
X204869Y214710D01*
X205219Y214483D01*
Y209858D01*
X212600D01*
Y211827D01*
Y215778D01*
X212642D01*
X213164Y215882D01*
X213606Y216178D01*
X220037Y222608D01*
X220332Y223051D01*
X220436Y223572D01*
Y238100D01*
X246200D01*
Y207587D01*
X246145Y207532D01*
X245886Y207313D01*
X245295D01*
Y207101D01*
X244886D01*
Y203409D01*
X243705D01*
Y206284D01*
X243708Y206301D01*
X243705Y206318D01*
X243708Y206335D01*
X243705Y206399D01*
Y207101D01*
X243665D01*
X243653Y207163D01*
X243623Y207313D01*
X243623D01*
X243587Y207495D01*
X243291Y207937D01*
X242191Y209037D01*
X241749Y209333D01*
X241227Y209437D01*
X221546D01*
X221025Y209333D01*
X220582Y209037D01*
X219709Y208164D01*
X219413Y207722D01*
X219332Y207313D01*
X219332D01*
X219309Y207200D01*
Y207101D01*
X219295D01*
Y206318D01*
X219292Y206301D01*
X219295Y206284D01*
Y203409D01*
X218114D01*
Y207101D01*
X217705D01*
Y207313D01*
X217114D01*
Y207100D01*
X215358D01*
Y199718D01*
X217114D01*
Y199506D01*
X219310D01*
Y198770D01*
X216617D01*
Y190030D01*
X222207D01*
Y198770D01*
X222037D01*
Y199718D01*
X223247D01*
Y188275D01*
X173274Y138303D01*
X172951Y138436D01*
Y139289D01*
X160687D01*
Y127025D01*
X172951D01*
Y134906D01*
X173169D01*
X173691Y135009D01*
X174133Y135305D01*
X225574Y186746D01*
X225870Y187188D01*
X225974Y187710D01*
Y199718D01*
X227184D01*
Y186712D01*
X181445Y140974D01*
X181150Y140531D01*
X181046Y140009D01*
Y139810D01*
X181023Y139655D01*
X180987Y139520D01*
X180942Y139408D01*
X180889Y139314D01*
X180826Y139233D01*
X180749Y139159D01*
X180654Y139090D01*
X180534Y139024D01*
X180347Y138947D01*
X180345Y138946D01*
X180343Y138946D01*
X180315Y138927D01*
X179505Y138591D01*
X178501Y137920D01*
X177647Y137066D01*
X176975Y136062D01*
X176513Y134946D01*
X176278Y133761D01*
Y132553D01*
X176513Y131369D01*
X176975Y130253D01*
X177647Y129248D01*
X178501Y128394D01*
X179505Y127723D01*
X180621Y127261D01*
X181806Y127025D01*
X183013D01*
X184198Y127261D01*
X185314Y127723D01*
X186318Y128394D01*
X187172Y129248D01*
X187844Y130253D01*
X188306Y131369D01*
X188541Y132553D01*
Y133761D01*
X188306Y134946D01*
X187844Y136062D01*
X187172Y137066D01*
X186318Y137920D01*
X185314Y138591D01*
X184504Y138927D01*
X184475Y138946D01*
X184474Y138946D01*
X184472Y138947D01*
X184285Y139024D01*
X184165Y139090D01*
X184070Y139160D01*
X184001Y139226D01*
X183854Y139525D01*
X229511Y185183D01*
X229807Y185625D01*
X229911Y186147D01*
Y199718D01*
X231121D01*
Y185449D01*
X197036Y151364D01*
X196740Y150922D01*
X196636Y150400D01*
Y139138D01*
X196211Y139054D01*
X195096Y138591D01*
X194091Y137920D01*
X193237Y137066D01*
X192566Y136062D01*
X192104Y134946D01*
X191868Y133761D01*
Y132553D01*
X192104Y131369D01*
X192566Y130253D01*
X193237Y129248D01*
X194091Y128394D01*
X195096Y127723D01*
X196211Y127261D01*
X197396Y127025D01*
X198604D01*
X199789Y127261D01*
X200904Y127723D01*
X201909Y128394D01*
X202763Y129248D01*
X203434Y130253D01*
X203896Y131369D01*
X204132Y132553D01*
Y133761D01*
X203896Y134946D01*
X203434Y136062D01*
X202763Y137066D01*
X201909Y137920D01*
X200904Y138591D01*
X199789Y139054D01*
X199364Y139138D01*
Y149835D01*
X233448Y183920D01*
X233744Y184362D01*
X233848Y184884D01*
Y199718D01*
X235058D01*
Y183695D01*
X212626Y161264D01*
X212331Y160822D01*
X212227Y160300D01*
Y139138D01*
X211802Y139054D01*
X210686Y138591D01*
X209682Y137920D01*
X208828Y137066D01*
X208156Y136062D01*
X207694Y134946D01*
X207459Y133761D01*
Y132553D01*
X207694Y131369D01*
X208156Y130253D01*
X208828Y129248D01*
X209682Y128394D01*
X210686Y127723D01*
X211802Y127261D01*
X212987Y127025D01*
X214194D01*
X215379Y127261D01*
X216495Y127723D01*
X217499Y128394D01*
X218354Y129248D01*
X219025Y130253D01*
X219487Y131369D01*
X219722Y132553D01*
Y133761D01*
X219487Y134946D01*
X219025Y136062D01*
X218354Y137066D01*
X217499Y137920D01*
X216495Y138591D01*
X215379Y139054D01*
X214954Y139138D01*
Y159735D01*
X237385Y182166D01*
X237681Y182609D01*
X237785Y183131D01*
Y199718D01*
X240984D01*
X241067Y199302D01*
X241363Y198860D01*
X241787Y198435D01*
X242230Y198139D01*
X242752Y198036D01*
X245699D01*
X247314Y196421D01*
X247367Y196358D01*
X247453Y196244D01*
X247523Y196136D01*
X247579Y196034D01*
X247621Y195939D01*
X247652Y195851D01*
X247673Y195769D01*
X247685Y195691D01*
X247691Y195575D01*
X247692Y195569D01*
X247691Y195564D01*
X247693Y195557D01*
Y189330D01*
X247783D01*
X247811Y188991D01*
X247811D01*
Y180409D01*
X252432D01*
X252566Y180085D01*
X243075Y170594D01*
X234986D01*
X234925Y170600D01*
X234919Y170601D01*
Y171239D01*
X231081D01*
Y167223D01*
X234919D01*
Y167861D01*
X234925Y167862D01*
X234986Y167867D01*
X243640D01*
X244162Y167971D01*
X244604Y168266D01*
X255664Y179326D01*
X255960Y179769D01*
X256064Y180291D01*
Y201200D01*
X255960Y201722D01*
X255664Y202164D01*
X251464Y206365D01*
Y209858D01*
X256965D01*
X256982Y209855D01*
X256993Y209857D01*
X257003Y209855D01*
X257125Y209858D01*
X257782D01*
Y209873D01*
X258899D01*
X289236Y179535D01*
Y168081D01*
X289340Y167560D01*
X289636Y167117D01*
X292363Y164390D01*
X292805Y164094D01*
X293327Y163991D01*
X293849D01*
X294191Y163971D01*
X294191Y163641D01*
Y162750D01*
X296323D01*
Y161750D01*
D01*
Y162750D01*
X298455D01*
Y163971D01*
X298796Y163991D01*
X298819D01*
X299341Y164094D01*
X299783Y164390D01*
X319309Y183916D01*
X319746D01*
X319807Y183911D01*
X319813Y183910D01*
Y183213D01*
X324636D01*
Y180000D01*
X323766D01*
Y177720D01*
Y175441D01*
X324636D01*
Y174700D01*
X324740Y174178D01*
X325036Y173736D01*
X329498Y169274D01*
X329353Y168924D01*
X327847D01*
Y161050D01*
X331791D01*
X331792Y161044D01*
X331798Y160982D01*
Y147056D01*
X331727Y146700D01*
Y139222D01*
X331233Y139123D01*
X330074Y138643D01*
X329031Y137946D01*
X328144Y137059D01*
X327447Y136016D01*
X326967Y134857D01*
X326722Y133627D01*
Y132373D01*
X326967Y131142D01*
X327447Y129984D01*
X328144Y128941D01*
X329031Y128054D01*
X330074Y127357D01*
X331233Y126877D01*
X332463Y126632D01*
X333718D01*
X334948Y126877D01*
X336107Y127357D01*
X337150Y128054D01*
X338037Y128941D01*
X338734Y129984D01*
X339214Y131142D01*
X339459Y132373D01*
Y133627D01*
X339214Y134857D01*
X338734Y136016D01*
X338037Y137059D01*
X337150Y137946D01*
X336107Y138643D01*
X334948Y139123D01*
X334454Y139222D01*
Y146415D01*
X334525Y146771D01*
Y160982D01*
X334530Y161044D01*
X334531Y161050D01*
X338476D01*
Y168715D01*
X357336D01*
X357397Y168710D01*
X357403Y168709D01*
Y167223D01*
X361242D01*
Y171238D01*
X358988D01*
X358838Y171338D01*
X358316Y171442D01*
X331186D01*
X327364Y175265D01*
Y185280D01*
X327260Y185801D01*
X326964Y186244D01*
X326522Y186539D01*
X326000Y186643D01*
X325766D01*
X325719Y186647D01*
Y187346D01*
X319813D01*
Y186650D01*
X319807Y186649D01*
X319746Y186643D01*
X318744D01*
X318222Y186539D01*
X317780Y186244D01*
X298254Y166718D01*
X293892D01*
X291964Y168646D01*
Y180100D01*
X291860Y180622D01*
X291564Y181064D01*
X260428Y212200D01*
X259986Y212496D01*
X259464Y212600D01*
X257782D01*
Y213810D01*
X285987D01*
X294959Y204838D01*
Y171306D01*
X294954Y171245D01*
X294953Y171238D01*
X294404D01*
Y167223D01*
X298242D01*
Y171238D01*
X297693D01*
X297692Y171245D01*
X297686Y171306D01*
Y204039D01*
X319813D01*
Y203823D01*
X320596D01*
X320613Y203819D01*
X320630Y203823D01*
X325719D01*
Y207957D01*
X319813D01*
Y206772D01*
X319807Y206771D01*
X319746Y206766D01*
X296888D01*
X287516Y216137D01*
X287074Y216433D01*
X286552Y216537D01*
X257782D01*
Y217747D01*
X286510D01*
X287032Y217850D01*
X287474Y218146D01*
X294465Y225136D01*
X319746D01*
X319807Y225131D01*
X319813Y225130D01*
Y224433D01*
X325719D01*
Y228567D01*
X319813D01*
Y227870D01*
X319807Y227869D01*
X319746Y227864D01*
X293900D01*
X293378Y227760D01*
X292936Y227464D01*
X285945Y220474D01*
X261352D01*
X261235Y220824D01*
X261712Y221301D01*
X262015Y222031D01*
Y222822D01*
X261712Y223553D01*
X261390Y223875D01*
Y234800D01*
X261287Y235322D01*
X260991Y235764D01*
X258964Y237791D01*
X258522Y238087D01*
X258000Y238190D01*
X257994D01*
Y238191D01*
X257782D01*
Y238205D01*
X256999D01*
X256982Y238208D01*
X256965Y238205D01*
X254090D01*
Y239386D01*
X257782D01*
Y239795D01*
X257994D01*
Y240252D01*
X258351Y240783D01*
X258761Y241193D01*
X267370D01*
Y246783D01*
X258630D01*
Y244604D01*
X258420Y244562D01*
X257978Y244266D01*
X256232Y242521D01*
X256170Y242468D01*
X256055Y242382D01*
X255947Y242312D01*
X255845Y242256D01*
X255751Y242213D01*
X255663Y242182D01*
X255606Y242168D01*
X254131D01*
X253999Y242142D01*
X251216D01*
X251199Y242145D01*
X251189Y242143D01*
X251178Y242145D01*
X251056Y242142D01*
X250400D01*
Y242127D01*
X248864D01*
X248342Y242024D01*
X247900Y241728D01*
X246999Y240827D01*
X219874D01*
X218100Y242601D01*
Y244687D01*
X220295D01*
Y244900D01*
X223020D01*
Y244687D01*
X223610D01*
Y244899D01*
X224020D01*
Y248591D01*
X225201D01*
Y244899D01*
X225610D01*
Y244687D01*
X226201D01*
Y244900D01*
X241793D01*
X241938Y244550D01*
X241715Y244326D01*
X241412Y243596D01*
Y242805D01*
X241715Y242074D01*
X242274Y241514D01*
X243004Y241212D01*
X243795D01*
X244526Y241514D01*
X245086Y242074D01*
X245087Y242078D01*
X245142D01*
X245663Y242182D01*
X246106Y242477D01*
X247187Y243559D01*
X247483Y244001D01*
X247587Y244523D01*
Y244900D01*
X247642D01*
Y245627D01*
X247642Y245628D01*
X247642Y245631D01*
Y245682D01*
X247645Y245699D01*
X247642Y245716D01*
Y252281D01*
X241722D01*
Y267142D01*
X241618Y267664D01*
X241322Y268106D01*
X234064Y275364D01*
X233622Y275660D01*
X233100Y275764D01*
X221548D01*
X221226Y276085D01*
X220496Y276388D01*
X219705D01*
X218974Y276085D01*
X218414Y275526D01*
X218112Y274796D01*
Y274005D01*
X218414Y273274D01*
X218974Y272714D01*
X219705Y272412D01*
X220496D01*
X221226Y272714D01*
X221548Y273036D01*
X232535D01*
X238995Y266577D01*
Y252281D01*
X235816D01*
Y254366D01*
X235713Y254887D01*
X235417Y255330D01*
X235369Y255378D01*
X235370Y255382D01*
Y256173D01*
X235068Y256904D01*
X234508Y257463D01*
X233778Y257766D01*
X232987D01*
X232256Y257463D01*
X231697Y256904D01*
X231394Y256173D01*
Y255382D01*
X231697Y254651D01*
X232256Y254092D01*
X232987Y253789D01*
X233089D01*
Y252281D01*
X229911D01*
Y259582D01*
X230965Y260636D01*
X231893D01*
X231955Y260631D01*
X231961Y260630D01*
Y258260D01*
X238457D01*
Y265740D01*
X231961D01*
Y263370D01*
X231955Y263369D01*
X231893Y263364D01*
X230400D01*
X229878Y263260D01*
X229436Y262964D01*
X228143Y261671D01*
X227711Y261734D01*
X227543Y261985D01*
X226564Y262964D01*
X226122Y263260D01*
X225600Y263364D01*
X225039D01*
Y265740D01*
X218543D01*
Y258260D01*
X225039D01*
X225215Y257983D01*
Y252494D01*
X223020D01*
Y252281D01*
X220295D01*
Y252494D01*
X219705D01*
Y252282D01*
X219295D01*
Y248591D01*
X218114D01*
Y252282D01*
X217705D01*
Y252494D01*
X217114D01*
Y252281D01*
X215358D01*
Y245716D01*
X215355Y245699D01*
X215357Y245689D01*
X215355Y245678D01*
X215358Y245556D01*
Y244900D01*
X215373D01*
Y242601D01*
X214898Y242127D01*
X212600D01*
Y242142D01*
X211860D01*
X211853Y242144D01*
X211840Y242142D01*
X211818D01*
X211801Y242145D01*
X211784Y242142D01*
X206035D01*
X206018Y242145D01*
X206008Y242143D01*
X205997Y242145D01*
X205875Y242142D01*
X205219D01*
Y242127D01*
X201937D01*
X201876Y242133D01*
X201870Y242134D01*
Y243783D01*
X193130D01*
Y242358D01*
X193124Y242357D01*
X193063Y242352D01*
X192630D01*
X192569Y242357D01*
X192563Y242358D01*
Y243783D01*
X183823D01*
Y242358D01*
X183817Y242357D01*
X183756Y242352D01*
X183323D01*
X183262Y242357D01*
X183256Y242358D01*
Y243783D01*
X174516D01*
Y242352D01*
X173791D01*
Y244039D01*
X168075D01*
X167944Y244065D01*
X167237D01*
X167179Y244080D01*
X167091Y244111D01*
X166997Y244153D01*
X166895Y244209D01*
X166787Y244280D01*
X166673Y244365D01*
X166610Y244418D01*
X164264Y246765D01*
Y282525D01*
X173423Y291684D01*
X173485Y291737D01*
X173599Y291823D01*
X173708Y291893D01*
X173809Y291949D01*
X173904Y291992D01*
X173992Y292022D01*
X174074Y292043D01*
X174152Y292055D01*
X174268Y292061D01*
X174278Y292063D01*
X179350D01*
Y299937D01*
X176870D01*
X176869Y299943D01*
X176864Y300004D01*
Y304685D01*
X176869Y304746D01*
X176870Y304752D01*
X179791D01*
Y310539D01*
X177625D01*
X177491Y310863D01*
X179765Y313136D01*
X182397D01*
X182458Y313131D01*
X182465Y313130D01*
Y312433D01*
X189206D01*
X189207Y312427D01*
X189212Y312366D01*
Y310624D01*
X189316Y310102D01*
X189612Y309660D01*
X191917Y307355D01*
X192359Y307059D01*
X192881Y306956D01*
X193990D01*
X193992Y306951D01*
X194551Y306392D01*
X195282Y306089D01*
X196073D01*
X196804Y306392D01*
X197363Y306951D01*
X197666Y307682D01*
Y308473D01*
X197363Y309204D01*
X196804Y309763D01*
X196073Y310066D01*
X195282D01*
X194551Y309763D01*
X194471Y309683D01*
X193446D01*
X191940Y311189D01*
Y313771D01*
X191913Y313902D01*
Y316567D01*
X188553D01*
Y317433D01*
X191913D01*
Y320636D01*
X193444D01*
X206845Y307235D01*
Y277909D01*
Y265807D01*
X206840Y265746D01*
X206839Y265740D01*
X204961D01*
Y258260D01*
X211457D01*
Y265740D01*
X209579D01*
X209578Y265746D01*
X209572Y265807D01*
Y277344D01*
X241765Y309536D01*
X253402D01*
X253463Y309531D01*
X253469Y309530D01*
Y308339D01*
X262131D01*
Y309530D01*
X262137Y309531D01*
X262198Y309536D01*
X283489D01*
X283550Y309531D01*
X283556Y309530D01*
Y308833D01*
X289924D01*
Y307967D01*
X284373D01*
X284356Y307970D01*
X284338Y307967D01*
X283556D01*
Y307497D01*
X283512Y307489D01*
X283215Y307463D01*
X252300D01*
X252193Y307473D01*
X252037Y307499D01*
X251931Y307527D01*
Y308844D01*
X243269D01*
Y302939D01*
X247160D01*
X247188Y302832D01*
X247214Y302677D01*
X247224Y302569D01*
Y275250D01*
X246901Y275116D01*
X236488Y285529D01*
Y285696D01*
X236186Y286426D01*
X235626Y286985D01*
X234895Y287288D01*
X234104D01*
X233374Y286985D01*
X232815Y286426D01*
X232512Y285696D01*
Y284905D01*
X232815Y284174D01*
X233374Y283614D01*
X234104Y283312D01*
X234271D01*
X247224Y270359D01*
Y266110D01*
X247214Y266002D01*
X247188Y265846D01*
X247160Y265740D01*
X245543D01*
Y258260D01*
X252039D01*
Y265740D01*
X250423D01*
X250394Y265846D01*
X250368Y266002D01*
X250359Y266110D01*
Y271009D01*
Y302569D01*
X250368Y302677D01*
X250394Y302832D01*
X250423Y302939D01*
X251931D01*
Y304264D01*
X252037Y304293D01*
X252193Y304319D01*
X252300Y304328D01*
X283275D01*
X283326Y304325D01*
X283502Y304305D01*
X283556Y304295D01*
Y303833D01*
X284338D01*
X284356Y303830D01*
X284373Y303833D01*
X289924D01*
Y303180D01*
X288346D01*
Y300900D01*
Y298621D01*
X289924D01*
Y295609D01*
X289470Y295479D01*
X286794Y294370D01*
X284259Y292969D01*
X281896Y291293D01*
X279737Y289363D01*
X277807Y287204D01*
X276131Y284841D01*
X274730Y282306D01*
X273621Y279630D01*
X272819Y276847D01*
X272334Y273992D01*
X272172Y271100D01*
X272334Y268208D01*
X272819Y265353D01*
X273621Y262569D01*
X274730Y259894D01*
X276131Y257359D01*
X277807Y254996D01*
X279737Y252837D01*
X281896Y250907D01*
X284259Y249231D01*
X284260Y249230D01*
X284288Y249210D01*
X286823Y247809D01*
X289499Y246701D01*
X292282Y245899D01*
X295137Y245414D01*
X298029Y245252D01*
X409222D01*
X424672Y229802D01*
Y208791D01*
X415776D01*
Y200130D01*
X416925D01*
X417154Y200106D01*
X417268Y200066D01*
X417369Y199999D01*
X417477Y199882D01*
X417594Y199691D01*
X417708Y199412D01*
X417807Y199044D01*
X417883Y198588D01*
X417913Y198249D01*
Y190897D01*
X398594Y171578D01*
X397421Y170572D01*
X396808Y170122D01*
X396221Y169742D01*
X395669Y169438D01*
X395154Y169207D01*
X394679Y169049D01*
X394245Y168958D01*
X393791Y168925D01*
X393786Y168924D01*
X390347D01*
Y161050D01*
X391756D01*
X391985Y161026D01*
X392099Y160985D01*
X392199Y160918D01*
X392308Y160802D01*
X392425Y160610D01*
X392539Y160332D01*
X392638Y159963D01*
X392714Y159508D01*
X392744Y159169D01*
Y138958D01*
X391984Y138643D01*
X390941Y137946D01*
X390054Y137059D01*
X389357Y136016D01*
X388877Y134857D01*
X388632Y133627D01*
Y132373D01*
X388877Y131142D01*
X389357Y129984D01*
X390054Y128941D01*
X390941Y128054D01*
X391984Y127357D01*
X393143Y126877D01*
X394373Y126632D01*
X395627D01*
X396858Y126877D01*
X398016Y127357D01*
X399059Y128054D01*
X399946Y128941D01*
X400643Y129984D01*
X401123Y131142D01*
X401368Y132373D01*
Y133627D01*
X401123Y134857D01*
X400643Y136016D01*
X399946Y137059D01*
X399059Y137946D01*
X398016Y138643D01*
X397918Y138684D01*
Y159169D01*
X397948Y159508D01*
X398024Y159963D01*
X398123Y160332D01*
X398237Y160610D01*
X398354Y160802D01*
X398462Y160918D01*
X398563Y160985D01*
X398676Y161026D01*
X398905Y161050D01*
X400976D01*
Y164503D01*
X400979Y164512D01*
X401002Y164968D01*
X401064Y165385D01*
X401170Y165807D01*
X401319Y166235D01*
X401515Y166669D01*
X401757Y167110D01*
X402048Y167557D01*
X402388Y168011D01*
X402638Y168304D01*
X422329Y187996D01*
X422890Y188835D01*
X423087Y189825D01*
Y198249D01*
X423117Y198588D01*
X423193Y199044D01*
X423292Y199412D01*
X423406Y199691D01*
X423523Y199882D01*
X423631Y199999D01*
X423732Y200066D01*
X423846Y200106D01*
X424075Y200130D01*
X424672D01*
Y128870D01*
X415776D01*
Y126475D01*
X415763Y126350D01*
X415755Y126330D01*
X415743Y126312D01*
X415704Y126275D01*
X415611Y126219D01*
X415454Y126154D01*
X415228Y126093D01*
X414937Y126045D01*
X414726Y126026D01*
X389249D01*
X385123Y130152D01*
X385533Y131142D01*
X385778Y132373D01*
Y133627D01*
X385533Y134857D01*
X385053Y136016D01*
X384356Y137059D01*
X383469Y137946D01*
X382426Y138643D01*
X381267Y139123D01*
X380037Y139368D01*
X378782D01*
X377552Y139123D01*
X376562Y138713D01*
X373381Y141894D01*
X373563Y142207D01*
X374572Y141937D01*
X375743D01*
X376875Y142240D01*
X377889Y142826D01*
X378717Y143654D01*
X379303Y144669D01*
X379606Y145800D01*
Y146971D01*
X379303Y148103D01*
X378717Y149118D01*
X377889Y149946D01*
X376875Y150531D01*
X375743Y150835D01*
X374572D01*
X373440Y150531D01*
X372426Y149946D01*
X371598Y149118D01*
X371054Y148175D01*
X370704Y148239D01*
Y163444D01*
X371974D01*
X372185Y163425D01*
X372476Y163377D01*
X372702Y163316D01*
X372859Y163251D01*
X372952Y163195D01*
X372991Y163158D01*
X373003Y163140D01*
X373010Y163120D01*
X373024Y162995D01*
Y161050D01*
X383653D01*
Y168924D01*
X373024D01*
Y167945D01*
X373010Y167820D01*
X373003Y167800D01*
X372991Y167782D01*
X372952Y167745D01*
X372859Y167689D01*
X372702Y167624D01*
X372476Y167563D01*
X372185Y167515D01*
X371974Y167496D01*
X370597D01*
Y167498D01*
X369814D01*
X369797Y167502D01*
X369780Y167498D01*
X368771D01*
X368677Y167517D01*
X368584Y167498D01*
X366758D01*
Y166028D01*
X366651Y165490D01*
Y143732D01*
X366805Y142957D01*
X367244Y142299D01*
X373696Y135848D01*
X373286Y134857D01*
X373041Y133627D01*
Y132373D01*
X373286Y131142D01*
X373766Y129984D01*
X374463Y128941D01*
X375350Y128054D01*
X376393Y127357D01*
X377552Y126877D01*
X378782Y126632D01*
X380037D01*
X381267Y126877D01*
X382257Y127287D01*
X386977Y122567D01*
X387634Y122128D01*
X388409Y121974D01*
X414726D01*
X414937Y121955D01*
X415228Y121906D01*
X415454Y121846D01*
X415611Y121781D01*
X415704Y121725D01*
X415743Y121688D01*
X415755Y121670D01*
X415763Y121650D01*
X415776Y121525D01*
Y120209D01*
X424672D01*
Y101204D01*
X133340D01*
X130035Y101530D01*
X126778Y102178D01*
X123601Y103141D01*
X120533Y104412D01*
X117604Y105977D01*
X114844Y107822D01*
X112277Y109929D01*
X109929Y112277D01*
X107822Y114844D01*
X105977Y117604D01*
X104412Y120533D01*
X103141Y123601D01*
X102178Y126778D01*
X101530Y130035D01*
X101204Y133340D01*
Y135000D01*
Y465000D01*
Y466660D01*
X101530Y469965D01*
X102178Y473222D01*
X103141Y476399D01*
X104412Y479467D01*
X105977Y482396D01*
X107822Y485156D01*
X109929Y487723D01*
X112277Y490071D01*
X114843Y492178D01*
X117604Y494023D01*
X120533Y495588D01*
X123601Y496859D01*
X126778Y497823D01*
X130035Y498470D01*
X133340Y498796D01*
X272172D01*
Y375500D01*
D02*
G37*
G36*
X315088Y338025D02*
X314876Y338015D01*
X314664Y337983D01*
X314453Y337931D01*
X314241Y337857D01*
X314030Y337763D01*
X313819Y337647D01*
X313608Y337510D01*
X313398Y337353D01*
X313187Y337174D01*
X312977Y336975D01*
X311916Y338035D01*
X312096Y338220D01*
X312547Y338742D01*
X312668Y338906D01*
X312867Y339218D01*
X312945Y339367D01*
X313008Y339511D01*
X313056Y339650D01*
X315088Y338025D01*
D02*
G37*
G36*
X317960Y333010D02*
X317832Y332965D01*
X317720Y332890D01*
X317622Y332785D01*
X317540Y332650D01*
X317472Y332485D01*
X317420Y332290D01*
X317382Y332065D01*
X317360Y331810D01*
X317357Y331700D01*
X317360Y331590D01*
X317382Y331335D01*
X317420Y331110D01*
X317472Y330915D01*
X317540Y330750D01*
X317622Y330615D01*
X317720Y330510D01*
X317832Y330435D01*
X317960Y330390D01*
X318102Y330375D01*
X315102D01*
X315245Y330390D01*
X315372Y330435D01*
X315485Y330510D01*
X315582Y330615D01*
X315665Y330750D01*
X315732Y330915D01*
X315785Y331110D01*
X315822Y331335D01*
X315845Y331590D01*
X315848Y331700D01*
X315845Y331810D01*
X315822Y332065D01*
X315785Y332290D01*
X315732Y332485D01*
X315665Y332650D01*
X315582Y332785D01*
X315485Y332890D01*
X315372Y332965D01*
X315245Y333010D01*
X315102Y333025D01*
X318102D01*
X317960Y333010D01*
D02*
G37*
G36*
X333308Y327737D02*
X333293Y327880D01*
X333248Y328007D01*
X333173Y328120D01*
X333068Y328217D01*
X332933Y328300D01*
X332768Y328367D01*
X332573Y328420D01*
X332348Y328457D01*
X332093Y328480D01*
X331989Y328483D01*
X331886Y328480D01*
X331631Y328457D01*
X331406Y328420D01*
X331211Y328367D01*
X331046Y328300D01*
X330911Y328217D01*
X330806Y328120D01*
X330731Y328007D01*
X330686Y327880D01*
X330671Y327737D01*
Y330737D01*
X330686Y330595D01*
X330731Y330467D01*
X330806Y330355D01*
X330911Y330257D01*
X331046Y330175D01*
X331211Y330107D01*
X331406Y330055D01*
X331631Y330017D01*
X331886Y329995D01*
X331989Y329992D01*
X332093Y329995D01*
X332348Y330017D01*
X332573Y330055D01*
X332768Y330107D01*
X332933Y330175D01*
X333068Y330257D01*
X333173Y330355D01*
X333248Y330467D01*
X333293Y330595D01*
X333308Y330737D01*
Y327737D01*
D02*
G37*
G36*
X272269Y330614D02*
X272142Y330569D01*
X272029Y330494D01*
X271932Y330389D01*
X271849Y330254D01*
X271782Y330089D01*
X271729Y329894D01*
X271692Y329669D01*
X271669Y329414D01*
X271662Y329129D01*
X270162D01*
X270154Y329414D01*
X270132Y329669D01*
X270094Y329894D01*
X270042Y330089D01*
X269974Y330254D01*
X269892Y330389D01*
X269794Y330494D01*
X269682Y330569D01*
X269554Y330614D01*
X269412Y330629D01*
X272412D01*
X272269Y330614D01*
D02*
G37*
G36*
X261346Y324860D02*
X261391Y324858D01*
X262831Y324850D01*
Y323350D01*
X262546Y323342D01*
X262291Y323320D01*
X262066Y323283D01*
X261871Y323230D01*
X261706Y323163D01*
X261571Y323080D01*
X261466Y322983D01*
X261391Y322870D01*
X261346Y322743D01*
X261331Y322600D01*
Y324862D01*
X261346Y324860D01*
D02*
G37*
G36*
X347581Y322292D02*
X347748Y322150D01*
X347915Y322025D01*
X348082Y321916D01*
X348249Y321824D01*
X348416Y321749D01*
X348583Y321691D01*
X348750Y321649D01*
X348917Y321624D01*
X349084Y321616D01*
X347095Y320459D01*
X347086Y320589D01*
X347061Y320723D01*
X347020Y320860D01*
X346961Y321002D01*
X346886Y321148D01*
X346794Y321297D01*
X346685Y321451D01*
X346560Y321608D01*
X346259Y321935D01*
X347414Y322451D01*
X347581Y322292D01*
D02*
G37*
G36*
X367758Y320604D02*
X367771Y320459D01*
X368342D01*
X368230Y320447D01*
X368130Y320411D01*
X368041Y320352D01*
X367965Y320269D01*
X367900Y320163D01*
X367854Y320053D01*
X367900Y319942D01*
X367965Y319836D01*
X368041Y319753D01*
X368130Y319694D01*
X368230Y319659D01*
X368342Y319647D01*
X367771D01*
X367758Y319502D01*
X367752Y319277D01*
X366571D01*
X366565Y319502D01*
X366552Y319647D01*
X365980D01*
X366092Y319659D01*
X366193Y319694D01*
X366282Y319753D01*
X366358Y319836D01*
X366423Y319942D01*
X366468Y320053D01*
X366423Y320163D01*
X366358Y320269D01*
X366282Y320352D01*
X366193Y320411D01*
X366092Y320447D01*
X365980Y320459D01*
X366552D01*
X366565Y320604D01*
X366571Y320828D01*
X367752D01*
X367758Y320604D01*
D02*
G37*
G36*
X279028Y321730D02*
X279240Y321550D01*
X279452Y321390D01*
X279664Y321252D01*
X279877Y321136D01*
X280089Y321040D01*
X280301Y320966D01*
X280513Y320913D01*
X280725Y320881D01*
X280937Y320871D01*
X278320Y319245D01*
X278309Y319458D01*
X278277Y319670D01*
X278224Y319882D01*
X278150Y320094D01*
X278055Y320306D01*
X277938Y320518D01*
X277800Y320730D01*
X277641Y320942D01*
X277461Y321155D01*
X277259Y321367D01*
X278816Y321931D01*
X279028Y321730D01*
D02*
G37*
G36*
X252192Y319462D02*
X251990Y319250D01*
X251810Y319038D01*
X251651Y318826D01*
X251513Y318614D01*
X251396Y318401D01*
X251301Y318189D01*
X251227Y317977D01*
X251174Y317765D01*
X251142Y317553D01*
X251131Y317341D01*
X249010Y319462D01*
X249222Y319473D01*
X249434Y319504D01*
X249646Y319557D01*
X249858Y319632D01*
X250071Y319727D01*
X250283Y319844D01*
X250495Y319982D01*
X250707Y320141D01*
X250919Y320321D01*
X251131Y320523D01*
X252192Y319462D01*
D02*
G37*
G36*
X309457Y318383D02*
X309480Y318127D01*
X309518Y317902D01*
X309570Y317707D01*
X309637Y317543D01*
X309720Y317407D01*
X309818Y317302D01*
X309930Y317228D01*
X310057Y317182D01*
X310200Y317167D01*
X307200D01*
X307343Y317182D01*
X307470Y317228D01*
X307582Y317302D01*
X307680Y317407D01*
X307763Y317543D01*
X307830Y317707D01*
X307882Y317902D01*
X307920Y318127D01*
X307943Y318383D01*
X307950Y318668D01*
X309450D01*
X309457Y318383D01*
D02*
G37*
G36*
X244069Y315549D02*
X244054Y315692D01*
X244009Y315819D01*
X243934Y315932D01*
X243829Y316029D01*
X243694Y316112D01*
X243529Y316179D01*
X243334Y316232D01*
X243109Y316269D01*
X242854Y316292D01*
X242569Y316299D01*
Y317799D01*
X242854Y317807D01*
X243109Y317829D01*
X243334Y317867D01*
X243529Y317919D01*
X243694Y317987D01*
X243829Y318069D01*
X243934Y318167D01*
X244009Y318279D01*
X244054Y318407D01*
X244069Y318549D01*
Y315549D01*
D02*
G37*
G36*
X325169Y312410D02*
X325154Y312553D01*
X325109Y312680D01*
X325034Y312793D01*
X324929Y312890D01*
X324794Y312973D01*
X324629Y313040D01*
X324434Y313093D01*
X324209Y313130D01*
X323954Y313153D01*
X323770Y313158D01*
X323586Y313153D01*
X323331Y313130D01*
X323106Y313093D01*
X322911Y313040D01*
X322746Y312973D01*
X322611Y312890D01*
X322506Y312793D01*
X322431Y312680D01*
X322386Y312553D01*
X322371Y312410D01*
Y315410D01*
X322386Y315268D01*
X322431Y315140D01*
X322506Y315028D01*
X322611Y314930D01*
X322746Y314848D01*
X322911Y314780D01*
X323106Y314728D01*
X323331Y314690D01*
X323586Y314668D01*
X323770Y314663D01*
X323954Y314668D01*
X324209Y314690D01*
X324434Y314728D01*
X324629Y314780D01*
X324794Y314848D01*
X324929Y314930D01*
X325034Y315028D01*
X325109Y315140D01*
X325154Y315268D01*
X325169Y315410D01*
Y312410D01*
D02*
G37*
G36*
X311705Y317069D02*
X311750Y316981D01*
X311825Y316904D01*
X311930Y316836D01*
X312065Y316779D01*
X312230Y316733D01*
X312425Y316697D01*
X312650Y316671D01*
X312905Y316655D01*
X313190Y316650D01*
Y315150D01*
X312905Y315145D01*
X312425Y315103D01*
X312230Y315067D01*
X312065Y315021D01*
X311930Y314964D01*
X311825Y314896D01*
X311750Y314819D01*
X311705Y314731D01*
X311690Y314633D01*
Y317167D01*
X311705Y317069D01*
D02*
G37*
G36*
X343367Y316162D02*
X343208Y315995D01*
X343066Y315828D01*
X342940Y315661D01*
X342832Y315494D01*
X342740Y315327D01*
X342665Y315160D01*
X342606Y314993D01*
X342565Y314826D01*
X342540Y314659D01*
X342531Y314492D01*
X340861Y316162D01*
X341028Y316170D01*
X341195Y316195D01*
X341362Y316237D01*
X341529Y316296D01*
X341696Y316371D01*
X341863Y316463D01*
X342030Y316571D01*
X342197Y316697D01*
X342364Y316839D01*
X342531Y316997D01*
X343367Y316162D01*
D02*
G37*
G36*
X183264Y313400D02*
X183253Y313505D01*
X183220Y313598D01*
X183165Y313681D01*
X183088Y313752D01*
X182989Y313812D01*
X182868Y313862D01*
X182725Y313900D01*
X182560Y313928D01*
X182373Y313945D01*
X182164Y313950D01*
Y315050D01*
X182373Y315055D01*
X182560Y315072D01*
X182725Y315100D01*
X182868Y315138D01*
X182989Y315188D01*
X183088Y315248D01*
X183165Y315319D01*
X183220Y315402D01*
X183253Y315495D01*
X183264Y315600D01*
Y313400D01*
D02*
G37*
G36*
X377781Y316220D02*
X377993Y316039D01*
X378205Y315880D01*
X378417Y315742D01*
X378629Y315626D01*
X378841Y315530D01*
X379054Y315456D01*
X379266Y315403D01*
X379478Y315371D01*
X379690Y315360D01*
X377569Y313239D01*
X377558Y313451D01*
X377526Y313663D01*
X377473Y313876D01*
X377399Y314088D01*
X377304Y314300D01*
X377187Y314512D01*
X377049Y314724D01*
X376890Y314936D01*
X376710Y315148D01*
X376508Y315360D01*
X377569Y316421D01*
X377781Y316220D01*
D02*
G37*
G36*
X191126Y312133D02*
X190026D01*
X190021Y312341D01*
X190004Y312528D01*
X189977Y312694D01*
X189938Y312837D01*
X189889Y312958D01*
X189828Y313056D01*
X189757Y313134D01*
X189674Y313189D01*
X189581Y313222D01*
X189476Y313232D01*
X191114D01*
X191126Y312133D01*
D02*
G37*
G36*
X352752Y311084D02*
X351252D01*
X351244Y311369D01*
X351222Y311624D01*
X351184Y311849D01*
X351132Y312044D01*
X351064Y312209D01*
X350982Y312344D01*
X350884Y312449D01*
X350772Y312524D01*
X350644Y312569D01*
X350502Y312584D01*
X352583D01*
X352752Y311084D01*
D02*
G37*
G36*
X284356Y309800D02*
X284345Y309905D01*
X284312Y309998D01*
X284257Y310081D01*
X284180Y310152D01*
X284081Y310212D01*
X283960Y310262D01*
X283817Y310300D01*
X283652Y310328D01*
X283465Y310345D01*
X283256Y310350D01*
Y311450D01*
X283465Y311455D01*
X283652Y311472D01*
X283817Y311500D01*
X283960Y311538D01*
X284081Y311588D01*
X284180Y311648D01*
X284257Y311719D01*
X284312Y311802D01*
X284345Y311895D01*
X284356Y312000D01*
Y309800D01*
D02*
G37*
G36*
X261342Y311895D02*
X261375Y311802D01*
X261430Y311719D01*
X261507Y311648D01*
X261606Y311588D01*
X261727Y311538D01*
X261870Y311500D01*
X262035Y311472D01*
X262222Y311455D01*
X262431Y311450D01*
Y310350D01*
X262222Y310345D01*
X262035Y310328D01*
X261870Y310300D01*
X261727Y310262D01*
X261606Y310212D01*
X261507Y310152D01*
X261430Y310081D01*
X261375Y309998D01*
X261342Y309905D01*
X261331Y309800D01*
Y312000D01*
X261342Y311895D01*
D02*
G37*
G36*
X254269Y309800D02*
X254258Y309905D01*
X254225Y309998D01*
X254170Y310081D01*
X254093Y310152D01*
X253994Y310212D01*
X253873Y310262D01*
X253730Y310300D01*
X253565Y310328D01*
X253378Y310345D01*
X253169Y310350D01*
Y311450D01*
X253378Y311455D01*
X253565Y311472D01*
X253730Y311500D01*
X253873Y311538D01*
X253994Y311588D01*
X254093Y311648D01*
X254170Y311719D01*
X254225Y311802D01*
X254258Y311895D01*
X254269Y312000D01*
Y309800D01*
D02*
G37*
G36*
X176055Y310599D02*
X176070Y310418D01*
X176096Y310259D01*
X176132Y310122D01*
X176178Y310005D01*
X176234Y309910D01*
X176300Y309835D01*
X176376Y309782D01*
X176463Y309751D01*
X176560Y309740D01*
X174440D01*
X174537Y309751D01*
X174624Y309782D01*
X174700Y309835D01*
X174766Y309910D01*
X174822Y310005D01*
X174868Y310122D01*
X174904Y310259D01*
X174930Y310418D01*
X174945Y310599D01*
X174950Y310800D01*
X176050D01*
X176055Y310599D01*
D02*
G37*
G36*
X311705Y312032D02*
X311750Y311911D01*
X311825Y311804D01*
X311930Y311711D01*
X312065Y311632D01*
X312230Y311568D01*
X312425Y311518D01*
X312650Y311483D01*
X312905Y311461D01*
X313190Y311454D01*
Y309954D01*
X312905Y309951D01*
X312230Y309903D01*
X312065Y309874D01*
X311930Y309838D01*
X311825Y309796D01*
X311750Y309748D01*
X311705Y309694D01*
X311690Y309632D01*
Y312168D01*
X311705Y312032D01*
D02*
G37*
G36*
X367554Y307928D02*
X365661D01*
X365804Y307943D01*
X365931Y307988D01*
X366044Y308063D01*
X366141Y308168D01*
X366224Y308303D01*
X366291Y308468D01*
X366344Y308663D01*
X366381Y308888D01*
X366404Y309143D01*
X366411Y309428D01*
X367911D01*
X367554Y307928D01*
D02*
G37*
G36*
X352759Y309143D02*
X352782Y308888D01*
X352819Y308663D01*
X352872Y308468D01*
X352939Y308303D01*
X353022Y308168D01*
X353119Y308063D01*
X353232Y307988D01*
X353359Y307943D01*
X353502Y307928D01*
X351043D01*
X351082Y307943D01*
X351118Y307988D01*
X351149Y308063D01*
X351177Y308168D01*
X351200Y308303D01*
X351218Y308468D01*
X351243Y308888D01*
X351252Y309428D01*
X352752D01*
X352759Y309143D01*
D02*
G37*
G36*
X311705Y307069D02*
X311750Y306981D01*
X311825Y306904D01*
X311930Y306836D01*
X312065Y306779D01*
X312230Y306733D01*
X312425Y306697D01*
X312650Y306671D01*
X312905Y306655D01*
X313190Y306650D01*
Y305150D01*
X312905Y305145D01*
X312425Y305103D01*
X312230Y305067D01*
X312065Y305021D01*
X311930Y304964D01*
X311825Y304896D01*
X311750Y304819D01*
X311705Y304731D01*
X311690Y304632D01*
Y307168D01*
X311705Y307069D01*
D02*
G37*
G36*
X284356Y304632D02*
X284341Y304730D01*
X284296Y304817D01*
X284221Y304894D01*
X284116Y304961D01*
X283981Y305017D01*
X283816Y305064D01*
X283621Y305100D01*
X283396Y305125D01*
X283141Y305140D01*
X282856Y305146D01*
Y306646D01*
X283141Y306651D01*
X283621Y306693D01*
X283816Y306729D01*
X283981Y306776D01*
X284116Y306834D01*
X284221Y306901D01*
X284296Y306980D01*
X284341Y307068D01*
X284356Y307168D01*
Y304632D01*
D02*
G37*
G36*
X176496Y305540D02*
X176402Y305507D01*
X176320Y305452D01*
X176248Y305375D01*
X176188Y305276D01*
X176138Y305155D01*
X176100Y305012D01*
X176072Y304847D01*
X176056Y304660D01*
X176050Y304451D01*
X174950D01*
X174944Y304660D01*
X174928Y304847D01*
X174900Y305012D01*
X174862Y305155D01*
X174812Y305276D01*
X174752Y305375D01*
X174680Y305452D01*
X174598Y305507D01*
X174504Y305540D01*
X174400Y305551D01*
X176600D01*
X176496Y305540D01*
D02*
G37*
G36*
X251146Y307253D02*
X251191Y307126D01*
X251266Y307013D01*
X251371Y306916D01*
X251506Y306833D01*
X251671Y306766D01*
X251866Y306713D01*
X252091Y306676D01*
X252346Y306653D01*
X252631Y306646D01*
Y305146D01*
X252346Y305138D01*
X252091Y305116D01*
X251866Y305078D01*
X251671Y305026D01*
X251506Y304958D01*
X251371Y304876D01*
X251266Y304778D01*
X251191Y304666D01*
X251146Y304538D01*
X251131Y304396D01*
Y307396D01*
X251146Y307253D01*
D02*
G37*
G36*
X407755Y305358D02*
X407800Y305230D01*
X407875Y305118D01*
X407980Y305020D01*
X408115Y304938D01*
X408280Y304870D01*
X408475Y304818D01*
X408700Y304780D01*
X408955Y304757D01*
X409240Y304750D01*
Y303250D01*
X408955Y303242D01*
X408700Y303220D01*
X408475Y303183D01*
X408280Y303130D01*
X408115Y303063D01*
X407980Y302980D01*
X407875Y302883D01*
X407800Y302770D01*
X407755Y302642D01*
X407740Y302500D01*
Y305500D01*
X407755Y305358D01*
D02*
G37*
G36*
X250149Y303723D02*
X250021Y303678D01*
X249909Y303603D01*
X249811Y303498D01*
X249729Y303363D01*
X249661Y303198D01*
X249609Y303003D01*
X249571Y302778D01*
X249549Y302523D01*
X249541Y302238D01*
X248041D01*
X248034Y302523D01*
X248011Y302778D01*
X247974Y303003D01*
X247921Y303198D01*
X247854Y303363D01*
X247771Y303498D01*
X247674Y303603D01*
X247561Y303678D01*
X247434Y303723D01*
X247291Y303738D01*
X250291D01*
X250149Y303723D01*
D02*
G37*
G36*
X322382Y303831D02*
X322415Y303770D01*
X322471Y303716D01*
X322549Y303668D01*
X322649Y303629D01*
X322771Y303596D01*
X322916Y303571D01*
X323082Y303553D01*
X323483Y303538D01*
Y302038D01*
X323271Y302035D01*
X322916Y302006D01*
X322771Y301980D01*
X322649Y301948D01*
X322549Y301908D01*
X322471Y301861D01*
X322415Y301806D01*
X322382Y301745D01*
X322371Y301676D01*
Y303900D01*
X322382Y303831D01*
D02*
G37*
G36*
X389260Y301061D02*
X387760Y300941D01*
Y302441D01*
X388045Y302449D01*
X388300Y302471D01*
X388525Y302509D01*
X388720Y302561D01*
X388885Y302629D01*
X389020Y302711D01*
X389125Y302809D01*
X389200Y302921D01*
X389245Y303049D01*
X389260Y303191D01*
Y301061D01*
D02*
G37*
G36*
X367569Y303049D02*
X367614Y302921D01*
X367689Y302809D01*
X367794Y302711D01*
X367929Y302629D01*
X368094Y302561D01*
X368289Y302509D01*
X368514Y302471D01*
X368769Y302449D01*
X369054Y302441D01*
Y300941D01*
X368769Y300937D01*
X368289Y300899D01*
X368094Y300866D01*
X367929Y300824D01*
X367794Y300772D01*
X367689Y300711D01*
X367614Y300641D01*
X367569Y300561D01*
X367554Y300472D01*
Y303191D01*
X367569Y303049D01*
D02*
G37*
G36*
X384646D02*
X384691Y302921D01*
X384766Y302809D01*
X384871Y302711D01*
X385006Y302629D01*
X385171Y302561D01*
X385366Y302509D01*
X385591Y302471D01*
X385846Y302449D01*
X386131Y302441D01*
Y300941D01*
X385846Y300934D01*
X385591Y300911D01*
X385366Y300874D01*
X385171Y300821D01*
X385006Y300754D01*
X384871Y300671D01*
X384766Y300574D01*
X384691Y300461D01*
X384646Y300334D01*
X384631Y300191D01*
Y303191D01*
X384646Y303049D01*
D02*
G37*
G36*
X377569Y300191D02*
X377554Y300334D01*
X377509Y300461D01*
X377434Y300574D01*
X377329Y300671D01*
X377194Y300754D01*
X377029Y300821D01*
X376834Y300874D01*
X376609Y300911D01*
X376354Y300934D01*
X376069Y300941D01*
Y302441D01*
X376354Y302449D01*
X376609Y302471D01*
X376834Y302509D01*
X377029Y302561D01*
X377194Y302629D01*
X377329Y302711D01*
X377434Y302809D01*
X377509Y302921D01*
X377554Y303049D01*
X377569Y303191D01*
Y300191D01*
D02*
G37*
G36*
X176056Y300029D02*
X176072Y299842D01*
X176100Y299677D01*
X176138Y299534D01*
X176188Y299413D01*
X176248Y299314D01*
X176320Y299237D01*
X176402Y299182D01*
X176496Y299149D01*
X176600Y299138D01*
X174400D01*
X174504Y299149D01*
X174598Y299182D01*
X174680Y299237D01*
X174752Y299314D01*
X174812Y299413D01*
X174862Y299534D01*
X174900Y299677D01*
X174928Y299842D01*
X174944Y300029D01*
X174950Y300238D01*
X176050D01*
X176056Y300029D01*
D02*
G37*
G36*
X174228Y292862D02*
X174073Y292855D01*
X173917Y292831D01*
X173761Y292792D01*
X173606Y292738D01*
X173450Y292668D01*
X173295Y292582D01*
X173139Y292481D01*
X172984Y292365D01*
X172828Y292232D01*
X172673Y292085D01*
X171892Y292859D01*
X172039Y293015D01*
X172172Y293170D01*
X172288Y293326D01*
X172389Y293481D01*
X172475Y293637D01*
X172545Y293793D01*
X172599Y293948D01*
X172638Y294104D01*
X172662Y294259D01*
X172669Y294415D01*
X174228Y292862D01*
D02*
G37*
G36*
X249549Y266156D02*
X249571Y265901D01*
X249609Y265676D01*
X249661Y265481D01*
X249729Y265316D01*
X249811Y265181D01*
X249909Y265076D01*
X250021Y265001D01*
X250149Y264956D01*
X250291Y264941D01*
X247291D01*
X247434Y264956D01*
X247561Y265001D01*
X247674Y265076D01*
X247771Y265181D01*
X247854Y265316D01*
X247921Y265481D01*
X247974Y265676D01*
X248011Y265901D01*
X248034Y266156D01*
X248041Y266441D01*
X249541D01*
X249549Y266156D01*
D02*
G37*
G36*
X208764Y265832D02*
X208781Y265645D01*
X208808Y265480D01*
X208847Y265337D01*
X208896Y265216D01*
X208957Y265117D01*
X209028Y265040D01*
X209111Y264985D01*
X209204Y264952D01*
X209309Y264941D01*
X207109D01*
X207213Y264952D01*
X207307Y264985D01*
X207389Y265040D01*
X207461Y265117D01*
X207521Y265216D01*
X207571Y265337D01*
X207609Y265480D01*
X207637Y265645D01*
X207653Y265832D01*
X207659Y266041D01*
X208759D01*
X208764Y265832D01*
D02*
G37*
G36*
X232760Y260900D02*
X232749Y261004D01*
X232716Y261098D01*
X232661Y261180D01*
X232584Y261252D01*
X232485Y261313D01*
X232364Y261362D01*
X232221Y261401D01*
X232056Y261428D01*
X231869Y261444D01*
X231660Y261450D01*
Y262550D01*
X231869Y262556D01*
X232056Y262572D01*
X232221Y262599D01*
X232364Y262638D01*
X232485Y262687D01*
X232584Y262748D01*
X232661Y262820D01*
X232716Y262902D01*
X232749Y262996D01*
X232760Y263100D01*
Y260900D01*
D02*
G37*
G36*
X240937Y251482D02*
X239780D01*
X239785Y251493D01*
X239790Y251526D01*
X239794Y251581D01*
X239807Y252186D01*
X239808Y252582D01*
X240908D01*
X240937Y251482D01*
D02*
G37*
G36*
X235031D02*
X233874D01*
X233880Y251493D01*
X233885Y251526D01*
X233889Y251581D01*
X233902Y252186D01*
X233903Y252582D01*
X235003D01*
X235031Y251482D01*
D02*
G37*
G36*
X229126D02*
X227969D01*
X227974Y251493D01*
X227979Y251526D01*
X227983Y251581D01*
X227996Y252186D01*
X227997Y252582D01*
X229097D01*
X229126Y251482D01*
D02*
G37*
G36*
X227157D02*
X226000D01*
X226006Y251493D01*
X226010Y251526D01*
X226015Y251581D01*
X226028Y252186D01*
X226029Y252582D01*
X227129D01*
X227157Y251482D01*
D02*
G37*
G36*
X246829Y245688D02*
X246817Y245655D01*
X246807Y245600D01*
X246798Y245523D01*
X246784Y245303D01*
X246773Y244599D01*
X245673D01*
X245685Y245699D01*
X246842D01*
X246829Y245688D01*
D02*
G37*
G36*
X217309D02*
X217304Y245655D01*
X217300Y245600D01*
X217287Y244995D01*
X217286Y244599D01*
X216186D01*
X216158Y245699D01*
X217315D01*
X217309Y245688D01*
D02*
G37*
G36*
X193929Y239888D02*
X193918Y239993D01*
X193885Y240086D01*
X193830Y240169D01*
X193753Y240240D01*
X193654Y240301D01*
X193533Y240350D01*
X193390Y240389D01*
X193225Y240416D01*
X193038Y240433D01*
X192846Y240438D01*
X192655Y240433D01*
X192468Y240416D01*
X192303Y240389D01*
X192160Y240350D01*
X192039Y240301D01*
X191940Y240240D01*
X191863Y240169D01*
X191808Y240086D01*
X191775Y239993D01*
X191764Y239888D01*
Y242088D01*
X191775Y241984D01*
X191808Y241890D01*
X191863Y241808D01*
X191940Y241736D01*
X192039Y241676D01*
X192160Y241626D01*
X192303Y241588D01*
X192468Y241560D01*
X192655Y241544D01*
X192846Y241539D01*
X193038Y241544D01*
X193225Y241560D01*
X193390Y241588D01*
X193533Y241626D01*
X193654Y241676D01*
X193753Y241736D01*
X193830Y241808D01*
X193885Y241890D01*
X193918Y241984D01*
X193929Y242088D01*
Y239888D01*
D02*
G37*
G36*
X184622D02*
X184611Y239993D01*
X184578Y240086D01*
X184523Y240169D01*
X184446Y240240D01*
X184347Y240301D01*
X184226Y240350D01*
X184083Y240389D01*
X183918Y240416D01*
X183731Y240433D01*
X183539Y240438D01*
X183347Y240433D01*
X183160Y240416D01*
X182995Y240389D01*
X182852Y240350D01*
X182731Y240301D01*
X182633Y240240D01*
X182555Y240169D01*
X182501Y240086D01*
X182467Y239993D01*
X182457Y239888D01*
Y242088D01*
X182467Y241984D01*
X182501Y241890D01*
X182555Y241808D01*
X182633Y241736D01*
X182731Y241676D01*
X182852Y241626D01*
X182995Y241588D01*
X183160Y241560D01*
X183347Y241544D01*
X183539Y241539D01*
X183731Y241544D01*
X183918Y241560D01*
X184083Y241588D01*
X184226Y241626D01*
X184347Y241676D01*
X184446Y241736D01*
X184523Y241808D01*
X184578Y241890D01*
X184611Y241984D01*
X184622Y242088D01*
Y239888D01*
D02*
G37*
G36*
X166016Y243870D02*
X166171Y243738D01*
X166327Y243621D01*
X166482Y243520D01*
X166638Y243434D01*
X166793Y243364D01*
X166949Y243310D01*
X167104Y243271D01*
X167260Y243248D01*
X167416Y243240D01*
X166008Y241536D01*
X166000Y241692D01*
X165977Y241847D01*
X165938Y242003D01*
X165884Y242159D01*
X165814Y242314D01*
X165728Y242470D01*
X165627Y242625D01*
X165510Y242781D01*
X165378Y242936D01*
X165230Y243092D01*
X165860Y244018D01*
X166016Y243870D01*
D02*
G37*
G36*
X257760Y241342D02*
X256982Y240185D01*
X255427Y241342D01*
X255582Y241350D01*
X255738Y241373D01*
X255893Y241412D01*
X256049Y241467D01*
X256204Y241537D01*
X256360Y241622D01*
X256515Y241723D01*
X256671Y241840D01*
X256826Y241972D01*
X256982Y242120D01*
X257760Y241342D01*
D02*
G37*
G36*
X251199Y240185D02*
X251188Y240191D01*
X251155Y240195D01*
X251100Y240200D01*
X250495Y240213D01*
X250099Y240214D01*
Y241314D01*
X251199Y241342D01*
Y240185D01*
D02*
G37*
G36*
X211812Y241337D02*
X211845Y241332D01*
X211900Y241328D01*
X212505Y241315D01*
X212901Y241314D01*
Y240214D01*
X211801Y240185D01*
Y241342D01*
X211812Y241337D01*
D02*
G37*
G36*
X206018Y240185D02*
X206007Y240191D01*
X205974Y240195D01*
X205919Y240200D01*
X205314Y240213D01*
X204918Y240214D01*
Y241314D01*
X206018Y241342D01*
Y240185D01*
D02*
G37*
G36*
X201082Y241759D02*
X201115Y241666D01*
X201170Y241583D01*
X201247Y241512D01*
X201346Y241451D01*
X201467Y241402D01*
X201610Y241363D01*
X201775Y241336D01*
X201962Y241319D01*
X202171Y241314D01*
Y240214D01*
X201962Y240208D01*
X201775Y240192D01*
X201610Y240164D01*
X201467Y240126D01*
X201346Y240076D01*
X201247Y240016D01*
X201170Y239944D01*
X201115Y239862D01*
X201082Y239768D01*
X201071Y239664D01*
Y241864D01*
X201082Y241759D01*
D02*
G37*
G36*
X256992Y237400D02*
X257023Y237395D01*
X257074Y237391D01*
X257481Y237379D01*
X258000Y237377D01*
Y236277D01*
X256982Y236248D01*
Y237405D01*
X256992Y237400D01*
D02*
G37*
G36*
X160341Y232354D02*
X160776Y231981D01*
X160982Y231829D01*
X161181Y231701D01*
X161371Y231596D01*
X161554Y231514D01*
X161729Y231456D01*
X161896Y231421D01*
X162056Y231409D01*
X160154Y230200D01*
X160146Y230356D01*
X160123Y230511D01*
X160084Y230667D01*
X160029Y230822D01*
X159959Y230978D01*
X159874Y231133D01*
X159773Y231289D01*
X159656Y231445D01*
X159524Y231600D01*
X159376Y231756D01*
X160111Y232576D01*
X160341Y232354D01*
D02*
G37*
G36*
X197171Y231201D02*
X197327Y231068D01*
X197483Y230952D01*
X197638Y230851D01*
X197794Y230765D01*
X197949Y230695D01*
X198105Y230641D01*
X198260Y230602D01*
X198416Y230578D01*
X198572Y230571D01*
X197016Y229015D01*
X197008Y229171D01*
X196985Y229326D01*
X196946Y229482D01*
X196891Y229637D01*
X196821Y229793D01*
X196736Y229948D01*
X196635Y230104D01*
X196518Y230259D01*
X196386Y230415D01*
X196238Y230571D01*
X197016Y231348D01*
X197171Y231201D01*
D02*
G37*
G36*
X206018Y228374D02*
X206007Y228380D01*
X205974Y228384D01*
X205919Y228389D01*
X205314Y228402D01*
X204918Y228403D01*
Y229503D01*
X206018Y229531D01*
Y228374D01*
D02*
G37*
G36*
X177857Y230350D02*
X177890Y230256D01*
X177945Y230174D01*
X178022Y230102D01*
X178121Y230042D01*
X178242Y229992D01*
X178385Y229954D01*
X178550Y229926D01*
X178737Y229910D01*
X178946Y229904D01*
Y228804D01*
X178737Y228799D01*
X178550Y228782D01*
X178385Y228755D01*
X178242Y228716D01*
X178121Y228667D01*
X178022Y228606D01*
X177945Y228535D01*
X177890Y228452D01*
X177857Y228359D01*
X177846Y228254D01*
Y230454D01*
X177857Y230350D01*
D02*
G37*
G36*
X173343Y228254D02*
X173332Y228359D01*
X173299Y228452D01*
X173244Y228535D01*
X173167Y228606D01*
X173068Y228667D01*
X172947Y228716D01*
X172804Y228755D01*
X172639Y228782D01*
X172452Y228799D01*
X172243Y228804D01*
Y229904D01*
X172452Y229910D01*
X172639Y229926D01*
X172804Y229954D01*
X172947Y229992D01*
X173068Y230042D01*
X173167Y230102D01*
X173244Y230174D01*
X173299Y230256D01*
X173332Y230350D01*
X173343Y230454D01*
Y228254D01*
D02*
G37*
G36*
X164668Y230350D02*
X164701Y230256D01*
X164756Y230174D01*
X164833Y230102D01*
X164932Y230042D01*
X165053Y229992D01*
X165196Y229954D01*
X165361Y229926D01*
X165548Y229910D01*
X165757Y229904D01*
Y228804D01*
X165548Y228799D01*
X165361Y228782D01*
X165196Y228755D01*
X165053Y228716D01*
X164932Y228667D01*
X164833Y228606D01*
X164756Y228535D01*
X164701Y228452D01*
X164668Y228359D01*
X164657Y228254D01*
Y230454D01*
X164668Y230350D01*
D02*
G37*
G36*
X201019Y227995D02*
X201052Y227902D01*
X201107Y227819D01*
X201184Y227748D01*
X201283Y227688D01*
X201404Y227638D01*
X201547Y227600D01*
X201712Y227572D01*
X201899Y227555D01*
X202108Y227550D01*
Y226450D01*
X201899Y226445D01*
X201712Y226428D01*
X201547Y226400D01*
X201404Y226362D01*
X201283Y226312D01*
X201184Y226252D01*
X201107Y226181D01*
X201052Y226098D01*
X201019Y226005D01*
X201008Y225900D01*
Y228100D01*
X201019Y227995D01*
D02*
G37*
G36*
X320613Y225400D02*
X320602Y225504D01*
X320569Y225598D01*
X320514Y225680D01*
X320437Y225752D01*
X320338Y225813D01*
X320217Y225862D01*
X320074Y225901D01*
X319909Y225928D01*
X319722Y225944D01*
X319513Y225950D01*
Y227050D01*
X319722Y227056D01*
X319909Y227072D01*
X320074Y227099D01*
X320217Y227138D01*
X320338Y227187D01*
X320437Y227248D01*
X320514Y227320D01*
X320569Y227402D01*
X320602Y227496D01*
X320613Y227600D01*
Y225400D01*
D02*
G37*
G36*
X250187Y237205D02*
X250400D01*
Y233480D01*
Y229543D01*
Y225606D01*
Y220474D01*
X250100D01*
X249578Y220370D01*
X249278Y220169D01*
X248928Y220345D01*
Y238899D01*
X249429Y239400D01*
X250187D01*
Y237205D01*
D02*
G37*
G36*
X217709Y239136D02*
Y224137D01*
X213136Y219565D01*
X212813Y219699D01*
Y220701D01*
X212600D01*
Y223638D01*
Y227575D01*
Y231512D01*
Y235449D01*
Y239400D01*
X215463D01*
X215985Y239504D01*
X216427Y239800D01*
X216736Y240108D01*
X217709Y239136D01*
D02*
G37*
G36*
X256993Y219683D02*
X257026Y219678D01*
X257081Y219674D01*
X257686Y219661D01*
X258082Y219660D01*
Y218560D01*
X256982Y218532D01*
Y219689D01*
X256993Y219683D01*
D02*
G37*
G36*
X251199Y218532D02*
X251188Y218537D01*
X251155Y218542D01*
X251100Y218546D01*
X250496Y218559D01*
X250100Y218560D01*
Y219660D01*
X251199Y219689D01*
Y218532D01*
D02*
G37*
G36*
X211809Y217715D02*
X211835Y217710D01*
X211877Y217706D01*
X212104Y217696D01*
X212642Y217692D01*
Y216592D01*
X211801Y216563D01*
Y217720D01*
X211809Y217715D01*
D02*
G37*
G36*
X186108Y215754D02*
X186097Y215859D01*
X186064Y215952D01*
X186009Y216035D01*
X185932Y216106D01*
X185833Y216167D01*
X185712Y216216D01*
X185569Y216255D01*
X185404Y216282D01*
X185217Y216299D01*
X185008Y216304D01*
Y217404D01*
X185217Y217410D01*
X185404Y217426D01*
X185569Y217454D01*
X185712Y217492D01*
X185833Y217542D01*
X185932Y217602D01*
X186009Y217674D01*
X186064Y217756D01*
X186097Y217850D01*
X186108Y217954D01*
Y215754D01*
D02*
G37*
G36*
X202682Y216996D02*
X202715Y216902D01*
X202770Y216820D01*
X202847Y216748D01*
X202946Y216687D01*
X203067Y216638D01*
X203210Y216599D01*
X203375Y216572D01*
X203562Y216556D01*
X203771Y216550D01*
Y215450D01*
X203562Y215445D01*
X203375Y215429D01*
X203210Y215402D01*
X203067Y215365D01*
X202946Y215317D01*
X202847Y215258D01*
X202770Y215188D01*
X202715Y215108D01*
X202682Y215017D01*
X202671Y214916D01*
Y217100D01*
X202682Y216996D01*
D02*
G37*
G36*
X256993Y215746D02*
X257026Y215741D01*
X257081Y215737D01*
X257686Y215724D01*
X258082Y215723D01*
Y214623D01*
X256982Y214595D01*
Y215752D01*
X256993Y215746D01*
D02*
G37*
G36*
Y211809D02*
X257026Y211805D01*
X257081Y211800D01*
X257686Y211787D01*
X258082Y211786D01*
Y210686D01*
X256982Y210658D01*
Y211815D01*
X256993Y211809D01*
D02*
G37*
G36*
X242905Y206301D02*
X241748D01*
X241754Y206308D01*
X241758Y206328D01*
X241763Y206362D01*
X241770Y206469D01*
X241777Y206973D01*
X242877D01*
X242905Y206301D01*
D02*
G37*
G36*
X221252D02*
X220095D01*
X220100Y206310D01*
X220105Y206337D01*
X220109Y206382D01*
X220119Y206625D01*
X220123Y207200D01*
X221223D01*
X221252Y206301D01*
D02*
G37*
G36*
X247620D02*
X247472Y206147D01*
X247223Y205844D01*
X247122Y205697D01*
X247037Y205551D01*
X246967Y205408D01*
X246912Y205267D01*
X246873Y205128D01*
X246850Y204992D01*
X246842Y204858D01*
X245685Y206301D01*
X245765Y206309D01*
X245853Y206332D01*
X245949Y206371D01*
X246052Y206425D01*
X246164Y206495D01*
X246284Y206581D01*
X246547Y206799D01*
X246691Y206931D01*
X246842Y207079D01*
X247620Y206301D01*
D02*
G37*
G36*
X320613Y204622D02*
X320602Y204666D01*
X320569Y204705D01*
X320514Y204740D01*
X320437Y204769D01*
X320338Y204795D01*
X320217Y204816D01*
X320074Y204832D01*
X319722Y204850D01*
X319513Y204852D01*
Y205952D01*
X319722Y205958D01*
X319909Y205974D01*
X320074Y206002D01*
X320217Y206040D01*
X320338Y206090D01*
X320437Y206150D01*
X320514Y206222D01*
X320569Y206304D01*
X320602Y206398D01*
X320613Y206502D01*
Y204622D01*
D02*
G37*
G36*
X242900Y200511D02*
X242895Y200490D01*
X242891Y200455D01*
X242884Y200344D01*
X242877Y199824D01*
X241777D01*
X241748Y200518D01*
X242905D01*
X242900Y200511D01*
D02*
G37*
G36*
X246837Y200507D02*
X246832Y200474D01*
X246828Y200419D01*
X246815Y199814D01*
X246814Y199418D01*
X245714D01*
X245685Y200518D01*
X246842D01*
X246837Y200507D01*
D02*
G37*
G36*
X236994D02*
X236989Y200474D01*
X236985Y200419D01*
X236972Y199814D01*
X236971Y199418D01*
X235871D01*
X235843Y200518D01*
X237000D01*
X236994Y200507D01*
D02*
G37*
G36*
X233057D02*
X233052Y200474D01*
X233048Y200419D01*
X233035Y199814D01*
X233034Y199418D01*
X231934D01*
X231906Y200518D01*
X233063D01*
X233057Y200507D01*
D02*
G37*
G36*
X229120D02*
X229116Y200474D01*
X229111Y200419D01*
X229098Y199814D01*
X229097Y199418D01*
X227997D01*
X227969Y200518D01*
X229126D01*
X229120Y200507D01*
D02*
G37*
G36*
X225183D02*
X225179Y200474D01*
X225174Y200419D01*
X225161Y199814D01*
X225160Y199418D01*
X224060D01*
X224032Y200518D01*
X225189D01*
X225183Y200507D01*
D02*
G37*
G36*
X248671Y205822D02*
X248741Y205776D01*
X248840Y205278D01*
X249136Y204836D01*
X253336Y200635D01*
Y198398D01*
X253283Y198070D01*
X249998D01*
X249988Y198073D01*
X249872Y198078D01*
X249794Y198090D01*
X249712Y198111D01*
X249624Y198141D01*
X249529Y198184D01*
X249427Y198240D01*
X249319Y198310D01*
X249205Y198396D01*
X249142Y198449D01*
X247642Y199950D01*
Y200459D01*
X247643Y200466D01*
X247642Y200479D01*
Y200501D01*
X247645Y200518D01*
X247642Y200535D01*
Y204803D01*
X247644Y204811D01*
X247649Y204901D01*
X247658Y204952D01*
X247675Y205013D01*
X247703Y205086D01*
X247744Y205171D01*
X247800Y205266D01*
X247866Y205361D01*
X248027Y205557D01*
X248386Y205917D01*
X248671Y205822D01*
D02*
G37*
G36*
X423667Y200894D02*
X423370Y200789D01*
X423107Y200614D01*
X422880Y200369D01*
X422687Y200054D01*
X422530Y199669D01*
X422407Y199214D01*
X422320Y198689D01*
X422267Y198094D01*
X422250Y197429D01*
X418750D01*
X418733Y198094D01*
X418680Y198689D01*
X418593Y199214D01*
X418470Y199669D01*
X418313Y200054D01*
X418120Y200369D01*
X417893Y200614D01*
X417630Y200789D01*
X417333Y200894D01*
X417000Y200929D01*
X424000D01*
X423667Y200894D01*
D02*
G37*
G36*
X248548Y197901D02*
X248704Y197768D01*
X248859Y197652D01*
X249015Y197551D01*
X249170Y197465D01*
X249326Y197395D01*
X249481Y197341D01*
X249637Y197302D01*
X249792Y197278D01*
X249948Y197271D01*
X248492Y195615D01*
X248484Y195771D01*
X248461Y195926D01*
X248422Y196082D01*
X248368Y196237D01*
X248298Y196393D01*
X248212Y196548D01*
X248111Y196704D01*
X247994Y196860D01*
X247862Y197015D01*
X247714Y197171D01*
X248392Y198048D01*
X248548Y197901D01*
D02*
G37*
G36*
X251484Y190118D02*
X251390Y190085D01*
X251308Y190030D01*
X251236Y189953D01*
X251176Y189854D01*
X251126Y189733D01*
X251088Y189590D01*
X251060Y189425D01*
X251044Y189238D01*
X251042Y189161D01*
X251044Y189083D01*
X251060Y188896D01*
X251088Y188731D01*
X251126Y188588D01*
X251176Y188467D01*
X251236Y188368D01*
X251308Y188291D01*
X251390Y188236D01*
X251484Y188203D01*
X251588Y188192D01*
X249388D01*
X249493Y188203D01*
X249586Y188236D01*
X249669Y188291D01*
X249740Y188368D01*
X249801Y188467D01*
X249850Y188588D01*
X249889Y188731D01*
X249916Y188896D01*
X249933Y189083D01*
X249935Y189161D01*
X249933Y189238D01*
X249916Y189425D01*
X249889Y189590D01*
X249850Y189733D01*
X249801Y189854D01*
X249740Y189953D01*
X249669Y190030D01*
X249586Y190085D01*
X249493Y190118D01*
X249388Y190129D01*
X251588D01*
X251484Y190118D01*
D02*
G37*
G36*
X324930Y186259D02*
X324963Y186169D01*
X325017Y186090D01*
X325092Y186021D01*
X325190Y185962D01*
X325308Y185915D01*
X325449Y185877D01*
X325611Y185851D01*
X325795Y185835D01*
X326000Y185830D01*
Y184730D01*
X325795Y184724D01*
X325611Y184708D01*
X325449Y184682D01*
X325308Y184645D01*
X325190Y184597D01*
X325092Y184539D01*
X325017Y184470D01*
X324963Y184390D01*
X324930Y184300D01*
X324920Y184199D01*
Y186360D01*
X324930Y186259D01*
D02*
G37*
G36*
X320613Y184180D02*
X320602Y184284D01*
X320569Y184378D01*
X320514Y184460D01*
X320437Y184532D01*
X320338Y184592D01*
X320217Y184642D01*
X320074Y184680D01*
X319909Y184708D01*
X319722Y184724D01*
X319513Y184730D01*
Y185830D01*
X319722Y185835D01*
X319909Y185852D01*
X320074Y185879D01*
X320217Y185918D01*
X320338Y185967D01*
X320437Y186028D01*
X320514Y186099D01*
X320569Y186182D01*
X320602Y186275D01*
X320613Y186380D01*
Y184180D01*
D02*
G37*
G36*
X546000Y223000D02*
Y188000D01*
X540000Y182000D01*
X508000D01*
X476357Y213643D01*
Y223357D01*
X481000Y228000D01*
X541000D01*
X546000Y223000D01*
D02*
G37*
G36*
X296878Y171330D02*
X296895Y171143D01*
X296922Y170978D01*
X296961Y170835D01*
X297010Y170714D01*
X297071Y170615D01*
X297142Y170538D01*
X297225Y170483D01*
X297318Y170450D01*
X297423Y170439D01*
X295223D01*
X295327Y170450D01*
X295421Y170483D01*
X295503Y170538D01*
X295575Y170615D01*
X295635Y170714D01*
X295685Y170835D01*
X295723Y170978D01*
X295751Y171143D01*
X295767Y171330D01*
X295773Y171539D01*
X296873D01*
X296878Y171330D01*
D02*
G37*
G36*
X358203Y170439D02*
Y168979D01*
X358192Y169083D01*
X358159Y169177D01*
X358104Y169259D01*
X358027Y169331D01*
X357928Y169391D01*
X357807Y169441D01*
X357664Y169479D01*
X357499Y169507D01*
X357312Y169523D01*
X357103Y169529D01*
Y170629D01*
X358203Y170439D01*
D02*
G37*
G36*
X234131Y170226D02*
X234164Y170133D01*
X234219Y170050D01*
X234296Y169979D01*
X234395Y169918D01*
X234516Y169869D01*
X234659Y169830D01*
X234824Y169803D01*
X235011Y169786D01*
X235220Y169781D01*
Y168681D01*
X235011Y168675D01*
X234824Y168659D01*
X234659Y168631D01*
X234516Y168593D01*
X234395Y168543D01*
X234296Y168483D01*
X234219Y168411D01*
X234164Y168329D01*
X234131Y168235D01*
X234120Y168131D01*
Y170331D01*
X234131Y170226D01*
D02*
G37*
G36*
X373823Y163070D02*
X373799Y163298D01*
X373727Y163502D01*
X373607Y163682D01*
X373439Y163838D01*
X373223Y163970D01*
X372959Y164078D01*
X372647Y164162D01*
X372287Y164222D01*
X371879Y164258D01*
X371423Y164270D01*
Y164274D01*
X369797Y164282D01*
Y166699D01*
X369821Y166693D01*
X369893Y166689D01*
X370973Y166673D01*
X371481Y166672D01*
X371879Y166682D01*
X372287Y166718D01*
X372647Y166778D01*
X372959Y166862D01*
X373223Y166970D01*
X373439Y167102D01*
X373607Y167258D01*
X373727Y167438D01*
X373799Y167642D01*
X373823Y167870D01*
Y163070D01*
D02*
G37*
G36*
X402652Y169502D02*
X402182Y169007D01*
X401761Y168512D01*
X401390Y168017D01*
X401068Y167522D01*
X400796Y167027D01*
X400573Y166532D01*
X400400Y166037D01*
X400276Y165542D01*
X400202Y165048D01*
X400177Y164552D01*
X393849Y168124D01*
X394356Y168161D01*
X394889Y168273D01*
X395445Y168458D01*
X396027Y168718D01*
X396633Y169052D01*
X397265Y169461D01*
X397920Y169943D01*
X399306Y171131D01*
X400036Y171836D01*
X402652Y169502D01*
D02*
G37*
G36*
X334157Y161838D02*
X334063Y161805D01*
X333981Y161750D01*
X333909Y161673D01*
X333849Y161574D01*
X333799Y161453D01*
X333761Y161310D01*
X333733Y161145D01*
X333717Y160958D01*
X333711Y160749D01*
X332611D01*
X332606Y160958D01*
X332589Y161145D01*
X332562Y161310D01*
X332523Y161453D01*
X332474Y161574D01*
X332413Y161673D01*
X332342Y161750D01*
X332259Y161805D01*
X332166Y161838D01*
X332061Y161849D01*
X334261D01*
X334157Y161838D01*
D02*
G37*
G36*
X398498Y161814D02*
X398201Y161709D01*
X397938Y161534D01*
X397711Y161289D01*
X397518Y160974D01*
X397361Y160589D01*
X397238Y160134D01*
X397151Y159609D01*
X397098Y159014D01*
X397081Y158349D01*
X393581D01*
X393563Y159014D01*
X393511Y159609D01*
X393423Y160134D01*
X393301Y160589D01*
X393143Y160974D01*
X392951Y161289D01*
X392723Y161534D01*
X392461Y161709D01*
X392163Y161814D01*
X391831Y161849D01*
X398831D01*
X398498Y161814D01*
D02*
G37*
G36*
X182972Y139742D02*
X183008Y139494D01*
X183068Y139266D01*
X183153Y139056D01*
X183262Y138866D01*
X183395Y138695D01*
X183552Y138544D01*
X183733Y138411D01*
X183939Y138298D01*
X184168Y138204D01*
X180651Y138204D01*
X180880Y138298D01*
X181086Y138411D01*
X181267Y138544D01*
X181424Y138695D01*
X181557Y138866D01*
X181666Y139056D01*
X181751Y139266D01*
X181811Y139494D01*
X181847Y139742D01*
X181859Y140009D01*
X182959D01*
X182972Y139742D01*
D02*
G37*
G36*
X172162Y137198D02*
X172192Y137118D01*
X172243Y137048D01*
X172314Y136987D01*
X172406Y136936D01*
X172518Y136894D01*
X172650Y136861D01*
X172803Y136838D01*
X172976Y136824D01*
X173169Y136819D01*
Y135719D01*
X172976Y135714D01*
X172803Y135700D01*
X172650Y135677D01*
X172518Y135644D01*
X172406Y135602D01*
X172314Y135551D01*
X172243Y135490D01*
X172192Y135420D01*
X172162Y135340D01*
X172151Y135251D01*
Y137287D01*
X172162Y137198D01*
D02*
G37*
G36*
X416575Y121600D02*
X416551Y121828D01*
X416479Y122032D01*
X416359Y122212D01*
X416191Y122368D01*
X415975Y122500D01*
X415711Y122608D01*
X415399Y122692D01*
X415039Y122752D01*
X414631Y122788D01*
X414175Y122800D01*
Y125200D01*
X414631Y125212D01*
X415039Y125248D01*
X415399Y125308D01*
X415711Y125392D01*
X415975Y125500D01*
X416191Y125632D01*
X416359Y125788D01*
X416479Y125968D01*
X416551Y126172D01*
X416575Y126400D01*
Y121600D01*
D02*
G37*
G36*
X548000Y134000D02*
X548000Y108000D01*
X542000Y102000D01*
X480000D01*
X476357Y105643D01*
Y115357D01*
X501000Y140000D01*
X542000D01*
X548000Y134000D01*
D02*
G37*
%LPC*%
G36*
X122727Y486382D02*
X121273D01*
X119847Y486098D01*
X118503Y485542D01*
X117294Y484734D01*
X116266Y483706D01*
X115458Y482497D01*
X114902Y481153D01*
X114618Y479727D01*
Y478273D01*
X114902Y476847D01*
X115458Y475503D01*
X116266Y474294D01*
X117294Y473266D01*
X118503Y472458D01*
X119847Y471902D01*
X121273Y471618D01*
X122727D01*
X124153Y471902D01*
X125497Y472458D01*
X126706Y473266D01*
X127734Y474294D01*
X128542Y475503D01*
X129098Y476847D01*
X129382Y478273D01*
Y479727D01*
X129098Y481153D01*
X128542Y482497D01*
X127734Y483706D01*
X126706Y484734D01*
X125497Y485542D01*
X124153Y486098D01*
X122727Y486382D01*
D02*
G37*
G36*
X174500Y474097D02*
Y468587D01*
X180011D01*
X179828Y469506D01*
X179332Y470704D01*
X178612Y471782D01*
X177695Y472698D01*
X176617Y473418D01*
X175419Y473914D01*
X174500Y474097D01*
D02*
G37*
G36*
X172500D02*
X171581Y473914D01*
X170383Y473418D01*
X169305Y472698D01*
X168388Y471782D01*
X167668Y470704D01*
X167172Y469506D01*
X166989Y468587D01*
X172500D01*
Y474097D01*
D02*
G37*
G36*
X180011Y466587D02*
X174500D01*
Y461076D01*
X175419Y461259D01*
X176617Y461755D01*
X177695Y462475D01*
X178612Y463392D01*
X179332Y464469D01*
X179828Y465667D01*
X180011Y466587D01*
D02*
G37*
G36*
X172500D02*
X166989D01*
X167172Y465667D01*
X167668Y464469D01*
X168388Y463392D01*
X169305Y462475D01*
X170383Y461755D01*
X171581Y461259D01*
X172500Y461076D01*
Y466587D01*
D02*
G37*
G36*
X193928Y458650D02*
X192757D01*
X191625Y458346D01*
X190611Y457761D01*
X189783Y456932D01*
X189197Y455918D01*
X188894Y454786D01*
Y453615D01*
X189197Y452484D01*
X189783Y451469D01*
X190611Y450641D01*
X191625Y450055D01*
X192757Y449752D01*
X193928D01*
X195060Y450055D01*
X196074Y450641D01*
X196903Y451469D01*
X197488Y452484D01*
X197791Y453615D01*
Y454786D01*
X197488Y455918D01*
X196903Y456932D01*
X196074Y457761D01*
X195060Y458346D01*
X193928Y458650D01*
D02*
G37*
G36*
X146608Y435315D02*
X145478D01*
X144387Y435022D01*
X143408Y434457D01*
X142609Y433659D01*
X142044Y432680D01*
X141752Y431589D01*
Y430459D01*
X142044Y429367D01*
X142609Y428389D01*
X143408Y427590D01*
X144387Y427025D01*
X145478Y426732D01*
X146608D01*
X147700Y427025D01*
X148678Y427590D01*
X149477Y428389D01*
X150042Y429367D01*
X150335Y430459D01*
Y431589D01*
X150042Y432680D01*
X149477Y433659D01*
X148678Y434457D01*
X147700Y435022D01*
X146608Y435315D01*
D02*
G37*
G36*
X138789Y432903D02*
X126526D01*
Y420640D01*
X138789D01*
Y432903D01*
D02*
G37*
G36*
X184472Y422083D02*
X182209D01*
Y418539D01*
X184472D01*
Y422083D01*
D02*
G37*
G36*
X180209D02*
X177945D01*
Y418539D01*
X180209D01*
Y422083D01*
D02*
G37*
G36*
X226020D02*
X224012D01*
Y418500D01*
X226020D01*
Y422083D01*
D02*
G37*
G36*
X222012D02*
X220004D01*
Y418500D01*
X222012D01*
Y422083D01*
D02*
G37*
G36*
X184472Y416539D02*
X182209D01*
Y412996D01*
X184472D01*
Y416539D01*
D02*
G37*
G36*
X180209D02*
X177945D01*
Y412996D01*
X180209D01*
Y416539D01*
D02*
G37*
G36*
X226020Y416500D02*
X224012D01*
Y412917D01*
X226020D01*
Y416500D01*
D02*
G37*
G36*
X222012D02*
X220004D01*
Y412917D01*
X222012D01*
Y416500D01*
D02*
G37*
G36*
X133658Y417451D02*
Y412181D01*
X138927D01*
X138758Y413032D01*
X138280Y414186D01*
X137586Y415225D01*
X136702Y416109D01*
X135663Y416803D01*
X134508Y417282D01*
X133658Y417451D01*
D02*
G37*
G36*
X131658D02*
X130807Y417282D01*
X129652Y416803D01*
X128613Y416109D01*
X127729Y415225D01*
X127035Y414186D01*
X126557Y413032D01*
X126388Y412181D01*
X131658D01*
Y417451D01*
D02*
G37*
G36*
X216779Y409179D02*
X215500D01*
Y406177D01*
X216779D01*
Y409179D01*
D02*
G37*
G36*
X213500D02*
X212221D01*
Y406177D01*
X213500D01*
Y409179D01*
D02*
G37*
G36*
X138927Y410181D02*
X133658D01*
Y404911D01*
X134508Y405080D01*
X135663Y405559D01*
X136702Y406253D01*
X137586Y407137D01*
X138280Y408176D01*
X138758Y409330D01*
X138927Y410181D01*
D02*
G37*
G36*
X131658D02*
X126388D01*
X126557Y409330D01*
X127035Y408176D01*
X127729Y407137D01*
X128613Y406253D01*
X129652Y405559D01*
X130807Y405080D01*
X131658Y404911D01*
Y410181D01*
D02*
G37*
G36*
X214784Y421870D02*
X209193D01*
Y413130D01*
X210207D01*
X210351Y412780D01*
X208536Y410964D01*
X208240Y410522D01*
X208136Y410000D01*
Y409034D01*
X208131Y408973D01*
X208130Y408966D01*
X207433D01*
Y401388D01*
X211567D01*
Y408966D01*
X210870D01*
X210869Y408973D01*
X210864Y409034D01*
Y409435D01*
X212952Y411524D01*
X213248Y411966D01*
X213352Y412488D01*
Y413063D01*
X213357Y413124D01*
X213358Y413130D01*
X214784D01*
Y421870D01*
D02*
G37*
G36*
X216779Y404177D02*
X215500D01*
Y401175D01*
X216779D01*
Y404177D01*
D02*
G37*
G36*
X213500D02*
X212221D01*
Y401175D01*
X213500D01*
Y404177D01*
D02*
G37*
G36*
X249953Y403252D02*
X247000D01*
Y400791D01*
X249953D01*
Y403252D01*
D02*
G37*
G36*
X245000D02*
X242047D01*
Y400791D01*
X245000D01*
Y403252D01*
D02*
G37*
G36*
X189718Y473955D02*
X188463D01*
X187233Y473710D01*
X186074Y473230D01*
X185031Y472533D01*
X184144Y471646D01*
X183447Y470603D01*
X182967Y469444D01*
X182722Y468214D01*
Y466959D01*
X182967Y465729D01*
X183447Y464570D01*
X184144Y463527D01*
X185031Y462640D01*
X186074Y461943D01*
X187233Y461463D01*
X188463Y461219D01*
X189718D01*
X190948Y461463D01*
X192107Y461943D01*
X193150Y462640D01*
X194037Y463527D01*
X194734Y464570D01*
X194912Y464999D01*
X200942D01*
X207413Y458528D01*
Y446172D01*
X188265Y427024D01*
X187704Y426185D01*
X187507Y425194D01*
Y422858D01*
X187467Y422007D01*
X187453Y421870D01*
X187240D01*
Y421088D01*
X187237Y421071D01*
X187240Y421053D01*
Y413209D01*
X187507D01*
Y407807D01*
X183630D01*
Y403033D01*
X183626Y403016D01*
X183630Y402999D01*
Y402570D01*
X178014Y396954D01*
X177544D01*
X177437Y397260D01*
X177437Y397304D01*
Y404740D01*
X174870D01*
X174869Y404746D01*
X174864Y404807D01*
Y417539D01*
X174760Y418061D01*
X174464Y418504D01*
X174022Y418799D01*
X173500Y418903D01*
X172910D01*
X172849Y418908D01*
X172843Y418909D01*
Y421870D01*
X166740D01*
Y413209D01*
X172136D01*
Y404807D01*
X172131Y404746D01*
X172130Y404740D01*
X169563D01*
Y397304D01*
X169563Y397260D01*
X169456Y396954D01*
X138638D01*
X138554Y397379D01*
X138092Y398495D01*
X137420Y399499D01*
X136566Y400353D01*
X135562Y401024D01*
X134446Y401487D01*
X133261Y401722D01*
X132053D01*
X130869Y401487D01*
X129753Y401024D01*
X128749Y400353D01*
X127894Y399499D01*
X127224Y398495D01*
X126761Y397379D01*
X126526Y396194D01*
Y394987D01*
X126761Y393802D01*
X127224Y392686D01*
X127894Y391682D01*
X128749Y390827D01*
X129753Y390156D01*
X130869Y389694D01*
X132053Y389459D01*
X133261D01*
X134446Y389694D01*
X135562Y390156D01*
X136566Y390827D01*
X137420Y391682D01*
X138092Y392686D01*
X138554Y393802D01*
X138638Y394227D01*
X178579D01*
X179100Y394331D01*
X179543Y394626D01*
X186102Y401186D01*
X186398Y401628D01*
X186502Y402150D01*
Y402216D01*
X191553D01*
X191571Y402213D01*
X191588Y402216D01*
X192370D01*
Y402409D01*
X193936Y402507D01*
X195651D01*
X195934Y402497D01*
X196403Y402445D01*
X196797Y402375D01*
X197101Y402293D01*
X197310Y402209D01*
X197418Y402142D01*
X197428Y402132D01*
X197433Y402102D01*
Y401388D01*
X198215D01*
X198232Y401384D01*
X198250Y401388D01*
X201567D01*
Y403745D01*
X201807Y404105D01*
X202004Y405094D01*
X201807Y406084D01*
X201567Y406445D01*
Y407447D01*
X201890Y407581D01*
X202054Y407417D01*
X202107Y407355D01*
X202193Y407240D01*
X202263Y407132D01*
X202319Y407031D01*
X202362Y406936D01*
X202393Y406848D01*
X202413Y406765D01*
X202425Y406687D01*
X202431Y406571D01*
X202433Y406562D01*
Y401388D01*
X206567D01*
Y408966D01*
X204838D01*
X204828Y408969D01*
X204712Y408975D01*
X204634Y408987D01*
X204552Y409007D01*
X204464Y409038D01*
X204369Y409081D01*
X204267Y409136D01*
X204159Y409207D01*
X204045Y409293D01*
X203983Y409345D01*
X203269Y410059D01*
Y413141D01*
X203275Y413202D01*
X203276Y413209D01*
X204760D01*
Y419465D01*
X204762Y419475D01*
X204768Y419591D01*
X204780Y419669D01*
X204800Y419751D01*
X204831Y419839D01*
X204874Y419934D01*
X204930Y420036D01*
X205000Y420144D01*
X205086Y420258D01*
X205139Y420320D01*
X209755Y424936D01*
X231889D01*
X234736Y422088D01*
Y407464D01*
X230690Y403418D01*
X230628Y403365D01*
X230514Y403280D01*
X230406Y403209D01*
X230304Y403153D01*
X230209Y403111D01*
X230121Y403080D01*
X230039Y403059D01*
X229961Y403048D01*
X229845Y403042D01*
X229835Y403039D01*
X224760D01*
Y396543D01*
X232240D01*
Y400635D01*
X232243Y400644D01*
X232248Y400760D01*
X232260Y400838D01*
X232281Y400921D01*
X232312Y401009D01*
X232354Y401103D01*
X232410Y401205D01*
X232480Y401313D01*
X232566Y401428D01*
X232620Y401490D01*
X237064Y405935D01*
X237360Y406377D01*
X237464Y406899D01*
Y422653D01*
X237360Y423175D01*
X237064Y423618D01*
X233418Y427264D01*
X232975Y427560D01*
X232453Y427664D01*
X209190D01*
X208668Y427560D01*
X208226Y427264D01*
X203211Y422249D01*
X203148Y422196D01*
X203034Y422110D01*
X202925Y422040D01*
X202824Y421984D01*
X202729Y421941D01*
X202641Y421911D01*
X202559Y421890D01*
X202481Y421878D01*
X202365Y421873D01*
X202355Y421870D01*
X199051D01*
Y413209D01*
X200536D01*
X200537Y413203D01*
X200542Y413141D01*
Y409494D01*
X200577Y409317D01*
X200290Y408966D01*
X198250D01*
X198232Y408970D01*
X198215Y408966D01*
X197433D01*
Y408247D01*
X197419Y408146D01*
X197414Y408135D01*
X197378Y408095D01*
X197270Y408019D01*
X197069Y407926D01*
X196773Y407835D01*
X196399Y407759D01*
X195582Y407682D01*
X192930D01*
X192682Y407689D01*
Y413209D01*
X192949D01*
Y421053D01*
X192952Y421071D01*
X192949Y421088D01*
Y421870D01*
X192770D01*
X192682Y423391D01*
Y424123D01*
X211829Y443271D01*
X212390Y444110D01*
X212587Y445100D01*
Y459600D01*
X212390Y460590D01*
X211829Y461429D01*
X203843Y469416D01*
X203003Y469977D01*
X202013Y470174D01*
X194912D01*
X194734Y470603D01*
X194037Y471646D01*
X193150Y472533D01*
X192107Y473230D01*
X190948Y473710D01*
X189718Y473955D01*
D02*
G37*
G36*
X249953Y398791D02*
X247000D01*
Y396331D01*
X249953D01*
Y398791D01*
D02*
G37*
G36*
X245000D02*
X242047D01*
Y396331D01*
X245000D01*
Y398791D01*
D02*
G37*
G36*
X214102Y400224D02*
X208000D01*
Y395500D01*
X214102D01*
Y400224D01*
D02*
G37*
G36*
X206000D02*
X199898D01*
Y395500D01*
X206000D01*
Y400224D01*
D02*
G37*
G36*
X192583Y396996D02*
X189000D01*
Y394988D01*
X192583D01*
Y396996D01*
D02*
G37*
G36*
X187000D02*
X183417D01*
Y394988D01*
X187000D01*
Y396996D01*
D02*
G37*
G36*
X192583Y392988D02*
X189000D01*
Y390980D01*
X192583D01*
Y392988D01*
D02*
G37*
G36*
X187000D02*
X183417D01*
Y390980D01*
X187000D01*
Y392988D01*
D02*
G37*
G36*
X214102Y393500D02*
X208000D01*
Y388776D01*
X214102D01*
Y393500D01*
D02*
G37*
G36*
X206000D02*
X199898D01*
Y388776D01*
X206000D01*
Y393500D01*
D02*
G37*
G36*
X249740Y389457D02*
X242260D01*
Y387579D01*
X242254Y387578D01*
X242193Y387572D01*
X232307D01*
X232246Y387578D01*
X232240Y387579D01*
Y389457D01*
X224760D01*
Y385193D01*
X224754Y385192D01*
X224693Y385186D01*
X216634D01*
X216573Y385192D01*
X216567Y385193D01*
Y387612D01*
X212433D01*
Y380033D01*
X216567D01*
Y382453D01*
X216573Y382454D01*
X216634Y382459D01*
X225622D01*
X226144Y382563D01*
X226586Y382859D01*
X226688Y382961D01*
X232240D01*
Y384839D01*
X232246Y384840D01*
X232307Y384845D01*
X242193D01*
X242254Y384840D01*
X242260Y384839D01*
Y382961D01*
X249740D01*
Y389457D01*
D02*
G37*
G36*
X133261Y386132D02*
X132053D01*
X130869Y385896D01*
X129753Y385434D01*
X128749Y384763D01*
X127894Y383909D01*
X127224Y382904D01*
X126761Y381788D01*
X126526Y380604D01*
Y379396D01*
X126761Y378211D01*
X127224Y377095D01*
X127894Y376091D01*
X128749Y375237D01*
X129753Y374566D01*
X130869Y374104D01*
X132053Y373868D01*
X133261D01*
X134446Y374104D01*
X135562Y374566D01*
X136566Y375237D01*
X137420Y376091D01*
X138092Y377095D01*
X138554Y378211D01*
X138789Y379396D01*
Y380604D01*
X138554Y381788D01*
X138092Y382904D01*
X137420Y383909D01*
X136566Y384763D01*
X135562Y385434D01*
X134446Y385896D01*
X133261Y386132D01*
D02*
G37*
G36*
X188260Y372150D02*
X186193D01*
Y369000D01*
X188260D01*
Y372150D01*
D02*
G37*
G36*
X184193D02*
X182126D01*
Y369000D01*
X184193D01*
Y372150D01*
D02*
G37*
G36*
X229752Y371953D02*
X227291D01*
Y369000D01*
X229752D01*
Y371953D01*
D02*
G37*
G36*
X225291D02*
X222831D01*
Y369000D01*
X225291D01*
Y371953D01*
D02*
G37*
G36*
X211567Y387612D02*
X207433D01*
Y380033D01*
X208130D01*
X208131Y380027D01*
X208136Y379966D01*
Y377509D01*
X208240Y376987D01*
X208536Y376544D01*
X211345Y373735D01*
Y371807D01*
X211340Y371746D01*
X211339Y371740D01*
X209461D01*
Y364260D01*
X215957D01*
Y371740D01*
X214079D01*
X214078Y371746D01*
X214072Y371807D01*
Y374300D01*
X213968Y374822D01*
X213673Y375264D01*
X210864Y378073D01*
Y379966D01*
X210869Y380027D01*
X210870Y380033D01*
X211567D01*
Y387612D01*
D02*
G37*
G36*
X229752Y367000D02*
X227291D01*
Y364047D01*
X229752D01*
Y367000D01*
D02*
G37*
G36*
X225291D02*
X222831D01*
Y364047D01*
X225291D01*
Y367000D01*
D02*
G37*
G36*
X188260Y367000D02*
X186193D01*
Y363850D01*
X188260D01*
Y367000D01*
D02*
G37*
G36*
X184193D02*
X182126D01*
Y363850D01*
X184193D01*
Y367000D01*
D02*
G37*
G36*
X281858Y346424D02*
X280398D01*
Y345200D01*
X283813D01*
X283431Y345773D01*
X282709Y346255D01*
X281858Y346424D01*
D02*
G37*
G36*
X278398D02*
X276937D01*
X276086Y346255D01*
X275364Y345773D01*
X274982Y345200D01*
X278398D01*
Y346424D01*
D02*
G37*
G36*
X263152Y348304D02*
X261046D01*
Y344800D01*
X263152D01*
Y348304D01*
D02*
G37*
G36*
X259046D02*
X256939D01*
Y344800D01*
X259046D01*
Y348304D01*
D02*
G37*
G36*
X283813Y343200D02*
X280398D01*
Y341976D01*
X281858D01*
X282709Y342145D01*
X283431Y342628D01*
X283813Y343200D01*
D02*
G37*
G36*
X278398D02*
X274982D01*
X275364Y342628D01*
X276086Y342145D01*
X276937Y341976D01*
X278398D01*
Y343200D01*
D02*
G37*
G36*
X263152Y342800D02*
X261046D01*
Y339296D01*
X263152D01*
Y342800D01*
D02*
G37*
G36*
X259046D02*
X256939D01*
Y339296D01*
X259046D01*
Y342800D01*
D02*
G37*
G36*
X177437Y390961D02*
X169563D01*
Y383480D01*
X177437D01*
Y385850D01*
X177443Y385851D01*
X177504Y385857D01*
X195538D01*
X197022Y384372D01*
X196913Y383823D01*
Y372847D01*
X196003Y371937D01*
X193953D01*
Y369886D01*
X193953Y369886D01*
X193953Y369886D01*
Y369862D01*
X193950Y369852D01*
X193928Y369397D01*
X193865Y368980D01*
X193760Y368558D01*
X193610Y368130D01*
X193414Y367696D01*
X193172Y367255D01*
X192881Y366807D01*
X192541Y366354D01*
X192292Y366061D01*
X185171Y358940D01*
X184610Y358100D01*
X184413Y357110D01*
Y336567D01*
X182465D01*
Y335864D01*
X179765D01*
X177518Y338111D01*
X177663Y338461D01*
X179791D01*
Y344248D01*
X171209D01*
Y338461D01*
X174430D01*
X174431Y338455D01*
X174436Y338393D01*
Y337900D01*
X174540Y337378D01*
X174836Y336936D01*
X177696Y334075D01*
X177562Y333752D01*
X176500D01*
Y331646D01*
X180004D01*
Y333136D01*
X182465D01*
Y332433D01*
X184088D01*
X184314Y332083D01*
X184283Y332006D01*
X184166Y331815D01*
X184057Y331698D01*
X183957Y331631D01*
X183844Y331591D01*
X183614Y331567D01*
X182465D01*
Y327433D01*
X185715D01*
X185897Y327312D01*
X185986Y326836D01*
X185946Y326780D01*
X182252D01*
Y325500D01*
X192126D01*
Y326780D01*
X188432D01*
X188392Y326836D01*
X188481Y327312D01*
X188663Y327433D01*
X191913D01*
Y331567D01*
X190764D01*
X190534Y331591D01*
X190421Y331631D01*
X190321Y331698D01*
X190212Y331815D01*
X190095Y332006D01*
X190064Y332083D01*
X190290Y332433D01*
X191913D01*
Y334639D01*
X197511Y340236D01*
X207952D01*
X208274Y339914D01*
X209004Y339612D01*
X209795D01*
X210526Y339914D01*
X211086Y340474D01*
X211388Y341205D01*
Y341996D01*
X211086Y342726D01*
X210526Y343285D01*
X209795Y343588D01*
X209004D01*
X208274Y343285D01*
X207952Y342964D01*
X196947D01*
X196425Y342860D01*
X195982Y342564D01*
X189985Y336567D01*
X189587D01*
Y356039D01*
X196011Y362462D01*
X196662Y363021D01*
X197055Y363311D01*
X197431Y363555D01*
X197779Y363748D01*
X198098Y363891D01*
X198386Y363987D01*
X198640Y364041D01*
X198921Y364062D01*
X198926Y364063D01*
X199661D01*
Y364788D01*
X199661Y364788D01*
X199661Y364788D01*
Y364911D01*
X199663Y364921D01*
X199661Y364926D01*
Y368278D01*
X201329Y369946D01*
X201890Y370786D01*
X202087Y371776D01*
Y380024D01*
X202433Y380033D01*
X202437Y380033D01*
X206567D01*
Y387612D01*
X202433D01*
Y383833D01*
X202087Y383823D01*
X201890Y384813D01*
X201567Y385297D01*
Y387612D01*
X197639D01*
X197067Y388185D01*
X196624Y388480D01*
X196102Y388584D01*
X177504D01*
X177443Y388589D01*
X177437Y388590D01*
Y390961D01*
D02*
G37*
G36*
X262896Y338783D02*
X260888D01*
Y335200D01*
X262896D01*
Y338783D01*
D02*
G37*
G36*
X258888D02*
X256880D01*
Y335200D01*
X258888D01*
Y338783D01*
D02*
G37*
G36*
X146472Y343701D02*
X145300D01*
X144169Y343398D01*
X143154Y342812D01*
X142326Y341984D01*
X141740Y340969D01*
X141437Y339838D01*
Y338666D01*
X141740Y337535D01*
X142326Y336520D01*
X143154Y335692D01*
X144169Y335106D01*
X145300Y334803D01*
X146472D01*
X147603Y335106D01*
X148617Y335692D01*
X149446Y336520D01*
X150031Y337535D01*
X150335Y338666D01*
Y339838D01*
X150031Y340969D01*
X149446Y341984D01*
X148617Y342812D01*
X147603Y343398D01*
X146472Y343701D01*
D02*
G37*
G36*
X174500Y333752D02*
X170996D01*
Y331646D01*
X174500D01*
Y333752D01*
D02*
G37*
G36*
X281858Y331424D02*
X280398D01*
Y330200D01*
X283813D01*
X283431Y330772D01*
X282709Y331255D01*
X281858Y331424D01*
D02*
G37*
G36*
X278398D02*
X276937D01*
X276086Y331255D01*
X275364Y330772D01*
X274982Y330200D01*
X278398D01*
Y331424D01*
D02*
G37*
G36*
X262896Y333200D02*
X260888D01*
Y329617D01*
X262896D01*
Y333200D01*
D02*
G37*
G36*
X258888D02*
X256880D01*
Y329617D01*
X258888D01*
Y333200D01*
D02*
G37*
G36*
X180004Y329646D02*
X176500D01*
Y327539D01*
X180004D01*
Y329646D01*
D02*
G37*
G36*
X174500D02*
X170996D01*
Y327539D01*
X174500D01*
Y329646D01*
D02*
G37*
G36*
X283813Y328200D02*
X280398D01*
Y326976D01*
X281858D01*
X282709Y327145D01*
X283431Y327627D01*
X283813Y328200D01*
D02*
G37*
G36*
X278398D02*
X274982D01*
X275364Y327627D01*
X276086Y327145D01*
X276937Y326976D01*
X278398D01*
Y328200D01*
D02*
G37*
G36*
X215748Y331799D02*
X211811D01*
Y325500D01*
X215748D01*
Y331799D01*
D02*
G37*
G36*
X209811D02*
X205874D01*
Y325500D01*
X209811D01*
Y331799D01*
D02*
G37*
G36*
X272300Y321883D02*
X270292D01*
Y318300D01*
X272300D01*
Y321883D01*
D02*
G37*
G36*
X268292D02*
X266284D01*
Y318300D01*
X268292D01*
Y321883D01*
D02*
G37*
G36*
X215748Y323500D02*
X211811D01*
Y317201D01*
X215748D01*
Y323500D01*
D02*
G37*
G36*
X209811D02*
X205874D01*
Y317201D01*
X209811D01*
Y323500D01*
D02*
G37*
G36*
X174500Y317354D02*
X170996D01*
Y315248D01*
X174500D01*
Y317354D01*
D02*
G37*
G36*
X133127Y325778D02*
X131873D01*
X130642Y325533D01*
X129484Y325053D01*
X128441Y324356D01*
X127554Y323469D01*
X126857Y322426D01*
X126377Y321267D01*
X126132Y320037D01*
Y318782D01*
X126377Y317552D01*
X126857Y316393D01*
X127554Y315350D01*
X128441Y314463D01*
X129484Y313766D01*
X130642Y313286D01*
X131873Y313041D01*
X133127D01*
X134358Y313286D01*
X135516Y313766D01*
X136559Y314463D01*
X137446Y315350D01*
X138143Y316393D01*
X138623Y317552D01*
X138868Y318782D01*
Y320037D01*
X138623Y321267D01*
X138143Y322426D01*
X137446Y323469D01*
X136559Y324356D01*
X135516Y325053D01*
X134358Y325533D01*
X133127Y325778D01*
D02*
G37*
G36*
X272300Y316300D02*
X270292D01*
Y312717D01*
X272300D01*
Y316300D01*
D02*
G37*
G36*
X268292D02*
X266284D01*
Y312717D01*
X268292D01*
Y316300D01*
D02*
G37*
G36*
X286346Y303180D02*
X283344D01*
Y301900D01*
X286346D01*
Y303180D01*
D02*
G37*
G36*
Y299900D02*
X283344D01*
Y298621D01*
X286346D01*
Y299900D01*
D02*
G37*
G36*
X203949Y300331D02*
X198240D01*
Y297370D01*
X198234Y297369D01*
X198173Y297364D01*
X193197D01*
X193136Y297369D01*
X193130Y297370D01*
Y299937D01*
X185650D01*
Y292063D01*
X193130D01*
Y294630D01*
X193136Y294631D01*
X193197Y294636D01*
X198173D01*
X198234Y294631D01*
X198240Y294630D01*
Y291669D01*
X203949D01*
Y300331D01*
D02*
G37*
G36*
X213906Y300543D02*
Y297000D01*
X215972D01*
Y300543D01*
X213906D01*
D02*
G37*
G36*
X215972Y295000D02*
X213906D01*
Y291457D01*
X215972D01*
Y295000D01*
D02*
G37*
G36*
X146472Y283701D02*
X145300D01*
X144169Y283398D01*
X143154Y282812D01*
X142326Y281984D01*
X141740Y280969D01*
X141437Y279838D01*
Y278666D01*
X141740Y277535D01*
X142326Y276520D01*
X143154Y275692D01*
X144169Y275106D01*
X145300Y274803D01*
X146472D01*
X147603Y275106D01*
X148617Y275692D01*
X149446Y276520D01*
X150031Y277535D01*
X150335Y278666D01*
Y279838D01*
X150031Y280969D01*
X149446Y281984D01*
X148617Y282812D01*
X147603Y283398D01*
X146472Y283701D01*
D02*
G37*
G36*
X133127Y281368D02*
X131873D01*
X130642Y281123D01*
X129484Y280643D01*
X128441Y279946D01*
X127554Y279059D01*
X126857Y278016D01*
X126377Y276857D01*
X126132Y275627D01*
Y274373D01*
X126377Y273143D01*
X126857Y271984D01*
X127554Y270940D01*
X128441Y270054D01*
X129484Y269357D01*
X130642Y268877D01*
X131873Y268632D01*
X133127D01*
X134358Y268877D01*
X135516Y269357D01*
X136559Y270054D01*
X137446Y270940D01*
X138143Y271984D01*
X138623Y273143D01*
X138868Y274373D01*
Y275627D01*
X138623Y276857D01*
X138143Y278016D01*
X137446Y279059D01*
X136559Y279946D01*
X135516Y280643D01*
X134358Y281123D01*
X133127Y281368D01*
D02*
G37*
G36*
X267583Y258020D02*
X264000D01*
Y256012D01*
X267583D01*
Y258020D01*
D02*
G37*
G36*
X262000D02*
X258417D01*
Y256012D01*
X262000D01*
Y258020D01*
D02*
G37*
G36*
X192917Y255020D02*
X192567Y255020D01*
X189193D01*
Y252012D01*
Y249004D01*
X192567D01*
X192776Y249004D01*
X193126Y249004D01*
X196500D01*
Y252012D01*
X197500D01*
D01*
X196500D01*
Y255020D01*
X193126D01*
X192917Y255020D01*
D02*
G37*
G36*
X183610D02*
X183260Y255020D01*
X179886D01*
Y252012D01*
Y249004D01*
X183260D01*
X183468Y249004D01*
X183818Y249004D01*
X187193D01*
Y252012D01*
Y255020D01*
X183818D01*
X183610Y255020D01*
D02*
G37*
G36*
X198500Y255020D02*
Y253012D01*
X202083D01*
Y255020D01*
X198500D01*
D02*
G37*
G36*
X168500Y254961D02*
X164996D01*
Y252854D01*
X168500D01*
Y254961D01*
D02*
G37*
G36*
X267583Y254012D02*
X264000D01*
Y252004D01*
X267583D01*
Y254012D01*
D02*
G37*
G36*
X262000D02*
X258417D01*
Y252004D01*
X262000D01*
Y254012D01*
D02*
G37*
G36*
X202083Y251012D02*
X198500D01*
Y249004D01*
X202083D01*
Y251012D01*
D02*
G37*
G36*
X174303Y255020D02*
X173978Y254961D01*
X173953Y254961D01*
X170500D01*
Y251854D01*
Y248748D01*
X174004D01*
Y248881D01*
X174303Y249004D01*
X174354Y249004D01*
X177886D01*
Y252012D01*
Y255020D01*
X174329D01*
X174303Y255020D01*
D02*
G37*
G36*
X168500Y250854D02*
X164996D01*
Y248748D01*
X168500D01*
Y250854D01*
D02*
G37*
G36*
X190996Y231583D02*
X188988D01*
Y228000D01*
X190996D01*
Y231583D01*
D02*
G37*
G36*
X186988D02*
X184980D01*
Y228000D01*
X186988D01*
Y231583D01*
D02*
G37*
G36*
X345857Y226240D02*
X339361D01*
Y224090D01*
X339354Y224089D01*
X339293Y224084D01*
X334054D01*
X333993Y224089D01*
X333987Y224090D01*
Y224787D01*
X328081D01*
Y220654D01*
X333987D01*
Y221350D01*
X333993Y221351D01*
X334054Y221357D01*
X339293D01*
X339354Y221351D01*
X339361Y221350D01*
Y218760D01*
X345857D01*
Y226240D01*
D02*
G37*
G36*
X375250Y226437D02*
X367770D01*
Y223870D01*
X367764Y223869D01*
X367703Y223864D01*
X359507D01*
X359446Y223869D01*
X359439Y223870D01*
Y226240D01*
X352943D01*
Y218760D01*
X359439D01*
Y221130D01*
X359446Y221131D01*
X359507Y221136D01*
X367703D01*
X367764Y221131D01*
X367770Y221130D01*
Y218563D01*
X375250D01*
Y226437D01*
D02*
G37*
G36*
X190996Y226000D02*
X188988D01*
Y222417D01*
X190996D01*
Y226000D01*
D02*
G37*
G36*
X186988D02*
X184980D01*
Y222417D01*
X186988D01*
Y226000D01*
D02*
G37*
G36*
X178858Y222646D02*
X176594D01*
Y220579D01*
X178858D01*
Y222646D01*
D02*
G37*
G36*
X174594D02*
X172331D01*
Y220579D01*
X174594D01*
Y222646D01*
D02*
G37*
G36*
X165669D02*
X163406D01*
Y220579D01*
X165669D01*
Y222646D01*
D02*
G37*
G36*
X161406D02*
X159142D01*
Y220579D01*
X161406D01*
Y222646D01*
D02*
G37*
G36*
X325932Y221220D02*
X323766D01*
Y219941D01*
X325932D01*
Y221220D01*
D02*
G37*
G36*
X321766D02*
X319601D01*
Y219941D01*
X321766D01*
Y221220D01*
D02*
G37*
G36*
X325932Y217941D02*
X323766D01*
Y216661D01*
X325932D01*
Y217941D01*
D02*
G37*
G36*
X321766D02*
X319601D01*
Y216661D01*
X321766D01*
Y217941D01*
D02*
G37*
G36*
X146608Y220543D02*
X145478D01*
X144387Y220251D01*
X143408Y219686D01*
X142609Y218887D01*
X142044Y217908D01*
X141752Y216817D01*
Y215687D01*
X142044Y214596D01*
X142609Y213617D01*
X143408Y212818D01*
X144387Y212253D01*
X145478Y211961D01*
X146608D01*
X147700Y212253D01*
X148678Y212818D01*
X149477Y213617D01*
X150042Y214596D01*
X150335Y215687D01*
Y216817D01*
X150042Y217908D01*
X149477Y218887D01*
X148678Y219686D01*
X147700Y220251D01*
X146608Y220543D01*
D02*
G37*
G36*
X194104Y209152D02*
X190600D01*
Y207046D01*
X194104D01*
Y209152D01*
D02*
G37*
G36*
X188600D02*
X185096D01*
Y207046D01*
X188600D01*
Y209152D01*
D02*
G37*
G36*
X203683Y208896D02*
X200100D01*
Y206888D01*
X203683D01*
Y208896D01*
D02*
G37*
G36*
X198100D02*
X194517D01*
Y206888D01*
X198100D01*
Y208896D01*
D02*
G37*
G36*
X138789Y218132D02*
X126526D01*
Y205868D01*
X138789D01*
Y218132D01*
D02*
G37*
G36*
X345857Y205740D02*
X339361D01*
Y203480D01*
X339354Y203479D01*
X339293Y203474D01*
X334054D01*
X333993Y203479D01*
X333987Y203480D01*
Y204177D01*
X328081D01*
Y200043D01*
X333987D01*
Y200740D01*
X333993Y200741D01*
X334054Y200747D01*
X339293D01*
X339354Y200741D01*
X339361Y200740D01*
Y198260D01*
X345857D01*
Y205740D01*
D02*
G37*
G36*
X375250Y205937D02*
X367770D01*
Y203370D01*
X367764Y203369D01*
X367703Y203364D01*
X359507D01*
X359446Y203369D01*
X359439Y203370D01*
Y205740D01*
X352943D01*
Y198260D01*
X359439D01*
Y200630D01*
X359446Y200631D01*
X359507Y200636D01*
X367703D01*
X367764Y200631D01*
X367770Y200630D01*
Y198063D01*
X375250D01*
Y205937D01*
D02*
G37*
G36*
X194104Y205046D02*
X190600D01*
Y202939D01*
X194104D01*
Y205046D01*
D02*
G37*
G36*
X188600D02*
X185096D01*
Y202939D01*
X188600D01*
Y205046D01*
D02*
G37*
G36*
X203683Y204888D02*
X200100D01*
Y202880D01*
X203683D01*
Y204888D01*
D02*
G37*
G36*
X198100D02*
X194517D01*
Y202880D01*
X198100D01*
Y204888D01*
D02*
G37*
G36*
X325932Y200610D02*
X323766D01*
Y199331D01*
X325932D01*
Y200610D01*
D02*
G37*
G36*
X321766D02*
X319601D01*
Y199331D01*
X321766D01*
Y200610D01*
D02*
G37*
G36*
X325932Y197331D02*
X323766D01*
Y196051D01*
X325932D01*
Y197331D01*
D02*
G37*
G36*
X321766D02*
X319601D01*
Y196051D01*
X321766D01*
Y197331D01*
D02*
G37*
G36*
X211396Y198983D02*
X209388D01*
Y195400D01*
X211396D01*
Y198983D01*
D02*
G37*
G36*
X207388D02*
X205380D01*
Y195400D01*
X207388D01*
Y198983D01*
D02*
G37*
G36*
X264520Y198283D02*
X262512D01*
Y194700D01*
X264520D01*
Y198283D01*
D02*
G37*
G36*
X260512D02*
X258504D01*
Y194700D01*
X260512D01*
Y198283D01*
D02*
G37*
G36*
X133261Y202541D02*
X132053D01*
X130869Y202306D01*
X129753Y201844D01*
X128749Y201172D01*
X127894Y200318D01*
X127224Y199314D01*
X126761Y198198D01*
X126526Y197013D01*
Y195806D01*
X126761Y194621D01*
X127224Y193505D01*
X127894Y192501D01*
X128749Y191647D01*
X129753Y190975D01*
X130869Y190513D01*
X132053Y190278D01*
X133261D01*
X134446Y190513D01*
X135562Y190975D01*
X136566Y191647D01*
X137420Y192501D01*
X138092Y193505D01*
X138554Y194621D01*
X138789Y195806D01*
Y197013D01*
X138554Y198198D01*
X138092Y199314D01*
X137420Y200318D01*
X136566Y201172D01*
X135562Y201844D01*
X134446Y202306D01*
X133261Y202541D01*
D02*
G37*
G36*
X211396Y193400D02*
X209388D01*
Y189817D01*
X211396D01*
Y193400D01*
D02*
G37*
G36*
X207388D02*
X205380D01*
Y189817D01*
X207388D01*
Y193400D01*
D02*
G37*
G36*
X264520Y192700D02*
X261512D01*
X258504D01*
Y189204D01*
X258307D01*
Y185700D01*
X261413D01*
X264520D01*
Y189117D01*
X264520D01*
Y192700D01*
D02*
G37*
G36*
X375250Y185437D02*
X367770D01*
Y182870D01*
X367764Y182869D01*
X367703Y182864D01*
X359507D01*
X359446Y182869D01*
X359439Y182870D01*
Y185240D01*
X352943D01*
Y177760D01*
X359439D01*
Y180130D01*
X359446Y180131D01*
X359507Y180136D01*
X367703D01*
X367764Y180131D01*
X367770Y180130D01*
Y177563D01*
X375250D01*
Y185437D01*
D02*
G37*
G36*
X345857Y185240D02*
X339361D01*
Y182870D01*
X339354Y182869D01*
X339293Y182864D01*
X334054D01*
X333993Y182869D01*
X333987Y182870D01*
Y183567D01*
X328081D01*
Y179433D01*
X333987D01*
Y180130D01*
X333993Y180131D01*
X334054Y180136D01*
X339293D01*
X339354Y180131D01*
X339361Y180130D01*
Y177760D01*
X345857D01*
Y185240D01*
D02*
G37*
G36*
X264520Y183700D02*
X262413D01*
Y180196D01*
X264520D01*
Y183700D01*
D02*
G37*
G36*
X260413D02*
X258307D01*
Y180196D01*
X260413D01*
Y183700D01*
D02*
G37*
G36*
X321766Y180000D02*
X319601D01*
Y178720D01*
X321766D01*
Y180000D01*
D02*
G37*
G36*
X253696Y278388D02*
X252905D01*
X252174Y278085D01*
X251614Y277526D01*
X251312Y276796D01*
Y276005D01*
X251614Y275274D01*
X252174Y274714D01*
X252905Y274412D01*
X253560D01*
X269836Y258135D01*
Y253700D01*
X269940Y253178D01*
X270236Y252736D01*
X285536Y237436D01*
X285978Y237140D01*
X286500Y237036D01*
X368825D01*
X380859Y225002D01*
X381148Y224665D01*
X381268Y224502D01*
X381368Y224348D01*
X381443Y224212D01*
X381495Y224096D01*
X381526Y224002D01*
X381541Y223933D01*
X381548Y223827D01*
X381550Y223822D01*
Y218563D01*
X383920D01*
X383921Y218557D01*
X383926Y218496D01*
Y206004D01*
X383921Y205943D01*
X383920Y205937D01*
X381550D01*
Y198063D01*
X383920D01*
X383921Y198057D01*
X383926Y197996D01*
Y185504D01*
X383921Y185443D01*
X383920Y185437D01*
X381550D01*
Y177563D01*
X389030D01*
Y185437D01*
X386660D01*
X386659Y185443D01*
X386653Y185504D01*
Y197996D01*
X386659Y198057D01*
X386660Y198063D01*
X389030D01*
Y205937D01*
X386660D01*
X386659Y205943D01*
X386653Y206004D01*
Y218496D01*
X386659Y218557D01*
X386660Y218563D01*
X389030D01*
Y226437D01*
X383758D01*
X383748Y226439D01*
X383632Y226445D01*
X383554Y226457D01*
X383472Y226478D01*
X383383Y226508D01*
X383289Y226551D01*
X383187Y226607D01*
X383079Y226677D01*
X382965Y226763D01*
X382902Y226816D01*
X370354Y239364D01*
X369912Y239660D01*
X369390Y239764D01*
X287065D01*
X272564Y254265D01*
Y258700D01*
X272460Y259222D01*
X272164Y259664D01*
X255288Y276540D01*
Y276796D01*
X254985Y277526D01*
X254426Y278085D01*
X253696Y278388D01*
D02*
G37*
G36*
X321766Y176720D02*
X319601D01*
Y175441D01*
X321766D01*
Y176720D01*
D02*
G37*
G36*
X321153Y168924D02*
X310524D01*
Y167945D01*
X310510Y167820D01*
X310503Y167800D01*
X310491Y167782D01*
X310452Y167745D01*
X310359Y167689D01*
X310202Y167624D01*
X309976Y167563D01*
X309685Y167515D01*
X309474Y167496D01*
X307596D01*
Y167498D01*
X306814D01*
X306797Y167502D01*
X306780Y167498D01*
X305770D01*
X305677Y167517D01*
X305584Y167498D01*
X303758D01*
Y166028D01*
X303651Y165490D01*
X303758Y164953D01*
Y163482D01*
X305502D01*
X305698Y163444D01*
X309474D01*
X309685Y163425D01*
X309976Y163377D01*
X310202Y163316D01*
X310359Y163251D01*
X310452Y163195D01*
X310491Y163158D01*
X310503Y163140D01*
X310510Y163120D01*
X310524Y162995D01*
Y161050D01*
X317818D01*
Y147871D01*
X317468Y147825D01*
X317394Y148103D01*
X316808Y149118D01*
X315980Y149946D01*
X314965Y150531D01*
X313834Y150835D01*
X312662D01*
X311531Y150531D01*
X310516Y149946D01*
X309688Y149118D01*
X309102Y148103D01*
X308799Y146971D01*
Y145800D01*
X309102Y144669D01*
X309688Y143654D01*
X310516Y142826D01*
X311531Y142240D01*
X312662Y141937D01*
X313834D01*
X314965Y142240D01*
X315980Y142826D01*
X316808Y143654D01*
X317394Y144669D01*
X317468Y144946D01*
X317818Y144900D01*
Y139368D01*
X316873D01*
X315642Y139123D01*
X314484Y138643D01*
X313441Y137946D01*
X312554Y137059D01*
X311857Y136016D01*
X311377Y134857D01*
X311132Y133627D01*
Y132373D01*
X311377Y131142D01*
X311857Y129984D01*
X312554Y128941D01*
X313441Y128054D01*
X314484Y127357D01*
X315642Y126877D01*
X316873Y126632D01*
X318127D01*
X319357Y126877D01*
X320516Y127357D01*
X321559Y128054D01*
X322446Y128941D01*
X323143Y129984D01*
X323623Y131142D01*
X323868Y132373D01*
Y133627D01*
X323623Y134857D01*
X323143Y136016D01*
X322446Y137059D01*
X321559Y137946D01*
X320545Y138624D01*
Y161050D01*
X321153D01*
Y168924D01*
D02*
G37*
G36*
X257154D02*
X246524D01*
Y166860D01*
X246517Y166859D01*
X246456Y166854D01*
X244274D01*
Y167498D01*
X240435D01*
Y163483D01*
X240991D01*
Y142646D01*
X241095Y142124D01*
X241390Y141681D01*
X246637Y136435D01*
X246357Y136016D01*
X245877Y134857D01*
X245632Y133627D01*
Y132373D01*
X245877Y131142D01*
X246357Y129984D01*
X247054Y128941D01*
X247941Y128054D01*
X248984Y127357D01*
X250143Y126877D01*
X251373Y126632D01*
X252627D01*
X253857Y126877D01*
X255016Y127357D01*
X256060Y128054D01*
X256946Y128941D01*
X257643Y129984D01*
X258123Y131142D01*
X258368Y132373D01*
Y133627D01*
X258123Y134857D01*
X257643Y136016D01*
X256946Y137059D01*
X256060Y137946D01*
X255016Y138643D01*
X253857Y139123D01*
X252627Y139368D01*
X251373D01*
X250143Y139123D01*
X248984Y138643D01*
X248565Y138364D01*
X243718Y143210D01*
Y143792D01*
X244056Y143883D01*
X244188Y143654D01*
X245016Y142826D01*
X246031Y142240D01*
X247162Y141937D01*
X248334D01*
X249465Y142240D01*
X250480Y142826D01*
X251308Y143654D01*
X251894Y144669D01*
X252197Y145800D01*
Y146971D01*
X251894Y148103D01*
X251308Y149118D01*
X250480Y149946D01*
X249465Y150531D01*
X248334Y150835D01*
X247162D01*
X246031Y150531D01*
X245016Y149946D01*
X244188Y149118D01*
X244056Y148889D01*
X243718Y148979D01*
Y163483D01*
X244274D01*
Y164127D01*
X246456D01*
X246517Y164121D01*
X246524Y164120D01*
Y161050D01*
X257154D01*
Y168924D01*
D02*
G37*
G36*
X133658Y171498D02*
Y166228D01*
X138927D01*
X138758Y167079D01*
X138280Y168234D01*
X137586Y169273D01*
X136702Y170156D01*
X135663Y170851D01*
X134508Y171329D01*
X133658Y171498D01*
D02*
G37*
G36*
X131658D02*
X130807Y171329D01*
X129652Y170851D01*
X128613Y170156D01*
X127729Y169273D01*
X127035Y168234D01*
X126557Y167079D01*
X126388Y166228D01*
X131658D01*
Y171498D01*
D02*
G37*
G36*
X235132Y163971D02*
X234000D01*
Y162750D01*
X235132D01*
Y163971D01*
D02*
G37*
G36*
X232000D02*
X230868D01*
Y162750D01*
X232000D01*
Y163971D01*
D02*
G37*
G36*
X361455Y163971D02*
X360323D01*
Y162750D01*
X361455D01*
Y163971D01*
D02*
G37*
G36*
X358323D02*
X357191D01*
Y162750D01*
X358323D01*
Y163971D01*
D02*
G37*
G36*
X235132Y160750D02*
X234000D01*
Y159530D01*
X235132D01*
Y160750D01*
D02*
G37*
G36*
X232000D02*
X230868D01*
Y159530D01*
X232000D01*
Y160750D01*
D02*
G37*
G36*
X361455Y160750D02*
X360323D01*
Y159530D01*
X361455D01*
Y160750D01*
D02*
G37*
G36*
X358323D02*
X357191D01*
Y159530D01*
X358323D01*
Y160750D01*
D02*
G37*
G36*
X298455D02*
X297323D01*
Y159530D01*
X298455D01*
Y160750D01*
D02*
G37*
G36*
X295323D02*
X294191D01*
Y159530D01*
X295323D01*
Y160750D01*
D02*
G37*
G36*
X138927Y164228D02*
X133658D01*
Y158958D01*
X134508Y159128D01*
X135663Y159606D01*
X136702Y160300D01*
X137586Y161184D01*
X138280Y162223D01*
X138758Y163378D01*
X138927Y164228D01*
D02*
G37*
G36*
X131658D02*
X126388D01*
X126557Y163378D01*
X127035Y162223D01*
X127729Y161184D01*
X128613Y160300D01*
X129652Y159606D01*
X130807Y159128D01*
X131658Y158958D01*
Y164228D01*
D02*
G37*
G36*
X163132Y150835D02*
X162002D01*
X160910Y150542D01*
X159932Y149977D01*
X159133Y149178D01*
X158568Y148200D01*
X158276Y147108D01*
Y145978D01*
X158568Y144887D01*
X159133Y143908D01*
X159932Y143109D01*
X160910Y142544D01*
X162002Y142252D01*
X163132D01*
X164223Y142544D01*
X165202Y143109D01*
X166001Y143908D01*
X166566Y144887D01*
X166858Y145978D01*
Y147108D01*
X166566Y148200D01*
X166001Y149178D01*
X165202Y149977D01*
X164223Y150542D01*
X163132Y150835D01*
D02*
G37*
G36*
X274476Y168924D02*
X263846D01*
Y161050D01*
X267791D01*
X267792Y161044D01*
X267798Y160982D01*
Y139368D01*
X266963D01*
X265733Y139123D01*
X264574Y138643D01*
X263531Y137946D01*
X262644Y137059D01*
X261947Y136016D01*
X261467Y134857D01*
X261223Y133627D01*
Y132373D01*
X261467Y131142D01*
X261947Y129984D01*
X262644Y128941D01*
X263531Y128054D01*
X264574Y127357D01*
X265733Y126877D01*
X266963Y126632D01*
X268218D01*
X269448Y126877D01*
X270607Y127357D01*
X271650Y128054D01*
X272537Y128941D01*
X273234Y129984D01*
X273714Y131142D01*
X273959Y132373D01*
Y133627D01*
X273714Y134857D01*
X273234Y136016D01*
X272537Y137059D01*
X271650Y137946D01*
X270607Y138643D01*
X270525Y138677D01*
Y160982D01*
X270530Y161044D01*
X270531Y161050D01*
X274476D01*
Y168924D01*
D02*
G37*
G36*
X122727Y128382D02*
X121273D01*
X119847Y128098D01*
X118503Y127542D01*
X117294Y126734D01*
X116266Y125706D01*
X115458Y124497D01*
X114902Y123153D01*
X114618Y121727D01*
Y120273D01*
X114902Y118847D01*
X115458Y117503D01*
X116266Y116294D01*
X117294Y115266D01*
X118503Y114458D01*
X119847Y113902D01*
X121273Y113618D01*
X122727D01*
X124153Y113902D01*
X125497Y114458D01*
X126706Y115266D01*
X127734Y116294D01*
X128542Y117503D01*
X129098Y118847D01*
X129382Y120273D01*
Y121727D01*
X129098Y123153D01*
X128542Y124497D01*
X127734Y125706D01*
X126706Y126734D01*
X125497Y127542D01*
X124153Y128098D01*
X122727Y128382D01*
D02*
G37*
%LPD*%
G36*
X212984Y413918D02*
X212890Y413885D01*
X212808Y413830D01*
X212736Y413753D01*
X212676Y413654D01*
X212626Y413533D01*
X212588Y413390D01*
X212560Y413225D01*
X212544Y413038D01*
X212538Y412829D01*
X211438D01*
X211433Y413038D01*
X211416Y413225D01*
X211389Y413390D01*
X211350Y413533D01*
X211301Y413654D01*
X211240Y413753D01*
X211169Y413830D01*
X211086Y413885D01*
X210993Y413918D01*
X210888Y413929D01*
X213088D01*
X212984Y413918D01*
D02*
G37*
G36*
X210055Y409058D02*
X210072Y408871D01*
X210100Y408706D01*
X210138Y408563D01*
X210188Y408442D01*
X210248Y408343D01*
X210319Y408266D01*
X210402Y408211D01*
X210495Y408178D01*
X210600Y408167D01*
X208400D01*
X208505Y408178D01*
X208598Y408211D01*
X208681Y408266D01*
X208752Y408343D01*
X208812Y408442D01*
X208862Y408563D01*
X208900Y408706D01*
X208928Y408871D01*
X208945Y409058D01*
X208950Y409267D01*
X210050D01*
X210055Y409058D01*
D02*
G37*
G36*
X191848Y423906D02*
X191994Y421386D01*
X192040Y421211D01*
X192092Y421106D01*
X192149Y421071D01*
X188040D01*
X188098Y421106D01*
X188149Y421211D01*
X188195Y421386D01*
X188235Y421631D01*
X188268Y421946D01*
X188332Y423311D01*
X188344Y424571D01*
X191844D01*
X191848Y423906D01*
D02*
G37*
G36*
X204738Y421071D02*
X204591Y420915D01*
X204458Y420759D01*
X204342Y420604D01*
X204240Y420448D01*
X204155Y420293D01*
X204085Y420137D01*
X204030Y419982D01*
X203992Y419826D01*
X203968Y419671D01*
X203960Y419515D01*
X202405Y421071D01*
X202560Y421078D01*
X202716Y421102D01*
X202871Y421141D01*
X203027Y421195D01*
X203183Y421265D01*
X203338Y421351D01*
X203494Y421452D01*
X203649Y421568D01*
X203805Y421701D01*
X203960Y421848D01*
X204738Y421071D01*
D02*
G37*
G36*
X172054Y418535D02*
X172087Y418441D01*
X172142Y418359D01*
X172219Y418287D01*
X172318Y418227D01*
X172439Y418177D01*
X172582Y418139D01*
X172747Y418111D01*
X172934Y418095D01*
X173143Y418089D01*
Y416989D01*
X172934Y416984D01*
X172747Y416967D01*
X172582Y416940D01*
X172439Y416901D01*
X172318Y416852D01*
X172219Y416791D01*
X172142Y416720D01*
X172087Y416637D01*
X172054Y416544D01*
X172043Y416439D01*
Y418639D01*
X172054Y418535D01*
D02*
G37*
G36*
X202901Y413997D02*
X202808Y413964D01*
X202725Y413909D01*
X202654Y413832D01*
X202593Y413733D01*
X202544Y413612D01*
X202505Y413469D01*
X202478Y413304D01*
X202461Y413117D01*
X202456Y412908D01*
X201356D01*
X201350Y413117D01*
X201334Y413304D01*
X201306Y413469D01*
X201268Y413612D01*
X201218Y413733D01*
X201158Y413832D01*
X201086Y413909D01*
X201004Y413964D01*
X200910Y413997D01*
X200806Y414008D01*
X203006D01*
X202901Y413997D01*
D02*
G37*
G36*
X198232Y402187D02*
X198197Y402407D01*
X198092Y402604D01*
X197917Y402777D01*
X197672Y402928D01*
X197357Y403055D01*
X196973Y403159D01*
X196518Y403240D01*
X195993Y403298D01*
X194773Y403343D01*
X194406Y403341D01*
X191886Y403184D01*
X191711Y403134D01*
X191606Y403078D01*
X191571Y403016D01*
Y407008D01*
X191606Y406977D01*
X191711Y406949D01*
X191886Y406924D01*
X192131Y406903D01*
X193811Y406851D01*
X194802Y406846D01*
X195397Y406858D01*
X196518Y406963D01*
X196973Y407056D01*
X197357Y407175D01*
X197672Y407321D01*
X197917Y407493D01*
X198092Y407691D01*
X198197Y407916D01*
X198232Y408167D01*
Y402187D01*
D02*
G37*
G36*
X203388Y408797D02*
X203544Y408665D01*
X203699Y408548D01*
X203855Y408447D01*
X204010Y408362D01*
X204166Y408292D01*
X204321Y408237D01*
X204477Y408198D01*
X204632Y408175D01*
X204788Y408167D01*
X203233Y406611D01*
X203225Y406767D01*
X203201Y406923D01*
X203163Y407078D01*
X203108Y407234D01*
X203038Y407389D01*
X202953Y407545D01*
X202851Y407700D01*
X202735Y407856D01*
X202602Y408012D01*
X202455Y408167D01*
X203233Y408945D01*
X203388Y408797D01*
D02*
G37*
G36*
X174056Y404832D02*
X174072Y404645D01*
X174100Y404480D01*
X174138Y404337D01*
X174188Y404216D01*
X174248Y404117D01*
X174320Y404040D01*
X174402Y403985D01*
X174495Y403952D01*
X174600Y403941D01*
X172400D01*
X172504Y403952D01*
X172598Y403985D01*
X172680Y404040D01*
X172752Y404117D01*
X172812Y404216D01*
X172862Y404337D01*
X172900Y404480D01*
X172928Y404645D01*
X172944Y404832D01*
X172950Y405041D01*
X174050D01*
X174056Y404832D01*
D02*
G37*
G36*
X185944Y403007D02*
X185890Y402981D01*
X185843Y402938D01*
X185802Y402877D01*
X185767Y402799D01*
X185739Y402704D01*
X185716Y402592D01*
X185701Y402462D01*
X185691Y402314D01*
X185688Y402150D01*
X184588D01*
X184586Y402314D01*
X184548Y402799D01*
X184531Y402877D01*
X184510Y402938D01*
X184486Y402981D01*
X184459Y403007D01*
X184429Y403016D01*
X186004D01*
X185944Y403007D01*
D02*
G37*
G36*
X232219Y402240D02*
X232071Y402084D01*
X231939Y401929D01*
X231822Y401773D01*
X231721Y401618D01*
X231635Y401462D01*
X231565Y401307D01*
X231511Y401151D01*
X231472Y400995D01*
X231449Y400840D01*
X231441Y400684D01*
X229885Y402240D01*
X230041Y402248D01*
X230196Y402271D01*
X230352Y402310D01*
X230507Y402364D01*
X230663Y402434D01*
X230819Y402520D01*
X230974Y402621D01*
X231130Y402738D01*
X231285Y402870D01*
X231441Y403018D01*
X232219Y402240D01*
D02*
G37*
G36*
X243059Y385109D02*
X243048Y385213D01*
X243015Y385307D01*
X242960Y385389D01*
X242883Y385461D01*
X242784Y385521D01*
X242663Y385571D01*
X242520Y385609D01*
X242355Y385637D01*
X242168Y385653D01*
X241959Y385659D01*
Y386759D01*
X242168Y386764D01*
X242355Y386781D01*
X242520Y386808D01*
X242663Y386847D01*
X242784Y386896D01*
X242883Y386957D01*
X242960Y387028D01*
X243015Y387111D01*
X243048Y387204D01*
X243059Y387309D01*
Y385109D01*
D02*
G37*
G36*
X231452Y387204D02*
X231485Y387111D01*
X231540Y387028D01*
X231617Y386957D01*
X231716Y386896D01*
X231837Y386847D01*
X231980Y386808D01*
X232145Y386781D01*
X232332Y386764D01*
X232541Y386759D01*
Y385659D01*
X232332Y385653D01*
X232145Y385637D01*
X231980Y385609D01*
X231837Y385571D01*
X231716Y385521D01*
X231617Y385461D01*
X231540Y385389D01*
X231485Y385307D01*
X231452Y385213D01*
X231441Y385109D01*
Y387309D01*
X231452Y387204D01*
D02*
G37*
G36*
X225559Y383760D02*
X224459Y383273D01*
Y384373D01*
X224668Y384378D01*
X224855Y384395D01*
X225020Y384422D01*
X225163Y384461D01*
X225284Y384510D01*
X225383Y384571D01*
X225460Y384642D01*
X225515Y384725D01*
X225548Y384818D01*
X225559Y384923D01*
Y383760D01*
D02*
G37*
G36*
X215778Y384818D02*
X215811Y384725D01*
X215866Y384642D01*
X215944Y384571D01*
X216042Y384510D01*
X216163Y384461D01*
X216306Y384422D01*
X216472Y384395D01*
X216658Y384378D01*
X216867Y384373D01*
Y383273D01*
X216658Y383267D01*
X216472Y383251D01*
X216306Y383223D01*
X216163Y383185D01*
X216042Y383135D01*
X215944Y383075D01*
X215866Y383003D01*
X215811Y382921D01*
X215778Y382827D01*
X215768Y382723D01*
Y384923D01*
X215778Y384818D01*
D02*
G37*
G36*
X210495Y380822D02*
X210402Y380789D01*
X210319Y380734D01*
X210248Y380657D01*
X210188Y380558D01*
X210138Y380437D01*
X210100Y380294D01*
X210072Y380129D01*
X210055Y379942D01*
X210050Y379733D01*
X208950D01*
X208945Y379942D01*
X208928Y380129D01*
X208900Y380294D01*
X208862Y380437D01*
X208812Y380558D01*
X208752Y380657D01*
X208681Y380734D01*
X208598Y380789D01*
X208505Y380822D01*
X208400Y380833D01*
X210600D01*
X210495Y380822D01*
D02*
G37*
G36*
X213264Y371832D02*
X213281Y371645D01*
X213308Y371480D01*
X213347Y371337D01*
X213396Y371216D01*
X213457Y371117D01*
X213528Y371040D01*
X213611Y370985D01*
X213704Y370952D01*
X213809Y370941D01*
X211609D01*
X211713Y370952D01*
X211807Y370985D01*
X211889Y371040D01*
X211961Y371117D01*
X212021Y371216D01*
X212071Y371337D01*
X212109Y371480D01*
X212137Y371645D01*
X212153Y371832D01*
X212159Y372041D01*
X213259D01*
X213264Y371832D01*
D02*
G37*
G36*
X198232Y383535D02*
X198225Y383690D01*
X198201Y383846D01*
X198162Y384001D01*
X198108Y384157D01*
X198038Y384313D01*
X197952Y384468D01*
X197851Y384624D01*
X197735Y384779D01*
X197602Y384935D01*
X197455Y385090D01*
Y386646D01*
X197602Y386506D01*
X197735Y386397D01*
X197851Y386319D01*
X197952Y386273D01*
X198038Y386257D01*
X198108Y386273D01*
X198162Y386319D01*
X198201Y386397D01*
X198225Y386506D01*
X198232Y386646D01*
Y383535D01*
D02*
G37*
G36*
X176649Y388216D02*
X176682Y388122D01*
X176737Y388040D01*
X176814Y387968D01*
X176913Y387908D01*
X177034Y387858D01*
X177177Y387820D01*
X177342Y387792D01*
X177529Y387776D01*
X177738Y387770D01*
Y386670D01*
X177529Y386665D01*
X177342Y386648D01*
X177177Y386621D01*
X177034Y386582D01*
X176913Y386533D01*
X176814Y386472D01*
X176737Y386401D01*
X176682Y386318D01*
X176649Y386225D01*
X176638Y386120D01*
Y388320D01*
X176649Y388216D01*
D02*
G37*
G36*
X198862Y364862D02*
X198527Y364838D01*
X198174Y364763D01*
X197805Y364640D01*
X197420Y364466D01*
X197017Y364244D01*
X196598Y363971D01*
X196161Y363650D01*
X195239Y362858D01*
X194752Y362387D01*
X192277Y364862D01*
X192747Y365357D01*
X193168Y365852D01*
X193540Y366347D01*
X193861Y366842D01*
X194133Y367337D01*
X194356Y367832D01*
X194529Y368327D01*
X194653Y368822D01*
X194727Y369317D01*
X194752Y369812D01*
X198862Y364862D01*
D02*
G37*
G36*
X176795Y339249D02*
X176702Y339216D01*
X176620Y339161D01*
X176548Y339084D01*
X176488Y338985D01*
X176438Y338864D01*
X176400Y338721D01*
X176372Y338556D01*
X176356Y338369D01*
X176350Y338160D01*
X175250D01*
X175244Y338369D01*
X175228Y338556D01*
X175200Y338721D01*
X175162Y338864D01*
X175112Y338985D01*
X175052Y339084D01*
X174980Y339161D01*
X174898Y339216D01*
X174804Y339249D01*
X174700Y339260D01*
X176900D01*
X176795Y339249D01*
D02*
G37*
G36*
X188956Y333602D02*
X189009Y333008D01*
X189096Y332483D01*
X189219Y332028D01*
X189376Y331643D01*
X189569Y331328D01*
X189796Y331083D01*
X190059Y330908D01*
X190357Y330802D01*
X190689Y330767D01*
X183689D01*
X184021Y330802D01*
X184319Y330908D01*
X184581Y331083D01*
X184809Y331328D01*
X185002Y331643D01*
X185159Y332028D01*
X185282Y332483D01*
X185369Y333008D01*
X185422Y333602D01*
X185439Y334267D01*
X188939D01*
X188956Y333602D01*
D02*
G37*
G36*
X199040Y294900D02*
X199029Y295005D01*
X198996Y295098D01*
X198941Y295181D01*
X198864Y295252D01*
X198765Y295312D01*
X198644Y295362D01*
X198501Y295401D01*
X198336Y295428D01*
X198149Y295444D01*
X197940Y295450D01*
Y296550D01*
X198149Y296555D01*
X198336Y296572D01*
X198501Y296600D01*
X198644Y296638D01*
X198765Y296688D01*
X198864Y296748D01*
X198941Y296819D01*
X198996Y296902D01*
X199029Y296995D01*
X199040Y297100D01*
Y294900D01*
D02*
G37*
G36*
X192341Y296995D02*
X192375Y296902D01*
X192429Y296819D01*
X192507Y296748D01*
X192605Y296688D01*
X192727Y296638D01*
X192869Y296600D01*
X193035Y296572D01*
X193221Y296555D01*
X193430Y296550D01*
Y295450D01*
X193221Y295444D01*
X193035Y295428D01*
X192869Y295401D01*
X192727Y295362D01*
X192605Y295312D01*
X192507Y295252D01*
X192429Y295181D01*
X192375Y295098D01*
X192341Y295005D01*
X192331Y294900D01*
Y297100D01*
X192341Y296995D01*
D02*
G37*
G36*
X340160Y221620D02*
X340149Y221725D01*
X340116Y221818D01*
X340061Y221901D01*
X339984Y221972D01*
X339885Y222033D01*
X339764Y222082D01*
X339621Y222121D01*
X339456Y222148D01*
X339269Y222165D01*
X339060Y222170D01*
Y223270D01*
X339269Y223276D01*
X339456Y223292D01*
X339621Y223320D01*
X339764Y223358D01*
X339885Y223408D01*
X339984Y223468D01*
X340061Y223540D01*
X340116Y223622D01*
X340149Y223716D01*
X340160Y223820D01*
Y221620D01*
D02*
G37*
G36*
X333198Y223716D02*
X333231Y223622D01*
X333286Y223540D01*
X333363Y223468D01*
X333462Y223408D01*
X333583Y223358D01*
X333726Y223320D01*
X333891Y223292D01*
X334078Y223276D01*
X334287Y223270D01*
Y222170D01*
X334078Y222165D01*
X333891Y222148D01*
X333726Y222121D01*
X333583Y222082D01*
X333462Y222033D01*
X333363Y221972D01*
X333286Y221901D01*
X333231Y221818D01*
X333198Y221725D01*
X333187Y221620D01*
Y223820D01*
X333198Y223716D01*
D02*
G37*
G36*
X368569Y221400D02*
X368559Y221504D01*
X368526Y221598D01*
X368471Y221680D01*
X368393Y221752D01*
X368295Y221813D01*
X368174Y221862D01*
X368031Y221901D01*
X367865Y221928D01*
X367678Y221944D01*
X367470Y221950D01*
Y223050D01*
X367678Y223056D01*
X367865Y223072D01*
X368031Y223099D01*
X368174Y223138D01*
X368295Y223187D01*
X368393Y223248D01*
X368471Y223320D01*
X368526Y223402D01*
X368559Y223496D01*
X368569Y223600D01*
Y221400D01*
D02*
G37*
G36*
X358651Y223496D02*
X358684Y223402D01*
X358739Y223320D01*
X358816Y223248D01*
X358915Y223187D01*
X359036Y223138D01*
X359179Y223099D01*
X359344Y223072D01*
X359531Y223056D01*
X359740Y223050D01*
Y221950D01*
X359531Y221944D01*
X359344Y221928D01*
X359179Y221901D01*
X359036Y221862D01*
X358915Y221813D01*
X358816Y221752D01*
X358739Y221680D01*
X358684Y221598D01*
X358651Y221504D01*
X358640Y221400D01*
Y223600D01*
X358651Y223496D01*
D02*
G37*
G36*
X340160Y201010D02*
X340149Y201115D01*
X340116Y201208D01*
X340061Y201291D01*
X339984Y201362D01*
X339885Y201423D01*
X339764Y201472D01*
X339621Y201511D01*
X339456Y201538D01*
X339269Y201555D01*
X339060Y201560D01*
Y202660D01*
X339269Y202666D01*
X339456Y202682D01*
X339621Y202710D01*
X339764Y202748D01*
X339885Y202798D01*
X339984Y202858D01*
X340061Y202930D01*
X340116Y203012D01*
X340149Y203106D01*
X340160Y203210D01*
Y201010D01*
D02*
G37*
G36*
X333198Y203106D02*
X333231Y203012D01*
X333286Y202930D01*
X333363Y202858D01*
X333462Y202798D01*
X333583Y202748D01*
X333726Y202710D01*
X333891Y202682D01*
X334078Y202666D01*
X334287Y202660D01*
Y201560D01*
X334078Y201555D01*
X333891Y201538D01*
X333726Y201511D01*
X333583Y201472D01*
X333462Y201423D01*
X333363Y201362D01*
X333286Y201291D01*
X333231Y201208D01*
X333198Y201115D01*
X333187Y201010D01*
Y203210D01*
X333198Y203106D01*
D02*
G37*
G36*
X368569Y200900D02*
X368559Y201005D01*
X368526Y201098D01*
X368471Y201181D01*
X368393Y201252D01*
X368295Y201312D01*
X368174Y201362D01*
X368031Y201400D01*
X367865Y201428D01*
X367678Y201445D01*
X367470Y201450D01*
Y202550D01*
X367678Y202555D01*
X367865Y202572D01*
X368031Y202600D01*
X368174Y202638D01*
X368295Y202688D01*
X368393Y202748D01*
X368471Y202819D01*
X368526Y202902D01*
X368559Y202995D01*
X368569Y203100D01*
Y200900D01*
D02*
G37*
G36*
X358651Y202995D02*
X358684Y202902D01*
X358739Y202819D01*
X358816Y202748D01*
X358915Y202688D01*
X359036Y202638D01*
X359179Y202600D01*
X359344Y202572D01*
X359531Y202555D01*
X359740Y202550D01*
Y201450D01*
X359531Y201445D01*
X359344Y201428D01*
X359179Y201400D01*
X359036Y201362D01*
X358915Y201312D01*
X358816Y201252D01*
X358739Y201181D01*
X358684Y201098D01*
X358651Y201005D01*
X358640Y200900D01*
Y203100D01*
X358651Y202995D01*
D02*
G37*
G36*
X368569Y180400D02*
X368559Y180505D01*
X368526Y180598D01*
X368471Y180681D01*
X368393Y180752D01*
X368295Y180813D01*
X368174Y180862D01*
X368031Y180901D01*
X367865Y180928D01*
X367678Y180945D01*
X367470Y180950D01*
Y182050D01*
X367678Y182055D01*
X367865Y182072D01*
X368031Y182099D01*
X368174Y182138D01*
X368295Y182187D01*
X368393Y182248D01*
X368471Y182319D01*
X368526Y182402D01*
X368559Y182495D01*
X368569Y182600D01*
Y180400D01*
D02*
G37*
G36*
X358651Y182495D02*
X358684Y182402D01*
X358739Y182319D01*
X358816Y182248D01*
X358915Y182187D01*
X359036Y182138D01*
X359179Y182099D01*
X359344Y182072D01*
X359531Y182055D01*
X359740Y182050D01*
Y180950D01*
X359531Y180945D01*
X359344Y180928D01*
X359179Y180901D01*
X359036Y180862D01*
X358915Y180813D01*
X358816Y180752D01*
X358739Y180681D01*
X358684Y180598D01*
X358651Y180505D01*
X358640Y180400D01*
Y182600D01*
X358651Y182495D01*
D02*
G37*
G36*
X340160Y180400D02*
X340149Y180505D01*
X340116Y180598D01*
X340061Y180681D01*
X339984Y180752D01*
X339885Y180813D01*
X339764Y180862D01*
X339621Y180901D01*
X339456Y180928D01*
X339269Y180945D01*
X339060Y180950D01*
Y182050D01*
X339269Y182055D01*
X339456Y182072D01*
X339621Y182099D01*
X339764Y182138D01*
X339885Y182187D01*
X339984Y182248D01*
X340061Y182319D01*
X340116Y182402D01*
X340149Y182495D01*
X340160Y182600D01*
Y180400D01*
D02*
G37*
G36*
X333198Y182495D02*
X333231Y182402D01*
X333286Y182319D01*
X333363Y182248D01*
X333462Y182187D01*
X333583Y182138D01*
X333726Y182099D01*
X333891Y182072D01*
X334078Y182055D01*
X334287Y182050D01*
Y180950D01*
X334078Y180945D01*
X333891Y180928D01*
X333726Y180901D01*
X333583Y180862D01*
X333462Y180813D01*
X333363Y180752D01*
X333286Y180681D01*
X333231Y180598D01*
X333198Y180505D01*
X333187Y180400D01*
Y182600D01*
X333198Y182495D01*
D02*
G37*
G36*
X382308Y226268D02*
X382463Y226135D01*
X382619Y226019D01*
X382774Y225918D01*
X382930Y225832D01*
X383086Y225762D01*
X383241Y225708D01*
X383397Y225669D01*
X383552Y225645D01*
X383708Y225638D01*
X382349Y223885D01*
X382337Y224045D01*
X382302Y224212D01*
X382244Y224387D01*
X382162Y224570D01*
X382057Y224760D01*
X381929Y224958D01*
X381777Y225165D01*
X381404Y225600D01*
X381182Y225830D01*
X382152Y226415D01*
X382308Y226268D01*
D02*
G37*
G36*
X386285Y219351D02*
X386192Y219318D01*
X386109Y219263D01*
X386038Y219186D01*
X385977Y219087D01*
X385928Y218966D01*
X385889Y218823D01*
X385862Y218658D01*
X385845Y218471D01*
X385840Y218262D01*
X384740D01*
X384734Y218471D01*
X384718Y218658D01*
X384690Y218823D01*
X384652Y218966D01*
X384602Y219087D01*
X384542Y219186D01*
X384470Y219263D01*
X384388Y219318D01*
X384294Y219351D01*
X384190Y219362D01*
X386390D01*
X386285Y219351D01*
D02*
G37*
G36*
X385845Y206029D02*
X385862Y205842D01*
X385889Y205677D01*
X385928Y205534D01*
X385977Y205413D01*
X386038Y205314D01*
X386109Y205237D01*
X386192Y205182D01*
X386285Y205149D01*
X386390Y205138D01*
X384190D01*
X384294Y205149D01*
X384388Y205182D01*
X384470Y205237D01*
X384542Y205314D01*
X384602Y205413D01*
X384652Y205534D01*
X384690Y205677D01*
X384718Y205842D01*
X384734Y206029D01*
X384740Y206238D01*
X385840D01*
X385845Y206029D01*
D02*
G37*
G36*
X386285Y198851D02*
X386192Y198818D01*
X386109Y198763D01*
X386038Y198686D01*
X385977Y198587D01*
X385928Y198466D01*
X385889Y198323D01*
X385862Y198158D01*
X385845Y197971D01*
X385840Y197762D01*
X384740D01*
X384734Y197971D01*
X384718Y198158D01*
X384690Y198323D01*
X384652Y198466D01*
X384602Y198587D01*
X384542Y198686D01*
X384470Y198763D01*
X384388Y198818D01*
X384294Y198851D01*
X384190Y198862D01*
X386390D01*
X386285Y198851D01*
D02*
G37*
G36*
X385845Y185529D02*
X385862Y185342D01*
X385889Y185177D01*
X385928Y185034D01*
X385977Y184913D01*
X386038Y184814D01*
X386109Y184737D01*
X386192Y184682D01*
X386285Y184649D01*
X386390Y184638D01*
X384190D01*
X384294Y184649D01*
X384388Y184682D01*
X384470Y184737D01*
X384542Y184814D01*
X384602Y184913D01*
X384652Y185034D01*
X384690Y185177D01*
X384718Y185342D01*
X384734Y185529D01*
X384740Y185738D01*
X385840D01*
X385845Y185529D01*
D02*
G37*
G36*
X311323Y163070D02*
X311299Y163298D01*
X311227Y163502D01*
X311107Y163682D01*
X310939Y163838D01*
X310723Y163970D01*
X310459Y164078D01*
X310147Y164162D01*
X309787Y164222D01*
X309379Y164258D01*
X308923Y164270D01*
Y164271D01*
X306797Y164282D01*
Y166699D01*
X306821Y166693D01*
X306893Y166689D01*
X307973Y166673D01*
X308944Y166671D01*
X309379Y166682D01*
X309787Y166718D01*
X310147Y166778D01*
X310459Y166862D01*
X310723Y166970D01*
X310939Y167102D01*
X311107Y167258D01*
X311227Y167438D01*
X311299Y167642D01*
X311323Y167870D01*
Y163070D01*
D02*
G37*
G36*
X247323Y164391D02*
X247312Y164495D01*
X247279Y164588D01*
X247224Y164671D01*
X247147Y164743D01*
X247048Y164803D01*
X246927Y164852D01*
X246784Y164891D01*
X246619Y164918D01*
X246432Y164935D01*
X246223Y164941D01*
Y166041D01*
X246432Y166046D01*
X246619Y166062D01*
X246784Y166090D01*
X246927Y166129D01*
X247048Y166178D01*
X247147Y166238D01*
X247224Y166310D01*
X247279Y166393D01*
X247312Y166486D01*
X247323Y166590D01*
Y164391D01*
D02*
G37*
G36*
X270157Y161838D02*
X270063Y161805D01*
X269981Y161750D01*
X269909Y161673D01*
X269849Y161574D01*
X269799Y161453D01*
X269761Y161310D01*
X269733Y161145D01*
X269717Y160958D01*
X269711Y160749D01*
X268611D01*
X268606Y160958D01*
X268589Y161145D01*
X268562Y161310D01*
X268523Y161453D01*
X268474Y161574D01*
X268413Y161673D01*
X268342Y161750D01*
X268259Y161805D01*
X268166Y161838D01*
X268061Y161849D01*
X270261D01*
X270157Y161838D01*
D02*
G37*
D15*
X331034Y181500D02*
D03*
X322766Y177720D02*
D03*
Y185280D02*
D03*
X331034Y222721D02*
D03*
X322766Y218941D02*
D03*
Y226500D02*
D03*
X331034Y202110D02*
D03*
X322766Y198331D02*
D03*
Y205890D02*
D03*
D16*
X339000Y302591D02*
D03*
X328700Y314009D02*
D03*
X339000D02*
D03*
X247600Y317309D02*
D03*
Y305891D02*
D03*
X257800Y322709D02*
D03*
Y311291D02*
D03*
X328700Y302591D02*
D03*
D17*
X308700Y310900D02*
D03*
Y315900D02*
D03*
Y300900D02*
D03*
X287346Y315900D02*
D03*
Y310900D02*
D03*
Y305900D02*
D03*
Y300900D02*
D03*
X308700Y305900D02*
D03*
D18*
X349839Y319069D02*
D03*
Y317100D02*
D03*
X367161Y313163D02*
D03*
Y315131D02*
D03*
Y317100D02*
D03*
Y319069D02*
D03*
Y321037D02*
D03*
X349839Y315131D02*
D03*
Y313163D02*
D03*
Y321037D02*
D03*
D19*
X318800Y313812D02*
D03*
X327100Y340212D02*
D03*
X318800Y302788D02*
D03*
X327100Y329188D02*
D03*
X199100Y216912D02*
D03*
Y205888D02*
D03*
X263000Y243988D02*
D03*
Y255012D02*
D03*
X197500Y240988D02*
D03*
Y252012D02*
D03*
X188193Y240988D02*
D03*
Y252012D02*
D03*
X178886Y240988D02*
D03*
Y252012D02*
D03*
X188000Y405012D02*
D03*
Y393988D02*
D03*
D20*
X336800Y339995D02*
D03*
Y329287D02*
D03*
X175500Y307646D02*
D03*
Y318354D02*
D03*
Y341354D02*
D03*
Y330646D02*
D03*
X189600Y216754D02*
D03*
Y206046D02*
D03*
X169500Y241146D02*
D03*
Y251854D02*
D03*
D21*
X316602Y339200D02*
D03*
Y344200D02*
D03*
Y334200D02*
D03*
Y329200D02*
D03*
X279398Y339200D02*
D03*
Y344200D02*
D03*
Y334200D02*
D03*
Y329200D02*
D03*
D22*
X270754Y343800D02*
D03*
X260046D02*
D03*
X250705Y184700D02*
D03*
X261413D02*
D03*
D23*
X381100Y301691D02*
D03*
Y313109D02*
D03*
D24*
X391709Y304100D02*
D03*
X405291D02*
D03*
D25*
X365204Y304200D02*
D03*
X353393D02*
D03*
D26*
X175594Y223646D02*
D03*
Y229354D02*
D03*
X162406Y223646D02*
D03*
Y229354D02*
D03*
D27*
X201095Y296000D02*
D03*
X212906D02*
D03*
X190094Y417539D02*
D03*
X201905D02*
D03*
D28*
X248791Y262000D02*
D03*
X235209D02*
D03*
X208209D02*
D03*
X221791D02*
D03*
X212709Y368000D02*
D03*
X226291D02*
D03*
X356191Y222500D02*
D03*
X342609D02*
D03*
X356191Y202000D02*
D03*
X342609D02*
D03*
X356191Y181500D02*
D03*
X342609D02*
D03*
D29*
X246000Y386209D02*
D03*
Y399791D02*
D03*
X228500D02*
D03*
Y386209D02*
D03*
D30*
X169791Y417539D02*
D03*
X181209D02*
D03*
D31*
X359323Y169231D02*
D03*
Y161750D02*
D03*
X368677Y165490D02*
D03*
X296323Y169231D02*
D03*
Y161750D02*
D03*
X305677Y165490D02*
D03*
X233000Y169231D02*
D03*
Y161750D02*
D03*
X242354Y165490D02*
D03*
D32*
X385290Y181500D02*
D03*
X371510D02*
D03*
X175610Y296000D02*
D03*
X189390D02*
D03*
X385290Y202000D02*
D03*
X371510D02*
D03*
X385290Y222500D02*
D03*
X371510D02*
D03*
D33*
X173500Y387221D02*
D03*
Y401000D02*
D03*
D34*
X480500Y109500D02*
D03*
Y219500D02*
D03*
X420500Y204461D02*
D03*
Y124539D02*
D03*
D35*
X210811Y324500D02*
D03*
D36*
X187189Y314500D02*
D03*
Y319500D02*
D03*
Y324500D02*
D03*
Y329500D02*
D03*
Y334500D02*
D03*
D37*
X208910Y240764D02*
D03*
Y238795D02*
D03*
Y236827D02*
D03*
Y234858D02*
D03*
Y232890D02*
D03*
Y230921D02*
D03*
Y228953D02*
D03*
Y226984D02*
D03*
Y225016D02*
D03*
Y223047D02*
D03*
Y221079D02*
D03*
Y219110D02*
D03*
Y217142D02*
D03*
Y215173D02*
D03*
Y213205D02*
D03*
Y211236D02*
D03*
X254090D02*
D03*
Y213205D02*
D03*
Y215173D02*
D03*
Y217142D02*
D03*
Y219110D02*
D03*
Y221079D02*
D03*
Y223047D02*
D03*
Y225016D02*
D03*
Y226984D02*
D03*
Y228953D02*
D03*
Y230921D02*
D03*
Y232890D02*
D03*
Y234858D02*
D03*
Y236827D02*
D03*
Y238795D02*
D03*
Y240764D02*
D03*
D38*
X216736Y203409D02*
D03*
X218705D02*
D03*
X220673D02*
D03*
X222642D02*
D03*
X224610D02*
D03*
X226579D02*
D03*
X228547D02*
D03*
X230516D02*
D03*
X232484D02*
D03*
X234453D02*
D03*
X236421D02*
D03*
X238390D02*
D03*
X240358D02*
D03*
X242327D02*
D03*
X244295D02*
D03*
X246264D02*
D03*
Y248590D02*
D03*
X244295D02*
D03*
X242327D02*
D03*
X240358D02*
D03*
X238390D02*
D03*
X236421D02*
D03*
X234453D02*
D03*
X232484D02*
D03*
X230516D02*
D03*
X228547D02*
D03*
X226579D02*
D03*
X224610D02*
D03*
X222642D02*
D03*
X220673D02*
D03*
X218705D02*
D03*
X216736D02*
D03*
D39*
X214500Y405177D02*
D03*
X209500D02*
D03*
X204500D02*
D03*
X199500D02*
D03*
Y383823D02*
D03*
X204500D02*
D03*
X209500D02*
D03*
X214500D02*
D03*
D40*
X207000Y394500D02*
D03*
D41*
X378339Y164987D02*
D03*
X395661D02*
D03*
X315839D02*
D03*
X333161D02*
D03*
X251839D02*
D03*
X269161D02*
D03*
D42*
X280316Y317300D02*
D03*
X269292D02*
D03*
X270912Y334200D02*
D03*
X259888D02*
D03*
X199012Y227000D02*
D03*
X187988D02*
D03*
X219412Y194400D02*
D03*
X208388D02*
D03*
X250488Y193700D02*
D03*
X261512D02*
D03*
X211988Y417500D02*
D03*
X223012D02*
D03*
D43*
X196807Y368000D02*
D03*
X185193D02*
D03*
D83*
X340913Y319160D02*
X341004Y319069D01*
X349839D01*
X340378Y314009D02*
X343469Y317100D01*
X349839D01*
X367161Y315131D02*
Y317100D01*
Y319069D02*
Y321037D01*
X351685Y313163D02*
X351845Y313003D01*
X349839Y313163D02*
X351685D01*
X347992Y321037D02*
X349839D01*
X345729Y323300D02*
X347992Y321037D01*
X338200Y323300D02*
X345729D01*
D84*
X339336Y307293D02*
Y307537D01*
X339000Y306956D02*
X339336Y307293D01*
X339000Y302591D02*
Y303700D01*
Y306956D01*
X336513Y303700D02*
X339000D01*
X336207Y304007D02*
Y305185D01*
Y304007D02*
X336513Y303700D01*
X308700Y310900D02*
X308896Y310704D01*
X330688D01*
X336207Y305185D01*
X326088Y339200D02*
X327100Y340212D01*
X314142Y339200D02*
X326088D01*
X318800Y313812D02*
X318898Y313910D01*
X328602D01*
X328700Y314009D01*
X339000D01*
X308700Y315900D02*
X315137D01*
X317225Y313812D01*
X318800D01*
X339000Y314009D02*
X340378D01*
X308700Y333758D02*
X314142Y339200D01*
X308700Y315900D02*
Y333758D01*
X327100Y340212D02*
X327208Y340104D01*
X336692D01*
X336800Y339995D01*
X371017Y321037D02*
X380450Y330470D01*
Y331550D01*
X367161Y321037D02*
X369937D01*
X371017D02*
X371892D01*
X369937D02*
X371017D01*
X336800Y329287D02*
X338115Y330601D01*
X336751Y329237D02*
X336800Y329287D01*
X371892Y321037D02*
X379820Y313109D01*
X381100D01*
X365204Y303304D02*
Y304200D01*
Y303304D02*
X366816Y301691D01*
X381100D01*
X391709Y303509D02*
Y304100D01*
X381100Y301691D02*
X389891D01*
X391709Y303509D01*
X349839Y315131D02*
X355547D01*
X345932D02*
X349839D01*
X367161Y307535D02*
Y313163D01*
Y315131D01*
X365204Y305578D02*
X367161Y307535D01*
X365204Y304200D02*
Y305578D01*
X308700Y300900D02*
X315337D01*
X317225Y302788D01*
X318800D01*
X323483D01*
X324057Y302214D01*
Y299970D02*
Y302214D01*
Y299970D02*
X324701Y299326D01*
X342999D01*
X344813Y301140D01*
X316602Y329200D02*
Y334200D01*
Y329200D02*
X316608Y329194D01*
X327094D01*
X327100Y329188D01*
X327149Y329237D01*
X336751D01*
X355547Y315131D02*
X361453Y321037D01*
X367161D01*
X342200Y332000D02*
X380000D01*
X340801Y330601D02*
X342200Y332000D01*
X338115Y330601D02*
X340801D01*
X340800Y344200D02*
X342200Y342800D01*
Y332000D02*
Y342800D01*
X316602Y344200D02*
X340800D01*
X344813Y301140D02*
Y314013D01*
X345932Y315131D01*
X351845Y312778D02*
X352002Y312621D01*
X351845Y312778D02*
Y313003D01*
X352002Y305591D02*
Y312621D01*
Y305591D02*
X353393Y304200D01*
X404291Y304100D02*
X404391Y304000D01*
X437500D01*
X234500Y285300D02*
X248791Y271009D01*
Y304709D01*
X247604Y305896D02*
X248791Y304709D01*
Y262000D02*
Y271009D01*
X247604Y305896D02*
X287341D01*
X328400Y302891D02*
X328700Y302591D01*
X328400Y302891D02*
Y307600D01*
X327322Y302591D02*
X328700D01*
X324013Y305900D02*
X327322Y302591D01*
X308700Y305900D02*
X324013D01*
X247340Y317049D02*
X247600Y317309D01*
X230149Y317049D02*
X247340D01*
X221200Y308100D02*
X230149Y317049D01*
X257121Y322029D02*
X259191Y324100D01*
X253698Y322029D02*
X257121D01*
X248978Y317309D02*
X253698Y322029D01*
X247600Y317309D02*
X248978D01*
X287341Y305896D02*
X287346Y305900D01*
X266237Y324100D02*
X270912Y328775D01*
X259191Y324100D02*
X266237D01*
X270912Y328775D02*
Y334200D01*
Y328775D02*
X280312Y319375D01*
Y317800D02*
Y319375D01*
X270912Y342225D02*
Y343800D01*
Y342225D02*
X272170Y340967D01*
X273745D01*
X275347Y339365D01*
X279233D01*
X279398Y339200D01*
X270912Y334200D02*
Y342225D01*
Y334200D02*
X279398D01*
X280312Y317158D02*
X281570Y315900D01*
X287346D01*
D85*
X382000Y442100D02*
Y446793D01*
X362000Y466793D02*
X382000Y446793D01*
X243641Y243442D02*
X245142D01*
X246223Y244523D02*
Y248550D01*
X245142Y243442D02*
X246223Y244523D01*
X243400Y243200D02*
X243641Y243442D01*
X246223Y248550D02*
X246264Y248591D01*
X225600Y262000D02*
X226579Y261021D01*
Y248591D02*
Y261021D01*
X467972Y366500D02*
X485500D01*
X438472Y396000D02*
X467972Y366500D01*
X240358Y248591D02*
Y267142D01*
X220100Y274400D02*
X233100D01*
X240358Y267142D01*
X253300Y276400D02*
X253500D01*
X271200Y258700D01*
Y253700D02*
Y258700D01*
X204500Y216000D02*
X205601Y217101D01*
X208869D01*
X200012Y216000D02*
X204500D01*
X247564Y239464D02*
X247564Y239464D01*
X249919Y184827D02*
X250488Y185396D01*
X249919Y184827D02*
X249946Y184800D01*
X208909Y217142D02*
X212642D01*
X208869Y217101D02*
X208909Y217142D01*
X212642D02*
X219072Y223572D01*
X199100Y216912D02*
X200012Y216000D01*
X188157Y217012D02*
X199100D01*
X208209Y277909D02*
X241200Y310900D01*
X257800D01*
X208209Y277909D02*
Y307800D01*
Y262000D02*
Y277909D01*
X257800Y310900D02*
X287346D01*
X346409Y467587D02*
X362000D01*
Y466793D02*
Y467587D01*
X262314Y243302D02*
X263000Y243988D01*
X258942Y243302D02*
X262314D01*
X256444Y240804D02*
X258942Y243302D01*
X216736Y242037D02*
Y248591D01*
X254091Y240764D02*
X254131Y240804D01*
X256444D01*
X248864Y240764D02*
X254091D01*
X219072Y239464D02*
Y239701D01*
X247564Y239464D02*
X248864Y240764D01*
X219072Y239464D02*
X247564D01*
X247564Y207023D02*
Y239464D01*
X246304Y205763D02*
X247564Y207023D01*
X246264Y199399D02*
X250388Y195275D01*
X246264Y199399D02*
Y205722D01*
X242752Y199399D02*
X246264D01*
X250388Y193700D02*
Y195275D01*
X250488Y185396D02*
Y193700D01*
X241227Y208073D02*
X242327Y206973D01*
X221546Y208073D02*
X241227D01*
X242327Y203409D02*
Y206973D01*
X220673Y203409D02*
Y207200D01*
X221546Y208073D01*
X219072Y223572D02*
Y239464D01*
X242327Y199824D02*
Y201096D01*
Y199824D02*
X242752Y199399D01*
X220673Y192161D02*
Y203409D01*
X220512Y192000D02*
X220673Y192161D01*
X189847Y314500D02*
X190576Y313771D01*
X187189Y314500D02*
X189847D01*
X190576Y310624D02*
X192881Y308319D01*
X190576Y310624D02*
Y313771D01*
X187189Y314500D02*
Y319500D01*
X179200Y314500D02*
X187189D01*
X195436Y308319D02*
X195678Y308078D01*
X192881Y308319D02*
X195436D01*
X188193Y240988D02*
X197500D01*
X178886D02*
X188193D01*
X175500Y310800D02*
X179200Y314500D01*
X175500Y307646D02*
Y310800D01*
Y296110D02*
X175610Y296000D01*
X175500Y296110D02*
Y307646D01*
X173207Y293597D02*
X175610Y296000D01*
X173207Y293397D02*
Y293597D01*
X167944Y242702D02*
X169657Y240988D01*
X166398Y242702D02*
X167944D01*
X162900Y283090D02*
X173207Y293397D01*
X162900Y246200D02*
Y283090D01*
Y246200D02*
X166398Y242702D01*
X215463Y240764D02*
X216736Y242037D01*
X208909Y240764D02*
X215463D01*
X216736Y242037D02*
X219072Y239701D01*
X197724Y240764D02*
X208909D01*
X169657Y240988D02*
X178886D01*
X197500D02*
X197724Y240764D01*
X188000Y216854D02*
X188157Y217012D01*
X168693Y216854D02*
X188000D01*
X132657Y180819D02*
X168693Y216854D01*
X175594Y229354D02*
X179854D01*
X184500Y234000D02*
X193587D01*
X179854Y229354D02*
X184500Y234000D01*
X254700Y180291D02*
Y201200D01*
X233000Y169231D02*
X243640D01*
X254700Y180291D01*
X251335Y165490D02*
X251839Y164987D01*
X242354Y165490D02*
X251335D01*
X242354Y142646D02*
Y165490D01*
X319182Y134682D02*
Y162387D01*
X315839Y164987D02*
X319182Y162387D01*
X317500Y133000D02*
X319182Y134682D01*
X293327Y165354D02*
X298819D01*
X318744Y185280D02*
X322766D01*
X298819Y165354D02*
X318744Y185280D01*
X322766D02*
X326000D01*
X290600Y168081D02*
X293327Y165354D01*
X290600Y168081D02*
Y180100D01*
X296323Y169231D02*
Y205402D01*
X359323Y169231D02*
Y169319D01*
X358741Y169901D02*
X359323Y169319D01*
X358494Y169901D02*
X358741D01*
X330621Y170079D02*
X358316D01*
X326000Y174700D02*
X330621Y170079D01*
X358316D02*
X358494Y169901D01*
X199417Y405094D02*
X199500Y405177D01*
X199335Y405012D02*
X199417Y405094D01*
X250100Y205800D02*
X254700Y201200D01*
X196102Y387220D02*
X199500Y383823D01*
X173500Y387220D02*
X196102D01*
X209190Y426300D02*
X232453D01*
X236100Y406899D02*
Y422653D01*
X232453Y426300D02*
X236100Y422653D01*
X228992Y399791D02*
X236100Y406899D01*
X228500Y399791D02*
X228992D01*
X201906Y419016D02*
X209190Y426300D01*
X201906Y417539D02*
Y419016D01*
X204500Y405177D02*
Y406900D01*
X201906Y409494D02*
X204500Y406900D01*
X201906Y409494D02*
Y417539D01*
X209500Y405177D02*
Y410000D01*
X211988Y412488D02*
Y417500D01*
X209500Y410000D02*
X211988Y412488D01*
X182409Y140009D02*
X228547Y186147D01*
Y203409D01*
X182409Y133157D02*
Y140009D01*
X232484Y184884D02*
Y203409D01*
X198000Y150400D02*
X232484Y184884D01*
X198000Y133157D02*
Y150400D01*
X213591Y133157D02*
Y160300D01*
X236421Y183131D01*
Y203409D01*
X124000Y316000D02*
X129200Y310800D01*
X124000Y326500D02*
X132500Y335000D01*
X124000Y316000D02*
Y326500D01*
X196947Y341600D02*
X209400D01*
X286500Y238400D02*
X369390D01*
X271200Y253700D02*
X286500Y238400D01*
X187189Y334500D02*
X189847D01*
X196947Y341600D01*
X175800Y337900D02*
Y341354D01*
X179200Y334500D02*
X187000D01*
X385290Y222500D02*
Y222697D01*
X382690Y225100D02*
X382887D01*
X369390Y238400D02*
X382690Y225100D01*
X382887D02*
X385290Y222697D01*
X342498Y202110D02*
X342609Y202000D01*
X331034Y202110D02*
X342498D01*
X331034Y222720D02*
X342388D01*
X342609Y222500D01*
X322279Y205402D02*
X322766Y205890D01*
X296323Y205402D02*
X322279D01*
X254091Y215173D02*
X286552D01*
X296323Y205402D01*
X186596Y405012D02*
X188000D01*
X185138Y403554D02*
X186596Y405012D01*
X178579Y395590D02*
X185138Y402150D01*
Y403554D01*
X132657Y395590D02*
X178579D01*
X233382Y255436D02*
Y255778D01*
X234453Y248591D02*
Y254366D01*
X233382Y255436D02*
X234453Y254366D01*
X260027Y222427D02*
Y234800D01*
X269161Y134571D02*
Y164987D01*
X267591Y133000D02*
X269161Y134571D01*
X259464Y211236D02*
X290600Y180100D01*
X214500Y383823D02*
X225622D01*
X228008Y386209D02*
X228500D01*
X225622Y383823D02*
X228008Y386209D01*
X254091Y211236D02*
X259464D01*
X224610Y187710D02*
Y203409D01*
X173169Y136269D02*
X224610Y187710D01*
X166819Y133157D02*
X169931Y136269D01*
X173169D01*
X197554Y228458D02*
Y230033D01*
X193587Y234000D02*
X197554Y230033D01*
Y228458D02*
X199012Y227000D01*
X160692Y230871D02*
X162209Y229354D01*
X162406D01*
X160692Y230871D02*
Y231218D01*
X132500Y259409D02*
X160692Y231218D01*
X169791Y417539D02*
X173500D01*
Y401000D02*
Y417539D01*
X242354Y142646D02*
X252000Y133000D01*
X254091Y236827D02*
X258000D01*
X260027Y234800D01*
X194009Y322000D02*
X208209Y307800D01*
X164800Y322000D02*
X194009D01*
X153600Y310800D02*
X164800Y322000D01*
X129200Y310800D02*
X153600D01*
X221791Y262000D02*
X225600D01*
X228547Y248591D02*
Y260147D01*
X230400Y262000D01*
X235209D01*
X250100Y219110D02*
X254091D01*
X250100Y205800D02*
Y219110D01*
X293900Y226500D02*
X322766D01*
X286510Y219110D02*
X293900Y226500D01*
X254091Y219110D02*
X286510D01*
X175500Y341354D02*
X175800D01*
Y337900D02*
X179200Y334500D01*
X326000Y174700D02*
Y185280D01*
X385290Y181500D02*
Y202000D01*
Y222500D01*
X333161Y146771D02*
Y164987D01*
X333091Y146700D02*
X333161Y146771D01*
X333091Y133000D02*
Y146700D01*
X331034Y181500D02*
X342609D01*
X209500Y377509D02*
Y383823D01*
Y377509D02*
X212709Y374300D01*
Y368000D02*
Y374300D01*
X356191Y181500D02*
X371510D01*
X356191Y202000D02*
X371510D01*
X356191Y222500D02*
X371510D01*
X189390Y296000D02*
X201094D01*
X204853Y228953D02*
X208909D01*
X202900Y227000D02*
X204853Y228953D01*
X199012Y227000D02*
X202900D01*
X162406Y229354D02*
X175594D01*
X228500Y386209D02*
X246000D01*
D86*
X395331Y133331D02*
Y164987D01*
X395661D02*
X397039D01*
X398439Y166386D02*
Y167764D01*
X420500Y189825D02*
Y204461D01*
X397039Y164987D02*
X398439Y166386D01*
Y167764D02*
X420500Y189825D01*
X189657Y405094D02*
X199417D01*
X188083D02*
X189657D01*
X190094Y405531D01*
X189575Y405012D02*
X189657Y405094D01*
X187189Y329500D02*
Y334500D01*
X187000D02*
Y357110D01*
X196807Y368000D02*
Y369083D01*
Y366917D02*
Y368000D01*
X395000Y133000D02*
X395331Y133331D01*
X188000Y405012D02*
X188083Y405094D01*
X196807Y369083D02*
X199500Y371776D01*
Y383823D01*
X187000Y357110D02*
X196807Y366917D01*
X190094Y405531D02*
Y417539D01*
X189091Y467587D02*
X202013D01*
X210000Y459600D01*
Y445100D02*
Y459600D01*
X190094Y425194D02*
X210000Y445100D01*
X190094Y417539D02*
Y425194D01*
D87*
X315355Y165470D02*
X315839Y164987D01*
X305698Y165470D02*
X315355D01*
X305677Y165490D02*
X305698Y165470D01*
X377855D02*
X378339Y164987D01*
X368698Y165470D02*
X377855D01*
X368677Y165490D02*
X368698Y165470D01*
X368677Y143732D02*
Y165490D01*
X379409Y133000D02*
X388409Y124000D01*
X419601D01*
X368677Y143732D02*
X379409Y133000D01*
D88*
X566027Y188500D02*
X566028Y188500D01*
Y270423D01*
X536500Y255423D02*
Y344077D01*
X566027Y329078D02*
X566028Y329077D01*
X566027Y329078D02*
Y411000D01*
D89*
X382000Y332100D02*
D03*
X485500Y256500D02*
D03*
Y366500D02*
D03*
X382000Y442100D02*
D03*
D90*
X468000Y411000D02*
D03*
X438472D02*
D03*
Y396000D02*
D03*
X468000D02*
D03*
X566027Y411000D02*
D03*
X536500D02*
D03*
Y396000D02*
D03*
X566027D02*
D03*
X536500Y329077D02*
D03*
X566028D02*
D03*
Y344077D02*
D03*
X536500D02*
D03*
X566028Y270423D02*
D03*
X536500D02*
D03*
Y255423D02*
D03*
X566028D02*
D03*
X536500Y188500D02*
D03*
X566027D02*
D03*
Y203500D02*
D03*
X536500D02*
D03*
D91*
X162567Y146543D02*
D03*
X146043Y216252D02*
D03*
Y431024D02*
D03*
D92*
X213591Y133157D02*
D03*
X198000D02*
D03*
X182409D02*
D03*
X132658Y165228D02*
D03*
Y180819D02*
D03*
Y196409D02*
D03*
Y380000D02*
D03*
Y395590D02*
D03*
Y411181D02*
D03*
D93*
X166819Y133157D02*
D03*
D94*
X145886Y339252D02*
D03*
Y279252D02*
D03*
X366252Y454201D02*
D03*
X375157Y146386D02*
D03*
X313248D02*
D03*
X458315Y454201D02*
D03*
X247748Y146386D02*
D03*
X511248Y146386D02*
D03*
X193342Y454201D02*
D03*
D95*
X132500Y319409D02*
D03*
Y335000D02*
D03*
Y259409D02*
D03*
Y275000D02*
D03*
X346409Y467587D02*
D03*
X362000D02*
D03*
X395000Y133000D02*
D03*
X379409D02*
D03*
X333091D02*
D03*
X317500D02*
D03*
X438472Y467587D02*
D03*
X454063D02*
D03*
X267591Y133000D02*
D03*
X252000D02*
D03*
X531090Y133000D02*
D03*
X515500D02*
D03*
X173500Y467587D02*
D03*
X189091D02*
D03*
D96*
X132658Y212000D02*
D03*
Y426772D02*
D03*
D97*
X122000Y479000D02*
D03*
X578000D02*
D03*
Y121000D02*
D03*
X122000D02*
D03*
D98*
X339336Y307537D02*
D03*
X340913Y319160D02*
D03*
X278469Y353384D02*
D03*
X286469Y321584D02*
D03*
X243400Y243200D02*
D03*
X211035Y397256D02*
D03*
X202866D02*
D03*
Y391843D02*
D03*
X211035D02*
D03*
X207000Y394500D02*
D03*
X263000Y260400D02*
D03*
X437500Y304000D02*
D03*
X253300Y276400D02*
D03*
X234500Y285300D02*
D03*
X328400Y307600D02*
D03*
X271900Y192200D02*
D03*
X193700Y200700D02*
D03*
X199700Y191100D02*
D03*
X189600D02*
D03*
X178800Y259800D02*
D03*
X188100D02*
D03*
X197400D02*
D03*
X169500D02*
D03*
X280904Y301000D02*
D03*
X253900Y343900D02*
D03*
Y334100D02*
D03*
X264504Y317300D02*
D03*
X400000Y240000D02*
D03*
X410000Y220000D02*
D03*
X400000Y200000D02*
D03*
X380000Y240000D02*
D03*
X350000Y220000D02*
D03*
Y180000D02*
D03*
X340000Y160000D02*
D03*
X310000Y220000D02*
D03*
X300000Y200000D02*
D03*
X280000Y240000D02*
D03*
Y200000D02*
D03*
Y160000D02*
D03*
X290000Y140000D02*
D03*
X260000Y480000D02*
D03*
X270000Y460000D02*
D03*
X260000Y440000D02*
D03*
X270000Y420000D02*
D03*
X260000Y400000D02*
D03*
X270000Y380000D02*
D03*
X260000Y360000D02*
D03*
Y280000D02*
D03*
X270000Y180000D02*
D03*
X260000Y160000D02*
D03*
X240000Y480000D02*
D03*
X250000Y460000D02*
D03*
X240000Y440000D02*
D03*
X250000Y420000D02*
D03*
Y380000D02*
D03*
X240000Y360000D02*
D03*
Y320000D02*
D03*
X220000Y480000D02*
D03*
X230000Y460000D02*
D03*
X220000Y440000D02*
D03*
X230000Y380000D02*
D03*
X220000Y360000D02*
D03*
X230000Y340000D02*
D03*
Y220000D02*
D03*
X220000Y160000D02*
D03*
X200000Y360000D02*
D03*
Y320000D02*
D03*
Y280000D02*
D03*
X210000Y180000D02*
D03*
X180000Y440000D02*
D03*
X190000Y380000D02*
D03*
X180000Y280000D02*
D03*
X190000Y180000D02*
D03*
X180000Y160000D02*
D03*
X160000Y440000D02*
D03*
Y400000D02*
D03*
X170000Y380000D02*
D03*
X160000Y360000D02*
D03*
Y240000D02*
D03*
Y200000D02*
D03*
X170000Y180000D02*
D03*
X140000Y480000D02*
D03*
X150000Y460000D02*
D03*
X140000Y360000D02*
D03*
X150000Y300000D02*
D03*
X140000Y240000D02*
D03*
Y120000D02*
D03*
X130000Y460000D02*
D03*
X120000Y360000D02*
D03*
X130000Y300000D02*
D03*
X120000Y240000D02*
D03*
X338200Y323300D02*
D03*
X221200Y308100D02*
D03*
X195678Y308078D02*
D03*
X209400Y341600D02*
D03*
X220100Y274400D02*
D03*
X233382Y255778D02*
D03*
X260027Y222427D02*
D03*
M02*
