G04*
G04 #@! TF.GenerationSoftware,Altium Limited,Altium Designer,25.6.2 (33)*
G04*
G04 Layer_Color=2752767*
%FSLAX25Y25*%
%MOIN*%
G70*
G04*
G04 #@! TF.SameCoordinates,7502CC92-0913-4849-9877-68709095791D*
G04*
G04*
G04 #@! TF.FilePolarity,Positive*
G04*
G01*
G75*
%ADD103C,0.00500*%
%ADD104C,0.00667*%
%ADD105C,0.00400*%
D103*
X381000Y331100D02*
Y330100D01*
X383000D01*
Y331100D01*
X384000D01*
Y333100D01*
X383000D01*
Y334100D01*
X381000D01*
Y333100D01*
X380000D01*
Y331100D01*
X381000D01*
X466000Y409000D02*
Y413000D01*
X470000D01*
Y409000D01*
X466000D01*
X436472D02*
Y413000D01*
X440472D01*
Y409000D01*
X436472D01*
Y394000D02*
Y398000D01*
X440472D01*
Y394000D01*
X436472D01*
X466000D02*
Y398000D01*
X470000D01*
Y394000D01*
X466000D01*
X564027Y409000D02*
Y413000D01*
X568027D01*
Y409000D01*
X564027D01*
X534500D02*
Y413000D01*
X538500D01*
Y409000D01*
X534500D01*
Y394000D02*
Y398000D01*
X538500D01*
Y394000D01*
X534500D01*
X564027D02*
Y398000D01*
X568027D01*
Y394000D01*
X564027D01*
X534500Y327077D02*
Y331077D01*
X538500D01*
Y327077D01*
X534500D01*
X564028D02*
Y331077D01*
X568028D01*
Y327077D01*
X564028D01*
Y342077D02*
Y346077D01*
X568028D01*
Y342077D01*
X564028D01*
X534500D02*
Y346077D01*
X538500D01*
Y342077D01*
X534500D01*
X564028Y268423D02*
Y272423D01*
X568028D01*
Y268423D01*
X564028D01*
X534500D02*
Y272423D01*
X538500D01*
Y268423D01*
X534500D01*
Y253423D02*
Y257423D01*
X538500D01*
Y253423D01*
X534500D01*
X564028D02*
Y257423D01*
X568028D01*
Y253423D01*
X564028D01*
X534500Y186500D02*
Y190500D01*
X538500D01*
Y186500D01*
X534500D01*
X564027D02*
Y190500D01*
X568027D01*
Y186500D01*
X564027D01*
Y201500D02*
Y205500D01*
X568027D01*
Y201500D01*
X564027D01*
X534500D02*
Y205500D01*
X538500D01*
Y201500D01*
X534500D01*
X162567Y144543D02*
X163567Y145543D01*
X164567D01*
X163567Y146543D01*
X164567Y147543D01*
X163567D01*
X162567Y148543D01*
X161567Y147543D01*
X160567D01*
X161567Y146543D01*
X160567Y145543D01*
X161567D01*
X162567Y144543D01*
X211591Y131157D02*
X212591Y133157D01*
X211591Y135157D01*
X213591Y134157D01*
X215591Y135157D01*
X214591Y133157D01*
X215591Y131157D01*
X213591Y132157D01*
X211591Y131157D01*
X196000D02*
X197000Y133157D01*
X196000Y135157D01*
X198000Y134157D01*
X200000Y135157D01*
X199000Y133157D01*
X200000Y131157D01*
X198000Y132157D01*
X196000Y131157D01*
X180409D02*
X181409Y133157D01*
X180409Y135157D01*
X182409Y134157D01*
X184409Y135157D01*
X183409Y133157D01*
X184409Y131157D01*
X182409Y132157D01*
X180409Y131157D01*
X164819D02*
X165819Y133157D01*
X164819Y135157D01*
X166819Y134157D01*
X168819Y135157D01*
X167819Y133157D01*
X168819Y131157D01*
X166819Y132157D01*
X164819Y131157D01*
X132500Y317409D02*
X130500Y321409D01*
X134500D01*
X132500Y317409D01*
Y333000D02*
X130500Y337000D01*
X134500D01*
X132500Y333000D01*
Y257409D02*
X130500Y261409D01*
X134500D01*
X132500Y257409D01*
Y273000D02*
X130500Y277000D01*
X134500D01*
X132500Y273000D01*
X146043Y214252D02*
X147043Y215252D01*
X148043D01*
X147043Y216252D01*
X148043Y217252D01*
X147043D01*
X146043Y218252D01*
X145043Y217252D01*
X144043D01*
X145043Y216252D01*
X144043Y215252D01*
X145043D01*
X146043Y214252D01*
X130657Y163228D02*
X131658Y165228D01*
X130657Y167228D01*
X132658Y166228D01*
X134658Y167228D01*
X133658Y165228D01*
X134658Y163228D01*
X132658Y164228D01*
X130657Y163228D01*
Y178819D02*
X131658Y180819D01*
X130657Y182819D01*
X132658Y181819D01*
X134658Y182819D01*
X133658Y180819D01*
X134658Y178819D01*
X132658Y179819D01*
X130657Y178819D01*
Y194409D02*
X131658Y196409D01*
X130657Y198409D01*
X132658Y197409D01*
X134658Y198409D01*
X133658Y196409D01*
X134658Y194409D01*
X132658Y195409D01*
X130657Y194409D01*
Y210000D02*
X131658Y212000D01*
X130657Y214000D01*
X132658Y213000D01*
X134658Y214000D01*
X133658Y212000D01*
X134658Y210000D01*
X132658Y211000D01*
X130657Y210000D01*
X346409Y465587D02*
X344409Y469587D01*
X348409D01*
X346409Y465587D01*
X362000D02*
X360000Y469587D01*
X364000D01*
X362000Y465587D01*
X395000Y131000D02*
X393000Y135000D01*
X397000D01*
X395000Y131000D01*
X379409D02*
X377409Y135000D01*
X381409D01*
X379409Y131000D01*
X333091D02*
X331091Y135000D01*
X335091D01*
X333091Y131000D01*
X317500D02*
X315500Y135000D01*
X319500D01*
X317500Y131000D01*
X438472Y465587D02*
X436472Y469587D01*
X440472D01*
X438472Y465587D01*
X454063D02*
X452063Y469587D01*
X456063D01*
X454063Y465587D01*
X267591Y131000D02*
X265591Y135000D01*
X269591D01*
X267591Y131000D01*
X252000D02*
X250000Y135000D01*
X254000D01*
X252000Y131000D01*
X531090Y131000D02*
X529090Y135000D01*
X533090D01*
X531090Y131000D01*
X515500D02*
X513500Y135000D01*
X517500D01*
X515500Y131000D01*
X146043Y429024D02*
X147043Y430023D01*
X148043D01*
X147043Y431024D01*
X148043Y432023D01*
X147043D01*
X146043Y433024D01*
X145043Y432023D01*
X144043D01*
X145043Y431024D01*
X144043Y430023D01*
X145043D01*
X146043Y429024D01*
X130657Y378000D02*
X131658Y380000D01*
X130657Y382000D01*
X132658Y381000D01*
X134658Y382000D01*
X133658Y380000D01*
X134658Y378000D01*
X132658Y379000D01*
X130657Y378000D01*
Y393590D02*
X131658Y395590D01*
X130657Y397590D01*
X132658Y396590D01*
X134658Y397590D01*
X133658Y395590D01*
X134658Y393590D01*
X132658Y394590D01*
X130657Y393590D01*
Y409181D02*
X131658Y411181D01*
X130657Y413181D01*
X132658Y412181D01*
X134658Y413181D01*
X133658Y411181D01*
X134658Y409181D01*
X132658Y410181D01*
X130657Y409181D01*
Y424772D02*
X131658Y426772D01*
X130657Y428772D01*
X132658Y427772D01*
X134658Y428772D01*
X133658Y426772D01*
X134658Y424772D01*
X132658Y425772D01*
X130657Y424772D01*
X173500Y465587D02*
X171500Y469587D01*
X175500D01*
X173500Y465587D01*
X189091D02*
X187091Y469587D01*
X191091D01*
X189091Y465587D01*
X484500Y255500D02*
Y254500D01*
X486500D01*
Y255500D01*
X487500D01*
Y257500D01*
X486500D01*
Y258500D01*
X484500D01*
Y257500D01*
X483500D01*
Y255500D01*
X484500D01*
Y365500D02*
Y364500D01*
X486500D01*
Y365500D01*
X487500D01*
Y367500D01*
X486500D01*
Y368500D01*
X484500D01*
Y367500D01*
X483500D01*
Y365500D01*
X484500D01*
X381000Y441100D02*
Y440100D01*
X383000D01*
Y441100D01*
X384000D01*
Y443100D01*
X383000D01*
Y444100D01*
X381000D01*
Y443100D01*
X380000D01*
Y441100D01*
X381000D01*
X337336Y305537D02*
X338336D01*
X339336Y306537D01*
X340336Y305537D01*
X341336D01*
Y306537D01*
X340336Y307537D01*
X341336Y308537D01*
Y309537D01*
X340336D01*
X339336Y308537D01*
X338336Y309537D01*
X337336D01*
Y308537D01*
X338336Y307537D01*
X337336Y306537D01*
Y305537D01*
X338913Y317160D02*
X339913D01*
X340913Y318160D01*
X341913Y317160D01*
X342913D01*
Y318160D01*
X341913Y319160D01*
X342913Y320160D01*
Y321160D01*
X341913D01*
X340913Y320160D01*
X339913Y321160D01*
X338913D01*
Y320160D01*
X339913Y319160D01*
X338913Y318160D01*
Y317160D01*
X276469Y351384D02*
X277469D01*
X278469Y352384D01*
X279469Y351384D01*
X280469D01*
Y352384D01*
X279469Y353384D01*
X280469Y354384D01*
Y355384D01*
X279469D01*
X278469Y354384D01*
X277469Y355384D01*
X276469D01*
Y354384D01*
X277469Y353384D01*
X276469Y352384D01*
Y351384D01*
X284469Y319584D02*
X285469D01*
X286469Y320584D01*
X287469Y319584D01*
X288469D01*
Y320584D01*
X287469Y321584D01*
X288469Y322584D01*
Y323584D01*
X287469D01*
X286469Y322584D01*
X285469Y323584D01*
X284469D01*
Y322584D01*
X285469Y321584D01*
X284469Y320584D01*
Y319584D01*
X241400Y241200D02*
X242400D01*
X243400Y242200D01*
X244400Y241200D01*
X245400D01*
Y242200D01*
X244400Y243200D01*
X245400Y244200D01*
Y245200D01*
X244400D01*
X243400Y244200D01*
X242400Y245200D01*
X241400D01*
Y244200D01*
X242400Y243200D01*
X241400Y242200D01*
Y241200D01*
X209035Y395256D02*
X210035D01*
X211035Y396256D01*
X212035Y395256D01*
X213035D01*
Y396256D01*
X212035Y397256D01*
X213035Y398256D01*
Y399256D01*
X212035D01*
X211035Y398256D01*
X210035Y399256D01*
X209035D01*
Y398256D01*
X210035Y397256D01*
X209035Y396256D01*
Y395256D01*
X200866D02*
X201866D01*
X202866Y396256D01*
X203866Y395256D01*
X204866D01*
Y396256D01*
X203866Y397256D01*
X204866Y398256D01*
Y399256D01*
X203866D01*
X202866Y398256D01*
X201866Y399256D01*
X200866D01*
Y398256D01*
X201866Y397256D01*
X200866Y396256D01*
Y395256D01*
Y389843D02*
X201866D01*
X202866Y390843D01*
X203866Y389843D01*
X204866D01*
Y390843D01*
X203866Y391843D01*
X204866Y392843D01*
Y393843D01*
X203866D01*
X202866Y392843D01*
X201866Y393843D01*
X200866D01*
Y392843D01*
X201866Y391843D01*
X200866Y390843D01*
Y389843D01*
X209035D02*
X210035D01*
X211035Y390843D01*
X212035Y389843D01*
X213035D01*
Y390843D01*
X212035Y391843D01*
X213035Y392843D01*
Y393843D01*
X212035D01*
X211035Y392843D01*
X210035Y393843D01*
X209035D01*
Y392843D01*
X210035Y391843D01*
X209035Y390843D01*
Y389843D01*
X205000Y392500D02*
X206000D01*
X207000Y393500D01*
X208000Y392500D01*
X209000D01*
Y393500D01*
X208000Y394500D01*
X209000Y395500D01*
Y396500D01*
X208000D01*
X207000Y395500D01*
X206000Y396500D01*
X205000D01*
Y395500D01*
X206000Y394500D01*
X205000Y393500D01*
Y392500D01*
X261000Y258400D02*
X262000D01*
X263000Y259400D01*
X264000Y258400D01*
X265000D01*
Y259400D01*
X264000Y260400D01*
X265000Y261400D01*
Y262400D01*
X264000D01*
X263000Y261400D01*
X262000Y262400D01*
X261000D01*
Y261400D01*
X262000Y260400D01*
X261000Y259400D01*
Y258400D01*
X435500Y302000D02*
X436500D01*
X437500Y303000D01*
X438500Y302000D01*
X439500D01*
Y303000D01*
X438500Y304000D01*
X439500Y305000D01*
Y306000D01*
X438500D01*
X437500Y305000D01*
X436500Y306000D01*
X435500D01*
Y305000D01*
X436500Y304000D01*
X435500Y303000D01*
Y302000D01*
X251300Y274400D02*
X252300D01*
X253300Y275400D01*
X254300Y274400D01*
X255300D01*
Y275400D01*
X254300Y276400D01*
X255300Y277400D01*
Y278400D01*
X254300D01*
X253300Y277400D01*
X252300Y278400D01*
X251300D01*
Y277400D01*
X252300Y276400D01*
X251300Y275400D01*
Y274400D01*
X232500Y283300D02*
X233500D01*
X234500Y284300D01*
X235500Y283300D01*
X236500D01*
Y284300D01*
X235500Y285300D01*
X236500Y286300D01*
Y287300D01*
X235500D01*
X234500Y286300D01*
X233500Y287300D01*
X232500D01*
Y286300D01*
X233500Y285300D01*
X232500Y284300D01*
Y283300D01*
X326400Y305600D02*
X327400D01*
X328400Y306600D01*
X329400Y305600D01*
X330400D01*
Y306600D01*
X329400Y307600D01*
X330400Y308600D01*
Y309600D01*
X329400D01*
X328400Y308600D01*
X327400Y309600D01*
X326400D01*
Y308600D01*
X327400Y307600D01*
X326400Y306600D01*
Y305600D01*
X269900Y190200D02*
X270900D01*
X271900Y191200D01*
X272900Y190200D01*
X273900D01*
Y191200D01*
X272900Y192200D01*
X273900Y193200D01*
Y194200D01*
X272900D01*
X271900Y193200D01*
X270900Y194200D01*
X269900D01*
Y193200D01*
X270900Y192200D01*
X269900Y191200D01*
Y190200D01*
X191700Y198700D02*
X192700D01*
X193700Y199700D01*
X194700Y198700D01*
X195700D01*
Y199700D01*
X194700Y200700D01*
X195700Y201700D01*
Y202700D01*
X194700D01*
X193700Y201700D01*
X192700Y202700D01*
X191700D01*
Y201700D01*
X192700Y200700D01*
X191700Y199700D01*
Y198700D01*
X197700Y189100D02*
X198700D01*
X199700Y190100D01*
X200700Y189100D01*
X201700D01*
Y190100D01*
X200700Y191100D01*
X201700Y192100D01*
Y193100D01*
X200700D01*
X199700Y192100D01*
X198700Y193100D01*
X197700D01*
Y192100D01*
X198700Y191100D01*
X197700Y190100D01*
Y189100D01*
X187600D02*
X188600D01*
X189600Y190100D01*
X190600Y189100D01*
X191600D01*
Y190100D01*
X190600Y191100D01*
X191600Y192100D01*
Y193100D01*
X190600D01*
X189600Y192100D01*
X188600Y193100D01*
X187600D01*
Y192100D01*
X188600Y191100D01*
X187600Y190100D01*
Y189100D01*
X176800Y257800D02*
X177800D01*
X178800Y258800D01*
X179800Y257800D01*
X180800D01*
Y258800D01*
X179800Y259800D01*
X180800Y260800D01*
Y261800D01*
X179800D01*
X178800Y260800D01*
X177800Y261800D01*
X176800D01*
Y260800D01*
X177800Y259800D01*
X176800Y258800D01*
Y257800D01*
X186100D02*
X187100D01*
X188100Y258800D01*
X189100Y257800D01*
X190100D01*
Y258800D01*
X189100Y259800D01*
X190100Y260800D01*
Y261800D01*
X189100D01*
X188100Y260800D01*
X187100Y261800D01*
X186100D01*
Y260800D01*
X187100Y259800D01*
X186100Y258800D01*
Y257800D01*
X195400D02*
X196400D01*
X197400Y258800D01*
X198400Y257800D01*
X199400D01*
Y258800D01*
X198400Y259800D01*
X199400Y260800D01*
Y261800D01*
X198400D01*
X197400Y260800D01*
X196400Y261800D01*
X195400D01*
Y260800D01*
X196400Y259800D01*
X195400Y258800D01*
Y257800D01*
X167500D02*
X168500D01*
X169500Y258800D01*
X170500Y257800D01*
X171500D01*
Y258800D01*
X170500Y259800D01*
X171500Y260800D01*
Y261800D01*
X170500D01*
X169500Y260800D01*
X168500Y261800D01*
X167500D01*
Y260800D01*
X168500Y259800D01*
X167500Y258800D01*
Y257800D01*
X278904Y299000D02*
X279904D01*
X280904Y300000D01*
X281904Y299000D01*
X282904D01*
Y300000D01*
X281904Y301000D01*
X282904Y302000D01*
Y303000D01*
X281904D01*
X280904Y302000D01*
X279904Y303000D01*
X278904D01*
Y302000D01*
X279904Y301000D01*
X278904Y300000D01*
Y299000D01*
X251900Y341900D02*
X252900D01*
X253900Y342900D01*
X254900Y341900D01*
X255900D01*
Y342900D01*
X254900Y343900D01*
X255900Y344900D01*
Y345900D01*
X254900D01*
X253900Y344900D01*
X252900Y345900D01*
X251900D01*
Y344900D01*
X252900Y343900D01*
X251900Y342900D01*
Y341900D01*
Y332100D02*
X252900D01*
X253900Y333100D01*
X254900Y332100D01*
X255900D01*
Y333100D01*
X254900Y334100D01*
X255900Y335100D01*
Y336100D01*
X254900D01*
X253900Y335100D01*
X252900Y336100D01*
X251900D01*
Y335100D01*
X252900Y334100D01*
X251900Y333100D01*
Y332100D01*
X262504Y315300D02*
X263504D01*
X264504Y316300D01*
X265504Y315300D01*
X266504D01*
Y316300D01*
X265504Y317300D01*
X266504Y318300D01*
Y319300D01*
X265504D01*
X264504Y318300D01*
X263504Y319300D01*
X262504D01*
Y318300D01*
X263504Y317300D01*
X262504Y316300D01*
Y315300D01*
X398000Y238000D02*
X399000D01*
X400000Y239000D01*
X401000Y238000D01*
X402000D01*
Y239000D01*
X401000Y240000D01*
X402000Y241000D01*
Y242000D01*
X401000D01*
X400000Y241000D01*
X399000Y242000D01*
X398000D01*
Y241000D01*
X399000Y240000D01*
X398000Y239000D01*
Y238000D01*
X408000Y218000D02*
X409000D01*
X410000Y219000D01*
X411000Y218000D01*
X412000D01*
Y219000D01*
X411000Y220000D01*
X412000Y221000D01*
Y222000D01*
X411000D01*
X410000Y221000D01*
X409000Y222000D01*
X408000D01*
Y221000D01*
X409000Y220000D01*
X408000Y219000D01*
Y218000D01*
X398000Y198000D02*
X399000D01*
X400000Y199000D01*
X401000Y198000D01*
X402000D01*
Y199000D01*
X401000Y200000D01*
X402000Y201000D01*
Y202000D01*
X401000D01*
X400000Y201000D01*
X399000Y202000D01*
X398000D01*
Y201000D01*
X399000Y200000D01*
X398000Y199000D01*
Y198000D01*
X378000Y238000D02*
X379000D01*
X380000Y239000D01*
X381000Y238000D01*
X382000D01*
Y239000D01*
X381000Y240000D01*
X382000Y241000D01*
Y242000D01*
X381000D01*
X380000Y241000D01*
X379000Y242000D01*
X378000D01*
Y241000D01*
X379000Y240000D01*
X378000Y239000D01*
Y238000D01*
X348000Y218000D02*
X349000D01*
X350000Y219000D01*
X351000Y218000D01*
X352000D01*
Y219000D01*
X351000Y220000D01*
X352000Y221000D01*
Y222000D01*
X351000D01*
X350000Y221000D01*
X349000Y222000D01*
X348000D01*
Y221000D01*
X349000Y220000D01*
X348000Y219000D01*
Y218000D01*
Y178000D02*
X349000D01*
X350000Y179000D01*
X351000Y178000D01*
X352000D01*
Y179000D01*
X351000Y180000D01*
X352000Y181000D01*
Y182000D01*
X351000D01*
X350000Y181000D01*
X349000Y182000D01*
X348000D01*
Y181000D01*
X349000Y180000D01*
X348000Y179000D01*
Y178000D01*
X338000Y158000D02*
X339000D01*
X340000Y159000D01*
X341000Y158000D01*
X342000D01*
Y159000D01*
X341000Y160000D01*
X342000Y161000D01*
Y162000D01*
X341000D01*
X340000Y161000D01*
X339000Y162000D01*
X338000D01*
Y161000D01*
X339000Y160000D01*
X338000Y159000D01*
Y158000D01*
X308000Y218000D02*
X309000D01*
X310000Y219000D01*
X311000Y218000D01*
X312000D01*
Y219000D01*
X311000Y220000D01*
X312000Y221000D01*
Y222000D01*
X311000D01*
X310000Y221000D01*
X309000Y222000D01*
X308000D01*
Y221000D01*
X309000Y220000D01*
X308000Y219000D01*
Y218000D01*
X298000Y198000D02*
X299000D01*
X300000Y199000D01*
X301000Y198000D01*
X302000D01*
Y199000D01*
X301000Y200000D01*
X302000Y201000D01*
Y202000D01*
X301000D01*
X300000Y201000D01*
X299000Y202000D01*
X298000D01*
Y201000D01*
X299000Y200000D01*
X298000Y199000D01*
Y198000D01*
X278000Y238000D02*
X279000D01*
X280000Y239000D01*
X281000Y238000D01*
X282000D01*
Y239000D01*
X281000Y240000D01*
X282000Y241000D01*
Y242000D01*
X281000D01*
X280000Y241000D01*
X279000Y242000D01*
X278000D01*
Y241000D01*
X279000Y240000D01*
X278000Y239000D01*
Y238000D01*
Y198000D02*
X279000D01*
X280000Y199000D01*
X281000Y198000D01*
X282000D01*
Y199000D01*
X281000Y200000D01*
X282000Y201000D01*
Y202000D01*
X281000D01*
X280000Y201000D01*
X279000Y202000D01*
X278000D01*
Y201000D01*
X279000Y200000D01*
X278000Y199000D01*
Y198000D01*
Y158000D02*
X279000D01*
X280000Y159000D01*
X281000Y158000D01*
X282000D01*
Y159000D01*
X281000Y160000D01*
X282000Y161000D01*
Y162000D01*
X281000D01*
X280000Y161000D01*
X279000Y162000D01*
X278000D01*
Y161000D01*
X279000Y160000D01*
X278000Y159000D01*
Y158000D01*
X288000Y138000D02*
X289000D01*
X290000Y139000D01*
X291000Y138000D01*
X292000D01*
Y139000D01*
X291000Y140000D01*
X292000Y141000D01*
Y142000D01*
X291000D01*
X290000Y141000D01*
X289000Y142000D01*
X288000D01*
Y141000D01*
X289000Y140000D01*
X288000Y139000D01*
Y138000D01*
X258000Y478000D02*
X259000D01*
X260000Y479000D01*
X261000Y478000D01*
X262000D01*
Y479000D01*
X261000Y480000D01*
X262000Y481000D01*
Y482000D01*
X261000D01*
X260000Y481000D01*
X259000Y482000D01*
X258000D01*
Y481000D01*
X259000Y480000D01*
X258000Y479000D01*
Y478000D01*
X268000Y458000D02*
X269000D01*
X270000Y459000D01*
X271000Y458000D01*
X272000D01*
Y459000D01*
X271000Y460000D01*
X272000Y461000D01*
Y462000D01*
X271000D01*
X270000Y461000D01*
X269000Y462000D01*
X268000D01*
Y461000D01*
X269000Y460000D01*
X268000Y459000D01*
Y458000D01*
X258000Y438000D02*
X259000D01*
X260000Y439000D01*
X261000Y438000D01*
X262000D01*
Y439000D01*
X261000Y440000D01*
X262000Y441000D01*
Y442000D01*
X261000D01*
X260000Y441000D01*
X259000Y442000D01*
X258000D01*
Y441000D01*
X259000Y440000D01*
X258000Y439000D01*
Y438000D01*
X268000Y418000D02*
X269000D01*
X270000Y419000D01*
X271000Y418000D01*
X272000D01*
Y419000D01*
X271000Y420000D01*
X272000Y421000D01*
Y422000D01*
X271000D01*
X270000Y421000D01*
X269000Y422000D01*
X268000D01*
Y421000D01*
X269000Y420000D01*
X268000Y419000D01*
Y418000D01*
X258000Y398000D02*
X259000D01*
X260000Y399000D01*
X261000Y398000D01*
X262000D01*
Y399000D01*
X261000Y400000D01*
X262000Y401000D01*
Y402000D01*
X261000D01*
X260000Y401000D01*
X259000Y402000D01*
X258000D01*
Y401000D01*
X259000Y400000D01*
X258000Y399000D01*
Y398000D01*
X268000Y378000D02*
X269000D01*
X270000Y379000D01*
X271000Y378000D01*
X272000D01*
Y379000D01*
X271000Y380000D01*
X272000Y381000D01*
Y382000D01*
X271000D01*
X270000Y381000D01*
X269000Y382000D01*
X268000D01*
Y381000D01*
X269000Y380000D01*
X268000Y379000D01*
Y378000D01*
X258000Y358000D02*
X259000D01*
X260000Y359000D01*
X261000Y358000D01*
X262000D01*
Y359000D01*
X261000Y360000D01*
X262000Y361000D01*
Y362000D01*
X261000D01*
X260000Y361000D01*
X259000Y362000D01*
X258000D01*
Y361000D01*
X259000Y360000D01*
X258000Y359000D01*
Y358000D01*
Y278000D02*
X259000D01*
X260000Y279000D01*
X261000Y278000D01*
X262000D01*
Y279000D01*
X261000Y280000D01*
X262000Y281000D01*
Y282000D01*
X261000D01*
X260000Y281000D01*
X259000Y282000D01*
X258000D01*
Y281000D01*
X259000Y280000D01*
X258000Y279000D01*
Y278000D01*
X268000Y178000D02*
X269000D01*
X270000Y179000D01*
X271000Y178000D01*
X272000D01*
Y179000D01*
X271000Y180000D01*
X272000Y181000D01*
Y182000D01*
X271000D01*
X270000Y181000D01*
X269000Y182000D01*
X268000D01*
Y181000D01*
X269000Y180000D01*
X268000Y179000D01*
Y178000D01*
X258000Y158000D02*
X259000D01*
X260000Y159000D01*
X261000Y158000D01*
X262000D01*
Y159000D01*
X261000Y160000D01*
X262000Y161000D01*
Y162000D01*
X261000D01*
X260000Y161000D01*
X259000Y162000D01*
X258000D01*
Y161000D01*
X259000Y160000D01*
X258000Y159000D01*
Y158000D01*
X238000Y478000D02*
X239000D01*
X240000Y479000D01*
X241000Y478000D01*
X242000D01*
Y479000D01*
X241000Y480000D01*
X242000Y481000D01*
Y482000D01*
X241000D01*
X240000Y481000D01*
X239000Y482000D01*
X238000D01*
Y481000D01*
X239000Y480000D01*
X238000Y479000D01*
Y478000D01*
X248000Y458000D02*
X249000D01*
X250000Y459000D01*
X251000Y458000D01*
X252000D01*
Y459000D01*
X251000Y460000D01*
X252000Y461000D01*
Y462000D01*
X251000D01*
X250000Y461000D01*
X249000Y462000D01*
X248000D01*
Y461000D01*
X249000Y460000D01*
X248000Y459000D01*
Y458000D01*
X238000Y438000D02*
X239000D01*
X240000Y439000D01*
X241000Y438000D01*
X242000D01*
Y439000D01*
X241000Y440000D01*
X242000Y441000D01*
Y442000D01*
X241000D01*
X240000Y441000D01*
X239000Y442000D01*
X238000D01*
Y441000D01*
X239000Y440000D01*
X238000Y439000D01*
Y438000D01*
X248000Y418000D02*
X249000D01*
X250000Y419000D01*
X251000Y418000D01*
X252000D01*
Y419000D01*
X251000Y420000D01*
X252000Y421000D01*
Y422000D01*
X251000D01*
X250000Y421000D01*
X249000Y422000D01*
X248000D01*
Y421000D01*
X249000Y420000D01*
X248000Y419000D01*
Y418000D01*
Y378000D02*
X249000D01*
X250000Y379000D01*
X251000Y378000D01*
X252000D01*
Y379000D01*
X251000Y380000D01*
X252000Y381000D01*
Y382000D01*
X251000D01*
X250000Y381000D01*
X249000Y382000D01*
X248000D01*
Y381000D01*
X249000Y380000D01*
X248000Y379000D01*
Y378000D01*
X238000Y358000D02*
X239000D01*
X240000Y359000D01*
X241000Y358000D01*
X242000D01*
Y359000D01*
X241000Y360000D01*
X242000Y361000D01*
Y362000D01*
X241000D01*
X240000Y361000D01*
X239000Y362000D01*
X238000D01*
Y361000D01*
X239000Y360000D01*
X238000Y359000D01*
Y358000D01*
Y318000D02*
X239000D01*
X240000Y319000D01*
X241000Y318000D01*
X242000D01*
Y319000D01*
X241000Y320000D01*
X242000Y321000D01*
Y322000D01*
X241000D01*
X240000Y321000D01*
X239000Y322000D01*
X238000D01*
Y321000D01*
X239000Y320000D01*
X238000Y319000D01*
Y318000D01*
X218000Y478000D02*
X219000D01*
X220000Y479000D01*
X221000Y478000D01*
X222000D01*
Y479000D01*
X221000Y480000D01*
X222000Y481000D01*
Y482000D01*
X221000D01*
X220000Y481000D01*
X219000Y482000D01*
X218000D01*
Y481000D01*
X219000Y480000D01*
X218000Y479000D01*
Y478000D01*
X228000Y458000D02*
X229000D01*
X230000Y459000D01*
X231000Y458000D01*
X232000D01*
Y459000D01*
X231000Y460000D01*
X232000Y461000D01*
Y462000D01*
X231000D01*
X230000Y461000D01*
X229000Y462000D01*
X228000D01*
Y461000D01*
X229000Y460000D01*
X228000Y459000D01*
Y458000D01*
X218000Y438000D02*
X219000D01*
X220000Y439000D01*
X221000Y438000D01*
X222000D01*
Y439000D01*
X221000Y440000D01*
X222000Y441000D01*
Y442000D01*
X221000D01*
X220000Y441000D01*
X219000Y442000D01*
X218000D01*
Y441000D01*
X219000Y440000D01*
X218000Y439000D01*
Y438000D01*
X228000Y378000D02*
X229000D01*
X230000Y379000D01*
X231000Y378000D01*
X232000D01*
Y379000D01*
X231000Y380000D01*
X232000Y381000D01*
Y382000D01*
X231000D01*
X230000Y381000D01*
X229000Y382000D01*
X228000D01*
Y381000D01*
X229000Y380000D01*
X228000Y379000D01*
Y378000D01*
X218000Y358000D02*
X219000D01*
X220000Y359000D01*
X221000Y358000D01*
X222000D01*
Y359000D01*
X221000Y360000D01*
X222000Y361000D01*
Y362000D01*
X221000D01*
X220000Y361000D01*
X219000Y362000D01*
X218000D01*
Y361000D01*
X219000Y360000D01*
X218000Y359000D01*
Y358000D01*
X228000Y338000D02*
X229000D01*
X230000Y339000D01*
X231000Y338000D01*
X232000D01*
Y339000D01*
X231000Y340000D01*
X232000Y341000D01*
Y342000D01*
X231000D01*
X230000Y341000D01*
X229000Y342000D01*
X228000D01*
Y341000D01*
X229000Y340000D01*
X228000Y339000D01*
Y338000D01*
Y218000D02*
X229000D01*
X230000Y219000D01*
X231000Y218000D01*
X232000D01*
Y219000D01*
X231000Y220000D01*
X232000Y221000D01*
Y222000D01*
X231000D01*
X230000Y221000D01*
X229000Y222000D01*
X228000D01*
Y221000D01*
X229000Y220000D01*
X228000Y219000D01*
Y218000D01*
X218000Y158000D02*
X219000D01*
X220000Y159000D01*
X221000Y158000D01*
X222000D01*
Y159000D01*
X221000Y160000D01*
X222000Y161000D01*
Y162000D01*
X221000D01*
X220000Y161000D01*
X219000Y162000D01*
X218000D01*
Y161000D01*
X219000Y160000D01*
X218000Y159000D01*
Y158000D01*
X198000Y358000D02*
X199000D01*
X200000Y359000D01*
X201000Y358000D01*
X202000D01*
Y359000D01*
X201000Y360000D01*
X202000Y361000D01*
Y362000D01*
X201000D01*
X200000Y361000D01*
X199000Y362000D01*
X198000D01*
Y361000D01*
X199000Y360000D01*
X198000Y359000D01*
Y358000D01*
Y318000D02*
X199000D01*
X200000Y319000D01*
X201000Y318000D01*
X202000D01*
Y319000D01*
X201000Y320000D01*
X202000Y321000D01*
Y322000D01*
X201000D01*
X200000Y321000D01*
X199000Y322000D01*
X198000D01*
Y321000D01*
X199000Y320000D01*
X198000Y319000D01*
Y318000D01*
Y278000D02*
X199000D01*
X200000Y279000D01*
X201000Y278000D01*
X202000D01*
Y279000D01*
X201000Y280000D01*
X202000Y281000D01*
Y282000D01*
X201000D01*
X200000Y281000D01*
X199000Y282000D01*
X198000D01*
Y281000D01*
X199000Y280000D01*
X198000Y279000D01*
Y278000D01*
X208000Y178000D02*
X209000D01*
X210000Y179000D01*
X211000Y178000D01*
X212000D01*
Y179000D01*
X211000Y180000D01*
X212000Y181000D01*
Y182000D01*
X211000D01*
X210000Y181000D01*
X209000Y182000D01*
X208000D01*
Y181000D01*
X209000Y180000D01*
X208000Y179000D01*
Y178000D01*
X178000Y438000D02*
X179000D01*
X180000Y439000D01*
X181000Y438000D01*
X182000D01*
Y439000D01*
X181000Y440000D01*
X182000Y441000D01*
Y442000D01*
X181000D01*
X180000Y441000D01*
X179000Y442000D01*
X178000D01*
Y441000D01*
X179000Y440000D01*
X178000Y439000D01*
Y438000D01*
X188000Y378000D02*
X189000D01*
X190000Y379000D01*
X191000Y378000D01*
X192000D01*
Y379000D01*
X191000Y380000D01*
X192000Y381000D01*
Y382000D01*
X191000D01*
X190000Y381000D01*
X189000Y382000D01*
X188000D01*
Y381000D01*
X189000Y380000D01*
X188000Y379000D01*
Y378000D01*
X178000Y278000D02*
X179000D01*
X180000Y279000D01*
X181000Y278000D01*
X182000D01*
Y279000D01*
X181000Y280000D01*
X182000Y281000D01*
Y282000D01*
X181000D01*
X180000Y281000D01*
X179000Y282000D01*
X178000D01*
Y281000D01*
X179000Y280000D01*
X178000Y279000D01*
Y278000D01*
X188000Y178000D02*
X189000D01*
X190000Y179000D01*
X191000Y178000D01*
X192000D01*
Y179000D01*
X191000Y180000D01*
X192000Y181000D01*
Y182000D01*
X191000D01*
X190000Y181000D01*
X189000Y182000D01*
X188000D01*
Y181000D01*
X189000Y180000D01*
X188000Y179000D01*
Y178000D01*
X178000Y158000D02*
X179000D01*
X180000Y159000D01*
X181000Y158000D01*
X182000D01*
Y159000D01*
X181000Y160000D01*
X182000Y161000D01*
Y162000D01*
X181000D01*
X180000Y161000D01*
X179000Y162000D01*
X178000D01*
Y161000D01*
X179000Y160000D01*
X178000Y159000D01*
Y158000D01*
X158000Y438000D02*
X159000D01*
X160000Y439000D01*
X161000Y438000D01*
X162000D01*
Y439000D01*
X161000Y440000D01*
X162000Y441000D01*
Y442000D01*
X161000D01*
X160000Y441000D01*
X159000Y442000D01*
X158000D01*
Y441000D01*
X159000Y440000D01*
X158000Y439000D01*
Y438000D01*
Y398000D02*
X159000D01*
X160000Y399000D01*
X161000Y398000D01*
X162000D01*
Y399000D01*
X161000Y400000D01*
X162000Y401000D01*
Y402000D01*
X161000D01*
X160000Y401000D01*
X159000Y402000D01*
X158000D01*
Y401000D01*
X159000Y400000D01*
X158000Y399000D01*
Y398000D01*
X168000Y378000D02*
X169000D01*
X170000Y379000D01*
X171000Y378000D01*
X172000D01*
Y379000D01*
X171000Y380000D01*
X172000Y381000D01*
Y382000D01*
X171000D01*
X170000Y381000D01*
X169000Y382000D01*
X168000D01*
Y381000D01*
X169000Y380000D01*
X168000Y379000D01*
Y378000D01*
X158000Y358000D02*
X159000D01*
X160000Y359000D01*
X161000Y358000D01*
X162000D01*
Y359000D01*
X161000Y360000D01*
X162000Y361000D01*
Y362000D01*
X161000D01*
X160000Y361000D01*
X159000Y362000D01*
X158000D01*
Y361000D01*
X159000Y360000D01*
X158000Y359000D01*
Y358000D01*
Y238000D02*
X159000D01*
X160000Y239000D01*
X161000Y238000D01*
X162000D01*
Y239000D01*
X161000Y240000D01*
X162000Y241000D01*
Y242000D01*
X161000D01*
X160000Y241000D01*
X159000Y242000D01*
X158000D01*
Y241000D01*
X159000Y240000D01*
X158000Y239000D01*
Y238000D01*
Y198000D02*
X159000D01*
X160000Y199000D01*
X161000Y198000D01*
X162000D01*
Y199000D01*
X161000Y200000D01*
X162000Y201000D01*
Y202000D01*
X161000D01*
X160000Y201000D01*
X159000Y202000D01*
X158000D01*
Y201000D01*
X159000Y200000D01*
X158000Y199000D01*
Y198000D01*
X168000Y178000D02*
X169000D01*
X170000Y179000D01*
X171000Y178000D01*
X172000D01*
Y179000D01*
X171000Y180000D01*
X172000Y181000D01*
Y182000D01*
X171000D01*
X170000Y181000D01*
X169000Y182000D01*
X168000D01*
Y181000D01*
X169000Y180000D01*
X168000Y179000D01*
Y178000D01*
X138000Y478000D02*
X139000D01*
X140000Y479000D01*
X141000Y478000D01*
X142000D01*
Y479000D01*
X141000Y480000D01*
X142000Y481000D01*
Y482000D01*
X141000D01*
X140000Y481000D01*
X139000Y482000D01*
X138000D01*
Y481000D01*
X139000Y480000D01*
X138000Y479000D01*
Y478000D01*
X148000Y458000D02*
X149000D01*
X150000Y459000D01*
X151000Y458000D01*
X152000D01*
Y459000D01*
X151000Y460000D01*
X152000Y461000D01*
Y462000D01*
X151000D01*
X150000Y461000D01*
X149000Y462000D01*
X148000D01*
Y461000D01*
X149000Y460000D01*
X148000Y459000D01*
Y458000D01*
X138000Y358000D02*
X139000D01*
X140000Y359000D01*
X141000Y358000D01*
X142000D01*
Y359000D01*
X141000Y360000D01*
X142000Y361000D01*
Y362000D01*
X141000D01*
X140000Y361000D01*
X139000Y362000D01*
X138000D01*
Y361000D01*
X139000Y360000D01*
X138000Y359000D01*
Y358000D01*
X148000Y298000D02*
X149000D01*
X150000Y299000D01*
X151000Y298000D01*
X152000D01*
Y299000D01*
X151000Y300000D01*
X152000Y301000D01*
Y302000D01*
X151000D01*
X150000Y301000D01*
X149000Y302000D01*
X148000D01*
Y301000D01*
X149000Y300000D01*
X148000Y299000D01*
Y298000D01*
X138000Y238000D02*
X139000D01*
X140000Y239000D01*
X141000Y238000D01*
X142000D01*
Y239000D01*
X141000Y240000D01*
X142000Y241000D01*
Y242000D01*
X141000D01*
X140000Y241000D01*
X139000Y242000D01*
X138000D01*
Y241000D01*
X139000Y240000D01*
X138000Y239000D01*
Y238000D01*
Y118000D02*
X139000D01*
X140000Y119000D01*
X141000Y118000D01*
X142000D01*
Y119000D01*
X141000Y120000D01*
X142000Y121000D01*
Y122000D01*
X141000D01*
X140000Y121000D01*
X139000Y122000D01*
X138000D01*
Y121000D01*
X139000Y120000D01*
X138000Y119000D01*
Y118000D01*
X128000Y458000D02*
X129000D01*
X130000Y459000D01*
X131000Y458000D01*
X132000D01*
Y459000D01*
X131000Y460000D01*
X132000Y461000D01*
Y462000D01*
X131000D01*
X130000Y461000D01*
X129000Y462000D01*
X128000D01*
Y461000D01*
X129000Y460000D01*
X128000Y459000D01*
Y458000D01*
X118000Y358000D02*
X119000D01*
X120000Y359000D01*
X121000Y358000D01*
X122000D01*
Y359000D01*
X121000Y360000D01*
X122000Y361000D01*
Y362000D01*
X121000D01*
X120000Y361000D01*
X119000Y362000D01*
X118000D01*
Y361000D01*
X119000Y360000D01*
X118000Y359000D01*
Y358000D01*
X128000Y298000D02*
X129000D01*
X130000Y299000D01*
X131000Y298000D01*
X132000D01*
Y299000D01*
X131000Y300000D01*
X132000Y301000D01*
Y302000D01*
X131000D01*
X130000Y301000D01*
X129000Y302000D01*
X128000D01*
Y301000D01*
X129000Y300000D01*
X128000Y299000D01*
Y298000D01*
X118000Y238000D02*
X119000D01*
X120000Y239000D01*
X121000Y238000D01*
X122000D01*
Y239000D01*
X121000Y240000D01*
X122000Y241000D01*
Y242000D01*
X121000D01*
X120000Y241000D01*
X119000Y242000D01*
X118000D01*
Y241000D01*
X119000Y240000D01*
X118000Y239000D01*
Y238000D01*
X336200Y321300D02*
X337200D01*
X338200Y322300D01*
X339200Y321300D01*
X340200D01*
Y322300D01*
X339200Y323300D01*
X340200Y324300D01*
Y325300D01*
X339200D01*
X338200Y324300D01*
X337200Y325300D01*
X336200D01*
Y324300D01*
X337200Y323300D01*
X336200Y322300D01*
Y321300D01*
X219200Y306100D02*
X220200D01*
X221200Y307100D01*
X222200Y306100D01*
X223200D01*
Y307100D01*
X222200Y308100D01*
X223200Y309100D01*
Y310100D01*
X222200D01*
X221200Y309100D01*
X220200Y310100D01*
X219200D01*
Y309100D01*
X220200Y308100D01*
X219200Y307100D01*
Y306100D01*
X193678Y306078D02*
X194678D01*
X195678Y307078D01*
X196678Y306078D01*
X197678D01*
Y307078D01*
X196678Y308078D01*
X197678Y309078D01*
Y310078D01*
X196678D01*
X195678Y309078D01*
X194678Y310078D01*
X193678D01*
Y309078D01*
X194678Y308078D01*
X193678Y307078D01*
Y306078D01*
X207400Y339600D02*
X208400D01*
X209400Y340600D01*
X210400Y339600D01*
X211400D01*
Y340600D01*
X210400Y341600D01*
X211400Y342600D01*
Y343600D01*
X210400D01*
X209400Y342600D01*
X208400Y343600D01*
X207400D01*
Y342600D01*
X208400Y341600D01*
X207400Y340600D01*
Y339600D01*
X218100Y272400D02*
X219100D01*
X220100Y273400D01*
X221100Y272400D01*
X222100D01*
Y273400D01*
X221100Y274400D01*
X222100Y275400D01*
Y276400D01*
X221100D01*
X220100Y275400D01*
X219100Y276400D01*
X218100D01*
Y275400D01*
X219100Y274400D01*
X218100Y273400D01*
Y272400D01*
X231382Y253778D02*
X232382D01*
X233382Y254778D01*
X234382Y253778D01*
X235382D01*
Y254778D01*
X234382Y255778D01*
X235382Y256778D01*
Y257778D01*
X234382D01*
X233382Y256778D01*
X232382Y257778D01*
X231382D01*
Y256778D01*
X232382Y255778D01*
X231382Y254778D01*
Y253778D01*
X258027Y220427D02*
X259027D01*
X260027Y221427D01*
X261027Y220427D01*
X262027D01*
Y221427D01*
X261027Y222427D01*
X262027Y223427D01*
Y224427D01*
X261027D01*
X260027Y223427D01*
X259027Y224427D01*
X258027D01*
Y223427D01*
X259027Y222427D01*
X258027Y221427D01*
Y220427D01*
D104*
X147886Y339252D02*
G03*
X147886Y339252I-2000J0D01*
G01*
Y279252D02*
G03*
X147886Y279252I-2000J0D01*
G01*
X368252Y454201D02*
G03*
X368252Y454201I-2000J0D01*
G01*
X377157Y146386D02*
G03*
X377157Y146386I-2000J0D01*
G01*
X315248D02*
G03*
X315248Y146386I-2000J0D01*
G01*
X460315Y454201D02*
G03*
X460315Y454201I-2000J0D01*
G01*
X249748Y146386D02*
G03*
X249748Y146386I-2000J0D01*
G01*
X513248Y146386D02*
G03*
X513248Y146386I-2000J0D01*
G01*
X195343Y454201D02*
G03*
X195343Y454201I-2000J0D01*
G01*
X124000Y479000D02*
G03*
X124000Y479000I-2000J0D01*
G01*
X580000D02*
G03*
X580000Y479000I-2000J0D01*
G01*
Y121000D02*
G03*
X580000Y121000I-2000J0D01*
G01*
X124000D02*
G03*
X124000Y121000I-2000J0D01*
G01*
D105*
X123200Y479000D02*
G03*
X123200Y479000I-1200J0D01*
G01*
X579200D02*
G03*
X579200Y479000I-1200J0D01*
G01*
Y121000D02*
G03*
X579200Y121000I-1200J0D01*
G01*
X123200D02*
G03*
X123200Y121000I-1200J0D01*
G01*
M02*
