G04*
G04 #@! TF.GenerationSoftware,Altium Limited,Altium Designer,26.1.1 (7)*
G04*
G04 Layer_Physical_Order=2*
G04 Layer_Color=36540*
%FSLAX25Y25*%
%MOIN*%
G70*
G04*
G04 #@! TF.SameCoordinates,05B1B593-E408-4DA2-8DBD-B8854F46C338*
G04*
G04*
G04 #@! TF.FilePolarity,Positive*
G04*
G01*
G75*
%ADD94C,0.06890*%
%ADD95R,0.06890X0.06890*%
%ADD96R,0.06890X0.06890*%
%ADD97C,0.04134*%
%ADD98C,0.06000*%
%ADD99C,0.02402*%
%ADD100C,0.01772*%
G36*
X234324Y398868D02*
X237619Y398212D01*
X240835Y397237D01*
X243939Y395951D01*
X246902Y394367D01*
X249696Y392501D01*
X252293Y390369D01*
X254669Y387993D01*
X256801Y385396D01*
X258667Y382602D01*
X260251Y379639D01*
X261537Y376535D01*
X262512Y373319D01*
X263168Y370024D01*
X263497Y366680D01*
Y365000D01*
Y35000D01*
Y33320D01*
X263168Y29976D01*
X262512Y26681D01*
X261537Y23465D01*
X260251Y20361D01*
X258667Y17398D01*
X256801Y14604D01*
X254669Y12007D01*
X252293Y9631D01*
X249696Y7499D01*
X246902Y5633D01*
X243939Y4049D01*
X240835Y2763D01*
X237619Y1788D01*
X234324Y1132D01*
X233135Y1015D01*
X35197Y1015D01*
X31165D01*
X29976Y1132D01*
X26681Y1788D01*
X23465Y2763D01*
X20361Y4049D01*
X17398Y5633D01*
X14604Y7499D01*
X12007Y9631D01*
X9631Y12007D01*
X7499Y14604D01*
X5633Y17398D01*
X4049Y20361D01*
X2763Y23465D01*
X1788Y26681D01*
X1132Y29976D01*
X803Y33320D01*
Y35000D01*
Y365000D01*
Y366680D01*
X1132Y370024D01*
X1788Y373319D01*
X2763Y376535D01*
X4049Y379639D01*
X5633Y382602D01*
X7499Y385396D01*
X9631Y387993D01*
X12007Y390369D01*
X14604Y392501D01*
X17398Y394367D01*
X20361Y395951D01*
X23465Y397237D01*
X26681Y398212D01*
X29976Y398868D01*
X33320Y399197D01*
X230980D01*
X234324Y398868D01*
D02*
G37*
%LPC*%
G36*
X160006Y391745D02*
X159700D01*
Y388100D01*
X163345D01*
Y388406D01*
X163083Y389384D01*
X162577Y390261D01*
X161861Y390977D01*
X160984Y391483D01*
X160006Y391745D01*
D02*
G37*
G36*
X122406D02*
X122100D01*
Y388100D01*
X125745D01*
Y388406D01*
X125483Y389384D01*
X124977Y390261D01*
X124261Y390977D01*
X123384Y391483D01*
X122406Y391745D01*
D02*
G37*
G36*
X213406D02*
X213100D01*
Y388100D01*
X216745D01*
Y388406D01*
X216483Y389384D01*
X215977Y390261D01*
X215261Y390977D01*
X214384Y391483D01*
X213406Y391745D01*
D02*
G37*
G36*
X159300D02*
X158994D01*
X158016Y391483D01*
X157139Y390977D01*
X156423Y390261D01*
X155917Y389384D01*
X155655Y388406D01*
Y388100D01*
X159300D01*
Y391745D01*
D02*
G37*
G36*
X121700D02*
X121394D01*
X120416Y391483D01*
X119539Y390977D01*
X118823Y390261D01*
X118317Y389384D01*
X118055Y388406D01*
Y388100D01*
X121700D01*
Y391745D01*
D02*
G37*
G36*
X212700D02*
X212394D01*
X211416Y391483D01*
X210539Y390977D01*
X209823Y390261D01*
X209317Y389384D01*
X209055Y388406D01*
Y388100D01*
X212700D01*
Y391745D01*
D02*
G37*
G36*
X216745Y387700D02*
X213100D01*
Y384055D01*
X213406D01*
X214384Y384317D01*
X215261Y384823D01*
X215977Y385539D01*
X216483Y386416D01*
X216745Y387394D01*
Y387700D01*
D02*
G37*
G36*
X212700D02*
X209055D01*
Y387394D01*
X209317Y386416D01*
X209823Y385539D01*
X210539Y384823D01*
X211416Y384317D01*
X212394Y384055D01*
X212700D01*
Y387700D01*
D02*
G37*
G36*
X163345D02*
X159700D01*
Y384055D01*
X160006D01*
X160984Y384317D01*
X161861Y384823D01*
X162577Y385539D01*
X163083Y386416D01*
X163345Y387394D01*
Y387700D01*
D02*
G37*
G36*
X159300D02*
X155655D01*
Y387394D01*
X155917Y386416D01*
X156423Y385539D01*
X157139Y384823D01*
X158016Y384317D01*
X158994Y384055D01*
X159300D01*
Y387700D01*
D02*
G37*
G36*
X125745D02*
X122100D01*
Y384055D01*
X122406D01*
X123384Y384317D01*
X124261Y384823D01*
X124977Y385539D01*
X125483Y386416D01*
X125745Y387394D01*
Y387700D01*
D02*
G37*
G36*
X121700D02*
X118055D01*
Y387394D01*
X118317Y386416D01*
X118823Y385539D01*
X119539Y384823D01*
X120416Y384317D01*
X121394Y384055D01*
X121700D01*
Y387700D01*
D02*
G37*
G36*
X68806Y391545D02*
X67794D01*
X66816Y391283D01*
X65939Y390777D01*
X65223Y390061D01*
X64717Y389184D01*
X64455Y388206D01*
Y387194D01*
X64717Y386216D01*
X65223Y385339D01*
X65939Y384623D01*
X66816Y384117D01*
X67794Y383855D01*
X68806D01*
X69784Y384117D01*
X70661Y384623D01*
X71377Y385339D01*
X71883Y386216D01*
X72145Y387194D01*
Y388206D01*
X71883Y389184D01*
X71377Y390061D01*
X70661Y390777D01*
X69784Y391283D01*
X68806Y391545D01*
D02*
G37*
G36*
X243546Y386579D02*
X242054D01*
X240589Y386287D01*
X239210Y385716D01*
X237969Y384887D01*
X236913Y383831D01*
X236084Y382590D01*
X235512Y381211D01*
X235221Y379746D01*
Y378254D01*
X235512Y376789D01*
X236084Y375410D01*
X236913Y374169D01*
X237969Y373113D01*
X239210Y372284D01*
X240589Y371712D01*
X242054Y371421D01*
X243546D01*
X245011Y371712D01*
X246390Y372284D01*
X247631Y373113D01*
X248687Y374169D01*
X249516Y375410D01*
X250087Y376789D01*
X250379Y378254D01*
Y379746D01*
X250087Y381211D01*
X249516Y382590D01*
X248687Y383831D01*
X247631Y384887D01*
X246390Y385716D01*
X245011Y386287D01*
X243546Y386579D01*
D02*
G37*
G36*
X22746D02*
X21254D01*
X19789Y386287D01*
X18410Y385716D01*
X17169Y384887D01*
X16113Y383831D01*
X15284Y382590D01*
X14713Y381211D01*
X14421Y379746D01*
Y378254D01*
X14713Y376789D01*
X15284Y375410D01*
X16113Y374169D01*
X17169Y373113D01*
X18410Y372284D01*
X19789Y371712D01*
X21254Y371421D01*
X22746D01*
X24211Y371712D01*
X25590Y372284D01*
X26831Y373113D01*
X27887Y374169D01*
X28716Y375410D01*
X29287Y376789D01*
X29579Y378254D01*
Y379746D01*
X29287Y381211D01*
X28716Y382590D01*
X27887Y383831D01*
X26831Y384887D01*
X25590Y385716D01*
X24211Y386287D01*
X22746Y386579D01*
D02*
G37*
G36*
X72145Y369891D02*
X68500D01*
Y366246D01*
X72145D01*
Y369891D01*
D02*
G37*
G36*
X68100D02*
X64455D01*
Y366246D01*
X68100D01*
Y369891D01*
D02*
G37*
G36*
X216745Y370091D02*
X209055D01*
Y362402D01*
X216745D01*
Y370091D01*
D02*
G37*
G36*
X163345D02*
X155655D01*
Y362402D01*
X163345D01*
Y370091D01*
D02*
G37*
G36*
X125745D02*
X118055D01*
Y362402D01*
X125745D01*
Y370091D01*
D02*
G37*
G36*
X72145Y365846D02*
X68500D01*
Y362201D01*
X72145D01*
Y365846D01*
D02*
G37*
G36*
X68100D02*
X64455D01*
Y362201D01*
X68100D01*
Y365846D01*
D02*
G37*
G36*
X192076Y361686D02*
X191524D01*
X191015Y361475D01*
X190625Y361085D01*
X190414Y360576D01*
Y360024D01*
X190625Y359515D01*
X191015Y359125D01*
X191524Y358914D01*
X192076D01*
X192585Y359125D01*
X192975Y359515D01*
X193186Y360024D01*
Y360576D01*
X192975Y361085D01*
X192585Y361475D01*
X192076Y361686D01*
D02*
G37*
G36*
X38145Y355645D02*
X30455D01*
Y347955D01*
X38145D01*
Y355645D01*
D02*
G37*
G36*
X13153D02*
X12140D01*
X11162Y355383D01*
X10286Y354877D01*
X9570Y354161D01*
X9064Y353284D01*
X8801Y352306D01*
Y351294D01*
X9064Y350316D01*
X9570Y349439D01*
X10286Y348723D01*
X11162Y348217D01*
X12140Y347955D01*
X13153D01*
X14130Y348217D01*
X15007Y348723D01*
X15723Y349439D01*
X16229Y350316D01*
X16491Y351294D01*
Y352306D01*
X16229Y353284D01*
X15723Y354161D01*
X15007Y354877D01*
X14130Y355383D01*
X13153Y355645D01*
D02*
G37*
G36*
X129076Y335986D02*
X128524D01*
X128015Y335775D01*
X127625Y335385D01*
X127414Y334876D01*
Y334324D01*
X127625Y333815D01*
X128015Y333425D01*
X128524Y333214D01*
X129076D01*
X129585Y333425D01*
X129975Y333815D01*
X130186Y334324D01*
Y334876D01*
X129975Y335385D01*
X129585Y335775D01*
X129076Y335986D01*
D02*
G37*
G36*
X122376D02*
X121824D01*
X121315Y335775D01*
X120925Y335385D01*
X120714Y334876D01*
Y334324D01*
X120925Y333815D01*
X121315Y333425D01*
X121824Y333214D01*
X122376D01*
X122885Y333425D01*
X123275Y333815D01*
X123486Y334324D01*
Y334876D01*
X123275Y335385D01*
X122885Y335775D01*
X122376Y335986D01*
D02*
G37*
G36*
X58976Y331586D02*
X58424D01*
X57915Y331375D01*
X57525Y330985D01*
X57314Y330476D01*
Y329924D01*
X57525Y329415D01*
X57915Y329025D01*
X58424Y328814D01*
X58976D01*
X59485Y329025D01*
X59875Y329415D01*
X60086Y329924D01*
Y330476D01*
X59875Y330985D01*
X59485Y331375D01*
X58976Y331586D01*
D02*
G37*
G36*
X237038Y331101D02*
X236362D01*
X235737Y330842D01*
X235258Y330363D01*
X234999Y329738D01*
Y329062D01*
X235258Y328437D01*
X235737Y327958D01*
X236362Y327699D01*
X237038D01*
X237663Y327958D01*
X238142Y328437D01*
X238401Y329062D01*
Y329738D01*
X238142Y330363D01*
X237663Y330842D01*
X237038Y331101D01*
D02*
G37*
G36*
X204738Y321801D02*
X204062D01*
X203437Y321542D01*
X202958Y321063D01*
X202699Y320438D01*
Y319762D01*
X202958Y319137D01*
X203437Y318658D01*
X204062Y318399D01*
X204738D01*
X205363Y318658D01*
X205842Y319137D01*
X206101Y319762D01*
Y320438D01*
X205842Y321063D01*
X205363Y321542D01*
X204738Y321801D01*
D02*
G37*
G36*
X37799Y305345D02*
X34154D01*
Y301700D01*
X37799D01*
Y305345D01*
D02*
G37*
G36*
X33754D02*
X30109D01*
Y301700D01*
X33754D01*
Y305345D01*
D02*
G37*
G36*
X37799Y301300D02*
X34154D01*
Y297655D01*
X37799D01*
Y301300D01*
D02*
G37*
G36*
X33754D02*
X30109D01*
Y297655D01*
X33754D01*
Y301300D01*
D02*
G37*
G36*
X12806Y305345D02*
X11794D01*
X10816Y305083D01*
X9939Y304577D01*
X9223Y303861D01*
X8717Y302984D01*
X8455Y302006D01*
Y300994D01*
X8717Y300016D01*
X9223Y299139D01*
X9939Y298423D01*
X10816Y297917D01*
X11794Y297655D01*
X12806D01*
X13784Y297917D01*
X14661Y298423D01*
X15377Y299139D01*
X15883Y300016D01*
X16145Y300994D01*
Y302006D01*
X15883Y302984D01*
X15377Y303861D01*
X14661Y304577D01*
X13784Y305083D01*
X12806Y305345D01*
D02*
G37*
G36*
X199238Y294401D02*
X198562D01*
X197937Y294142D01*
X197458Y293663D01*
X197199Y293038D01*
Y292362D01*
X197458Y291737D01*
X197937Y291258D01*
X198562Y290999D01*
X199238D01*
X199863Y291258D01*
X200342Y291737D01*
X200601Y292362D01*
Y293038D01*
X200342Y293663D01*
X199863Y294142D01*
X199238Y294401D01*
D02*
G37*
G36*
X223638Y286401D02*
X222962D01*
X222337Y286142D01*
X221858Y285663D01*
X221599Y285038D01*
Y284362D01*
X221858Y283737D01*
X222337Y283258D01*
X222962Y282999D01*
X223638D01*
X224263Y283258D01*
X224742Y283737D01*
X225001Y284362D01*
Y285038D01*
X224742Y285663D01*
X224263Y286142D01*
X223638Y286401D01*
D02*
G37*
G36*
X219472D02*
X218795D01*
X218170Y286142D01*
X217692Y285663D01*
X217433Y285038D01*
Y284362D01*
X217692Y283737D01*
X218170Y283258D01*
X218795Y282999D01*
X219472D01*
X220097Y283258D01*
X220575Y283737D01*
X220834Y284362D01*
Y285038D01*
X220575Y285663D01*
X220097Y286142D01*
X219472Y286401D01*
D02*
G37*
G36*
X215338D02*
X214662D01*
X214037Y286142D01*
X213558Y285663D01*
X213299Y285038D01*
Y284362D01*
X213558Y283737D01*
X214037Y283258D01*
X214662Y282999D01*
X215338D01*
X215963Y283258D01*
X216442Y283737D01*
X216701Y284362D01*
Y285038D01*
X216442Y285663D01*
X215963Y286142D01*
X215338Y286401D01*
D02*
G37*
G36*
X223638Y282301D02*
X222962D01*
X222337Y282042D01*
X221858Y281563D01*
X221599Y280938D01*
Y280262D01*
X221858Y279637D01*
X222337Y279158D01*
X222962Y278899D01*
X223638D01*
X224263Y279158D01*
X224742Y279637D01*
X225001Y280262D01*
Y280938D01*
X224742Y281563D01*
X224263Y282042D01*
X223638Y282301D01*
D02*
G37*
G36*
X219472D02*
X218795D01*
X218170Y282042D01*
X217692Y281563D01*
X217433Y280938D01*
Y280262D01*
X217692Y279637D01*
X218170Y279158D01*
X218795Y278899D01*
X219472D01*
X220097Y279158D01*
X220575Y279637D01*
X220834Y280262D01*
Y280938D01*
X220575Y281563D01*
X220097Y282042D01*
X219472Y282301D01*
D02*
G37*
G36*
X215338D02*
X214662D01*
X214037Y282042D01*
X213558Y281563D01*
X213299Y280938D01*
Y280262D01*
X213558Y279637D01*
X214037Y279158D01*
X214662Y278899D01*
X215338D01*
X215963Y279158D01*
X216442Y279637D01*
X216701Y280262D01*
Y280938D01*
X216442Y281563D01*
X215963Y282042D01*
X215338Y282301D01*
D02*
G37*
G36*
X223638Y278201D02*
X222962D01*
X222337Y277942D01*
X221858Y277463D01*
X221599Y276838D01*
Y276162D01*
X221858Y275537D01*
X222337Y275058D01*
X222962Y274799D01*
X223638D01*
X224263Y275058D01*
X224742Y275537D01*
X225001Y276162D01*
Y276838D01*
X224742Y277463D01*
X224263Y277942D01*
X223638Y278201D01*
D02*
G37*
G36*
X219472D02*
X218795D01*
X218170Y277942D01*
X217692Y277463D01*
X217433Y276838D01*
Y276162D01*
X217692Y275537D01*
X218170Y275058D01*
X218795Y274799D01*
X219472D01*
X220097Y275058D01*
X220575Y275537D01*
X220834Y276162D01*
Y276838D01*
X220575Y277463D01*
X220097Y277942D01*
X219472Y278201D01*
D02*
G37*
G36*
X215338D02*
X214662D01*
X214037Y277942D01*
X213558Y277463D01*
X213299Y276838D01*
Y276162D01*
X213558Y275537D01*
X214037Y275058D01*
X214662Y274799D01*
X215338D01*
X215963Y275058D01*
X216442Y275537D01*
X216701Y276162D01*
Y276838D01*
X216442Y277463D01*
X215963Y277942D01*
X215338Y278201D01*
D02*
G37*
G36*
X99576Y274786D02*
X99024D01*
X98515Y274575D01*
X98125Y274185D01*
X97914Y273676D01*
Y273124D01*
X98125Y272615D01*
X98515Y272225D01*
X99024Y272014D01*
X99576D01*
X100085Y272225D01*
X100475Y272615D01*
X100686Y273124D01*
Y273676D01*
X100475Y274185D01*
X100085Y274575D01*
X99576Y274786D01*
D02*
G37*
G36*
X223638Y274101D02*
X222962D01*
X222337Y273842D01*
X221858Y273363D01*
X221599Y272738D01*
Y272062D01*
X221858Y271437D01*
X222337Y270958D01*
X222962Y270699D01*
X223638D01*
X224263Y270958D01*
X224742Y271437D01*
X225001Y272062D01*
Y272738D01*
X224742Y273363D01*
X224263Y273842D01*
X223638Y274101D01*
D02*
G37*
G36*
X219472D02*
X218795D01*
X218170Y273842D01*
X217692Y273363D01*
X217433Y272738D01*
Y272062D01*
X217692Y271437D01*
X218170Y270958D01*
X218795Y270699D01*
X219472D01*
X220097Y270958D01*
X220575Y271437D01*
X220834Y272062D01*
Y272738D01*
X220575Y273363D01*
X220097Y273842D01*
X219472Y274101D01*
D02*
G37*
G36*
X215338D02*
X214662D01*
X214037Y273842D01*
X213558Y273363D01*
X213299Y272738D01*
Y272062D01*
X213558Y271437D01*
X214037Y270958D01*
X214662Y270699D01*
X215338D01*
X215963Y270958D01*
X216442Y271437D01*
X216701Y272062D01*
Y272738D01*
X216442Y273363D01*
X215963Y273842D01*
X215338Y274101D01*
D02*
G37*
G36*
X37799Y270245D02*
X34154D01*
Y266600D01*
X37799D01*
Y270245D01*
D02*
G37*
G36*
X33754D02*
X30109D01*
Y266600D01*
X33754D01*
Y270245D01*
D02*
G37*
G36*
X37799Y266200D02*
X34154D01*
Y262555D01*
X37799D01*
Y266200D01*
D02*
G37*
G36*
X33754D02*
X30109D01*
Y262555D01*
X33754D01*
Y266200D01*
D02*
G37*
G36*
X12806Y270245D02*
X11794D01*
X10816Y269983D01*
X9939Y269477D01*
X9223Y268761D01*
X8717Y267884D01*
X8455Y266906D01*
Y265894D01*
X8717Y264916D01*
X9223Y264039D01*
X9939Y263323D01*
X10816Y262817D01*
X11794Y262555D01*
X12806D01*
X13784Y262817D01*
X14661Y263323D01*
X15377Y264039D01*
X15883Y264916D01*
X16145Y265894D01*
Y266906D01*
X15883Y267884D01*
X15377Y268761D01*
X14661Y269477D01*
X13784Y269983D01*
X12806Y270245D01*
D02*
G37*
G36*
X147538Y265101D02*
X146862D01*
X146237Y264842D01*
X145758Y264363D01*
X145499Y263738D01*
Y263062D01*
X145758Y262437D01*
X146237Y261958D01*
X146862Y261699D01*
X147538D01*
X148163Y261958D01*
X148642Y262437D01*
X148901Y263062D01*
Y263738D01*
X148642Y264363D01*
X148163Y264842D01*
X147538Y265101D01*
D02*
G37*
G36*
X143438D02*
X142762D01*
X142137Y264842D01*
X141658Y264363D01*
X141399Y263738D01*
Y263062D01*
X141658Y262437D01*
X142137Y261958D01*
X142762Y261699D01*
X143438D01*
X144063Y261958D01*
X144542Y262437D01*
X144801Y263062D01*
Y263738D01*
X144542Y264363D01*
X144063Y264842D01*
X143438Y265101D01*
D02*
G37*
G36*
X139338D02*
X138662D01*
X138037Y264842D01*
X137558Y264363D01*
X137299Y263738D01*
Y263062D01*
X137558Y262437D01*
X138037Y261958D01*
X138662Y261699D01*
X139338D01*
X139963Y261958D01*
X140442Y262437D01*
X140701Y263062D01*
Y263738D01*
X140442Y264363D01*
X139963Y264842D01*
X139338Y265101D01*
D02*
G37*
G36*
X135238D02*
X134562D01*
X133937Y264842D01*
X133458Y264363D01*
X133199Y263738D01*
Y263062D01*
X133458Y262437D01*
X133937Y261958D01*
X134562Y261699D01*
X135238D01*
X135863Y261958D01*
X136342Y262437D01*
X136601Y263062D01*
Y263738D01*
X136342Y264363D01*
X135863Y264842D01*
X135238Y265101D01*
D02*
G37*
G36*
X147538Y260934D02*
X146862D01*
X146237Y260675D01*
X145758Y260197D01*
X145499Y259572D01*
Y258895D01*
X145758Y258270D01*
X146237Y257792D01*
X146862Y257533D01*
X147538D01*
X148163Y257792D01*
X148642Y258270D01*
X148901Y258895D01*
Y259572D01*
X148642Y260197D01*
X148163Y260675D01*
X147538Y260934D01*
D02*
G37*
G36*
X143438D02*
X142762D01*
X142137Y260675D01*
X141658Y260197D01*
X141399Y259572D01*
Y258895D01*
X141658Y258270D01*
X142137Y257792D01*
X142762Y257533D01*
X143438D01*
X144063Y257792D01*
X144542Y258270D01*
X144801Y258895D01*
Y259572D01*
X144542Y260197D01*
X144063Y260675D01*
X143438Y260934D01*
D02*
G37*
G36*
X139338D02*
X138662D01*
X138037Y260675D01*
X137558Y260197D01*
X137299Y259572D01*
Y258895D01*
X137558Y258270D01*
X138037Y257792D01*
X138662Y257533D01*
X139338D01*
X139963Y257792D01*
X140442Y258270D01*
X140701Y258895D01*
Y259572D01*
X140442Y260197D01*
X139963Y260675D01*
X139338Y260934D01*
D02*
G37*
G36*
X135238D02*
X134562D01*
X133937Y260675D01*
X133458Y260197D01*
X133199Y259572D01*
Y258895D01*
X133458Y258270D01*
X133937Y257792D01*
X134562Y257533D01*
X135238D01*
X135863Y257792D01*
X136342Y258270D01*
X136601Y258895D01*
Y259572D01*
X136342Y260197D01*
X135863Y260675D01*
X135238Y260934D01*
D02*
G37*
G36*
X147538Y256801D02*
X146862D01*
X146237Y256542D01*
X145758Y256063D01*
X145499Y255438D01*
Y254762D01*
X145758Y254137D01*
X146237Y253658D01*
X146862Y253399D01*
X147538D01*
X148163Y253658D01*
X148642Y254137D01*
X148901Y254762D01*
Y255438D01*
X148642Y256063D01*
X148163Y256542D01*
X147538Y256801D01*
D02*
G37*
G36*
X143438D02*
X142762D01*
X142137Y256542D01*
X141658Y256063D01*
X141399Y255438D01*
Y254762D01*
X141658Y254137D01*
X142137Y253658D01*
X142762Y253399D01*
X143438D01*
X144063Y253658D01*
X144542Y254137D01*
X144801Y254762D01*
Y255438D01*
X144542Y256063D01*
X144063Y256542D01*
X143438Y256801D01*
D02*
G37*
G36*
X139338D02*
X138662D01*
X138037Y256542D01*
X137558Y256063D01*
X137299Y255438D01*
Y254762D01*
X137558Y254137D01*
X138037Y253658D01*
X138662Y253399D01*
X139338D01*
X139963Y253658D01*
X140442Y254137D01*
X140701Y254762D01*
Y255438D01*
X140442Y256063D01*
X139963Y256542D01*
X139338Y256801D01*
D02*
G37*
G36*
X135238D02*
X134562D01*
X133937Y256542D01*
X133458Y256063D01*
X133199Y255438D01*
Y254762D01*
X133458Y254137D01*
X133937Y253658D01*
X134562Y253399D01*
X135238D01*
X135863Y253658D01*
X136342Y254137D01*
X136601Y254762D01*
Y255438D01*
X136342Y256063D01*
X135863Y256542D01*
X135238Y256801D01*
D02*
G37*
G36*
X34552Y235445D02*
X33540D01*
X32562Y235183D01*
X31685Y234677D01*
X30969Y233961D01*
X30463Y233084D01*
X30201Y232106D01*
Y231094D01*
X30463Y230116D01*
X30969Y229239D01*
X31685Y228523D01*
X32562Y228017D01*
X33540Y227755D01*
X34552D01*
X35530Y228017D01*
X36407Y228523D01*
X37123Y229239D01*
X37629Y230116D01*
X37891Y231094D01*
Y232106D01*
X37629Y233084D01*
X37123Y233961D01*
X36407Y234677D01*
X35530Y235183D01*
X34552Y235445D01*
D02*
G37*
G36*
X12899D02*
X11886D01*
X10909Y235183D01*
X10032Y234677D01*
X9316Y233961D01*
X8810Y233084D01*
X8548Y232106D01*
Y231094D01*
X8810Y230116D01*
X9316Y229239D01*
X10032Y228523D01*
X10909Y228017D01*
X11886Y227755D01*
X12899D01*
X13877Y228017D01*
X14753Y228523D01*
X15469Y229239D01*
X15976Y230116D01*
X16238Y231094D01*
Y232106D01*
X15976Y233084D01*
X15469Y233961D01*
X14753Y234677D01*
X13877Y235183D01*
X12899Y235445D01*
D02*
G37*
G36*
X113176Y222386D02*
X112624D01*
X112115Y222175D01*
X111725Y221785D01*
X111514Y221276D01*
Y220724D01*
X111725Y220215D01*
X112115Y219825D01*
X112624Y219614D01*
X113176D01*
X113685Y219825D01*
X114075Y220215D01*
X114286Y220724D01*
Y221276D01*
X114075Y221785D01*
X113685Y222175D01*
X113176Y222386D01*
D02*
G37*
G36*
X139776Y222286D02*
X139224D01*
X138715Y222075D01*
X138325Y221685D01*
X138114Y221176D01*
Y220624D01*
X138325Y220115D01*
X138715Y219725D01*
X139224Y219514D01*
X139776D01*
X140285Y219725D01*
X140675Y220115D01*
X140886Y220624D01*
Y221176D01*
X140675Y221685D01*
X140285Y222075D01*
X139776Y222286D01*
D02*
G37*
G36*
X113176Y216386D02*
X112624D01*
X112115Y216175D01*
X111725Y215785D01*
X111514Y215276D01*
Y214724D01*
X111725Y214215D01*
X112115Y213825D01*
X112624Y213614D01*
X113176D01*
X113685Y213825D01*
X114075Y214215D01*
X114286Y214724D01*
Y215276D01*
X114075Y215785D01*
X113685Y216175D01*
X113176Y216386D01*
D02*
G37*
G36*
X139776Y216286D02*
X139224D01*
X138715Y216075D01*
X138325Y215685D01*
X138114Y215176D01*
Y214624D01*
X138325Y214115D01*
X138715Y213725D01*
X139224Y213514D01*
X139776D01*
X140285Y213725D01*
X140675Y214115D01*
X140886Y214624D01*
Y215176D01*
X140675Y215685D01*
X140285Y216075D01*
X139776Y216286D01*
D02*
G37*
G36*
X34552Y218910D02*
X33540D01*
X32562Y218648D01*
X31685Y218141D01*
X30969Y217425D01*
X30463Y216549D01*
X30201Y215571D01*
Y214558D01*
X30463Y213580D01*
X30969Y212704D01*
X31685Y211988D01*
X32562Y211482D01*
X33540Y211220D01*
X34552D01*
X35530Y211482D01*
X36407Y211988D01*
X37123Y212704D01*
X37629Y213580D01*
X37891Y214558D01*
Y215571D01*
X37629Y216549D01*
X37123Y217425D01*
X36407Y218141D01*
X35530Y218648D01*
X34552Y218910D01*
D02*
G37*
G36*
X16238D02*
X8548D01*
Y211220D01*
X16238D01*
Y218910D01*
D02*
G37*
G36*
X113176Y210386D02*
X112624D01*
X112115Y210175D01*
X111725Y209785D01*
X111514Y209276D01*
Y208724D01*
X111725Y208215D01*
X112115Y207825D01*
X112624Y207614D01*
X113176D01*
X113685Y207825D01*
X114075Y208215D01*
X114286Y208724D01*
Y209276D01*
X114075Y209785D01*
X113685Y210175D01*
X113176Y210386D01*
D02*
G37*
G36*
X139776Y210286D02*
X139224D01*
X138715Y210075D01*
X138325Y209685D01*
X138114Y209176D01*
Y208624D01*
X138325Y208115D01*
X138715Y207725D01*
X139224Y207514D01*
X139776D01*
X140285Y207725D01*
X140675Y208115D01*
X140886Y208624D01*
Y209176D01*
X140675Y209685D01*
X140285Y210075D01*
X139776Y210286D01*
D02*
G37*
G36*
X139213Y205986D02*
X138661D01*
X138152Y205775D01*
X137762Y205385D01*
X137551Y204876D01*
Y204324D01*
X137762Y203815D01*
X138152Y203425D01*
X138661Y203214D01*
X139213D01*
X139722Y203425D01*
X140112Y203815D01*
X140323Y204324D01*
Y204876D01*
X140112Y205385D01*
X139722Y205775D01*
X139213Y205986D01*
D02*
G37*
G36*
X135276D02*
X134724D01*
X134215Y205775D01*
X133825Y205385D01*
X133614Y204876D01*
Y204324D01*
X133825Y203815D01*
X134215Y203425D01*
X134724Y203214D01*
X135276D01*
X135785Y203425D01*
X136175Y203815D01*
X136386Y204324D01*
Y204876D01*
X136175Y205385D01*
X135785Y205775D01*
X135276Y205986D01*
D02*
G37*
G36*
X252506Y206545D02*
X252200D01*
Y202900D01*
X255845D01*
Y203206D01*
X255583Y204184D01*
X255077Y205061D01*
X254361Y205777D01*
X253484Y206283D01*
X252506Y206545D01*
D02*
G37*
G36*
X251800D02*
X251494D01*
X250516Y206283D01*
X249639Y205777D01*
X248923Y205061D01*
X248417Y204184D01*
X248155Y203206D01*
Y202900D01*
X251800D01*
Y206545D01*
D02*
G37*
G36*
X79611Y203686D02*
X79060D01*
X78551Y203475D01*
X78161Y203085D01*
X77950Y202576D01*
Y202024D01*
X78161Y201515D01*
X78551Y201125D01*
X79060Y200914D01*
X79611D01*
X80121Y201125D01*
X80511Y201515D01*
X80722Y202024D01*
Y202576D01*
X80511Y203085D01*
X80121Y203475D01*
X79611Y203686D01*
D02*
G37*
G36*
X255845Y202500D02*
X252200D01*
Y198855D01*
X252506D01*
X253484Y199117D01*
X254361Y199623D01*
X255077Y200339D01*
X255583Y201216D01*
X255845Y202194D01*
Y202500D01*
D02*
G37*
G36*
X251800D02*
X248155D01*
Y202194D01*
X248417Y201216D01*
X248923Y200339D01*
X249639Y199623D01*
X250516Y199117D01*
X251494Y198855D01*
X251800D01*
Y202500D01*
D02*
G37*
G36*
X234191Y206545D02*
X226501D01*
Y198855D01*
X234191D01*
Y206545D01*
D02*
G37*
G36*
X113776Y192286D02*
X113224D01*
X112715Y192075D01*
X112325Y191685D01*
X112114Y191176D01*
Y190624D01*
X112325Y190115D01*
X112715Y189725D01*
X113224Y189514D01*
X113776D01*
X114285Y189725D01*
X114675Y190115D01*
X114886Y190624D01*
Y191176D01*
X114675Y191685D01*
X114285Y192075D01*
X113776Y192286D01*
D02*
G37*
G36*
X131362Y192283D02*
X130811D01*
X130301Y192072D01*
X129912Y191682D01*
X129701Y191172D01*
Y190621D01*
X129912Y190112D01*
X130301Y189722D01*
X130811Y189511D01*
X131362D01*
X131871Y189722D01*
X132261Y190112D01*
X132472Y190621D01*
Y191172D01*
X132261Y191682D01*
X131871Y192072D01*
X131362Y192283D01*
D02*
G37*
G36*
X173476Y189386D02*
X172924D01*
X172415Y189175D01*
X172025Y188785D01*
X171814Y188276D01*
Y187724D01*
X172025Y187215D01*
X172415Y186825D01*
X172924Y186614D01*
X173476D01*
X173985Y186825D01*
X174375Y187215D01*
X174586Y187724D01*
Y188276D01*
X174375Y188785D01*
X173985Y189175D01*
X173476Y189386D01*
D02*
G37*
G36*
X167276D02*
X166724D01*
X166215Y189175D01*
X165825Y188785D01*
X165614Y188276D01*
Y187724D01*
X165825Y187215D01*
X166215Y186825D01*
X166724Y186614D01*
X167276D01*
X167785Y186825D01*
X168175Y187215D01*
X168386Y187724D01*
Y188276D01*
X168175Y188785D01*
X167785Y189175D01*
X167276Y189386D01*
D02*
G37*
G36*
X160876D02*
X160324D01*
X159815Y189175D01*
X159425Y188785D01*
X159214Y188276D01*
Y187724D01*
X159425Y187215D01*
X159815Y186825D01*
X160324Y186614D01*
X160876D01*
X161385Y186825D01*
X161775Y187215D01*
X161986Y187724D01*
Y188276D01*
X161775Y188785D01*
X161385Y189175D01*
X160876Y189386D01*
D02*
G37*
G36*
X95276Y185286D02*
X94724D01*
X94215Y185075D01*
X93825Y184685D01*
X93614Y184176D01*
Y183624D01*
X93825Y183115D01*
X94215Y182725D01*
X94724Y182514D01*
X95276D01*
X95785Y182725D01*
X96175Y183115D01*
X96386Y183624D01*
Y184176D01*
X96175Y184685D01*
X95785Y185075D01*
X95276Y185286D01*
D02*
G37*
G36*
X89076D02*
X88524D01*
X88015Y185075D01*
X87625Y184685D01*
X87414Y184176D01*
Y183624D01*
X87625Y183115D01*
X88015Y182725D01*
X88524Y182514D01*
X89076D01*
X89585Y182725D01*
X89975Y183115D01*
X90186Y183624D01*
Y184176D01*
X89975Y184685D01*
X89585Y185075D01*
X89076Y185286D01*
D02*
G37*
G36*
X82676D02*
X82124D01*
X81615Y185075D01*
X81225Y184685D01*
X81014Y184176D01*
Y183624D01*
X81225Y183115D01*
X81615Y182725D01*
X82124Y182514D01*
X82676D01*
X83185Y182725D01*
X83575Y183115D01*
X83786Y183624D01*
Y184176D01*
X83575Y184685D01*
X83185Y185075D01*
X82676Y185286D01*
D02*
G37*
G36*
X157376Y174686D02*
X156824D01*
X156315Y174475D01*
X155925Y174085D01*
X155714Y173576D01*
Y173024D01*
X155925Y172515D01*
X156315Y172125D01*
X156824Y171914D01*
X157376D01*
X157885Y172125D01*
X158275Y172515D01*
X158486Y173024D01*
Y173576D01*
X158275Y174085D01*
X157885Y174475D01*
X157376Y174686D01*
D02*
G37*
G36*
X95376Y166186D02*
X94824D01*
X94315Y165975D01*
X93925Y165585D01*
X93714Y165076D01*
Y164524D01*
X93925Y164015D01*
X94315Y163625D01*
X94824Y163414D01*
X95376D01*
X95885Y163625D01*
X96275Y164015D01*
X96486Y164524D01*
Y165076D01*
X96275Y165585D01*
X95885Y165975D01*
X95376Y166186D01*
D02*
G37*
G36*
X89176D02*
X88624D01*
X88115Y165975D01*
X87725Y165585D01*
X87514Y165076D01*
Y164524D01*
X87725Y164015D01*
X88115Y163625D01*
X88624Y163414D01*
X89176D01*
X89685Y163625D01*
X90075Y164015D01*
X90286Y164524D01*
Y165076D01*
X90075Y165585D01*
X89685Y165975D01*
X89176Y166186D01*
D02*
G37*
G36*
X82776D02*
X82224D01*
X81715Y165975D01*
X81325Y165585D01*
X81114Y165076D01*
Y164524D01*
X81325Y164015D01*
X81715Y163625D01*
X82224Y163414D01*
X82776D01*
X83285Y163625D01*
X83675Y164015D01*
X83886Y164524D01*
Y165076D01*
X83675Y165585D01*
X83285Y165975D01*
X82776Y166186D01*
D02*
G37*
G36*
X139176Y161286D02*
X138624D01*
X138115Y161075D01*
X137725Y160685D01*
X137514Y160176D01*
Y159624D01*
X137725Y159115D01*
X138115Y158725D01*
X138624Y158514D01*
X139176D01*
X139685Y158725D01*
X140075Y159115D01*
X140286Y159624D01*
Y160176D01*
X140075Y160685D01*
X139685Y161075D01*
X139176Y161286D01*
D02*
G37*
G36*
X37745Y164445D02*
X30055D01*
Y156755D01*
X37745D01*
Y164445D01*
D02*
G37*
G36*
X12753D02*
X11740D01*
X10762Y164183D01*
X9886Y163677D01*
X9170Y162961D01*
X8664Y162084D01*
X8401Y161106D01*
Y160094D01*
X8664Y159116D01*
X9170Y158239D01*
X9886Y157523D01*
X10762Y157017D01*
X11740Y156755D01*
X12753D01*
X13731Y157017D01*
X14607Y157523D01*
X15323Y158239D01*
X15829Y159116D01*
X16091Y160094D01*
Y161106D01*
X15829Y162084D01*
X15323Y162961D01*
X14607Y163677D01*
X13731Y164183D01*
X12753Y164445D01*
D02*
G37*
G36*
X157876Y157886D02*
X157324D01*
X156815Y157675D01*
X156425Y157285D01*
X156214Y156776D01*
Y156224D01*
X156425Y155715D01*
X156815Y155325D01*
X157324Y155114D01*
X157876D01*
X158385Y155325D01*
X158775Y155715D01*
X158986Y156224D01*
Y156776D01*
X158775Y157285D01*
X158385Y157675D01*
X157876Y157886D01*
D02*
G37*
G36*
X198491Y154867D02*
X197509D01*
X196603Y154491D01*
X195909Y153797D01*
X195717Y153333D01*
X195283D01*
X195091Y153797D01*
X194397Y154491D01*
X193491Y154867D01*
X192509D01*
X191603Y154491D01*
X190909Y153797D01*
X190533Y152891D01*
Y151909D01*
X190909Y151003D01*
X191603Y150309D01*
X192067Y150117D01*
Y149683D01*
X191603Y149491D01*
X190909Y148797D01*
X190533Y147891D01*
Y146909D01*
X190909Y146003D01*
X191603Y145309D01*
X192067Y145116D01*
Y144684D01*
X191603Y144491D01*
X190909Y143797D01*
X190533Y142891D01*
Y141909D01*
X190909Y141003D01*
X191603Y140309D01*
X192067Y140117D01*
Y139683D01*
X191603Y139491D01*
X190909Y138797D01*
X190533Y137891D01*
Y136909D01*
X190909Y136003D01*
X191603Y135309D01*
X192067Y135117D01*
Y134684D01*
X191603Y134491D01*
X190909Y133797D01*
X190533Y132891D01*
Y131909D01*
X190909Y131003D01*
X191603Y130309D01*
X192067Y130116D01*
Y129683D01*
X191603Y129491D01*
X190909Y128797D01*
X190533Y127891D01*
Y126909D01*
X190909Y126003D01*
X191603Y125309D01*
X192067Y125117D01*
Y124683D01*
X191603Y124491D01*
X190909Y123797D01*
X190533Y122891D01*
Y121909D01*
X190909Y121003D01*
X191603Y120309D01*
X192509Y119933D01*
X193491D01*
X194397Y120309D01*
X195091Y121003D01*
X195283Y121467D01*
X195717D01*
X195909Y121003D01*
X196603Y120309D01*
X197509Y119933D01*
X198491D01*
X199397Y120309D01*
X200091Y121003D01*
X200467Y121909D01*
Y122891D01*
X200091Y123797D01*
X199397Y124491D01*
X198933Y124683D01*
Y125117D01*
X199397Y125309D01*
X200091Y126003D01*
X200467Y126909D01*
Y127891D01*
X200091Y128797D01*
X199397Y129491D01*
X198933Y129683D01*
Y130116D01*
X199397Y130309D01*
X200091Y131003D01*
X200467Y131909D01*
Y132200D01*
X198000D01*
Y132600D01*
X200467D01*
Y132891D01*
X200091Y133797D01*
X199397Y134491D01*
X198933Y134684D01*
Y135117D01*
X199397Y135309D01*
X200091Y136003D01*
X200467Y136909D01*
Y137200D01*
X198000D01*
Y137600D01*
X200467D01*
Y137891D01*
X200091Y138797D01*
X199397Y139491D01*
X198933Y139683D01*
Y140117D01*
X199397Y140309D01*
X200091Y141003D01*
X200467Y141909D01*
Y142891D01*
X200091Y143797D01*
X199397Y144491D01*
X198933Y144684D01*
Y145116D01*
X199397Y145309D01*
X200091Y146003D01*
X200467Y146909D01*
Y147200D01*
X198000D01*
Y147600D01*
X200467D01*
Y147891D01*
X200091Y148797D01*
X199397Y149491D01*
X198933Y149683D01*
Y150117D01*
X199397Y150309D01*
X200091Y151003D01*
X200467Y151909D01*
Y152891D01*
X200091Y153797D01*
X199397Y154491D01*
X198491Y154867D01*
D02*
G37*
G36*
X66876Y150986D02*
X66324D01*
X65815Y150775D01*
X65425Y150385D01*
X65214Y149876D01*
Y149324D01*
X65425Y148815D01*
X65815Y148425D01*
X66324Y148214D01*
X66876D01*
X67385Y148425D01*
X67775Y148815D01*
X67986Y149324D01*
Y149876D01*
X67775Y150385D01*
X67385Y150775D01*
X66876Y150986D01*
D02*
G37*
G36*
X125476Y148086D02*
X124924D01*
X124415Y147875D01*
X124025Y147485D01*
X123814Y146976D01*
Y146424D01*
X124025Y145915D01*
X124415Y145525D01*
X124924Y145314D01*
X125476D01*
X125985Y145525D01*
X126375Y145915D01*
X126586Y146424D01*
Y146976D01*
X126375Y147485D01*
X125985Y147875D01*
X125476Y148086D01*
D02*
G37*
G36*
X145876Y145586D02*
X145324D01*
X144815Y145375D01*
X144425Y144985D01*
X144214Y144476D01*
Y143924D01*
X144425Y143415D01*
X144815Y143025D01*
X145324Y142814D01*
X145876D01*
X146385Y143025D01*
X146775Y143415D01*
X146986Y143924D01*
Y144476D01*
X146775Y144985D01*
X146385Y145375D01*
X145876Y145586D01*
D02*
G37*
G36*
X129357Y144267D02*
X128805D01*
X128296Y144056D01*
X127906Y143666D01*
X127695Y143157D01*
Y142605D01*
X127906Y142096D01*
X128296Y141706D01*
X128805Y141495D01*
X129357D01*
X129866Y141706D01*
X130256Y142096D01*
X130467Y142605D01*
Y143157D01*
X130256Y143666D01*
X129866Y144056D01*
X129357Y144267D01*
D02*
G37*
G36*
X145876Y139386D02*
X145324D01*
X144815Y139175D01*
X144425Y138785D01*
X144214Y138276D01*
Y137724D01*
X144425Y137215D01*
X144815Y136825D01*
X145324Y136614D01*
X145876D01*
X146385Y136825D01*
X146775Y137215D01*
X146986Y137724D01*
Y138276D01*
X146775Y138785D01*
X146385Y139175D01*
X145876Y139386D01*
D02*
G37*
G36*
X127176Y135586D02*
X126624D01*
X126115Y135375D01*
X125725Y134985D01*
X125514Y134476D01*
Y133924D01*
X125725Y133415D01*
X126115Y133025D01*
X126624Y132814D01*
X127176D01*
X127685Y133025D01*
X128075Y133415D01*
X128286Y133924D01*
Y134476D01*
X128075Y134985D01*
X127685Y135375D01*
X127176Y135586D01*
D02*
G37*
G36*
X145876Y131886D02*
X145324D01*
X144815Y131675D01*
X144425Y131285D01*
X144214Y130776D01*
Y130224D01*
X144425Y129715D01*
X144815Y129325D01*
X145324Y129114D01*
X145876D01*
X146385Y129325D01*
X146775Y129715D01*
X146986Y130224D01*
Y130776D01*
X146775Y131285D01*
X146385Y131675D01*
X145876Y131886D01*
D02*
G37*
G36*
X173876Y124986D02*
X173324D01*
X172815Y124775D01*
X172425Y124385D01*
X172214Y123876D01*
Y123324D01*
X172425Y122815D01*
X172815Y122425D01*
X173324Y122214D01*
X173876D01*
X174385Y122425D01*
X174775Y122815D01*
X174986Y123324D01*
Y123876D01*
X174775Y124385D01*
X174385Y124775D01*
X173876Y124986D01*
D02*
G37*
G36*
X151876Y120486D02*
X151324D01*
X150815Y120275D01*
X150425Y119885D01*
X150214Y119376D01*
Y118824D01*
X150425Y118315D01*
X150815Y117925D01*
X151324Y117714D01*
X151876D01*
X152385Y117925D01*
X152775Y118315D01*
X152986Y118824D01*
Y119376D01*
X152775Y119885D01*
X152385Y120275D01*
X151876Y120486D01*
D02*
G37*
G36*
X37745Y109745D02*
X30055D01*
Y102055D01*
X37745D01*
Y109745D01*
D02*
G37*
G36*
X12753D02*
X11740D01*
X10762Y109483D01*
X9886Y108977D01*
X9170Y108261D01*
X8664Y107384D01*
X8401Y106406D01*
Y105394D01*
X8664Y104416D01*
X9170Y103539D01*
X9886Y102823D01*
X10762Y102317D01*
X11740Y102055D01*
X12753D01*
X13731Y102317D01*
X14607Y102823D01*
X15323Y103539D01*
X15829Y104416D01*
X16091Y105394D01*
Y106406D01*
X15829Y107384D01*
X15323Y108261D01*
X14607Y108977D01*
X13731Y109483D01*
X12753Y109745D01*
D02*
G37*
G36*
X147276Y101886D02*
X146724D01*
X146215Y101675D01*
X145825Y101285D01*
X145614Y100776D01*
Y100224D01*
X145825Y99715D01*
X146215Y99325D01*
X146724Y99114D01*
X147276D01*
X147785Y99325D01*
X148175Y99715D01*
X148386Y100224D01*
Y100776D01*
X148175Y101285D01*
X147785Y101675D01*
X147276Y101886D01*
D02*
G37*
G36*
X66876Y95186D02*
X66324D01*
X65815Y94975D01*
X65425Y94585D01*
X65214Y94076D01*
Y93524D01*
X65425Y93015D01*
X65815Y92625D01*
X66324Y92414D01*
X66876D01*
X67385Y92625D01*
X67775Y93015D01*
X67986Y93524D01*
Y94076D01*
X67775Y94585D01*
X67385Y94975D01*
X66876Y95186D01*
D02*
G37*
G36*
X252560Y72145D02*
X252254D01*
Y68500D01*
X255898D01*
Y68806D01*
X255637Y69784D01*
X255130Y70661D01*
X254414Y71377D01*
X253538Y71883D01*
X252560Y72145D01*
D02*
G37*
G36*
X251854D02*
X251547D01*
X250570Y71883D01*
X249693Y71377D01*
X248977Y70661D01*
X248471Y69784D01*
X248209Y68806D01*
Y68500D01*
X251854D01*
Y72145D01*
D02*
G37*
G36*
X255898Y68100D02*
X252254D01*
Y64455D01*
X252560D01*
X253538Y64717D01*
X254414Y65223D01*
X255130Y65939D01*
X255637Y66816D01*
X255898Y67794D01*
Y68100D01*
D02*
G37*
G36*
X251854D02*
X248209D01*
Y67794D01*
X248471Y66816D01*
X248977Y65939D01*
X249693Y65223D01*
X250570Y64717D01*
X251547Y64455D01*
X251854D01*
Y68100D01*
D02*
G37*
G36*
X234245Y72145D02*
X226555D01*
Y64455D01*
X234245D01*
Y72145D01*
D02*
G37*
G36*
X37745Y55245D02*
X30055D01*
Y47555D01*
X37745D01*
Y55245D01*
D02*
G37*
G36*
X12753D02*
X11740D01*
X10762Y54983D01*
X9886Y54477D01*
X9170Y53761D01*
X8664Y52884D01*
X8401Y51906D01*
Y50894D01*
X8664Y49916D01*
X9170Y49039D01*
X9886Y48323D01*
X10762Y47817D01*
X11740Y47555D01*
X12753D01*
X13731Y47817D01*
X14607Y48323D01*
X15323Y49039D01*
X15829Y49916D01*
X16091Y50894D01*
Y51906D01*
X15829Y52884D01*
X15323Y53761D01*
X14607Y54477D01*
X13731Y54983D01*
X12753Y55245D01*
D02*
G37*
G36*
X66876Y39086D02*
X66324D01*
X65815Y38875D01*
X65425Y38485D01*
X65214Y37976D01*
Y37424D01*
X65425Y36915D01*
X65815Y36525D01*
X66324Y36314D01*
X66876D01*
X67385Y36525D01*
X67775Y36915D01*
X67986Y37424D01*
Y37976D01*
X67775Y38485D01*
X67385Y38875D01*
X66876Y39086D01*
D02*
G37*
G36*
X196942Y37938D02*
X196635D01*
Y34293D01*
X200280D01*
Y34599D01*
X200018Y35577D01*
X199512Y36453D01*
X198796Y37169D01*
X197919Y37675D01*
X196942Y37938D01*
D02*
G37*
G36*
X196235D02*
X195929D01*
X194951Y37675D01*
X194075Y37169D01*
X193359Y36453D01*
X192852Y35577D01*
X192590Y34599D01*
Y34293D01*
X196235D01*
Y37938D01*
D02*
G37*
G36*
X200280Y33893D02*
X196635D01*
Y30248D01*
X196942D01*
X197919Y30510D01*
X198796Y31016D01*
X199512Y31732D01*
X200018Y32609D01*
X200280Y33586D01*
Y33893D01*
D02*
G37*
G36*
X196235D02*
X192590D01*
Y33586D01*
X192852Y32609D01*
X193359Y31732D01*
X194075Y31016D01*
X194951Y30510D01*
X195929Y30248D01*
X196235D01*
Y33893D01*
D02*
G37*
G36*
X180406Y37938D02*
X179394D01*
X178416Y37675D01*
X177539Y37169D01*
X176823Y36453D01*
X176317Y35577D01*
X176055Y34599D01*
Y33586D01*
X176317Y32609D01*
X176823Y31732D01*
X177539Y31016D01*
X178416Y30510D01*
X179394Y30248D01*
X180406D01*
X181384Y30510D01*
X182261Y31016D01*
X182977Y31732D01*
X183483Y32609D01*
X183745Y33586D01*
Y34599D01*
X183483Y35577D01*
X182977Y36453D01*
X182261Y37169D01*
X181384Y37675D01*
X180406Y37938D01*
D02*
G37*
G36*
X105345Y37845D02*
X97655D01*
Y30155D01*
X105345D01*
Y37845D01*
D02*
G37*
G36*
X243546Y28579D02*
X242054D01*
X240589Y28288D01*
X239210Y27716D01*
X237969Y26887D01*
X236913Y25831D01*
X236084Y24590D01*
X235512Y23211D01*
X235221Y21746D01*
Y20254D01*
X235512Y18789D01*
X236084Y17410D01*
X236913Y16169D01*
X237969Y15113D01*
X239210Y14284D01*
X240589Y13713D01*
X242054Y13421D01*
X243546D01*
X245011Y13713D01*
X246390Y14284D01*
X247631Y15113D01*
X248687Y16169D01*
X249516Y17410D01*
X250087Y18789D01*
X250379Y20254D01*
Y21746D01*
X250087Y23211D01*
X249516Y24590D01*
X248687Y25831D01*
X247631Y26887D01*
X246390Y27716D01*
X245011Y28288D01*
X243546Y28579D01*
D02*
G37*
G36*
X22746D02*
X21254D01*
X19789Y28288D01*
X18410Y27716D01*
X17169Y26887D01*
X16113Y25831D01*
X15284Y24590D01*
X14713Y23211D01*
X14421Y21746D01*
Y20254D01*
X14713Y18789D01*
X15284Y17410D01*
X16113Y16169D01*
X17169Y15113D01*
X18410Y14284D01*
X19789Y13713D01*
X21254Y13421D01*
X22746D01*
X24211Y13713D01*
X25590Y14284D01*
X26831Y15113D01*
X27887Y16169D01*
X28716Y17410D01*
X29287Y18789D01*
X29579Y20254D01*
Y21746D01*
X29287Y23211D01*
X28716Y24590D01*
X27887Y25831D01*
X26831Y26887D01*
X25590Y27716D01*
X24211Y28288D01*
X22746Y28579D01*
D02*
G37*
G36*
X200280Y16284D02*
X192590D01*
Y8594D01*
X200280D01*
Y16284D01*
D02*
G37*
G36*
X180406D02*
X179394D01*
X178416Y16022D01*
X177539Y15516D01*
X176823Y14800D01*
X176317Y13923D01*
X176055Y12945D01*
Y11933D01*
X176317Y10955D01*
X176823Y10078D01*
X177539Y9362D01*
X178416Y8856D01*
X179394Y8594D01*
X180406D01*
X181384Y8856D01*
X182261Y9362D01*
X182977Y10078D01*
X183483Y10955D01*
X183745Y11933D01*
Y12945D01*
X183483Y13923D01*
X182977Y14800D01*
X182261Y15516D01*
X181384Y16022D01*
X180406Y16284D01*
D02*
G37*
G36*
X102006Y16191D02*
X100994D01*
X100016Y15929D01*
X99139Y15423D01*
X98423Y14707D01*
X97917Y13830D01*
X97655Y12853D01*
Y11840D01*
X97917Y10862D01*
X98423Y9986D01*
X99139Y9270D01*
X100016Y8764D01*
X100994Y8501D01*
X102006D01*
X102984Y8764D01*
X103861Y9270D01*
X104577Y9986D01*
X105083Y10862D01*
X105345Y11840D01*
Y12853D01*
X105083Y13830D01*
X104577Y14707D01*
X103861Y15423D01*
X102984Y15929D01*
X102006Y16191D01*
D02*
G37*
%LPD*%
D94*
X252054Y68300D02*
D03*
X179900Y12439D02*
D03*
Y34093D02*
D03*
X12300Y301500D02*
D03*
X121900Y387900D02*
D03*
X196435Y34093D02*
D03*
X101500Y12346D02*
D03*
X12246Y51400D02*
D03*
Y160600D02*
D03*
Y105900D02*
D03*
X212900Y387900D02*
D03*
X159500D02*
D03*
X252000Y202700D02*
D03*
X12646Y351800D02*
D03*
X12300Y266400D02*
D03*
X12393Y231600D02*
D03*
X34046Y215065D02*
D03*
Y231600D02*
D03*
X68300Y387700D02*
D03*
D95*
X230400Y68300D02*
D03*
X33954Y301500D02*
D03*
Y266400D02*
D03*
X34300Y351800D02*
D03*
X230346Y202700D02*
D03*
X12393Y215065D02*
D03*
X33900Y105900D02*
D03*
Y51400D02*
D03*
Y160600D02*
D03*
D96*
X121900Y366246D02*
D03*
X196435Y12439D02*
D03*
X101500Y34000D02*
D03*
X68300Y366046D02*
D03*
X212900Y366246D02*
D03*
X159500D02*
D03*
D97*
X193000Y122400D02*
D03*
X198000D02*
D03*
X193000Y127400D02*
D03*
X198000D02*
D03*
X193000Y132400D02*
D03*
X198000D02*
D03*
X193000Y137400D02*
D03*
X198000D02*
D03*
X193000Y142400D02*
D03*
X198000D02*
D03*
X193000Y147400D02*
D03*
X198000D02*
D03*
X193000Y152400D02*
D03*
X198000D02*
D03*
D98*
X242800Y21000D02*
D03*
Y379000D02*
D03*
X22000D02*
D03*
Y21000D02*
D03*
D99*
X80000Y340000D02*
D03*
X250000Y360000D02*
D03*
X240000Y340000D02*
D03*
X250000Y320000D02*
D03*
X240000Y300000D02*
D03*
X250000Y160000D02*
D03*
X240000Y140000D02*
D03*
X250000Y120000D02*
D03*
X240000Y100000D02*
D03*
X250000Y80000D02*
D03*
X240000Y60000D02*
D03*
X250000Y40000D02*
D03*
X220000Y380000D02*
D03*
X230000Y360000D02*
D03*
X220000Y340000D02*
D03*
X230000Y160000D02*
D03*
X220000Y140000D02*
D03*
X230000Y120000D02*
D03*
X220000Y100000D02*
D03*
X230000Y80000D02*
D03*
X220000Y60000D02*
D03*
X230000Y40000D02*
D03*
X220000Y20000D02*
D03*
X200000Y380000D02*
D03*
X210000Y360000D02*
D03*
X200000Y340000D02*
D03*
Y260000D02*
D03*
X210000Y160000D02*
D03*
Y120000D02*
D03*
X200000Y100000D02*
D03*
X210000Y80000D02*
D03*
X200000Y60000D02*
D03*
X210000Y40000D02*
D03*
X200000Y20000D02*
D03*
X180000Y340000D02*
D03*
Y300000D02*
D03*
Y260000D02*
D03*
X190000Y200000D02*
D03*
X180000Y180000D02*
D03*
X190000Y160000D02*
D03*
X180000Y140000D02*
D03*
X190000Y120000D02*
D03*
X180000Y100000D02*
D03*
X190000Y80000D02*
D03*
X180000Y60000D02*
D03*
Y20000D02*
D03*
X170000Y360000D02*
D03*
X160000Y340000D02*
D03*
Y300000D02*
D03*
X170000Y280000D02*
D03*
Y240000D02*
D03*
Y120000D02*
D03*
X160000Y100000D02*
D03*
X170000Y80000D02*
D03*
X160000Y60000D02*
D03*
X170000Y40000D02*
D03*
X140000Y380000D02*
D03*
X150000Y360000D02*
D03*
X140000Y340000D02*
D03*
Y300000D02*
D03*
Y180000D02*
D03*
X150000Y80000D02*
D03*
Y40000D02*
D03*
X140000Y20000D02*
D03*
X130000Y360000D02*
D03*
X120000Y180000D02*
D03*
X130000Y160000D02*
D03*
Y80000D02*
D03*
X120000Y20000D02*
D03*
X100000Y380000D02*
D03*
X110000Y360000D02*
D03*
Y320000D02*
D03*
Y280000D02*
D03*
Y240000D02*
D03*
Y160000D02*
D03*
X100000Y100000D02*
D03*
X110000Y80000D02*
D03*
X100000Y60000D02*
D03*
X110000Y40000D02*
D03*
X100000Y20000D02*
D03*
X80000Y380000D02*
D03*
Y300000D02*
D03*
Y260000D02*
D03*
X90000Y240000D02*
D03*
X80000Y220000D02*
D03*
X90000Y120000D02*
D03*
X80000Y100000D02*
D03*
X90000Y80000D02*
D03*
X80000Y60000D02*
D03*
X90000Y40000D02*
D03*
X80000Y20000D02*
D03*
X60000Y380000D02*
D03*
X70000Y320000D02*
D03*
X60000Y300000D02*
D03*
X70000Y280000D02*
D03*
X60000Y260000D02*
D03*
X70000Y240000D02*
D03*
X60000Y220000D02*
D03*
X70000Y160000D02*
D03*
Y120000D02*
D03*
Y40000D02*
D03*
X60000Y20000D02*
D03*
X40000Y380000D02*
D03*
X50000Y360000D02*
D03*
Y320000D02*
D03*
Y280000D02*
D03*
Y240000D02*
D03*
X40000Y220000D02*
D03*
X50000Y200000D02*
D03*
X40000Y180000D02*
D03*
Y140000D02*
D03*
Y100000D02*
D03*
Y60000D02*
D03*
X50000Y40000D02*
D03*
X30000Y360000D02*
D03*
X20000Y340000D02*
D03*
X30000Y320000D02*
D03*
Y280000D02*
D03*
Y240000D02*
D03*
Y200000D02*
D03*
Y120000D02*
D03*
X236700Y329400D02*
D03*
X215000Y284700D02*
D03*
X223300Y272400D02*
D03*
X234480Y265467D02*
D03*
X215000Y280600D02*
D03*
X147200Y263400D02*
D03*
Y255100D02*
D03*
X143100Y263400D02*
D03*
X147200Y259233D02*
D03*
X143100D02*
D03*
Y255100D02*
D03*
X139000D02*
D03*
X134900D02*
D03*
Y259233D02*
D03*
Y263400D02*
D03*
X139000D02*
D03*
Y259233D02*
D03*
X236780Y262267D02*
D03*
X239380Y265467D02*
D03*
X234480Y258967D02*
D03*
X239380D02*
D03*
X219133Y280600D02*
D03*
X223300D02*
D03*
Y284700D02*
D03*
X219133D02*
D03*
X215000Y276500D02*
D03*
X219133D02*
D03*
Y272400D02*
D03*
X223300Y276500D02*
D03*
X215000Y272400D02*
D03*
X198900Y292700D02*
D03*
X204400Y320100D02*
D03*
X207865Y300667D02*
D03*
X216034D02*
D03*
Y306080D02*
D03*
X207865D02*
D03*
X211900Y303423D02*
D03*
D100*
X129700Y62600D02*
D03*
X191800Y360300D02*
D03*
X153100Y214900D02*
D03*
X138937Y204600D02*
D03*
X135000D02*
D03*
X126700Y208900D02*
D03*
Y214900D02*
D03*
Y220900D02*
D03*
X122100Y334600D02*
D03*
X113500Y190900D02*
D03*
X131087Y190897D02*
D03*
X99300Y273400D02*
D03*
X129081Y142881D02*
D03*
X151600Y119100D02*
D03*
X125200Y146700D02*
D03*
X147000Y100500D02*
D03*
X132400Y134200D02*
D03*
X126900D02*
D03*
X157100Y173300D02*
D03*
X157600Y156500D02*
D03*
X138900Y159900D02*
D03*
X159300Y144200D02*
D03*
Y138000D02*
D03*
X58700Y330200D02*
D03*
X128800Y334600D02*
D03*
X240700Y292200D02*
D03*
X173600Y123600D02*
D03*
X160600Y201200D02*
D03*
X153100Y220900D02*
D03*
Y208900D02*
D03*
X82400Y183900D02*
D03*
X79336Y202300D02*
D03*
X141000Y133700D02*
D03*
X85200Y169300D02*
D03*
X94900Y197600D02*
D03*
X88700D02*
D03*
X82300D02*
D03*
X95000Y150800D02*
D03*
X88800D02*
D03*
X82400D02*
D03*
X161100Y130500D02*
D03*
X167000Y201200D02*
D03*
X173200D02*
D03*
X66600Y149600D02*
D03*
Y93800D02*
D03*
Y37700D02*
D03*
X82500Y164800D02*
D03*
X88900D02*
D03*
X88800Y183900D02*
D03*
X95000D02*
D03*
X95100Y164800D02*
D03*
X112900Y209000D02*
D03*
Y215000D02*
D03*
Y221000D02*
D03*
X145600Y138000D02*
D03*
Y130500D02*
D03*
Y144200D02*
D03*
X160600Y188000D02*
D03*
X167000D02*
D03*
X173200D02*
D03*
X139500Y208900D02*
D03*
Y214900D02*
D03*
Y220900D02*
D03*
M02*
