G04*
G04 #@! TF.GenerationSoftware,Altium Limited,Altium Designer,26.1.1 (7)*
G04*
G04 Layer_Color=8421504*
%FSLAX25Y25*%
%MOIN*%
G70*
G04*
G04 #@! TF.SameCoordinates,05B1B593-E408-4DA2-8DBD-B8854F46C338*
G04*
G04*
G04 #@! TF.FilePolarity,Positive*
G04*
G01*
G75*
%ADD15R,0.03740X0.03543*%
%ADD16R,0.03898X0.03071*%
%ADD17R,0.01181X0.05807*%
%ADD18R,0.05807X0.01181*%
%ADD19R,0.02559X0.05118*%
%ADD20R,0.03740X0.03740*%
%ADD21R,0.03937X0.02362*%
%ADD22R,0.05118X0.02559*%
%ADD23R,0.04528X0.04134*%
%ADD24R,0.20472X0.14961*%
%ADD25R,0.09055X0.06299*%
%ADD26R,0.03071X0.03898*%
%ADD27R,0.03543X0.03740*%
%ADD28R,0.03898X0.02795*%
%ADD29R,0.02559X0.03543*%
%ADD30R,0.02559X0.06004*%
%ADD31R,0.12205X0.09449*%
%ADD32R,0.01772X0.05807*%
%ADD33R,0.09685X0.10472*%
%ADD34R,0.08661X0.06102*%
%ADD35R,0.12205X0.08661*%
%ADD36R,0.03071X0.03071*%
%ADD37R,0.03071X0.03858*%
%ADD38R,0.04409X0.07559*%
%ADD39R,0.03819X0.05787*%
%ADD40R,0.03425X0.04016*%
%ADD41R,0.02756X0.02756*%
%ADD42R,0.02756X0.02756*%
%ADD43R,0.04016X0.03425*%
%ADD44R,0.03740X0.03740*%
%ADD45R,0.03937X0.03347*%
%ADD46R,0.03543X0.05315*%
%ADD47R,0.03347X0.03937*%
D15*
X156500Y12550D02*
D03*
X186100Y68150D02*
D03*
Y83150D02*
D03*
Y74450D02*
D03*
X177100D02*
D03*
X186100Y89450D02*
D03*
X191800Y365850D02*
D03*
X99300Y365650D02*
D03*
X35300Y324250D02*
D03*
Y330550D02*
D03*
X61800Y73350D02*
D03*
X147000Y33950D02*
D03*
X156500D02*
D03*
Y27650D02*
D03*
X147000D02*
D03*
X177100Y68150D02*
D03*
X156500Y18850D02*
D03*
X173600Y143550D02*
D03*
Y149850D02*
D03*
X181800Y388050D02*
D03*
X90200Y365650D02*
D03*
X61800Y79650D02*
D03*
Y188650D02*
D03*
Y134050D02*
D03*
X227100Y299050D02*
D03*
X253800Y289180D02*
D03*
X247189D02*
D03*
X227100Y323050D02*
D03*
Y329350D02*
D03*
X253800Y282880D02*
D03*
X247189D02*
D03*
X227100Y292750D02*
D03*
X234000Y282880D02*
D03*
Y289180D02*
D03*
X191800Y372150D02*
D03*
X181800Y381750D02*
D03*
Y372150D02*
D03*
Y365850D02*
D03*
X99300Y371950D02*
D03*
X90200Y381550D02*
D03*
Y387850D02*
D03*
Y371950D02*
D03*
X61800Y127750D02*
D03*
Y182350D02*
D03*
X114500Y114250D02*
D03*
X128800Y340150D02*
D03*
X114500Y107950D02*
D03*
X87300Y214150D02*
D03*
Y207850D02*
D03*
X122100Y346450D02*
D03*
Y340150D02*
D03*
X128800Y346450D02*
D03*
D16*
X82300Y187944D02*
D03*
Y193456D02*
D03*
X131100Y208487D02*
D03*
X240600Y288156D02*
D03*
X131100Y213998D02*
D03*
X95100Y154943D02*
D03*
X82300D02*
D03*
X95100Y193456D02*
D03*
X88700D02*
D03*
X160600Y197356D02*
D03*
X166900D02*
D03*
X173200D02*
D03*
X240600Y282644D02*
D03*
X82300Y160454D02*
D03*
X95100D02*
D03*
X88700Y187944D02*
D03*
X95100D02*
D03*
X160600Y191844D02*
D03*
X166900D02*
D03*
X173200D02*
D03*
D17*
X140895Y198791D02*
D03*
X138927D02*
D03*
X136958D02*
D03*
X134990D02*
D03*
X133021D02*
D03*
X131053D02*
D03*
X129084D02*
D03*
X127116D02*
D03*
X125147D02*
D03*
X123179D02*
D03*
X117273D02*
D03*
X115305D02*
D03*
X113336D02*
D03*
Y153609D02*
D03*
X115305D02*
D03*
X117273D02*
D03*
X119242D02*
D03*
X121210D02*
D03*
X123179D02*
D03*
X125147D02*
D03*
X127116D02*
D03*
X129084D02*
D03*
X131053D02*
D03*
X133021D02*
D03*
X134990D02*
D03*
X136958D02*
D03*
X138927D02*
D03*
X140895D02*
D03*
X119242Y198791D02*
D03*
X142864Y153609D02*
D03*
Y198791D02*
D03*
X121210D02*
D03*
D18*
X105509Y190964D02*
D03*
Y185058D02*
D03*
Y183090D02*
D03*
Y181121D02*
D03*
Y179153D02*
D03*
Y177184D02*
D03*
Y175216D02*
D03*
Y173247D02*
D03*
Y171279D02*
D03*
Y169310D02*
D03*
Y167342D02*
D03*
Y165373D02*
D03*
X150691Y161436D02*
D03*
Y163405D02*
D03*
Y165373D02*
D03*
Y167342D02*
D03*
Y169310D02*
D03*
Y171279D02*
D03*
Y173247D02*
D03*
Y175216D02*
D03*
Y177184D02*
D03*
Y179153D02*
D03*
Y181121D02*
D03*
Y185058D02*
D03*
Y187027D02*
D03*
Y183090D02*
D03*
X105509Y163405D02*
D03*
Y161436D02*
D03*
Y187027D02*
D03*
X150691Y190964D02*
D03*
Y188995D02*
D03*
X105509D02*
D03*
D19*
X12420Y322291D02*
D03*
X19980D02*
D03*
X16200Y330559D02*
D03*
D20*
X51500Y324272D02*
D03*
Y330178D02*
D03*
X173600Y134900D02*
D03*
Y128994D02*
D03*
X79300Y207949D02*
D03*
Y213854D02*
D03*
D21*
X53121Y72760D02*
D03*
Y80240D02*
D03*
Y189240D02*
D03*
Y134640D02*
D03*
X43279Y130900D02*
D03*
X53121Y127160D02*
D03*
X43279Y76500D02*
D03*
Y185500D02*
D03*
X53121Y181760D02*
D03*
D22*
X53100Y63680D02*
D03*
X165366Y157720D02*
D03*
X53100Y56120D02*
D03*
Y111120D02*
D03*
Y166141D02*
D03*
X102834Y215080D02*
D03*
X61368Y114900D02*
D03*
X53100Y118680D02*
D03*
Y173700D02*
D03*
X61368Y169920D02*
D03*
Y59900D02*
D03*
X165366Y165280D02*
D03*
X173634Y161500D02*
D03*
X102834Y207520D02*
D03*
X94566Y211300D02*
D03*
D23*
X149294Y233346D02*
D03*
X136106D02*
D03*
X149294Y239054D02*
D03*
X136106D02*
D03*
D24*
X141000Y315236D02*
D03*
Y275866D02*
D03*
D25*
X14439Y76500D02*
D03*
Y185500D02*
D03*
Y130900D02*
D03*
X31761D02*
D03*
Y76500D02*
D03*
Y185500D02*
D03*
D26*
X132356Y129800D02*
D03*
X209344Y322900D02*
D03*
X122656Y208900D02*
D03*
Y214950D02*
D03*
Y221000D02*
D03*
X149056Y208900D02*
D03*
Y214950D02*
D03*
Y221000D02*
D03*
X155156Y144400D02*
D03*
Y137800D02*
D03*
X214856Y322900D02*
D03*
X117144Y208900D02*
D03*
Y214950D02*
D03*
Y221000D02*
D03*
X149644Y144400D02*
D03*
Y137800D02*
D03*
X143544Y208900D02*
D03*
Y214950D02*
D03*
Y221000D02*
D03*
X126844Y129800D02*
D03*
D27*
X100850Y260200D02*
D03*
X221750Y257900D02*
D03*
X166750Y183100D02*
D03*
X55050Y102922D02*
D03*
X61350D02*
D03*
X55050Y158100D02*
D03*
X61350D02*
D03*
X55050Y47300D02*
D03*
X61350D02*
D03*
X107150Y260200D02*
D03*
X215450Y257900D02*
D03*
X232450Y242300D02*
D03*
X226150D02*
D03*
X238550Y234900D02*
D03*
X232250D02*
D03*
X160450Y183100D02*
D03*
D28*
X227021Y308223D02*
D03*
Y313577D02*
D03*
D29*
X245429Y242398D02*
D03*
X239720D02*
D03*
D30*
X132200Y122477D02*
D03*
X209400Y314100D02*
D03*
X204400D02*
D03*
X214400D02*
D03*
X219400D02*
D03*
Y292746D02*
D03*
X214400D02*
D03*
X209400D02*
D03*
X204400D02*
D03*
X127200Y122477D02*
D03*
X132200Y101123D02*
D03*
X137200Y122477D02*
D03*
X122200D02*
D03*
Y101123D02*
D03*
X127200D02*
D03*
X137200D02*
D03*
D31*
X211900Y303423D02*
D03*
D32*
X245736Y273834D02*
D03*
Y250700D02*
D03*
X240618D02*
D03*
X227823Y273834D02*
D03*
X230382D02*
D03*
X232941D02*
D03*
X235500D02*
D03*
X238059D02*
D03*
X240618D02*
D03*
X243177D02*
D03*
Y250700D02*
D03*
X238059D02*
D03*
X235500D02*
D03*
X232941D02*
D03*
X230382D02*
D03*
X227823D02*
D03*
D33*
X236780Y262267D02*
D03*
D34*
X199429Y240600D02*
D03*
X215571D02*
D03*
D35*
X181506Y287928D02*
D03*
Y315487D02*
D03*
D36*
X129800Y34892D02*
D03*
X133540Y43908D02*
D03*
X126060D02*
D03*
D37*
X209344Y329500D02*
D03*
X214856D02*
D03*
D38*
X171412Y259300D02*
D03*
X160388D02*
D03*
D39*
X202832Y283400D02*
D03*
Y274300D02*
D03*
X156554Y130500D02*
D03*
X209368Y283400D02*
D03*
Y274300D02*
D03*
X150018Y130500D02*
D03*
D40*
X216523Y250700D02*
D03*
X221877D02*
D03*
D41*
X141000Y138388D02*
D03*
Y143900D02*
D03*
D42*
X90144Y169300D02*
D03*
X95656D02*
D03*
D43*
X88759Y154923D02*
D03*
X129700Y58577D02*
D03*
X88759Y160277D02*
D03*
X129700Y53223D02*
D03*
D44*
X55047Y93800D02*
D03*
X60953D02*
D03*
X55047Y37700D02*
D03*
X60953D02*
D03*
X55047Y149600D02*
D03*
X60953D02*
D03*
X115247Y260200D02*
D03*
X121153D02*
D03*
X221651Y265700D02*
D03*
X215746D02*
D03*
D45*
X220600Y328953D02*
D03*
Y323047D02*
D03*
X137300Y53200D02*
D03*
Y59106D02*
D03*
X122100Y53200D02*
D03*
Y59106D02*
D03*
D46*
X124757Y71587D02*
D03*
X134600D02*
D03*
Y89500D02*
D03*
X124757D02*
D03*
D47*
X60947Y340400D02*
D03*
X66853D02*
D03*
X60947Y347600D02*
D03*
X66853D02*
D03*
M02*
