M48
;Layer_Color=9474304
;FILE_FORMAT=2:5
INCH
;TYPE=PLATED
T01F00S00C0.00787
T02F00S00C0.01181
T03F00S00C0.02913
T04F00S00C0.05512
%
T01
X0166600Y0137700
Y0193800
Y0249600
X0182400Y0250800
X0188800
X0195000
X0195100Y0264800
X0188900
X0182500
X0185200Y0269300
X0182400Y0283900
X0188800
X0195000
X0194900Y0297600
X0188700
X0182300
X0179336Y0302300
X0212900Y0309000
X0226700Y0308900
X0235000Y0304600
X0238937
X0239500Y0308900
X0253100
X0260600Y0301200
X0267000
X0273200
Y0288000
X0267000
X0260600
X0257100Y0273300
X0257600Y0256500
X0259300Y0244200
Y0238000
X0261100Y0230500
X0245600
Y0238000
Y0244200
X0241000Y0233700
X0232400Y0234200
X0226900
X0229081Y0242881
X0225200Y0246700
X0238900Y0259900
X0231086Y0290897
X0213500Y0290900
X0251600Y0219100
X0247000Y0200500
X0273600Y0223600
X0229700Y0162600
X0226700Y0314900
Y0320900
X0239500
Y0314900
X0253100
Y0320900
X0212900Y0321000
Y0315000
X0199300Y0373400
X0222100Y0434600
X0228800
X0158700Y0430200
X0291800Y0460300
X0340700Y0392200
T02
X0150000Y0140000
X0170000
X0190000
X0210000
X0220000Y0120000
X0240000
X0250000Y0140000
X0270000
X0280000Y0120000
X0300000
X0310000Y0140000
X0200000Y0120000
X0180000
X0160000
X0320000
X0330000Y0140000
X0350000
X0340000Y0160000
X0320000
X0330000Y0180000
X0350000
X0340000Y0200000
X0320000
X0330000Y0220000
X0350000
X0340000Y0240000
X0320000
X0330000Y0260000
X0350000
X0310000
X0290000
X0280000Y0280000
X0290000Y0300000
X0280000Y0240000
X0290000Y0220000
X0310000
X0300000Y0200000
X0280000
X0260000
X0270000Y0220000
Y0180000
X0290000
X0310000
X0300000Y0160000
X0280000
X0260000
X0250000Y0180000
X0230000
X0210000
X0190000
X0200000Y0200000
X0180000
X0190000Y0220000
X0170000
Y0260000
X0210000
X0230000
X0240000Y0280000
X0220000
X0200000Y0160000
X0180000
X0140000
Y0200000
X0130000Y0220000
X0140000Y0240000
Y0280000
X0150000Y0300000
X0130000
X0140000Y0320000
X0150000Y0340000
X0130000
Y0380000
X0150000
Y0420000
X0130000
X0120000Y0440000
X0130000Y0460000
X0150000
X0180000Y0440000
X0170000Y0420000
X0180000Y0400000
X0160000
X0170000Y0380000
X0180000Y0360000
X0160000
X0170000Y0340000
X0190000
X0210000
Y0380000
Y0420000
Y0460000
X0230000
X0250000
X0270000
X0280000Y0440000
X0300000
X0304400Y0420100
X0307865Y0406080
Y0400667
X0311900Y0403423
X0298900Y0392700
X0280000Y0400000
X0260000
X0240000
X0239000Y0363400
X0243100
X0247200
Y0359233
X0243100
X0239000
X0234900
Y0355100
X0239000
X0243100
X0247200
X0234900Y0363400
X0280000Y0360000
X0300000
X0270000Y0380000
Y0340000
X0260000Y0440000
X0240000
X0310000Y0460000
X0180000Y0320000
X0160000
X0315000Y0372400
Y0376500
Y0380600
Y0384700
X0319133
Y0380600
Y0376500
Y0372400
X0323300
Y0376500
Y0380600
Y0384700
X0316034Y0400667
Y0406080
X0340000Y0400000
X0350000Y0420000
X0336700Y0429400
X0340000Y0440000
X0320000
X0330000Y0460000
X0350000
X0339380Y0365467
X0334480
X0336780Y0362267
X0334480Y0358967
X0339380
X0320000Y0480000
X0300000
X0240000
X0200000
X0180000
X0160000
X0140000
T03
X0293000Y0222400
X0298000
Y0227400
X0293000
Y0232400
X0298000
Y0237400
X0293000
Y0242400
X0298000
Y0247400
X0293000
Y0252400
X0298000
T04
X0112246Y0151400
X0133900
X0201500Y0134000
Y0112346
X0279900Y0112439
X0296435
Y0134093
X0279900
X0330400Y0168300
X0352054
X0352000Y0302700
X0330346
X0133900Y0260600
X0112246
Y0205900
X0133900
X0134046Y0315065
Y0331600
X0112393
Y0315065
X0112300Y0366400
X0133954
Y0401500
X0112300
X0112646Y0451800
X0134300
X0168300Y0466046
X0221900Y0466246
X0259500
X0312900
Y0487900
X0259500
X0221900
X0168300Y0487700
M30
