G04*
G04 #@! TF.GenerationSoftware,Altium Limited,Altium Designer,26.1.1 (7)*
G04*
G04 Layer_Color=8388736*
%FSLAX25Y25*%
%MOIN*%
G70*
G04*
G04 #@! TF.SameCoordinates,05B1B593-E408-4DA2-8DBD-B8854F46C338*
G04*
G04*
G04 #@! TF.FilePolarity,Negative*
G04*
G01*
G75*
%ADD48R,0.04331X0.04134*%
%ADD49R,0.04488X0.03661*%
%ADD50R,0.01772X0.06398*%
%ADD51R,0.06398X0.01772*%
%ADD52R,0.03150X0.05709*%
%ADD53R,0.04331X0.04331*%
%ADD54R,0.04528X0.02953*%
%ADD55R,0.05709X0.03150*%
%ADD56R,0.05118X0.04724*%
%ADD57R,0.21063X0.15551*%
%ADD58R,0.09646X0.06890*%
%ADD59R,0.03661X0.04488*%
%ADD60R,0.04134X0.04331*%
%ADD61R,0.04488X0.03386*%
%ADD62R,0.03150X0.04134*%
%ADD63R,0.03150X0.06594*%
%ADD64R,0.12795X0.10039*%
%ADD65R,0.02362X0.06398*%
%ADD66R,0.10276X0.11063*%
%ADD67R,0.09252X0.06693*%
%ADD68R,0.12795X0.09252*%
%ADD69R,0.03661X0.03661*%
%ADD70R,0.03661X0.04449*%
%ADD71R,0.05000X0.08150*%
%ADD72R,0.04410X0.06378*%
%ADD73R,0.04016X0.04606*%
%ADD74R,0.03347X0.03347*%
%ADD75R,0.03347X0.03347*%
%ADD76R,0.04606X0.04016*%
%ADD77R,0.04331X0.04331*%
%ADD78R,0.04528X0.03937*%
%ADD79R,0.04134X0.05906*%
%ADD80R,0.03937X0.04528*%
%ADD81C,0.07480*%
%ADD82R,0.07480X0.07480*%
%ADD83R,0.07480X0.07480*%
%ADD84C,0.04724*%
%ADD85C,0.06591*%
%ADD86C,0.02362*%
%ADD87C,0.02992*%
D48*
X156500Y12550D02*
D03*
X186100Y68150D02*
D03*
Y83150D02*
D03*
Y74450D02*
D03*
X177100D02*
D03*
X186100Y89450D02*
D03*
X191800Y365850D02*
D03*
X99300Y365650D02*
D03*
X35300Y324250D02*
D03*
Y330550D02*
D03*
X61800Y73350D02*
D03*
X147000Y33950D02*
D03*
X156500D02*
D03*
Y27650D02*
D03*
X147000D02*
D03*
X177100Y68150D02*
D03*
X156500Y18850D02*
D03*
X173600Y143550D02*
D03*
Y149850D02*
D03*
X181800Y388050D02*
D03*
X90200Y365650D02*
D03*
X61800Y79650D02*
D03*
Y188650D02*
D03*
Y134050D02*
D03*
X227100Y299050D02*
D03*
X253800Y289180D02*
D03*
X247189D02*
D03*
X227100Y323050D02*
D03*
Y329350D02*
D03*
X253800Y282880D02*
D03*
X247189D02*
D03*
X227100Y292750D02*
D03*
X234000Y282880D02*
D03*
Y289180D02*
D03*
X191800Y372150D02*
D03*
X181800Y381750D02*
D03*
Y372150D02*
D03*
Y365850D02*
D03*
X99300Y371950D02*
D03*
X90200Y381550D02*
D03*
Y387850D02*
D03*
Y371950D02*
D03*
X61800Y127750D02*
D03*
Y182350D02*
D03*
X114500Y114250D02*
D03*
X128800Y340150D02*
D03*
X114500Y107950D02*
D03*
X87300Y214150D02*
D03*
Y207850D02*
D03*
X122100Y346450D02*
D03*
Y340150D02*
D03*
X128800Y346450D02*
D03*
D49*
X82300Y187944D02*
D03*
Y193456D02*
D03*
X131100Y208487D02*
D03*
X240600Y288156D02*
D03*
X131100Y213998D02*
D03*
X95100Y154943D02*
D03*
X82300D02*
D03*
X95100Y193456D02*
D03*
X88700D02*
D03*
X160600Y197356D02*
D03*
X166900D02*
D03*
X173200D02*
D03*
X240600Y282644D02*
D03*
X82300Y160454D02*
D03*
X95100D02*
D03*
X88700Y187944D02*
D03*
X95100D02*
D03*
X160600Y191844D02*
D03*
X166900D02*
D03*
X173200D02*
D03*
D50*
X140895Y198791D02*
D03*
X138927D02*
D03*
X136958D02*
D03*
X134990D02*
D03*
X133021D02*
D03*
X131053D02*
D03*
X129084D02*
D03*
X127116D02*
D03*
X125147D02*
D03*
X123179D02*
D03*
X117273D02*
D03*
X115305D02*
D03*
X113336D02*
D03*
Y153609D02*
D03*
X115305D02*
D03*
X117273D02*
D03*
X119242D02*
D03*
X121210D02*
D03*
X123179D02*
D03*
X125147D02*
D03*
X127116D02*
D03*
X129084D02*
D03*
X131053D02*
D03*
X133021D02*
D03*
X134990D02*
D03*
X136958D02*
D03*
X138927D02*
D03*
X140895D02*
D03*
X119242Y198791D02*
D03*
X142864Y153609D02*
D03*
Y198791D02*
D03*
X121210D02*
D03*
D51*
X105509Y190964D02*
D03*
Y185058D02*
D03*
Y183090D02*
D03*
Y181121D02*
D03*
Y179153D02*
D03*
Y177184D02*
D03*
Y175216D02*
D03*
Y173247D02*
D03*
Y171279D02*
D03*
Y169310D02*
D03*
Y167342D02*
D03*
Y165373D02*
D03*
X150691Y161436D02*
D03*
Y163405D02*
D03*
Y165373D02*
D03*
Y167342D02*
D03*
Y169310D02*
D03*
Y171279D02*
D03*
Y173247D02*
D03*
Y175216D02*
D03*
Y177184D02*
D03*
Y179153D02*
D03*
Y181121D02*
D03*
Y185058D02*
D03*
Y187027D02*
D03*
Y183090D02*
D03*
X105509Y163405D02*
D03*
Y161436D02*
D03*
Y187027D02*
D03*
X150691Y190964D02*
D03*
Y188995D02*
D03*
X105509D02*
D03*
D52*
X12420Y322291D02*
D03*
X19980D02*
D03*
X16200Y330559D02*
D03*
D53*
X51500Y324272D02*
D03*
Y330178D02*
D03*
X173600Y134900D02*
D03*
Y128994D02*
D03*
X79300Y207949D02*
D03*
Y213854D02*
D03*
D54*
X53121Y72760D02*
D03*
Y80240D02*
D03*
Y189240D02*
D03*
Y134640D02*
D03*
X43279Y130900D02*
D03*
X53121Y127160D02*
D03*
X43279Y76500D02*
D03*
Y185500D02*
D03*
X53121Y181760D02*
D03*
D55*
X53100Y63680D02*
D03*
X165366Y157720D02*
D03*
X53100Y56120D02*
D03*
Y111120D02*
D03*
Y166141D02*
D03*
X102834Y215080D02*
D03*
X61368Y114900D02*
D03*
X53100Y118680D02*
D03*
Y173700D02*
D03*
X61368Y169920D02*
D03*
Y59900D02*
D03*
X165366Y165280D02*
D03*
X173634Y161500D02*
D03*
X102834Y207520D02*
D03*
X94566Y211300D02*
D03*
D56*
X149294Y233346D02*
D03*
X136106D02*
D03*
X149294Y239054D02*
D03*
X136106D02*
D03*
D57*
X141000Y315236D02*
D03*
Y275866D02*
D03*
D58*
X14439Y76500D02*
D03*
Y185500D02*
D03*
Y130900D02*
D03*
X31761D02*
D03*
Y76500D02*
D03*
Y185500D02*
D03*
D59*
X132356Y129800D02*
D03*
X209344Y322900D02*
D03*
X122656Y208900D02*
D03*
Y214950D02*
D03*
Y221000D02*
D03*
X149056Y208900D02*
D03*
Y214950D02*
D03*
Y221000D02*
D03*
X155156Y144400D02*
D03*
Y137800D02*
D03*
X214856Y322900D02*
D03*
X117144Y208900D02*
D03*
Y214950D02*
D03*
Y221000D02*
D03*
X149644Y144400D02*
D03*
Y137800D02*
D03*
X143544Y208900D02*
D03*
Y214950D02*
D03*
Y221000D02*
D03*
X126844Y129800D02*
D03*
D60*
X100850Y260200D02*
D03*
X221750Y257900D02*
D03*
X166750Y183100D02*
D03*
X55050Y102922D02*
D03*
X61350D02*
D03*
X55050Y158100D02*
D03*
X61350D02*
D03*
X55050Y47300D02*
D03*
X61350D02*
D03*
X107150Y260200D02*
D03*
X215450Y257900D02*
D03*
X232450Y242300D02*
D03*
X226150D02*
D03*
X238550Y234900D02*
D03*
X232250D02*
D03*
X160450Y183100D02*
D03*
D61*
X227021Y308223D02*
D03*
Y313577D02*
D03*
D62*
X245429Y242398D02*
D03*
X239720D02*
D03*
D63*
X132200Y122477D02*
D03*
X209400Y314100D02*
D03*
X204400D02*
D03*
X214400D02*
D03*
X219400D02*
D03*
Y292746D02*
D03*
X214400D02*
D03*
X209400D02*
D03*
X204400D02*
D03*
X127200Y122477D02*
D03*
X132200Y101123D02*
D03*
X137200Y122477D02*
D03*
X122200D02*
D03*
Y101123D02*
D03*
X127200D02*
D03*
X137200D02*
D03*
D64*
X211900Y303423D02*
D03*
D65*
X245736Y273834D02*
D03*
Y250700D02*
D03*
X240618D02*
D03*
X227823Y273834D02*
D03*
X230382D02*
D03*
X232941D02*
D03*
X235500D02*
D03*
X238059D02*
D03*
X240618D02*
D03*
X243177D02*
D03*
Y250700D02*
D03*
X238059D02*
D03*
X235500D02*
D03*
X232941D02*
D03*
X230382D02*
D03*
X227823D02*
D03*
D66*
X236780Y262267D02*
D03*
D67*
X199429Y240600D02*
D03*
X215571D02*
D03*
D68*
X181506Y287928D02*
D03*
Y315487D02*
D03*
D69*
X129800Y34892D02*
D03*
X133540Y43908D02*
D03*
X126060D02*
D03*
D70*
X209344Y329500D02*
D03*
X214856D02*
D03*
D71*
X171412Y259300D02*
D03*
X160388D02*
D03*
D72*
X202832Y283400D02*
D03*
Y274300D02*
D03*
X156554Y130500D02*
D03*
X209368Y283400D02*
D03*
Y274300D02*
D03*
X150018Y130500D02*
D03*
D73*
X216523Y250700D02*
D03*
X221877D02*
D03*
D74*
X141000Y138388D02*
D03*
Y143900D02*
D03*
D75*
X90144Y169300D02*
D03*
X95656D02*
D03*
D76*
X88759Y154923D02*
D03*
X129700Y58577D02*
D03*
X88759Y160277D02*
D03*
X129700Y53223D02*
D03*
D77*
X55047Y93800D02*
D03*
X60953D02*
D03*
X55047Y37700D02*
D03*
X60953D02*
D03*
X55047Y149600D02*
D03*
X60953D02*
D03*
X115247Y260200D02*
D03*
X121153D02*
D03*
X221651Y265700D02*
D03*
X215746D02*
D03*
D78*
X220600Y328953D02*
D03*
Y323047D02*
D03*
X137300Y53200D02*
D03*
Y59106D02*
D03*
X122100Y53200D02*
D03*
Y59106D02*
D03*
D79*
X124757Y71587D02*
D03*
X134600D02*
D03*
Y89500D02*
D03*
X124757D02*
D03*
D80*
X60947Y340400D02*
D03*
X66853D02*
D03*
X60947Y347600D02*
D03*
X66853D02*
D03*
D81*
X252054Y68300D02*
D03*
X179900Y12439D02*
D03*
Y34093D02*
D03*
X12300Y301500D02*
D03*
X121900Y387900D02*
D03*
X196435Y34093D02*
D03*
X101500Y12346D02*
D03*
X12246Y51400D02*
D03*
Y160600D02*
D03*
Y105900D02*
D03*
X212900Y387900D02*
D03*
X159500D02*
D03*
X252000Y202700D02*
D03*
X12646Y351800D02*
D03*
X12300Y266400D02*
D03*
X12393Y231600D02*
D03*
X34046Y215065D02*
D03*
Y231600D02*
D03*
X68300Y387700D02*
D03*
D82*
X230400Y68300D02*
D03*
X33954Y301500D02*
D03*
Y266400D02*
D03*
X34300Y351800D02*
D03*
X230346Y202700D02*
D03*
X12393Y215065D02*
D03*
X33900Y105900D02*
D03*
Y51400D02*
D03*
Y160600D02*
D03*
D83*
X121900Y366246D02*
D03*
X196435Y12439D02*
D03*
X101500Y34000D02*
D03*
X68300Y366046D02*
D03*
X212900Y366246D02*
D03*
X159500D02*
D03*
D84*
X193000Y122400D02*
D03*
X198000D02*
D03*
X193000Y127400D02*
D03*
X198000D02*
D03*
X193000Y132400D02*
D03*
X198000D02*
D03*
X193000Y137400D02*
D03*
X198000D02*
D03*
X193000Y142400D02*
D03*
X198000D02*
D03*
X193000Y147400D02*
D03*
X198000D02*
D03*
X193000Y152400D02*
D03*
X198000D02*
D03*
D85*
X242800Y21000D02*
D03*
Y379000D02*
D03*
X22000D02*
D03*
Y21000D02*
D03*
D86*
X129700Y62600D02*
D03*
X191800Y360300D02*
D03*
X153100Y214900D02*
D03*
X138937Y204600D02*
D03*
X135000D02*
D03*
X126700Y208900D02*
D03*
Y214900D02*
D03*
Y220900D02*
D03*
X122100Y334600D02*
D03*
X113500Y190900D02*
D03*
X131087Y190897D02*
D03*
X99300Y273400D02*
D03*
X129081Y142881D02*
D03*
X151600Y119100D02*
D03*
X125200Y146700D02*
D03*
X147000Y100500D02*
D03*
X132400Y134200D02*
D03*
X126900D02*
D03*
X157100Y173300D02*
D03*
X157600Y156500D02*
D03*
X138900Y159900D02*
D03*
X159300Y144200D02*
D03*
Y138000D02*
D03*
X58700Y330200D02*
D03*
X128800Y334600D02*
D03*
X240700Y292200D02*
D03*
X173600Y123600D02*
D03*
X160600Y201200D02*
D03*
X153100Y220900D02*
D03*
Y208900D02*
D03*
X82400Y183900D02*
D03*
X79336Y202300D02*
D03*
X141000Y133700D02*
D03*
X85200Y169300D02*
D03*
X94900Y197600D02*
D03*
X88700D02*
D03*
X82300D02*
D03*
X95000Y150800D02*
D03*
X88800D02*
D03*
X82400D02*
D03*
X161100Y130500D02*
D03*
X167000Y201200D02*
D03*
X173200D02*
D03*
X66600Y149600D02*
D03*
Y93800D02*
D03*
Y37700D02*
D03*
X82500Y164800D02*
D03*
X88900D02*
D03*
X88800Y183900D02*
D03*
X95000D02*
D03*
X95100Y164800D02*
D03*
X112900Y209000D02*
D03*
Y215000D02*
D03*
Y221000D02*
D03*
X145600Y138000D02*
D03*
Y130500D02*
D03*
Y144200D02*
D03*
X160600Y188000D02*
D03*
X167000D02*
D03*
X173200D02*
D03*
X139500Y208900D02*
D03*
Y214900D02*
D03*
Y220900D02*
D03*
D87*
X236700Y329400D02*
D03*
X215000Y284700D02*
D03*
X223300Y272400D02*
D03*
X234480Y265467D02*
D03*
X215000Y280600D02*
D03*
X147200Y263400D02*
D03*
Y255100D02*
D03*
X143100Y263400D02*
D03*
X147200Y259233D02*
D03*
X143100D02*
D03*
Y255100D02*
D03*
X139000D02*
D03*
X134900D02*
D03*
Y259233D02*
D03*
Y263400D02*
D03*
X139000D02*
D03*
Y259233D02*
D03*
X236780Y262267D02*
D03*
X239380Y265467D02*
D03*
X234480Y258967D02*
D03*
X239380D02*
D03*
X219133Y280600D02*
D03*
X223300D02*
D03*
Y284700D02*
D03*
X219133D02*
D03*
X215000Y276500D02*
D03*
X219133D02*
D03*
Y272400D02*
D03*
X223300Y276500D02*
D03*
X215000Y272400D02*
D03*
X198900Y292700D02*
D03*
X204400Y320100D02*
D03*
X207865Y300667D02*
D03*
X216034D02*
D03*
Y306080D02*
D03*
X207865D02*
D03*
X211900Y303423D02*
D03*
M02*
