%TF.GenerationSoftware,Altium Limited,Altium Designer,24.8.2 (39)*%
G04 Layer_Physical_Order=2*
G04 Layer_Color=16711680*
%FSLAX26Y26*%
%MOIN*%
%TF.SameCoordinates,91EBE02E-BE3E-4F81-88BA-E3D4D69E941C*%
%TF.FilePolarity,Positive*%
%TF.FileFunction,Copper,L2,Bot,Signal*%
%TF.Part,Single*%
G01*
G75*
%TA.AperFunction,Conductor*%
%ADD18C,0.010000*%
%TA.AperFunction,ComponentPad*%
%ADD21C,0.111614*%
%ADD22C,0.036614*%
%ADD23C,0.046929*%
%TA.AperFunction,ViaPad*%
%ADD24C,0.060000*%
%TA.AperFunction,ComponentPad*%
%ADD25R,0.106890X0.106890*%
%ADD26C,0.106890*%
%ADD27C,0.035039*%
%TA.AperFunction,ViaPad*%
%ADD28C,0.031496*%
G36*
X4350000Y4980000D02*
Y3905000D01*
X3751219Y3306219D01*
X3746219Y3308290D01*
Y3310475D01*
X3744465Y3317024D01*
X3741075Y3322895D01*
X3736281Y3327689D01*
X3730410Y3331079D01*
X3725471Y3332402D01*
Y3307086D01*
Y3281769D01*
X3730410Y3283092D01*
X3735000Y3285742D01*
X3740000Y3283740D01*
Y3094210D01*
X3735000Y3092208D01*
X3730410Y3094858D01*
X3725471Y3096182D01*
Y3070865D01*
Y3045549D01*
X3730410Y3046872D01*
X3735000Y3049522D01*
X3740000Y3047520D01*
Y1075000D01*
X3688000Y1015000D01*
X3141190D01*
X3127046Y1016159D01*
X3099225Y1021773D01*
X3072252Y1030602D01*
X3046497Y1042526D01*
X3022313Y1057382D01*
X3000034Y1074966D01*
X2979965Y1095035D01*
X2962382Y1117314D01*
X2947526Y1141497D01*
X2935602Y1167252D01*
X2926772Y1194226D01*
X2921159Y1222047D01*
X2920000Y1236190D01*
Y4838810D01*
X2921159Y4852953D01*
X2926772Y4880774D01*
X2935602Y4907748D01*
X2947526Y4933503D01*
X2962382Y4957686D01*
X2979965Y4979965D01*
X3000034Y5000034D01*
X3022313Y5017617D01*
X3046496Y5032473D01*
X3072251Y5044398D01*
X3099225Y5053227D01*
X3127046Y5058840D01*
X3141189Y5060000D01*
X4270000Y5060000D01*
X4350000Y4980000D01*
D02*
G37*
%LPC*%
G36*
X4316022Y4985945D02*
Y4965628D01*
X4336339D01*
X4335016Y4970567D01*
X4331626Y4976438D01*
X4326832Y4981232D01*
X4320961Y4984622D01*
X4316022Y4985945D01*
D02*
G37*
G36*
X4306022D02*
X4301084Y4984622D01*
X4295213Y4981232D01*
X4290419Y4976438D01*
X4287029Y4970567D01*
X4285706Y4965628D01*
X4306022D01*
Y4985945D01*
D02*
G37*
G36*
X4197912D02*
Y4965628D01*
X4218229D01*
X4216905Y4970567D01*
X4213516Y4976438D01*
X4208722Y4981232D01*
X4202850Y4984622D01*
X4197912Y4985945D01*
D02*
G37*
G36*
X4187912D02*
X4182974Y4984622D01*
X4177102Y4981232D01*
X4172309Y4976438D01*
X4168919Y4970567D01*
X4167596Y4965628D01*
X4187912D01*
Y4985945D01*
D02*
G37*
G36*
X4079802D02*
Y4965628D01*
X4100118D01*
X4098795Y4970567D01*
X4095405Y4976438D01*
X4090612Y4981232D01*
X4084740Y4984622D01*
X4079802Y4985945D01*
D02*
G37*
G36*
X4069802D02*
X4064863Y4984622D01*
X4058992Y4981232D01*
X4054198Y4976438D01*
X4050809Y4970567D01*
X4049485Y4965628D01*
X4069802D01*
Y4985945D01*
D02*
G37*
G36*
X3961692D02*
Y4965628D01*
X3982008D01*
X3980685Y4970567D01*
X3977295Y4976438D01*
X3972501Y4981232D01*
X3966630Y4984622D01*
X3961692Y4985945D01*
D02*
G37*
G36*
X3951692D02*
X3946753Y4984622D01*
X3940882Y4981232D01*
X3936088Y4976438D01*
X3932698Y4970567D01*
X3931375Y4965628D01*
X3951692D01*
Y4985945D01*
D02*
G37*
G36*
X3843581D02*
Y4965628D01*
X3863898D01*
X3862575Y4970567D01*
X3859185Y4976438D01*
X3854391Y4981232D01*
X3848520Y4984622D01*
X3843581Y4985945D01*
D02*
G37*
G36*
X3833581D02*
X3828643Y4984622D01*
X3822772Y4981232D01*
X3817978Y4976438D01*
X3814588Y4970567D01*
X3813265Y4965628D01*
X3833581D01*
Y4985945D01*
D02*
G37*
G36*
X3725471D02*
Y4965628D01*
X3745788D01*
X3744465Y4970567D01*
X3741075Y4976438D01*
X3736281Y4981232D01*
X3730410Y4984622D01*
X3725471Y4985945D01*
D02*
G37*
G36*
X3715471D02*
X3710533Y4984622D01*
X3704662Y4981232D01*
X3699868Y4976438D01*
X3696478Y4970567D01*
X3695155Y4965628D01*
X3715471D01*
Y4985945D01*
D02*
G37*
G36*
X3607361D02*
Y4965628D01*
X3627678D01*
X3626354Y4970567D01*
X3622965Y4976438D01*
X3618171Y4981232D01*
X3612300Y4984622D01*
X3607361Y4985945D01*
D02*
G37*
G36*
X3597361D02*
X3592423Y4984622D01*
X3586551Y4981232D01*
X3581758Y4976438D01*
X3578368Y4970567D01*
X3577045Y4965628D01*
X3597361D01*
Y4985945D01*
D02*
G37*
G36*
X3489251D02*
Y4965628D01*
X3509567D01*
X3508244Y4970567D01*
X3504854Y4976438D01*
X3500061Y4981232D01*
X3494189Y4984622D01*
X3489251Y4985945D01*
D02*
G37*
G36*
X3479251D02*
X3474312Y4984622D01*
X3468441Y4981232D01*
X3463647Y4976438D01*
X3460258Y4970567D01*
X3458934Y4965628D01*
X3479251D01*
Y4985945D01*
D02*
G37*
G36*
X3371141D02*
Y4965628D01*
X3391457D01*
X3390134Y4970567D01*
X3386744Y4976438D01*
X3381950Y4981232D01*
X3376079Y4984622D01*
X3371141Y4985945D01*
D02*
G37*
G36*
X3361141D02*
X3356202Y4984622D01*
X3350331Y4981232D01*
X3345537Y4976438D01*
X3342147Y4970567D01*
X3340824Y4965628D01*
X3361141D01*
Y4985945D01*
D02*
G37*
G36*
X3253030D02*
Y4965628D01*
X3273347D01*
X3272024Y4970567D01*
X3268634Y4976438D01*
X3263840Y4981232D01*
X3257969Y4984622D01*
X3253030Y4985945D01*
D02*
G37*
G36*
X3243030D02*
X3238092Y4984622D01*
X3232221Y4981232D01*
X3227427Y4976438D01*
X3224037Y4970567D01*
X3222714Y4965628D01*
X3243030D01*
Y4985945D01*
D02*
G37*
G36*
X4336339Y4955628D02*
X4316022D01*
Y4935312D01*
X4320961Y4936635D01*
X4326832Y4940025D01*
X4331626Y4944819D01*
X4335016Y4950690D01*
X4336339Y4955628D01*
D02*
G37*
G36*
X4306022D02*
X4285706D01*
X4287029Y4950690D01*
X4290419Y4944819D01*
X4295213Y4940025D01*
X4301084Y4936635D01*
X4306022Y4935312D01*
Y4955628D01*
D02*
G37*
G36*
X4218229D02*
X4197912D01*
Y4935312D01*
X4202850Y4936635D01*
X4208722Y4940025D01*
X4213516Y4944819D01*
X4216905Y4950690D01*
X4218229Y4955628D01*
D02*
G37*
G36*
X4187912D02*
X4167596D01*
X4168919Y4950690D01*
X4172309Y4944819D01*
X4177102Y4940025D01*
X4182974Y4936635D01*
X4187912Y4935312D01*
Y4955628D01*
D02*
G37*
G36*
X4100118D02*
X4079802D01*
Y4935312D01*
X4084740Y4936635D01*
X4090612Y4940025D01*
X4095405Y4944819D01*
X4098795Y4950690D01*
X4100118Y4955628D01*
D02*
G37*
G36*
X4069802D02*
X4049485D01*
X4050809Y4950690D01*
X4054198Y4944819D01*
X4058992Y4940025D01*
X4064863Y4936635D01*
X4069802Y4935312D01*
Y4955628D01*
D02*
G37*
G36*
X3982008D02*
X3961692D01*
Y4935312D01*
X3966630Y4936635D01*
X3972501Y4940025D01*
X3977295Y4944819D01*
X3980685Y4950690D01*
X3982008Y4955628D01*
D02*
G37*
G36*
X3951692D02*
X3931375D01*
X3932698Y4950690D01*
X3936088Y4944819D01*
X3940882Y4940025D01*
X3946753Y4936635D01*
X3951692Y4935312D01*
Y4955628D01*
D02*
G37*
G36*
X3863898D02*
X3843581D01*
Y4935312D01*
X3848520Y4936635D01*
X3854391Y4940025D01*
X3859185Y4944819D01*
X3862575Y4950690D01*
X3863898Y4955628D01*
D02*
G37*
G36*
X3833581D02*
X3813265D01*
X3814588Y4950690D01*
X3817978Y4944819D01*
X3822772Y4940025D01*
X3828643Y4936635D01*
X3833581Y4935312D01*
Y4955628D01*
D02*
G37*
G36*
X3745788D02*
X3725471D01*
Y4935312D01*
X3730410Y4936635D01*
X3736281Y4940025D01*
X3741075Y4944819D01*
X3744465Y4950690D01*
X3745788Y4955628D01*
D02*
G37*
G36*
X3715471D02*
X3695155D01*
X3696478Y4950690D01*
X3699868Y4944819D01*
X3704662Y4940025D01*
X3710533Y4936635D01*
X3715471Y4935312D01*
Y4955628D01*
D02*
G37*
G36*
X3627678D02*
X3607361D01*
Y4935312D01*
X3612300Y4936635D01*
X3618171Y4940025D01*
X3622965Y4944819D01*
X3626354Y4950690D01*
X3627678Y4955628D01*
D02*
G37*
G36*
X3597361D02*
X3577045D01*
X3578368Y4950690D01*
X3581758Y4944819D01*
X3586551Y4940025D01*
X3592423Y4936635D01*
X3597361Y4935312D01*
Y4955628D01*
D02*
G37*
G36*
X3509567D02*
X3489251D01*
Y4935312D01*
X3494189Y4936635D01*
X3500061Y4940025D01*
X3504854Y4944819D01*
X3508244Y4950690D01*
X3509567Y4955628D01*
D02*
G37*
G36*
X3479251D02*
X3458934D01*
X3460258Y4950690D01*
X3463647Y4944819D01*
X3468441Y4940025D01*
X3474312Y4936635D01*
X3479251Y4935312D01*
Y4955628D01*
D02*
G37*
G36*
X3391457D02*
X3371141D01*
Y4935312D01*
X3376079Y4936635D01*
X3381950Y4940025D01*
X3386744Y4944819D01*
X3390134Y4950690D01*
X3391457Y4955628D01*
D02*
G37*
G36*
X3361141D02*
X3340824D01*
X3342147Y4950690D01*
X3345537Y4944819D01*
X3350331Y4940025D01*
X3356202Y4936635D01*
X3361141Y4935312D01*
Y4955628D01*
D02*
G37*
G36*
X3273347D02*
X3253030D01*
Y4935312D01*
X3257969Y4936635D01*
X3263840Y4940025D01*
X3268634Y4944819D01*
X3272024Y4950690D01*
X3273347Y4955628D01*
D02*
G37*
G36*
X3243030D02*
X3222714D01*
X3224037Y4950690D01*
X3227427Y4944819D01*
X3232221Y4940025D01*
X3238092Y4936635D01*
X3243030Y4935312D01*
Y4955628D01*
D02*
G37*
G36*
X3430196Y4867835D02*
Y4847518D01*
X3450512D01*
X3449189Y4852457D01*
X3445799Y4858328D01*
X3441006Y4863122D01*
X3435134Y4866511D01*
X3430196Y4867835D01*
D02*
G37*
G36*
X3420196D02*
X3415257Y4866511D01*
X3409386Y4863122D01*
X3404592Y4858328D01*
X3401202Y4852457D01*
X3399879Y4847518D01*
X3420196D01*
Y4867835D01*
D02*
G37*
G36*
X3312086D02*
Y4847518D01*
X3332402D01*
X3331079Y4852457D01*
X3327689Y4858328D01*
X3322895Y4863122D01*
X3317024Y4866511D01*
X3312086Y4867835D01*
D02*
G37*
G36*
X3302086D02*
X3297147Y4866511D01*
X3291276Y4863122D01*
X3286482Y4858328D01*
X3283092Y4852457D01*
X3281769Y4847518D01*
X3302086D01*
Y4867835D01*
D02*
G37*
G36*
X3450512Y4837518D02*
X3430196D01*
Y4817202D01*
X3435134Y4818525D01*
X3441006Y4821915D01*
X3445799Y4826708D01*
X3449189Y4832580D01*
X3450512Y4837518D01*
D02*
G37*
G36*
X3420196D02*
X3399879D01*
X3401202Y4832580D01*
X3404592Y4826708D01*
X3409386Y4821915D01*
X3415257Y4818525D01*
X3420196Y4817202D01*
Y4837518D01*
D02*
G37*
G36*
X3332402D02*
X3312086D01*
Y4817202D01*
X3317024Y4818525D01*
X3322895Y4821915D01*
X3327689Y4826708D01*
X3331079Y4832580D01*
X3332402Y4837518D01*
D02*
G37*
G36*
X3302086D02*
X3281769D01*
X3283092Y4832580D01*
X3286482Y4826708D01*
X3291276Y4821915D01*
X3297147Y4818525D01*
X3302086Y4817202D01*
Y4837518D01*
D02*
G37*
G36*
X3116801Y4934055D02*
X3103199D01*
X3089857Y4931401D01*
X3077290Y4926196D01*
X3065980Y4918639D01*
X3056361Y4909020D01*
X3048804Y4897710D01*
X3043599Y4885143D01*
X3040945Y4871801D01*
Y4858199D01*
X3043599Y4844857D01*
X3048804Y4832290D01*
X3056361Y4820980D01*
X3065980Y4811361D01*
X3077290Y4803804D01*
X3089857Y4798599D01*
X3103199Y4795945D01*
X3116801D01*
X3130143Y4798599D01*
X3142710Y4803804D01*
X3154020Y4811361D01*
X3163639Y4820980D01*
X3171196Y4832290D01*
X3176401Y4844857D01*
X3179055Y4858199D01*
Y4871801D01*
X3176401Y4885143D01*
X3171196Y4897710D01*
X3163639Y4909020D01*
X3154020Y4918639D01*
X3142710Y4926196D01*
X3130143Y4931401D01*
X3116801Y4934055D01*
D02*
G37*
G36*
X4197912Y4749725D02*
Y4729408D01*
X4218229D01*
X4216905Y4734346D01*
X4213516Y4740218D01*
X4208722Y4745011D01*
X4202850Y4748401D01*
X4197912Y4749725D01*
D02*
G37*
G36*
X4187912D02*
X4182974Y4748401D01*
X4177102Y4745011D01*
X4172309Y4740218D01*
X4168919Y4734346D01*
X4167596Y4729408D01*
X4187912D01*
Y4749725D01*
D02*
G37*
G36*
X4079802D02*
Y4729408D01*
X4100118D01*
X4098795Y4734346D01*
X4095405Y4740218D01*
X4090612Y4745011D01*
X4084740Y4748401D01*
X4079802Y4749725D01*
D02*
G37*
G36*
X4069802D02*
X4064863Y4748401D01*
X4058992Y4745011D01*
X4054198Y4740218D01*
X4050809Y4734346D01*
X4049485Y4729408D01*
X4069802D01*
Y4749725D01*
D02*
G37*
G36*
X3607361D02*
Y4729408D01*
X3627678D01*
X3626354Y4734346D01*
X3622965Y4740218D01*
X3618171Y4745011D01*
X3612300Y4748401D01*
X3607361Y4749725D01*
D02*
G37*
G36*
X3597361D02*
X3592423Y4748401D01*
X3586551Y4745011D01*
X3581758Y4740218D01*
X3578368Y4734346D01*
X3577045Y4729408D01*
X3597361D01*
Y4749725D01*
D02*
G37*
G36*
X3371141D02*
Y4729408D01*
X3391457D01*
X3390134Y4734346D01*
X3386744Y4740218D01*
X3381950Y4745011D01*
X3376079Y4748401D01*
X3371141Y4749725D01*
D02*
G37*
G36*
X3361141D02*
X3356202Y4748401D01*
X3350331Y4745011D01*
X3345537Y4740218D01*
X3342147Y4734346D01*
X3340824Y4729408D01*
X3361141D01*
Y4749725D01*
D02*
G37*
G36*
X3253030D02*
Y4729408D01*
X3273347D01*
X3272024Y4734346D01*
X3268634Y4740218D01*
X3263840Y4745011D01*
X3257969Y4748401D01*
X3253030Y4749725D01*
D02*
G37*
G36*
X3243030D02*
X3238092Y4748401D01*
X3232221Y4745011D01*
X3227427Y4740218D01*
X3224037Y4734346D01*
X3222714Y4729408D01*
X3243030D01*
Y4749725D01*
D02*
G37*
G36*
X3016810D02*
Y4729408D01*
X3037127D01*
X3035803Y4734346D01*
X3032414Y4740218D01*
X3027620Y4745011D01*
X3021749Y4748401D01*
X3016810Y4749725D01*
D02*
G37*
G36*
X3006810D02*
X3001872Y4748401D01*
X2996000Y4745011D01*
X2991207Y4740218D01*
X2987817Y4734346D01*
X2986494Y4729408D01*
X3006810D01*
Y4749725D01*
D02*
G37*
G36*
X3790575Y4780807D02*
X3789094D01*
Y4720000D01*
X3849901D01*
Y4721481D01*
X3847372Y4734195D01*
X3842412Y4746171D01*
X3835210Y4756950D01*
X3826044Y4766116D01*
X3815265Y4773318D01*
X3803289Y4778278D01*
X3790575Y4780807D01*
D02*
G37*
G36*
X3779094D02*
X3777613D01*
X3764899Y4778278D01*
X3752923Y4773318D01*
X3742144Y4766116D01*
X3732978Y4756950D01*
X3725776Y4746171D01*
X3720816Y4734195D01*
X3718287Y4721481D01*
Y4720000D01*
X3779094D01*
Y4780807D01*
D02*
G37*
G36*
X4218229Y4719408D02*
X4197912D01*
Y4699092D01*
X4202850Y4700415D01*
X4208722Y4703805D01*
X4213516Y4708598D01*
X4216905Y4714470D01*
X4218229Y4719408D01*
D02*
G37*
G36*
X4187912D02*
X4167596D01*
X4168919Y4714470D01*
X4172309Y4708598D01*
X4177102Y4703805D01*
X4182974Y4700415D01*
X4187912Y4699092D01*
Y4719408D01*
D02*
G37*
G36*
X4100118D02*
X4079802D01*
Y4699092D01*
X4084740Y4700415D01*
X4090612Y4703805D01*
X4095405Y4708598D01*
X4098795Y4714470D01*
X4100118Y4719408D01*
D02*
G37*
G36*
X4069802D02*
X4049485D01*
X4050809Y4714470D01*
X4054198Y4708598D01*
X4058992Y4703805D01*
X4064863Y4700415D01*
X4069802Y4699092D01*
Y4719408D01*
D02*
G37*
G36*
X3627678D02*
X3607361D01*
Y4699092D01*
X3612300Y4700415D01*
X3618171Y4703805D01*
X3622965Y4708598D01*
X3626354Y4714470D01*
X3627678Y4719408D01*
D02*
G37*
G36*
X3597361D02*
X3577045D01*
X3578368Y4714470D01*
X3581758Y4708598D01*
X3586551Y4703805D01*
X3592423Y4700415D01*
X3597361Y4699092D01*
Y4719408D01*
D02*
G37*
G36*
X3391457D02*
X3371141D01*
Y4699092D01*
X3376079Y4700415D01*
X3381950Y4703805D01*
X3386744Y4708598D01*
X3390134Y4714470D01*
X3391457Y4719408D01*
D02*
G37*
G36*
X3361141D02*
X3340824D01*
X3342147Y4714470D01*
X3345537Y4708598D01*
X3350331Y4703805D01*
X3356202Y4700415D01*
X3361141Y4699092D01*
Y4719408D01*
D02*
G37*
G36*
X3273347D02*
X3253030D01*
Y4699092D01*
X3257969Y4700415D01*
X3263840Y4703805D01*
X3268634Y4708598D01*
X3272024Y4714470D01*
X3273347Y4719408D01*
D02*
G37*
G36*
X3243030D02*
X3222714D01*
X3224037Y4714470D01*
X3227427Y4708598D01*
X3232221Y4703805D01*
X3238092Y4700415D01*
X3243030Y4699092D01*
Y4719408D01*
D02*
G37*
G36*
X3037127D02*
X3016810D01*
Y4699092D01*
X3021749Y4700415D01*
X3027620Y4703805D01*
X3032414Y4708598D01*
X3035803Y4714470D01*
X3037127Y4719408D01*
D02*
G37*
G36*
X3006810D02*
X2986494D01*
X2987817Y4714470D01*
X2991207Y4708598D01*
X2996000Y4703805D01*
X3001872Y4700415D01*
X3006810Y4699092D01*
Y4719408D01*
D02*
G37*
G36*
X3946481Y4780807D02*
X3933519D01*
X3920805Y4778278D01*
X3908829Y4773318D01*
X3898050Y4766116D01*
X3888884Y4756950D01*
X3881682Y4746171D01*
X3876722Y4734195D01*
X3874193Y4721481D01*
Y4708519D01*
X3876722Y4695805D01*
X3881682Y4683829D01*
X3888884Y4673050D01*
X3898050Y4663884D01*
X3908829Y4656682D01*
X3920805Y4651722D01*
X3933519Y4649193D01*
X3946481D01*
X3959195Y4651722D01*
X3971171Y4656682D01*
X3981950Y4663884D01*
X3991116Y4673050D01*
X3998318Y4683829D01*
X4003278Y4695805D01*
X4005807Y4708519D01*
Y4721481D01*
X4003278Y4734195D01*
X3998318Y4746171D01*
X3991116Y4756950D01*
X3981950Y4766116D01*
X3971171Y4773318D01*
X3959195Y4778278D01*
X3946481Y4780807D01*
D02*
G37*
G36*
X3849901Y4710000D02*
X3789094D01*
Y4649193D01*
X3790575D01*
X3803289Y4651722D01*
X3815265Y4656682D01*
X3826044Y4663884D01*
X3835210Y4673050D01*
X3842412Y4683829D01*
X3847372Y4695805D01*
X3849901Y4708519D01*
Y4710000D01*
D02*
G37*
G36*
X3779094D02*
X3718287D01*
Y4708519D01*
X3720816Y4695805D01*
X3725776Y4683829D01*
X3732978Y4673050D01*
X3742144Y4663884D01*
X3752923Y4656682D01*
X3764899Y4651722D01*
X3777613Y4649193D01*
X3779094D01*
Y4710000D01*
D02*
G37*
G36*
X4256967Y4631614D02*
Y4611298D01*
X4277284D01*
X4275961Y4616236D01*
X4272571Y4622108D01*
X4267777Y4626901D01*
X4261906Y4630291D01*
X4256967Y4631614D01*
D02*
G37*
G36*
X4246967D02*
X4242029Y4630291D01*
X4236158Y4626901D01*
X4231364Y4622108D01*
X4227974Y4616236D01*
X4226651Y4611298D01*
X4246967D01*
Y4631614D01*
D02*
G37*
G36*
X4138857D02*
Y4611298D01*
X4159173D01*
X4157850Y4616236D01*
X4154461Y4622108D01*
X4149667Y4626901D01*
X4143795Y4630291D01*
X4138857Y4631614D01*
D02*
G37*
G36*
X4128857D02*
X4123919Y4630291D01*
X4118047Y4626901D01*
X4113253Y4622108D01*
X4109864Y4616236D01*
X4108541Y4611298D01*
X4128857D01*
Y4631614D01*
D02*
G37*
G36*
X3902637D02*
Y4611298D01*
X3922953D01*
X3921630Y4616236D01*
X3918240Y4622108D01*
X3913446Y4626901D01*
X3907575Y4630291D01*
X3902637Y4631614D01*
D02*
G37*
G36*
X3892637D02*
X3887698Y4630291D01*
X3881827Y4626901D01*
X3877033Y4622108D01*
X3873643Y4616236D01*
X3872320Y4611298D01*
X3892637D01*
Y4631614D01*
D02*
G37*
G36*
X3784526D02*
Y4611298D01*
X3804843D01*
X3803520Y4616236D01*
X3800130Y4622108D01*
X3795336Y4626901D01*
X3789465Y4630291D01*
X3784526Y4631614D01*
D02*
G37*
G36*
X3774526D02*
X3769588Y4630291D01*
X3763717Y4626901D01*
X3758923Y4622108D01*
X3755533Y4616236D01*
X3754210Y4611298D01*
X3774526D01*
Y4631614D01*
D02*
G37*
G36*
X3666416D02*
Y4611298D01*
X3686733D01*
X3685410Y4616236D01*
X3682020Y4622108D01*
X3677226Y4626901D01*
X3671355Y4630291D01*
X3666416Y4631614D01*
D02*
G37*
G36*
X3656416D02*
X3651478Y4630291D01*
X3645606Y4626901D01*
X3640813Y4622108D01*
X3637423Y4616236D01*
X3636100Y4611298D01*
X3656416D01*
Y4631614D01*
D02*
G37*
G36*
X3548306D02*
Y4611298D01*
X3568622D01*
X3567299Y4616236D01*
X3563910Y4622108D01*
X3559116Y4626901D01*
X3553244Y4630291D01*
X3548306Y4631614D01*
D02*
G37*
G36*
X3538306D02*
X3533368Y4630291D01*
X3527496Y4626901D01*
X3522702Y4622108D01*
X3519313Y4616236D01*
X3517990Y4611298D01*
X3538306D01*
Y4631614D01*
D02*
G37*
G36*
X3193975D02*
Y4611298D01*
X3214292D01*
X3212969Y4616236D01*
X3209579Y4622108D01*
X3204785Y4626901D01*
X3198914Y4630291D01*
X3193975Y4631614D01*
D02*
G37*
G36*
X3183975D02*
X3179037Y4630291D01*
X3173166Y4626901D01*
X3168372Y4622108D01*
X3164982Y4616236D01*
X3163659Y4611298D01*
X3183975D01*
Y4631614D01*
D02*
G37*
G36*
X3075865D02*
Y4611298D01*
X3096182D01*
X3094858Y4616236D01*
X3091469Y4622108D01*
X3086675Y4626901D01*
X3080804Y4630291D01*
X3075865Y4631614D01*
D02*
G37*
G36*
X3065865D02*
X3060927Y4630291D01*
X3055055Y4626901D01*
X3050262Y4622108D01*
X3046872Y4616236D01*
X3045549Y4611298D01*
X3065865D01*
Y4631614D01*
D02*
G37*
G36*
X2957755D02*
Y4611298D01*
X2978072D01*
X2976748Y4616236D01*
X2973358Y4622108D01*
X2968565Y4626901D01*
X2962693Y4630291D01*
X2957755Y4631614D01*
D02*
G37*
G36*
X2947755D02*
X2942817Y4630291D01*
X2936945Y4626901D01*
X2932151Y4622108D01*
X2928762Y4616236D01*
X2927439Y4611298D01*
X2947755D01*
Y4631614D01*
D02*
G37*
G36*
X4277284Y4601298D02*
X4256967D01*
Y4580981D01*
X4261906Y4582305D01*
X4267777Y4585694D01*
X4272571Y4590488D01*
X4275961Y4596359D01*
X4277284Y4601298D01*
D02*
G37*
G36*
X4246967D02*
X4226651D01*
X4227974Y4596359D01*
X4231364Y4590488D01*
X4236158Y4585694D01*
X4242029Y4582305D01*
X4246967Y4580981D01*
Y4601298D01*
D02*
G37*
G36*
X4159173D02*
X4138857D01*
Y4580981D01*
X4143795Y4582305D01*
X4149667Y4585694D01*
X4154461Y4590488D01*
X4157850Y4596359D01*
X4159173Y4601298D01*
D02*
G37*
G36*
X4128857D02*
X4108541D01*
X4109864Y4596359D01*
X4113253Y4590488D01*
X4118047Y4585694D01*
X4123919Y4582305D01*
X4128857Y4580981D01*
Y4601298D01*
D02*
G37*
G36*
X3922953D02*
X3902637D01*
Y4580981D01*
X3907575Y4582305D01*
X3913446Y4585694D01*
X3918240Y4590488D01*
X3921630Y4596359D01*
X3922953Y4601298D01*
D02*
G37*
G36*
X3892637D02*
X3872320D01*
X3873643Y4596359D01*
X3877033Y4590488D01*
X3881827Y4585694D01*
X3887698Y4582305D01*
X3892637Y4580981D01*
Y4601298D01*
D02*
G37*
G36*
X3804843D02*
X3784526D01*
Y4580981D01*
X3789465Y4582305D01*
X3795336Y4585694D01*
X3800130Y4590488D01*
X3803520Y4596359D01*
X3804843Y4601298D01*
D02*
G37*
G36*
X3774526D02*
X3754210D01*
X3755533Y4596359D01*
X3758923Y4590488D01*
X3763717Y4585694D01*
X3769588Y4582305D01*
X3774526Y4580981D01*
Y4601298D01*
D02*
G37*
G36*
X3686733D02*
X3666416D01*
Y4580981D01*
X3671355Y4582305D01*
X3677226Y4585694D01*
X3682020Y4590488D01*
X3685410Y4596359D01*
X3686733Y4601298D01*
D02*
G37*
G36*
X3656416D02*
X3636100D01*
X3637423Y4596359D01*
X3640813Y4590488D01*
X3645606Y4585694D01*
X3651478Y4582305D01*
X3656416Y4580981D01*
Y4601298D01*
D02*
G37*
G36*
X3568622D02*
X3548306D01*
Y4580981D01*
X3553244Y4582305D01*
X3559116Y4585694D01*
X3563910Y4590488D01*
X3567299Y4596359D01*
X3568622Y4601298D01*
D02*
G37*
G36*
X3538306D02*
X3517990D01*
X3519313Y4596359D01*
X3522702Y4590488D01*
X3527496Y4585694D01*
X3533368Y4582305D01*
X3538306Y4580981D01*
Y4601298D01*
D02*
G37*
G36*
X3214292D02*
X3193975D01*
Y4580981D01*
X3198914Y4582305D01*
X3204785Y4585694D01*
X3209579Y4590488D01*
X3212969Y4596359D01*
X3214292Y4601298D01*
D02*
G37*
G36*
X3183975D02*
X3163659D01*
X3164982Y4596359D01*
X3168372Y4590488D01*
X3173166Y4585694D01*
X3179037Y4582305D01*
X3183975Y4580981D01*
Y4601298D01*
D02*
G37*
G36*
X3096182D02*
X3075865D01*
Y4580981D01*
X3080804Y4582305D01*
X3086675Y4585694D01*
X3091469Y4590488D01*
X3094858Y4596359D01*
X3096182Y4601298D01*
D02*
G37*
G36*
X3065865D02*
X3045549D01*
X3046872Y4596359D01*
X3050262Y4590488D01*
X3055055Y4585694D01*
X3060927Y4582305D01*
X3065865Y4580981D01*
Y4601298D01*
D02*
G37*
G36*
X2978072D02*
X2957755D01*
Y4580981D01*
X2962693Y4582305D01*
X2968565Y4585694D01*
X2973358Y4590488D01*
X2976748Y4596359D01*
X2978072Y4601298D01*
D02*
G37*
G36*
X2947755D02*
X2927439D01*
X2928762Y4596359D01*
X2932151Y4590488D01*
X2936945Y4585694D01*
X2942817Y4582305D01*
X2947755Y4580981D01*
Y4601298D01*
D02*
G37*
G36*
X3988657Y4627756D02*
X3976383D01*
X3964528Y4624579D01*
X3953898Y4618443D01*
X3945220Y4609764D01*
X3939083Y4599134D01*
X3935906Y4587279D01*
Y4575005D01*
X3939083Y4563150D01*
X3945220Y4552520D01*
X3953898Y4543842D01*
X3964528Y4537705D01*
X3976383Y4534528D01*
X3988657D01*
X4000512Y4537705D01*
X4011142Y4543842D01*
X4019820Y4552520D01*
X4025957Y4563150D01*
X4029134Y4575005D01*
Y4587279D01*
X4025957Y4599134D01*
X4019820Y4609764D01*
X4011142Y4618443D01*
X4000512Y4624579D01*
X3988657Y4627756D01*
D02*
G37*
G36*
X4316022Y4513504D02*
Y4493188D01*
X4336339D01*
X4335016Y4498126D01*
X4331626Y4503997D01*
X4326832Y4508791D01*
X4320961Y4512181D01*
X4316022Y4513504D01*
D02*
G37*
G36*
X4306022D02*
X4301084Y4512181D01*
X4295213Y4508791D01*
X4290419Y4503997D01*
X4287029Y4498126D01*
X4285706Y4493188D01*
X4306022D01*
Y4513504D01*
D02*
G37*
G36*
X4197912D02*
Y4493188D01*
X4218229D01*
X4216905Y4498126D01*
X4213516Y4503997D01*
X4208722Y4508791D01*
X4202850Y4512181D01*
X4197912Y4513504D01*
D02*
G37*
G36*
X4187912D02*
X4182974Y4512181D01*
X4177102Y4508791D01*
X4172309Y4503997D01*
X4168919Y4498126D01*
X4167596Y4493188D01*
X4187912D01*
Y4513504D01*
D02*
G37*
G36*
X3961692D02*
Y4493188D01*
X3982008D01*
X3980685Y4498126D01*
X3977295Y4503997D01*
X3972501Y4508791D01*
X3966630Y4512181D01*
X3961692Y4513504D01*
D02*
G37*
G36*
X3951692D02*
X3946753Y4512181D01*
X3940882Y4508791D01*
X3936088Y4503997D01*
X3932698Y4498126D01*
X3931375Y4493188D01*
X3951692D01*
Y4513504D01*
D02*
G37*
G36*
X3843581D02*
Y4493188D01*
X3863898D01*
X3862575Y4498126D01*
X3859185Y4503997D01*
X3854391Y4508791D01*
X3848520Y4512181D01*
X3843581Y4513504D01*
D02*
G37*
G36*
X3833581D02*
X3828643Y4512181D01*
X3822772Y4508791D01*
X3817978Y4503997D01*
X3814588Y4498126D01*
X3813265Y4493188D01*
X3833581D01*
Y4513504D01*
D02*
G37*
G36*
X3725471D02*
Y4493188D01*
X3745788D01*
X3744465Y4498126D01*
X3741075Y4503997D01*
X3736281Y4508791D01*
X3730410Y4512181D01*
X3725471Y4513504D01*
D02*
G37*
G36*
X3715471D02*
X3710533Y4512181D01*
X3704662Y4508791D01*
X3699868Y4503997D01*
X3696478Y4498126D01*
X3695155Y4493188D01*
X3715471D01*
Y4513504D01*
D02*
G37*
G36*
X3607361D02*
Y4493188D01*
X3627678D01*
X3626354Y4498126D01*
X3622965Y4503997D01*
X3618171Y4508791D01*
X3612300Y4512181D01*
X3607361Y4513504D01*
D02*
G37*
G36*
X3597361D02*
X3592423Y4512181D01*
X3586551Y4508791D01*
X3581758Y4503997D01*
X3578368Y4498126D01*
X3577045Y4493188D01*
X3597361D01*
Y4513504D01*
D02*
G37*
G36*
X3489251D02*
Y4493188D01*
X3509567D01*
X3508244Y4498126D01*
X3504854Y4503997D01*
X3500061Y4508791D01*
X3494189Y4512181D01*
X3489251Y4513504D01*
D02*
G37*
G36*
X3479251D02*
X3474312Y4512181D01*
X3468441Y4508791D01*
X3463647Y4503997D01*
X3460258Y4498126D01*
X3458934Y4493188D01*
X3479251D01*
Y4513504D01*
D02*
G37*
G36*
X3371141D02*
Y4493188D01*
X3391457D01*
X3390134Y4498126D01*
X3386744Y4503997D01*
X3381950Y4508791D01*
X3376079Y4512181D01*
X3371141Y4513504D01*
D02*
G37*
G36*
X3361141D02*
X3356202Y4512181D01*
X3350331Y4508791D01*
X3345537Y4503997D01*
X3342147Y4498126D01*
X3340824Y4493188D01*
X3361141D01*
Y4513504D01*
D02*
G37*
G36*
X3134920D02*
Y4493188D01*
X3155237D01*
X3153914Y4498126D01*
X3150524Y4503997D01*
X3145730Y4508791D01*
X3139859Y4512181D01*
X3134920Y4513504D01*
D02*
G37*
G36*
X3124920D02*
X3119982Y4512181D01*
X3114111Y4508791D01*
X3109317Y4503997D01*
X3105927Y4498126D01*
X3104604Y4493188D01*
X3124920D01*
Y4513504D01*
D02*
G37*
G36*
X3016810D02*
Y4493188D01*
X3037127D01*
X3035803Y4498126D01*
X3032414Y4503997D01*
X3027620Y4508791D01*
X3021749Y4512181D01*
X3016810Y4513504D01*
D02*
G37*
G36*
X3006810D02*
X3001872Y4512181D01*
X2996000Y4508791D01*
X2991207Y4503997D01*
X2987817Y4498126D01*
X2986494Y4493188D01*
X3006810D01*
Y4513504D01*
D02*
G37*
G36*
X4336339Y4483188D02*
X4316022D01*
Y4462871D01*
X4320961Y4464194D01*
X4326832Y4467584D01*
X4331626Y4472378D01*
X4335016Y4478249D01*
X4336339Y4483188D01*
D02*
G37*
G36*
X4306022D02*
X4285706D01*
X4287029Y4478249D01*
X4290419Y4472378D01*
X4295213Y4467584D01*
X4301084Y4464194D01*
X4306022Y4462871D01*
Y4483188D01*
D02*
G37*
G36*
X4218229D02*
X4197912D01*
Y4462871D01*
X4202850Y4464194D01*
X4208722Y4467584D01*
X4213516Y4472378D01*
X4216905Y4478249D01*
X4218229Y4483188D01*
D02*
G37*
G36*
X4187912D02*
X4167596D01*
X4168919Y4478249D01*
X4172309Y4472378D01*
X4177102Y4467584D01*
X4182974Y4464194D01*
X4187912Y4462871D01*
Y4483188D01*
D02*
G37*
G36*
X3982008D02*
X3961692D01*
Y4462871D01*
X3966630Y4464194D01*
X3972501Y4467584D01*
X3977295Y4472378D01*
X3980685Y4478249D01*
X3982008Y4483188D01*
D02*
G37*
G36*
X3951692D02*
X3931375D01*
X3932698Y4478249D01*
X3936088Y4472378D01*
X3940882Y4467584D01*
X3946753Y4464194D01*
X3951692Y4462871D01*
Y4483188D01*
D02*
G37*
G36*
X3863898D02*
X3843581D01*
Y4462871D01*
X3848520Y4464194D01*
X3854391Y4467584D01*
X3859185Y4472378D01*
X3862575Y4478249D01*
X3863898Y4483188D01*
D02*
G37*
G36*
X3833581D02*
X3813265D01*
X3814588Y4478249D01*
X3817978Y4472378D01*
X3822772Y4467584D01*
X3828643Y4464194D01*
X3833581Y4462871D01*
Y4483188D01*
D02*
G37*
G36*
X3745788D02*
X3725471D01*
Y4462871D01*
X3730410Y4464194D01*
X3736281Y4467584D01*
X3741075Y4472378D01*
X3744465Y4478249D01*
X3745788Y4483188D01*
D02*
G37*
G36*
X3715471D02*
X3695155D01*
X3696478Y4478249D01*
X3699868Y4472378D01*
X3704662Y4467584D01*
X3710533Y4464194D01*
X3715471Y4462871D01*
Y4483188D01*
D02*
G37*
G36*
X3627678D02*
X3607361D01*
Y4462871D01*
X3612300Y4464194D01*
X3618171Y4467584D01*
X3622965Y4472378D01*
X3626354Y4478249D01*
X3627678Y4483188D01*
D02*
G37*
G36*
X3597361D02*
X3577045D01*
X3578368Y4478249D01*
X3581758Y4472378D01*
X3586551Y4467584D01*
X3592423Y4464194D01*
X3597361Y4462871D01*
Y4483188D01*
D02*
G37*
G36*
X3509567D02*
X3489251D01*
Y4462871D01*
X3494189Y4464194D01*
X3500061Y4467584D01*
X3504854Y4472378D01*
X3508244Y4478249D01*
X3509567Y4483188D01*
D02*
G37*
G36*
X3479251D02*
X3458934D01*
X3460258Y4478249D01*
X3463647Y4472378D01*
X3468441Y4467584D01*
X3474312Y4464194D01*
X3479251Y4462871D01*
Y4483188D01*
D02*
G37*
G36*
X3391457D02*
X3371141D01*
Y4462871D01*
X3376079Y4464194D01*
X3381950Y4467584D01*
X3386744Y4472378D01*
X3390134Y4478249D01*
X3391457Y4483188D01*
D02*
G37*
G36*
X3361141D02*
X3340824D01*
X3342147Y4478249D01*
X3345537Y4472378D01*
X3350331Y4467584D01*
X3356202Y4464194D01*
X3361141Y4462871D01*
Y4483188D01*
D02*
G37*
G36*
X3155237D02*
X3134920D01*
Y4462871D01*
X3139859Y4464194D01*
X3145730Y4467584D01*
X3150524Y4472378D01*
X3153914Y4478249D01*
X3155237Y4483188D01*
D02*
G37*
G36*
X3124920D02*
X3104604D01*
X3105927Y4478249D01*
X3109317Y4472378D01*
X3114111Y4467584D01*
X3119982Y4464194D01*
X3124920Y4462871D01*
Y4483188D01*
D02*
G37*
G36*
X3037127D02*
X3016810D01*
Y4462871D01*
X3021749Y4464194D01*
X3027620Y4467584D01*
X3032414Y4472378D01*
X3035803Y4478249D01*
X3037127Y4483188D01*
D02*
G37*
G36*
X3006810D02*
X2986494D01*
X2987817Y4478249D01*
X2991207Y4472378D01*
X2996000Y4467584D01*
X3001872Y4464194D01*
X3006810Y4462871D01*
Y4483188D01*
D02*
G37*
G36*
X4256967Y4395394D02*
Y4375077D01*
X4277284D01*
X4275961Y4380016D01*
X4272571Y4385887D01*
X4267777Y4390681D01*
X4261906Y4394071D01*
X4256967Y4395394D01*
D02*
G37*
G36*
X4246967D02*
X4242029Y4394071D01*
X4236158Y4390681D01*
X4231364Y4385887D01*
X4227974Y4380016D01*
X4226651Y4375077D01*
X4246967D01*
Y4395394D01*
D02*
G37*
G36*
X2957755D02*
Y4375077D01*
X2978072D01*
X2976748Y4380016D01*
X2973358Y4385887D01*
X2968565Y4390681D01*
X2962693Y4394071D01*
X2957755Y4395394D01*
D02*
G37*
G36*
X2947755D02*
X2942817Y4394071D01*
X2936945Y4390681D01*
X2932151Y4385887D01*
X2928762Y4380016D01*
X2927439Y4375077D01*
X2947755D01*
Y4395394D01*
D02*
G37*
G36*
X4277284Y4365077D02*
X4256967D01*
Y4344761D01*
X4261906Y4346084D01*
X4267777Y4349474D01*
X4272571Y4354268D01*
X4275961Y4360139D01*
X4277284Y4365077D01*
D02*
G37*
G36*
X4246967D02*
X4226651D01*
X4227974Y4360139D01*
X4231364Y4354268D01*
X4236158Y4349474D01*
X4242029Y4346084D01*
X4246967Y4344761D01*
Y4365077D01*
D02*
G37*
G36*
X2978072D02*
X2957755D01*
Y4344761D01*
X2962693Y4346084D01*
X2968565Y4349474D01*
X2973358Y4354268D01*
X2976748Y4360139D01*
X2978072Y4365077D01*
D02*
G37*
G36*
X2947755D02*
X2927439D01*
X2928762Y4360139D01*
X2932151Y4354268D01*
X2936945Y4349474D01*
X2942817Y4346084D01*
X2947755Y4344761D01*
Y4365077D01*
D02*
G37*
G36*
X3390300Y4359369D02*
X3378441D01*
X3366985Y4356300D01*
X3356715Y4350370D01*
X3348330Y4341985D01*
X3342400Y4331715D01*
X3339331Y4320260D01*
Y4308400D01*
X3342400Y4296945D01*
X3348330Y4286675D01*
X3356715Y4278290D01*
X3366985Y4272360D01*
X3378441Y4269291D01*
X3390300D01*
X3401755Y4272360D01*
X3412025Y4278290D01*
X3420410Y4286675D01*
X3426340Y4296945D01*
X3429409Y4308400D01*
Y4320260D01*
X3426340Y4331715D01*
X3420410Y4341985D01*
X3412025Y4350370D01*
X3401755Y4356300D01*
X3390300Y4359369D01*
D02*
G37*
G36*
X4316022Y4277284D02*
Y4256967D01*
X4336339D01*
X4335016Y4261906D01*
X4331626Y4267777D01*
X4326832Y4272571D01*
X4320961Y4275961D01*
X4316022Y4277284D01*
D02*
G37*
G36*
X4306022D02*
X4301084Y4275961D01*
X4295213Y4272571D01*
X4290419Y4267777D01*
X4287029Y4261906D01*
X4285706Y4256967D01*
X4306022D01*
Y4277284D01*
D02*
G37*
G36*
X4197912D02*
Y4256967D01*
X4218229D01*
X4216905Y4261906D01*
X4213516Y4267777D01*
X4208722Y4272571D01*
X4202850Y4275961D01*
X4197912Y4277284D01*
D02*
G37*
G36*
X4187912D02*
X4182974Y4275961D01*
X4177102Y4272571D01*
X4172309Y4267777D01*
X4168919Y4261906D01*
X4167596Y4256967D01*
X4187912D01*
Y4277284D01*
D02*
G37*
G36*
X3961692D02*
Y4256967D01*
X3982008D01*
X3980685Y4261906D01*
X3977295Y4267777D01*
X3972501Y4272571D01*
X3966630Y4275961D01*
X3961692Y4277284D01*
D02*
G37*
G36*
X3951692D02*
X3946753Y4275961D01*
X3940882Y4272571D01*
X3936088Y4267777D01*
X3932698Y4261906D01*
X3931375Y4256967D01*
X3951692D01*
Y4277284D01*
D02*
G37*
G36*
X3843581D02*
Y4256967D01*
X3863898D01*
X3862575Y4261906D01*
X3859185Y4267777D01*
X3854391Y4272571D01*
X3848520Y4275961D01*
X3843581Y4277284D01*
D02*
G37*
G36*
X3833581D02*
X3828643Y4275961D01*
X3822772Y4272571D01*
X3817978Y4267777D01*
X3814588Y4261906D01*
X3813265Y4256967D01*
X3833581D01*
Y4277284D01*
D02*
G37*
G36*
X3725471D02*
Y4256967D01*
X3745788D01*
X3744465Y4261906D01*
X3741075Y4267777D01*
X3736281Y4272571D01*
X3730410Y4275961D01*
X3725471Y4277284D01*
D02*
G37*
G36*
X3715471D02*
X3710533Y4275961D01*
X3704662Y4272571D01*
X3699868Y4267777D01*
X3696478Y4261906D01*
X3695155Y4256967D01*
X3715471D01*
Y4277284D01*
D02*
G37*
G36*
X3607361D02*
Y4256967D01*
X3627678D01*
X3626354Y4261906D01*
X3622965Y4267777D01*
X3618171Y4272571D01*
X3612300Y4275961D01*
X3607361Y4277284D01*
D02*
G37*
G36*
X3597361D02*
X3592423Y4275961D01*
X3586551Y4272571D01*
X3581758Y4267777D01*
X3578368Y4261906D01*
X3577045Y4256967D01*
X3597361D01*
Y4277284D01*
D02*
G37*
G36*
X3489251D02*
Y4256967D01*
X3509567D01*
X3508244Y4261906D01*
X3504854Y4267777D01*
X3500061Y4272571D01*
X3494189Y4275961D01*
X3489251Y4277284D01*
D02*
G37*
G36*
X3479251D02*
X3474312Y4275961D01*
X3468441Y4272571D01*
X3463647Y4267777D01*
X3460258Y4261906D01*
X3458934Y4256967D01*
X3479251D01*
Y4277284D01*
D02*
G37*
G36*
X3016810D02*
Y4256967D01*
X3037127D01*
X3035803Y4261906D01*
X3032414Y4267777D01*
X3027620Y4272571D01*
X3021749Y4275961D01*
X3016810Y4277284D01*
D02*
G37*
G36*
X3006810D02*
X3001872Y4275961D01*
X2996000Y4272571D01*
X2991207Y4267777D01*
X2987817Y4261906D01*
X2986494Y4256967D01*
X3006810D01*
Y4277284D01*
D02*
G37*
G36*
X4336339Y4246967D02*
X4316022D01*
Y4226651D01*
X4320961Y4227974D01*
X4326832Y4231364D01*
X4331626Y4236158D01*
X4335016Y4242029D01*
X4336339Y4246967D01*
D02*
G37*
G36*
X4306022D02*
X4285706D01*
X4287029Y4242029D01*
X4290419Y4236158D01*
X4295213Y4231364D01*
X4301084Y4227974D01*
X4306022Y4226651D01*
Y4246967D01*
D02*
G37*
G36*
X4218229D02*
X4197912D01*
Y4226651D01*
X4202850Y4227974D01*
X4208722Y4231364D01*
X4213516Y4236158D01*
X4216905Y4242029D01*
X4218229Y4246967D01*
D02*
G37*
G36*
X4187912D02*
X4167596D01*
X4168919Y4242029D01*
X4172309Y4236158D01*
X4177102Y4231364D01*
X4182974Y4227974D01*
X4187912Y4226651D01*
Y4246967D01*
D02*
G37*
G36*
X3982008D02*
X3961692D01*
Y4226651D01*
X3966630Y4227974D01*
X3972501Y4231364D01*
X3977295Y4236158D01*
X3980685Y4242029D01*
X3982008Y4246967D01*
D02*
G37*
G36*
X3951692D02*
X3931375D01*
X3932698Y4242029D01*
X3936088Y4236158D01*
X3940882Y4231364D01*
X3946753Y4227974D01*
X3951692Y4226651D01*
Y4246967D01*
D02*
G37*
G36*
X3863898D02*
X3843581D01*
Y4226651D01*
X3848520Y4227974D01*
X3854391Y4231364D01*
X3859185Y4236158D01*
X3862575Y4242029D01*
X3863898Y4246967D01*
D02*
G37*
G36*
X3833581D02*
X3813265D01*
X3814588Y4242029D01*
X3817978Y4236158D01*
X3822772Y4231364D01*
X3828643Y4227974D01*
X3833581Y4226651D01*
Y4246967D01*
D02*
G37*
G36*
X3745788D02*
X3725471D01*
Y4226651D01*
X3730410Y4227974D01*
X3736281Y4231364D01*
X3741075Y4236158D01*
X3744465Y4242029D01*
X3745788Y4246967D01*
D02*
G37*
G36*
X3715471D02*
X3695155D01*
X3696478Y4242029D01*
X3699868Y4236158D01*
X3704662Y4231364D01*
X3710533Y4227974D01*
X3715471Y4226651D01*
Y4246967D01*
D02*
G37*
G36*
X3627678D02*
X3607361D01*
Y4226651D01*
X3612300Y4227974D01*
X3618171Y4231364D01*
X3622965Y4236158D01*
X3626354Y4242029D01*
X3627678Y4246967D01*
D02*
G37*
G36*
X3597361D02*
X3577045D01*
X3578368Y4242029D01*
X3581758Y4236158D01*
X3586551Y4231364D01*
X3592423Y4227974D01*
X3597361Y4226651D01*
Y4246967D01*
D02*
G37*
G36*
X3509567D02*
X3489251D01*
Y4226651D01*
X3494189Y4227974D01*
X3500061Y4231364D01*
X3504854Y4236158D01*
X3508244Y4242029D01*
X3509567Y4246967D01*
D02*
G37*
G36*
X3479251D02*
X3458934D01*
X3460258Y4242029D01*
X3463647Y4236158D01*
X3468441Y4231364D01*
X3474312Y4227974D01*
X3479251Y4226651D01*
Y4246967D01*
D02*
G37*
G36*
X3037127D02*
X3016810D01*
Y4226651D01*
X3021749Y4227974D01*
X3027620Y4231364D01*
X3032414Y4236158D01*
X3035803Y4242029D01*
X3037127Y4246967D01*
D02*
G37*
G36*
X3006810D02*
X2986494D01*
X2987817Y4242029D01*
X2991207Y4236158D01*
X2996000Y4231364D01*
X3001872Y4227974D01*
X3006810Y4226651D01*
Y4246967D01*
D02*
G37*
G36*
X3313957Y4335257D02*
X3187067D01*
Y4208367D01*
X3313957D01*
Y4335257D01*
D02*
G37*
G36*
X4256967Y4159173D02*
Y4138857D01*
X4277284D01*
X4275961Y4143795D01*
X4272571Y4149667D01*
X4267777Y4154461D01*
X4261906Y4157850D01*
X4256967Y4159173D01*
D02*
G37*
G36*
X4246967D02*
X4242029Y4157850D01*
X4236158Y4154461D01*
X4231364Y4149667D01*
X4227974Y4143795D01*
X4226651Y4138857D01*
X4246967D01*
Y4159173D01*
D02*
G37*
G36*
X3430196D02*
Y4138857D01*
X3450512D01*
X3449189Y4143795D01*
X3445799Y4149667D01*
X3441006Y4154461D01*
X3435134Y4157850D01*
X3430196Y4159173D01*
D02*
G37*
G36*
X3420196D02*
X3415257Y4157850D01*
X3409386Y4154461D01*
X3404592Y4149667D01*
X3401202Y4143795D01*
X3399879Y4138857D01*
X3420196D01*
Y4159173D01*
D02*
G37*
G36*
X2957755D02*
Y4138857D01*
X2978072D01*
X2976748Y4143795D01*
X2973358Y4149667D01*
X2968565Y4154461D01*
X2962693Y4157850D01*
X2957755Y4159173D01*
D02*
G37*
G36*
X2947755D02*
X2942817Y4157850D01*
X2936945Y4154461D01*
X2932151Y4149667D01*
X2928762Y4143795D01*
X2927439Y4138857D01*
X2947755D01*
Y4159173D01*
D02*
G37*
G36*
X2978072Y4128857D02*
X2957755D01*
Y4108541D01*
X2962693Y4109864D01*
X2968565Y4113253D01*
X2973358Y4118047D01*
X2976748Y4123919D01*
X2978072Y4128857D01*
D02*
G37*
G36*
X2947755D02*
X2927439D01*
X2928762Y4123919D01*
X2932151Y4118047D01*
X2936945Y4113253D01*
X2942817Y4109864D01*
X2947755Y4108541D01*
Y4128857D01*
D02*
G37*
G36*
X4277284D02*
X4256967D01*
Y4108541D01*
X4261906Y4109864D01*
X4267777Y4113253D01*
X4272571Y4118047D01*
X4275961Y4123919D01*
X4277284Y4128857D01*
D02*
G37*
G36*
X4246967D02*
X4226651D01*
X4227974Y4123919D01*
X4231364Y4118047D01*
X4236158Y4113253D01*
X4242029Y4109864D01*
X4246967Y4108541D01*
Y4128857D01*
D02*
G37*
G36*
X3450512D02*
X3430196D01*
Y4108541D01*
X3435134Y4109864D01*
X3441006Y4113253D01*
X3445799Y4118047D01*
X3449189Y4123919D01*
X3450512Y4128857D01*
D02*
G37*
G36*
X3420196D02*
X3399879D01*
X3401202Y4123919D01*
X3404592Y4118047D01*
X3409386Y4113253D01*
X3415257Y4109864D01*
X3420196Y4108541D01*
Y4128857D01*
D02*
G37*
G36*
X3256761Y4179351D02*
X3244263D01*
X3232006Y4176913D01*
X3220460Y4172130D01*
X3210068Y4165187D01*
X3201231Y4156350D01*
X3194288Y4145958D01*
X3189505Y4134412D01*
X3187067Y4122155D01*
Y4109657D01*
X3189505Y4097400D01*
X3194288Y4085854D01*
X3201231Y4075462D01*
X3210068Y4066625D01*
X3220460Y4059682D01*
X3232006Y4054899D01*
X3244263Y4052461D01*
X3256761D01*
X3269018Y4054899D01*
X3280564Y4059682D01*
X3290956Y4066625D01*
X3299793Y4075462D01*
X3306736Y4085854D01*
X3311519Y4097400D01*
X3313957Y4109657D01*
Y4122155D01*
X3311519Y4134412D01*
X3306736Y4145958D01*
X3299793Y4156350D01*
X3290956Y4165187D01*
X3280564Y4172130D01*
X3269018Y4176913D01*
X3256761Y4179351D01*
D02*
G37*
G36*
X4197912Y4041063D02*
Y4020747D01*
X4218229D01*
X4216905Y4025685D01*
X4213516Y4031557D01*
X4208722Y4036350D01*
X4202850Y4039740D01*
X4197912Y4041063D01*
D02*
G37*
G36*
X4187912D02*
X4182974Y4039740D01*
X4177102Y4036350D01*
X4172309Y4031557D01*
X4168919Y4025685D01*
X4167596Y4020747D01*
X4187912D01*
Y4041063D01*
D02*
G37*
G36*
X3961692D02*
Y4020747D01*
X3982008D01*
X3980685Y4025685D01*
X3977295Y4031557D01*
X3972501Y4036350D01*
X3966630Y4039740D01*
X3961692Y4041063D01*
D02*
G37*
G36*
X3951692D02*
X3946753Y4039740D01*
X3940882Y4036350D01*
X3936088Y4031557D01*
X3932698Y4025685D01*
X3931375Y4020747D01*
X3951692D01*
Y4041063D01*
D02*
G37*
G36*
X3843581D02*
Y4020747D01*
X3863898D01*
X3862575Y4025685D01*
X3859185Y4031557D01*
X3854391Y4036350D01*
X3848520Y4039740D01*
X3843581Y4041063D01*
D02*
G37*
G36*
X3833581D02*
X3828643Y4039740D01*
X3822772Y4036350D01*
X3817978Y4031557D01*
X3814588Y4025685D01*
X3813265Y4020747D01*
X3833581D01*
Y4041063D01*
D02*
G37*
G36*
X3725471D02*
Y4020747D01*
X3745788D01*
X3744465Y4025685D01*
X3741075Y4031557D01*
X3736281Y4036350D01*
X3730410Y4039740D01*
X3725471Y4041063D01*
D02*
G37*
G36*
X3715471D02*
X3710533Y4039740D01*
X3704662Y4036350D01*
X3699868Y4031557D01*
X3696478Y4025685D01*
X3695155Y4020747D01*
X3715471D01*
Y4041063D01*
D02*
G37*
G36*
X3607361D02*
Y4020747D01*
X3627678D01*
X3626354Y4025685D01*
X3622965Y4031557D01*
X3618171Y4036350D01*
X3612300Y4039740D01*
X3607361Y4041063D01*
D02*
G37*
G36*
X3597361D02*
X3592423Y4039740D01*
X3586551Y4036350D01*
X3581758Y4031557D01*
X3578368Y4025685D01*
X3577045Y4020747D01*
X3597361D01*
Y4041063D01*
D02*
G37*
G36*
X3371141D02*
Y4020747D01*
X3391457D01*
X3390134Y4025685D01*
X3386744Y4031557D01*
X3381950Y4036350D01*
X3376079Y4039740D01*
X3371141Y4041063D01*
D02*
G37*
G36*
X3016810D02*
Y4020747D01*
X3037127D01*
X3035803Y4025685D01*
X3032414Y4031557D01*
X3027620Y4036350D01*
X3021749Y4039740D01*
X3016810Y4041063D01*
D02*
G37*
G36*
X3006810D02*
X3001872Y4039740D01*
X2996000Y4036350D01*
X2991207Y4031557D01*
X2987817Y4025685D01*
X2986494Y4020747D01*
X3006810D01*
Y4041063D01*
D02*
G37*
G36*
X3353390Y4270748D02*
X3346610D01*
X3340062Y4268993D01*
X3334190Y4265604D01*
X3329396Y4260810D01*
X3326007Y4254938D01*
X3324252Y4248390D01*
Y4241610D01*
X3326007Y4235062D01*
X3329396Y4229190D01*
X3334190Y4224396D01*
X3334706Y4224099D01*
Y4086335D01*
X3314186Y4065814D01*
X3310870Y4060853D01*
X3309706Y4055000D01*
Y3994608D01*
X3304706Y3993091D01*
X3299793Y4000444D01*
X3290956Y4009281D01*
X3280564Y4016224D01*
X3269018Y4021007D01*
X3256761Y4023445D01*
X3244263D01*
X3232006Y4021007D01*
X3220460Y4016224D01*
X3210068Y4009281D01*
X3201231Y4000444D01*
X3194288Y3990052D01*
X3189505Y3978506D01*
X3187067Y3966249D01*
Y3953751D01*
X3189505Y3941494D01*
X3194288Y3929948D01*
X3201231Y3919556D01*
X3210068Y3910719D01*
X3220460Y3903776D01*
X3232006Y3898993D01*
X3244263Y3896555D01*
X3256761D01*
X3269018Y3898993D01*
X3280564Y3903776D01*
X3290956Y3910719D01*
X3299793Y3919556D01*
X3304706Y3926909D01*
X3309706Y3925392D01*
Y3838702D01*
X3304706Y3837185D01*
X3299793Y3844538D01*
X3290956Y3853375D01*
X3280564Y3860318D01*
X3269018Y3865101D01*
X3256761Y3867539D01*
X3244263D01*
X3232006Y3865101D01*
X3220460Y3860318D01*
X3210068Y3853375D01*
X3201231Y3844538D01*
X3194288Y3834146D01*
X3189505Y3822600D01*
X3187067Y3810343D01*
Y3797845D01*
X3189505Y3785588D01*
X3194288Y3774042D01*
X3201231Y3763650D01*
X3210068Y3754813D01*
X3220460Y3747870D01*
X3232006Y3743087D01*
X3244263Y3740649D01*
X3256761D01*
X3269018Y3743087D01*
X3280564Y3747870D01*
X3290956Y3754813D01*
X3299793Y3763650D01*
X3304706Y3771003D01*
X3309706Y3769486D01*
Y3416504D01*
X3304706Y3414987D01*
X3300054Y3421950D01*
X3290888Y3431116D01*
X3280109Y3438318D01*
X3268133Y3443278D01*
X3255419Y3445807D01*
X3242457D01*
X3229743Y3443278D01*
X3217767Y3438318D01*
X3206988Y3431116D01*
X3197822Y3421950D01*
X3190620Y3411171D01*
X3185660Y3399195D01*
X3183131Y3386481D01*
Y3373519D01*
X3185660Y3360805D01*
X3190620Y3348829D01*
X3197822Y3338050D01*
X3206988Y3328884D01*
X3217767Y3321682D01*
X3229743Y3316722D01*
X3242457Y3314193D01*
X3255419D01*
X3268133Y3316722D01*
X3280109Y3321682D01*
X3290888Y3328884D01*
X3300054Y3338050D01*
X3304706Y3345013D01*
X3309706Y3343496D01*
Y3260598D01*
X3304706Y3259081D01*
X3300054Y3266044D01*
X3290888Y3275210D01*
X3280109Y3282412D01*
X3268133Y3287372D01*
X3255419Y3289901D01*
X3242457D01*
X3229743Y3287372D01*
X3217767Y3282412D01*
X3206988Y3275210D01*
X3197822Y3266044D01*
X3190620Y3255265D01*
X3185660Y3243289D01*
X3183131Y3230575D01*
Y3217613D01*
X3185660Y3204899D01*
X3190620Y3192923D01*
X3197822Y3182144D01*
X3206988Y3172978D01*
X3217767Y3165776D01*
X3229743Y3160816D01*
X3242457Y3158287D01*
X3255419D01*
X3268133Y3160816D01*
X3280109Y3165776D01*
X3290888Y3172978D01*
X3300054Y3182144D01*
X3304706Y3189107D01*
X3309706Y3187590D01*
Y2707514D01*
X3304706Y2705997D01*
X3300054Y2712960D01*
X3290888Y2722126D01*
X3280109Y2729327D01*
X3268133Y2734288D01*
X3255419Y2736817D01*
X3242457D01*
X3229743Y2734288D01*
X3217767Y2729327D01*
X3206988Y2722126D01*
X3197822Y2712960D01*
X3190620Y2702181D01*
X3185660Y2690205D01*
X3183131Y2677491D01*
Y2664529D01*
X3185660Y2651815D01*
X3190620Y2639839D01*
X3197822Y2629060D01*
X3206988Y2619894D01*
X3217767Y2612693D01*
X3229743Y2607732D01*
X3242457Y2605203D01*
X3255419D01*
X3268133Y2607732D01*
X3280109Y2612693D01*
X3290888Y2619894D01*
X3300054Y2629060D01*
X3304706Y2636023D01*
X3309706Y2634506D01*
Y2551608D01*
X3304706Y2550091D01*
X3300054Y2557054D01*
X3290888Y2566220D01*
X3280109Y2573421D01*
X3268133Y2578382D01*
X3255419Y2580911D01*
X3242457D01*
X3229743Y2578382D01*
X3217767Y2573421D01*
X3206988Y2566220D01*
X3197822Y2557054D01*
X3190620Y2546275D01*
X3185660Y2534299D01*
X3183131Y2521585D01*
Y2508623D01*
X3185660Y2495909D01*
X3190620Y2483933D01*
X3197822Y2473154D01*
X3206988Y2463988D01*
X3217767Y2456787D01*
X3229743Y2451826D01*
X3242457Y2449297D01*
X3255419D01*
X3268133Y2451826D01*
X3280109Y2456787D01*
X3290888Y2463988D01*
X3300054Y2473154D01*
X3304706Y2480117D01*
X3309706Y2478600D01*
Y2385000D01*
X3310870Y2379147D01*
X3314186Y2374186D01*
X3404186Y2284186D01*
X3409147Y2280870D01*
X3415000Y2279706D01*
X3434099D01*
X3434396Y2279190D01*
X3439190Y2274396D01*
X3445062Y2271007D01*
X3451610Y2269252D01*
X3458390D01*
X3464938Y2271007D01*
X3470810Y2274396D01*
X3475604Y2279190D01*
X3478993Y2285062D01*
X3480748Y2291610D01*
Y2298390D01*
X3478993Y2304938D01*
X3475604Y2310810D01*
X3470810Y2315604D01*
X3464938Y2318993D01*
X3458390Y2320748D01*
X3451610D01*
X3445062Y2318993D01*
X3439190Y2315604D01*
X3434396Y2310810D01*
X3434099Y2310294D01*
X3421335D01*
X3340294Y2391335D01*
Y2684258D01*
X3345124Y2685552D01*
X3345495Y2684908D01*
X3354174Y2676229D01*
X3364804Y2670093D01*
X3376659Y2666916D01*
X3388933D01*
X3400788Y2670093D01*
X3411418Y2676229D01*
X3420097Y2684908D01*
X3426233Y2695538D01*
X3429410Y2707393D01*
Y2719667D01*
X3426233Y2731522D01*
X3420097Y2742152D01*
X3411418Y2750831D01*
X3400788Y2756967D01*
X3388933Y2760144D01*
X3376659D01*
X3364804Y2756967D01*
X3354174Y2750831D01*
X3345495Y2742152D01*
X3345124Y2741508D01*
X3340294Y2742802D01*
Y2817917D01*
X3345294Y2819256D01*
X3345537Y2818835D01*
X3350331Y2814041D01*
X3356202Y2810651D01*
X3361141Y2809328D01*
Y2834645D01*
Y2859961D01*
X3356202Y2858638D01*
X3350331Y2855248D01*
X3345537Y2850454D01*
X3345294Y2850033D01*
X3340294Y2851373D01*
Y3393248D01*
X3345124Y3394543D01*
X3345495Y3393898D01*
X3354174Y3385220D01*
X3364804Y3379083D01*
X3376659Y3375906D01*
X3388933D01*
X3400788Y3379083D01*
X3411418Y3385220D01*
X3420097Y3393898D01*
X3426233Y3404528D01*
X3429410Y3416383D01*
Y3428657D01*
X3426233Y3440512D01*
X3420097Y3451142D01*
X3411418Y3459820D01*
X3400788Y3465957D01*
X3388933Y3469134D01*
X3376659D01*
X3364804Y3465957D01*
X3354174Y3459820D01*
X3345495Y3451142D01*
X3345124Y3450497D01*
X3340294Y3451792D01*
Y3526578D01*
X3345294Y3527918D01*
X3345537Y3527496D01*
X3350331Y3522702D01*
X3356202Y3519313D01*
X3361141Y3517990D01*
Y3543306D01*
Y3568622D01*
X3356202Y3567299D01*
X3350331Y3563910D01*
X3345537Y3559116D01*
X3345294Y3558694D01*
X3340294Y3560034D01*
Y3762798D01*
X3345294Y3764138D01*
X3345537Y3763717D01*
X3350331Y3758923D01*
X3356202Y3755533D01*
X3361141Y3754210D01*
Y3779526D01*
Y3804843D01*
X3356202Y3803520D01*
X3350331Y3800130D01*
X3345537Y3795336D01*
X3345294Y3794915D01*
X3340294Y3796255D01*
Y3999019D01*
X3345294Y4000358D01*
X3345537Y3999937D01*
X3350331Y3995143D01*
X3356202Y3991753D01*
X3361141Y3990430D01*
Y4015747D01*
Y4041063D01*
X3356202Y4039740D01*
X3350331Y4036350D01*
X3345537Y4031557D01*
X3345294Y4031135D01*
X3340294Y4032475D01*
Y4048665D01*
X3360814Y4069186D01*
X3364130Y4074147D01*
X3365294Y4080000D01*
Y4224099D01*
X3365810Y4224396D01*
X3370604Y4229190D01*
X3373993Y4235062D01*
X3375748Y4241610D01*
Y4248390D01*
X3373993Y4254938D01*
X3370604Y4260810D01*
X3365810Y4265604D01*
X3359938Y4268993D01*
X3353390Y4270748D01*
D02*
G37*
G36*
X4218229Y4010747D02*
X4197912D01*
Y3990430D01*
X4202850Y3991753D01*
X4208722Y3995143D01*
X4213516Y3999937D01*
X4216905Y4005808D01*
X4218229Y4010747D01*
D02*
G37*
G36*
X4187912D02*
X4167596D01*
X4168919Y4005808D01*
X4172309Y3999937D01*
X4177102Y3995143D01*
X4182974Y3991753D01*
X4187912Y3990430D01*
Y4010747D01*
D02*
G37*
G36*
X3982008D02*
X3961692D01*
Y3990430D01*
X3966630Y3991753D01*
X3972501Y3995143D01*
X3977295Y3999937D01*
X3980685Y4005808D01*
X3982008Y4010747D01*
D02*
G37*
G36*
X3951692D02*
X3931375D01*
X3932698Y4005808D01*
X3936088Y3999937D01*
X3940882Y3995143D01*
X3946753Y3991753D01*
X3951692Y3990430D01*
Y4010747D01*
D02*
G37*
G36*
X3863898D02*
X3843581D01*
Y3990430D01*
X3848520Y3991753D01*
X3854391Y3995143D01*
X3859185Y3999937D01*
X3862575Y4005808D01*
X3863898Y4010747D01*
D02*
G37*
G36*
X3833581D02*
X3813265D01*
X3814588Y4005808D01*
X3817978Y3999937D01*
X3822772Y3995143D01*
X3828643Y3991753D01*
X3833581Y3990430D01*
Y4010747D01*
D02*
G37*
G36*
X3745788D02*
X3725471D01*
Y3990430D01*
X3730410Y3991753D01*
X3736281Y3995143D01*
X3741075Y3999937D01*
X3744465Y4005808D01*
X3745788Y4010747D01*
D02*
G37*
G36*
X3715471D02*
X3695155D01*
X3696478Y4005808D01*
X3699868Y3999937D01*
X3704662Y3995143D01*
X3710533Y3991753D01*
X3715471Y3990430D01*
Y4010747D01*
D02*
G37*
G36*
X3627678D02*
X3607361D01*
Y3990430D01*
X3612300Y3991753D01*
X3618171Y3995143D01*
X3622965Y3999937D01*
X3626354Y4005808D01*
X3627678Y4010747D01*
D02*
G37*
G36*
X3597361D02*
X3577045D01*
X3578368Y4005808D01*
X3581758Y3999937D01*
X3586551Y3995143D01*
X3592423Y3991753D01*
X3597361Y3990430D01*
Y4010747D01*
D02*
G37*
G36*
X3391457D02*
X3371141D01*
Y3990430D01*
X3376079Y3991753D01*
X3381950Y3995143D01*
X3386744Y3999937D01*
X3390134Y4005808D01*
X3391457Y4010747D01*
D02*
G37*
G36*
X3037127D02*
X3016810D01*
Y3990430D01*
X3021749Y3991753D01*
X3027620Y3995143D01*
X3032414Y3999937D01*
X3035803Y4005808D01*
X3037127Y4010747D01*
D02*
G37*
G36*
X3006810D02*
X2986494D01*
X2987817Y4005808D01*
X2991207Y3999937D01*
X2996000Y3995143D01*
X3001872Y3991753D01*
X3006810Y3990430D01*
Y4010747D01*
D02*
G37*
G36*
X2957755Y3922953D02*
Y3902637D01*
X2978072D01*
X2976748Y3907575D01*
X2973358Y3913446D01*
X2968565Y3918240D01*
X2962693Y3921630D01*
X2957755Y3922953D01*
D02*
G37*
G36*
X2947755D02*
X2942817Y3921630D01*
X2936945Y3918240D01*
X2932151Y3913446D01*
X2928762Y3907575D01*
X2927439Y3902637D01*
X2947755D01*
Y3922953D01*
D02*
G37*
G36*
X2978072Y3892637D02*
X2957755D01*
Y3872320D01*
X2962693Y3873643D01*
X2968565Y3877033D01*
X2973358Y3881827D01*
X2976748Y3887698D01*
X2978072Y3892637D01*
D02*
G37*
G36*
X2947755D02*
X2927439D01*
X2928762Y3887698D01*
X2932151Y3881827D01*
X2936945Y3877033D01*
X2942817Y3873643D01*
X2947755Y3872320D01*
Y3892637D01*
D02*
G37*
G36*
X3961692Y3804843D02*
Y3784526D01*
X3982008D01*
X3980685Y3789465D01*
X3977295Y3795336D01*
X3972501Y3800130D01*
X3966630Y3803520D01*
X3961692Y3804843D01*
D02*
G37*
G36*
X3951692D02*
X3946753Y3803520D01*
X3940882Y3800130D01*
X3936088Y3795336D01*
X3932698Y3789465D01*
X3931375Y3784526D01*
X3951692D01*
Y3804843D01*
D02*
G37*
G36*
X3843581D02*
Y3784526D01*
X3863898D01*
X3862575Y3789465D01*
X3859185Y3795336D01*
X3854391Y3800130D01*
X3848520Y3803520D01*
X3843581Y3804843D01*
D02*
G37*
G36*
X3833581D02*
X3828643Y3803520D01*
X3822772Y3800130D01*
X3817978Y3795336D01*
X3814588Y3789465D01*
X3813265Y3784526D01*
X3833581D01*
Y3804843D01*
D02*
G37*
G36*
X3725471D02*
Y3784526D01*
X3745788D01*
X3744465Y3789465D01*
X3741075Y3795336D01*
X3736281Y3800130D01*
X3730410Y3803520D01*
X3725471Y3804843D01*
D02*
G37*
G36*
X3715471D02*
X3710533Y3803520D01*
X3704662Y3800130D01*
X3699868Y3795336D01*
X3696478Y3789465D01*
X3695155Y3784526D01*
X3715471D01*
Y3804843D01*
D02*
G37*
G36*
X3371141D02*
Y3784526D01*
X3391457D01*
X3390134Y3789465D01*
X3386744Y3795336D01*
X3381950Y3800130D01*
X3376079Y3803520D01*
X3371141Y3804843D01*
D02*
G37*
G36*
X3134920D02*
Y3784526D01*
X3155237D01*
X3153914Y3789465D01*
X3150524Y3795336D01*
X3145730Y3800130D01*
X3139859Y3803520D01*
X3134920Y3804843D01*
D02*
G37*
G36*
X3124920D02*
X3119982Y3803520D01*
X3114111Y3800130D01*
X3109317Y3795336D01*
X3105927Y3789465D01*
X3104604Y3784526D01*
X3124920D01*
Y3804843D01*
D02*
G37*
G36*
X3016810D02*
Y3784526D01*
X3037127D01*
X3035803Y3789465D01*
X3032414Y3795336D01*
X3027620Y3800130D01*
X3021749Y3803520D01*
X3016810Y3804843D01*
D02*
G37*
G36*
X3006810D02*
X3001872Y3803520D01*
X2996000Y3800130D01*
X2991207Y3795336D01*
X2987817Y3789465D01*
X2986494Y3784526D01*
X3006810D01*
Y3804843D01*
D02*
G37*
G36*
X3155237Y3774526D02*
X3134920D01*
Y3754210D01*
X3139859Y3755533D01*
X3145730Y3758923D01*
X3150524Y3763717D01*
X3153914Y3769588D01*
X3155237Y3774526D01*
D02*
G37*
G36*
X3124920D02*
X3104604D01*
X3105927Y3769588D01*
X3109317Y3763717D01*
X3114111Y3758923D01*
X3119982Y3755533D01*
X3124920Y3754210D01*
Y3774526D01*
D02*
G37*
G36*
X3037127D02*
X3016810D01*
Y3754210D01*
X3021749Y3755533D01*
X3027620Y3758923D01*
X3032414Y3763717D01*
X3035803Y3769588D01*
X3037127Y3774526D01*
D02*
G37*
G36*
X3006810D02*
X2986494D01*
X2987817Y3769588D01*
X2991207Y3763717D01*
X2996000Y3758923D01*
X3001872Y3755533D01*
X3006810Y3754210D01*
Y3774526D01*
D02*
G37*
G36*
X3982008D02*
X3961692D01*
Y3754210D01*
X3966630Y3755533D01*
X3972501Y3758923D01*
X3977295Y3763717D01*
X3980685Y3769588D01*
X3982008Y3774526D01*
D02*
G37*
G36*
X3951692D02*
X3931375D01*
X3932698Y3769588D01*
X3936088Y3763717D01*
X3940882Y3758923D01*
X3946753Y3755533D01*
X3951692Y3754210D01*
Y3774526D01*
D02*
G37*
G36*
X3863898D02*
X3843581D01*
Y3754210D01*
X3848520Y3755533D01*
X3854391Y3758923D01*
X3859185Y3763717D01*
X3862575Y3769588D01*
X3863898Y3774526D01*
D02*
G37*
G36*
X3833581D02*
X3813265D01*
X3814588Y3769588D01*
X3817978Y3763717D01*
X3822772Y3758923D01*
X3828643Y3755533D01*
X3833581Y3754210D01*
Y3774526D01*
D02*
G37*
G36*
X3745788D02*
X3725471D01*
Y3754210D01*
X3730410Y3755533D01*
X3736281Y3758923D01*
X3741075Y3763717D01*
X3744465Y3769588D01*
X3745788Y3774526D01*
D02*
G37*
G36*
X3715471D02*
X3695155D01*
X3696478Y3769588D01*
X3699868Y3763717D01*
X3704662Y3758923D01*
X3710533Y3755533D01*
X3715471Y3754210D01*
Y3774526D01*
D02*
G37*
G36*
X3391457D02*
X3371141D01*
Y3754210D01*
X3376079Y3755533D01*
X3381950Y3758923D01*
X3386744Y3763717D01*
X3390134Y3769588D01*
X3391457Y3774526D01*
D02*
G37*
G36*
X3902637Y3686733D02*
Y3666416D01*
X3922953D01*
X3921630Y3671355D01*
X3918240Y3677226D01*
X3913446Y3682020D01*
X3907575Y3685410D01*
X3902637Y3686733D01*
D02*
G37*
G36*
X3892637D02*
X3887698Y3685410D01*
X3881827Y3682020D01*
X3877033Y3677226D01*
X3873643Y3671355D01*
X3872320Y3666416D01*
X3892637D01*
Y3686733D01*
D02*
G37*
G36*
X3784526D02*
Y3666416D01*
X3804843D01*
X3803520Y3671355D01*
X3800130Y3677226D01*
X3795336Y3682020D01*
X3789465Y3685410D01*
X3784526Y3686733D01*
D02*
G37*
G36*
X3774526D02*
X3769588Y3685410D01*
X3763717Y3682020D01*
X3758923Y3677226D01*
X3755533Y3671355D01*
X3754210Y3666416D01*
X3774526D01*
Y3686733D01*
D02*
G37*
G36*
X3666416D02*
Y3666416D01*
X3686733D01*
X3685410Y3671355D01*
X3682020Y3677226D01*
X3677226Y3682020D01*
X3671355Y3685410D01*
X3666416Y3686733D01*
D02*
G37*
G36*
X3656416D02*
X3651478Y3685410D01*
X3645606Y3682020D01*
X3640813Y3677226D01*
X3637423Y3671355D01*
X3636100Y3666416D01*
X3656416D01*
Y3686733D01*
D02*
G37*
G36*
X3548306D02*
Y3666416D01*
X3568622D01*
X3567299Y3671355D01*
X3563910Y3677226D01*
X3559116Y3682020D01*
X3553244Y3685410D01*
X3548306Y3686733D01*
D02*
G37*
G36*
X3538306D02*
X3533368Y3685410D01*
X3527496Y3682020D01*
X3522702Y3677226D01*
X3519313Y3671355D01*
X3517990Y3666416D01*
X3538306D01*
Y3686733D01*
D02*
G37*
G36*
X2957755D02*
Y3666416D01*
X2978072D01*
X2976748Y3671355D01*
X2973358Y3677226D01*
X2968565Y3682020D01*
X2962693Y3685410D01*
X2957755Y3686733D01*
D02*
G37*
G36*
X2947755D02*
X2942817Y3685410D01*
X2936945Y3682020D01*
X2932151Y3677226D01*
X2928762Y3671355D01*
X2927439Y3666416D01*
X2947755D01*
Y3686733D01*
D02*
G37*
G36*
X3922953Y3656416D02*
X3902637D01*
Y3636100D01*
X3907575Y3637423D01*
X3913446Y3640813D01*
X3918240Y3645606D01*
X3921630Y3651478D01*
X3922953Y3656416D01*
D02*
G37*
G36*
X3892637D02*
X3872320D01*
X3873643Y3651478D01*
X3877033Y3645606D01*
X3881827Y3640813D01*
X3887698Y3637423D01*
X3892637Y3636100D01*
Y3656416D01*
D02*
G37*
G36*
X3804843D02*
X3784526D01*
Y3636100D01*
X3789465Y3637423D01*
X3795336Y3640813D01*
X3800130Y3645606D01*
X3803520Y3651478D01*
X3804843Y3656416D01*
D02*
G37*
G36*
X3774526D02*
X3754210D01*
X3755533Y3651478D01*
X3758923Y3645606D01*
X3763717Y3640813D01*
X3769588Y3637423D01*
X3774526Y3636100D01*
Y3656416D01*
D02*
G37*
G36*
X3686733D02*
X3666416D01*
Y3636100D01*
X3671355Y3637423D01*
X3677226Y3640813D01*
X3682020Y3645606D01*
X3685410Y3651478D01*
X3686733Y3656416D01*
D02*
G37*
G36*
X3656416D02*
X3636100D01*
X3637423Y3651478D01*
X3640813Y3645606D01*
X3645606Y3640813D01*
X3651478Y3637423D01*
X3656416Y3636100D01*
Y3656416D01*
D02*
G37*
G36*
X3568622D02*
X3548306D01*
Y3636100D01*
X3553244Y3637423D01*
X3559116Y3640813D01*
X3563910Y3645606D01*
X3567299Y3651478D01*
X3568622Y3656416D01*
D02*
G37*
G36*
X3538306D02*
X3517990D01*
X3519313Y3651478D01*
X3522702Y3645606D01*
X3527496Y3640813D01*
X3533368Y3637423D01*
X3538306Y3636100D01*
Y3656416D01*
D02*
G37*
G36*
X2978072D02*
X2957755D01*
Y3636100D01*
X2962693Y3637423D01*
X2968565Y3640813D01*
X2973358Y3645606D01*
X2976748Y3651478D01*
X2978072Y3656416D01*
D02*
G37*
G36*
X2947755D02*
X2927439D01*
X2928762Y3651478D01*
X2932151Y3645606D01*
X2936945Y3640813D01*
X2942817Y3637423D01*
X2947755Y3636100D01*
Y3656416D01*
D02*
G37*
G36*
X3725471Y3568622D02*
Y3548306D01*
X3745788D01*
X3744465Y3553244D01*
X3741075Y3559116D01*
X3736281Y3563910D01*
X3730410Y3567299D01*
X3725471Y3568622D01*
D02*
G37*
G36*
X3715471D02*
X3710533Y3567299D01*
X3704662Y3563910D01*
X3699868Y3559116D01*
X3696478Y3553244D01*
X3695155Y3548306D01*
X3715471D01*
Y3568622D01*
D02*
G37*
G36*
X3371141D02*
Y3548306D01*
X3391457D01*
X3390134Y3553244D01*
X3386744Y3559116D01*
X3381950Y3563910D01*
X3376079Y3567299D01*
X3371141Y3568622D01*
D02*
G37*
G36*
X3253030D02*
Y3548306D01*
X3273347D01*
X3272024Y3553244D01*
X3268634Y3559116D01*
X3263840Y3563910D01*
X3257969Y3567299D01*
X3253030Y3568622D01*
D02*
G37*
G36*
X3243030D02*
X3238092Y3567299D01*
X3232221Y3563910D01*
X3227427Y3559116D01*
X3224037Y3553244D01*
X3222714Y3548306D01*
X3243030D01*
Y3568622D01*
D02*
G37*
G36*
X3016810D02*
Y3548306D01*
X3037127D01*
X3035803Y3553244D01*
X3032414Y3559116D01*
X3027620Y3563910D01*
X3021749Y3567299D01*
X3016810Y3568622D01*
D02*
G37*
G36*
X3006810D02*
X3001872Y3567299D01*
X2996000Y3563910D01*
X2991207Y3559116D01*
X2987817Y3553244D01*
X2986494Y3548306D01*
X3006810D01*
Y3568622D01*
D02*
G37*
G36*
X3745788Y3538306D02*
X3725471D01*
Y3517990D01*
X3730410Y3519313D01*
X3736281Y3522702D01*
X3741075Y3527496D01*
X3744465Y3533368D01*
X3745788Y3538306D01*
D02*
G37*
G36*
X3715471D02*
X3695155D01*
X3696478Y3533368D01*
X3699868Y3527496D01*
X3704662Y3522702D01*
X3710533Y3519313D01*
X3715471Y3517990D01*
Y3538306D01*
D02*
G37*
G36*
X3391457D02*
X3371141D01*
Y3517990D01*
X3376079Y3519313D01*
X3381950Y3522702D01*
X3386744Y3527496D01*
X3390134Y3533368D01*
X3391457Y3538306D01*
D02*
G37*
G36*
X3273347D02*
X3253030D01*
Y3517990D01*
X3257969Y3519313D01*
X3263840Y3522702D01*
X3268634Y3527496D01*
X3272024Y3533368D01*
X3273347Y3538306D01*
D02*
G37*
G36*
X3243030D02*
X3222714D01*
X3224037Y3533368D01*
X3227427Y3527496D01*
X3232221Y3522702D01*
X3238092Y3519313D01*
X3243030Y3517990D01*
Y3538306D01*
D02*
G37*
G36*
X3037127D02*
X3016810D01*
Y3517990D01*
X3021749Y3519313D01*
X3027620Y3522702D01*
X3032414Y3527496D01*
X3035803Y3533368D01*
X3037127Y3538306D01*
D02*
G37*
G36*
X3006810D02*
X2986494D01*
X2987817Y3533368D01*
X2991207Y3527496D01*
X2996000Y3522702D01*
X3001872Y3519313D01*
X3006810Y3517990D01*
Y3538306D01*
D02*
G37*
G36*
X2957755Y3450512D02*
Y3430196D01*
X2978072D01*
X2976748Y3435134D01*
X2973358Y3441006D01*
X2968565Y3445799D01*
X2962693Y3449189D01*
X2957755Y3450512D01*
D02*
G37*
G36*
X2947755D02*
X2942817Y3449189D01*
X2936945Y3445799D01*
X2932151Y3441006D01*
X2928762Y3435134D01*
X2927439Y3430196D01*
X2947755D01*
Y3450512D01*
D02*
G37*
G36*
X2978072Y3420196D02*
X2957755D01*
Y3399879D01*
X2962693Y3401202D01*
X2968565Y3404592D01*
X2973358Y3409386D01*
X2976748Y3415257D01*
X2978072Y3420196D01*
D02*
G37*
G36*
X2947755D02*
X2927439D01*
X2928762Y3415257D01*
X2932151Y3409386D01*
X2936945Y3404592D01*
X2942817Y3401202D01*
X2947755Y3399879D01*
Y3420196D01*
D02*
G37*
G36*
X3715471Y3332402D02*
X3710533Y3331079D01*
X3704662Y3327689D01*
X3699868Y3322895D01*
X3696478Y3317024D01*
X3695155Y3312086D01*
X3715471D01*
Y3332402D01*
D02*
G37*
G36*
X3016810D02*
Y3312086D01*
X3037127D01*
X3035803Y3317024D01*
X3032414Y3322895D01*
X3027620Y3327689D01*
X3021749Y3331079D01*
X3016810Y3332402D01*
D02*
G37*
G36*
X3006810D02*
X3001872Y3331079D01*
X2996000Y3327689D01*
X2991207Y3322895D01*
X2987817Y3317024D01*
X2986494Y3312086D01*
X3006810D01*
Y3332402D01*
D02*
G37*
G36*
X3715471Y3302086D02*
X3695155D01*
X3696478Y3297147D01*
X3699868Y3291276D01*
X3704662Y3286482D01*
X3710533Y3283092D01*
X3715471Y3281769D01*
Y3302086D01*
D02*
G37*
G36*
X3037127D02*
X3016810D01*
Y3281769D01*
X3021749Y3283092D01*
X3027620Y3286482D01*
X3032414Y3291276D01*
X3035803Y3297147D01*
X3037127Y3302086D01*
D02*
G37*
G36*
X3006810D02*
X2986494D01*
X2987817Y3297147D01*
X2991207Y3291276D01*
X2996000Y3286482D01*
X3001872Y3283092D01*
X3006810Y3281769D01*
Y3302086D01*
D02*
G37*
G36*
X3666416Y3214292D02*
Y3193975D01*
X3686733D01*
X3685410Y3198914D01*
X3682020Y3204785D01*
X3677226Y3209579D01*
X3671355Y3212969D01*
X3666416Y3214292D01*
D02*
G37*
G36*
X3656416D02*
X3651478Y3212969D01*
X3645606Y3209579D01*
X3640813Y3204785D01*
X3637423Y3198914D01*
X3636100Y3193975D01*
X3656416D01*
Y3214292D01*
D02*
G37*
G36*
X3548306D02*
Y3193975D01*
X3568622D01*
X3567299Y3198914D01*
X3563910Y3204785D01*
X3559116Y3209579D01*
X3553244Y3212969D01*
X3548306Y3214292D01*
D02*
G37*
G36*
X3538306D02*
X3533368Y3212969D01*
X3527496Y3209579D01*
X3522702Y3204785D01*
X3519313Y3198914D01*
X3517990Y3193975D01*
X3538306D01*
Y3214292D01*
D02*
G37*
G36*
X2957755D02*
Y3193975D01*
X2978072D01*
X2976748Y3198914D01*
X2973358Y3204785D01*
X2968565Y3209579D01*
X2962693Y3212969D01*
X2957755Y3214292D01*
D02*
G37*
G36*
X2947755D02*
X2942817Y3212969D01*
X2936945Y3209579D01*
X2932151Y3204785D01*
X2928762Y3198914D01*
X2927439Y3193975D01*
X2947755D01*
Y3214292D01*
D02*
G37*
G36*
X3686733Y3183975D02*
X3666416D01*
Y3163659D01*
X3671355Y3164982D01*
X3677226Y3168372D01*
X3682020Y3173166D01*
X3685410Y3179037D01*
X3686733Y3183975D01*
D02*
G37*
G36*
X3656416D02*
X3636100D01*
X3637423Y3179037D01*
X3640813Y3173166D01*
X3645606Y3168372D01*
X3651478Y3164982D01*
X3656416Y3163659D01*
Y3183975D01*
D02*
G37*
G36*
X3568622D02*
X3548306D01*
Y3163659D01*
X3553244Y3164982D01*
X3559116Y3168372D01*
X3563910Y3173166D01*
X3567299Y3179037D01*
X3568622Y3183975D01*
D02*
G37*
G36*
X3538306D02*
X3517990D01*
X3519313Y3179037D01*
X3522702Y3173166D01*
X3527496Y3168372D01*
X3533368Y3164982D01*
X3538306Y3163659D01*
Y3183975D01*
D02*
G37*
G36*
X2978072D02*
X2957755D01*
Y3163659D01*
X2962693Y3164982D01*
X2968565Y3168372D01*
X2973358Y3173166D01*
X2976748Y3179037D01*
X2978072Y3183975D01*
D02*
G37*
G36*
X2947755D02*
X2927439D01*
X2928762Y3179037D01*
X2932151Y3173166D01*
X2936945Y3168372D01*
X2942817Y3164982D01*
X2947755Y3163659D01*
Y3183975D01*
D02*
G37*
G36*
X3715471Y3096182D02*
X3710533Y3094858D01*
X3704662Y3091469D01*
X3699868Y3086675D01*
X3696478Y3080804D01*
X3695155Y3075865D01*
X3715471D01*
Y3096182D01*
D02*
G37*
G36*
X3253030D02*
Y3075865D01*
X3273347D01*
X3272024Y3080804D01*
X3268634Y3086675D01*
X3263840Y3091469D01*
X3257969Y3094858D01*
X3253030Y3096182D01*
D02*
G37*
G36*
X3243030D02*
X3238092Y3094858D01*
X3232221Y3091469D01*
X3227427Y3086675D01*
X3224037Y3080804D01*
X3222714Y3075865D01*
X3243030D01*
Y3096182D01*
D02*
G37*
G36*
X3016810D02*
Y3075865D01*
X3037127D01*
X3035803Y3080804D01*
X3032414Y3086675D01*
X3027620Y3091469D01*
X3021749Y3094858D01*
X3016810Y3096182D01*
D02*
G37*
G36*
X3006810D02*
X3001872Y3094858D01*
X2996000Y3091469D01*
X2991207Y3086675D01*
X2987817Y3080804D01*
X2986494Y3075865D01*
X3006810D01*
Y3096182D01*
D02*
G37*
G36*
X3715471Y3065865D02*
X3695155D01*
X3696478Y3060927D01*
X3699868Y3055055D01*
X3704662Y3050262D01*
X3710533Y3046872D01*
X3715471Y3045549D01*
Y3065865D01*
D02*
G37*
G36*
X3273347D02*
X3253030D01*
Y3045549D01*
X3257969Y3046872D01*
X3263840Y3050262D01*
X3268634Y3055055D01*
X3272024Y3060927D01*
X3273347Y3065865D01*
D02*
G37*
G36*
X3243030D02*
X3222714D01*
X3224037Y3060927D01*
X3227427Y3055055D01*
X3232221Y3050262D01*
X3238092Y3046872D01*
X3243030Y3045549D01*
Y3065865D01*
D02*
G37*
G36*
X3037127D02*
X3016810D01*
Y3045549D01*
X3021749Y3046872D01*
X3027620Y3050262D01*
X3032414Y3055055D01*
X3035803Y3060927D01*
X3037127Y3065865D01*
D02*
G37*
G36*
X3006810D02*
X2986494D01*
X2987817Y3060927D01*
X2991207Y3055055D01*
X2996000Y3050262D01*
X3001872Y3046872D01*
X3006810Y3045549D01*
Y3065865D01*
D02*
G37*
G36*
X3428390Y4035748D02*
X3421610D01*
X3415062Y4033993D01*
X3409190Y4030604D01*
X3404396Y4025810D01*
X3401007Y4019938D01*
X3399252Y4013390D01*
Y4006610D01*
X3401007Y4000062D01*
X3404396Y3994190D01*
X3409190Y3989396D01*
X3415062Y3986007D01*
X3421610Y3984252D01*
X3428390D01*
X3428965Y3984406D01*
X3439706Y3973665D01*
Y3045901D01*
X3439190Y3045604D01*
X3434396Y3040810D01*
X3431007Y3034938D01*
X3429252Y3028390D01*
Y3021610D01*
X3431007Y3015062D01*
X3434396Y3009190D01*
X3439190Y3004396D01*
X3445062Y3001007D01*
X3451610Y2999252D01*
X3458390D01*
X3464938Y3001007D01*
X3470810Y3004396D01*
X3475604Y3009190D01*
X3478993Y3015062D01*
X3480748Y3021610D01*
Y3028390D01*
X3478993Y3034938D01*
X3475604Y3040810D01*
X3470810Y3045604D01*
X3470294Y3045901D01*
Y3980000D01*
X3469130Y3985853D01*
X3465814Y3990814D01*
X3450594Y4006035D01*
X3450748Y4006610D01*
Y4013390D01*
X3448993Y4019938D01*
X3445604Y4025810D01*
X3440810Y4030604D01*
X3434938Y4033993D01*
X3428390Y4035748D01*
D02*
G37*
G36*
X3666416Y2978072D02*
Y2957755D01*
X3686733D01*
X3685410Y2962693D01*
X3682020Y2968565D01*
X3677226Y2973358D01*
X3671355Y2976748D01*
X3666416Y2978072D01*
D02*
G37*
G36*
X3656416D02*
X3651478Y2976748D01*
X3645606Y2973358D01*
X3640813Y2968565D01*
X3637423Y2962693D01*
X3636100Y2957755D01*
X3656416D01*
Y2978072D01*
D02*
G37*
G36*
X3430196D02*
Y2957755D01*
X3450512D01*
X3449189Y2962693D01*
X3445799Y2968565D01*
X3441006Y2973358D01*
X3435134Y2976748D01*
X3430196Y2978072D01*
D02*
G37*
G36*
X3420196D02*
X3415257Y2976748D01*
X3409386Y2973358D01*
X3404592Y2968565D01*
X3401202Y2962693D01*
X3399879Y2957755D01*
X3420196D01*
Y2978072D01*
D02*
G37*
G36*
X3193975D02*
Y2957755D01*
X3214292D01*
X3212969Y2962693D01*
X3209579Y2968565D01*
X3204785Y2973358D01*
X3198914Y2976748D01*
X3193975Y2978072D01*
D02*
G37*
G36*
X3183975D02*
X3179037Y2976748D01*
X3173166Y2973358D01*
X3168372Y2968565D01*
X3164982Y2962693D01*
X3163659Y2957755D01*
X3183975D01*
Y2978072D01*
D02*
G37*
G36*
X2957755D02*
Y2957755D01*
X2978072D01*
X2976748Y2962693D01*
X2973358Y2968565D01*
X2968565Y2973358D01*
X2962693Y2976748D01*
X2957755Y2978072D01*
D02*
G37*
G36*
X2947755D02*
X2942817Y2976748D01*
X2936945Y2973358D01*
X2932151Y2968565D01*
X2928762Y2962693D01*
X2927439Y2957755D01*
X2947755D01*
Y2978072D01*
D02*
G37*
G36*
X3686733Y2947755D02*
X3666416D01*
Y2927439D01*
X3671355Y2928762D01*
X3677226Y2932151D01*
X3682020Y2936945D01*
X3685410Y2942817D01*
X3686733Y2947755D01*
D02*
G37*
G36*
X3656416D02*
X3636100D01*
X3637423Y2942817D01*
X3640813Y2936945D01*
X3645606Y2932151D01*
X3651478Y2928762D01*
X3656416Y2927439D01*
Y2947755D01*
D02*
G37*
G36*
X3450512D02*
X3430196D01*
Y2927439D01*
X3435134Y2928762D01*
X3441006Y2932151D01*
X3445799Y2936945D01*
X3449189Y2942817D01*
X3450512Y2947755D01*
D02*
G37*
G36*
X3420196D02*
X3399879D01*
X3401202Y2942817D01*
X3404592Y2936945D01*
X3409386Y2932151D01*
X3415257Y2928762D01*
X3420196Y2927439D01*
Y2947755D01*
D02*
G37*
G36*
X3214292D02*
X3193975D01*
Y2927439D01*
X3198914Y2928762D01*
X3204785Y2932151D01*
X3209579Y2936945D01*
X3212969Y2942817D01*
X3214292Y2947755D01*
D02*
G37*
G36*
X3183975D02*
X3163659D01*
X3164982Y2942817D01*
X3168372Y2936945D01*
X3173166Y2932151D01*
X3179037Y2928762D01*
X3183975Y2927439D01*
Y2947755D01*
D02*
G37*
G36*
X2978072D02*
X2957755D01*
Y2927439D01*
X2962693Y2928762D01*
X2968565Y2932151D01*
X2973358Y2936945D01*
X2976748Y2942817D01*
X2978072Y2947755D01*
D02*
G37*
G36*
X2947755D02*
X2927439D01*
X2928762Y2942817D01*
X2932151Y2936945D01*
X2936945Y2932151D01*
X2942817Y2928762D01*
X2947755Y2927439D01*
Y2947755D01*
D02*
G37*
G36*
X3371141Y2859961D02*
Y2839645D01*
X3391457D01*
X3390134Y2844583D01*
X3386744Y2850454D01*
X3381950Y2855248D01*
X3376079Y2858638D01*
X3371141Y2859961D01*
D02*
G37*
G36*
X3253030D02*
Y2839645D01*
X3273347D01*
X3272024Y2844583D01*
X3268634Y2850454D01*
X3263840Y2855248D01*
X3257969Y2858638D01*
X3253030Y2859961D01*
D02*
G37*
G36*
X3243030D02*
X3238092Y2858638D01*
X3232221Y2855248D01*
X3227427Y2850454D01*
X3224037Y2844583D01*
X3222714Y2839645D01*
X3243030D01*
Y2859961D01*
D02*
G37*
G36*
X3016810D02*
Y2839645D01*
X3037127D01*
X3035803Y2844583D01*
X3032414Y2850454D01*
X3027620Y2855248D01*
X3021749Y2858638D01*
X3016810Y2859961D01*
D02*
G37*
G36*
X3006810D02*
X3001872Y2858638D01*
X2996000Y2855248D01*
X2991207Y2850454D01*
X2987817Y2844583D01*
X2986494Y2839645D01*
X3006810D01*
Y2859961D01*
D02*
G37*
G36*
X3391457Y2829645D02*
X3371141D01*
Y2809328D01*
X3376079Y2810651D01*
X3381950Y2814041D01*
X3386744Y2818835D01*
X3390134Y2824706D01*
X3391457Y2829645D01*
D02*
G37*
G36*
X3273347D02*
X3253030D01*
Y2809328D01*
X3257969Y2810651D01*
X3263840Y2814041D01*
X3268634Y2818835D01*
X3272024Y2824706D01*
X3273347Y2829645D01*
D02*
G37*
G36*
X3243030D02*
X3222714D01*
X3224037Y2824706D01*
X3227427Y2818835D01*
X3232221Y2814041D01*
X3238092Y2810651D01*
X3243030Y2809328D01*
Y2829645D01*
D02*
G37*
G36*
X3037127D02*
X3016810D01*
Y2809328D01*
X3021749Y2810651D01*
X3027620Y2814041D01*
X3032414Y2818835D01*
X3035803Y2824706D01*
X3037127Y2829645D01*
D02*
G37*
G36*
X3006810D02*
X2986494D01*
X2987817Y2824706D01*
X2991207Y2818835D01*
X2996000Y2814041D01*
X3001872Y2810651D01*
X3006810Y2809328D01*
Y2829645D01*
D02*
G37*
G36*
X3666416Y2741851D02*
Y2721535D01*
X3686733D01*
X3685410Y2726473D01*
X3682020Y2732344D01*
X3677226Y2737138D01*
X3671355Y2740528D01*
X3666416Y2741851D01*
D02*
G37*
G36*
X3656416D02*
X3651478Y2740528D01*
X3645606Y2737138D01*
X3640813Y2732344D01*
X3637423Y2726473D01*
X3636100Y2721535D01*
X3656416D01*
Y2741851D01*
D02*
G37*
G36*
X2957755D02*
Y2721535D01*
X2978072D01*
X2976748Y2726473D01*
X2973358Y2732344D01*
X2968565Y2737138D01*
X2962693Y2740528D01*
X2957755Y2741851D01*
D02*
G37*
G36*
X2947755D02*
X2942817Y2740528D01*
X2936945Y2737138D01*
X2932151Y2732344D01*
X2928762Y2726473D01*
X2927439Y2721535D01*
X2947755D01*
Y2741851D01*
D02*
G37*
G36*
X3686733Y2711535D02*
X3666416D01*
Y2691218D01*
X3671355Y2692541D01*
X3677226Y2695931D01*
X3682020Y2700725D01*
X3685410Y2706596D01*
X3686733Y2711535D01*
D02*
G37*
G36*
X3656416D02*
X3636100D01*
X3637423Y2706596D01*
X3640813Y2700725D01*
X3645606Y2695931D01*
X3651478Y2692541D01*
X3656416Y2691218D01*
Y2711535D01*
D02*
G37*
G36*
X2978072D02*
X2957755D01*
Y2691218D01*
X2962693Y2692541D01*
X2968565Y2695931D01*
X2973358Y2700725D01*
X2976748Y2706596D01*
X2978072Y2711535D01*
D02*
G37*
G36*
X2947755D02*
X2927439D01*
X2928762Y2706596D01*
X2932151Y2700725D01*
X2936945Y2695931D01*
X2942817Y2692541D01*
X2947755Y2691218D01*
Y2711535D01*
D02*
G37*
G36*
X3016810Y2623741D02*
Y2603424D01*
X3037127D01*
X3035803Y2608363D01*
X3032414Y2614234D01*
X3027620Y2619028D01*
X3021749Y2622418D01*
X3016810Y2623741D01*
D02*
G37*
G36*
X3006810D02*
X3001872Y2622418D01*
X2996000Y2619028D01*
X2991207Y2614234D01*
X2987817Y2608363D01*
X2986494Y2603424D01*
X3006810D01*
Y2623741D01*
D02*
G37*
G36*
X3037127Y2593424D02*
X3016810D01*
Y2573108D01*
X3021749Y2574431D01*
X3027620Y2577821D01*
X3032414Y2582615D01*
X3035803Y2588486D01*
X3037127Y2593424D01*
D02*
G37*
G36*
X3006810D02*
X2986494D01*
X2987817Y2588486D01*
X2991207Y2582615D01*
X2996000Y2577821D01*
X3001872Y2574431D01*
X3006810Y2573108D01*
Y2593424D01*
D02*
G37*
G36*
X3666416Y2505631D02*
Y2485314D01*
X3686733D01*
X3685410Y2490253D01*
X3682020Y2496124D01*
X3677226Y2500918D01*
X3671355Y2504307D01*
X3666416Y2505631D01*
D02*
G37*
G36*
X3656416D02*
X3651478Y2504307D01*
X3645606Y2500918D01*
X3640813Y2496124D01*
X3637423Y2490253D01*
X3636100Y2485314D01*
X3656416D01*
Y2505631D01*
D02*
G37*
G36*
X3548306D02*
Y2485314D01*
X3568622D01*
X3567299Y2490253D01*
X3563910Y2496124D01*
X3559116Y2500918D01*
X3553244Y2504307D01*
X3548306Y2505631D01*
D02*
G37*
G36*
X3538306D02*
X3533368Y2504307D01*
X3527496Y2500918D01*
X3522702Y2496124D01*
X3519313Y2490253D01*
X3517990Y2485314D01*
X3538306D01*
Y2505631D01*
D02*
G37*
G36*
X3430196D02*
Y2485314D01*
X3450512D01*
X3449189Y2490253D01*
X3445799Y2496124D01*
X3441006Y2500918D01*
X3435134Y2504307D01*
X3430196Y2505631D01*
D02*
G37*
G36*
X3420196D02*
X3415257Y2504307D01*
X3409386Y2500918D01*
X3404592Y2496124D01*
X3401202Y2490253D01*
X3399879Y2485314D01*
X3420196D01*
Y2505631D01*
D02*
G37*
G36*
X2957755D02*
Y2485314D01*
X2978072D01*
X2976748Y2490253D01*
X2973358Y2496124D01*
X2968565Y2500918D01*
X2962693Y2504307D01*
X2957755Y2505631D01*
D02*
G37*
G36*
X2947755D02*
X2942817Y2504307D01*
X2936945Y2500918D01*
X2932151Y2496124D01*
X2928762Y2490253D01*
X2927439Y2485314D01*
X2947755D01*
Y2505631D01*
D02*
G37*
G36*
X3686733Y2475314D02*
X3666416D01*
Y2454998D01*
X3671355Y2456321D01*
X3677226Y2459711D01*
X3682020Y2464505D01*
X3685410Y2470376D01*
X3686733Y2475314D01*
D02*
G37*
G36*
X3656416D02*
X3636100D01*
X3637423Y2470376D01*
X3640813Y2464505D01*
X3645606Y2459711D01*
X3651478Y2456321D01*
X3656416Y2454998D01*
Y2475314D01*
D02*
G37*
G36*
X3568622D02*
X3548306D01*
Y2454998D01*
X3553244Y2456321D01*
X3559116Y2459711D01*
X3563910Y2464505D01*
X3567299Y2470376D01*
X3568622Y2475314D01*
D02*
G37*
G36*
X3538306D02*
X3517990D01*
X3519313Y2470376D01*
X3522702Y2464505D01*
X3527496Y2459711D01*
X3533368Y2456321D01*
X3538306Y2454998D01*
Y2475314D01*
D02*
G37*
G36*
X3450512D02*
X3430196D01*
Y2454998D01*
X3435134Y2456321D01*
X3441006Y2459711D01*
X3445799Y2464505D01*
X3449189Y2470376D01*
X3450512Y2475314D01*
D02*
G37*
G36*
X3420196D02*
X3399879D01*
X3401202Y2470376D01*
X3404592Y2464505D01*
X3409386Y2459711D01*
X3415257Y2456321D01*
X3420196Y2454998D01*
Y2475314D01*
D02*
G37*
G36*
X2978072D02*
X2957755D01*
Y2454998D01*
X2962693Y2456321D01*
X2968565Y2459711D01*
X2973358Y2464505D01*
X2976748Y2470376D01*
X2978072Y2475314D01*
D02*
G37*
G36*
X2947755D02*
X2927439D01*
X2928762Y2470376D01*
X2932151Y2464505D01*
X2936945Y2459711D01*
X2942817Y2456321D01*
X2947755Y2454998D01*
Y2475314D01*
D02*
G37*
G36*
X3253030Y2387521D02*
Y2367204D01*
X3273347D01*
X3272024Y2372142D01*
X3268634Y2378014D01*
X3263840Y2382807D01*
X3257969Y2386197D01*
X3253030Y2387521D01*
D02*
G37*
G36*
X3243030D02*
X3238092Y2386197D01*
X3232221Y2382807D01*
X3227427Y2378014D01*
X3224037Y2372142D01*
X3222714Y2367204D01*
X3243030D01*
Y2387521D01*
D02*
G37*
G36*
X3016810D02*
Y2367204D01*
X3037127D01*
X3035803Y2372142D01*
X3032414Y2378014D01*
X3027620Y2382807D01*
X3021749Y2386197D01*
X3016810Y2387521D01*
D02*
G37*
G36*
X3006810D02*
X3001872Y2386197D01*
X2996000Y2382807D01*
X2991207Y2378014D01*
X2987817Y2372142D01*
X2986494Y2367204D01*
X3006810D01*
Y2387521D01*
D02*
G37*
G36*
X3273347Y2357204D02*
X3253030D01*
Y2336887D01*
X3257969Y2338211D01*
X3263840Y2341601D01*
X3268634Y2346394D01*
X3272024Y2352266D01*
X3273347Y2357204D01*
D02*
G37*
G36*
X3243030D02*
X3222714D01*
X3224037Y2352266D01*
X3227427Y2346394D01*
X3232221Y2341601D01*
X3238092Y2338211D01*
X3243030Y2336887D01*
Y2357204D01*
D02*
G37*
G36*
X3037127D02*
X3016810D01*
Y2336887D01*
X3021749Y2338211D01*
X3027620Y2341601D01*
X3032414Y2346394D01*
X3035803Y2352266D01*
X3037127Y2357204D01*
D02*
G37*
G36*
X3006810D02*
X2986494D01*
X2987817Y2352266D01*
X2991207Y2346394D01*
X2996000Y2341601D01*
X3001872Y2338211D01*
X3006810Y2336887D01*
Y2357204D01*
D02*
G37*
G36*
X3666416Y2269410D02*
Y2249094D01*
X3686733D01*
X3685410Y2254032D01*
X3682020Y2259903D01*
X3677226Y2264697D01*
X3671355Y2268087D01*
X3666416Y2269410D01*
D02*
G37*
G36*
X3656416D02*
X3651478Y2268087D01*
X3645606Y2264697D01*
X3640813Y2259903D01*
X3637423Y2254032D01*
X3636100Y2249094D01*
X3656416D01*
Y2269410D01*
D02*
G37*
G36*
X3430196D02*
Y2249094D01*
X3450512D01*
X3449189Y2254032D01*
X3445799Y2259903D01*
X3441006Y2264697D01*
X3435134Y2268087D01*
X3430196Y2269410D01*
D02*
G37*
G36*
X3420196D02*
X3415257Y2268087D01*
X3409386Y2264697D01*
X3404592Y2259903D01*
X3401202Y2254032D01*
X3399879Y2249094D01*
X3420196D01*
Y2269410D01*
D02*
G37*
G36*
X3312086D02*
Y2249094D01*
X3332402D01*
X3331079Y2254032D01*
X3327689Y2259903D01*
X3322895Y2264697D01*
X3317024Y2268087D01*
X3312086Y2269410D01*
D02*
G37*
G36*
X3302086D02*
X3297147Y2268087D01*
X3291276Y2264697D01*
X3286482Y2259903D01*
X3283092Y2254032D01*
X3281769Y2249094D01*
X3302086D01*
Y2269410D01*
D02*
G37*
G36*
X3193975D02*
Y2249094D01*
X3214292D01*
X3212969Y2254032D01*
X3209579Y2259903D01*
X3204785Y2264697D01*
X3198914Y2268087D01*
X3193975Y2269410D01*
D02*
G37*
G36*
X3183975D02*
X3179037Y2268087D01*
X3173166Y2264697D01*
X3168372Y2259903D01*
X3164982Y2254032D01*
X3163659Y2249094D01*
X3183975D01*
Y2269410D01*
D02*
G37*
G36*
X2957755D02*
Y2249094D01*
X2978072D01*
X2976748Y2254032D01*
X2973358Y2259903D01*
X2968565Y2264697D01*
X2962693Y2268087D01*
X2957755Y2269410D01*
D02*
G37*
G36*
X2947755D02*
X2942817Y2268087D01*
X2936945Y2264697D01*
X2932151Y2259903D01*
X2928762Y2254032D01*
X2927439Y2249094D01*
X2947755D01*
Y2269410D01*
D02*
G37*
G36*
X3686733Y2239094D02*
X3666416D01*
Y2218777D01*
X3671355Y2220101D01*
X3677226Y2223490D01*
X3682020Y2228284D01*
X3685410Y2234155D01*
X3686733Y2239094D01*
D02*
G37*
G36*
X3656416D02*
X3636100D01*
X3637423Y2234155D01*
X3640813Y2228284D01*
X3645606Y2223490D01*
X3651478Y2220101D01*
X3656416Y2218777D01*
Y2239094D01*
D02*
G37*
G36*
X3450512D02*
X3430196D01*
Y2218777D01*
X3435134Y2220101D01*
X3441006Y2223490D01*
X3445799Y2228284D01*
X3449189Y2234155D01*
X3450512Y2239094D01*
D02*
G37*
G36*
X3420196D02*
X3399879D01*
X3401202Y2234155D01*
X3404592Y2228284D01*
X3409386Y2223490D01*
X3415257Y2220101D01*
X3420196Y2218777D01*
Y2239094D01*
D02*
G37*
G36*
X3332402D02*
X3312086D01*
Y2218777D01*
X3317024Y2220101D01*
X3322895Y2223490D01*
X3327689Y2228284D01*
X3331079Y2234155D01*
X3332402Y2239094D01*
D02*
G37*
G36*
X3302086D02*
X3281769D01*
X3283092Y2234155D01*
X3286482Y2228284D01*
X3291276Y2223490D01*
X3297147Y2220101D01*
X3302086Y2218777D01*
Y2239094D01*
D02*
G37*
G36*
X3214292D02*
X3193975D01*
Y2218777D01*
X3198914Y2220101D01*
X3204785Y2223490D01*
X3209579Y2228284D01*
X3212969Y2234155D01*
X3214292Y2239094D01*
D02*
G37*
G36*
X3183975D02*
X3163659D01*
X3164982Y2234155D01*
X3168372Y2228284D01*
X3173166Y2223490D01*
X3179037Y2220101D01*
X3183975Y2218777D01*
Y2239094D01*
D02*
G37*
G36*
X2978072D02*
X2957755D01*
Y2218777D01*
X2962693Y2220101D01*
X2968565Y2223490D01*
X2973358Y2228284D01*
X2976748Y2234155D01*
X2978072Y2239094D01*
D02*
G37*
G36*
X2947755D02*
X2927439D01*
X2928762Y2234155D01*
X2932151Y2228284D01*
X2936945Y2223490D01*
X2942817Y2220101D01*
X2947755Y2218777D01*
Y2239094D01*
D02*
G37*
G36*
X3371141Y2151300D02*
Y2130984D01*
X3391457D01*
X3390134Y2135922D01*
X3386744Y2141793D01*
X3381950Y2146587D01*
X3376079Y2149977D01*
X3371141Y2151300D01*
D02*
G37*
G36*
X3361141D02*
X3356202Y2149977D01*
X3350331Y2146587D01*
X3345537Y2141793D01*
X3342147Y2135922D01*
X3340824Y2130984D01*
X3361141D01*
Y2151300D01*
D02*
G37*
G36*
X3253030D02*
Y2130984D01*
X3273347D01*
X3272024Y2135922D01*
X3268634Y2141793D01*
X3263840Y2146587D01*
X3257969Y2149977D01*
X3253030Y2151300D01*
D02*
G37*
G36*
X3243030D02*
X3238092Y2149977D01*
X3232221Y2146587D01*
X3227427Y2141793D01*
X3224037Y2135922D01*
X3222714Y2130984D01*
X3243030D01*
Y2151300D01*
D02*
G37*
G36*
X3016810D02*
Y2130984D01*
X3037127D01*
X3035803Y2135922D01*
X3032414Y2141793D01*
X3027620Y2146587D01*
X3021749Y2149977D01*
X3016810Y2151300D01*
D02*
G37*
G36*
X3006810D02*
X3001872Y2149977D01*
X2996000Y2146587D01*
X2991207Y2141793D01*
X2987817Y2135922D01*
X2986494Y2130984D01*
X3006810D01*
Y2151300D01*
D02*
G37*
G36*
X3391457Y2120984D02*
X3371141D01*
Y2100667D01*
X3376079Y2101990D01*
X3381950Y2105380D01*
X3386744Y2110174D01*
X3390134Y2116045D01*
X3391457Y2120984D01*
D02*
G37*
G36*
X3361141D02*
X3340824D01*
X3342147Y2116045D01*
X3345537Y2110174D01*
X3350331Y2105380D01*
X3356202Y2101990D01*
X3361141Y2100667D01*
Y2120984D01*
D02*
G37*
G36*
X3273347D02*
X3253030D01*
Y2100667D01*
X3257969Y2101990D01*
X3263840Y2105380D01*
X3268634Y2110174D01*
X3272024Y2116045D01*
X3273347Y2120984D01*
D02*
G37*
G36*
X3243030D02*
X3222714D01*
X3224037Y2116045D01*
X3227427Y2110174D01*
X3232221Y2105380D01*
X3238092Y2101990D01*
X3243030Y2100667D01*
Y2120984D01*
D02*
G37*
G36*
X3037127D02*
X3016810D01*
Y2100667D01*
X3021749Y2101990D01*
X3027620Y2105380D01*
X3032414Y2110174D01*
X3035803Y2116045D01*
X3037127Y2120984D01*
D02*
G37*
G36*
X3006810D02*
X2986494D01*
X2987817Y2116045D01*
X2991207Y2110174D01*
X2996000Y2105380D01*
X3001872Y2101990D01*
X3006810Y2100667D01*
Y2120984D01*
D02*
G37*
G36*
X3666416Y2033190D02*
Y2012873D01*
X3686733D01*
X3685410Y2017812D01*
X3682020Y2023683D01*
X3677226Y2028477D01*
X3671355Y2031867D01*
X3666416Y2033190D01*
D02*
G37*
G36*
X3656416D02*
X3651478Y2031867D01*
X3645606Y2028477D01*
X3640813Y2023683D01*
X3637423Y2017812D01*
X3636100Y2012873D01*
X3656416D01*
Y2033190D01*
D02*
G37*
G36*
X2957755D02*
Y2012873D01*
X2978072D01*
X2976748Y2017812D01*
X2973358Y2023683D01*
X2968565Y2028477D01*
X2962693Y2031867D01*
X2957755Y2033190D01*
D02*
G37*
G36*
X2947755D02*
X2942817Y2031867D01*
X2936945Y2028477D01*
X2932151Y2023683D01*
X2928762Y2017812D01*
X2927439Y2012873D01*
X2947755D01*
Y2033190D01*
D02*
G37*
G36*
X3686733Y2002873D02*
X3666416D01*
Y1982557D01*
X3671355Y1983880D01*
X3677226Y1987270D01*
X3682020Y1992064D01*
X3685410Y1997935D01*
X3686733Y2002873D01*
D02*
G37*
G36*
X3656416D02*
X3636100D01*
X3637423Y1997935D01*
X3640813Y1992064D01*
X3645606Y1987270D01*
X3651478Y1983880D01*
X3656416Y1982557D01*
Y2002873D01*
D02*
G37*
G36*
X2978072D02*
X2957755D01*
Y1982557D01*
X2962693Y1983880D01*
X2968565Y1987270D01*
X2973358Y1992064D01*
X2976748Y1997935D01*
X2978072Y2002873D01*
D02*
G37*
G36*
X2947755D02*
X2927439D01*
X2928762Y1997935D01*
X2932151Y1992064D01*
X2936945Y1987270D01*
X2942817Y1983880D01*
X2947755Y1982557D01*
Y2002873D01*
D02*
G37*
G36*
X3388933Y2063306D02*
X3376659D01*
X3364804Y2060129D01*
X3354174Y2053992D01*
X3345495Y2045314D01*
X3339359Y2034684D01*
X3336182Y2022829D01*
Y2010555D01*
X3339359Y1998700D01*
X3345495Y1988070D01*
X3354174Y1979391D01*
X3364804Y1973255D01*
X3376659Y1970078D01*
X3388933D01*
X3400788Y1973255D01*
X3411418Y1979391D01*
X3420097Y1988070D01*
X3426233Y1998700D01*
X3429410Y2010555D01*
Y2022829D01*
X3426233Y2034684D01*
X3420097Y2045314D01*
X3411418Y2053992D01*
X3400788Y2060129D01*
X3388933Y2063306D01*
D02*
G37*
G36*
X3255419Y2039981D02*
X3242457D01*
X3229743Y2037452D01*
X3217767Y2032492D01*
X3206988Y2025290D01*
X3197822Y2016124D01*
X3190620Y2005345D01*
X3185660Y1993369D01*
X3183131Y1980655D01*
Y1967693D01*
X3185660Y1954979D01*
X3190620Y1943003D01*
X3197822Y1932224D01*
X3206988Y1923058D01*
X3217767Y1915857D01*
X3229743Y1910896D01*
X3242457Y1908367D01*
X3255419D01*
X3268133Y1910896D01*
X3280109Y1915857D01*
X3290888Y1923058D01*
X3300054Y1932224D01*
X3307256Y1943003D01*
X3312216Y1954979D01*
X3314745Y1967693D01*
Y1980655D01*
X3312216Y1993369D01*
X3307256Y2005345D01*
X3300054Y2016124D01*
X3290888Y2025290D01*
X3280109Y2032492D01*
X3268133Y2037452D01*
X3255419Y2039981D01*
D02*
G37*
G36*
X3016810Y1915080D02*
Y1894763D01*
X3037127D01*
X3035803Y1899702D01*
X3032414Y1905573D01*
X3027620Y1910367D01*
X3021749Y1913756D01*
X3016810Y1915080D01*
D02*
G37*
G36*
X3006810D02*
X3001872Y1913756D01*
X2996000Y1910367D01*
X2991207Y1905573D01*
X2987817Y1899702D01*
X2986494Y1894763D01*
X3006810D01*
Y1915080D01*
D02*
G37*
G36*
X3037127Y1884763D02*
X3016810D01*
Y1864447D01*
X3021749Y1865770D01*
X3027620Y1869160D01*
X3032414Y1873954D01*
X3035803Y1879825D01*
X3037127Y1884763D01*
D02*
G37*
G36*
X3006810D02*
X2986494D01*
X2987817Y1879825D01*
X2991207Y1873954D01*
X2996000Y1869160D01*
X3001872Y1865770D01*
X3006810Y1864447D01*
Y1884763D01*
D02*
G37*
G36*
X3666416Y1796969D02*
Y1776653D01*
X3686733D01*
X3685410Y1781591D01*
X3682020Y1787463D01*
X3677226Y1792256D01*
X3671355Y1795646D01*
X3666416Y1796969D01*
D02*
G37*
G36*
X3656416D02*
X3651478Y1795646D01*
X3645606Y1792256D01*
X3640813Y1787463D01*
X3637423Y1781591D01*
X3636100Y1776653D01*
X3656416D01*
Y1796969D01*
D02*
G37*
G36*
X3430196D02*
Y1776653D01*
X3450512D01*
X3449189Y1781591D01*
X3445799Y1787463D01*
X3441006Y1792256D01*
X3435134Y1795646D01*
X3430196Y1796969D01*
D02*
G37*
G36*
X3420196D02*
X3415257Y1795646D01*
X3409386Y1792256D01*
X3404592Y1787463D01*
X3401202Y1781591D01*
X3399879Y1776653D01*
X3420196D01*
Y1796969D01*
D02*
G37*
G36*
X3075865D02*
Y1776653D01*
X3096182D01*
X3094858Y1781591D01*
X3091469Y1787463D01*
X3086675Y1792256D01*
X3080804Y1795646D01*
X3075865Y1796969D01*
D02*
G37*
G36*
X3065865D02*
X3060927Y1795646D01*
X3055055Y1792256D01*
X3050262Y1787463D01*
X3046872Y1781591D01*
X3045549Y1776653D01*
X3065865D01*
Y1796969D01*
D02*
G37*
G36*
X2957755D02*
Y1776653D01*
X2978072D01*
X2976748Y1781591D01*
X2973358Y1787463D01*
X2968565Y1792256D01*
X2962693Y1795646D01*
X2957755Y1796969D01*
D02*
G37*
G36*
X2947755D02*
X2942817Y1795646D01*
X2936945Y1792256D01*
X2932151Y1787463D01*
X2928762Y1781591D01*
X2927439Y1776653D01*
X2947755D01*
Y1796969D01*
D02*
G37*
G36*
X3255419Y1884075D02*
X3242457D01*
X3229743Y1881546D01*
X3217767Y1876585D01*
X3206988Y1869384D01*
X3197822Y1860218D01*
X3190620Y1849439D01*
X3185660Y1837463D01*
X3183131Y1824749D01*
Y1811787D01*
X3185660Y1799073D01*
X3190620Y1787097D01*
X3197822Y1776318D01*
X3206988Y1767152D01*
X3217767Y1759950D01*
X3229743Y1754990D01*
X3242457Y1752461D01*
X3255419D01*
X3268133Y1754990D01*
X3280109Y1759950D01*
X3290888Y1767152D01*
X3300054Y1776318D01*
X3307256Y1787097D01*
X3312216Y1799073D01*
X3314745Y1811787D01*
Y1824749D01*
X3312216Y1837463D01*
X3307256Y1849439D01*
X3300054Y1860218D01*
X3290888Y1869384D01*
X3280109Y1876585D01*
X3268133Y1881546D01*
X3255419Y1884075D01*
D02*
G37*
G36*
X3686733Y1766653D02*
X3666416D01*
Y1746336D01*
X3671355Y1747660D01*
X3677226Y1751050D01*
X3682020Y1755843D01*
X3685410Y1761715D01*
X3686733Y1766653D01*
D02*
G37*
G36*
X3656416D02*
X3636100D01*
X3637423Y1761715D01*
X3640813Y1755843D01*
X3645606Y1751050D01*
X3651478Y1747660D01*
X3656416Y1746336D01*
Y1766653D01*
D02*
G37*
G36*
X3450512D02*
X3430196D01*
Y1746336D01*
X3435134Y1747660D01*
X3441006Y1751050D01*
X3445799Y1755843D01*
X3449189Y1761715D01*
X3450512Y1766653D01*
D02*
G37*
G36*
X3420196D02*
X3399879D01*
X3401202Y1761715D01*
X3404592Y1755843D01*
X3409386Y1751050D01*
X3415257Y1747660D01*
X3420196Y1746336D01*
Y1766653D01*
D02*
G37*
G36*
X3096182D02*
X3075865D01*
Y1746336D01*
X3080804Y1747660D01*
X3086675Y1751050D01*
X3091469Y1755843D01*
X3094858Y1761715D01*
X3096182Y1766653D01*
D02*
G37*
G36*
X3065865D02*
X3045549D01*
X3046872Y1761715D01*
X3050262Y1755843D01*
X3055055Y1751050D01*
X3060927Y1747660D01*
X3065865Y1746336D01*
Y1766653D01*
D02*
G37*
G36*
X2978072D02*
X2957755D01*
Y1746336D01*
X2962693Y1747660D01*
X2968565Y1751050D01*
X2973358Y1755843D01*
X2976748Y1761715D01*
X2978072Y1766653D01*
D02*
G37*
G36*
X2947755D02*
X2927439D01*
X2928762Y1761715D01*
X2932151Y1755843D01*
X2936945Y1751050D01*
X2942817Y1747660D01*
X2947755Y1746336D01*
Y1766653D01*
D02*
G37*
G36*
X3253030Y1678859D02*
Y1658543D01*
X3273347D01*
X3272024Y1663481D01*
X3268634Y1669352D01*
X3263840Y1674146D01*
X3257969Y1677536D01*
X3253030Y1678859D01*
D02*
G37*
G36*
X3243030D02*
X3238092Y1677536D01*
X3232221Y1674146D01*
X3227427Y1669352D01*
X3224037Y1663481D01*
X3222714Y1658543D01*
X3243030D01*
Y1678859D01*
D02*
G37*
G36*
X3134920D02*
Y1658543D01*
X3155237D01*
X3153914Y1663481D01*
X3150524Y1669352D01*
X3145730Y1674146D01*
X3139859Y1677536D01*
X3134920Y1678859D01*
D02*
G37*
G36*
X3124920D02*
X3119982Y1677536D01*
X3114111Y1674146D01*
X3109317Y1669352D01*
X3105927Y1663481D01*
X3104604Y1658543D01*
X3124920D01*
Y1678859D01*
D02*
G37*
G36*
X3016810D02*
Y1658543D01*
X3037127D01*
X3035803Y1663481D01*
X3032414Y1669352D01*
X3027620Y1674146D01*
X3021749Y1677536D01*
X3016810Y1678859D01*
D02*
G37*
G36*
X3006810D02*
X3001872Y1677536D01*
X2996000Y1674146D01*
X2991207Y1669352D01*
X2987817Y1663481D01*
X2986494Y1658543D01*
X3006810D01*
Y1678859D01*
D02*
G37*
G36*
X3273347Y1648543D02*
X3253030D01*
Y1628226D01*
X3257969Y1629550D01*
X3263840Y1632939D01*
X3268634Y1637733D01*
X3272024Y1643604D01*
X3273347Y1648543D01*
D02*
G37*
G36*
X3243030D02*
X3222714D01*
X3224037Y1643604D01*
X3227427Y1637733D01*
X3232221Y1632939D01*
X3238092Y1629550D01*
X3243030Y1628226D01*
Y1648543D01*
D02*
G37*
G36*
X3155237D02*
X3134920D01*
Y1628226D01*
X3139859Y1629550D01*
X3145730Y1632939D01*
X3150524Y1637733D01*
X3153914Y1643604D01*
X3155237Y1648543D01*
D02*
G37*
G36*
X3124920D02*
X3104604D01*
X3105927Y1643604D01*
X3109317Y1637733D01*
X3114111Y1632939D01*
X3119982Y1629550D01*
X3124920Y1628226D01*
Y1648543D01*
D02*
G37*
G36*
X3037127D02*
X3016810D01*
Y1628226D01*
X3021749Y1629550D01*
X3027620Y1632939D01*
X3032414Y1637733D01*
X3035803Y1643604D01*
X3037127Y1648543D01*
D02*
G37*
G36*
X3006810D02*
X2986494D01*
X2987817Y1643604D01*
X2991207Y1637733D01*
X2996000Y1632939D01*
X3001872Y1629550D01*
X3006810Y1628226D01*
Y1648543D01*
D02*
G37*
G36*
X3666416Y1560749D02*
Y1540433D01*
X3686733D01*
X3685410Y1545371D01*
X3682020Y1551242D01*
X3677226Y1556036D01*
X3671355Y1559426D01*
X3666416Y1560749D01*
D02*
G37*
G36*
X3656416D02*
X3651478Y1559426D01*
X3645606Y1556036D01*
X3640813Y1551242D01*
X3637423Y1545371D01*
X3636100Y1540433D01*
X3656416D01*
Y1560749D01*
D02*
G37*
G36*
X3548306D02*
Y1540433D01*
X3568622D01*
X3567299Y1545371D01*
X3563910Y1551242D01*
X3559116Y1556036D01*
X3553244Y1559426D01*
X3548306Y1560749D01*
D02*
G37*
G36*
X3538306D02*
X3533368Y1559426D01*
X3527496Y1556036D01*
X3522702Y1551242D01*
X3519313Y1545371D01*
X3517990Y1540433D01*
X3538306D01*
Y1560749D01*
D02*
G37*
G36*
X3430196D02*
Y1540433D01*
X3450512D01*
X3449189Y1545371D01*
X3445799Y1551242D01*
X3441006Y1556036D01*
X3435134Y1559426D01*
X3430196Y1560749D01*
D02*
G37*
G36*
X3420196D02*
X3415257Y1559426D01*
X3409386Y1556036D01*
X3404592Y1551242D01*
X3401202Y1545371D01*
X3399879Y1540433D01*
X3420196D01*
Y1560749D01*
D02*
G37*
G36*
X3312086D02*
Y1540433D01*
X3332402D01*
X3331079Y1545371D01*
X3327689Y1551242D01*
X3322895Y1556036D01*
X3317024Y1559426D01*
X3312086Y1560749D01*
D02*
G37*
G36*
X3302086D02*
X3297147Y1559426D01*
X3291276Y1556036D01*
X3286482Y1551242D01*
X3283092Y1545371D01*
X3281769Y1540433D01*
X3302086D01*
Y1560749D01*
D02*
G37*
G36*
X3193975D02*
Y1540433D01*
X3214292D01*
X3212969Y1545371D01*
X3209579Y1551242D01*
X3204785Y1556036D01*
X3198914Y1559426D01*
X3193975Y1560749D01*
D02*
G37*
G36*
X3183975D02*
X3179037Y1559426D01*
X3173166Y1556036D01*
X3168372Y1551242D01*
X3164982Y1545371D01*
X3163659Y1540433D01*
X3183975D01*
Y1560749D01*
D02*
G37*
G36*
X3075865D02*
Y1540433D01*
X3096182D01*
X3094858Y1545371D01*
X3091469Y1551242D01*
X3086675Y1556036D01*
X3080804Y1559426D01*
X3075865Y1560749D01*
D02*
G37*
G36*
X3065865D02*
X3060927Y1559426D01*
X3055055Y1556036D01*
X3050262Y1551242D01*
X3046872Y1545371D01*
X3045549Y1540433D01*
X3065865D01*
Y1560749D01*
D02*
G37*
G36*
X2957755D02*
Y1540433D01*
X2978072D01*
X2976748Y1545371D01*
X2973358Y1551242D01*
X2968565Y1556036D01*
X2962693Y1559426D01*
X2957755Y1560749D01*
D02*
G37*
G36*
X2947755D02*
X2942817Y1559426D01*
X2936945Y1556036D01*
X2932151Y1551242D01*
X2928762Y1545371D01*
X2927439Y1540433D01*
X2947755D01*
Y1560749D01*
D02*
G37*
G36*
X3686733Y1530433D02*
X3666416D01*
Y1510116D01*
X3671355Y1511439D01*
X3677226Y1514829D01*
X3682020Y1519623D01*
X3685410Y1525494D01*
X3686733Y1530433D01*
D02*
G37*
G36*
X3656416D02*
X3636100D01*
X3637423Y1525494D01*
X3640813Y1519623D01*
X3645606Y1514829D01*
X3651478Y1511439D01*
X3656416Y1510116D01*
Y1530433D01*
D02*
G37*
G36*
X3568622D02*
X3548306D01*
Y1510116D01*
X3553244Y1511439D01*
X3559116Y1514829D01*
X3563910Y1519623D01*
X3567299Y1525494D01*
X3568622Y1530433D01*
D02*
G37*
G36*
X3538306D02*
X3517990D01*
X3519313Y1525494D01*
X3522702Y1519623D01*
X3527496Y1514829D01*
X3533368Y1511439D01*
X3538306Y1510116D01*
Y1530433D01*
D02*
G37*
G36*
X3450512D02*
X3430196D01*
Y1510116D01*
X3435134Y1511439D01*
X3441006Y1514829D01*
X3445799Y1519623D01*
X3449189Y1525494D01*
X3450512Y1530433D01*
D02*
G37*
G36*
X3420196D02*
X3399879D01*
X3401202Y1525494D01*
X3404592Y1519623D01*
X3409386Y1514829D01*
X3415257Y1511439D01*
X3420196Y1510116D01*
Y1530433D01*
D02*
G37*
G36*
X3332402D02*
X3312086D01*
Y1510116D01*
X3317024Y1511439D01*
X3322895Y1514829D01*
X3327689Y1519623D01*
X3331079Y1525494D01*
X3332402Y1530433D01*
D02*
G37*
G36*
X3302086D02*
X3281769D01*
X3283092Y1525494D01*
X3286482Y1519623D01*
X3291276Y1514829D01*
X3297147Y1511439D01*
X3302086Y1510116D01*
Y1530433D01*
D02*
G37*
G36*
X3214292D02*
X3193975D01*
Y1510116D01*
X3198914Y1511439D01*
X3204785Y1514829D01*
X3209579Y1519623D01*
X3212969Y1525494D01*
X3214292Y1530433D01*
D02*
G37*
G36*
X3183975D02*
X3163659D01*
X3164982Y1525494D01*
X3168372Y1519623D01*
X3173166Y1514829D01*
X3179037Y1511439D01*
X3183975Y1510116D01*
Y1530433D01*
D02*
G37*
G36*
X3096182D02*
X3075865D01*
Y1510116D01*
X3080804Y1511439D01*
X3086675Y1514829D01*
X3091469Y1519623D01*
X3094858Y1525494D01*
X3096182Y1530433D01*
D02*
G37*
G36*
X3065865D02*
X3045549D01*
X3046872Y1525494D01*
X3050262Y1519623D01*
X3055055Y1514829D01*
X3060927Y1511439D01*
X3065865Y1510116D01*
Y1530433D01*
D02*
G37*
G36*
X2978072D02*
X2957755D01*
Y1510116D01*
X2962693Y1511439D01*
X2968565Y1514829D01*
X2973358Y1519623D01*
X2976748Y1525494D01*
X2978072Y1530433D01*
D02*
G37*
G36*
X2947755D02*
X2927439D01*
X2928762Y1525494D01*
X2932151Y1519623D01*
X2936945Y1514829D01*
X2942817Y1511439D01*
X2947755Y1510116D01*
Y1530433D01*
D02*
G37*
G36*
X3607361Y1442639D02*
Y1422322D01*
X3627678D01*
X3626354Y1427261D01*
X3622965Y1433132D01*
X3618171Y1437926D01*
X3612300Y1441316D01*
X3607361Y1442639D01*
D02*
G37*
G36*
X3597361D02*
X3592423Y1441316D01*
X3586551Y1437926D01*
X3581758Y1433132D01*
X3578368Y1427261D01*
X3577045Y1422322D01*
X3597361D01*
Y1442639D01*
D02*
G37*
G36*
X3489251D02*
Y1422322D01*
X3509567D01*
X3508244Y1427261D01*
X3504854Y1433132D01*
X3500061Y1437926D01*
X3494189Y1441316D01*
X3489251Y1442639D01*
D02*
G37*
G36*
X3479251D02*
X3474312Y1441316D01*
X3468441Y1437926D01*
X3463647Y1433132D01*
X3460258Y1427261D01*
X3458934Y1422322D01*
X3479251D01*
Y1442639D01*
D02*
G37*
G36*
X3371141D02*
Y1422322D01*
X3391457D01*
X3390134Y1427261D01*
X3386744Y1433132D01*
X3381950Y1437926D01*
X3376079Y1441316D01*
X3371141Y1442639D01*
D02*
G37*
G36*
X3361141D02*
X3356202Y1441316D01*
X3350331Y1437926D01*
X3345537Y1433132D01*
X3342147Y1427261D01*
X3340824Y1422322D01*
X3361141D01*
Y1442639D01*
D02*
G37*
G36*
X3253030D02*
Y1422322D01*
X3273347D01*
X3272024Y1427261D01*
X3268634Y1433132D01*
X3263840Y1437926D01*
X3257969Y1441316D01*
X3253030Y1442639D01*
D02*
G37*
G36*
X3243030D02*
X3238092Y1441316D01*
X3232221Y1437926D01*
X3227427Y1433132D01*
X3224037Y1427261D01*
X3222714Y1422322D01*
X3243030D01*
Y1442639D01*
D02*
G37*
G36*
X3134920D02*
Y1422322D01*
X3155237D01*
X3153914Y1427261D01*
X3150524Y1433132D01*
X3145730Y1437926D01*
X3139859Y1441316D01*
X3134920Y1442639D01*
D02*
G37*
G36*
X3124920D02*
X3119982Y1441316D01*
X3114111Y1437926D01*
X3109317Y1433132D01*
X3105927Y1427261D01*
X3104604Y1422322D01*
X3124920D01*
Y1442639D01*
D02*
G37*
G36*
X3016810D02*
Y1422322D01*
X3037127D01*
X3035803Y1427261D01*
X3032414Y1433132D01*
X3027620Y1437926D01*
X3021749Y1441316D01*
X3016810Y1442639D01*
D02*
G37*
G36*
X3006810D02*
X3001872Y1441316D01*
X2996000Y1437926D01*
X2991207Y1433132D01*
X2987817Y1427261D01*
X2986494Y1422322D01*
X3006810D01*
Y1442639D01*
D02*
G37*
G36*
X3627678Y1412322D02*
X3607361D01*
Y1392006D01*
X3612300Y1393329D01*
X3618171Y1396719D01*
X3622965Y1401513D01*
X3626354Y1407384D01*
X3627678Y1412322D01*
D02*
G37*
G36*
X3597361D02*
X3577045D01*
X3578368Y1407384D01*
X3581758Y1401513D01*
X3586551Y1396719D01*
X3592423Y1393329D01*
X3597361Y1392006D01*
Y1412322D01*
D02*
G37*
G36*
X3509567D02*
X3489251D01*
Y1392006D01*
X3494189Y1393329D01*
X3500061Y1396719D01*
X3504854Y1401513D01*
X3508244Y1407384D01*
X3509567Y1412322D01*
D02*
G37*
G36*
X3479251D02*
X3458934D01*
X3460258Y1407384D01*
X3463647Y1401513D01*
X3468441Y1396719D01*
X3474312Y1393329D01*
X3479251Y1392006D01*
Y1412322D01*
D02*
G37*
G36*
X3391457D02*
X3371141D01*
Y1392006D01*
X3376079Y1393329D01*
X3381950Y1396719D01*
X3386744Y1401513D01*
X3390134Y1407384D01*
X3391457Y1412322D01*
D02*
G37*
G36*
X3361141D02*
X3340824D01*
X3342147Y1407384D01*
X3345537Y1401513D01*
X3350331Y1396719D01*
X3356202Y1393329D01*
X3361141Y1392006D01*
Y1412322D01*
D02*
G37*
G36*
X3273347D02*
X3253030D01*
Y1392006D01*
X3257969Y1393329D01*
X3263840Y1396719D01*
X3268634Y1401513D01*
X3272024Y1407384D01*
X3273347Y1412322D01*
D02*
G37*
G36*
X3243030D02*
X3222714D01*
X3224037Y1407384D01*
X3227427Y1401513D01*
X3232221Y1396719D01*
X3238092Y1393329D01*
X3243030Y1392006D01*
Y1412322D01*
D02*
G37*
G36*
X3155237D02*
X3134920D01*
Y1392006D01*
X3139859Y1393329D01*
X3145730Y1396719D01*
X3150524Y1401513D01*
X3153914Y1407384D01*
X3155237Y1412322D01*
D02*
G37*
G36*
X3124920D02*
X3104604D01*
X3105927Y1407384D01*
X3109317Y1401513D01*
X3114111Y1396719D01*
X3119982Y1393329D01*
X3124920Y1392006D01*
Y1412322D01*
D02*
G37*
G36*
X3037127D02*
X3016810D01*
Y1392006D01*
X3021749Y1393329D01*
X3027620Y1396719D01*
X3032414Y1401513D01*
X3035803Y1407384D01*
X3037127Y1412322D01*
D02*
G37*
G36*
X3006810D02*
X2986494D01*
X2987817Y1407384D01*
X2991207Y1401513D01*
X2996000Y1396719D01*
X3001872Y1393329D01*
X3006810Y1392006D01*
Y1412322D01*
D02*
G37*
G36*
X3666416Y1324529D02*
Y1304212D01*
X3686733D01*
X3685410Y1309151D01*
X3682020Y1315022D01*
X3677226Y1319816D01*
X3671355Y1323206D01*
X3666416Y1324529D01*
D02*
G37*
G36*
X3656416D02*
X3651478Y1323206D01*
X3645606Y1319816D01*
X3640813Y1315022D01*
X3637423Y1309151D01*
X3636100Y1304212D01*
X3656416D01*
Y1324529D01*
D02*
G37*
G36*
X3548306D02*
Y1304212D01*
X3568622D01*
X3567299Y1309151D01*
X3563910Y1315022D01*
X3559116Y1319816D01*
X3553244Y1323206D01*
X3548306Y1324529D01*
D02*
G37*
G36*
X3538306D02*
X3533368Y1323206D01*
X3527496Y1319816D01*
X3522702Y1315022D01*
X3519313Y1309151D01*
X3517990Y1304212D01*
X3538306D01*
Y1324529D01*
D02*
G37*
G36*
X3430196D02*
Y1304212D01*
X3450512D01*
X3449189Y1309151D01*
X3445799Y1315022D01*
X3441006Y1319816D01*
X3435134Y1323206D01*
X3430196Y1324529D01*
D02*
G37*
G36*
X3420196D02*
X3415257Y1323206D01*
X3409386Y1319816D01*
X3404592Y1315022D01*
X3401202Y1309151D01*
X3399879Y1304212D01*
X3420196D01*
Y1324529D01*
D02*
G37*
G36*
X3312086D02*
Y1304212D01*
X3332402D01*
X3331079Y1309151D01*
X3327689Y1315022D01*
X3322895Y1319816D01*
X3317024Y1323206D01*
X3312086Y1324529D01*
D02*
G37*
G36*
X3302086D02*
X3297147Y1323206D01*
X3291276Y1319816D01*
X3286482Y1315022D01*
X3283092Y1309151D01*
X3281769Y1304212D01*
X3302086D01*
Y1324529D01*
D02*
G37*
G36*
X2957755D02*
Y1304212D01*
X2978072D01*
X2976748Y1309151D01*
X2973358Y1315022D01*
X2968565Y1319816D01*
X2962693Y1323206D01*
X2957755Y1324529D01*
D02*
G37*
G36*
X2947755D02*
X2942817Y1323206D01*
X2936945Y1319816D01*
X2932151Y1315022D01*
X2928762Y1309151D01*
X2927439Y1304212D01*
X2947755D01*
Y1324529D01*
D02*
G37*
G36*
X3686733Y1294212D02*
X3666416D01*
Y1273896D01*
X3671355Y1275219D01*
X3677226Y1278609D01*
X3682020Y1283402D01*
X3685410Y1289274D01*
X3686733Y1294212D01*
D02*
G37*
G36*
X3656416D02*
X3636100D01*
X3637423Y1289274D01*
X3640813Y1283402D01*
X3645606Y1278609D01*
X3651478Y1275219D01*
X3656416Y1273896D01*
Y1294212D01*
D02*
G37*
G36*
X3568622D02*
X3548306D01*
Y1273896D01*
X3553244Y1275219D01*
X3559116Y1278609D01*
X3563910Y1283402D01*
X3567299Y1289274D01*
X3568622Y1294212D01*
D02*
G37*
G36*
X3538306D02*
X3517990D01*
X3519313Y1289274D01*
X3522702Y1283402D01*
X3527496Y1278609D01*
X3533368Y1275219D01*
X3538306Y1273896D01*
Y1294212D01*
D02*
G37*
G36*
X3450512D02*
X3430196D01*
Y1273896D01*
X3435134Y1275219D01*
X3441006Y1278609D01*
X3445799Y1283402D01*
X3449189Y1289274D01*
X3450512Y1294212D01*
D02*
G37*
G36*
X3420196D02*
X3399879D01*
X3401202Y1289274D01*
X3404592Y1283402D01*
X3409386Y1278609D01*
X3415257Y1275219D01*
X3420196Y1273896D01*
Y1294212D01*
D02*
G37*
G36*
X3332402D02*
X3312086D01*
Y1273896D01*
X3317024Y1275219D01*
X3322895Y1278609D01*
X3327689Y1283402D01*
X3331079Y1289274D01*
X3332402Y1294212D01*
D02*
G37*
G36*
X3302086D02*
X3281769D01*
X3283092Y1289274D01*
X3286482Y1283402D01*
X3291276Y1278609D01*
X3297147Y1275219D01*
X3302086Y1273896D01*
Y1294212D01*
D02*
G37*
G36*
X2978072D02*
X2957755D01*
Y1273896D01*
X2962693Y1275219D01*
X2968565Y1278609D01*
X2973358Y1283402D01*
X2976748Y1289274D01*
X2978072Y1294212D01*
D02*
G37*
G36*
X2947755D02*
X2927439D01*
X2928762Y1289274D01*
X2932151Y1283402D01*
X2936945Y1278609D01*
X2942817Y1275219D01*
X2947755Y1273896D01*
Y1294212D01*
D02*
G37*
G36*
X3607361Y1206418D02*
Y1186102D01*
X3627678D01*
X3626354Y1191040D01*
X3622965Y1196912D01*
X3618171Y1201706D01*
X3612300Y1205095D01*
X3607361Y1206418D01*
D02*
G37*
G36*
X3597361D02*
X3592423Y1205095D01*
X3586551Y1201706D01*
X3581758Y1196912D01*
X3578368Y1191040D01*
X3577045Y1186102D01*
X3597361D01*
Y1206418D01*
D02*
G37*
G36*
X3489251D02*
Y1186102D01*
X3509567D01*
X3508244Y1191040D01*
X3504854Y1196912D01*
X3500061Y1201706D01*
X3494189Y1205095D01*
X3489251Y1206418D01*
D02*
G37*
G36*
X3479251D02*
X3474312Y1205095D01*
X3468441Y1201706D01*
X3463647Y1196912D01*
X3460258Y1191040D01*
X3458934Y1186102D01*
X3479251D01*
Y1206418D01*
D02*
G37*
G36*
X3371141D02*
Y1186102D01*
X3391457D01*
X3390134Y1191040D01*
X3386744Y1196912D01*
X3381950Y1201706D01*
X3376079Y1205095D01*
X3371141Y1206418D01*
D02*
G37*
G36*
X3361141D02*
X3356202Y1205095D01*
X3350331Y1201706D01*
X3345537Y1196912D01*
X3342147Y1191040D01*
X3340824Y1186102D01*
X3361141D01*
Y1206418D01*
D02*
G37*
G36*
X3627678Y1176102D02*
X3607361D01*
Y1155785D01*
X3612300Y1157109D01*
X3618171Y1160498D01*
X3622965Y1165292D01*
X3626354Y1171164D01*
X3627678Y1176102D01*
D02*
G37*
G36*
X3597361D02*
X3577045D01*
X3578368Y1171164D01*
X3581758Y1165292D01*
X3586551Y1160498D01*
X3592423Y1157109D01*
X3597361Y1155785D01*
Y1176102D01*
D02*
G37*
G36*
X3509567D02*
X3489251D01*
Y1155785D01*
X3494189Y1157109D01*
X3500061Y1160498D01*
X3504854Y1165292D01*
X3508244Y1171164D01*
X3509567Y1176102D01*
D02*
G37*
G36*
X3479251D02*
X3458934D01*
X3460258Y1171164D01*
X3463647Y1165292D01*
X3468441Y1160498D01*
X3474312Y1157109D01*
X3479251Y1155785D01*
Y1176102D01*
D02*
G37*
G36*
X3391457D02*
X3371141D01*
Y1155785D01*
X3376079Y1157109D01*
X3381950Y1160498D01*
X3386744Y1165292D01*
X3390134Y1171164D01*
X3391457Y1176102D01*
D02*
G37*
G36*
X3361141D02*
X3340824D01*
X3342147Y1171164D01*
X3345537Y1165292D01*
X3350331Y1160498D01*
X3356202Y1157109D01*
X3361141Y1155785D01*
Y1176102D01*
D02*
G37*
G36*
X3116801Y1279055D02*
X3103199D01*
X3089857Y1276401D01*
X3077290Y1271196D01*
X3065980Y1263639D01*
X3056361Y1254020D01*
X3048804Y1242710D01*
X3043599Y1230143D01*
X3040945Y1216801D01*
Y1203199D01*
X3043599Y1189857D01*
X3048804Y1177290D01*
X3056361Y1165980D01*
X3065980Y1156361D01*
X3077290Y1148804D01*
X3089857Y1143599D01*
X3103199Y1140945D01*
X3116801D01*
X3130143Y1143599D01*
X3142710Y1148804D01*
X3154020Y1156361D01*
X3163639Y1165980D01*
X3171196Y1177290D01*
X3176401Y1189857D01*
X3179055Y1203199D01*
Y1216801D01*
X3176401Y1230143D01*
X3171196Y1242710D01*
X3163639Y1254020D01*
X3154020Y1263639D01*
X3142710Y1271196D01*
X3130143Y1276401D01*
X3116801Y1279055D01*
D02*
G37*
G36*
X3666416Y1088308D02*
Y1067992D01*
X3686733D01*
X3685410Y1072930D01*
X3682020Y1078802D01*
X3677226Y1083595D01*
X3671355Y1086985D01*
X3666416Y1088308D01*
D02*
G37*
G36*
X3656416D02*
X3651478Y1086985D01*
X3645606Y1083595D01*
X3640813Y1078802D01*
X3637423Y1072930D01*
X3636100Y1067992D01*
X3656416D01*
Y1088308D01*
D02*
G37*
G36*
X3548306D02*
Y1067992D01*
X3568622D01*
X3567299Y1072930D01*
X3563910Y1078802D01*
X3559116Y1083595D01*
X3553244Y1086985D01*
X3548306Y1088308D01*
D02*
G37*
G36*
X3538306D02*
X3533368Y1086985D01*
X3527496Y1083595D01*
X3522702Y1078802D01*
X3519313Y1072930D01*
X3517990Y1067992D01*
X3538306D01*
Y1088308D01*
D02*
G37*
G36*
X3430196D02*
Y1067992D01*
X3450512D01*
X3449189Y1072930D01*
X3445799Y1078802D01*
X3441006Y1083595D01*
X3435134Y1086985D01*
X3430196Y1088308D01*
D02*
G37*
G36*
X3420196D02*
X3415257Y1086985D01*
X3409386Y1083595D01*
X3404592Y1078802D01*
X3401202Y1072930D01*
X3399879Y1067992D01*
X3420196D01*
Y1088308D01*
D02*
G37*
G36*
X3312086D02*
Y1067992D01*
X3332402D01*
X3331079Y1072930D01*
X3327689Y1078802D01*
X3322895Y1083595D01*
X3317024Y1086985D01*
X3312086Y1088308D01*
D02*
G37*
G36*
X3302086D02*
X3297147Y1086985D01*
X3291276Y1083595D01*
X3286482Y1078802D01*
X3283092Y1072930D01*
X3281769Y1067992D01*
X3302086D01*
Y1088308D01*
D02*
G37*
G36*
X3193975D02*
Y1067992D01*
X3214292D01*
X3212969Y1072930D01*
X3209579Y1078802D01*
X3204785Y1083595D01*
X3198914Y1086985D01*
X3193975Y1088308D01*
D02*
G37*
G36*
X3183975D02*
X3179037Y1086985D01*
X3173166Y1083595D01*
X3168372Y1078802D01*
X3164982Y1072930D01*
X3163659Y1067992D01*
X3183975D01*
Y1088308D01*
D02*
G37*
G36*
X3686733Y1057992D02*
X3666416D01*
Y1037675D01*
X3671355Y1038998D01*
X3677226Y1042388D01*
X3682020Y1047182D01*
X3685410Y1053053D01*
X3686733Y1057992D01*
D02*
G37*
G36*
X3656416D02*
X3636100D01*
X3637423Y1053053D01*
X3640813Y1047182D01*
X3645606Y1042388D01*
X3651478Y1038998D01*
X3656416Y1037675D01*
Y1057992D01*
D02*
G37*
G36*
X3568622D02*
X3548306D01*
Y1037675D01*
X3553244Y1038998D01*
X3559116Y1042388D01*
X3563910Y1047182D01*
X3567299Y1053053D01*
X3568622Y1057992D01*
D02*
G37*
G36*
X3538306D02*
X3517990D01*
X3519313Y1053053D01*
X3522702Y1047182D01*
X3527496Y1042388D01*
X3533368Y1038998D01*
X3538306Y1037675D01*
Y1057992D01*
D02*
G37*
G36*
X3450512D02*
X3430196D01*
Y1037675D01*
X3435134Y1038998D01*
X3441006Y1042388D01*
X3445799Y1047182D01*
X3449189Y1053053D01*
X3450512Y1057992D01*
D02*
G37*
G36*
X3420196D02*
X3399879D01*
X3401202Y1053053D01*
X3404592Y1047182D01*
X3409386Y1042388D01*
X3415257Y1038998D01*
X3420196Y1037675D01*
Y1057992D01*
D02*
G37*
G36*
X3332402D02*
X3312086D01*
Y1037675D01*
X3317024Y1038998D01*
X3322895Y1042388D01*
X3327689Y1047182D01*
X3331079Y1053053D01*
X3332402Y1057992D01*
D02*
G37*
G36*
X3302086D02*
X3281769D01*
X3283092Y1053053D01*
X3286482Y1047182D01*
X3291276Y1042388D01*
X3297147Y1038998D01*
X3302086Y1037675D01*
Y1057992D01*
D02*
G37*
G36*
X3214292D02*
X3193975D01*
Y1037675D01*
X3198914Y1038998D01*
X3204785Y1042388D01*
X3209579Y1047182D01*
X3212969Y1053053D01*
X3214292Y1057992D01*
D02*
G37*
G36*
X3183975D02*
X3163659D01*
X3164982Y1053053D01*
X3168372Y1047182D01*
X3173166Y1042388D01*
X3179037Y1038998D01*
X3183975Y1037675D01*
Y1057992D01*
D02*
G37*
%LPD*%
D18*
X3455000Y3025000D02*
Y3980000D01*
X3425000Y4010000D02*
X3455000Y3980000D01*
X3415000Y2295000D02*
X3455000D01*
X3325000Y2385000D02*
X3415000Y2295000D01*
X3350000Y4080000D02*
Y4245000D01*
X3325000Y2385000D02*
Y4055000D01*
X3350000Y4080000D01*
D21*
X3248938Y1974174D02*
D03*
Y1818268D02*
D03*
X5730906Y4715000D02*
D03*
X5575000D02*
D03*
X3940000D02*
D03*
X3784094D02*
D03*
X3248938Y3380000D02*
D03*
Y3224094D02*
D03*
Y2671010D02*
D03*
Y2515104D02*
D03*
X5840000Y1350000D02*
D03*
X5995906D02*
D03*
X6330906Y4715000D02*
D03*
X6175000D02*
D03*
X5234548Y1350000D02*
D03*
X5390452D02*
D03*
X4629094D02*
D03*
X4785000D02*
D03*
D22*
X3382796Y2016692D02*
D03*
X5773426Y4581142D02*
D03*
X3982520D02*
D03*
X3382796Y3422520D02*
D03*
Y2713530D02*
D03*
X5797480Y1483858D02*
D03*
X6373426Y4581142D02*
D03*
X5192028Y1483858D02*
D03*
X4586574D02*
D03*
D23*
X5004724Y2275000D02*
D03*
X5300000D02*
D03*
Y2425000D02*
D03*
X5004724D02*
D03*
X5300000Y3083838D02*
D03*
X5004724D02*
D03*
Y2933838D02*
D03*
X5300000D02*
D03*
X5930000Y2275000D02*
D03*
X6225276D02*
D03*
Y2425000D02*
D03*
X5930000D02*
D03*
Y3660000D02*
D03*
X6225276D02*
D03*
Y3810000D02*
D03*
X5930000D02*
D03*
X6225276Y3083838D02*
D03*
X5930000D02*
D03*
Y2933838D02*
D03*
X6225276D02*
D03*
D24*
X6680000Y4865000D02*
D03*
Y1210000D02*
D03*
X3110000D02*
D03*
Y4865000D02*
D03*
D25*
X3250512Y4271812D02*
D03*
D26*
Y4115906D02*
D03*
Y3960000D02*
D03*
Y3804094D02*
D03*
D27*
X3384370Y4314330D02*
D03*
D28*
X3129920Y1653543D02*
D03*
X4311022Y4960628D02*
D03*
X4251967Y4606298D02*
D03*
X4311022Y4488188D02*
D03*
X4251967Y4370077D02*
D03*
X4311022Y4251967D02*
D03*
X4251967Y4133857D02*
D03*
X4192912Y4960628D02*
D03*
Y4724408D02*
D03*
X4133857Y4606298D02*
D03*
X4192912Y4488188D02*
D03*
Y4251967D02*
D03*
Y4015747D02*
D03*
X4074802Y4960628D02*
D03*
Y4724408D02*
D03*
X3956692Y4960628D02*
D03*
X3897637Y4606298D02*
D03*
X3956692Y4488188D02*
D03*
Y4251967D02*
D03*
Y4015747D02*
D03*
Y3779526D02*
D03*
X3897637Y3661416D02*
D03*
X3838581Y4960628D02*
D03*
X3779526Y4606298D02*
D03*
X3838581Y4488188D02*
D03*
Y4251967D02*
D03*
Y4015747D02*
D03*
Y3779526D02*
D03*
X3779526Y3661416D02*
D03*
X3720471Y4960628D02*
D03*
X3661416Y4606298D02*
D03*
X3720471Y4488188D02*
D03*
Y4251967D02*
D03*
Y4015747D02*
D03*
Y3779526D02*
D03*
X3661416Y3661416D02*
D03*
X3720471Y3543306D02*
D03*
Y3307086D02*
D03*
X3661416Y3188975D02*
D03*
X3720471Y3070865D02*
D03*
X3661416Y2952755D02*
D03*
Y2716535D02*
D03*
Y2480314D02*
D03*
Y2244094D02*
D03*
Y2007873D02*
D03*
Y1771653D02*
D03*
Y1535433D02*
D03*
Y1299212D02*
D03*
Y1062992D02*
D03*
X3602361Y4960628D02*
D03*
Y4724408D02*
D03*
X3543306Y4606298D02*
D03*
X3602361Y4488188D02*
D03*
Y4251967D02*
D03*
Y4015747D02*
D03*
X3543306Y3661416D02*
D03*
Y3188975D02*
D03*
Y2480314D02*
D03*
Y1535433D02*
D03*
X3602361Y1417322D02*
D03*
X3543306Y1299212D02*
D03*
X3602361Y1181102D02*
D03*
X3543306Y1062992D02*
D03*
X3484251Y4960628D02*
D03*
X3425196Y4842518D02*
D03*
X3484251Y4488188D02*
D03*
Y4251967D02*
D03*
X3425196Y4133857D02*
D03*
Y2952755D02*
D03*
Y2480314D02*
D03*
Y2244094D02*
D03*
Y1771653D02*
D03*
Y1535433D02*
D03*
X3484251Y1417322D02*
D03*
X3425196Y1299212D02*
D03*
X3484251Y1181102D02*
D03*
X3425196Y1062992D02*
D03*
X3366141Y4960628D02*
D03*
X3307086Y4842518D02*
D03*
X3366141Y4724408D02*
D03*
Y4488188D02*
D03*
Y4015747D02*
D03*
Y3779526D02*
D03*
Y3543306D02*
D03*
Y2834645D02*
D03*
X3307086Y2244094D02*
D03*
X3366141Y2125984D02*
D03*
X3307086Y1535433D02*
D03*
X3366141Y1417322D02*
D03*
X3307086Y1299212D02*
D03*
X3366141Y1181102D02*
D03*
X3307086Y1062992D02*
D03*
X3248030Y4960628D02*
D03*
Y4724408D02*
D03*
X3188975Y4606298D02*
D03*
X3248030Y3543306D02*
D03*
Y3070865D02*
D03*
X3188975Y2952755D02*
D03*
X3248030Y2834645D02*
D03*
Y2362204D02*
D03*
X3188975Y2244094D02*
D03*
X3248030Y2125984D02*
D03*
Y1653543D02*
D03*
X3188975Y1535433D02*
D03*
X3248030Y1417322D02*
D03*
X3188975Y1062992D02*
D03*
X3070865Y4606298D02*
D03*
X3129920Y4488188D02*
D03*
Y3779526D02*
D03*
X3070865Y1771653D02*
D03*
Y1535433D02*
D03*
X3129920Y1417322D02*
D03*
X3011810Y4724408D02*
D03*
X2952755Y4606298D02*
D03*
X3011810Y4488188D02*
D03*
X2952755Y4370077D02*
D03*
X3011810Y4251967D02*
D03*
X2952755Y4133857D02*
D03*
X3011810Y4015747D02*
D03*
X2952755Y3897637D02*
D03*
X3011810Y3779526D02*
D03*
X2952755Y3661416D02*
D03*
X3011810Y3543306D02*
D03*
X2952755Y3425196D02*
D03*
X3011810Y3307086D02*
D03*
X2952755Y3188975D02*
D03*
X3011810Y3070865D02*
D03*
X2952755Y2952755D02*
D03*
X3011810Y2834645D02*
D03*
X2952755Y2716535D02*
D03*
X3011810Y2598424D02*
D03*
X2952755Y2480314D02*
D03*
X3011810Y2362204D02*
D03*
X2952755Y2244094D02*
D03*
X3011810Y2125984D02*
D03*
X2952755Y2007873D02*
D03*
X3011810Y1889763D02*
D03*
X2952755Y1771653D02*
D03*
X3011810Y1653543D02*
D03*
X2952755Y1535433D02*
D03*
X3011810Y1417322D02*
D03*
X2952755Y1299212D02*
D03*
X3425000Y4010000D02*
D03*
X3455000Y2295000D02*
D03*
X3350000Y4245000D02*
D03*
X3455000Y3025000D02*
D03*
%TF.MD5,094fbf4ebec534d13f2bad43b3d16d55*%
M02*
