G04*
G04 #@! TF.GenerationSoftware,Altium Limited,Altium Designer,25.8.1 (18)*
G04*
G04 Layer_Color=8421504*
%FSLAX25Y25*%
%MOIN*%
G70*
G04*
G04 #@! TF.SameCoordinates,AAC5086F-39F1-414C-930C-54F135E66DAA*
G04*
G04*
G04 #@! TF.FilePolarity,Positive*
G04*
G01*
G75*
%ADD16R,0.06299X0.05906*%
%ADD17R,0.05512X0.05000*%
%ADD18R,0.07087X0.04528*%
%ADD19R,0.04528X0.04134*%
%ADD20R,0.07087X0.04331*%
%ADD21R,0.06693X0.04528*%
%ADD22R,0.04528X0.06693*%
%ADD23R,0.03937X0.02362*%
%ADD24R,0.02362X0.03937*%
%ADD25R,0.05118X0.02559*%
%ADD26R,0.02559X0.06004*%
%ADD27R,0.12205X0.09449*%
%ADD28R,0.01772X0.05807*%
%ADD29R,0.09685X0.10472*%
%ADD30R,0.02559X0.05118*%
%ADD31R,0.05807X0.01181*%
%ADD32R,0.01181X0.05807*%
%ADD33R,0.06004X0.02559*%
%ADD34R,0.03071X0.03071*%
%ADD35R,0.07165X0.04016*%
%ADD36R,0.04055X0.07362*%
%ADD37R,0.04528X0.07087*%
%ADD38R,0.04724X0.07165*%
%ADD39R,0.07165X0.04724*%
%ADD40R,0.07008X0.04724*%
%ADD41R,0.04409X0.07559*%
%ADD42R,0.04724X0.07008*%
%ADD43O,0.07284X0.02362*%
%ADD44R,0.18898X0.18583*%
%ADD45R,0.14961X0.20472*%
%ADD46R,0.09055X0.06299*%
%ADD47R,0.06299X0.05906*%
%ADD48R,0.04528X0.04528*%
%ADD49R,0.04528X0.04528*%
%ADD50R,0.07087X0.04724*%
%ADD51R,0.04921X0.04528*%
%ADD52R,0.04331X0.07087*%
%ADD53R,0.04921X0.05906*%
%ADD54R,0.05906X0.06299*%
%ADD55R,0.07874X0.07087*%
%ADD56R,0.03543X0.05315*%
%ADD57R,0.06299X0.09055*%
D16*
X253200Y246390D02*
D03*
Y232610D02*
D03*
D17*
X303000Y253800D02*
D03*
X311189D02*
D03*
D18*
X317200Y152691D02*
D03*
X155300Y285909D02*
D03*
X152100Y352717D02*
D03*
X246100Y372291D02*
D03*
X152100Y341300D02*
D03*
X155300Y274491D02*
D03*
X317200Y164109D02*
D03*
X246100Y383709D02*
D03*
X223700Y325009D02*
D03*
Y313591D02*
D03*
X198000Y190661D02*
D03*
Y179244D02*
D03*
X217200Y190661D02*
D03*
Y179244D02*
D03*
D19*
X231695Y441654D02*
D03*
X218506D02*
D03*
Y435946D02*
D03*
X231695D02*
D03*
D20*
X260800Y358709D02*
D03*
X253200Y170591D02*
D03*
X387300Y384537D02*
D03*
Y395954D02*
D03*
X253200Y265114D02*
D03*
Y253697D02*
D03*
X263000Y415091D02*
D03*
Y426509D02*
D03*
X260800Y347291D02*
D03*
X253200Y182009D02*
D03*
X285500Y374309D02*
D03*
Y362891D02*
D03*
X318800Y391491D02*
D03*
Y402909D02*
D03*
X377700Y392591D02*
D03*
Y404009D02*
D03*
X154800Y162991D02*
D03*
Y174409D02*
D03*
X158300Y422691D02*
D03*
Y434109D02*
D03*
X173200Y251109D02*
D03*
Y239691D02*
D03*
Y317309D02*
D03*
Y305891D02*
D03*
D21*
X300100Y171405D02*
D03*
X301900Y215506D02*
D03*
X292900D02*
D03*
X352600Y248505D02*
D03*
X300100Y159595D02*
D03*
X301900Y203695D02*
D03*
X292900D02*
D03*
X267336Y155394D02*
D03*
Y167206D02*
D03*
X352600Y236695D02*
D03*
D22*
X330494Y290300D02*
D03*
X290506Y159300D02*
D03*
X278695D02*
D03*
X342305Y290300D02*
D03*
D23*
X326779Y154460D02*
D03*
X336621Y158200D02*
D03*
X326779Y161940D02*
D03*
D24*
X151960Y267321D02*
D03*
X152060Y333221D02*
D03*
X155800Y323379D02*
D03*
X159540Y333221D02*
D03*
X155700Y257479D02*
D03*
X159440Y267321D02*
D03*
D25*
X233918Y261310D02*
D03*
X317763Y176821D02*
D03*
X175034Y427380D02*
D03*
X233918Y268869D02*
D03*
X242186Y265090D02*
D03*
X317763Y184379D02*
D03*
X326031Y180600D02*
D03*
X175034Y419820D02*
D03*
X166766Y423600D02*
D03*
D26*
X209800Y329877D02*
D03*
X334100Y258800D02*
D03*
X329100D02*
D03*
X214800Y329877D02*
D03*
X204800D02*
D03*
X199800D02*
D03*
Y308523D02*
D03*
X204800D02*
D03*
X209800D02*
D03*
X214800D02*
D03*
X329100Y237446D02*
D03*
X334100D02*
D03*
X339100D02*
D03*
X344100D02*
D03*
Y258800D02*
D03*
X339100D02*
D03*
X411400Y417477D02*
D03*
X406400D02*
D03*
X401400D02*
D03*
X396400D02*
D03*
Y396123D02*
D03*
X401400D02*
D03*
X406400D02*
D03*
X411400D02*
D03*
D27*
X336600Y248123D02*
D03*
D28*
X292736Y195034D02*
D03*
X287618Y171900D02*
D03*
X292736D02*
D03*
X274823D02*
D03*
X277382D02*
D03*
X279941D02*
D03*
X282500D02*
D03*
X285059D02*
D03*
X290177D02*
D03*
Y195034D02*
D03*
X287618D02*
D03*
X285059D02*
D03*
X282500D02*
D03*
X279941D02*
D03*
X277382D02*
D03*
X274823D02*
D03*
D29*
X283780Y183467D02*
D03*
D30*
X158580Y146766D02*
D03*
X169421Y266337D02*
D03*
Y332237D02*
D03*
X151021Y146766D02*
D03*
X154800Y155034D02*
D03*
X176979Y266337D02*
D03*
X173200Y258069D02*
D03*
X176979Y332237D02*
D03*
X173200Y323969D02*
D03*
D31*
X228590Y395195D02*
D03*
X183409D02*
D03*
X228590Y397164D02*
D03*
Y393227D02*
D03*
Y391258D02*
D03*
Y389290D02*
D03*
Y387321D02*
D03*
Y385353D02*
D03*
Y383384D02*
D03*
Y381416D02*
D03*
Y379447D02*
D03*
Y377479D02*
D03*
Y375510D02*
D03*
Y373542D02*
D03*
Y371573D02*
D03*
Y369605D02*
D03*
Y367636D02*
D03*
X183409D02*
D03*
Y369605D02*
D03*
Y371573D02*
D03*
Y373542D02*
D03*
Y375510D02*
D03*
Y377479D02*
D03*
Y379447D02*
D03*
Y381416D02*
D03*
Y383384D02*
D03*
Y385353D02*
D03*
Y387321D02*
D03*
Y389290D02*
D03*
Y391258D02*
D03*
Y393227D02*
D03*
Y397164D02*
D03*
D32*
X199110Y404990D02*
D03*
X220764Y359809D02*
D03*
X218795D02*
D03*
X216827D02*
D03*
X214858D02*
D03*
X212890D02*
D03*
X210921D02*
D03*
X208953D02*
D03*
X206984D02*
D03*
X205016D02*
D03*
X203047D02*
D03*
X201079D02*
D03*
X199110D02*
D03*
X197142D02*
D03*
X195173D02*
D03*
X193205D02*
D03*
X191236D02*
D03*
Y404990D02*
D03*
X193205D02*
D03*
X195173D02*
D03*
X197142D02*
D03*
X201079D02*
D03*
X203047D02*
D03*
X205016D02*
D03*
X206984D02*
D03*
X208953D02*
D03*
X210921D02*
D03*
X212890D02*
D03*
X214858D02*
D03*
X216827D02*
D03*
X218795D02*
D03*
X220764D02*
D03*
D33*
X337723Y383100D02*
D03*
Y398100D02*
D03*
Y393100D02*
D03*
Y388100D02*
D03*
X359077Y383100D02*
D03*
Y388100D02*
D03*
Y393100D02*
D03*
Y398100D02*
D03*
D34*
X207600Y152692D02*
D03*
X203860Y161708D02*
D03*
X211340D02*
D03*
D35*
X267100Y184812D02*
D03*
X283700Y214462D02*
D03*
X207639Y179441D02*
D03*
X267100Y173788D02*
D03*
X283700Y203439D02*
D03*
X207639Y190465D02*
D03*
D36*
X330209Y279900D02*
D03*
X341390D02*
D03*
D37*
X330095Y269200D02*
D03*
X251500Y434800D02*
D03*
X262917D02*
D03*
X275309Y206600D02*
D03*
X263891D02*
D03*
X341905Y269200D02*
D03*
D38*
X211212Y338600D02*
D03*
X201953Y415000D02*
D03*
X233212D02*
D03*
Y423800D02*
D03*
X239012Y351100D02*
D03*
Y342300D02*
D03*
X247712Y331400D02*
D03*
Y321936D02*
D03*
Y312472D02*
D03*
Y303007D02*
D03*
Y293543D02*
D03*
X200188Y338600D02*
D03*
X190929Y415000D02*
D03*
X222188D02*
D03*
Y423800D02*
D03*
X227988Y351100D02*
D03*
Y342300D02*
D03*
X236688Y331400D02*
D03*
Y321936D02*
D03*
Y312472D02*
D03*
Y303007D02*
D03*
Y293543D02*
D03*
D39*
X319100Y409488D02*
D03*
X213400Y424512D02*
D03*
X173500Y404212D02*
D03*
X164400D02*
D03*
X174200Y351700D02*
D03*
X165400D02*
D03*
X238200Y394188D02*
D03*
X247200D02*
D03*
X329000Y385088D02*
D03*
X368500D02*
D03*
Y396112D02*
D03*
X377679Y410888D02*
D03*
Y421912D02*
D03*
X319100Y420512D02*
D03*
X213400Y413488D02*
D03*
X173500Y393188D02*
D03*
X164400D02*
D03*
X174200Y362724D02*
D03*
X165400D02*
D03*
X238200Y405212D02*
D03*
X247200D02*
D03*
X329000Y396112D02*
D03*
D40*
X319179Y437954D02*
D03*
X321000Y219346D02*
D03*
X330100D02*
D03*
X220000Y341546D02*
D03*
X377600Y429046D02*
D03*
Y439754D02*
D03*
X319179Y427246D02*
D03*
X321000Y230054D02*
D03*
X330100D02*
D03*
X220000Y352254D02*
D03*
D41*
X290012Y273500D02*
D03*
Y263500D02*
D03*
X278988Y273500D02*
D03*
Y263500D02*
D03*
D42*
X165346Y372200D02*
D03*
X201854Y424700D02*
D03*
X247495Y284000D02*
D03*
X176054Y372200D02*
D03*
X191146Y424700D02*
D03*
X236787Y284000D02*
D03*
D43*
X329798Y431300D02*
D03*
Y416300D02*
D03*
X367002Y426300D02*
D03*
Y431300D02*
D03*
Y421300D02*
D03*
Y416300D02*
D03*
X329798Y421300D02*
D03*
Y426300D02*
D03*
D44*
X307095Y268780D02*
D03*
D45*
X313185Y308500D02*
D03*
X273815D02*
D03*
D46*
X348139Y158200D02*
D03*
X365461D02*
D03*
D47*
X154800Y186210D02*
D03*
Y199990D02*
D03*
X272900Y347310D02*
D03*
Y361090D02*
D03*
X253000Y192710D02*
D03*
Y206490D02*
D03*
X173200Y228890D02*
D03*
Y215110D02*
D03*
Y294990D02*
D03*
Y281210D02*
D03*
D48*
X449400Y320626D02*
D03*
Y311374D02*
D03*
D49*
X402074Y439700D02*
D03*
X411326D02*
D03*
D50*
X449500Y304200D02*
D03*
Y292389D02*
D03*
X435100Y439706D02*
D03*
Y427894D02*
D03*
X449500Y285200D02*
D03*
Y273389D02*
D03*
X435100Y420506D02*
D03*
Y408695D02*
D03*
X449500Y266206D02*
D03*
Y254395D02*
D03*
X435100Y401305D02*
D03*
Y389494D02*
D03*
X449500Y247100D02*
D03*
Y235289D02*
D03*
X435100Y382105D02*
D03*
Y370294D02*
D03*
D51*
X350500Y269974D02*
D03*
Y279226D02*
D03*
D52*
X302209Y340400D02*
D03*
X290791D02*
D03*
X333101Y180600D02*
D03*
X344518D02*
D03*
D53*
X259209Y376600D02*
D03*
X272791D02*
D03*
X259209Y391100D02*
D03*
X272791D02*
D03*
D54*
X355138Y180591D02*
D03*
X368918D02*
D03*
X158310Y441700D02*
D03*
X172090D02*
D03*
D55*
X445200Y110100D02*
D03*
Y220100D02*
D03*
X385200Y205061D02*
D03*
Y125139D02*
D03*
D56*
X212621Y223457D02*
D03*
X202779D02*
D03*
Y205543D02*
D03*
X212621D02*
D03*
D57*
X155600Y247761D02*
D03*
Y230439D02*
D03*
X155800Y314461D02*
D03*
Y297139D02*
D03*
M02*
