M48
;Layer_Color=9474304
;FILE_FORMAT=2:5
INCH
;TYPE=PLATED
T01F00S00C0.01181
T02F00S00C0.02000
T03F00S00C0.02913
T04F00S00C0.03300
T06F00S00C0.07126
T07F00S00C0.07441
%
T01
X0130000Y0140000
X0150000
X0170000
X0180000Y0120000
X0160000
X0207600Y0147900
X0230000Y0140000
X0250000
X0260000Y0120000
X0240000
X0310000Y0140000
X0320000Y0120000
X0370000Y0140000
Y0220000
X0350000
X0330100Y0214400
X0321100
X0320000Y0200000
X0340000
X0340734Y0245367
Y0250780
X0336600Y0248123
X0332565Y0250780
Y0245367
X0323000Y0237300
Y0258900
X0370000Y0260000
X0360000Y0280000
X0350000Y0300000
X0330000
X0360000Y0240000
X0461600Y0235200
X0300000Y0240000
X0310000Y0220000
X0309400Y0202800
X0301800Y0209600
X0284100Y0220000
X0270000
X0250000
X0244379Y0215110
X0230000Y0220000
X0240000Y0240000
X0260000
X0270000Y0260000
X0250000
X0227700Y0268800
X0220000Y0280000
X0200000
X0182600Y0276700
X0190000Y0260000
X0200000Y0240000
X0180000
X0160000
Y0280000
X0190000Y0300000
X0230000
X0259300Y0294100
X0290000Y0300000
X0286200Y0186700
X0281300
X0283900Y0183400
X0286200Y0180200
X0281300
X0270000Y0180000
X0267100Y0190000
X0260000Y0200000
X0240000
X0230000Y0180000
X0207600Y0174400
X0190000Y0180000
X0170000
X0180000Y0200000
X0190000Y0220000
X0180000Y0160000
X0220000
X0240000
X0150000Y0180000
Y0220000
X0130000
X0140000Y0280000
X0120000
X0130000Y0340000
X0140000Y0360000
Y0440000
X0120000
X0130000Y0460000
X0150000
X0170000
X0190000
X0210000
X0212900Y0429400
X0207000Y0424800
X0207100Y0414900
X0238100Y0415500
X0238000Y0423700
X0250000Y0420000
X0270000
X0262900Y0409300
X0240000Y0400000
X0239500Y0389200
X0247800
X0236795Y0375488
X0240000Y0360000
X0244100Y0351000
Y0342500
X0250000Y0340000
X0270000
X0300000Y0360000
X0310000Y0380000
X0290000
X0300000Y0440000
X0280000
X0240000
X0182700Y0441600
X0173500Y0409200
X0164600
X0159800Y0372200
X0164900Y0346700
X0174000
X0190000Y0340000
X0211400Y0345100
X0219500Y0336600
X0220000Y0320000
X0200000
X0203761Y0366962
X0199100Y0371100
X0190000Y0380000
X0215900Y0379400
X0221000Y0371500
X0216800Y0366400
X0300000Y0320000
X0310000Y0460000
X0326300Y0439000
X0326400Y0408700
X0328788Y0401404
X0328100Y0380200
X0333600Y0379000
X0320000Y0360000
X0340000Y0320000
X0320000Y0480000
X0300000
X0140000
T02
X0301300Y0263100
X0307100
Y0269000
X0301300
Y0275232
T03
X0162700Y0484800
X0167700
X0172700
X0177700
X0182700
X0187700
X0192700
Y0489800
X0187700
X0182700
X0177700
X0172700
X0167700
X0162700
T04
X0571700Y0170800
X0461700
X0485100Y0379900
X0595100
X0489700Y0470100
X0379700
T06
X0124700Y0373619
Y0389210
Y0404800
Y0420391
X0231619Y0475042
X0247210
X0262800
X0278391
T07
X0199305Y0124700
X0214895
X0279409
X0295000
X0341000
X0356591
X0481500
X0497090
X0124542Y0171109
Y0186700
Y0240109
Y0255700
Y0306000
Y0321591
X0626500Y0364200
Y0379791
X0542600Y0475312
X0527009
M30
