M48
;Layer_Color=9474304
;FILE_FORMAT=2:5
INCH
;TYPE=PLATED
T05F00S00C0.03543
%
G90
G05
T05
G00X0627843Y0282400
M15
G01X0623512
M16
G00X0627843Y0311928
M15
G01X0623512
M16
G00X0612843Y0311928
M15
G01X0608512
M16
G00X0612843Y0282400
M15
G01X0608512
M16
G00X0559735Y0282500
M15
G01X0564065
M16
G00X0544735Y0282500
M15
G01X0549065
M16
G00X0544735Y0312028
M15
G01X0549065
M16
G00X0559735Y0312028
M15
G01X0564065
M16
G00X0499165Y0312028
M15
G01X0494835
M16
G00X0484165Y0312028
M15
G01X0479835
M16
G00X0484165Y0282500
M15
G01X0479835
M16
G00X0499165Y0282500
M15
G01X0494835
M16
G00X0503772Y0224135
M15
G01Y0228465
M16
G00X0503772Y0209135
M15
G01Y0213465
M16
G00X0533300Y0209135
M15
G01Y0213465
M16
G00X0533300Y0224135
M15
G01Y0228465
M16
G00X0592600Y0224135
M15
G01Y0228465
M16
G00X0592600Y0209135
M15
G01Y0213465
M16
G00X0622128Y0209135
M15
G01Y0213465
M16
G00X0622128Y0224135
M15
G01Y0228465
M16
M17
M30
